<svg width="143.38" height="16.4" xmlns="http://www.w3.org/2000/svg"><path d="M49.2 15.07v-3.96h4.4q0 .62.28.9t1.02.28q.62 0 .89-.19t.27-.57q0-.32-.26-.55-.26-.23-.9-.47l-1.72-.6q-2.22-.84-3.19-1.98-.97-1.14-.97-3.08 0-2.36 1.55-3.59T55.74.03q1.74 0 3.27.35t2.47.93V4.9h-4q0-1-1.24-1-.6 0-.85.15t-.25.53q0 .34.29.54t.95.42l1.74.6q2.12.72 3.09 1.87.97 1.15.97 3.01 0 2.54-1.71 3.84-1.71 1.3-5.01 1.3-1.92 0-3.63-.33t-2.63-.75ZM11.46.31l3.38 12.28h.8v3.28H7.8V12.6H9L8.68 11H5.96l-.32 1.6h1.2v3.28H0V12.6h.8L4.18.31h7.28ZM129.48 12.6h.88v3.28h-6.32V12.6h.84V9.31q0-.66-.28-.97-.28-.3-.84-.3-1.2 0-1.2 1.27v3.28h.84v3.28h-6.32V12.6h.88V8.03h-.88V4.75h5.48v1.56q1.44-1.84 3.6-1.84 1.66 0 2.49 1.04.83 1.04.83 2.86v4.22Zm-42 1.92v1.36H82V12.6h.88v-9H82V.31h5.48v5.8q.5-.64 1.29-1.14.79-.5 1.81-.5 2.04 0 3.07 1.52 1.03 1.52 1.03 4.32 0 2.8-1.03 4.32-1.03 1.52-3.07 1.52-1.02 0-1.81-.5t-1.29-1.14ZM41.7 12.6h.88v3.28H37.3v-1.36q-.44.64-1.23 1.14-.79.5-1.93.5-1.5 0-2.36-.8-.86-.8-.86-2.26 0-3.78 6.42-3.88-.06-.68-.52-.93t-1.56-.25q-.9 0-1.93.2-1.03.18-1.89.5V5.05q1.06-.26 2.3-.42 1.24-.16 2.42-.16 2.98 0 4.26 1.08Q41.7 6.63 41.7 8.9v3.7Zm38.78 0h.88v3.28h-5.28v-1.36q-.44.64-1.23 1.14-.79.5-1.93.5-1.5 0-2.36-.8-.86-.8-.86-2.26 0-3.78 6.42-3.88-.06-.68-.52-.93t-1.56-.25q-.9 0-1.93.2-1.03.18-1.89.5V5.05q1.06-.26 2.3-.42 1.24-.16 2.42-.16 2.98 0 4.26 1.08 1.28 1.08 1.28 3.34v3.7Zm-57.24 3.28V12.6h.88V8.03h-.88V4.75h.92q0-2.44 1.19-3.58Q26.54.03 28.82.03q1.1 0 1.97.16.87.16 1.27.36V3.7Q31 3.6 30.1 3.6q-.78 0-1.08.26-.3.26-.3.9h1.56v3.28h-1.56v4.56h1.56v3.28h-7.04Zm85.56.28q-3.66 0-5.65-1.92-1.99-1.92-1.99-6.14t1.99-6.14Q105.14.03 108.8.03t5.65 1.92q1.99 1.92 1.99 6.14t-1.99 6.14q-1.99 1.92-5.65 1.92Zm33.48-6.56v1.44h-6.48v.12q0 .74.44 1.1.44.34 1.46.34 1.22 0 2.32-.18 1.1-.18 1.92-.46v3.2q-.7.38-2.05.7-1.35.3-2.93.3-2.84 0-4.44-1.49-1.6-1.49-1.6-4.35 0-2.86 1.6-4.35 1.6-1.49 4.44-1.49 2.82 0 4.07 1.47 1.25 1.47 1.25 3.65ZM22.6 15.9h-6.36v-3.3h.88v-9h-.88V.31h5.48V12.6h.88v3.3Zm46.46 0H62.7v-3.3h.88v-9h-.88V.31h5.48V12.6h.88v3.3Zm41.1-4.78V5.07q0-.76-.34-1.12-.34-.36-1.02-.36-.68 0-1.02.36-.34.36-.34 1.12v6.04q0 .78.34 1.13.34.35 1.02.35.68 0 1.02-.36.34-.36.34-1.12Zm-20.36.2v-2q0-.66-.29-.97-.29-.3-.87-.3-.58 0-.87.3-.29.31-.29.97v2q0 .66.29.97.29.31.87.31.58 0 .87-.3.29-.32.29-.98ZM7.22 4.9 6.4 8.87h1.84L7.42 4.9h-.2ZM135.8 8.83h2.32V8.6q0-.68-.29-.98-.29-.3-.87-.3-.58 0-.87.31-.29.31-.29.97v.24Zm-98.5 2.48v-.12q-.9 0-1.39.24-.49.24-.49.8 0 .34.21.55.21.21.59.21.52 0 .8-.44t.28-1.24Zm38.78 0v-.12q-.9 0-1.39.24-.49.24-.49.8 0 .34.21.55.21.21.59.21.52 0 .8-.44t.28-1.24Z" vector-effect="non-scaling-stroke" stroke-linecap="round" fill-rule="evenodd" font-size="12" stroke="#000" stroke-width=".94" fill="none" style="stroke:#000;stroke-width:.25mm;fill:none"/></svg>