<svg width="141.06" height="19.26" xmlns="http://www.w3.org/2000/svg"><path d="M36.94 1.61v6.1a23.95 23.95 0 0 1 .74-.92q.39-.48.84-.86.45-.38.97-.63.53-.24 1.16-.24.55 0 .92.22t.6.53q.23.3.33.64a2.16 2.16 0 0 1 .09.56 3.8 3.8 0 0 1-.11.9q-.12.46-.38.92a4.08 4.08 0 0 1-.72.88 4.9 4.9 0 0 1-1.14.77q.92 1.94 1.8 3.35.86 1.4 1.67 2.3a6.56 6.56 0 0 0 1.55 1.33 2.84 2.84 0 0 0 1.41.43.96.96 0 0 0 .23-.03 1.67 1.67 0 0 0 .22-.06 2.14 2.14 0 0 0 .22-.1l.19.34q-.26.15-.54.28-.27.13-.62.23t-.81.15a8.79 8.79 0 0 1-1.1.06 4.8 4.8 0 0 1-1.13-.13 3.89 3.89 0 0 1-1.13-.5 6.38 6.38 0 0 1-1.15-.93 10.46 10.46 0 0 1-1.2-1.48 21.36 21.36 0 0 1-1.25-2.14q-.64-1.24-1.33-2.9a10.23 10.23 0 0 0 1.47-1.29 6.3 6.3 0 0 0 .81-1.07 2.79 2.79 0 0 0 .34-.85q.07-.37.07-.63a1.45 1.45 0 0 0 0-.13q-.02-.1-.07-.18-.05-.1-.16-.16-.1-.07-.29-.07a1.16 1.16 0 0 0-.73.3 4.34 4.34 0 0 0-.7.77q-.34.46-.62.98-.27.52-.45.95v5.04a1.28 1.28 0 0 1-.04.3q-.04.18-.2.33a1.32 1.32 0 0 1-.47.27 2.47 2.47 0 0 1-.83.11 2.17 2.17 0 0 1-.8-.12 1.14 1.14 0 0 1-.44-.29q-.15-.16-.18-.34a1.56 1.56 0 0 1-.03-.28V1.72a.9.9 0 0 0-.14-.5.48.48 0 0 0-.44-.2.71.71 0 0 0-.29.05q-.12.06-.26.16l-.2-.23a5.81 5.81 0 0 1 .5-.37 3.61 3.61 0 0 1 .6-.32q.33-.13.7-.22.38-.09.79-.09.63 0 .98.17a1.27 1.27 0 0 1 .52.42 1.2 1.2 0 0 1 .2.53 4.1 4.1 0 0 1 .03.5Zm61.27 4.7-.2-.25q.22-.19.5-.37t.6-.32a4.32 4.32 0 0 1 .7-.22q.37-.09.78-.09.58 0 .94.2a1.68 1.68 0 0 1 .58.5 1.94 1.94 0 0 1 .3.64 5.79 5.79 0 0 1 .12.61q.18 1.48.35 2.6a19.36 19.36 0 0 0 .36 1.88q.2.76.43 1.14.23.39.54.39a.6.6 0 0 0 .4-.18 1.91 1.91 0 0 0 .37-.48 4.8 4.8 0 0 0 .33-.76 8.3 8.3 0 0 0 .28-.98q-.1-.54-.17-1.07a55.86 55.86 0 0 1-.12-1 178.85 178.85 0 0 0-.1-.91 11.84 11.84 0 0 0-.11-.74 3.4 3.4 0 0 1-.05-.54 1.46 1.46 0 0 1 .22-.84 1.46 1.46 0 0 1 1.27-.46q.42 0 .71.07a.98.98 0 0 1 .48.28q.2.2.3.54a4.66 4.66 0 0 1 .2.89 105.2 105.2 0 0 0 .36 2.62 22.34 22.34 0 0 0 .37 1.94 5.13 5.13 0 0 0 .42 1.2.65.65 0 0 0 .54.42.78.78 0 0 0 .62-.41 3.93 3.93 0 0 0 .49-1.08q.2-.68.31-1.56a14.32 14.32 0 0 0 .12-1.81q0-.65-.1-1.07a5.06 5.06 0 0 0-.18-.7 5.12 5.12 0 0 0-.2-.46.78.78 0 0 1-.08-.33.3.3 0 0 1 .12-.25q.11-.1.27-.16.17-.07.34-.1t.27-.03q.29 0 .42.08.12.08.2.3a3.46 3.46 0 0 1 .12.75 13.52 13.52 0 0 1 .04.99q0 .75-.1 1.65-.08.9-.27 1.8-.19.92-.49 1.76a7.28 7.28 0 0 1-.72 1.51 3.8 3.8 0 0 1-.96 1.06 2.06 2.06 0 0 1-1.24.4 2.14 2.14 0 0 1-.98-.23 2.64 2.64 0 0 1-.78-.6q-.34-.38-.6-.89a8.16 8.16 0 0 1-.45-1.1 7.72 7.72 0 0 1-.52 1.11 4.75 4.75 0 0 1-.65.9 2.78 2.78 0 0 1-.79.59q-.43.21-.93.21a2.17 2.17 0 0 1-1.08-.26 2.82 2.82 0 0 1-.84-.74q-.36-.46-.63-1.08-.26-.61-.45-1.3-.19-.68-.32-1.4-.12-.72-.21-1.4-.09-.67-.15-1.26a29.01 29.01 0 0 0-.12-1.01 1.75 1.75 0 0 0-.2-.6q-.13-.22-.44-.22-.17 0-.28.05a1.52 1.52 0 0 0-.26.17ZM54.94 1.6v5.3a5.33 5.33 0 0 1 .82-.92 4.08 4.08 0 0 1 .42-.34 3.69 3.69 0 0 1 .49-.3 2.84 2.84 0 0 1 .54-.21q.3-.08.6-.08a2.63 2.63 0 0 1 1.16.26q.52.25.87.84.36.6.54 1.58a13.42 13.42 0 0 1 .19 2.44 10.52 10.52 0 0 1-.26 2.46 7.04 7.04 0 0 1-.66 1.78q-.41.73-.93 1.2-.52.46-1.04.72a4.22 4.22 0 0 1-1.02.37 4.83 4.83 0 0 1-.84.1l-.1-.4q.44-.1.79-.4.34-.29.57-.95a8.33 8.33 0 0 0 .36-1.8 28.27 28.27 0 0 0 .12-2.92 13.66 13.66 0 0 0-.11-1.97 4.28 4.28 0 0 0-.3-1.13q-.18-.38-.4-.5a.98.98 0 0 0-.47-.13q-.28 0-.5.15-.21.16-.37.35a2.84 2.84 0 0 0-.28.4 2.44 2.44 0 0 1-.19.29v6.52a1.5 1.5 0 0 1-.04.3.72.72 0 0 1-.19.35 1.18 1.18 0 0 1-.45.27 2.38 2.38 0 0 1-.81.11 2.25 2.25 0 0 1-.82-.12 1.23 1.23 0 0 1-.46-.29q-.15-.16-.19-.34a1.37 1.37 0 0 1-.04-.28V1.72a.9.9 0 0 0-.13-.5.48.48 0 0 0-.44-.2.71.71 0 0 0-.29.05q-.12.06-.26.16l-.2-.23a5.81 5.81 0 0 1 .5-.37 3.61 3.61 0 0 1 .6-.32q.33-.13.7-.22.37-.09.78-.09.64 0 .99.17a1.27 1.27 0 0 1 .52.42 1.2 1.2 0 0 1 .2.53 4.1 4.1 0 0 1 .03.5Zm79.9 0v5.3a5.33 5.33 0 0 1 .81-.92 4.08 4.08 0 0 1 .42-.34 3.69 3.69 0 0 1 .49-.3 2.84 2.84 0 0 1 .54-.21q.3-.08.6-.08a2.63 2.63 0 0 1 1.17.26q.51.25.87.84.35.6.53 1.58a13.42 13.42 0 0 1 .19 2.44 10.52 10.52 0 0 1-.25 2.46 7.04 7.04 0 0 1-.67 1.78q-.4.73-.93 1.2-.51.46-1.04.72a4.22 4.22 0 0 1-1.02.37 4.83 4.83 0 0 1-.84.1l-.1-.4q.44-.1.79-.4.34-.29.57-.95a8.33 8.33 0 0 0 .36-1.8 28.27 28.27 0 0 0 .12-2.92 13.66 13.66 0 0 0-.11-1.97 4.28 4.28 0 0 0-.3-1.13q-.17-.38-.4-.5a.98.98 0 0 0-.47-.13q-.28 0-.5.15-.21.16-.37.35a2.84 2.84 0 0 0-.28.4 2.44 2.44 0 0 1-.19.29v6.52a1.5 1.5 0 0 1-.03.3.72.72 0 0 1-.2.35 1.18 1.18 0 0 1-.44.27 2.38 2.38 0 0 1-.82.11 2.25 2.25 0 0 1-.82-.12 1.23 1.23 0 0 1-.45-.29q-.16-.16-.2-.34a1.37 1.37 0 0 1-.03-.28V1.72a.9.9 0 0 0-.13-.5.48.48 0 0 0-.45-.2.71.71 0 0 0-.29.05q-.12.06-.26.16l-.2-.23a5.81 5.81 0 0 1 .5-.37 3.61 3.61 0 0 1 .6-.32q.33-.13.7-.22.38-.09.79-.09.63 0 .98.17a1.27 1.27 0 0 1 .52.42 1.2 1.2 0 0 1 .2.53 4.1 4.1 0 0 1 .03.5Zm-42.34 15a2.2 2.2 0 0 0 .77-.14 1.73 1.73 0 0 0 .68-.47 2.47 2.47 0 0 0 .48-.85 3.91 3.91 0 0 0 .19-1.29q0-.82-.4-1.6-.41-.76-1.02-1.51-.61-.75-1.32-1.48a21.57 21.57 0 0 1-1.32-1.5 8.9 8.9 0 0 1-1.01-1.6q-.4-.8-.4-1.7a3.83 3.83 0 0 1 .32-1.6 3.65 3.65 0 0 1 .89-1.22 4 4 0 0 1 1.3-.78 4.6 4.6 0 0 1 1.6-.27 6.24 6.24 0 0 1 1.62.19 4.08 4.08 0 0 1 1.2.52 2.3 2.3 0 0 1 .75.77q.25.44.25.94 0 .23-.07.48a1.42 1.42 0 0 1-.21.46 1.25 1.25 0 0 1-.37.34 1 1 0 0 1-.53.14.63.63 0 0 1-.53-.22 1.47 1.47 0 0 1-.26-.55 7.16 7.16 0 0 1-.14-.7 3.27 3.27 0 0 0-.18-.71q-.13-.32-.39-.54-.25-.22-.74-.22a1.26 1.26 0 0 0-.52.11 1.38 1.38 0 0 0-.47.36 1.8 1.8 0 0 0-.34.61 2.72 2.72 0 0 0-.12.88q0 .59.24 1.14a5.72 5.72 0 0 0 .65 1.1q.4.54.9 1.08l1.05 1.1A34.7 34.7 0 0 1 96.1 9a9.87 9.87 0 0 1 .91 1.2 6.43 6.43 0 0 1 .65 1.32q.24.68.24 1.43a4.4 4.4 0 0 1-.42 1.97 4.28 4.28 0 0 1-1.16 1.45 5.17 5.17 0 0 1-1.7.9q-.98.32-2.08.32-1 0-1.76-.25a4.2 4.2 0 0 1-1.3-.66q-.52-.4-.8-.93a2.33 2.33 0 0 1-.26-1.08q0-.23.07-.5.08-.27.22-.5.14-.22.35-.37.22-.15.5-.15a.73.73 0 0 1 .47.14q.19.15.3.4.1.24.17.55l.14.63q.08.33.2.64.12.31.32.56a1.47 1.47 0 0 0 .53.39 1.96 1.96 0 0 0 .81.14ZM11.84 7v.14a4 4 0 0 1 1.63.55q.3.18.6.46a3 3 0 0 1 .52.68 3.8 3.8 0 0 1 .37.91q.14.53.14 1.2a4.43 4.43 0 0 1-.37 1.85 3.66 3.66 0 0 1-1.1 1.39 5.18 5.18 0 0 1-1.83.87q-1.1.3-2.54.3a11.6 11.6 0 0 1-2.18-.16q-.84-.17-1.3-.48a1.63 1.63 0 0 1-.65-.77 2.84 2.84 0 0 1-.17-1.02V2.24a.58.58 0 0 0-.74-.54q-.54 0-1.09.16a3.95 3.95 0 0 0-1 .44q-.44.28-.72.67-.29.38-.29.83a1.24 1.24 0 0 0 .09.5q.08.19.19.28a.5.5 0 0 0 .22.12.87.87 0 0 0 .16.02q.24 0 .4-.08a2.34 2.34 0 0 0 .28-.18 54.83 54.83 0 0 0 .24-.17q.11-.09.26-.09.12 0 .25.06a.71.71 0 0 1 .24.17.97.97 0 0 1 .2.3q.07.2.07.47 0 .39-.15.67-.15.29-.4.47-.23.2-.54.29-.3.1-.6.1a2.12 2.12 0 0 1-.85-.17 1.87 1.87 0 0 1-.64-.44 1.9 1.9 0 0 1-.4-.67 2.38 2.38 0 0 1-.14-.8A3.22 3.22 0 0 1 .3 3.2a3.15 3.15 0 0 1 .86-1.07 4.84 4.84 0 0 1 1.32-.75A9.72 9.72 0 0 1 4.2.92q.94-.18 2-.25Q7.28.6 8.43.6a7.69 7.69 0 0 1 4.16.88q1.34.89 1.34 2.57 0 .42-.1.78-.09.35-.23.64a2.78 2.78 0 0 1-.34.5 3.11 3.11 0 0 1-.38.4q-.46.4-1.03.63Zm110.04 1.02v5.72a.61.61 0 0 0 .05.19.37.37 0 0 0 .12.14q.08.06.23.06a.49.49 0 0 0 .32-.13q.16-.13.27-.27l.25.2a7.35 7.35 0 0 1-.36.46q-.2.24-.5.46a2.83 2.83 0 0 1-.68.36 2.52 2.52 0 0 1-.89.14q-.61 0-1.09-.36-.48-.37-.63-1.13a4.14 4.14 0 0 1-.64.7q-.34.29-.7.46a3.03 3.03 0 0 1-.7.26q-.36.07-.72.07a2.85 2.85 0 0 1-.9-.14q-.45-.15-.8-.47-.34-.31-.55-.82a3.25 3.25 0 0 1-.2-1.24 2.72 2.72 0 0 1 .34-1.46 3.14 3.14 0 0 1 .93-.95 6.22 6.22 0 0 1 1.3-.66 85.04 85.04 0 0 0 1.48-.57 1.6 1.6 0 0 0 .83-.67q.26-.45.26-.92a1.58 1.58 0 0 0-.43-1.15q-.42-.44-1.16-.44-.33 0-.61.08a2.12 2.12 0 0 0-.49.2 1.16 1.16 0 0 0-.32.25q-.12.15-.12.27a.22.22 0 0 0 .15.21 15.71 15.71 0 0 1 .34.15 1.12 1.12 0 0 1 .34.23q.15.16.15.47a.85.85 0 0 1-.08.37q-.09.17-.23.3a1.02 1.02 0 0 1-.33.21q-.2.07-.4.07a1.14 1.14 0 0 1-.88-.37q-.34-.37-.34-.98 0-.6.32-1.02a2.44 2.44 0 0 1 .81-.7 4.12 4.12 0 0 1 1.14-.4q.63-.14 1.27-.14a6.23 6.23 0 0 1 1.45.17q.7.16 1.23.52.53.37.85.92a2.68 2.68 0 0 1 .32 1.35Zm-78.36 5.52.34-.25q.13.15.32.32a3.18 3.18 0 0 0 .44.32q.23.14.5.24a1.72 1.72 0 0 0 .56.09 1.87 1.87 0 0 0 1.16-.34 1.17 1.17 0 0 0 .45-1q0-.37-.25-.76a6.02 6.02 0 0 0-.61-.82l-.8-.87a11.83 11.83 0 0 1-.8-.93 5.5 5.5 0 0 1-.62-.98q-.24-.51-.24-1.06 0-.61.25-1.07a2.27 2.27 0 0 1 .66-.76q.41-.3.95-.46.53-.15 1.1-.15a5.6 5.6 0 0 1 1.19.12 2.92 2.92 0 0 1 .92.36 1.72 1.72 0 0 1 .6.6q.2.36.2.83 0 .38-.24.65a.87.87 0 0 1-.68.27q-.42 0-.64-.18a.6.6 0 0 1-.22-.5.47.47 0 0 1 .1-.31.9.9 0 0 1 .23-.2l.23-.12q.1-.05.1-.14 0-.28-.3-.44-.29-.16-.74-.16a1.5 1.5 0 0 0-.43.06.97.97 0 0 0-.35.2q-.16.12-.25.32t-.09.48q0 .38.28.75.28.38.7.79a29.9 29.9 0 0 0 .9.84q.48.43.9.91.4.49.68 1.03a2.55 2.55 0 0 1 .28 1.17 3.1 3.1 0 0 1-.24 1.25 2.55 2.55 0 0 1-.68.93 3.04 3.04 0 0 1-1.07.58 4.61 4.61 0 0 1-1.4.2q-.68 0-1.23-.19a4.41 4.41 0 0 1-.97-.46 4.25 4.25 0 0 1-.73-.6q-.3-.3-.46-.56Zm79.89 0 .34-.25q.13.15.32.32a3.18 3.18 0 0 0 .44.32q.24.14.51.24a1.72 1.72 0 0 0 .56.09 1.87 1.87 0 0 0 1.15-.34 1.17 1.17 0 0 0 .45-1q0-.37-.25-.76a6.02 6.02 0 0 0-.61-.82q-.37-.42-.8-.87a11.83 11.83 0 0 1-.8-.93 5.5 5.5 0 0 1-.62-.98q-.24-.51-.24-1.06 0-.61.25-1.07a2.27 2.27 0 0 1 .66-.76q.42-.3.95-.46.53-.15 1.1-.15a5.6 5.6 0 0 1 1.19.12 2.92 2.92 0 0 1 .92.36 1.72 1.72 0 0 1 .6.6q.2.36.2.83 0 .38-.24.65a.87.87 0 0 1-.68.27q-.42 0-.64-.18a.6.6 0 0 1-.22-.5.47.47 0 0 1 .1-.31.9.9 0 0 1 .23-.2l.23-.12q.1-.05.1-.14 0-.28-.29-.44-.3-.16-.75-.16a1.5 1.5 0 0 0-.43.06.97.97 0 0 0-.35.2q-.16.12-.25.32-.08.2-.08.48 0 .38.27.75.28.38.7.79a29.9 29.9 0 0 0 .9.84q.48.43.9.91.4.49.69 1.03a2.55 2.55 0 0 1 .28 1.17 3.1 3.1 0 0 1-.24 1.25 2.55 2.55 0 0 1-.69.93 3.04 3.04 0 0 1-1.07.58 4.61 4.61 0 0 1-1.4.2q-.68 0-1.22-.19a4.41 4.41 0 0 1-.97-.46 4.25 4.25 0 0 1-.73-.6q-.3-.3-.47-.56ZM23.3 8.44l-3.87 2.28q0 .3.1.67.09.37.27.74a3.9 3.9 0 0 0 .43.71q.26.34.6.6a2.85 2.85 0 0 0 .74.42q.41.16.9.16.34 0 .64-.08a2.52 2.52 0 0 0 .54-.22q.26-.13.5-.31l.46-.39.24.24a6.7 6.7 0 0 1-.57.66q-.35.36-.85.68-.5.31-1.16.53-.67.2-1.52.2a4.6 4.6 0 0 1-1.65-.3 4.11 4.11 0 0 1-1.43-.93 4.52 4.52 0 0 1-1-1.53q-.38-.92-.38-2.15 0-.89.22-1.63a5.24 5.24 0 0 1 .61-1.34q.39-.6.9-1.04.52-.45 1.08-.75a5.32 5.32 0 0 1 1.16-.45q.59-.15 1.14-.15.72 0 1.26.16a2.81 2.81 0 0 1 .89.42 1.74 1.74 0 0 1 .53.6 1.59 1.59 0 0 1 .18.73 1.38 1.38 0 0 1-.27.83q-.26.37-.7.64Zm58.77 0-3.86 2.28q0 .3.1.67.09.37.27.74a3.9 3.9 0 0 0 .43.71q.26.34.6.6a2.85 2.85 0 0 0 .74.42q.41.16.9.16.34 0 .63-.08a2.52 2.52 0 0 0 .55-.22q.26-.13.49-.31l.47-.39.24.24a6.7 6.7 0 0 1-.57.66q-.35.36-.85.68-.5.31-1.16.53-.67.2-1.52.2a4.6 4.6 0 0 1-1.65-.3 4.11 4.11 0 0 1-1.43-.93 4.52 4.52 0 0 1-1-1.53q-.38-.92-.38-2.15 0-.89.22-1.63a5.24 5.24 0 0 1 .61-1.34q.39-.6.9-1.04.52-.45 1.08-.75a5.32 5.32 0 0 1 1.16-.45q.59-.15 1.14-.15.72 0 1.26.16a2.81 2.81 0 0 1 .89.42 1.74 1.74 0 0 1 .53.6 1.59 1.59 0 0 1 .18.73 1.38 1.38 0 0 1-.27.83q-.26.37-.7.64Zm-49.46-.86h-.28q-.05-.3-.27-.5a.89.89 0 0 0-.62-.2 1.65 1.65 0 0 0-.6.11 3.7 3.7 0 0 0-.57.28q-.28.16-.53.36a13.54 13.54 0 0 0-.45.37v6.34a1.43 1.43 0 0 1-.04.3q-.04.18-.2.33-.14.16-.44.27a2.38 2.38 0 0 1-.82.11q-.51 0-.81-.12a1.28 1.28 0 0 1-.46-.29.74.74 0 0 1-.2-.34 1.37 1.37 0 0 1-.03-.28V6.78a.9.9 0 0 0-.13-.5.48.48 0 0 0-.45-.2q-.16 0-.28.05a1.52 1.52 0 0 0-.25.17l-.2-.24q.22-.19.5-.37.27-.18.6-.32a4.32 4.32 0 0 1 .69-.22q.37-.09.78-.09a2.04 2.04 0 0 1 .72.11 1.43 1.43 0 0 1 .48.3 1.37 1.37 0 0 1 .3.4q.11.23.16.46.06.22.07.43v.36q.38-.57.8-1.02a5.25 5.25 0 0 1 .38-.38q.2-.19.42-.34.22-.14.46-.23.23-.09.47-.09a1.03 1.03 0 0 1 .78.3 1.16 1.16 0 0 1 .28.83 3.71 3.71 0 0 1-.05.64 4.74 4.74 0 0 1-.21.75Zm41.98 0h-.27q-.06-.3-.28-.5a.89.89 0 0 0-.62-.2 1.65 1.65 0 0 0-.6.11 3.7 3.7 0 0 0-.57.28q-.28.16-.53.36a13.54 13.54 0 0 0-.45.37v6.34a1.43 1.43 0 0 1-.04.3q-.04.18-.19.33-.15.16-.45.27a2.38 2.38 0 0 1-.81.11q-.52 0-.82-.12a1.28 1.28 0 0 1-.45-.29.74.74 0 0 1-.2-.34 1.37 1.37 0 0 1-.04-.28V6.78a.9.9 0 0 0-.13-.5.48.48 0 0 0-.44-.2q-.17 0-.29.05a1.52 1.52 0 0 0-.25.17l-.2-.24q.22-.19.5-.37t.6-.32a4.32 4.32 0 0 1 .69-.22q.37-.09.78-.09a2.04 2.04 0 0 1 .72.11 1.43 1.43 0 0 1 .49.3 1.37 1.37 0 0 1 .3.4q.1.23.16.46.05.22.06.43l.01.36q.37-.57.8-1.02a5.25 5.25 0 0 1 .37-.38q.2-.19.43-.34.22-.14.45-.23t.47-.09a1.03 1.03 0 0 1 .78.3 1.16 1.16 0 0 1 .28.83 3.71 3.71 0 0 1-.05.64 4.74 4.74 0 0 1-.21.75ZM8.22 2.4v11.06a1.98 1.98 0 0 0 .05.42.75.75 0 0 0 .17.35q.13.15.36.23.23.1.6.1a1.7 1.7 0 0 0 1-.31q.44-.31.76-.8a3.93 3.93 0 0 0 .5-1.08 4.24 4.24 0 0 0 .18-1.2q0-.88-.24-1.56t-.67-1.15q-.43-.47-1.02-.73-.58-.26-1.27-.3l.2-.5a2.35 2.35 0 0 0 .1 0 2.14 2.14 0 0 0 .72-.11q.39-.14.69-.48a2.48 2.48 0 0 0 .47-.92A5.13 5.13 0 0 0 11 3.96a3.66 3.66 0 0 0-.15-1.08q-.15-.48-.38-.8a1.73 1.73 0 0 0-.56-.5 1.32 1.32 0 0 0-.65-.18 1.59 1.59 0 0 0-.4.05q-.19.05-.33.16-.14.12-.22.31-.09.2-.09.48ZM65.7 6.68v7.64a1.34 1.34 0 0 1-.04.3.73.73 0 0 1-.2.35q-.17.16-.47.27a2.42 2.42 0 0 1-.82.11 2.17 2.17 0 0 1-.81-.12q-.3-.12-.44-.29-.15-.16-.18-.34a1.56 1.56 0 0 1-.03-.28V6.78a.9.9 0 0 0-.14-.5.48.48 0 0 0-.44-.2q-.17 0-.28.05a1.52 1.52 0 0 0-.26.17l-.2-.24q.22-.19.5-.37t.6-.32a4.32 4.32 0 0 1 .7-.22q.37-.09.78-.09.63 0 .98.17a1.27 1.27 0 0 1 .52.42 1.21 1.21 0 0 1 .2.53 4.22 4.22 0 0 1 .03.5Zm53.17 5.84v-2.38a.45.45 0 0 0-.16-.37.61.61 0 0 0-.4-.13 1.42 1.42 0 0 0-.65.16 1.6 1.6 0 0 0-.54.46q-.23.3-.37.74a3.51 3.51 0 0 0-.14 1.03q0 .57.08.94.09.37.23.6a.81.81 0 0 0 .33.3q.18.09.39.09a.93.93 0 0 0 .48-.13 1.43 1.43 0 0 0 .39-.34 1.69 1.69 0 0 0 .26-.46q.1-.25.1-.5Zm-99.52-2.6 2.06-1.19a1.53 1.53 0 0 0 .2-.15.54.54 0 0 0 .14-.17q.05-.1.07-.26a2.42 2.42 0 0 0 .03-.37 3.08 3.08 0 0 0-.06-.55q-.05-.3-.18-.56-.13-.26-.32-.44a.68.68 0 0 0-.47-.17q-.35 0-.6.2a1.62 1.62 0 0 0-.41.55 3.38 3.38 0 0 0-.25.76q-.1.42-.14.85-.05.43-.06.83l-.01.66Zm58.78 0 2.06-1.19a1.53 1.53 0 0 0 .2-.15.54.54 0 0 0 .14-.17q.05-.1.07-.26a2.42 2.42 0 0 0 .03-.37 3.08 3.08 0 0 0-.06-.55q-.05-.3-.18-.56-.13-.26-.32-.44a.68.68 0 0 0-.47-.17q-.35 0-.6.2a1.62 1.62 0 0 0-.41.55 3.38 3.38 0 0 0-.25.76q-.1.42-.15.85-.05.43-.05.83l-.01.66ZM62.4 2.83q0-.28.13-.53a1.33 1.33 0 0 1 .34-.43 1.7 1.7 0 0 1 .5-.3 1.79 1.79 0 0 1 .63-.1 1.76 1.76 0 0 1 .63.1 1.64 1.64 0 0 1 .5.3q.21.18.34.43.12.25.12.52a1.16 1.16 0 0 1-.13.53q-.12.25-.33.43a1.7 1.7 0 0 1-.5.29 1.76 1.76 0 0 1-.63.1 1.79 1.79 0 0 1-.63-.1 1.76 1.76 0 0 1-.5-.3q-.22-.17-.34-.42a1.16 1.16 0 0 1-.13-.52Z" vector-effect="non-scaling-stroke" stroke-linecap="round" fill-rule="evenodd" font-size="12" stroke="#000" stroke-width=".94" fill="none" style="stroke:#000;stroke-width:.25mm;fill:none"/></svg>