<svg width="90.9" height="20.15" xmlns="http://www.w3.org/2000/svg"><path d="M73.57 14.53h-.21l-.19-.03a3.05 3.05 0 0 1-.22-.03 1.03 1.03 0 0 1-.43-.23l-.31-.08a1.74 1.74 0 0 0-.31-.2q-.1-.03-.14-.11-.14-.06-.16-.09-.02-.03-.02-.07a.24.24 0 0 0-.1-.06.45.45 0 0 1-.13-.06q-.06-.2-.14-.2a.15.15 0 0 0-.05-.1.7.7 0 0 1-.09-.1.32.32 0 0 1-.13-.2q0-.06-.06-.06-.1-.27-.18-.33-.08-.06-.11-.12a.89.89 0 0 0-.2-.35q-.14-.21-.2-.41a.54.54 0 0 0-.23-.3q-.02-.17-.1-.22-.1-.05-.13-.2-.1-.18-.18-.23l-.12-.09a.33.33 0 0 0-.12-.23.13.13 0 0 1-.1-.12q-.13 0-.2.06a1.43 1.43 0 0 0-.28.06 7.98 7.98 0 0 0-.27.1l-.02.23a.93.93 0 0 0-.12.27.2.2 0 0 1-.04.1.5.5 0 0 1-.05.17q-.03.05.01.09a.17.17 0 0 0-.05.1 5.18 5.18 0 0 1-.03.15 1.33 1.33 0 0 1-.02.15l-.05.07a1.51 1.51 0 0 1-.05.3 1.27 1.27 0 0 1-.07.16l-.08.25q-.02.03-.02.07a.4.4 0 0 0-.1.27.28.28 0 0 1-.17.25.84.84 0 0 0-.06.26.15.15 0 0 0 0 .04 2.2 2.2 0 0 1-.14.23l-.04.06q-.08.16-.11.27-.04.16-.16.24a.55.55 0 0 1-.1.2 5.07 5.07 0 0 1-.13.18q-.04.05-.08.07a.28.28 0 0 1-.03.17q-.03.02-.05.06a1.16 1.16 0 0 0-.16.12q-.04.04 0 .08a.3.3 0 0 0-.18.11 1.9 1.9 0 0 1-.13.18l-.22.21-.07.08-.16.08a.27.27 0 0 1-.12.02 1.13 1.13 0 0 1-.24.14.24.24 0 0 0-.1.06.96.96 0 0 0-.3.04.96.96 0 0 1-.27.03 1.06 1.06 0 0 1-.19-.02 15.53 15.53 0 0 0-.22-.03.25.25 0 0 0-.11-.04.1.1 0 0 0-.02 0l-.1.02a.53.53 0 0 1-.37-.18q-.07-.12-.22-.14l-.14-.12q-.02-.03-.06 0a.2.2 0 0 0-.08-.13q-.06-.04-.1-.1a.27.27 0 0 0 .02-.1.35.35 0 0 0-.01-.11.35.35 0 0 0-.06-.11.08.08 0 0 1-.02-.05.1.1 0 0 1 .02-.06 4.82 4.82 0 0 0-.1-.13q-.04-.06-.1-.1a1.75 1.75 0 0 0 .02-.29.19.19 0 0 0-.14-.2 3.23 3.23 0 0 0 .04-.43.7.7 0 0 1 .04-.25 2.98 2.98 0 0 1 .03-.28 1.37 1.37 0 0 1 .03-.1.5.5 0 0 0 .02-.15q0-.1.02-.18a.75.75 0 0 1 .1-.29.2.2 0 0 0 .03-.12.47.47 0 0 0-.01-.11.9.9 0 0 1 .11-.2l.12-.2a6.48 6.48 0 0 0 .17-.13 2.88 2.88 0 0 1 .14-.12.85.85 0 0 0 .28-.1.27.27 0 0 1 .17-.05q.1-.04.14-.08a.11.11 0 0 1 .08-.04.9.9 0 0 1 .23-.06.06.06 0 0 1 .04 0q.04.04.08.04a.44.44 0 0 1 .15-.05.06.06 0 0 1 .03 0l.07.05a.52.52 0 0 1 .13-.02.24.24 0 0 1 .12.03 1.21 1.21 0 0 0 .2.09q.14.05.18.08l.06.03q.1.16.12.17.03 0 .03.05.12.2.14.2l.04.03q-.02.06.02.09a.08.08 0 0 1 .02.07.3.3 0 0 1 0 .06q.13.15.14.2a.14.14 0 0 0 .07.09.43.43 0 0 1-.13.25l-.06.24a.39.39 0 0 1-.16.04.16.16 0 0 1-.1-.04q-.1-.08-.2-.08a.85.85 0 0 1-.04-.22.15.15 0 0 1 0-.04.17.17 0 0 0 .02-.05.22.22 0 0 0-.03-.1l-.1-.3a.43.43 0 0 0-.16-.15q-.11-.06-.15-.16a3.34 3.34 0 0 1-.27 0 11.04 11.04 0 0 1-.3-.04 1.02 1.02 0 0 0-.26.1.64.64 0 0 1-.19.06.39.39 0 0 1-.14.15.01.01 0 0 1 0 0q-.03-.01-.07 0l-.09.1a.1.1 0 0 0-.03.07.21.21 0 0 0 .02.07l-.12.13a.29.29 0 0 1-.07.07 1.54 1.54 0 0 0-.07.24h0a.05.05 0 0 1-.03.03.79.79 0 0 1 0 .1.42.42 0 0 1-.02.15l-.08.2.01.17.01.04q-.02.2 0 .26l.04.12a1.13 1.13 0 0 0 .02.27.12.12 0 0 1 0 .04.08.08 0 0 1-.02.06q.06.06.07.15 0 .1.1.2a1.93 1.93 0 0 0 .1.27.42.42 0 0 0 .16.18.07.07 0 0 1 .04.07.23.23 0 0 1 0 .04.66.66 0 0 0 .17.12.19.19 0 0 1 .1.08 3.4 3.4 0 0 1 .35.1.22.22 0 0 1 .1-.03.13.13 0 0 1 .04 0 1.35 1.35 0 0 0 .16.05.4.4 0 0 0 .1.01.51.51 0 0 0 .19-.03.51.51 0 0 0 .08-.05.65.65 0 0 1 .13-.07.6.6 0 0 1 .13-.04.6.6 0 0 0 .13-.04l.17-.15a.56.56 0 0 1 .2-.14l.13-.19q.03 0 .04-.03.2-.25.22-.3a.5.5 0 0 0 .16-.2.1.1 0 0 1 .1-.08 1.66 1.66 0 0 1 .04-.16l.05-.04a.5.5 0 0 1 .16-.27q.1-.18.09-.19-.02 0 0-.04a.53.53 0 0 1 .12-.22.03.03 0 0 0 .02-.02.05.05 0 0 0-.02-.04l.16-.25a.68.68 0 0 0 .14-.36.29.29 0 0 0 0-.03q.07-.16.13-.22a1.2 1.2 0 0 0 .09-.41.63.63 0 0 0-.01-.11 7.76 7.76 0 0 1 .1-.22.37.37 0 0 0 .03-.13.15.15 0 0 0 0-.03l-.01-.1a1.61 1.61 0 0 0 .08-.16l.03-.05a.6.6 0 0 0 .04-.13l.02-.18q.1-.14.08-.3a2.07 2.07 0 0 0-.24-.08.14.14 0 0 1-.1-.07 1.08 1.08 0 0 0-.2-.04.02.02 0 0 0-.02 0q0 .02-.05.02a.76.76 0 0 0-.2-.13.54.54 0 0 1-.13-.04l-.25-.1q-.04 0-.08-.04a.14.14 0 0 1-.13-.05.12.12 0 0 0-.1-.05q-.04-.1-.11-.13t-.1-.1a1.63 1.63 0 0 1-.22-.19.14.14 0 0 0-.12-.05.17.17 0 0 0-.05-.13q-.05-.04-.07-.12a1.98 1.98 0 0 0 .01-.17.17.17 0 0 0 0-.08l-.05-.06q.1-.18.14-.19a.38.38 0 0 0 .08-.03.47.47 0 0 1 .1-.19.49.49 0 0 0 .11-.16q.16-.14.3-.2.13-.05.23-.02a.73.73 0 0 1 .4-.16.97.97 0 0 1 .16-.02.48.48 0 0 1 .26.07q.14-.04.22 0l.15.07.17.1a.12.12 0 0 0 .06.01.14.14 0 0 0 .05 0 .59.59 0 0 0 .11-.2.01.01 0 0 0 0 0q-.02-.02-.02-.08l.02-.41a3.07 3.07 0 0 1-.04-.13.46.46 0 0 1-.02-.12q-.02-.06 0-.11l.02-.1-.04-.4-.02-.23-.02-.24-.01-.26q0-.05.02-.09a.2.2 0 0 1-.05-.13.17.17 0 0 0-.07-.12 1.34 1.34 0 0 1-.05-.23.02.02 0 0 1 0 0v-.05l-.03-.21-.04-.24-.08-.27q-.02-.22-.07-.27a.24.24 0 0 1-.04-.16q-.08-.27-.22-.57a.62.62 0 0 1-.09-.25q0-.12-.1-.2a1.12 1.12 0 0 0 0-.1q0-.08-.02-.08a.01.01 0 0 0 0 0 .04.04 0 0 1-.01 0 .04.04 0 0 1-.03-.05.47.47 0 0 0 0-.06.16.16 0 0 0-.06-.15q-.08-.04-.08-.2a.64.64 0 0 0-.08-.1.2.2 0 0 1-.04-.13.48.48 0 0 1-.14-.2q-.05-.12-.15-.16a1.02 1.02 0 0 0-.27-.43 2.32 2.32 0 0 1-.33-.37l-.16-.07q-.08-.04-.12-.12l-.33-.16a.75.75 0 0 1-.26-.09.13.13 0 0 0-.08-.02.1.1 0 0 0-.05.01 2.97 2.97 0 0 0-.38-.1 10.18 10.18 0 0 0-.29-.03.82.82 0 0 1-.23.07.07.07 0 0 1-.01 0 .1.1 0 0 0-.02 0 .1.1 0 0 0-.07.03 1.38 1.38 0 0 0-.13.1l-.06.05a5.88 5.88 0 0 0-.26.07 2.32 2.32 0 0 0-.2.07 1.78 1.78 0 0 0-.17.11l-.06.06a1.37 1.37 0 0 0-.2.14q-.03.06-.1.13t-.09.16q.16.16.2.17.04 0 .08.05.13.1.15.15.02.06.08.02.02.1.08.17a.59.59 0 0 0 .12.1.19.19 0 0 1 .1.1l.05.14q.08.16.16.22l.09.23a.1.1 0 0 0 .07.06l-.02.12a.15.15 0 0 0 0 .02.26.26 0 0 0 .03.11q.1.28.14.3a5.71 5.71 0 0 1 .05.2.17.17 0 0 0 .05.09 1.41 1.41 0 0 0 0 .14.47.47 0 0 0 0 .14 5.6 5.6 0 0 1 .08.23q0 .25-.02.37t0 .21a1.12 1.12 0 0 1 0 .13.27.27 0 0 1-.01.1q-.03.07 0 .13a.11.11 0 0 0-.06.1.17.17 0 0 0 0 .02.17.17 0 0 1 0 .02.15.15 0 0 1-.07.13l-.08.23q0 .04-.04.06a14.04 14.04 0 0 0-.05.28q-.02.1-.12.13a.62.62 0 0 1-.2.24 1.03 1.03 0 0 0-.2.15q-.17.06-.19.1a1.2 1.2 0 0 1-.18.01.43.43 0 0 1-.19-.03q-.21-.02-.3-.1-.07-.1-.23-.1a.68.68 0 0 0-.14-.24 2.25 2.25 0 0 0-.19-.17 1.55 1.55 0 0 0-.08-.24 5.34 5.34 0 0 1-.08-.19 1.45 1.45 0 0 1-.08-.43.6.6 0 0 1 0-.03.57.57 0 0 0 0-.04.56.56 0 0 0-.1-.3 3.07 3.07 0 0 0-.03-.57l-.08-.4q0-.16.02-.2a.15.15 0 0 0 .01-.06.3.3 0 0 0 0-.07l-.02-.2.01-.06a1.3 1.3 0 0 1 .02-.27.21.21 0 0 0 0-.05.23.23 0 0 0-.02-.1q0-.22.02-.24l.04-.06a.69.69 0 0 1 .12-.27 1.52 1.52 0 0 1 .09-.2.12.12 0 0 0 .01-.07.14.14 0 0 0 0-.05q-.12-.04-.26 0a2.38 2.38 0 0 0-.25.06.83.83 0 0 1-.26.19h-.15a.61.61 0 0 0-.1-.24q-.04-.03 0-.07a1.25 1.25 0 0 0 .35-.33.23.23 0 0 0 .15-.04 1.53 1.53 0 0 1 .1-.07.55.55 0 0 0 .11 0 .45.45 0 0 0 .25-.06q.25.04.33.02a.77.77 0 0 0 .17-.16.22.22 0 0 1 .08-.12q.04-.02.06-.06a.77.77 0 0 1 .22-.29.5.5 0 0 1 .15-.1h0a.02.02 0 0 0 0 0 .03.03 0 0 0 .02-.04q.27-.07.37-.23.06.04.12-.02l.1-.1a.48.48 0 0 0 .14-.05.45.45 0 0 0 .1-.06l.37-.13a.4.4 0 0 1 .13-.02.23.23 0 0 1 .12.03q.17-.08.43-.08l.39.04a.7.7 0 0 1 .17.06.25.25 0 0 0 .12.02.32.32 0 0 0 .06 0 .19.19 0 0 0 .1.08l.11.03a2.5 2.5 0 0 0 .29.13.23.23 0 0 1 .12.09q.18.1.24.17.06.06.15.08a.5.5 0 0 0 .13.17 2.7 2.7 0 0 1 .1.07.32.32 0 0 0 0 .04.08.08 0 0 0 .08.1q.08.01.08.13a.19.19 0 0 1 .14.09q.04.07.12.1l.08.22a.7.7 0 0 1 .12.15l.05.07.07.23.03.02.02.12q0 .06.08.08.02.17.15.27a13.14 13.14 0 0 0 .1.26.26.26 0 0 0 .06.1 1.66 1.66 0 0 0 .07.3 7.53 7.53 0 0 1 .07.16.35.35 0 0 1 .03.1.3.3 0 0 0 .05.11.33.33 0 0 1 .06.12 8.77 8.77 0 0 0 .07.18l.04.15a3.82 3.82 0 0 1 .04.18.58.58 0 0 0 .06.2q.02.01.02.05a7.04 7.04 0 0 1 .02.24l.08.21a9.15 9.15 0 0 0 .06.25l.01.08a.4.4 0 0 0 .02.18q.02.02.02.06a.57.57 0 0 1 .04.21q0 .12-.04.18.06.12.06.3a7.04 7.04 0 0 1 .02.23.9.9 0 0 1 .05.18.02.02 0 0 1 0 .01l-.01.06a2.14 2.14 0 0 1 .04.23.6.6 0 0 1 0 .08.34.34 0 0 1-.04.18q0 .23.02.25l.02.04a.67.67 0 0 1-.03.28.05.05 0 0 0-.02.04.07.07 0 0 0 .01.03q.04.24.02.26-.02.02-.02.06a1.97 1.97 0 0 1 .01.16.13.13 0 0 1-.01.07l-.02.04a1.43 1.43 0 0 0 0 .13.39.39 0 0 0 .02.16 2.61 2.61 0 0 0 .1.19h.04a.34.34 0 0 0 .08.16l.1.1q.03.06.11.14a.9.9 0 0 1 .14.17l.23.18q.22-.06.25-.09a.1.1 0 0 1 .07-.02.23.23 0 0 1 .05.01l.24-.17a.27.27 0 0 1 .13-.06 4.7 4.7 0 0 1 .23-.22.72.72 0 0 1 .14-.1l.15-.13.07-.06a.65.65 0 0 1 .19-.14q.02 0 .02-.04a.14.14 0 0 0 .13-.04.16.16 0 0 1 .1-.07.88.88 0 0 1 .17-.2l.07-.06.11-.12a2.52 2.52 0 0 0 .1-.17l.18-.18q.02-.04.06-.07l.1-.12a.46.46 0 0 0 .1-.16q.13-.2.22-.3.09-.1.13-.26a.6.6 0 0 0 .09-.07.6.6 0 0 1 .09-.07.9.9 0 0 1 .11-.24.26.26 0 0 1 0-.04.08.08 0 0 1 .03-.08.05.05 0 0 0 .03-.05.14.14 0 0 0-.02-.06 1.08 1.08 0 0 0 .15-.19.26.26 0 0 0 .04-.13.26.26 0 0 0-.01-.09q.06-.06.08-.18a.6.6 0 0 1 .07-.21q.06-.31.14-.37a.2.2 0 0 1-.04-.1.12.12 0 0 1 .04-.1.22.22 0 0 0 .06-.16.37.37 0 0 0 0-.05.2.2 0 0 0 .08-.13q.02-.09.1-.14a1.98 1.98 0 0 0 .03-.33.3.3 0 0 1 .06-.18.24.24 0 0 1-.03-.13.29.29 0 0 1 .01-.09l.08-.23a5.18 5.18 0 0 0 .03-.16.3.3 0 0 1 .05-.11.22.22 0 0 1-.01-.07.45.45 0 0 1 0-.1.22.22 0 0 0 .01-.03q0-.05-.04-.04.08-.25.06-.6a4.44 4.44 0 0 0 .05-.32.22.22 0 0 1 .05-.13.27.27 0 0 0-.03-.2.01.01 0 0 1-.02-.01.06.06 0 0 1 0-.03.19.19 0 0 0 .04-.1.25.25 0 0 0 0-.03l-.01-.22a.45.45 0 0 1 .03-.19q.04-.08 0-.16.08-.1.08-.26a1.28 1.28 0 0 1 .04-.3.3.3 0 0 0 .15-.13q.05-.07.19-.1.1 0 .16.08l.1.1a.95.95 0 0 1 .01.1.24.24 0 0 1-.02.14.19.19 0 0 1-.1.07.47.47 0 0 1 0 .08.5.5 0 0 1-.02.16.35.35 0 0 0-.02.11.27.27 0 0 0 .02.1.14.14 0 0 0-.04.11v.15q-.02.21 0 .21a1.5 1.5 0 0 0-.08.33q-.02.06 0 .11t.02.11a1.14 1.14 0 0 1-.05.18.14.14 0 0 0 0 .05.12.12 0 0 0 .03.08.3.3 0 0 0-.05.15.14.14 0 0 0 0 .02 3.12 3.12 0 0 0 .03.17.71.71 0 0 0-.04.18 2.17 2.17 0 0 1-.03.19.34.34 0 0 0-.07.17.11.11 0 0 0 0 .01l-.01.15-.02.31a1.47 1.47 0 0 1-.06.25l-.04.08a2.83 2.83 0 0 0-.04.22l-.02.04a.46.46 0 0 0-.06.2q0 .07-.06.1a.27.27 0 0 1 .01.06.19.19 0 0 1-.03.12.15.15 0 0 0-.03.09.3.3 0 0 0 .02.09q-.06.04-.07.15a.17.17 0 0 1-.09.14.65.65 0 0 1-.03.2.65.65 0 0 0-.03.21.5.5 0 0 0-.1.17q-.02.05-.07.07a3.32 3.32 0 0 1-.16.43 1.2 1.2 0 0 1-.14.21.4.4 0 0 1-.07.18l-.06.06a1.84 1.84 0 0 1-.1.29l-.08.16a.5.5 0 0 1-.1.1q-.06.05-.08.15-.07.02-.1.07a.28.28 0 0 1-.1.09 1.32 1.32 0 0 0-.25.36.55.55 0 0 1-.19.24q-.04.08-.1.12-.06.04-.11.12a.39.39 0 0 1-.16.15.24.24 0 0 0-.06.1.24.24 0 0 1-.06.1 2.6 2.6 0 0 1-.24.13q-.05.02-.05.1-.12 0-.16.06l-.08.12a.32.32 0 0 0-.05 0 .08.08 0 0 0-.08.04.1.1 0 0 1-.12.05q-.2.14-.24.22a2.23 2.23 0 0 1-.11.16 2.1 2.1 0 0 0-.28.16l-.1.09q-.19 0-.23.08.08.17.16.2a.94.94 0 0 0 .1.27q.15.29.33.31.08.31.15.35a.23.23 0 0 1 .08.18.11.11 0 0 1 .08.1.11.11 0 0 0 .08.1.35.35 0 0 0 .07.15l.07.04a2.49 2.49 0 0 1 .08.18.02.02 0 0 0 .03.02.06.06 0 0 0 .02 0 1.01 1.01 0 0 0 .1.18 3.67 3.67 0 0 0 .12.16l.1.2a1.03 1.03 0 0 0 .1.16.85.85 0 0 1 .11.17q0 .02.04.04.04.08.1.12.06.04.06.13a.36.36 0 0 1 .14.1 1.37 1.37 0 0 1 .09.12.58.58 0 0 1 .24.13.17.17 0 0 0 .07.06.36.36 0 0 1 .14.05.08.08 0 0 0 .05.02.07.07 0 0 0 .03 0 .81.81 0 0 0 .23.13.6.6 0 0 0 .24.12.22.22 0 0 1 .1.02q.23.07.23.1a.86.86 0 0 1 .12-.02.32.32 0 0 1 .08.01.46.46 0 0 0 .13.02.5.5 0 0 1 .15-.06.01.01 0 0 1 0 0 .03.03 0 0 0 .02 0 .1.1 0 0 0 .04-.01.82.82 0 0 0 .2-.05l.04-.03a.89.89 0 0 1 .17-.1q.03 0 .05-.02a.57.57 0 0 0 .17-.17q0-.02.04-.06a.5.5 0 0 1 .12-.2q.04-.02 0-.08a3.63 3.63 0 0 1 .06-.38q.03-.1-.02-.2a.47.47 0 0 1 .02-.2q.02-.02.02-.08a.61.61 0 0 1-.1-.22.03.03 0 0 1 0-.01.1.1 0 0 0 0-.04.17.17 0 0 0 0-.06q-.12-.1-.16-.23-.16-.1-.19-.1a.06.06 0 0 1-.01.01.04.04 0 0 1-.03-.01 1.83 1.83 0 0 0-.24-.12.32.32 0 0 0-.1-.02 1.1 1.1 0 0 0-.11 0 .14.14 0 0 0-.1.01q-.02.03-.06.05a1.03 1.03 0 0 0-.23.09.09.09 0 0 1-.06.02.14.14 0 0 1-.04-.01.72.72 0 0 1-.14.17l-.1.2a.7.7 0 0 0 .04.2l.02.07a.59.59 0 0 1-.1.26.2.2 0 0 0-.07.1 1.3 1.3 0 0 1-.24.02.43.43 0 0 1-.21-.04 2.33 2.33 0 0 0-.05-.28.6.6 0 0 1-.02-.14.75.75 0 0 1 .01-.11.47.47 0 0 1 .05-.13.15.15 0 0 0 .02-.07.36.36 0 0 0-.01-.08l.07-.06a.44.44 0 0 1 .1-.07q-.02-.14 0-.22.02-.07.14-.11a1.76 1.76 0 0 1 .22-.18.17.17 0 0 1 .07-.02q.12-.08.32-.17a.94.94 0 0 1 .39-.08 1.16 1.16 0 0 1 .34.03.16.16 0 0 0 .06 0 .28.28 0 0 0 .1-.01.64.64 0 0 0 .18.14h0a.03.03 0 0 1 .02 0 .1.1 0 0 1 .04.01q.18.1.18.12 0 .02.03 0 .12.23.16.23a.25.25 0 0 0 .06.12.64.64 0 0 1 .08.1 1.08 1.08 0 0 1 .14.36 2.08 2.08 0 0 1 .03.36l-.02.12a.22.22 0 0 1-.02.1q.04.2.02.2-.02.01-.02.03a1 1 0 0 1 .02.15.32.32 0 0 1-.06.2q-.07.1-.07.26a.64.64 0 0 1-.28.43q-.04.07-.1.1a.17.17 0 0 0-.07.13l-.2.12a.26.26 0 0 0-.1.06 2.03 2.03 0 0 0-.25.07.77.77 0 0 0-.22.06q-.01.02-.03.02a.7.7 0 0 0-.19.02.53.53 0 0 1-.15.02ZM11.07 8.1l.32.07a1.1 1.1 0 0 0 .2.03.17.17 0 0 0 .15-.04 1.66 1.66 0 0 0 .2-.16 2.07 2.07 0 0 0 .18-.25.25.25 0 0 1 .09-.1.48.48 0 0 1 .08-.13.7.7 0 0 0 .1-.1 7.1 7.1 0 0 1 .11-.23.43.43 0 0 0 .06-.2.27.27 0 0 0 .13-.22q.1-.04.12-.13.02-.09.12-.13a.83.83 0 0 1 .1-.21.83.83 0 0 0 .12-.21q.13-.16.12-.18v-.06a.34.34 0 0 0 .09-.17.34.34 0 0 1 .1-.16 1.16 1.16 0 0 0 .05-.28.25.25 0 0 0 0-.02.22.22 0 0 1 0-.03.17.17 0 0 1 .04-.12 8 8 0 0 1 .05-.23q.01-.04.05-.08a.48.48 0 0 1-.04-.18v-.16a.4.4 0 0 0-.02-.17q-.02-.02-.02-.06a1.38 1.38 0 0 1 0-.15.12.12 0 0 1 0-.04l-.02-.06q-.11-.24-.13-.32-.02-.2-.08-.32a1.6 1.6 0 0 1-.1-.28q-.1-.26-.2-.41-.13-.22-.17-.26a17.3 17.3 0 0 1-.14-.18.6.6 0 0 0-.17-.15.73.73 0 0 0-.41-.35.39.39 0 0 0-.1-.13 1.37 1.37 0 0 0-.12-.08 1 1 0 0 0-.22-.12.08.08 0 0 1-.05-.08q-.18-.02-.3-.15a.3.3 0 0 0-.22-.1.45.45 0 0 0-.09.02 1.61 1.61 0 0 1-.32-.2.21.21 0 0 0-.14-.05.4.4 0 0 0-.1.01q-.37-.14-.6-.13a1.45 1.45 0 0 1-.06 0 1.06 1.06 0 0 1-.34-.04.6.6 0 0 0-.23.05.21.21 0 0 1-.12.04 1.45 1.45 0 0 1-.17.02.5.5 0 0 1-.06 0A1.12 1.12 0 0 0 8.77.7a.8.8 0 0 1-.29.1.15.15 0 0 1-.01 0 .23.23 0 0 0-.03-.01.23.23 0 0 0-.14.05 4.16 4.16 0 0 1-.43.04q-.04.06-.12.07A.48.48 0 0 0 7.6 1a.71.71 0 0 1-.14.11.3.3 0 0 0-.08.06 3.9 3.9 0 0 0-.24.2.7.7 0 0 0-.09.11q-.17.08-.17.14a.3.3 0 0 0-.2.12.3.3 0 0 1-.16.12.4.4 0 0 1-.1.15q-.07.06-.15.16a1.04 1.04 0 0 0-.16.2q-.13.07-.16.13t-.13.1a.35.35 0 0 1-.09.2q-.03 0-.07.03-.15.28-.21.35a1.53 1.53 0 0 1-.08.11.2.2 0 0 0-.04.13.72.72 0 0 0 .16.16.38.38 0 0 0 .1.1.17.17 0 0 1 .07.09q.06.14.06.2a.22.22 0 0 0 .02.1.39.39 0 0 0 .12.13 1.03 1.03 0 0 0 .16.1q0 .1.06.15a.43.43 0 0 1 .11.14l.06.21a.94.94 0 0 1 .17.29.73.73 0 0 0 .03.13l.07.23a.43.43 0 0 0 .1.15.48.48 0 0 1 .08.12 1.2 1.2 0 0 1 .12.32.11.11 0 0 0 .07.1 4.32 4.32 0 0 1 .15.48 4.14 4.14 0 0 0 .1.4 1.46 1.46 0 0 1 .1.23h0l-.01.05q.1.22.08.24v.06a17.86 17.86 0 0 0 .04.23 6.88 6.88 0 0 0 .05.22.38.38 0 0 1 .06.16.06.06 0 0 1 0 .02.07.07 0 0 0 0 .03.12.12 0 0 0 .04.08 3.33 3.33 0 0 1 .02.2q0 .04.02.07a.46.46 0 0 0 .02.22 2.3 2.3 0 0 0 .09.22.36.36 0 0 1 .03.15.29.29 0 0 1 0 .06.56.56 0 0 0 .04.18.54.54 0 0 1 .05.11 1.2 1.2 0 0 0 .01.17q.01.07 0 .14v.19a1.72 1.72 0 0 1 .03.1q-.02.1 0 .17a1.2 1.2 0 0 1 0 .17.55.55 0 0 1 0 .1q-.02.05-.02.13.02.14.01.18a.06.06 0 0 0 0 .01.09.09 0 0 0 .03.07.37.37 0 0 0-.02.11.37.37 0 0 0 .02.12 2.83 2.83 0 0 0-.04.22l.02.05a.48.48 0 0 0-.06.24.6.6 0 0 0 .02.15.1.1 0 0 0-.05.1.13.13 0 0 0 0 .01 1.2 1.2 0 0 1 .01.17.73.73 0 0 0-.03.13.73.73 0 0 1-.02.12 5.72 5.72 0 0 1-.1.25.4.4 0 0 0-.02.14.43.43 0 0 0 .02.12.13.13 0 0 0-.04.1v.12a.16.16 0 0 0-.05.11.18.18 0 0 0 0 .02.18.18 0 0 1 0 .02.16.16 0 0 1-.05.12v.14l-.04.07a.62.62 0 0 1-.04.19l-.06.07a.57.57 0 0 1-.03.21.37.37 0 0 0-.03.14.46.46 0 0 0 0 .08 1.57 1.57 0 0 1-.18.39q-.09.12-.05.27l-.18.18q-.07.06-.07.13l-.09.1q-.05.04-.07.14a1.27 1.27 0 0 0-.2.14.67.67 0 0 1-.19.13.71.71 0 0 0-.27.1l-.23.15-.07.04-.27.01a.06.06 0 0 1-.01 0 .09.09 0 0 1-.07-.02h-.25a.07.07 0 0 1-.06-.06l-.26-.1a.1.1 0 0 1-.07-.08.93.93 0 0 1-.22-.2.26.26 0 0 0-.13-.11.4.4 0 0 0-.22-.31q-.1-.2-.08-.22l-.17-.21a.57.57 0 0 0-.07-.2.15.15 0 0 1-.03-.12.42.42 0 0 0-.08-.2l-.08-.07a.51.51 0 0 1-.03-.16.2.2 0 0 1 0-.03l.02-.1a.55.55 0 0 0-.06-.17.1.1 0 0 1-.02-.05.07.07 0 0 1 .04-.06.15.15 0 0 1-.11-.11.72.72 0 0 0-.05-.18l-.06-.21v-.16a.21.21 0 0 0-.06-.16.06.06 0 0 0 .02-.04.15.15 0 0 0-.03-.07.12.12 0 0 1-.02-.07.06.06 0 0 1 .03-.05.21.21 0 0 0-.05-.1.12.12 0 0 1-.02-.08.06.06 0 0 1 .01-.04 2.07 2.07 0 0 1-.07-.49.91.91 0 0 1 .04-.25.17.17 0 0 1-.04-.1.14.14 0 0 1 0-.02.24.24 0 0 0 0-.03.25.25 0 0 0 0-.08 1.08 1.08 0 0 1-.04-.2.1.1 0 0 1 0-.02l.02-.08q0-.07-.02-.12a.17.17 0 0 1-.01-.06.44.44 0 0 1 0-.09v-.27a1.1 1.1 0 0 1-.02-.23.35.35 0 0 1 0-.04V9.84a.26.26 0 0 0-.02-.11.16.16 0 0 1-.02-.07.15.15 0 0 1 0-.05.54.54 0 0 1 .05-.17l.02-.06q0-.26.02-.38a1.04 1.04 0 0 1 .06-.21 1.15 1.15 0 0 1-.04-.27.43.43 0 0 1 .04-.2.53.53 0 0 1-.03-.14.32.32 0 0 1 .01-.1.33.33 0 0 0 .02-.09.67.67 0 0 0-.02-.16 6.02 6.02 0 0 1 .02-.16l.03-.13q.06-.27.06-.35L3.26 7a.96.96 0 0 1 .09-.34.14.14 0 0 0 .03-.08.22.22 0 0 0-.02-.09.83.83 0 0 1 .21-.56.75.75 0 0 1 .18-.49.47.47 0 0 1 .05-.21.52.52 0 0 0 .05-.24.9.9 0 0 1 .13-.28.19.19 0 0 0 .04-.12.19.19 0 0 0-.02-.07.45.45 0 0 0 .06-.13.17.17 0 0 1 .1-.1.78.78 0 0 1 .1-.26 1.37 1.37 0 0 1 .09-.11q.04-.06.06-.16.1-.06.14-.15a5.34 5.34 0 0 0 .08-.18.14.14 0 0 0-.1-.04q-.08 0-.14-.02-.07-.1-.15-.16a.76.76 0 0 0-.18-.1 4.72 4.72 0 0 0-.24-.11.26.26 0 0 1-.09-.06.35.35 0 0 0-.14-.09.02.02 0 0 0 0 0 .04.04 0 0 1-.02 0 .04.04 0 0 1-.03-.03q-.24-.12-.4-.06-.27-.07-.4-.13a2.3 2.3 0 0 0-.21-.01 1.84 1.84 0 0 0-.2 0 .68.68 0 0 0-.34.14 1.64 1.64 0 0 1-.22.04.07.07 0 0 1-.02 0 .06.06 0 0 0-.02-.01.04.04 0 0 0-.03.01.64.64 0 0 1-.18.06q-.04 0-.05.02-.08.04-.12.12a.1.1 0 0 1-.09.06.12.12 0 0 1-.03 0q-.04.08-.1.11a3 3 0 0 1-.15.08 1.36 1.36 0 0 0-.17.2.17.17 0 0 1-.07.08 17.9 17.9 0 0 0-.2.52.65.65 0 0 0 .02.14l-.01.08a.9.9 0 0 0-.03.16.03.03 0 0 0 0 .02q.03.01.03.05 0 .26.07.4.06.11.1.13l.04.06a.48.48 0 0 0 .15.17.04.04 0 0 1 .03.04.09.09 0 0 1-.02.04l.32.01a.37.37 0 0 0 .02 0 .28.28 0 0 0 .24-.13.24.24 0 0 0 .06-.1.19.19 0 0 1 .08-.1.21.21 0 0 1-.02-.08.1.1 0 0 1 0-.04l.02-.1a7.53 7.53 0 0 0-.07-.17.85.85 0 0 1-.05-.17.54.54 0 0 1-.1-.05.45.45 0 0 1-.1-.06q-.09.07-.18.03-.08-.03-.2-.03-.02-.1-.01-.15a.94.94 0 0 1 .05-.15 2.1 2.1 0 0 1 .23-.18q.08-.05.12-.1a1.91 1.91 0 0 0 .39.19.33.33 0 0 0 .14.17q.17.14.17.22a.8.8 0 0 1 .12.29l-.01.14a.2.2 0 0 0 0 .03.27.27 0 0 0 .03.12.5.5 0 0 0-.07.24.37.37 0 0 0 0 .1.87.87 0 0 1-.22.34 1.72 1.72 0 0 0-.2.18.85.85 0 0 1-.34.1.36.36 0 0 1-.07-.01q-.16-.03-.33 0a.43.43 0 0 1-.15-.06l-.07-.05-.22-.22-.13-.13-.04-.12L.3 5.2a.87.87 0 0 1-.21-.32 1.6 1.6 0 0 1-.03-.23.1.1 0 0 1 0-.02v-.08q-.03-.16-.01-.2a.07.07 0 0 0 0-.03.12.12 0 0 0-.04-.08 2.3 2.3 0 0 1 .1-.28.24.24 0 0 1-.02-.08.15.15 0 0 1 .02-.08.2.2 0 0 0 .02-.1.32.32 0 0 0 0-.07.2.2 0 0 0 .11-.2.19.19 0 0 0 .08-.09l.04-.12A1.53 1.53 0 0 0 .54 3a.26.26 0 0 0 .03-.12l.15-.08a.04.04 0 0 0 .03-.03.05.05 0 0 0 0-.02.54.54 0 0 0 .23-.22.37.37 0 0 0 .11-.02.17.17 0 0 1 .06 0 .1.1 0 0 1 .04 0 .41.41 0 0 1 .2-.14 5.53 5.53 0 0 1 .29-.07.4.4 0 0 0 .14-.03 3.99 3.99 0 0 1 .13-.05 1.27 1.27 0 0 1 .24-.05.04.04 0 0 1 0 0l.08-.01q.29-.04.35.02.07-.06.15-.06.08 0 .15.02l.14.04a.26.26 0 0 0 .07 0 .31.31 0 0 0 .07 0 2.28 2.28 0 0 1 .32.1.58.58 0 0 0 .25.06.55.55 0 0 1 .24.11.12.12 0 0 0 .1.05.23.23 0 0 0 .05 0 12.35 12.35 0 0 1 .18.12.06.06 0 0 0 .03.01.06.06 0 0 0 .04-.02q.1.15.24.2a.47.47 0 0 1 .23.2q.08-.05.11-.13t.1-.12q.32-.29.34-.48a4.18 4.18 0 0 1 .31-.28.93.93 0 0 1 .17-.16h.03a1.34 1.34 0 0 0 .2-.23q.03-.06.11-.1a2.85 2.85 0 0 1 .21-.27.52.52 0 0 1 .14-.1.66.66 0 0 1 .19-.15l.07-.02a.51.51 0 0 0 .07-.11.51.51 0 0 1 .08-.1.45.45 0 0 0 .2-.08l.06-.06q.21-.06.29-.2a4.3 4.3 0 0 1 .33-.08 35.72 35.72 0 0 1 .47-.1h.14a.34.34 0 0 0 .13-.02 2.12 2.12 0 0 1 .11-.04.14.14 0 0 1 .06-.02.13.13 0 0 1 .07.03q.21-.1.36-.06a.38.38 0 0 0 .1.01.45.45 0 0 0 .2-.05 3.43 3.43 0 0 1 .2 0A1.04 1.04 0 0 1 10 .1q.1-.02.23-.02a1.25 1.25 0 0 1 .2.04l.12.04q.17.05.24.05a.09.09 0 0 1 .09.08 4.52 4.52 0 0 0 .33.1l.1.08a.64.64 0 0 1 .1.08.85.85 0 0 1 .33.13.27.27 0 0 0 .16.1.22.22 0 0 1 .13.04q.14.14.3.22l.19.15.08.08a.45.45 0 0 0 .12.08l.11.16h0a.04.04 0 0 1 .02.01 1.73 1.73 0 0 0 .25.27 2.59 2.59 0 0 0 .14.1 3.81 3.81 0 0 1 .17.3 7.53 7.53 0 0 1 .07.17 12.35 12.35 0 0 0 .12.18l.03.06.1.23q-.02.02-.02.06a.66.66 0 0 0 .12.25.69.69 0 0 1 .1.2h-.01a.01.01 0 0 0-.02 0 .02.02 0 0 0 0 .02.25.25 0 0 1 .06.12.08.08 0 0 0 .06.08.82.82 0 0 0 0 .1.15.15 0 0 0 0 .07q.02.04.02.1a.62.62 0 0 0 .03.22.14.14 0 0 1 .02.06.13.13 0 0 1-.03.07.54.54 0 0 1 .06.18.04.04 0 0 1 0 .02q-.04.03-.06.07.04.14.02.2a.13.13 0 0 0 0 .04.22.22 0 0 0 .02.1.2.2 0 0 0-.05.14.5.5 0 0 0 .01.1.58.58 0 0 0-.03.18.17.17 0 0 0 .01.08q-.06.08-.07.19a.26.26 0 0 1-.1.16.1.1 0 0 1 0 .04.16.16 0 0 1-.03.1.12.12 0 0 0-.03.06.06.06 0 0 0 .02.04.86.86 0 0 1-.1.22.17.17 0 0 0-.04.11q-.13.16-.2.2a.12.12 0 0 0-.04.1.23.23 0 0 0 0 .05.82.82 0 0 0-.15.22l-.14.25a4.34 4.34 0 0 1-.15.26.45.45 0 0 0-.06.12q-.02.07-.08.11a7.76 7.76 0 0 1-.1.22q-.02.03-.1.07a.95.95 0 0 0-.12.17l-.03.07-.12.1q-.04.03-.02.11a.25.25 0 0 0-.17.2.5.5 0 0 0-.07.18.04.04 0 0 0 .05.05q.08.2.2.26a.47.47 0 0 0 .1.18l.13.13a.21.21 0 0 0 .06.15l.11.12a1.04 1.04 0 0 1 .06.22q.02.11.12.13 0 .1.1.3a.45.45 0 0 1 .04.13.02.02 0 0 1 0 .02q-.02.02-.02.06a.56.56 0 0 0 .04.2l.03.05a.45.45 0 0 0 0 .11.52.52 0 0 0 0 .06.22.22 0 0 1 0 .03.12.12 0 0 1-.05.1 1.06 1.06 0 0 0 .03.17.02.02 0 0 1 0 .01.04.04 0 0 1-.04.03.17.17 0 0 1 .02.06.1.1 0 0 1-.01.04q-.02.04.02.12a.15.15 0 0 0-.06.1.14.14 0 0 0 0 .02.35.35 0 0 1 0 .05.6.6 0 0 1 0 .12.24.24 0 0 0-.04.14.24.24 0 0 1-.04.13.53.53 0 0 0-.11.18.02.02 0 0 0 0 .01.06.06 0 0 1 0 .02.04.04 0 0 1 0 .03.68.68 0 0 1-.1.14l-.05.07-.15.26-.15.23a1.9 1.9 0 0 1-.13.18.68.68 0 0 1-.11.08 2.23 2.23 0 0 0-.16.11.95.95 0 0 0-.2.12l-.05.04a2.76 2.76 0 0 1-.15.07 2.5 2.5 0 0 1-.19.07q-.19.1-.21.08a.03.03 0 0 0-.02 0 .1.1 0 0 0-.04.01q-.13.1-.18.1h-.1a.56.56 0 0 1-.29.1q-.13.02-.18 0a.07.07 0 0 0-.03 0 .18.18 0 0 0-.1.04 1.53 1.53 0 0 1-.39-.06q-.1-.04-.2-.04a.5.5 0 0 0-.29-.16 1.19 1.19 0 0 0-.45-.27.26.26 0 0 0-.02-.12 1.1 1.1 0 0 0-.07-.11.22.22 0 0 1-.04-.13l-.02-.15a.67.67 0 0 1-.07-.21.06.06 0 0 1 0-.01.45.45 0 0 0 .01-.09.53.53 0 0 1-.08-.18.11.11 0 0 0-.04-.07q.06-.16.06-.2a.34.34 0 0 1 .02-.12q.08-.15.08-.21a.13.13 0 0 1 .04-.1 1.37 1.37 0 0 1 .1-.2 2.39 2.39 0 0 1 .17-.3q.06-.09.14-.16a.35.35 0 0 0 .15-.07l.1-.09q.08.04.18 0 .1-.04.15-.08a.76.76 0 0 0 .28-.04 1.07 1.07 0 0 0 .23.04 2.15 2.15 0 0 0 .28.14v.2q.02.01 0 .03a1.09 1.09 0 0 1 0 .16.18.18 0 0 1-.14.23 3.99 3.99 0 0 1-.14-.04 1.63 1.63 0 0 1-.15-.07q-.14-.06-.26-.06l-.3.13a.27.27 0 0 1-.13.06.14.14 0 0 0-.07.1.16.16 0 0 1-.12.1.4.4 0 0 1-.08.25q.04.08 0 .12a.07.07 0 0 0 0 .04.26.26 0 0 0 .02.1.84.84 0 0 0-.04.21.48.48 0 0 0 .04.18q.13.15.15.23a.43.43 0 0 0 .06.14.46.46 0 0 1 .17.11h0a.03.03 0 0 0 0 .02.01.01 0 0 0 0 0 .48.48 0 0 1 .16.05.13.13 0 0 0 .07.02.24.24 0 0 0 .05 0l.22.07.27.02a16.36 16.36 0 0 0 .4-.1 18.94 18.94 0 0 1 .23-.07l.2-.07.03-.03a.32.32 0 0 1 .23-.1.58.58 0 0 1 .11-.09 1.08 1.08 0 0 1 .15-.07.32.32 0 0 1 .16-.14.08.08 0 0 0 .07-.09q.26-.23.3-.33a11.43 11.43 0 0 1 .1-.18 2.23 2.23 0 0 1 .11-.15.2.2 0 0 1-.02-.08.06.06 0 0 1 .03-.05.06.06 0 0 0 .03-.05.2.2 0 0 0-.02-.08q.06-.08.08-.15a3.82 3.82 0 0 0 .04-.18q.02-.21 0-.26a.45.45 0 0 1 0-.1.24.24 0 0 1 .06-.18q.04 0 0-.05a1.21 1.21 0 0 0-.11-.14.22.22 0 0 1-.05-.09q-.02-.06-.01-.15a.14.14 0 0 0 0-.01.15.15 0 0 0-.09-.13.4.4 0 0 0-.06-.19 1.53 1.53 0 0 1-.07-.1 2.86 2.86 0 0 0-.1-.22.53.53 0 0 1-.12-.14l-.02-.04A.51.51 0 0 0 12 9.4a.8.8 0 0 1-.07-.11.44.44 0 0 1-.18-.13q-.05-.07-.17-.09a.43.43 0 0 1-.18.11.48.48 0 0 0-.15.05 3.17 3.17 0 0 1-.23.14q-.22.1-.24.07a.03.03 0 0 0-.02 0 .08.08 0 0 0-.04 0q-.15.06-.2.06a.02.02 0 0 0-.03.02.08.08 0 0 0 .02.04q-.1-.08-.17-.04a.55.55 0 0 1-.16.06 1.3 1.3 0 0 1-.3-.06.4.4 0 0 0-.15-.02.34.34 0 0 0-.06 0 .5.5 0 0 0-.17-.06.03.03 0 0 0-.02 0 .03.03 0 0 1-.02.01.04.04 0 0 1-.03-.03.24.24 0 0 1-.13-.04.17.17 0 0 0-.1-.02.31.31 0 0 0-.06 0q-.12-.19-.14-.19l-.04-.02a.22.22 0 0 0 .01-.05.33.33 0 0 0-.03-.13.16.16 0 0 1 0-.05.08.08 0 0 1 .04-.08.18.18 0 0 1-.04-.12.4.4 0 0 1 .04-.16l.04-.11a.76.76 0 0 1 .04-.1q.1-.08.13-.14a.17.17 0 0 1 .07-.07 2.35 2.35 0 0 0 .37-.19 6.67 6.67 0 0 0 .17-.13.18.18 0 0 0 .1.03.19.19 0 0 0 .03 0 .73.73 0 0 0 .13-.03 1.37 1.37 0 0 0 .33.06.9.9 0 0 0 .16.03.03.03 0 0 0 .02 0h.05a.25.25 0 0 0 .12.03.05.05 0 0 0 .02 0q.04-.02.08 0a.56.56 0 0 0 .23.16Zm34.22-1.3-.2.07a1.47 1.47 0 0 0-.32-.12 3.92 3.92 0 0 1-.34-.1.5.5 0 0 1-.05-.12.24.24 0 0 0-.06-.1.3.3 0 0 1 .05-.19.58.58 0 0 0 .08-.16 85.46 85.46 0 0 0 .51.06.41.41 0 0 0 .2.11.06.06 0 0 0 .04 0q.05-.05.11 0l.22-.2a.3.3 0 0 0 .06-.08q.01-.04.1-.08a.24.24 0 0 1-.01-.05.2.2 0 0 1 .04-.13.2.2 0 0 0 .05-.13.24.24 0 0 0 0-.04 5.6 5.6 0 0 0-.05-.36.68.68 0 0 0-.04-.17 1.76 1.76 0 0 1-.12-.2q-.01-.03-.05-.05-.02-.12-.1-.2l-.14-.16-.16-.19a1.22 1.22 0 0 0-.2-.18q-.16-.07-.17-.05a.02.02 0 0 1-.02 0 .08.08 0 0 1-.03 0 .15.15 0 0 0-.08-.04.07.07 0 0 0-.02 0 .07.07 0 0 1-.02 0 .36.36 0 0 1-.12-.02 6.58 6.58 0 0 1-.24-.04 1 1 0 0 0-.15-.02.68.68 0 0 0-.21.04.47.47 0 0 0-.19.1.17.17 0 0 1-.12.06.21.21 0 0 1-.04 0 1.48 1.48 0 0 1-.14.1l-.08.01a.7.7 0 0 1-.15.13q-.03 0-.06.05a.28.28 0 0 1-.11.13q-.03 0-.05.04a.24.24 0 0 0-.06.1.24.24 0 0 1-.06.1.57.57 0 0 0-.11.2l-.12.3a.64.64 0 0 0-.15.29.08.08 0 0 0 0 0 .4.4 0 0 1 0 .06.27.27 0 0 1 0 .08q-.09.18-.09.25v.1a1.57 1.57 0 0 0-.02.25.24.24 0 0 0 0 .06.53.53 0 0 1 .02.15q-.02.2.06.3a.3.3 0 0 0-.07.2.3.3 0 0 0 0 .06q.03.14.03.35l.06.26a1.47 1.47 0 0 0 .09.28.13.13 0 0 1 .02.07.24.24 0 0 1-.01.06.97.97 0 0 0 .09.31.16.16 0 0 1 .02.09.15.15 0 0 1-.01.07.23.23 0 0 0 .17.07.39.39 0 0 0 .14-.03.75.75 0 0 0 .18.02.3.3 0 0 0 .17-.04q.16.02.22 0a.35.35 0 0 0 .1-.02q.23 0 .33-.02a.18.18 0 0 0 .13-.1.2.2 0 0 0 .08.02.07.07 0 0 0 .06-.03.1.1 0 0 1 .09-.03.26.26 0 0 1 .05 0l.15.31a.2.2 0 0 1 .02.1.34.34 0 0 1-.02.1 2.78 2.78 0 0 0-.22.16l-.07.05Q43.91 9 43.82 9a.47.47 0 0 0-.15.02q-.21 0-.23.02-.02.02-.06.02-.12.02-.23 0-.12-.02-.28 0-.04.1 0 .18a8.77 8.77 0 0 0 .06.17q.08.22.08.32a.14.14 0 0 0 .08.13.47.47 0 0 0 0 .07.41.41 0 0 0 .03.19.83.83 0 0 1 .08.23 1.1 1.1 0 0 0 .04.26.6.6 0 0 1 .04.11q.04.1.04.2a.68.68 0 0 0 .04.21q0 .14.08.24-.02.2.08.39a1.52 1.52 0 0 0 .11.47l.02.11a.12.12 0 0 0 .06.1.35.35 0 0 0 0 .05.32.32 0 0 0 .1.22.17.17 0 0 1 0 .06.1.1 0 0 1 0 .04q-.02.04.02.12a.39.39 0 0 1 .05.15.08.08 0 0 1 0 .02.16.16 0 0 0 0 .03.12.12 0 0 0 0 .05q.06.1.06.16a.37.37 0 0 0 .03.12.64.64 0 0 1 .03.15.32.32 0 0 0 .02.1 3.82 3.82 0 0 0 .04.18q.02.07.02.17a1.3 1.3 0 0 0 .01.23l.01.07q.06.2.06.32v.22q.02.1 0 .24.02.15 0 .16-.02.01-.02.05a.1.1 0 0 1 .03.08.14.14 0 0 1 0 .02l-.01.12a2 2 0 0 0-.07.47.99.99 0 0 0 0 .04.77.77 0 0 1 0 .04.36.36 0 0 1-.09.27q.02.15 0 .16-.02.01-.02.05l.01.1v.16a1.73 1.73 0 0 0-.12.3q-.02.1-.1.2a.37.37 0 0 0-.07.1 1.1 1.1 0 0 1-.07.12q-.15.17-.2.3a.19.19 0 0 0-.09.08.34.34 0 0 1-.08.1q-.21.18-.35.22a.53.53 0 0 0-.23.14.88.88 0 0 0-.19.06 4.05 4.05 0 0 0-.17.07.67.67 0 0 0-.23.1q-.24.04-.36.08a1.67 1.67 0 0 1-.28.06q-.16.04-.3 0a.75.75 0 0 0-.16 0 .59.59 0 0 0-.1 0 .43.43 0 0 0-.13-.06.76.76 0 0 1-.16-.06.72.72 0 0 0-.16-.06.26.26 0 0 1-.13-.05l-.24-.1a.3.3 0 0 1-.13-.04q-.12-.1-.12-.15a.03.03 0 0 0-.03-.03.1.1 0 0 0-.02 0l-.01-.11a.14.14 0 0 0-.07-.1.69.69 0 0 1-.08-.2.17.17 0 0 0-.02-.08.54.54 0 0 1-.07-.2.09.09 0 0 1 0-.01.24.24 0 0 0 0-.04.25.25 0 0 0 0-.08q-.05-.13-.03-.2.02-.05.02-.13l-.02-.31.1-.26a.19.19 0 0 0 .08-.1 1.07 1.07 0 0 1 .06-.13q.08-.16.11-.18a.03.03 0 0 0 .02-.02.05.05 0 0 0-.02-.04.2.2 0 0 0 .12-.06l.08-.11q.23-.1.3-.16a.59.59 0 0 1 .17-.1 3.31 3.31 0 0 0 .43-.07.4.4 0 0 1 .1-.02.41.41 0 0 1 .17.04q.2-.06.2-.02.02.04.06.04a1.79 1.79 0 0 1 .29.07q.14.14.2.17a.37.37 0 0 1 .1.07l.3.43q-.04.08 0 .17a.22.22 0 0 1 .02.09.26.26 0 0 1-.02.09q-.11.25-.3.25a.1.1 0 0 1-.04.01.1.1 0 0 1-.08-.04.1.1 0 0 0-.07-.03.1.1 0 0 0-.03 0q-.12-.17-.11-.23a.24.24 0 0 0 0-.04.25.25 0 0 0-.01-.08l-.18-.24q-.04-.05-.11-.09a2.28 2.28 0 0 0-.46-.05.96.96 0 0 0-.13 0 1.1 1.1 0 0 0-.4.13 1.1 1.1 0 0 0-.06.12.15.15 0 0 1-.1.07.6.6 0 0 0-.12.24.92.92 0 0 0-.11.36.22.22 0 0 0 0 .06.42.42 0 0 1 .03.12.38.38 0 0 1-.02.12q.12.14.12.45.02.06.06.08.05.02.07.12a6.92 6.92 0 0 0 .2.08q.12.04.25.04a1.9 1.9 0 0 0 .25.08.25.25 0 0 1 .14.1l.12-.02a.17.17 0 0 0 .1-.05 1.13 1.13 0 0 0 .18.03.1.1 0 0 0 .06-.02.6.6 0 0 1 .09-.07.53.53 0 0 0 .25-.05.9.9 0 0 1 .22-.07.03.03 0 0 1 0 0l.08-.01a2.12 2.12 0 0 0 .34-.2.59.59 0 0 1 .16-.1 2.75 2.75 0 0 1 .24-.17q.11-.08.17-.18.08-.07.08-.23.12-.14.16-.3a.72.72 0 0 0 .04-.17.03.03 0 0 0 0-.02.03.03 0 0 1-.01-.02.08.08 0 0 1 0-.04 1.7 1.7 0 0 1 .07-.3 1.64 1.64 0 0 0 .05-.2h0q-.02 0-.02-.05a.56.56 0 0 0 .04-.16.07.07 0 0 0-.02-.05.48.48 0 0 1-.02-.14.33.33 0 0 1 .06-.2l.01-.34a.24.24 0 0 0 0-.03.12.12 0 0 0-.03-.1.9.9 0 0 0 .03-.16.07.07 0 0 0 0-.04l-.05-.06a1.52 1.52 0 0 1-.02-.23.75.75 0 0 1 .02-.19q-.05-.23-.08-.25-.03-.02-.03-.06.04-.15-.02-.29a.54.54 0 0 1-.05-.22.62.62 0 0 1 0-.07 1 1 0 0 1-.07-.21h0q.02 0 .02-.03a1.24 1.24 0 0 1-.13-.4 1.72 1.72 0 0 0-.04-.3.38.38 0 0 0-.1-.19.12.12 0 0 1-.05-.1.23.23 0 0 1 0-.04v-.15a.13.13 0 0 0 .01-.03.1.1 0 0 0-.08-.1 1.16 1.16 0 0 0-.06-.35q-.04-.08 0-.17-.06-.04-.06-.14a.68.68 0 0 0-.04-.21.43.43 0 0 0-.05-.14q-.04-.06 0-.14a.43.43 0 0 1-.08-.24.3.3 0 0 0-.1-.23 9.71 9.71 0 0 1-.05-.31.31.31 0 0 0-.05-.14 2.36 2.36 0 0 1-.04-.35.24.24 0 0 1 0-.06q-.1-.2-.1-.23l-.02-.08a1.54 1.54 0 0 0-.18.03l-.07.01q-.12.04-.27 0l-.22.02q-.27 0-.35.02-.08.02-.13 0l-.12-.09q-.02 0-.06-.05-.04-.06-.01-.12a.83.83 0 0 0 .05-.19.44.44 0 0 0 .1-.07.44.44 0 0 1 .11-.07.65.65 0 0 0 .22-.04.64.64 0 0 0 .28.1.24.24 0 0 0 .06 0 .8.8 0 0 1 .18-.03 1.47 1.47 0 0 1 .14.01 2.5 2.5 0 0 0-.04-.39.76.76 0 0 1-.04-.1l-.03-.11a1.38 1.38 0 0 1-.07-.25.02.02 0 0 1 0 0 .03.03 0 0 0 0-.02.1.1 0 0 0-.01-.05q-.02-.07-.01-.17a1.65 1.65 0 0 0 0-.16 1.28 1.28 0 0 1-.04-.33.82.82 0 0 1 0-.05 1.11 1.11 0 0 0 0-.06.86.86 0 0 0-.03-.24q-.04-.14-.01-.2a.37.37 0 0 0 .03-.15l-.01-.13a.45.45 0 0 1-.01-.09l.04-.39.12-.35q.1-.21.07-.26-.02-.05.02-.11a.4.4 0 0 0 .08-.22.33.33 0 0 0 .2-.29q.05-.17.13-.21a.14.14 0 0 0 .08-.14.26.26 0 0 1 .09-.06q.05-.02.05-.12.1-.02.14-.08.05-.07.17-.1a.5.5 0 0 1 .19-.14.42.42 0 0 0 .16-.13 37.66 37.66 0 0 0 .3-.1q.07-.03.15-.1a1.5 1.5 0 0 0 .33-.04.44.44 0 0 1 .16-.03.2.2 0 0 1 .1.03.54.54 0 0 0 .11.05 1.03 1.03 0 0 1 .73.23q.07.02.2.1a.83.83 0 0 0 .17.15.07.07 0 0 1 .04.07.15.15 0 0 1 0 .03 1.34 1.34 0 0 1 .2.24.25.25 0 0 0 .09.1l.07.15q0 .02.05.04a.37.37 0 0 0 .11.22 6.14 6.14 0 0 1 .1.4q.04.2.02.5l-.04.29q-.02.08-.07.14a.12.12 0 0 0-.02.07.21.21 0 0 0 .01.08.13.13 0 0 0-.11.1q-.02.08-.12.12a.8.8 0 0 1-.23.2q-.04.01-.04.07a.54.54 0 0 0-.3.12Zm5.67 9.32.27-.35a11.43 11.43 0 0 0 .18-.1q.07-.05.13-.13.26-.12.43-.28a.87.87 0 0 0 .17.02.33.33 0 0 0 .14-.04.5.5 0 0 0 .2.04l.2.02a2.87 2.87 0 0 1 .3.11.67.67 0 0 0 .15.05l.15.23a.45.45 0 0 0 .09.07.45.45 0 0 1 .09.07.32.32 0 0 1 .1.13 7.53 7.53 0 0 1 .07.16 1.1 1.1 0 0 1 .07.12.26.26 0 0 1 .03.12 1.58 1.58 0 0 0 .01.2.18.18 0 0 0 .05.11.81.81 0 0 1-.06.32l-.08.13a20.72 20.72 0 0 0-.2.25.68.68 0 0 0-.1.2.7.7 0 0 0-.19.05.3.3 0 0 1-.13.03.35.35 0 0 1-.06 0 .3.3 0 0 1-.16-.04 2.65 2.65 0 0 0-.17-.1.46.46 0 0 1-.02-.12.24.24 0 0 1 .02-.1.26.26 0 0 0 .02-.1.58.58 0 0 0-.02-.15 1.32 1.32 0 0 1 .23-.03.3.3 0 0 1 .04 0h.12a1.22 1.22 0 0 0 .12-.33.32.32 0 0 0 0-.04.4.4 0 0 0-.02-.14.32.32 0 0 0-.11-.15q-.07-.05-.07-.17-.27-.15-.3-.23a.71.71 0 0 0-.23-.06.12.12 0 0 0-.03 0q-.07.02-.12-.02-.04.06-.12.06a.35.35 0 0 0-.16.04 1.54 1.54 0 0 1-.26.12.17.17 0 0 0-.09.05.24.24 0 0 0-.09.11q-.03.07-.1.1a.28.28 0 0 1-.12.2q-.1.3-.1.5a.73.73 0 0 0-.03.12.18.18 0 0 1-.05.1.26.26 0 0 0 .03.12.23.23 0 0 1 .03.1 2.9 2.9 0 0 1 .03.34.4.4 0 0 1 0 .04.54.54 0 0 0 0 .06.64.64 0 0 0 .01.13.4.4 0 0 1 .12.2.13.13 0 0 0 .04.09l.13.18a.55.55 0 0 1 .15.15h0a.03.03 0 0 0 0 .01.01.01 0 0 0 0 .01 3.1 3.1 0 0 0 .15.18.58.58 0 0 0 .07.06.81.81 0 0 1 .29.05l.14.08a.82.82 0 0 1 .18-.02.89.89 0 0 1 .18.02q.2.04.39.04a.53.53 0 0 1 .15-.05.03.03 0 0 1 .01 0l.07.01q.1-.02.25-.1l.18-.08q.04-.01.04-.05a1.64 1.64 0 0 0 .22-.07.79.79 0 0 0 .13-.07q.1-.12.18-.15.17-.14.18-.23.01-.09.13-.09.02-.1.08-.23.07-.25.07-.4 0-.13.06-.25a.12.12 0 0 1-.02-.06.11.11 0 0 1 .01-.05.3.3 0 0 0 .03-.14.87.87 0 0 1 .04-.27 1.32 1.32 0 0 0 .01-.13.07.07 0 0 0-.02-.07q-.03 0-.03-.04a.65.65 0 0 0 .04-.23 1.8 1.8 0 0 0 0-.08 1.9 1.9 0 0 0-.06-.37 1.54 1.54 0 0 0-.05-.19.19.19 0 0 1 0-.06.24.24 0 0 1 .03-.12.47.47 0 0 0-.05-.13.54.54 0 0 1-.04-.1 1.1 1.1 0 0 0-.04-.26l-.04-.08a1.57 1.57 0 0 1-.07-.21h0l.01-.04v-.13a.47.47 0 0 0-.02-.15 2.5 2.5 0 0 1-.13-.47.43.43 0 0 0-.1-.25v-.21q-.08-.2-.06-.3a.29.29 0 0 0 0-.06.22.22 0 0 0-.04-.13.16.16 0 0 0-.16.07q-.04.06-.1.1-.17.06-.22.06a.12.12 0 0 0-.09.04 4.26 4.26 0 0 0-.25.1.9.9 0 0 1-.12.06q-.21 0-.27.03a2.14 2.14 0 0 1-.16.07 17 17 0 0 0-.42-.08 1.27 1.27 0 0 0-.22-.02 1.03 1.03 0 0 0-.2.02 1.1 1.1 0 0 0-.24-.16 1.5 1.5 0 0 0-.3-.1 1.9 1.9 0 0 0-.18-.22l-.2-.2a.67.67 0 0 0-.05-.14 1.1 1.1 0 0 0-.06-.12.67.67 0 0 1-.07-.14q-.03-.08-.09-.13a.5.5 0 0 0-.04-.2.86.86 0 0 1-.06-.23l-.08-.37a1.25 1.25 0 0 0-.01-.23l-.02-.2a1.31 1.31 0 0 0 .03-.23.18.18 0 0 0 0-.03l-.01-.12v-.17a1.65 1.65 0 0 0 .01-.16v-.15a.12.12 0 0 1 .06-.1.6.6 0 0 1 0-.09.29.29 0 0 1 .02-.13l.01-.25a1.08 1.08 0 0 1 .05-.27l.06-.2.02-.08q.08-.15.08-.2v-.09q.1-.14.14-.16a.21.21 0 0 0 .07-.04 6.09 6.09 0 0 1 .17.05q.03.01.05.05l.1.2q-.06.25-.02.31-.1.08-.1.24a.5.5 0 0 1-.08.29.5.5 0 0 1 .04.15.05.05 0 0 1-.01.03l-.07.07a.16.16 0 0 1 .04.1.14.14 0 0 1-.03.09.16.16 0 0 0-.04.1.17.17 0 0 0 .03.08.51.51 0 0 0-.06.23.52.52 0 0 0 .01.1.63.63 0 0 1 .01.1.6.6 0 0 1-.04.22 1.23 1.23 0 0 1 .02.17.97.97 0 0 1 0 .08.58.58 0 0 0-.01.05.94.94 0 0 0 .03.22.97.97 0 0 0 .12.28l.09.24a3.38 3.38 0 0 0 .06.19q.14.21.22.37a1.1 1.1 0 0 0 .24.2 2.76 2.76 0 0 1 .15.07.43.43 0 0 0 .17.07.06.06 0 0 0 .02 0 .07.07 0 0 1 0 0 .1.1 0 0 1 .08.05 2.32 2.32 0 0 1 .27.03q.03 0 .06.03a.55.55 0 0 0 .18.02.8.8 0 0 0 .1 0q.25-.04.3-.08a.44.44 0 0 0 .15-.06.87.87 0 0 1 .15-.08 2.35 2.35 0 0 0 .11-.06q.07-.04.1-.1a.66.66 0 0 0 .24-.11l.2-.16q-.02-.1.02-.21a.4.4 0 0 0 .01-.1.25.25 0 0 0 0-.04 5.18 5.18 0 0 0-.03-.15q.02-.22 0-.26a.17.17 0 0 1-.02-.08v-.26a2.78 2.78 0 0 1 .04-.24q0-.26.02-.41a.63.63 0 0 0 0-.08.66.66 0 0 0-.04-.24 1.44 1.44 0 0 1 .1-.4.3.3 0 0 0 .02-.11.07.07 0 0 0 0-.03q-.02-.04 0-.08.1-.22.07-.31a.17.17 0 0 0 .1-.11.42.42 0 0 0 .02-.1q.18-.26.24-.28a.4.4 0 0 0 .08-.17.03.03 0 0 0 0 0 .06.06 0 0 1 0-.02.09.09 0 0 1 .03-.07q.3-.15.34-.25a.65.65 0 0 0 .3-.09q.05-.05.13-.07a1 1 0 0 0 .24.17.17.17 0 0 1 .09.05.3.3 0 0 1 .05.12.1.1 0 0 0 .06.07 3.02 3.02 0 0 1 .07.29.18.18 0 0 0 .05.1q-.04.06 0 .13a.37.37 0 0 1 .02.15q-.04.49-.16.58l-.05.35a.24.24 0 0 1-.12.18.58.58 0 0 1 0 .07.2.2 0 0 1-.04.14.16.16 0 0 0-.05.13.34.34 0 0 0 .01.05 1.8 1.8 0 0 0-.14.25.76.76 0 0 1-.03.1.72.72 0 0 0-.11.2h0a.03.03 0 0 1 0 .01.1.1 0 0 1-.01.05l-.1.1a.15.15 0 0 0-.04.1.24.24 0 0 0 0 .05q-.14.14-.17.14-.12.25-.2.31-.08.06-.12.14a.63.63 0 0 1-.12.21q.04.1.04.2a.88.88 0 0 0 .04.23 3.45 3.45 0 0 0 .02.36.54.54 0 0 0 .1.29.33.33 0 0 0 0 .06.3.3 0 0 0 .02.12 5.34 5.34 0 0 1 .08.19.83.83 0 0 1 .04.29 1.02 1.02 0 0 0 .04.31.48.48 0 0 1 .07.2q0 .08.02.13a1.37 1.37 0 0 1 .1.4 1.1 1.1 0 0 0 .02.21q.08.16.06.18-.02.01-.02.05.06.24.08.27.02.03.02.07a.93.93 0 0 0-.03.2.32.32 0 0 0 0 .06l.03.13q.04.23.02.26t-.02.07a1.48 1.48 0 0 1-.04.25l-.02.12a1.4 1.4 0 0 1 .03.2.04.04 0 0 1 0 .02l-.01.05a.2.2 0 0 1 0 .04.32.32 0 0 1-.06.18.53.53 0 0 0-.05.15.03.03 0 0 0 0 .01l.01.05a1.37 1.37 0 0 1-.1.2.41.41 0 0 0-.05.21.19.19 0 0 0-.08.11.45.45 0 0 1-.06.13.65.65 0 0 0-.14.18l-.02.07q-.06.1-.13.16l-.12.13a.73.73 0 0 0-.25.13q0 .03-.05.05l-.21.1a1.03 1.03 0 0 0-.22.11l-.03.04a.37.37 0 0 1-.17.04.5.5 0 0 0-.19.04.76.76 0 0 0-.1.04.6.6 0 0 1-.11.04.28.28 0 0 1-.13.03.25.25 0 0 1-.03 0 .18.18 0 0 0-.02 0 .16.16 0 0 0-.11.05 2.2 2.2 0 0 1-.28-.04q-.08-.02-.17-.02-.06-.02-.12-.01t-.1-.01q-.1-.02-.18-.07a.38.38 0 0 0-.19-.05.7.7 0 0 1-.4-.13 2.42 2.42 0 0 0-.3-.22q-.16-.21-.24-.25a.26.26 0 0 0-.13-.22 14 14 0 0 1-.23-.57.66.66 0 0 1-.04-.23.56.56 0 0 1 .05-.23 1.54 1.54 0 0 1-.07-.23q-.02-.12.01-.2a.34.34 0 0 1-.05-.16.14.14 0 0 1 .04-.1.23.23 0 0 0 .07-.18.56.56 0 0 0-.02-.1l.12-.2a1.96 1.96 0 0 0 .04-.1q.04-.24.06-.23h.04Zm36.81-8.38h-.1a.72.72 0 0 0-.02.14.15.15 0 0 1-.1.12 1 1 0 0 0-.12.46.67.67 0 0 0 .01.14q.08.3.08.37a.33.33 0 0 0 .04.14q.06.06.07.12 0 .06.06.06a.22.22 0 0 0 .12.21.1.1 0 0 0 .06.11.13.13 0 0 1 .06.13q.08.04.12.1a.26.26 0 0 0 .13.11l.13.14.09.08.17.15.24.24a.63.63 0 0 0 .25.31l.28.24.11.13q-.02.18.14.23a.45.45 0 0 0 .1.26l.2.2q0 .11.05.18a2.88 2.88 0 0 1 .12.15 1.13 1.13 0 0 0 .06.24l.06.07a2.48 2.48 0 0 1 .05.34l.02.36a.9.9 0 0 0-.02.18.13.13 0 0 0 0 .05.24.24 0 0 1 .02.08 1.23 1.23 0 0 1-.13.41 1.65 1.65 0 0 1-.05.13.37.37 0 0 0-.03.15 1.03 1.03 0 0 0-.27.35.7.7 0 0 0-.32.2 1.48 1.48 0 0 0-.09.1l-.08.09a.95.95 0 0 0-.2.12.02.02 0 0 1-.02 0 .08.08 0 0 1-.04 0 1.52 1.52 0 0 1-.3.13.97.97 0 0 0-.26.06l-.04.02a.55.55 0 0 0-.1 0 .43.43 0 0 0-.12.01q-.1.03-.17 0a.58.58 0 0 0-.25-.13.24.24 0 0 1-.1-.01q-.14-.1-.18-.1l-.08-.02q-.15-.18-.2-.19-.03 0-.05-.03a3.17 3.17 0 0 1-.14-.23.18.18 0 0 0-.14-.1 3.82 3.82 0 0 0-.03-.17.19.19 0 0 0-.08-.12 37.43 37.43 0 0 0-.05-.31.25.25 0 0 1 0-.04.4.4 0 0 1 0-.1q0-.25.02-.32a.2.2 0 0 0 0-.03.38.38 0 0 0-.03-.14q.08-.06.08-.25a.09.09 0 0 0 .1-.07 1.46 1.46 0 0 1 .03-.15l.2-.13a2.88 2.88 0 0 1 .16-.12.34.34 0 0 1 .16-.14.03.03 0 0 0 .04-.02.04.04 0 0 0-.01-.02.62.62 0 0 0 .1.01.18.18 0 0 0 .07 0 .12.12 0 0 0 .06-.07.7.7 0 0 0 .2.04.34.34 0 0 0 .03 0 .2.2 0 0 0 .13-.06.09.09 0 0 0 .06.05.05.05 0 0 0 .02 0 .65.65 0 0 1 .13 0q.18.1.22.1.03.01.03.05.1.14.23.24.13.11.18.25a.56.56 0 0 1-.1.23 3.69 3.69 0 0 1-.17.18q-.1.02-.18 0a3.07 3.07 0 0 0-.23-.04.59.59 0 0 1-.14-.33.3.3 0 0 1-.1-.03.25.25 0 0 0-.1-.02.53.53 0 0 0-.09 0 .47.47 0 0 0-.26.13.7.7 0 0 1-.2.13 4.76 4.76 0 0 0-.09.32.91.91 0 0 0-.01.2.98.98 0 0 0 .02.19.67.67 0 0 0 .04.13.23.23 0 0 1 .03.1.24.24 0 0 0 .1.06.07.07 0 0 1 .05.07.23.23 0 0 1-.01.04q.08.04.14.1a.78.78 0 0 0 .11.1 1.5 1.5 0 0 1 .35.17q.08.06.22.06l.31-.06a.65.65 0 0 0 .12-.05.48.48 0 0 1 .14-.09.17.17 0 0 0 .08-.05.26.26 0 0 1 .1-.12l.07-.02.13-.1a1.06 1.06 0 0 0 .09-.07.16.16 0 0 1 .03-.12l.08-.1q.1-.15.1-.23a.17.17 0 0 1-.01-.02.1.1 0 0 1 .05-.1l.02-.46a.62.62 0 0 0-.12-.38.65.65 0 0 0-.04-.21l-.06-.06a1.82 1.82 0 0 1-.02-.17l-.02-.07a5.53 5.53 0 0 0-.21-.28q-.06-.07-.08-.16l-.11-.15q-.03-.01-.04-.05a1.2 1.2 0 0 0-.1-.16l-.04-.05q-.1 0-.14-.2a.6.6 0 0 1-.17-.14q-.24-.29-.4-.37-.07-.1-.15-.17a.74.74 0 0 0-.2-.14.23.23 0 0 0-.1-.19.22.22 0 0 1-.11-.16q-.25-.26-.36-.45a2.97 2.97 0 0 0-.23-.35 2.2 2.2 0 0 0-.04-.28 3.82 3.82 0 0 1-.03-.17.56.56 0 0 0-.02-.22q-.02-.02-.02-.06a1.1 1.1 0 0 1 .03-.23V8.3a3.12 3.12 0 0 1-.02-.17.14.14 0 0 1 0-.02.21.21 0 0 1 .05-.12.74.74 0 0 1 .07-.2.1.1 0 0 0 .02-.05.06.06 0 0 0-.02-.04.64.64 0 0 1 .1-.08.1.1 0 0 0 .05-.1.23.23 0 0 0-.01-.04 1.07 1.07 0 0 0 .49-.37.79.79 0 0 0 .16-.09q.07-.05.19-.07a.85.85 0 0 0 .24-.12.08.08 0 0 1 .05-.03.05.05 0 0 1 .04.02 1.1 1.1 0 0 1 .2-.04.12.12 0 0 1 .1.04 1.08 1.08 0 0 0 .1 0 .08.08 0 0 0 .08-.01.02.02 0 0 1 .02-.02.06.06 0 0 1 .03 0 1.7 1.7 0 0 1 .34.06.58.58 0 0 0 .19.03.33.33 0 0 0 .2.1.94.94 0 0 1 .19.17q.04.06.11.1l.11.13.07.04a.79.79 0 0 0 .13.3.06.06 0 0 1 .02.03.03.03 0 0 1-.01.02.5.5 0 0 1 .1.1l.11.12q-.02.17 0 .18.02.01.02.05a.49.49 0 0 1-.06.22q0 .13-.02.17l-.04.08a1.8 1.8 0 0 0-.06.22.25.25 0 0 1-.1.15q-.11.2-.2.26-.1.05-.2.13a5.72 5.72 0 0 1-.26.06 1.11 1.11 0 0 0-.2.06l-.19.01a.03.03 0 0 1-.01 0 .1.1 0 0 1-.05 0 .24.24 0 0 1-.1-.07.25.25 0 0 0-.11-.06.4.4 0 0 1-.03-.14.34.34 0 0 1 .04-.15q.07-.14.19-.18a1.06 1.06 0 0 0 .13.02.1.1 0 0 0 .03 0q.03-.02.07-.02a2.4 2.4 0 0 0 .21-.02.38.38 0 0 0 .08-.03.69.69 0 0 0 .16-.17h0q-.02-.01.02-.05a.95.95 0 0 1 .11-.2q.03-.01.03-.03a.4.4 0 0 0 0-.07.28.28 0 0 0-.03-.14 1.62 1.62 0 0 1-.1-.18.32.32 0 0 1-.03-.14.22.22 0 0 0-.02-.1q-.14-.2-.23-.24-.1-.05-.18-.15a.33.33 0 0 1-.2-.03q-.02-.03-.05-.03a.4.4 0 0 0-.16-.03.32.32 0 0 0-.03 0l-.19.01a1.26 1.26 0 0 0-.36.03 2.76 2.76 0 0 0-.14.07q-.22.1-.28.15a.1.1 0 0 0-.04.08.09.09 0 0 0 0 .03Zm-67.83 0 .02-.05a.41.41 0 0 1 .19.11.43.43 0 0 0 .16.12.33.33 0 0 0 .05.12.24.24 0 0 1 .03.13.72.72 0 0 1 .03.15.2.2 0 0 0 .05.13.1.1 0 0 1 0 .04.13.13 0 0 1 0 .05.17.17 0 0 0-.01.06.44.44 0 0 0 0 .08l-.01.29a1.44 1.44 0 0 1-.06.26q-.06.2-.06.27l-.02.18a1.11 1.11 0 0 0-.07.32.33.33 0 0 0 0 .03.56.56 0 0 1 0 .05.45.45 0 0 1-.02.16.39.39 0 0 0-.05.16.1.1 0 0 0 0 .02.14.14 0 0 1 0 .02.17.17 0 0 1-.03.1.64.64 0 0 0-.05.2.15.15 0 0 0 0 .02.2.2 0 0 1 0 .03.27.27 0 0 1-.03.12q-.06.12-.07.18a.3.3 0 0 1-.05.13.74.74 0 0 0-.09.2.01.01 0 0 0 0 0l.01.05-.11.24a13.99 13.99 0 0 0-.12.33.97.97 0 0 1-.1.2l-.06.07q.04.08.04.18a.14.14 0 0 0 .1.14.45.45 0 0 0 .18.37q.1.21.14.26l.09.09.09.09a.15.15 0 0 0 .1.05l.13.13a.73.73 0 0 0 .07.08.15.15 0 0 1 .13.04.15.15 0 0 0 .12.04q.16-.08.22-.08a.13.13 0 0 0 .1-.04 1 1 0 0 1 .16-.01.19.19 0 0 1 .13.03q.06.06.16.06a.47.47 0 0 0 .02.2.03.03 0 0 1 0 .02.08.08 0 0 1 0 .04l-.29.25-.18.17a1 1 0 0 1-.13.01.91.91 0 0 1-.18-.02q-.14-.03-.26.01l-.15-.07a.55.55 0 0 0-.16-.06 3.37 3.37 0 0 0-.32-.31q-.15-.06-.19-.14a.8.8 0 0 0-.18-.1q-.04-.02-.07-.06-.1-.17-.1-.2a.04.04 0 0 0 .01-.02.09.09 0 0 0-.03-.05.29.29 0 0 0-.18-.18.34.34 0 0 1-.1.13.23.23 0 0 0-.1.15 2.55 2.55 0 0 0-.27.23q-.13.22-.16.23a.15.15 0 0 0-.05.08.16.16 0 0 0-.04 0 .14.14 0 0 0-.1.04.1.1 0 0 1-.07.04.08.08 0 0 1-.04-.02q-.06.06-.15.08-.09.02-.15.1a.4.4 0 0 0-.15.05.73.73 0 0 0-.08.06l-.16-.02a.21.21 0 0 1-.12-.03q-.05.04-.11 0a.24.24 0 0 0-.14-.04.9.9 0 0 0-.21 0q0 .02-.04.02a1.16 1.16 0 0 0-.27-.06.09.09 0 0 1-.09-.04l-.21-.07q-.06 0-.06-.07l-.16-.09a.43.43 0 0 1-.1-.04l-.08-.08a.33.33 0 0 1-.09-.14.63.63 0 0 0-.16-.16.03.03 0 0 1-.03-.02.05.05 0 0 1 .02-.03 1.36 1.36 0 0 1-.17-.2q0-.04-.05-.08l-.13-.2a.8.8 0 0 0-.11-.29.28.28 0 0 1-.06-.16.31.31 0 0 1 0-.05 1.77 1.77 0 0 0-.07-.31.87.87 0 0 0-.08-.16.56.56 0 0 0 .02-.14.52.52 0 0 0-.03-.16.5.5 0 0 1-.03-.16.45.45 0 0 1 .02-.13.47.47 0 0 0-.02-.2q-.02-.01-.02-.03.02-.18 0-.2-.02-.03-.02-.07l.02-.2.02-.2a1.23 1.23 0 0 0 .02-.17.97.97 0 0 0 0-.08.56.56 0 0 1 0-.04.45.45 0 0 1 .02-.17 1.13 1.13 0 0 0 .03-.19.1.1 0 0 0-.02-.06q-.03-.03-.03-.06a.44.44 0 0 0 .07-.22.22.22 0 0 0 0-.02.4.4 0 0 1 0-.04.42.42 0 0 1 .03-.15.9.9 0 0 0 .05-.2.02.02 0 0 0 0 0 .03.03 0 0 1 0-.02.1.1 0 0 1 0-.04.77.77 0 0 1 .1-.27 1.96 1.96 0 0 1 .06-.35q.04-.14 0-.3a1.58 1.58 0 0 0 .12-.25.6.6 0 0 1 .11-.06.26.26 0 0 0 .09-.06.93.93 0 0 1 .27.07q.04.03.08.03a3.81 3.81 0 0 1 0 .25.92.92 0 0 1 0 .15 11.92 11.92 0 0 1-.04.2 3.43 3.43 0 0 1-.06.17 1.01 1.01 0 0 0-.04.13l-.02.15a.32.32 0 0 1-.04.14.27.27 0 0 0-.05.17.17.17 0 0 1-.04.12q.02.22-.06.3a.2.2 0 0 1 .02.09.19.19 0 0 1-.01.06.44.44 0 0 0-.03.16l-.01.22-.01.03a.2.2 0 0 0 .03.11.1.1 0 0 1 .01.05.27.27 0 0 1-.02.1.5.5 0 0 0-.03.15.16.16 0 0 0 0 .02.35.35 0 0 0 .03.1.82.82 0 0 0-.05.2.06.06 0 0 0 0 .02.38.38 0 0 0 .03.07 1.6 1.6 0 0 0 .03.24.02.02 0 0 1 0 0 .09.09 0 0 1-.03.06 1.4 1.4 0 0 1 .03.2.04.04 0 0 1 0 .01l-.01.04q.08.23.08.28a.55.55 0 0 0 .02.13.8.8 0 0 1 .04.25 1.6 1.6 0 0 0 .15.36 2.35 2.35 0 0 0 .13.3.66.66 0 0 0 .1.15l.13.2a.14.14 0 0 0 .13.05.8.8 0 0 0 .12.13l.07.06a.76.76 0 0 0 .22.1q.04 0 0 .04a.79.79 0 0 1 .1 0 .42.42 0 0 1 .15.02l.2.08a2.25 2.25 0 0 1 .2-.02q.03 0 .05.02a.91.91 0 0 0 .29-.05 1.33 1.33 0 0 1 .08-.05.52.52 0 0 0 .22-.08l.08-.07q.1-.04.12-.08.03-.04.1-.04 0-.08.05-.1a.07.07 0 0 0 .04-.07.23.23 0 0 0 0-.05.14.14 0 0 0 .12-.1q.02-.1.11-.11.02-.1.07-.15a1.2 1.2 0 0 0 .11-.13.4.4 0 0 1 .03-.19l.07-.08a.4.4 0 0 0-.04-.2l-.02-.01q-.02-.06-.02-.14 0-.08-.06-.12.04-.15 0-.27-.08-.27-.16-.47.04-.2-.02-.38-.07-.19 0-.4a.89.89 0 0 1-.02-.17.33.33 0 0 1 .02-.12q-.02-.06 0-.11l.02-.1a4.83 4.83 0 0 0 .02-.3.66.66 0 0 0 0-.08.26.26 0 0 1 0-.03.39.39 0 0 1 .02-.14 1.11 1.11 0 0 0 .08-.38V8.9a.07.07 0 0 1 0-.01.19.19 0 0 1 .08-.13.5.5 0 0 0 .04-.15.05.05 0 0 0-.01-.04.04.04 0 0 1-.01-.02.02.02 0 0 1 .02 0 .34.34 0 0 1 .09-.12.23.23 0 0 0 .07-.14 2.17 2.17 0 0 1 .12-.08q.07-.04.07-.13a.34.34 0 0 0 .21-.16 1.64 1.64 0 0 1 .23-.03.07.07 0 0 1 .02 0h.09a1.47 1.47 0 0 1 .2-.12h0a.13.13 0 0 0 .03-.02Zm63.97 6.04-.12-.25a1 1 0 0 0-.1-.27 7.85 7.85 0 0 0-.12-.14.48.48 0 0 0-.2.07q0 .02-.03.02a.43.43 0 0 1-.16.13 2.9 2.9 0 0 0-.2.1q-.09.1-.22.17a3.03 3.03 0 0 0-.24.15q-.16.04-.2.12a.1.1 0 0 1-.08.05.11.11 0 0 1-.05-.01l-.4.13-.19.08a.71.71 0 0 0-.16-.02.1.1 0 0 0-.03 0 .6.6 0 0 1-.12.04q-.08 0-.17-.04a.2.2 0 0 0-.08-.02.12.12 0 0 0-.06.02 1.91 1.91 0 0 0-.34-.2.31.31 0 0 1-.17-.13.99.99 0 0 1-.1 0 .1.1 0 0 1-.1-.03.17.17 0 0 0-.05-.09l-.32-.32-.2-.2a.9.9 0 0 0-.12-.29.16.16 0 0 1-.04-.1.17.17 0 0 1 .03-.08 13.99 13.99 0 0 1-.12-.34q-.04-.11.04-.21a1.01 1.01 0 0 0 .02-.18.7.7 0 0 0-.03-.2.31.31 0 0 1-.01-.09.11.11 0 0 1 .08-.12.6.6 0 0 1 0-.08.29.29 0 0 1 .02-.13 1.03 1.03 0 0 1 .1-.16 1.69 1.69 0 0 0 .07-.24.18.18 0 0 1 .05-.1 1.28 1.28 0 0 0 .07-.15l.08-.15a.49.49 0 0 1 .1-.17.17.17 0 0 0 .06-.12.21.21 0 0 0 0-.04.8.8 0 0 1 .25-.22q.1-.04.14-.14.14 0 .2-.06.05-.07.19-.07a.77.77 0 0 1 .23-.18l.26-.08a.97.97 0 0 1 .2-.06.01.01 0 0 1 .01 0 .03.03 0 0 0 .02 0 .1.1 0 0 0 .04-.01 2.29 2.29 0 0 0 .19-.06 1.16 1.16 0 0 0 .08-.04.64.64 0 0 1 .13-.02.54.54 0 0 1 .06 0 .23.23 0 0 0 .03.01.23.23 0 0 0 .14-.05.75.75 0 0 0 .17.03.3.3 0 0 0 .07-.01q.09-.02.15 0l.23.04q-.04-.24 0-.24.02 0 .02-.04l-.04-.15a.2.2 0 0 1 0-.05.15.15 0 0 1 .02-.09.45.45 0 0 1-.06-.23.63.63 0 0 1 .04-.24.79.79 0 0 1-.06-.3l.01-.27a.45.45 0 0 0 .01-.1v-.1l-.02-.1a.55.55 0 0 1-.02-.14.06.06 0 0 1 0-.03l.04-.07q-.1-.27-.08-.41a1.08 1.08 0 0 0 .01-.13.22.22 0 0 0 0-.08q-.03-.04 0-.1a1 1 0 0 1 .1-.23.04.04 0 0 0 .01-.02.06.06 0 0 0-.02-.05l.06-.21a1.65 1.65 0 0 1 .05-.13.42.42 0 0 0 .03-.16q.02-.24.08-.3.06-.08.06-.17a.8.8 0 0 0 .06-.17.17.17 0 0 1 .05-.09.13.13 0 0 1-.01-.05.07.07 0 0 1 .03-.06.1.1 0 0 0 .05-.1.23.23 0 0 0 0-.04.3.3 0 0 0 .14-.12 11.43 11.43 0 0 0 .1-.17.13.13 0 0 0 .11-.04.19.19 0 0 1 .11-.06l.16-.09a.73.73 0 0 0 .07-.07 1.72 1.72 0 0 1 .3.04q.06.02.08.08a.33.33 0 0 1 .05 0 .1.1 0 0 1 .1.04.1.1 0 0 0 .1.06.29.29 0 0 0 .09.13q.03 0 .05.04a4.1 4.1 0 0 1 .1.4.19.19 0 0 0 .11.15.56.56 0 0 0 .08.21.98.98 0 0 1 .05.18v.01l-.03.05a.67.67 0 0 1 .07.2.02.02 0 0 1-.01.02q-.04.01-.04.07.04.1 0 .22a.3.3 0 0 0 0 .07.2.2 0 0 0 .04.12 1.25 1.25 0 0 0-.02.18.12.12 0 0 0 .03.1.03.03 0 0 1 .02.03.07.07 0 0 1-.05.04q.06.24.07.37v.22a.45.45 0 0 0 0 .09.22.22 0 0 0 0 .07.32.32 0 0 1 .03.1.32.32 0 0 1-.03.1v.1a.18.18 0 0 1 .04.1.19.19 0 0 1 0 .04l-.02.1a1.21 1.21 0 0 0-.04.25.08.08 0 0 0 0 .03q.02.04-.01.1a.63.63 0 0 1-.03.17l-.01.04a.87.87 0 0 1 0 .1.12.12 0 0 1-.01.08q-.03.03-.03.07a.12.12 0 0 0-.02.06.16.16 0 0 0 0 .03q.02.05.02.13a.32.32 0 0 1-.02.1q-.02.05-.02.11a.2.2 0 0 1-.1.22.39.39 0 0 1 .03.14.26.26 0 0 1 0 .03l.01.16a.41.41 0 0 0-.06.14.02.02 0 0 0 0 .02.03.03 0 0 1 .01.02.08.08 0 0 1 0 .04.13.13 0 0 0-.05.1.37.37 0 0 1-.02.1 2.15 2.15 0 0 0-.1.26 1.6 1.6 0 0 0-.05.25.03.03 0 0 0 0 0q.02.03.02.07-.1.2-.12.27a.43.43 0 0 1-.06.14 1.51 1.51 0 0 1-.05.3l-.07.2q-.02.1-.08.16a.42.42 0 0 0-.07.1.98.98 0 0 0-.05.18h0a.01.01 0 0 1 0 .01.04.04 0 0 1-.01.02q-.1.18-.09.19v.05l-.16.2q0 .17.07.23a.23.23 0 0 0 .04.14 1.53 1.53 0 0 1 .08.11q-.04.14.02.24.06.11.16.15.07.18.07.22a.08.08 0 0 0 .08.05l.2.44q.08.15.21.23l.1.1.1.07q.15.08.21.14.06-.04.13 0l.13.02.23-.1a1.76 1.76 0 0 1 0-.14.83.83 0 0 1 .02-.23.23.23 0 0 1 .25-.13.33.33 0 0 0 .13-.06q.05-.04.13 0a.26.26 0 0 0 .09.17.26.26 0 0 1 .08.06q-.07.16-.08.22a.17.17 0 0 1-.05.1.1.1 0 0 1 .02.05.08.08 0 0 1-.02.05.2.2 0 0 0-.04.13q-.06.02-.09.08a.37.37 0 0 1-.07.1q-.17.07-.23.13a2.15 2.15 0 0 0-.17.04 1.76 1.76 0 0 1-.18.04 1.15 1.15 0 0 0-.24.03.4.4 0 0 1-.08 0 .21.21 0 0 1-.13-.03A.23.23 0 0 0 85 15a.03.03 0 0 0-.01 0q-.04.02-.08-.02-.15-.08-.22-.15a.49.49 0 0 0-.17-.1.64.64 0 0 0-.25-.2.87.87 0 0 0-.26-.53.4.4 0 0 0-.11-.23Zm-34.2.49.17.04a1.07 1.07 0 0 1 .1.26.04.04 0 0 1 0 .01 1.27 1.27 0 0 1-.06.14q-.17.11-.18.08l-.05-.04-.15.15q0 .02-.05.04a.51.51 0 0 1-.12.02.53.53 0 0 1-.19-.04 2.88 2.88 0 0 0-.31-.1 2.88 2.88 0 0 1-.15-.11 1.22 1.22 0 0 0-.16-.12 1.66 1.66 0 0 0-.15-.19l-.1-.1a1.25 1.25 0 0 1-.19-.22 1.88 1.88 0 0 1-.12-.1l-.07-.07-.05-.1a.37.37 0 0 0-.07-.1.68.68 0 0 1-.12-.17 3.2 3.2 0 0 0-.11-.22.43.43 0 0 1-.03-.14 1.24 1.24 0 0 0-.03-.17l-.08-.28a1.28 1.28 0 0 1-.07-.32.24.24 0 0 1 0-.03v-.2q0-.15-.03-.18-.02-.03-.02-.07a.55.55 0 0 1-.04-.2.55.55 0 0 0-.03-.2l.02-.24a.13.13 0 0 0-.04-.1.45.45 0 0 0 0-.09.22.22 0 0 0 0-.06 1.88 1.88 0 0 1-.04-.14q-.02-.16-.01-.18V10.44l-.01-.28a1.64 1.64 0 0 1-.01-.15.21.21 0 0 1 .02-.1.06.06 0 0 0 .01-.04.11.11 0 0 0-.02-.06.82.82 0 0 0 .03-.19.03.03 0 0 0-.01-.03.4.4 0 0 1 .03-.19q.03-.04-.01-.08a.2.2 0 0 0-.12.06 1.07 1.07 0 0 1-.08.1.45.45 0 0 0-.2.06q-.01.03-.07.03a.45.45 0 0 0-.07.09.54.54 0 0 0-.05.1.43.43 0 0 0-.23.08q-.2.08-.3.1-.1.02-.15.08a.61.61 0 0 0-.2.05.47.47 0 0 1-.14.05q-.11.06-.14.02a.2.2 0 0 0-.13-.06.84.84 0 0 1-.07-.28.1.1 0 0 1 .02-.07.4.4 0 0 0 .11-.16.46.46 0 0 0 .1.01.28.28 0 0 0 .07 0 1.77 1.77 0 0 0 .16-.07q.24-.08.31-.08a.48.48 0 0 0 .18-.04l.26-.13q.17-.06.33-.22a1.1 1.1 0 0 0 .2-.14l.05-.07a.28.28 0 0 1 .09-.09.16.16 0 0 0 .07-.1.52.52 0 0 0 .14-.17.97.97 0 0 0 .05-.15q-.02-.16 0-.22a.18.18 0 0 1 .04-.11 1.44 1.44 0 0 1 0-.13.45.45 0 0 1 .02-.17q.04-.1-.02-.19l.08-.27a.62.62 0 0 0 .07-.28.57.57 0 0 0-.01-.11l.1-.3a1.88 1.88 0 0 1 .04-.13.39.39 0 0 0 .05-.15.05.05 0 0 0 0-.01l-.02-.08a.74.74 0 0 0 .13-.25.04.04 0 0 0 0-.01l.01-.1a.95.95 0 0 1 .06-.1.14.14 0 0 0 .02-.08.12.12 0 0 0 0-.04.37.37 0 0 0 .07-.1 1.1 1.1 0 0 1 .06-.12q.02-.06 0-.12a.12.12 0 0 1 0-.04.14.14 0 0 1 .02-.07.39.39 0 0 0 .13-.2.2.2 0 0 1 .05-.12 3.89 3.89 0 0 1 .1-.25q.08-.18.16-.3a.8.8 0 0 1 .05-.14.07.07 0 0 0 .01-.04.17.17 0 0 0 0-.05.48.48 0 0 0 .19-.35 1.36 1.36 0 0 1 .17-.15q.06-.04.06-.14l.28-.25a1.22 1.22 0 0 1 .17-.12.1.1 0 0 0 .06.02.13.13 0 0 0 .07-.02.51.51 0 0 0 .1-.08.32.32 0 0 1 .1.02 1.88 1.88 0 0 0 .14.04.75.75 0 0 1 .35.1.46.46 0 0 0 .16.1.98.98 0 0 0 .1.28.17.17 0 0 1 .03.1v.24a.46.46 0 0 1-.01.13.46.46 0 0 0-.02.12.62.62 0 0 1-.03.23.37.37 0 0 0-.03.14.87.87 0 0 1-.06.28 1.46 1.46 0 0 0-.09.24h0l.01.05a1.86 1.86 0 0 1-.12.23.69.69 0 0 1-.08.3q-.05.06-.07.15a1.21 1.21 0 0 1-.11.15.6.6 0 0 0-.07.09 4.06 4.06 0 0 1-.23.5 4.62 4.62 0 0 1-.12.2q-.06.08-.08.18l-.13.13-.06.04a.33.33 0 0 0-.06.15q0 .05-.02.09l-.16.12a.16.16 0 0 0-.02.1 2.2 2.2 0 0 0-.1.06.8.8 0 0 1-.11.07.12.12 0 0 1-.07.13q-.07.03-.07.12a1.06 1.06 0 0 1-.35.33q-.04.08-.09.11a.14.14 0 0 0-.05.13q-.13.06-.15.17a.31.31 0 0 0-.18.22.68.68 0 0 1-.04.21 1.51 1.51 0 0 0-.05.26.04.04 0 0 0 0 0v.08a.44.44 0 0 1 0 .08.17.17 0 0 1 0 .06 1.01 1.01 0 0 0-.05.13q.02.16.01.17v.04a1.06 1.06 0 0 1 0 .14.1.1 0 0 1 0 .03v.27l.01.23v.14a.33.33 0 0 0 .04.15.26.26 0 0 0-.02.1.26.26 0 0 0 .02.1q.04.1.04.2a1.04 1.04 0 0 1 .03.22.86.86 0 0 1 0 .1.5.5 0 0 0-.01.06.37.37 0 0 0 .06.22.4.4 0 0 0-.02.11.41.41 0 0 0 .1.26v.26q0 .07.04.19a.5.5 0 0 1 .05.18.11.11 0 0 1 0 .01v.1a1.01 1.01 0 0 0 .05.13l.02.1a.43.43 0 0 1 .12.16.67.67 0 0 0 .13.18l.13.15.06.04a.8.8 0 0 0 .07.12.8.8 0 0 1 .07.12l.09.07a.12.12 0 0 1 .05.1q.1.02.13.07a1.53 1.53 0 0 1 .08.1q.12 0 .15.03l.07.06a.61.61 0 0 0 .2-.05.2.2 0 0 1 .1-.02.89.89 0 0 1 .1 0Zm-10.94-4.03a1.9 1.9 0 0 0 .03-.3.18.18 0 0 0-.01-.09.97.97 0 0 1 .05-.14.85.85 0 0 0 .05-.17.5.5 0 0 1 .16-.06.03.03 0 0 1 .02 0l.09.06a.22.22 0 0 1 .12.08 1.44 1.44 0 0 1 .06.16q.13.11.2.14.07.03.13.03a.75.75 0 0 0 .25-.1 1.53 1.53 0 0 0 .1-.07 1.06 1.06 0 0 0 .1-.08 2.29 2.29 0 0 1 .03-.18q0-.04.03-.08a.24.24 0 0 0-.03-.12.29.29 0 0 1-.03-.15.95.95 0 0 0-.2-.47.37.37 0 0 0-.15-.13.02.02 0 0 1-.03-.02.05.05 0 0 1 0-.02.29.29 0 0 1-.19-.14.4.4 0 0 1-.21-.08.5.5 0 0 1-.08 0 .07.07 0 0 1-.06 0q-.02-.04-.08-.04-.2.1-.24.1a.12.12 0 0 0-.1.04q-.09.04-.17.17-.2.1-.2.14-.01.04-.05.08a3.95 3.95 0 0 0-.21.2.93.93 0 0 1-.13.23q-.03.02-.03.1a.2.2 0 0 0-.1.23 2.28 2.28 0 0 1-.1.24.54.54 0 0 0-.06.11q-.1.22-.07.23.02 0 .02.05a.53.53 0 0 0-.14.24 1.03 1.03 0 0 0-.04.26 2.1 2.1 0 0 0-.1.29 3.07 3.07 0 0 0-.06.2.14.14 0 0 1 .03.1.37.37 0 0 1 0 .04v.17q-.03.1 0 .19a.26.26 0 0 1 0 .06.16.16 0 0 1-.03.09 30.93 30.93 0 0 0 .06.28 1.5 1.5 0 0 1 .04.28 1.05 1.05 0 0 0 0 .13.09.09 0 0 0 0 .05q.02.02.02.06a.32.32 0 0 0-.01.09.3.3 0 0 0 .05.16 3.73 3.73 0 0 1-.03.53 3.06 3.06 0 0 0-.03.45.71.71 0 0 0 .1.27l-.22.14q-.2.1-.29.12a.4.4 0 0 0-.16-.2.27.27 0 0 0 .03-.1.3.3 0 0 0-.02-.1.25.25 0 0 1-.02-.09.23.23 0 0 1 .04-.12 1.04 1.04 0 0 1-.02-.2 1.04 1.04 0 0 0-.03-.21v-.17a.13.13 0 0 0 0-.01.1.1 0 0 0-.05-.1q.08-.15.04-.23v-.1l.01-.11q-.03-.28.02-.41a.4.4 0 0 0-.04-.19q-.03-.03-.03-.07 0-.08.02-.15.02-.08 0-.16a1.1 1.1 0 0 1-.07-.3.2.2 0 0 1 0-.02.52.52 0 0 0 0-.06.45.45 0 0 0-.01-.1 1.6 1.6 0 0 0-.03-.24l-.03-.06a2.68 2.68 0 0 0 0-.18.87.87 0 0 0-.02-.24.42.42 0 0 1-.02-.13.38.38 0 0 1 .02-.12 2.02 2.02 0 0 0-.07-.38l-.09-.14v-.31q0-.06-.03-.16a2.6 2.6 0 0 0-.1-.22.37.37 0 0 0-.06-.1.35.35 0 0 0-.04-.22q-.04-.03-.06-.07a.55.55 0 0 0-.26-.08.29.29 0 0 0-.04 0 .56.56 0 0 1-.09.01.65.65 0 0 1-.17-.02 1.13 1.13 0 0 1-.04-.24.18.18 0 0 1 .02-.09.33.33 0 0 0 .03-.16 13.32 13.32 0 0 1 .34-.11q.1-.03.23.01a1.05 1.05 0 0 1 .2.19.08.08 0 0 0 .08.03.26.26 0 0 0 .05 0 .4.4 0 0 1 .14.19 7.74 7.74 0 0 1 .13.23q.02.06.02.16.08.23.1.25l.04.04a.2.2 0 0 0 0 .05.15.15 0 0 0 .02.1.21.21 0 0 1 .04.1q-.02.1 0 .15a.45.45 0 0 1 0 .1 1.03 1.03 0 0 0 .1.3.08.08 0 0 1 .02.05.1.1 0 0 1-.02.05q.12-.13.16-.24.03-.1.03-.25a.13.13 0 0 0 .1-.11l.02-.16a.39.39 0 0 1 .1-.13q.06-.04.08-.14l.13-.19q.02-.03.02-.07a5.45 5.45 0 0 0 .2-.17l.08-.1a2.65 2.65 0 0 0 .16-.12 1.53 1.53 0 0 1 .11-.08 99.28 99.28 0 0 0 .34-.26 1.86 1.86 0 0 1 .19-.13.43.43 0 0 0 .2-.03.27.27 0 0 1 .11-.03.45.45 0 0 1 .08 0 .14.14 0 0 1 .09-.03.27.27 0 0 1 .15.07.5.5 0 0 0 .3.1q.12.14.28.22.12.07.14.11a.04.04 0 0 0 .03.03.05.05 0 0 0 .02 0 19.55 19.55 0 0 1 .19.3q.09.14.13.36a.45.45 0 0 1 .04.14.02.02 0 0 1 0 .01q-.03.02-.03.06.1.31.05.63a.35.35 0 0 1-.06.1q-.04.05-.02.13a1.53 1.53 0 0 0-.11.08q-.05.04-.09.12a.2.2 0 0 0-.12.07q-.03.04-.11.08a1.38 1.38 0 0 0-.14.1.28.28 0 0 1-.12.04.82.82 0 0 1-.1.01.11.11 0 0 1-.06-.01.06.06 0 0 0-.03-.01.08.08 0 0 0-.04.01.97.97 0 0 1-.24.05.16.16 0 0 1-.02 0 .2.2 0 0 0-.03 0 .27.27 0 0 0-.12.03.4.4 0 0 1-.23-.19.18.18 0 0 0-.16-.1.35.35 0 0 0-.08.01Zm-14.38-4.6a.61.61 0 0 0 .1-.3.14.14 0 0 1-.09-.08q0-.05-.08-.17-.04 0-.07.02a.87.87 0 0 1-.19.06q-.04.04-.07.04a.75.75 0 0 0-.18.21 4.34 4.34 0 0 0-.06.37.86.86 0 0 1-.13.17.2.2 0 0 0-.05.14.4.4 0 0 0 0 .06q-.05.02-.05.07t-.1.19v.05h0a.6.6 0 0 1-.1.18.05.05 0 0 1 .03.05.1.1 0 0 1 0 .02 2.9 2.9 0 0 1-.05.18.17.17 0 0 0 0 .06.07.07 0 0 0 0 .03.04.04 0 0 1 0 .02.57.57 0 0 1-.04.17 4.74 4.74 0 0 0-.06.18q-.02.07-.27.19a.52.52 0 0 1-.16.03.63.63 0 0 1-.1-.01.36.36 0 0 0-.05 0 .13.13 0 0 0-.12.06 5.72 5.72 0 0 1-.23.03l-.2-.01q-.06.08-.18.08a.76.76 0 0 0-.23.05.3.3 0 0 0-.02.1.15.15 0 0 0 .03.09l.17.24q.15.04.26.01l.3-.09a1.78 1.78 0 0 1 .14-.02.17.17 0 0 0 .1-.05.14.14 0 0 0 .1.04.21.21 0 0 0 .1-.02.49.49 0 0 1 .2-.06.28.28 0 0 1 .02.06.45.45 0 0 1-.02.12.68.68 0 0 0-.03.17v.02q.02 0-.04.23a.09.09 0 0 0-.03.07.06.06 0 0 0 0 .01v.18a.27.27 0 0 1 .03.12v.13a.96.96 0 0 1-.03.24.31.31 0 0 0-.01.07.27.27 0 0 0 .04.14.38.38 0 0 0-.03.12 1.12 1.12 0 0 0-.01.13v.04q.02.02 0 .24a1.78 1.78 0 0 0-.03.13v.12a4.26 4.26 0 0 0 0 .29 1.93 1.93 0 0 0 .03.24l-.01.1a.55.55 0 0 0-.01.11l.02.22q.02.12.08.31a.32.32 0 0 0-.02.1.3.3 0 0 0 .03.13.38.38 0 0 1 .03.16.4.4 0 0 1 0 .06l.02.04q.02.02.1.25a.33.33 0 0 1 .02.13.22.22 0 0 1 0 .05q-.03.08 0 .18a.46.46 0 0 0 .1.15.18.18 0 0 1 .04.13.45.45 0 0 1-.01.07q.1.07.1.2t.08.32l.07.05a.26.26 0 0 1 .04.2q.08.09.16.14.08.06.27.26a.84.84 0 0 1 .43.2q.02.05.07.07a.63.63 0 0 1 .17.16.32.32 0 0 1 .06 0 .25.25 0 0 1 .11.02.06.06 0 0 0 .03 0 .41.41 0 0 0 .23-.18l.06.01q.05.01.25-.13-.06 0-.07-.06v-.15a.33.33 0 0 1-.13-.05l-.07-.07a.24.24 0 0 0-.1-.06.08.08 0 0 0-.03 0 .23.23 0 0 0-.13.06q-.15-.11-.35-.17a.1.1 0 0 0-.06-.12.57.57 0 0 1-.17-.14q.02 0-.16-.2a2.23 2.23 0 0 1-.1-.15.24.24 0 0 1-.04-.13.39.39 0 0 1 0-.06 4.34 4.34 0 0 0-.09-.17 1.62 1.62 0 0 1-.08-.19.37.37 0 0 1-.02-.11q0-.06-.08-.22a.38.38 0 0 1-.03-.13.2.2 0 0 1 0-.03q.01-.07-.09-.35a.22.22 0 0 1-.02-.1.13.13 0 0 1 0-.03.32.32 0 0 0 .02-.1 7.53 7.53 0 0 0-.07-.17.97.97 0 0 1-.04-.14v-.13q.02-.05 0-.1a.46.46 0 0 0-.02-.13 1.66 1.66 0 0 1-.04-.2v-.37q.02-.05 0-.24a.85.85 0 0 1 .02-.19 1.75 1.75 0 0 0 .02-.32.82.82 0 0 1-.02-.14l-.02-.12a.04.04 0 0 1 .03-.05.07.07 0 0 1 .01 0 .03.03 0 0 0 .01 0l.01-.01a.47.47 0 0 0-.04-.15.36.36 0 0 0 .02-.14.43.43 0 0 0-.02-.15.15.15 0 0 0 .06-.11.36.36 0 0 1 .03-.1.65.65 0 0 1 .01-.14l.1-.22q-.05-.1-.02-.19a.65.65 0 0 0 .03-.2q.06-.06.18-.07a11.04 11.04 0 0 0 .29-.03 1.11 1.11 0 0 1 .29-.04.66.66 0 0 1 .08 0 6.9 6.9 0 0 1 .37.06q.06.12.41 0a.48.48 0 0 1 .15-.1.1.1 0 0 0 .04-.1.8.8 0 0 0-.03-.2.72.72 0 0 1-.18-.14.14.14 0 0 1-.1.03.37.37 0 0 1-.03 0q-.1-.02-.12-.06a.1.1 0 0 1-.08.07.33.33 0 0 1-.05 0 1.76 1.76 0 0 1-.18 0q-.08-.03-.41 0a.85.85 0 0 0-.19.01.3.3 0 0 1-.07.01.75.75 0 0 1-.17-.03 1.09 1.09 0 0 1-.01-.13 1.76 1.76 0 0 1 .02-.24 3.5 3.5 0 0 1 .06-.37q.02-.04.05-.06a.23.23 0 0 0 .03-.15q.06-.06.14-.24a.12.12 0 0 0 .01-.05.16.16 0 0 0 0-.04.03.03 0 0 1 0 0 .62.62 0 0 1 .14-.24.58.58 0 0 1 0-.07.2.2 0 0 1 .04-.14Zm4.13 0a.61.61 0 0 0 .1-.3.14.14 0 0 1-.1-.08q0-.05-.08-.17-.04 0-.07.02a.87.87 0 0 1-.19.06q-.04.04-.07.04a.75.75 0 0 0-.18.21 4.34 4.34 0 0 0-.06.37.86.86 0 0 1-.13.17.2.2 0 0 0-.05.14.4.4 0 0 0 0 .06q-.05.02-.05.07t-.1.19v.05h.01a.6.6 0 0 1-.1.18.05.05 0 0 1 .02.05.1.1 0 0 1 0 .02 2.9 2.9 0 0 1-.05.18.17.17 0 0 0 0 .06.07.07 0 0 0 0 .03.04.04 0 0 1 0 .02.57.57 0 0 1-.04.17 4.74 4.74 0 0 0-.06.18q-.02.07-.27.19a.52.52 0 0 1-.16.03.63.63 0 0 1-.1-.01.36.36 0 0 0-.04 0 .13.13 0 0 0-.13.06 5.72 5.72 0 0 1-.23.03l-.2-.01q-.06.08-.18.08a.76.76 0 0 0-.23.05.3.3 0 0 0-.02.1.15.15 0 0 0 .03.09l.17.24q.15.04.26.01l.3-.09a1.78 1.78 0 0 1 .14-.02.17.17 0 0 0 .1-.05.14.14 0 0 0 .1.04.21.21 0 0 0 .1-.02.49.49 0 0 1 .2-.06.28.28 0 0 1 .02.06.45.45 0 0 1-.02.12.68.68 0 0 0-.03.17v.02q.02 0-.04.23a.09.09 0 0 0-.03.07.06.06 0 0 0 0 .01l.01.18a.27.27 0 0 1 .02.12v.13a.96.96 0 0 1-.03.24.31.31 0 0 0 0 .07.27.27 0 0 0 .03.14.38.38 0 0 0-.03.12 1.12 1.12 0 0 0 0 .13V10.1a1.78 1.78 0 0 0-.04.13v.12a4.26 4.26 0 0 0 0 .29 1.93 1.93 0 0 0 .03.24v.1a.55.55 0 0 0-.02.11l.02.22q.02.12.08.31a.32.32 0 0 0-.02.1.3.3 0 0 0 .03.13.38.38 0 0 1 .03.16.4.4 0 0 1 0 .06l.02.04q.02.02.1.25a.33.33 0 0 1 .02.13.22.22 0 0 1 0 .05q-.02.08 0 .18a.46.46 0 0 0 .1.15.18.18 0 0 1 .04.13.45.45 0 0 1 0 .07q.09.07.09.2t.08.32l.07.05a.26.26 0 0 1 .04.2q.08.09.16.14.08.06.27.26a.84.84 0 0 1 .43.2q.02.05.07.07a.63.63 0 0 1 .17.16.32.32 0 0 1 .06 0 .25.25 0 0 1 .11.02.06.06 0 0 0 .03 0 .41.41 0 0 0 .23-.18l.07.01q.05.01.24-.13-.06 0-.07-.06v-.15a.33.33 0 0 1-.13-.05l-.07-.07a.24.24 0 0 0-.1-.06.08.08 0 0 0-.03 0 .23.23 0 0 0-.13.06q-.15-.11-.35-.17a.1.1 0 0 0-.06-.12.57.57 0 0 1-.17-.14q.02 0-.16-.2a2.23 2.23 0 0 1-.1-.15.24.24 0 0 1-.04-.13.39.39 0 0 1 0-.06 4.34 4.34 0 0 0-.08-.17 1.62 1.62 0 0 1-.1-.19.37.37 0 0 1-.01-.11q0-.06-.08-.22a.38.38 0 0 1-.03-.13.2.2 0 0 1 0-.03q.01-.07-.09-.35a.22.22 0 0 1-.02-.1.13.13 0 0 1 0-.03.32.32 0 0 0 .02-.1 7.53 7.53 0 0 0-.07-.17.97.97 0 0 1-.04-.14v-.13q.02-.05 0-.1a.46.46 0 0 0-.02-.13 1.66 1.66 0 0 1-.04-.2v-.37q.02-.05 0-.24a.85.85 0 0 1 .02-.19 1.75 1.75 0 0 0 .02-.32.82.82 0 0 1-.02-.14l-.02-.12a.04.04 0 0 1 .03-.05.07.07 0 0 1 .02 0 .03.03 0 0 0 0 0l.02-.01a.47.47 0 0 0-.05-.15.36.36 0 0 0 .03-.14.43.43 0 0 0-.03-.15.15.15 0 0 0 .07-.11.36.36 0 0 1 .02-.1.65.65 0 0 1 .02-.14q0-.04.08-.22-.04-.1 0-.19a.65.65 0 0 0 .02-.2q.06-.06.18-.07a11.04 11.04 0 0 0 .3-.03 1.11 1.11 0 0 1 .28-.04.66.66 0 0 1 .08 0 6.9 6.9 0 0 1 .37.06q.06.12.41 0a.48.48 0 0 1 .15-.1.1.1 0 0 0 .05-.1.8.8 0 0 0-.04-.2.72.72 0 0 1-.18-.14.14.14 0 0 1-.1.03.37.37 0 0 1-.03 0q-.1-.02-.12-.06a.1.1 0 0 1-.08.07.33.33 0 0 1-.05 0 1.76 1.76 0 0 1-.18 0q-.08-.03-.41 0a.85.85 0 0 0-.19.01.3.3 0 0 1-.07.01.75.75 0 0 1-.17-.03 1.09 1.09 0 0 1-.01-.13 1.76 1.76 0 0 1 .02-.24 3.5 3.5 0 0 1 .07-.37l.04-.06a.23.23 0 0 0 .03-.15q.06-.06.14-.24a.12.12 0 0 0 .01-.05.16.16 0 0 0 0-.04.03.03 0 0 1 0 0 .62.62 0 0 1 .15-.24.58.58 0 0 1 0-.07.2.2 0 0 1 .04-.14ZM4.65 4.4l-.1.24a.37.37 0 0 0-.07.1.17.17 0 0 0-.02.07.24.24 0 0 0 .01.06l-.1.2q-.07.17-.11.21a.06.06 0 0 0-.02.05.1.1 0 0 0 .02.05l-.12.3q-.14.2-.16.27-.04.06 0 .15-.05.2-.08.22-.03.02-.05.06a.55.55 0 0 1 0 .1.18.18 0 0 1-.08.17q.04.16 0 .26a2.02 2.02 0 0 0-.04.25.72.72 0 0 0-.05.17 1.32 1.32 0 0 1-.03.16.6.6 0 0 0-.06.19.12.12 0 0 1-.03.08.21.21 0 0 1 .03.12q0 .06.04.16a.15.15 0 0 0-.04.1.24.24 0 0 0 0 .05.19.19 0 0 1 0 .04.1.1 0 0 1-.05.1q-.04.21-.02.28a.19.19 0 0 1 .02.08.08.08 0 0 1 0 .03q.02.18 0 .23a.14.14 0 0 0-.01.05.31.31 0 0 0 .03.11l-.08.2a.24.24 0 0 0-.02.1l.03.28a.18.18 0 0 1 0 .02.11.11 0 0 1-.03.08.83.83 0 0 0 .05.27.2.2 0 0 1 .03.1l-.06.22a.67.67 0 0 0-.01.1.1.1 0 0 0 .02.07l.04.06a.54.54 0 0 0-.05.2.07.07 0 0 0 0 .03.17.17 0 0 1 .04.09.66.66 0 0 0 .02.22q.02.03.02.07l.01.18q0 .07.02.13v.15q-.02.05 0 .1a.63.63 0 0 0 .08.28.24.24 0 0 0-.02.1.14.14 0 0 0 .04.12q0 .17.02.18.02.01.02.05a.49.49 0 0 0-.02.13.44.44 0 0 0 .02.13l.08.29-.01.11a.24.24 0 0 0 0 .04.25.25 0 0 0 0 .08l.14.38a8.14 8.14 0 0 1 .08.32q.06.04.06.11a.22.22 0 0 0 .04.13.48.48 0 0 0 .09.13.12.12 0 0 1 .03.08.17.17 0 0 1 0 .04.27.27 0 0 1 .13.17 1.9 1.9 0 0 0 .06.2.32.32 0 0 1 .16.24l.09.08.09.07q.13.14.17.16a7.66 7.66 0 0 0 .3.15.21.21 0 0 0 .09.01.25.25 0 0 0 .06 0q.1-.02.17-.1a.14.14 0 0 1 .08-.04.04.04 0 0 1 .02 0q.16-.08.2-.12.06-.04.12-.02a.32.32 0 0 0 .17-.2.87.87 0 0 1 .18-.15q.02 0 .06-.04a1.91 1.91 0 0 0 .14-.31.24.24 0 0 1 .1-.14l.01-.18a.02.02 0 0 0 .01-.02.08.08 0 0 0 0-.03l.06-.15L6.7 14l.08-.07.08-.08.01-.19q.02 0 .04-.03a.48.48 0 0 1 .14-.35.4.4 0 0 0-.02-.17l-.02-.04a.35.35 0 0 1 .07-.16.12.12 0 0 0 .03-.08.21.21 0 0 0-.02-.08q.06-.04.06-.1v-.17a4.89 4.89 0 0 1 .07-.35.96.96 0 0 0 .03-.24v-.16q0-.03.04-.07a.3.3 0 0 1-.03-.1.1.1 0 0 1 0-.05.9.9 0 0 0 .04-.14v-.25l.02-.08a.4.4 0 0 0 0-.07 1.24 1.24 0 0 0-.04-.29l.02-.35v-.12a.12.12 0 0 0 .01-.03.14.14 0 0 0-.02-.08.16.16 0 0 0 .03-.09.1.1 0 0 0 0-.02l-.02-.1a.42.42 0 0 0-.05-.22.26.26 0 0 0 .03-.11.1.1 0 0 0-.02-.07l-.07-.1a1.5 1.5 0 0 0-.1-.32.15.15 0 0 1-.02-.07.24.24 0 0 1 .02-.1.1.1 0 0 1-.05-.08.13.13 0 0 1 0-.02l.01-.1a.83.83 0 0 1-.04-.2.37.37 0 0 0-.02-.12q-.06-.24-.08-.26-.02-.01-.02-.03a.6.6 0 0 0-.03-.26.4.4 0 0 0-.04-.2l-.02-.01a.6.6 0 0 1-.1-.22.05.05 0 0 1 0 0l.02-.11q-.08-.16-.09-.24a.72.72 0 0 0-.03-.14.5.5 0 0 1-.05-.13.3.3 0 0 0-.05-.12 1.38 1.38 0 0 0-.1-.22.5.5 0 0 1-.05-.25q-.12-.1-.14-.22a1.23 1.23 0 0 0-.1-.3.68.68 0 0 1-.12-.22l-.01-.1a.14.14 0 0 1-.07-.09.3.3 0 0 0-.05-.1.95.95 0 0 0-.06-.1.64.64 0 0 0-.08-.1q-.08-.13-.13-.27a1.4 1.4 0 0 0-.1-.15.51.51 0 0 1-.06-.09 3.84 3.84 0 0 1-.14-.26.26.26 0 0 0-.06-.09.72.72 0 0 1-.15-.15l-.02-.06a.59.59 0 0 0-.17.1q-.07.05-.07.15a.79.79 0 0 0-.15.2q0 .04-.02.07Zm26.64 6.14-.2.02a.15.15 0 0 0-.08.11 1.12 1.12 0 0 0-.01.14.81.81 0 0 0-.07.28.17.17 0 0 0 .03.11q-.06.16-.02.43.02.14.07.26a2.44 2.44 0 0 1 .08.29l.1.15q.02.08.08.16t.08.14a.12.12 0 0 0 .1.07l.11.24a.9.9 0 0 1 .24.2.06.06 0 0 0 .06.04.26.26 0 0 0 .05 0 .14.14 0 0 0 .11.08.14.14 0 0 1 .1.09 1.02 1.02 0 0 1 .3.1.48.48 0 0 0 .24.06 1 1 0 0 0 .1 0 37.43 37.43 0 0 1 .3.04.8.8 0 0 1 .16.05.71.71 0 0 0 .18-.04.17.17 0 0 1 .08-.02 1.43 1.43 0 0 0 .13.01.39.39 0 0 0 .16-.02.43.43 0 0 1 .2-.04.3.3 0 0 1 .15-.11.04.04 0 0 1 .01 0 .07.07 0 0 0 .01 0q.03 0 .03-.02a.1.1 0 0 0-.01-.03q.1 0 .15-.07a.32.32 0 0 1 .16-.1l.15-.17a.15.15 0 0 1 .1-.05 2.83 2.83 0 0 1 .22-.04q.12.18.08.23-.04.06-.02.2a.54.54 0 0 0-.16.14 2.06 2.06 0 0 0-.11.17.23.23 0 0 0-.15.04.33.33 0 0 1-.13.06q-.23.12-.29.18a.15.15 0 0 1-.11.04.24.24 0 0 1-.05 0q-.23.1-.34.11a1.64 1.64 0 0 0-.22.06h-.31l-.24-.02a.75.75 0 0 1-.28-.04.88.88 0 0 0-.19-.06.54.54 0 0 1-.12.02.06.06 0 0 1-.05-.02q-.02-.04-.04-.04l-.24-.06a.06.06 0 0 1-.06-.05.92.92 0 0 1-.16-.07.5.5 0 0 0-.17-.05l-.15-.16q-.04-.07-.11-.1t-.1-.11a.42.42 0 0 1-.17-.15.01.01 0 0 1 0 0 5.95 5.95 0 0 1-.2-.21.6.6 0 0 1-.13-.27q-.07-.05-.15-.21-.06-.08-.06-.13t-.02-.09a.8.8 0 0 1-.05-.23.24.24 0 0 1 0-.03.22.22 0 0 0 0-.02.12.12 0 0 0-.05-.1.31.31 0 0 0 0-.07.17.17 0 0 0-.02-.1l-.08-.1a.28.28 0 0 0 .04-.16.41.41 0 0 0 0-.08.44.44 0 0 1-.02-.1.57.57 0 0 1 .04-.2q.04-.27.02-.34t0-.13q.08-.2.09-.26a1.46 1.46 0 0 1 .03-.15 1.46 1.46 0 0 1-.02-.2.19.19 0 0 1 .03-.12l.1-.1a.87.87 0 0 0 .22-.08.22.22 0 0 0 .12-.22q.11-.08.18-.17.07-.1.17-.2.2-.2.23-.25a1.9 1.9 0 0 1 .2-.07.27.27 0 0 0 .18-.13.5.5 0 0 0 .15-.02.5.5 0 0 0 .12-.06q.15-.13.2-.15a.26.26 0 0 0 .1-.06.26.26 0 0 0 .04 0 .08.08 0 0 0 .08-.03q.03-.05.09-.07a.86.86 0 0 0 .29-.03.3.3 0 0 1 .13-.03 62.53 62.53 0 0 1 .46-.03 5.2 5.2 0 0 1 .3 0 .17.17 0 0 0 .13.03.26.26 0 0 1 .15.04.2.2 0 0 1 .12.05q.02.03.1.03.04.06.1.1.07.04.11.1a1.02 1.02 0 0 0 .12.29.24.24 0 0 1 .06.1.51.51 0 0 1-.04.2q-.02.01-.02.03a.35.35 0 0 1-.05.17.04.04 0 0 0-.01.02.06.06 0 0 0 .02.04l-.08.1a.15.15 0 0 0-.03.09.43.43 0 0 0 .01.07.96.96 0 0 1-.2.18q-.07.05-.11.1a1.2 1.2 0 0 1-.22.1.24.24 0 0 1-.1.1.24.24 0 0 0-.11.08 1.98 1.98 0 0 1-.47.15.91.91 0 0 0-.35.13.42.42 0 0 0-.1-.02.05.05 0 0 0-.06.02q-.02.04-.06.04a.63.63 0 0 0-.09-.01.52.52 0 0 0-.16.03l-.12.04a.13.13 0 0 1-.04 0 .22.22 0 0 1-.1-.02 1.08 1.08 0 0 0-.34.04.32.32 0 0 1-.1.02.12.12 0 0 1-.1-.04.27.27 0 0 1-.1.01.35.35 0 0 1-.12-.02 3.9 3.9 0 0 1-.21-.07Zm46.87 4.1h.2a.45.45 0 0 1 .12-.16l.08-.04a.5.5 0 0 1 .1-.23q-.16-.1-.15-.06a.03.03 0 0 1 0 0q0 .04-.07.02a.17.17 0 0 1-.14-.05.17.17 0 0 0-.14-.05.34.34 0 0 1-.02-.12.27.27 0 0 1 0-.06 1.06 1.06 0 0 0 .02-.23 2.2 2.2 0 0 0 .24-.13l.06-.04a1.66 1.66 0 0 1 .13-.01.27.27 0 0 1 .15.03.08.08 0 0 0 .05.02.06.06 0 0 0 .04-.02q.06.11.15.17a1.03 1.03 0 0 1 .2.16 1.69 1.69 0 0 1 .03.22.04.04 0 0 1 0 .01l-.01.06q.04.2 0 .31a.62.62 0 0 1-.12.29.09.09 0 0 0-.03.07.13.13 0 0 0 .01.05.87.87 0 0 0-.15.08.29.29 0 0 0-.1.14.78.78 0 0 0-.2.07 2.58 2.58 0 0 1-.2.08H78a.22.22 0 0 1-.1-.02 1.89 1.89 0 0 1-.16-.08 5.6 5.6 0 0 1-.13-.1l-.11-.1a.48.48 0 0 0-.13-.09q-.02-.07-.06-.13a.7.7 0 0 1-.1-.14 2.17 2.17 0 0 1-.07-.13.51.51 0 0 0-.08-.1.45.45 0 0 0-.04-.19 1.7 1.7 0 0 1-.06-.15l-.02-.18v-.19l-.04-.11a.12.12 0 0 1 0-.04.14.14 0 0 1 .02-.08.26.26 0 0 1-.06-.14.06.06 0 0 1 0 0 .07.07 0 0 0 0-.02.1.1 0 0 0-.05-.08q0-.25.08-.4v-.11l.02-.11a.24.24 0 0 0-.05-.14.14.14 0 0 1-.02-.08.12.12 0 0 1 0-.03.29.29 0 0 1 .05-.15 2.17 2.17 0 0 1 .07-.13q-.02-.3-.06-.47a.39.39 0 0 1-.02-.1.45.45 0 0 1 .08-.25.89.89 0 0 1 0-.13.36.36 0 0 1 .06-.24 3.16 3.16 0 0 1-.06-.25q-.04-.14 0-.3a.37.37 0 0 1 .02-.11l.04-.12v-.15a.18.18 0 0 1-.01-.02.11.11 0 0 1 .03-.08.7.7 0 0 1-.04-.25A1.2 1.2 0 0 1 77 9.4q.03-.24 0-.4a.24.24 0 0 0-.07-.1.2.2 0 0 1-.04-.13.6.6 0 0 1-.13-.04.6.6 0 0 0-.12-.04q-.16.08-.2.14a1.37 1.37 0 0 0-.1.12.77.77 0 0 1-.23.05.15.15 0 0 1-.05 0 .67.67 0 0 1-.14-.07q-.04-.12-.02-.19a.86.86 0 0 1 .06-.15l.16-.07q.07-.04.1-.14a3 3 0 0 0 .14-.08q.07-.04.1-.1a.55.55 0 0 0 .18.03.5.5 0 0 0 .17-.03.28.28 0 0 1 .09-.01.2.2 0 0 1 .17.1.4.4 0 0 1 .18.06q.02.03.06.03a.41.41 0 0 0 .13.2 1.36 1.36 0 0 1 .06.32.12.12 0 0 1-.02.08.34.34 0 0 0 .06.22q.04.02.02.12a.83.83 0 0 1 .05.21.04.04 0 0 1-.01.04.04.04 0 0 0-.02.04.15.15 0 0 0 .02.06.4.4 0 0 0-.07.15.02.02 0 0 0 0 .01q.05.01.03.05-.04.18.04.37a.73.73 0 0 0-.04.27q0 .16-.06.3a1.27 1.27 0 0 1 0 .1.15.15 0 0 1-.04.15 1.85 1.85 0 0 1 .03.3 1.6 1.6 0 0 1-.01.15.95.95 0 0 0 0 .09 1 1 0 0 0 .06.34.4.4 0 0 0-.04.24.85.85 0 0 1-.02.18.85.85 0 0 0-.02.19l.01.23a.06.06 0 0 1 0 .02.09.09 0 0 1-.03.06.5.5 0 0 1 .03.16.22.22 0 0 1-.03.12q.06.11.06.26a1.61 1.61 0 0 0 .02.26q.06.16.06.26.1.25.15.3.06.05.08.14l.08.07a.33.33 0 0 0 .12.05l.08.08.07.08Zm5.59-3.32.16.15a1.21 1.21 0 0 0 .03-.29q.08-.21.13-.23a.06.06 0 0 0 .04-.07.26.26 0 0 0 0-.05.22.22 0 0 0 .09-.2 1.27 1.27 0 0 0-.02-.25 1.13 1.13 0 0 0 .15-.37q0-.12.08-.2a1.01 1.01 0 0 1-.02-.25.51.51 0 0 1 .06-.09.17.17 0 0 0 .04-.1.45.45 0 0 0 .03-.17.56.56 0 0 0 0-.05v-.21a.85.85 0 0 1 .04-.17q.03-.07 0-.15a.56.56 0 0 0 .03-.17.06.06 0 0 0 0-.02q-.02-.04-.02-.1a.59.59 0 0 0 .07-.18.03.03 0 0 0 0 0l-.01-.07a1.1 1.1 0 0 0 .07-.31.24.24 0 0 0 0-.03l-.01-.17a.82.82 0 0 0 0-.11.15.15 0 0 0 0-.07q-.02-.04 0-.08l-.02-.27q0-.14-.02-.17a.17.17 0 0 1-.02-.08.1.1 0 0 0 .03-.08.25.25 0 0 0-.01-.05.25.25 0 0 1 0-.05.1.1 0 0 1 .02-.08q-.08-.05-.08-.21a.32.32 0 0 1-.06-.2.57.57 0 0 0-.04-.21q.1-.1.06-.22a6.14 6.14 0 0 1-.08-.25l.01-.18v-.1a1.76 1.76 0 0 1-.13-.2q-.01-.03-.05-.05a.47.47 0 0 0 0-.06.16.16 0 0 0-.06-.14q-.08-.05-.16-.13a.18.18 0 0 0-.11.09q-.04.07-.1.1a1.07 1.07 0 0 0-.06.14.24.24 0 0 1-.06.1.18.18 0 0 1-.06.15.07.07 0 0 0-.03.05.12.12 0 0 0 .03.07 1.2 1.2 0 0 1-.12.25.33.33 0 0 0-.05.12.35.35 0 0 0-.04.16l-.02.18a1.08 1.08 0 0 0-.1.21.3.3 0 0 0-.02.1.31.31 0 0 0 .04.14.34.34 0 0 0-.03.12.27.27 0 0 0 0 .06.2.2 0 0 1 .01.04.2.2 0 0 1-.04.13.41.41 0 0 1 .03.11.05.05 0 0 1-.01.03q-.02.03-.02.07l.02.32a2.6 2.6 0 0 1 .02.3 1.53 1.53 0 0 0 0 .15 1.16 1.16 0 0 0 .02.25.73.73 0 0 1 .02.15.32.32 0 0 1-.02.12.84.84 0 0 1 .04.19.12.12 0 0 1-.04.08 1.3 1.3 0 0 0 .06.18q.02.04-.02.12a.93.93 0 0 0 .07.22 2.7 2.7 0 0 0 .07.11q.07.23.18.3a12.63 12.63 0 0 1 .23.15.7.7 0 0 1 .04.19.06.06 0 0 1 0 .02l-.03.06a1.06 1.06 0 0 1-.08.08 1.53 1.53 0 0 1-.11.08.37.37 0 0 0-.23.1.38.38 0 0 0-.04.13.2.2 0 0 0 0 .03.48.48 0 0 0 .05.15 1.77 1.77 0 0 1 .06.16.13.13 0 0 1 0 .04.19.19 0 0 1-.04.11q.08.24.13.33a.31.31 0 0 1 .04.14.28.28 0 0 1-.01.06Zm-.55 1.27.02-.04.07-.08a10.54 10.54 0 0 0 .13-.16 4.44 4.44 0 0 0-.09-.27.53.53 0 0 1-.03-.17.3.3 0 0 1 0-.06.43.43 0 0 1-.06-.14.43.43 0 0 0-.06-.14 2.25 2.25 0 0 1-.03-.26.1.1 0 0 1 0-.03v-.08a1.54 1.54 0 0 0-.05-.18.58.58 0 0 1-.03-.19v-.21l-.05-.25-.01-.14a.34.34 0 0 1-.06-.18l-.02-.27a.25.25 0 0 1-.06 0 .21.21 0 0 1-.09-.01.16.16 0 0 0-.06-.02.28.28 0 0 0-.1.03.45.45 0 0 1-.15-.05.32.32 0 0 0-.12-.04.06.06 0 0 0-.03 0 2.63 2.63 0 0 0-.3.1 1.32 1.32 0 0 0-.24.1q-.08-.04-.12 0a.06.06 0 0 1-.04 0 .11.11 0 0 1-.06-.02q-.08.06-.21.08a.39.39 0 0 1-.16.12.02.02 0 0 1 0 0 .2.2 0 0 0-.12-.02l-.11.12q-.06.06-.16.07a.3.3 0 0 1-.17.18q0 .1-.07.16a.28.28 0 0 0-.1.11.45.45 0 0 0-.05.13.17.17 0 0 1-.1.1q.02.15-.08.23a.47.47 0 0 0-.13.25.9.9 0 0 1-.04.32.41.41 0 0 0-.04.17 2.65 2.65 0 0 1 .03.36 1.08 1.08 0 0 1 0 .07 1 1 0 0 0 0 .06 1.03 1.03 0 0 0 .03.25l.08.08.07.07q.04.12.1.14.04.02.04.06a.67.67 0 0 0 .1.21.33.33 0 0 0 .12.07.33.33 0 0 1 .11.07.77.77 0 0 1 .36.22.42.42 0 0 1 .16.03l.13.02q.13.02.25 0a11.1 11.1 0 0 1 .26-.03q.1-.06.13-.1a.51.51 0 0 1 .08-.04.79.79 0 0 0 .24-.08.44.44 0 0 1 .15-.06.77.77 0 0 1 .35-.2.2.2 0 0 1 .08-.13q.06-.04.1-.12a.5.5 0 0 0 .15-.12.45.45 0 0 1 .06-.1ZM49.82 3.46a.32.32 0 0 0-.18.14.02.02 0 0 0 0 0 .09.09 0 0 1 0 .02l-.01.02a.04.04 0 0 1-.02 0 .34.34 0 0 0-.19.14 1.01 1.01 0 0 0-.1.22 2.4 2.4 0 0 1-.22.26q-.02.13-.08.21-.05.08-.08.22a1.25 1.25 0 0 1-.11.22l-.08.13q-.08.17-.1.27a4.37 4.37 0 0 0-.04.24.54.54 0 0 0-.13.26 28.24 28.24 0 0 0-.08.34.16.16 0 0 0-.1.15 1.94 1.94 0 0 1-.04.2q-.06.08-.07.16a.2.2 0 0 1-.04.12.25.25 0 0 1 .01.1.18.18 0 0 1-.01.07 1.07 1.07 0 0 0-.06.14 1.95 1.95 0 0 0-.04.24.38.38 0 0 1-.05.19.04.04 0 0 0-.02.03.06.06 0 0 0 0 .03.36.36 0 0 1 .04.1.18.18 0 0 0 .05.11q.2-.17.23-.22a.35.35 0 0 0 .06-.1 3.65 3.65 0 0 1 .24-.21q.07-.05.1-.17a.68.68 0 0 0 .13-.17 1.96 1.96 0 0 0 .04-.1l.16-.17.03-.05a1.24 1.24 0 0 0 .16-.21l.02-.04a1.51 1.51 0 0 0 .13-.24q0-.02.04-.04.04-.21.18-.33a.29.29 0 0 1 .03-.14.45.45 0 0 1 .07-.1 1.74 1.74 0 0 0 .12-.35.56.56 0 0 1 .11-.25.83.83 0 0 0 .04-.2.57.57 0 0 1 .02-.13q.1-.14.09-.22a.54.54 0 0 1 0-.06.64.64 0 0 1 0-.13q.09-.27.09-.37a.9.9 0 0 0-.05-.12.17.17 0 0 1-.02-.07.24.24 0 0 1 0-.06.2.2 0 0 0-.11-.05 1.32 1.32 0 0 1-.16-.03ZM62.6 2.23l-.18-.16a1.01 1.01 0 0 1-.1.19 1.01 1.01 0 0 0-.1.18.23.23 0 0 1-.02.16q-.03.02 0 .06a1.06 1.06 0 0 1-.05.3 1.02 1.02 0 0 0-.06.17q0 .05.03.12.03.07.03.13a1.56 1.56 0 0 0-.03.19h0l.03.04a.32.32 0 0 1-.02.1q-.02.06 0 .14a3.87 3.87 0 0 0 .06.49.47.47 0 0 0 .02.2q.02.01.02.03a1.52 1.52 0 0 1 .06.36.38.38 0 0 1 0 .06q-.02.13 0 .22l.02.12a.37.37 0 0 1 .03.12l.12.21a.86.86 0 0 1 .02.13.54.54 0 0 0 .02.1l.23.15a1.53 1.53 0 0 1 .25.1.19.19 0 0 0 .1.02.21.21 0 0 0 .05 0 .13.13 0 0 0 .1-.05.1.1 0 0 1 .06-.02.2.2 0 0 1 .05 0l.14-.21a2.75 2.75 0 0 1 .1-.17l.01-.05a1.03 1.03 0 0 0 .1-.35q.06-.07.06-.21a.63.63 0 0 0-.04-.24.33.33 0 0 0 .06-.25.89.89 0 0 0-.1-.35.47.47 0 0 1-.06-.27.84.84 0 0 1-.04-.22l-.07-.17a3 3 0 0 1-.08-.14.88.88 0 0 0 0-.1.16.16 0 0 0-.01-.1.09.09 0 0 1-.02-.05.14.14 0 0 1 0-.05.68.68 0 0 0-.09-.2l-.1-.1-.11-.26-.04-.08a.37.37 0 0 0-.1-.07.37.37 0 0 1-.1-.07.38.38 0 0 0-.18-.14.03.03 0 0 0 0 0l-.07-.01ZM33.67 8.7a1.16 1.16 0 0 0 .33.14.24.24 0 0 1 .1.1.1.1 0 0 0 .1.07.32.32 0 0 0-.03.12.18.18 0 0 0 .01.05.06.06 0 0 1 0 .02.39.39 0 0 1-.14.2.16.16 0 0 1-.06.11 2.13 2.13 0 0 0-.25.23.81.81 0 0 0-.45.21q-.06-.04-.12 0a.37.37 0 0 1-.2.04.2.2 0 0 0-.1.03.47.47 0 0 1-.13.05.04.04 0 0 1-.03.01.06.06 0 0 1-.01 0 .06.06 0 0 0-.02 0 1.1 1.1 0 0 0-.19.03q-.06.02-.12 0a.32.32 0 0 0-.1-.02h-.06a.14.14 0 0 1-.04.01 2.14 2.14 0 0 1-.19-.01q-.1 0-.16.02a.1.1 0 0 1-.03 0 .3.3 0 0 1-.16-.06.24.24 0 0 1-.06 0 .13.13 0 0 1-.07-.01.24.24 0 0 0-.12-.03l.03-.07a.63.63 0 0 1 .08-.13l.19-.2a1.27 1.27 0 0 0 .15-.19l.11-.05a.95.95 0 0 0 .1-.06.62.62 0 0 1 .2-.12.45.45 0 0 1 .08-.07.28.28 0 0 0 .1-.09.15.15 0 0 0 .12-.04.15.15 0 0 1 .13-.04.5.5 0 0 1 .11-.05l.33-.12a.38.38 0 0 1 .08-.03q.04-.01.24.01a.37.37 0 0 0 .11-.03.4.4 0 0 1 .14-.03Zm-13.85-.37-.17.06a.5.5 0 0 0-.19.2.07.07 0 0 1-.09.05l-.02.13a1.65 1.65 0 0 0-.05.13 2.7 2.7 0 0 1 0 .19.6.6 0 0 1-.01.17 1.54 1.54 0 0 0-.05.18 2.27 2.27 0 0 0-.03.34.84.84 0 0 0 0 .05.34.34 0 0 1 0 .03.15.15 0 0 1-.09.15q-.02.21 0 .25.02.04 0 .08a1.1 1.1 0 0 0 0 .12.14.14 0 0 0 .01.09q.03.03.03.06.02.18.01.35a1.05 1.05 0 0 0 0 .06.22.22 0 0 0 .03.14.37.37 0 0 0 .23-.1.32.32 0 0 1 .02-.1.6.6 0 0 0 .09-.18.01.01 0 0 0 0 0q-.03-.03.01-.03a.6.6 0 0 1 .08-.2q.04-.05 0-.13l.08-.3a.37.37 0 0 1 .02-.11.76.76 0 0 1 .04-.1.65.65 0 0 1 .04-.21l.01-.04.02-.25v-.2a3.4 3.4 0 0 0 .05-.35 1.9 1.9 0 0 1 .03-.24 1.38 1.38 0 0 1-.07-.24.02.02 0 0 1 0-.01.02.02 0 0 0 0 0 .04.04 0 0 0-.03-.04Zm35.43.7a.57.57 0 0 0-.11.2 31.6 31.6 0 0 1-.13.35.67.67 0 0 1-.07.14q-.06.21-.06.35a.63.63 0 0 1-.04.23v.36a.44.44 0 0 1-.04.15.24.24 0 0 1 .04.13.29.29 0 0 1-.02.09.38.38 0 0 0-.02.12.48.48 0 0 0 .02.13l-.04.16a.15.15 0 0 0 0 .03.1.1 0 0 0 .04.08.14.14 0 0 0 .1-.14q0-.11.1-.17a.36.36 0 0 1 .2-.27q-.04-.14.04-.18.1-.04.05-.18a.58.58 0 0 1 .12-.23.04.04 0 0 0 .03-.04.11.11 0 0 0-.01-.04.7.7 0 0 0 .12-.21v-.06a.39.39 0 0 0 .04-.18.36.36 0 0 0 0-.05q.05-.04.05-.22a1.23 1.23 0 0 1 .06-.26q.02-.03 0-.05l-.09-.3a.17.17 0 0 0-.04-.1q-.16-.01-.17.08a.13.13 0 0 1-.17.08Zm12.76.43q.06-.17.06-.21.04-.12 0-.17a.13.13 0 0 1-.01-.07.24.24 0 0 1 0-.05q-.17-.08-.2-.13a.1.1 0 0 0-.09-.05q-.17-.14-.21-.15-.04 0-.08-.03-.17-.07-.21-.05a.17.17 0 0 1-.08.01 1.19 1.19 0 0 0-.12 0 .36.36 0 0 0-.16.02q-.05.02-.11 0a.12.12 0 0 0-.04 0 .14.14 0 0 0-.08.02.97.97 0 0 1-.16.11.37.37 0 0 0-.1.07.51.51 0 0 0-.05.15l-.02.06a.52.52 0 0 0 .03.25l.09.09q.21.13.21.21.33.1.45.24.18 0 .35.1a.61.61 0 0 0 .3.06 1.05 1.05 0 0 0 .15 0 .29.29 0 0 0 .07-.19.26.26 0 0 0 0-.02v-.27Zm8.51-3.77.16-.1q.08.04.17.02a.21.21 0 0 1 .07-.01.13.13 0 0 1 .1.03l.14-.02a.11.11 0 0 1 .02 0 .36.36 0 0 1 .13.02l.19.18.08.22a.36.36 0 0 1-.04.21.21.21 0 0 1-.1.2l-.08.15q-.02.02 0 .08a1.04 1.04 0 0 1-.37.1.26.26 0 0 1-.11-.03.17.17 0 0 0-.08-.02.24.24 0 0 0-.06 0 .74.74 0 0 0-.2-.13.38.38 0 0 0-.09-.17.13.13 0 0 1-.03-.1.17.17 0 0 1 .02-.08 1.34 1.34 0 0 1-.05-.22.02.02 0 0 1 0-.01q.02-.02.02-.12a.73.73 0 0 1 .07-.07.15.15 0 0 0 .04-.13ZM10.6 8.54a.2.2 0 0 0 .16.05q.04 0 .05-.02h0a.5.5 0 0 1 .15.12.16.16 0 0 1-.17.12q-.13 0-.3.08a1.1 1.1 0 0 1-.12.07.26.26 0 0 1-.12.02.48.48 0 0 1-.13.02.38.38 0 0 1-.12-.02.37.37 0 0 0-.12-.02.37.37 0 0 0-.11.02.19.19 0 0 0-.12-.07.43.43 0 0 1-.14-.06.17.17 0 0 1 0-.04.06.06 0 0 1 .03-.06q.05-.02.07-.2a.17.17 0 0 0 .03 0 .44.44 0 0 0 .22-.07.27.27 0 0 1 .15-.05.15.15 0 0 1 .1.05.27.27 0 0 1 .1-.03.1.1 0 0 1 .05.02.76.76 0 0 0 .29.03q.04 0 .05.04Zm58.07 1.05-.06.16q0 .11.07.13.07.02.13-.02a.42.42 0 0 0-.12-.2.03.03 0 0 1-.02-.04.1.1 0 0 1 0-.03Z" vector-effect="non-scaling-stroke" stroke-linecap="round" fill-rule="evenodd" font-size="12" stroke="#000" stroke-width=".94" style="stroke:#000;stroke-width:.25mm;fill:#000"/></svg>