<svg width="129.95" height="16.12" xmlns="http://www.w3.org/2000/svg"><path d="M116.72 8.48v.25a8.84 8.84 0 0 0 0 .34 9.11 9.11 0 0 0 .02.69 13.62 13.62 0 0 1 .04 1.02 8.3 8.3 0 0 1-.05.9 8.5 8.5 0 0 0-.05.92q0 .43.06.84.06.4.06.84a1.05 1.05 0 0 0-.12.27q-.02.1-.08.18a.15.15 0 0 1-.08.02.16.16 0 0 1-.05 0 .12.12 0 0 0-.03 0 .09.09 0 0 0-.07.04q-.1.11-.14.27a.41.41 0 0 1-.2.25.66.66 0 0 1-.2.42q-.17.15-.24.38a1.7 1.7 0 0 1-.14.01.48.48 0 0 1-.19-.03 5.34 5.34 0 0 0-.18-.07 4.07 4.07 0 0 1-.01-.24 1.3 1.3 0 0 1 .02-.24 1.54 1.54 0 0 0 .03-.3.4.4 0 0 0-.1-.3.53.53 0 0 1-.14-.25l-.29-.19q-.08-.05-.14-.13a1.7 1.7 0 0 1-.2-.33 2.68 2.68 0 0 0-.17-.33 324.31 324.31 0 0 1-.55-.92q-.29-.47-.62-.91a.9.9 0 0 0-.14-.18.9.9 0 0 1-.13-.18 17.72 17.72 0 0 1-.63-1.07q-.3-.55-.68-1.04a1.36 1.36 0 0 1-.24-.44q-.07-.24-.23-.42-.02.1-.02.22v.21a29.47 29.47 0 0 0 .03 1.32 29.47 29.47 0 0 1 .03 1.32q0 .14-.03.25-.03.1-.03.24a3.36 3.36 0 0 0 .02.37l.02.35-.01.41a7.88 7.88 0 0 1-.03.4 4.77 4.77 0 0 1-.1.47 1.81 1.81 0 0 0-.06.46 1.04 1.04 0 0 0 .03.25q.03.12.03.22a.4.4 0 0 1-.34.21.43.43 0 0 0-.34.16.44.44 0 0 0-.07 0 .23.23 0 0 0-.12.02.26.26 0 0 1-.12.04q-.08 0-.13-.02l-.1-.02q-.1 0-.2.1t-.2.1q-.06 0-.2-.08a4.33 4.33 0 0 1-.32-.19 4.06 4.06 0 0 1-.3-.21.3.3 0 0 1-.14-.17 1.47 1.47 0 0 1-.02-.27 3.54 3.54 0 0 1 .03-.46 13.1 13.1 0 0 1 .07-.46q.06-.66.06-1.32v-1.32l.01-.54.01-.55a17.45 17.45 0 0 0-.05-1.3 17.45 17.45 0 0 1-.05-1.3 10.03 10.03 0 0 1 .04-.89 9.81 9.81 0 0 0 .04-.87q0-.33-.02-.64t-.02-.65q-.02-.21 0-.46a5.77 5.77 0 0 0 .02-.45q0-.26-.07-.48-.06-.23-.06-.42a.54.54 0 0 1 .04-.23.54.54 0 0 0 .05-.22 1.04 1.04 0 0 0-.05-.31 1.04 1.04 0 0 1-.05-.32 1.06 1.06 0 0 1 .04-.29 1.06 1.06 0 0 0 .04-.3 1.11 1.11 0 0 1 .5-.13.34.34 0 0 1 .3.16 2.79 2.79 0 0 0 .04.53 3.57 3.57 0 0 1 .06.39v.27a1.65 1.65 0 0 0-.01.1 1.5 1.5 0 0 0 .01.2.55.55 0 0 0 .09.24q.07.1.24.1a.76.76 0 0 0 .1.18q.06.08.08.2.12-.08.14-.22.02-.14 0-.26a.39.39 0 0 0 .14.04.26.26 0 0 0 .03 0 .25.25 0 0 1 .03 0 .28.28 0 0 1 .13.02 3.62 3.62 0 0 0 .1.48 1.26 1.26 0 0 1 .04.35 1.86 1.86 0 0 1 0 .13q.39.3.67.83a22.98 22.98 0 0 0 .53.97q.14.21.33.4.18.18.28.44.16.1.26.25.1.16.17.31.4.69.86 1.33a29.93 29.93 0 0 0 .98 1.27l.02-.26v-.27l-.02-1.75-.01-.3a5.57 5.57 0 0 0-.03-.29 8.71 8.71 0 0 1-.03-.67 8.2 8.2 0 0 1 0-.33 12.34 12.34 0 0 0 .02-.49 13.09 13.09 0 0 0-.01-.5 19.18 19.18 0 0 1-.05-1.08 20.48 20.48 0 0 0-.05-1.09l-.04-.66-.02-.67q0-.4.08-.74a.45.45 0 0 1 .09-.07.24.24 0 0 1 .13-.03q.11 0 .15.2a1.45 1.45 0 0 1 .18-.01.64.64 0 0 1 .3.06.95.95 0 0 0 .34.1.69.69 0 0 0 .14.02.78.78 0 0 0 .07 0q.1-.02.22-.02a1.1 1.1 0 0 1 .4.06.8.8 0 0 1 .3.26l.11.1q.07.07.07.13a.48.48 0 0 1-.08.27q-.08.12-.08.34 0 .33.08.65a3.7 3.7 0 0 1 .1.65 33.58 33.58 0 0 1 .1 2.44 301.56 301.56 0 0 1 .02 2.4l-.01.3q-.01.12-.1.22ZM13.02.28l.05.01.2.7q.09.34.23.67a3.64 3.64 0 0 1 .36.06 1.77 1.77 0 0 1 .16.06 3.53 3.53 0 0 1 .27 1.08 12.29 12.29 0 0 0 .14 1.12 3.26 3.26 0 0 1 .54 1.05 16.32 16.32 0 0 0 .38 1.12l.08.25a.24.24 0 0 1 .02.08 41.22 41.22 0 0 1 .23.69 10.6 10.6 0 0 0 .26.68 5.3 5.3 0 0 0 .13.34 10.89 10.89 0 0 1 .12.33 7.18 7.18 0 0 1 .1.4 7.18 7.18 0 0 0 .12.4q.13.39.29.78l.31.78.23.6.34 1 .32.95a2.7 2.7 0 0 1 .15.54 1.85 1.85 0 0 0 .03.32 5.4 5.4 0 0 1 .05.34.3.3 0 0 1-.2.21.46.46 0 0 1-.08.01.37.37 0 0 1-.14-.03 5.34 5.34 0 0 0-.18.08 4.05 4.05 0 0 0-.17.08.24.24 0 0 0-.1.06.13.13 0 0 1-.1.04.6.6 0 0 0-.3.05.35.35 0 0 1-.2.05.52.52 0 0 0-.15-.04.1.1 0 0 0-.07.03.36.36 0 0 1-.1.06q-.07.04-.17.04l-.2.02a1.63 1.63 0 0 1-.06-.15l-.09-.18q-.21-.31-.3-.6l-.15-.47a3.88 3.88 0 0 1-.16-.43q-.07-.22-.17-.43a1.64 1.64 0 0 0-.22.09q-.1.04-.15.12-.24 0-.24.06a.21.21 0 0 1-.04.12l-.18.08a.27.27 0 0 1-.13.02.77.77 0 0 1-.1 0 1.47 1.47 0 0 1-.2.16q-.09.07-.24.09a1.98 1.98 0 0 1-.33.26.42.42 0 0 1-.23.07.55.55 0 0 1-.15-.02 16.2 16.2 0 0 1-.54.1 3.1 3.1 0 0 1-.55.06 1.1 1.1 0 0 1-.4-.18q-.07-.08-.23-.08a.92.92 0 0 0 0-.06.35.35 0 0 0-.11-.3v-.2a.28.28 0 0 1 .05-.16.49.49 0 0 0 .3-.25.26.26 0 0 1 .21-.18 1.1 1.1 0 0 1 .09-.14 1.1 1.1 0 0 0 .09-.15 1.77 1.77 0 0 1 .16-.06.18.18 0 0 0 .11-.12.64.64 0 0 0 .3-.12q.19-.13.25-.2a.5.5 0 0 0 .2-.12q.03-.04.1-.08a.9.9 0 0 0 .08 0 .23.23 0 0 0 .17-.04.78.78 0 0 0 .35.07h.13l.14-.01a.76.76 0 0 1 .4-.21.76.76 0 0 0 .4-.2 2.15 2.15 0 0 1-.1-.39.87.87 0 0 0-.13-.36 2.45 2.45 0 0 0-.13-.48l-.15-.45q-.21-.82-.5-1.6a13.39 13.39 0 0 1-.5-1.6 4.85 4.85 0 0 0-.08-.21 4.85 4.85 0 0 1-.09-.2q-.1.23-.1.26t-.04.06a2.15 2.15 0 0 1-.03.17 1.77 1.77 0 0 1-.06.17 3.54 3.54 0 0 0-.11.34 28.75 28.75 0 0 0-.09.34 9.79 9.79 0 0 0-.17.7 12.66 12.66 0 0 1-.18.7 64.9 64.9 0 0 1-.4 1.2 64.9 64.9 0 0 0-.4 1.2 2.54 2.54 0 0 1-.09.43l-.1.3a2.66 2.66 0 0 0-.07.28q-.03.13-.03.21-.28.63-.46 1.27-.19.64-.46 1.25-.08.04-.14.1-.06.05-.13.05a.14.14 0 0 1-.17-.07q-.01-.08-.09-.08a.3.3 0 0 0-.13.03 1.1 1.1 0 0 0-.12.07.76.76 0 0 0-.23-.05q-.12-.01-.18-.09a.47.47 0 0 1-.28.1.59.59 0 0 1-.3-.1.74.74 0 0 1-.24.04.57.57 0 0 1-.14-.02.25.25 0 0 1-.12-.06l-.02-.16v-.17a.83.83 0 0 0-.04-.3 81.65 81.65 0 0 0 .69-2.02 267.54 267.54 0 0 0 .66-2.08l.34-.95.33-.96.13-.52q.06-.24.16-.48a90.42 90.42 0 0 1 .32-1.02 22.56 22.56 0 0 0 .3-1.03.25.25 0 0 0 .1-.13 1.39 1.39 0 0 1 .06-.18l-.02-.25q.14-.2.19-.34l.06-.3q.1-.24.18-.52a4.63 4.63 0 0 0 .12-.5 7.22 7.22 0 0 0 .05-.72 2.18 2.18 0 0 1 .1-.67.44.44 0 0 1 .07-.1.19.19 0 0 0 .03-.13l.09-.1a.27.27 0 0 0 .07-.1q.1-.16.07-.27A1.04 1.04 0 0 1 11.8.7a.25.25 0 0 0 .15-.16.07.07 0 0 0 0-.01l-.02-.16a.24.24 0 0 1 .13-.18q.13-.1.17-.19a2.88 2.88 0 0 0 .23.03.94.94 0 0 0 .08 0 .95.95 0 0 0 .16-.01q.13.25.33.25Zm24.75 0 .04.01.2.7q.1.34.23.67a3.64 3.64 0 0 1 .36.06 1.77 1.77 0 0 1 .17.06 3.53 3.53 0 0 1 .26 1.08 12.29 12.29 0 0 0 .15 1.12 3.26 3.26 0 0 1 .54 1.05 16.32 16.32 0 0 0 .38 1.12l.08.25a.24.24 0 0 1 .02.08 41.22 41.22 0 0 1 .23.69 10.6 10.6 0 0 0 .25.68 5.3 5.3 0 0 0 .13.34 10.89 10.89 0 0 1 .13.33 7.18 7.18 0 0 1 .1.4 7.18 7.18 0 0 0 .11.4l.3.78.3.78q.07.14.23.6l.34 1 .33.95a2.7 2.7 0 0 1 .14.54 1.85 1.85 0 0 0 .03.32 5.4 5.4 0 0 1 .05.34.3.3 0 0 1-.2.21.46.46 0 0 1-.07.01.37.37 0 0 1-.14-.03 5.34 5.34 0 0 0-.19.08 4.05 4.05 0 0 0-.16.08.24.24 0 0 0-.1.06.13.13 0 0 1-.1.04.6.6 0 0 0-.3.05.35.35 0 0 1-.2.05.52.52 0 0 0-.16-.04.1.1 0 0 0-.07.03.36.36 0 0 1-.09.06q-.07.04-.17.04l-.2.02a1.63 1.63 0 0 1-.07-.15q-.02-.08-.08-.18-.22-.31-.3-.6l-.15-.47a3.88 3.88 0 0 1-.17-.43q-.07-.22-.17-.43a1.64 1.64 0 0 0-.21.09q-.1.04-.16.12-.23 0-.23.06a.21.21 0 0 1-.04.12l-.19.08a.27.27 0 0 1-.13.02.77.77 0 0 1-.09 0 1.47 1.47 0 0 1-.2.16q-.1.07-.25.09a1.98 1.98 0 0 1-.32.26.42.42 0 0 1-.24.07.55.55 0 0 1-.14-.02 16.2 16.2 0 0 1-.55.1 3.1 3.1 0 0 1-.55.06 1.1 1.1 0 0 1-.39-.18q-.07-.08-.23-.08a.92.92 0 0 0 0-.06.35.35 0 0 0-.12-.3l.01-.2a.28.28 0 0 1 .05-.16.49.49 0 0 0 .3-.25.26.26 0 0 1 .2-.18 1.1 1.1 0 0 1 .1-.14 1.1 1.1 0 0 0 .08-.15 1.77 1.77 0 0 1 .17-.06.18.18 0 0 0 .1-.12.64.64 0 0 0 .3-.12q.2-.13.26-.2a.5.5 0 0 0 .19-.12l.1-.08a.9.9 0 0 0 .09 0 .23.23 0 0 0 .16-.04.78.78 0 0 0 .35.07h.14l.14-.01a.76.76 0 0 1 .4-.21.76.76 0 0 0 .4-.2 2.15 2.15 0 0 1-.1-.39.87.87 0 0 0-.14-.36 2.45 2.45 0 0 0-.12-.48q-.1-.24-.15-.45-.22-.82-.5-1.6a13.39 13.39 0 0 1-.5-1.6 4.85 4.85 0 0 0-.08-.21 4.85 4.85 0 0 1-.1-.2l-.09.26q0 .03-.04.06a2.15 2.15 0 0 1-.04.17 1.77 1.77 0 0 1-.06.17 3.54 3.54 0 0 0-.1.34 28.75 28.75 0 0 0-.1.34 9.79 9.79 0 0 0-.17.7 12.66 12.66 0 0 1-.17.7 64.9 64.9 0 0 1-.4 1.2 64.9 64.9 0 0 0-.4 1.2 2.54 2.54 0 0 1-.1.43l-.09.3a2.66 2.66 0 0 0-.08.28q-.03.13-.03.21-.27.63-.46 1.27-.18.64-.45 1.25-.08.04-.14.1-.06.05-.14.05a.14.14 0 0 1-.16-.07q-.01-.08-.1-.08a.3.3 0 0 0-.13.03 1.1 1.1 0 0 0-.12.07.76.76 0 0 0-.22-.05q-.13-.01-.19-.09a.47.47 0 0 1-.27.1.59.59 0 0 1-.31-.1.74.74 0 0 1-.24.04.57.57 0 0 1-.13-.02.25.25 0 0 1-.12-.06l-.02-.16v-.17a.83.83 0 0 0-.04-.3 81.65 81.65 0 0 0 .68-2.02 267.54 267.54 0 0 0 .67-2.08l.34-.95q.17-.47.32-.96l.14-.52q.06-.24.15-.48a90.42 90.42 0 0 1 .33-1.02 22.56 22.56 0 0 0 .3-1.03.25.25 0 0 0 .1-.13 1.39 1.39 0 0 1 .06-.18l-.02-.25q.13-.2.18-.34.05-.15.07-.3.1-.24.18-.52a4.63 4.63 0 0 0 .11-.5 7.22 7.22 0 0 0 .05-.72 2.18 2.18 0 0 1 .11-.67.44.44 0 0 1 .07-.1.19.19 0 0 0 .03-.13l.09-.1a.27.27 0 0 0 .06-.1q.1-.16.07-.27a1.04 1.04 0 0 1-.03-.26.25.25 0 0 0 .16-.16.07.07 0 0 0 0-.01l-.02-.16a.24.24 0 0 1 .13-.18q.12-.1.16-.19a2.88 2.88 0 0 0 .24.03.94.94 0 0 0 .07 0 .95.95 0 0 0 .16-.01q.14.25.33.25Zm91.5 7.32h.09q.03.13.15.3a.47.47 0 0 1 .12.22l-.23.58q-.08.2-.26.36a.73.73 0 0 1-.12.26q-.11.2-.26.42l-.3.43a2.66 2.66 0 0 0-.18.28q-.1.16-.16.3-.05.15-.13.29a8.22 8.22 0 0 1-.36.58 4.45 4.45 0 0 0-.34.6 1.4 1.4 0 0 0-.18.22 1.4 1.4 0 0 1-.18.22q-.23.43-.53.8-.3.37-.56.82.22.21.22.54a.15.15 0 0 1-.1.19.5.5 0 0 0-.18.05.81.81 0 0 1-.35.15 2.14 2.14 0 0 1-.25.02h-.47a2.56 2.56 0 0 0-.1 0 1.54 1.54 0 0 0-.33.02.66.66 0 0 0-.14.07.26.26 0 0 1-.12.05.4.4 0 0 1-.22-.05.7.7 0 0 0-.19-.09 3.1 3.1 0 0 1-.28-.37 13.72 13.72 0 0 0-.26-.39 1.8 1.8 0 0 0-.26-.24q-.13-.1-.25-.27-.31-.44-.64-.86l-.65-.81a4.08 4.08 0 0 0-.34-.41 6.11 6.11 0 0 1-.34-.4q-.16-.21-.3-.45a5.32 5.32 0 0 0-.29-.44q-.12-.2-.33-.48l-.45-.58q-.24-.3-.48-.55-.24-.27-.42-.4a.23.23 0 0 0-.08-.2 7.21 7.21 0 0 1-.17-.14 1.01 1.01 0 0 0-.1-.18q-.06-.1-.06-.2 0-.15.06-.26a.48.48 0 0 0 .05-.15.48.48 0 0 1 .05-.15 1.35 1.35 0 0 1 .28-.44q.19-.2.28-.45l.02-.15a.33.33 0 0 1 .04-.15q.06-.13.18-.24.11-.1.21-.25l.2-.35.2-.35a8.66 8.66 0 0 1 .6-.87 21.3 21.3 0 0 0 .62-.83 15.65 15.65 0 0 0 .51-.77q.23-.38.5-.77a40.97 40.97 0 0 1 .32-.44 13.14 13.14 0 0 1 .36-.48 6.37 6.37 0 0 1 .38-.44 1.44 1.44 0 0 1 .4-.3 1.11 1.11 0 0 1 .12 0 .34.34 0 0 1 .3.1.31.31 0 0 0 .28.15.66.66 0 0 1 .37.18q.1.12.2.21.25 0 .42.1a1.4 1.4 0 0 1 .36.3 1.6 1.6 0 0 1-.21.39 2.68 2.68 0 0 0-.23.37q-.15.05-.22.2-.07.13-.2.23a57.15 57.15 0 0 1-.43.65 16.78 16.78 0 0 1-.43.62.82.82 0 0 1-.22.18.7.7 0 0 0-.21.2.45.45 0 0 0-.06.13.45.45 0 0 1-.06.13q-.23.37-.53.72-.3.35-.5.75a1.35 1.35 0 0 0-.16.28l-.14.28-.22.34-.3.42q-.14.22-.25.43a.84.84 0 0 0-.1.35 1.35 1.35 0 0 0 .25.4 17.04 17.04 0 0 0 .52.62l.56.63a11.06 11.06 0 0 0 .32.37 2.5 2.5 0 0 0 .3.42 26.2 26.2 0 0 0 .57.7 39.77 39.77 0 0 0 .64.73 9.24 9.24 0 0 1 .43.5l.15.26q.04-.02.2-.27a9.97 9.97 0 0 0 .35-.57 32.62 32.62 0 0 0 .32-.58 18.97 18.97 0 0 0 .19-.35 1.68 1.68 0 0 0 .2-.32l.3-.54.29-.55a2.22 2.22 0 0 0 .14-.33h-.23a6.38 6.38 0 0 0-.61.03 3.04 3.04 0 0 0-.62.12q-.14-.02-.23-.07a1.96 1.96 0 0 0-.24-.12.97.97 0 0 1-.05-.25.2.2 0 0 1 0-.03v-.11a.33.33 0 0 0-.06-.12.2.2 0 0 1-.03-.12.56.56 0 0 0-.03-.22l-.08-.2V7.6a.25.25 0 0 0 0-.03.19.19 0 0 0-.02-.1 1.68 1.68 0 0 0 0-.2.61.61 0 0 0-.06-.32q0-.27.08-.35a.5.5 0 0 0 .11-.23.42.42 0 0 0 .14.02.3.3 0 0 0 .17-.05q.12-.09.26-.09.31 0 .5-.1a3.27 3.27 0 0 1 .37-.02 1.66 1.66 0 0 0 .36-.04 2.15 2.15 0 0 0 .17-.04 2.15 2.15 0 0 1 .16-.03q.12-.02.26-.02h.25a6.73 6.73 0 0 1 .63-.05l.62-.03a1.2 1.2 0 0 0 .19.06.72.72 0 0 1 .16.05q.06.04.1.1a.23.23 0 0 0 .14.06.6.6 0 0 1 .13.2.58.58 0 0 0-.01.12.21.21 0 0 0 .03.13.4.4 0 0 0-.1.26 3.68 3.68 0 0 1-.03.3.41.41 0 0 1 .23.22.35.35 0 0 0 .14.18Zm-76.61 5.6q-.02.3.12.44.15.15.25.36a1.04 1.04 0 0 0-.01.15.53.53 0 0 0 .07.28l-.12.27q-.06.14-.18.24-.3.14-.37.24a.25.25 0 0 1-.23.1 6.86 6.86 0 0 1-.22.2l-.21.2a.29.29 0 0 1-.14-.1 2.4 2.4 0 0 0-.12-.15.88.88 0 0 1-.35-.2 1.69 1.69 0 0 1-.27-.34 5.58 5.58 0 0 1-.23-.39 6.63 6.63 0 0 1-.18-.38 173.47 173.47 0 0 0-.56-1.02l-.57-1.03q-.16-.25-.3-.52a51.2 51.2 0 0 0-.3-.53 1.06 1.06 0 0 1-.09-.1 1.53 1.53 0 0 1-.08-.1q-.13-.2-.2-.44a.73.73 0 0 0-.28-.4 1.46 1.46 0 0 0-.16 0 1.18 1.18 0 0 0-.52.1 1.96 1.96 0 0 0-.53.39 1.8 1.8 0 0 1 .02.25v.24a9.07 9.07 0 0 1-.04.86 9.07 9.07 0 0 0-.04.86l.02.4a3.95 3.95 0 0 0 .05.4 1.78 1.78 0 0 0-.05.46 1.04 1.04 0 0 0 .02.26 1.04 1.04 0 0 1 .04.25.27.27 0 0 1-.13.27.18.18 0 0 0-.1.16.35.35 0 0 0 .01.08 15.4 15.4 0 0 0-.45.2q-.21.1-.45.13-.1.02-.2.01a.39.39 0 0 0-.03 0 .3.3 0 0 0-.14.03q-.1.04-.16.15a.18.18 0 0 1-.15.1.12.12 0 0 1-.14-.08q-.02-.09-.08-.15a.45.45 0 0 0-.15-.04q-.06 0-.12-.06.02-.17-.08-.26a.49.49 0 0 1-.1-.36 2.76 2.76 0 0 1 .03-.41q.03-.2.03-.41a1.01 1.01 0 0 0-.05-.32 3.25 3.25 0 0 1-.08-.33q-.02-.07 0-.15l.02-.16a8.82 8.82 0 0 0-.03-.71q-.03-.36-.03-.71v-.26a1.42 1.42 0 0 1 .02-.23 5.75 5.75 0 0 1 .06-.2.56.56 0 0 0 .03-.2 3.46 3.46 0 0 0-.07-.73 3.37 3.37 0 0 1-.08-.7 8.42 8.42 0 0 1 0-.4l.02-.4a31.2 31.2 0 0 0-.02-1.12l-.02-1.1a15.06 15.06 0 0 1 .02-.77 15.06 15.06 0 0 0 .02-.77 11.88 11.88 0 0 0-.04-.97 12.12 12.12 0 0 1-.04-.98.9.9 0 0 0-.02-.24.1.1 0 0 0-.06-.06l-.09-.02a.14.14 0 0 1-.08-.07.17.17 0 0 1 .1-.17q.09-.05.09-.32a1.7 1.7 0 0 0-.03-.31 1.7 1.7 0 0 1-.03-.32 1.21 1.21 0 0 1 .1-.47 10.5 10.5 0 0 0 .17-.44 2.45 2.45 0 0 1 .2-.01.6.6 0 0 1 .13 0 .27.27 0 0 0 .06.01.34.34 0 0 0 .12-.02.27.27 0 0 0 .26.22 1.83 1.83 0 0 1 .35.05q.17.02.34.09.17.07.32.07.04.11.17.16a3.13 3.13 0 0 0 .26.09.34.34 0 0 0 .25-.14q.08-.11.24-.11a.42.42 0 0 1 .27.16 4.7 4.7 0 0 1 .24.27 5.12 5.12 0 0 1 .3.25 10.58 10.58 0 0 0 .46.4l.47.4a1.34 1.34 0 0 0 .27.2 72.37 72.37 0 0 0 1.5 1.45q.69.65 1.51 1.18a.34.34 0 0 0 .05.1 2.2 2.2 0 0 1 .07.1.39.39 0 0 1-.06.23.32.32 0 0 0-.06.2.26.26 0 0 0 .03.11.26.26 0 0 1 .03.12.41.41 0 0 1 .01.1.33.33 0 0 1 0 .05l-.01.14a.54.54 0 0 0 .13.36.54.54 0 0 1 .12.35q-.04.17-.15.21a.68.68 0 0 0-.2.1.37.37 0 0 0-.07.1.37.37 0 0 1-.07.1 2.78 2.78 0 0 0-.62.36 6.9 6.9 0 0 1-.41.32l-.2.13-.27.17q-.14.09-.24.19a.26.26 0 0 0-.11.15.77.77 0 0 0 .16.38 6.24 6.24 0 0 1 .25.38 10.83 10.83 0 0 1 .39.7 7.84 7.84 0 0 0 .39.67 19.74 19.74 0 0 1 .73 1.23 117.3 117.3 0 0 1 .68 1.25Zm27.16 0q-.01.3.13.44.15.15.24.36a1.04 1.04 0 0 0 0 .15.53.53 0 0 0 .06.28q-.06.12-.11.27-.06.14-.18.24-.31.14-.37.24a.25.25 0 0 1-.23.1 6.86 6.86 0 0 1-.22.2q-.12.1-.21.2a.29.29 0 0 1-.14-.1 2.4 2.4 0 0 0-.12-.15.88.88 0 0 1-.35-.2 1.69 1.69 0 0 1-.27-.34 5.58 5.58 0 0 1-.23-.39 6.63 6.63 0 0 1-.18-.38 173.47 173.47 0 0 0-.56-1.02q-.28-.52-.58-1.03l-.3-.52a51.2 51.2 0 0 0-.3-.53 1.06 1.06 0 0 1-.08-.1 1.53 1.53 0 0 1-.08-.1q-.13-.2-.2-.44a.73.73 0 0 0-.29-.4 1.46 1.46 0 0 0-.15 0 1.18 1.18 0 0 0-.52.1 1.96 1.96 0 0 0-.54.39 1.8 1.8 0 0 1 .02.25v.24a9.07 9.07 0 0 1-.04.86 9.07 9.07 0 0 0-.04.86l.02.4a3.95 3.95 0 0 0 .06.4 1.78 1.78 0 0 0-.06.46 1.04 1.04 0 0 0 .03.26 1.04 1.04 0 0 1 .03.25.27.27 0 0 1-.12.27.18.18 0 0 0-.1.16.35.35 0 0 0 0 .08 15.4 15.4 0 0 0-.44.2q-.22.1-.45.13-.1.02-.2.01a.39.39 0 0 0-.03 0 .3.3 0 0 0-.14.03q-.1.04-.16.15a.18.18 0 0 1-.15.1.12.12 0 0 1-.14-.08q-.02-.09-.08-.15a.45.45 0 0 0-.16-.04q-.05 0-.11-.06.02-.17-.08-.26a.49.49 0 0 1-.1-.36 2.76 2.76 0 0 1 .03-.41q.03-.2.03-.41a1.01 1.01 0 0 0-.05-.32 3.25 3.25 0 0 1-.09-.33q-.02-.07 0-.15l.02-.16a8.82 8.82 0 0 0-.03-.71q-.03-.36-.03-.71v-.26a1.42 1.42 0 0 1 .02-.23 5.75 5.75 0 0 1 .07-.2.56.56 0 0 0 .03-.2 3.46 3.46 0 0 0-.08-.73 3.37 3.37 0 0 1-.08-.7 8.42 8.42 0 0 1 .02-.4v-.4a31.2 31.2 0 0 0-.02-1.12l-.01-1.1a15.06 15.06 0 0 1 .01-.77 15.06 15.06 0 0 0 .03-.77 11.88 11.88 0 0 0-.04-.97 12.12 12.12 0 0 1-.04-.98.9.9 0 0 0-.02-.24.1.1 0 0 0-.06-.06l-.09-.02a.14.14 0 0 1-.09-.07.17.17 0 0 1 .1-.17q.1-.05.1-.32a1.7 1.7 0 0 0-.03-.31 1.7 1.7 0 0 1-.03-.32 1.21 1.21 0 0 1 .1-.47 10.5 10.5 0 0 0 .17-.44 2.45 2.45 0 0 1 .2-.01.6.6 0 0 1 .13 0 .27.27 0 0 0 .05.01.34.34 0 0 0 .13-.02.27.27 0 0 0 .26.22 1.83 1.83 0 0 1 .35.05q.17.02.34.09.16.07.32.07.04.11.17.16a3.13 3.13 0 0 0 .26.09.34.34 0 0 0 .24-.14q.1-.11.25-.11a.42.42 0 0 1 .27.16 4.7 4.7 0 0 1 .24.27 5.12 5.12 0 0 1 .29.25 10.58 10.58 0 0 0 .47.4l.47.4a1.34 1.34 0 0 0 .27.2 72.37 72.37 0 0 0 1.5 1.45q.69.65 1.5 1.18a.34.34 0 0 0 .06.1 2.2 2.2 0 0 1 .06.1.39.39 0 0 1-.05.23.32.32 0 0 0-.06.2.26.26 0 0 0 .03.11.26.26 0 0 1 .03.12.41.41 0 0 1 .01.1.33.33 0 0 1 0 .05l-.01.14a.54.54 0 0 0 .12.36.54.54 0 0 1 .13.35q-.04.17-.16.21a.68.68 0 0 0-.2.1.37.37 0 0 0-.06.1.37.37 0 0 1-.07.1 2.78 2.78 0 0 0-.62.36 6.9 6.9 0 0 1-.41.32l-.2.13-.27.17q-.14.09-.25.19a.26.26 0 0 0-.1.15.77.77 0 0 0 .16.38 6.24 6.24 0 0 1 .25.38 10.83 10.83 0 0 1 .39.7 7.84 7.84 0 0 0 .39.67 19.74 19.74 0 0 1 .73 1.23 117.3 117.3 0 0 1 .67 1.25ZM32.27 9.04l.15.18q0 .15.09.36l.17.34a.76.76 0 0 0-.02.15.14.14 0 0 0 .03.1l.08.08a4.22 4.22 0 0 0 0 .22.96.96 0 0 0 .02.27l-.61.54a5.91 5.91 0 0 0-.5.48 3.39 3.39 0 0 1-.36.38 68.45 68.45 0 0 0-.4.36 1.12 1.12 0 0 1-.2.21 1.31 1.31 0 0 1-.27.22 23.51 23.51 0 0 1-.46.41 26.64 26.64 0 0 0-.44.39 13.37 13.37 0 0 0-.3.26l-.27.29-.26.27a1.53 1.53 0 0 1-.3.25.69.69 0 0 1-.16.21q-.1.09-.17.19a4.34 4.34 0 0 0-.26.15q-.11.08-.27.16a6.7 6.7 0 0 0-.3-.22.94.94 0 0 0-.33-.13q-.11-.1-.17-.2-.06-.1-.22-.14a4.82 4.82 0 0 0-.09-.12 1.1 1.1 0 0 1-.08-.15q-.24-.02-.37-.3a.39.39 0 0 1 .1-.17.14.14 0 0 0 .05-.11.42.42 0 0 0-.02-.1 1.44 1.44 0 0 1 .29-.34 7.08 7.08 0 0 0 .32-.3q.17-.16.32-.33t.32-.32a5.13 5.13 0 0 1 .2-.19 7.49 7.49 0 0 1 .21-.18 6.26 6.26 0 0 1 .44-.4l.46-.4a11.08 11.08 0 0 1 .65-.6 4.3 4.3 0 0 0 .6-.63.19.19 0 0 0-.06-.11.17.17 0 0 1-.06-.09 784.9 784.9 0 0 0-.61-.58q-.3-.28-.66-.5a.84.84 0 0 1-.15-.19q-.35-.25-.67-.57a3.31 3.31 0 0 0-.72-.52q-.08-.1-.18-.17a9.19 9.19 0 0 0-.2-.13q-.07-.1-.14-.16a.49.49 0 0 0-.16-.1q-.16-.15-.2-.23a.22.22 0 0 0-.17-.11.33.33 0 0 0-.13-.16l-.18-.13a.49.49 0 0 0-.12-.2.77.77 0 0 1 0-.1.27.27 0 0 1 .02-.12 2.35 2.35 0 0 0 .06-.11.25.25 0 0 0-.11-.18.22.22 0 0 1-.09-.2.12.12 0 0 1 .05-.1q.05-.03.07-.09l.06-.3q.15-.1.26-.27a.79.79 0 0 1 .28-.27q.2-.3.5-.49.09-.15.23-.25a.83.83 0 0 0 .25-.25 1.26 1.26 0 0 0 .26-.22 1.26 1.26 0 0 1 .27-.21.48.48 0 0 1 .09-.13.27.27 0 0 0 .06-.1l.93-.89a31.75 31.75 0 0 1 .83-.74 3.51 3.51 0 0 0 .23-.21 2.01 2.01 0 0 1 .26-.22.13.13 0 0 1 .1-.04.21.21 0 0 0 .11-.04q.24 0 .26-.02.04.08.09.11a.18.18 0 0 1 .06.13l.22.14q.08.05.1.17a1.54 1.54 0 0 1 .2.18.34.34 0 0 1 .05.1 2.67 2.67 0 0 0 .19.13.33.33 0 0 1 .12.18.86.86 0 0 1 .2.21.7.7 0 0 1 .06.18 2.02 2.02 0 0 1-.32.37 13.87 13.87 0 0 1-.52.5 192.27 192.27 0 0 1-.57.5 60.84 60.84 0 0 1-.43.38q-.04.08-.1.14a.52.52 0 0 0-.1.14l-.2.2q-.1.11-.24.17a2.53 2.53 0 0 1-.55.54 1.46 1.46 0 0 0-.47.51q.02.06.09.12l.1.1q.16.16.38.28.21.13.37.29a11.2 11.2 0 0 0 .31.26 11.2 11.2 0 0 1 .31.26 2.28 2.28 0 0 1 .2.24 6.37 6.37 0 0 0 .38.28 3.63 3.63 0 0 1 .36.28 22.87 22.87 0 0 1 .72.64 14.54 14.54 0 0 0 .75.63Zm62.12 0 .16.18q0 .15.09.36l.17.34a.76.76 0 0 0-.02.15.14.14 0 0 0 .02.1l.1.08a4.22 4.22 0 0 0-.01.22.96.96 0 0 0 .02.27l-.61.54a5.91 5.91 0 0 0-.5.48 3.39 3.39 0 0 1-.36.38 68.45 68.45 0 0 0-.4.36 1.12 1.12 0 0 1-.2.21 1.31 1.31 0 0 1-.27.22 23.51 23.51 0 0 1-.46.41 26.64 26.64 0 0 0-.44.39 13.37 13.37 0 0 0-.3.26l-.27.29-.26.27a1.53 1.53 0 0 1-.3.25.69.69 0 0 1-.16.21q-.1.09-.17.19a4.34 4.34 0 0 0-.26.15l-.27.16a6.7 6.7 0 0 0-.3-.22.94.94 0 0 0-.33-.13q-.12-.1-.17-.2-.06-.1-.22-.14a4.82 4.82 0 0 0-.09-.12 1.1 1.1 0 0 1-.08-.15q-.24-.02-.38-.3a.39.39 0 0 1 .11-.17.14.14 0 0 0 .05-.11.42.42 0 0 0-.02-.1 1.44 1.44 0 0 1 .28-.34 7.08 7.08 0 0 0 .33-.3q.17-.16.32-.33t.32-.32a5.13 5.13 0 0 1 .2-.19 7.49 7.49 0 0 1 .21-.18 6.26 6.26 0 0 1 .44-.4l.46-.4a11.08 11.08 0 0 1 .65-.6 4.3 4.3 0 0 0 .6-.63.19.19 0 0 0-.06-.11.17.17 0 0 1-.06-.09 784.9 784.9 0 0 0-.61-.58q-.3-.28-.66-.5a.84.84 0 0 1-.15-.19q-.35-.25-.68-.57a3.31 3.31 0 0 0-.7-.52q-.09-.1-.2-.17a9.19 9.19 0 0 0-.2-.13q-.06-.1-.13-.16a.49.49 0 0 0-.16-.1q-.16-.15-.2-.23a.22.22 0 0 0-.17-.11.33.33 0 0 0-.13-.16l-.19-.13a.49.49 0 0 0-.11-.2.77.77 0 0 1-.01-.1.27.27 0 0 1 .03-.12 2.35 2.35 0 0 0 .05-.11.25.25 0 0 0-.1-.18.22.22 0 0 1-.1-.2.12.12 0 0 1 .06-.1q.05-.03.07-.09l.06-.3q.15-.1.26-.27a.79.79 0 0 1 .28-.27q.2-.3.49-.49.1-.15.24-.25a.83.83 0 0 0 .25-.25 1.26 1.26 0 0 0 .26-.22 1.26 1.26 0 0 1 .27-.21.48.48 0 0 1 .08-.13.27.27 0 0 0 .07-.1l.93-.89a31.75 31.75 0 0 1 .83-.74 3.51 3.51 0 0 0 .23-.21 2.01 2.01 0 0 1 .26-.22.13.13 0 0 1 .1-.04.21.21 0 0 0 .11-.04q.24 0 .26-.02.04.08.08.11a.18.18 0 0 1 .07.13l.22.14q.08.05.1.17a1.54 1.54 0 0 1 .2.18.34.34 0 0 1 .05.1 2.67 2.67 0 0 0 .19.13.33.33 0 0 1 .12.18.86.86 0 0 1 .2.21.7.7 0 0 1 .06.18 2.02 2.02 0 0 1-.32.37 13.87 13.87 0 0 1-.52.5 192.27 192.27 0 0 1-.57.5 60.84 60.84 0 0 1-.43.38q-.04.08-.1.14a.52.52 0 0 0-.1.14l-.21.2q-.1.11-.24.17a2.53 2.53 0 0 1-.54.54 1.46 1.46 0 0 0-.47.51q.02.06.09.12l.1.1q.16.16.38.28.21.13.37.29a11.2 11.2 0 0 0 .31.26 11.2 11.2 0 0 1 .31.26 2.28 2.28 0 0 1 .2.24 6.37 6.37 0 0 0 .38.28 3.63 3.63 0 0 1 .36.28 22.87 22.87 0 0 1 .72.64 14.54 14.54 0 0 0 .74.63Zm7.08 0 .15.18q0 .15.09.36l.17.34a.76.76 0 0 0-.02.15.14.14 0 0 0 .03.1l.08.08a4.22 4.22 0 0 0 0 .22.96.96 0 0 0 .02.27l-.61.54a5.91 5.91 0 0 0-.5.48 3.39 3.39 0 0 1-.36.38 68.45 68.45 0 0 0-.4.36 1.12 1.12 0 0 1-.2.21 1.31 1.31 0 0 1-.27.22 23.51 23.51 0 0 1-.46.41 26.64 26.64 0 0 0-.44.39 13.37 13.37 0 0 0-.3.26l-.27.29-.26.27a1.53 1.53 0 0 1-.3.25.69.69 0 0 1-.16.21q-.1.09-.17.19a4.34 4.34 0 0 0-.26.15l-.27.16a6.7 6.7 0 0 0-.3-.22.94.94 0 0 0-.33-.13q-.11-.1-.17-.2-.06-.1-.22-.14a4.82 4.82 0 0 0-.09-.12 1.1 1.1 0 0 1-.08-.15q-.24-.02-.38-.3a.39.39 0 0 1 .11-.17.14.14 0 0 0 .05-.11.42.42 0 0 0-.02-.1 1.44 1.44 0 0 1 .28-.34 7.08 7.08 0 0 0 .33-.3q.17-.16.32-.33t.32-.32a5.13 5.13 0 0 1 .2-.19 7.49 7.49 0 0 1 .21-.18 6.26 6.26 0 0 1 .44-.4l.46-.4a11.08 11.08 0 0 1 .64-.6 4.3 4.3 0 0 0 .61-.63.19.19 0 0 0-.06-.11.17.17 0 0 1-.06-.09 784.9 784.9 0 0 0-.61-.58q-.3-.28-.66-.5a.84.84 0 0 1-.15-.19q-.35-.25-.68-.57a3.31 3.31 0 0 0-.7-.52q-.09-.1-.2-.17a9.19 9.19 0 0 0-.2-.13q-.06-.1-.13-.16a.49.49 0 0 0-.16-.1q-.16-.15-.2-.23a.22.22 0 0 0-.17-.11.33.33 0 0 0-.13-.16l-.19-.13a.49.49 0 0 0-.11-.2.77.77 0 0 1-.01-.1.27.27 0 0 1 .03-.12 2.35 2.35 0 0 0 .06-.11.25.25 0 0 0-.11-.18.22.22 0 0 1-.1-.2.12.12 0 0 1 .06-.1q.05-.03.07-.09l.05-.3q.16-.1.27-.27a.79.79 0 0 1 .28-.27q.2-.3.49-.49.1-.15.25-.25a.83.83 0 0 0 .24-.25 1.26 1.26 0 0 0 .26-.22 1.26 1.26 0 0 1 .27-.21.48.48 0 0 1 .08-.13.27.27 0 0 0 .07-.1l.93-.89a31.75 31.75 0 0 1 .83-.74 3.51 3.51 0 0 0 .23-.21 2.01 2.01 0 0 1 .26-.22.13.13 0 0 1 .1-.04.21.21 0 0 0 .11-.04q.24 0 .26-.02.04.08.09.11a.18.18 0 0 1 .06.13l.22.14q.08.05.1.17a1.54 1.54 0 0 1 .2.18.34.34 0 0 1 .05.1 2.67 2.67 0 0 0 .18.13.33.33 0 0 1 .13.18.86.86 0 0 1 .2.21.7.7 0 0 1 .06.18 2.02 2.02 0 0 1-.32.37 13.87 13.87 0 0 1-.52.5 192.27 192.27 0 0 1-.57.5 60.84 60.84 0 0 1-.43.38q-.04.08-.1.14a.52.52 0 0 0-.1.14l-.21.2q-.1.11-.23.17a2.53 2.53 0 0 1-.55.54 1.46 1.46 0 0 0-.47.51q.02.06.09.12l.1.1q.16.16.38.28.21.13.37.29a11.2 11.2 0 0 0 .31.26 11.2 11.2 0 0 1 .31.26 2.28 2.28 0 0 1 .2.24 6.37 6.37 0 0 0 .38.28 3.63 3.63 0 0 1 .36.28 22.87 22.87 0 0 1 .72.64 14.54 14.54 0 0 0 .75.63Zm-96.98.7a2.5 2.5 0 0 0 .3.43 26.2 26.2 0 0 0 .57.7 39.77 39.77 0 0 0 .64.73 9.24 9.24 0 0 1 .43.5q.37.56.76 1.08a16.1 16.1 0 0 1 .74 1.1q.1.1.16.24.05.15.05.3a.15.15 0 0 1-.08.19.71.71 0 0 0-.19.05.81.81 0 0 1-.35.15 2.14 2.14 0 0 1-.25.02H6.8a2.56 2.56 0 0 0-.1 0 1.54 1.54 0 0 0-.33.02.66.66 0 0 0-.14.07.26.26 0 0 1-.12.05.4.4 0 0 1-.22-.05.7.7 0 0 0-.19-.09 3.1 3.1 0 0 1-.28-.37 13.72 13.72 0 0 0-.26-.39 1.8 1.8 0 0 0-.26-.24q-.13-.1-.25-.27-.31-.44-.64-.86l-.65-.81a4.08 4.08 0 0 0-.34-.41 6.11 6.11 0 0 1-.34-.4q-.16-.21-.3-.45a5.32 5.32 0 0 0-.29-.44q-.12-.2-.33-.48l-.45-.58q-.24-.3-.48-.55-.24-.27-.42-.4a.23.23 0 0 0-.08-.2 7.21 7.21 0 0 1-.17-.14 1.01 1.01 0 0 0-.1-.18Q0 7.96 0 7.86q0-.09.02-.15l.04-.11a.48.48 0 0 0 .05-.15.48.48 0 0 1 .05-.15 1.35 1.35 0 0 1 .28-.44q.18-.2.28-.45l.02-.15a.33.33 0 0 1 .04-.15q.06-.11.18-.23a2.01 2.01 0 0 0 .21-.25l.2-.36.2-.35a8.66 8.66 0 0 1 .6-.87 21.3 21.3 0 0 0 .62-.83 15.65 15.65 0 0 0 .51-.77l.5-.77a40.97 40.97 0 0 1 .32-.44 13.14 13.14 0 0 1 .36-.48 6.37 6.37 0 0 1 .38-.44 1.44 1.44 0 0 1 .4-.3 1.11 1.11 0 0 1 .12 0 .34.34 0 0 1 .3.1.31.31 0 0 0 .28.15.66.66 0 0 1 .37.18q.1.12.2.21.25 0 .42.1a1.4 1.4 0 0 1 .35.3 1.6 1.6 0 0 1-.2.39 2.68 2.68 0 0 0-.22.37q-.16.05-.23.2-.07.13-.2.23a57.15 57.15 0 0 1-.43.65 16.78 16.78 0 0 1-.43.62.76.76 0 0 1-.23.18.52.52 0 0 0-.2.2.45.45 0 0 0-.06.13.45.45 0 0 1-.06.13q-.24.37-.53.72-.3.35-.5.75a1.35 1.35 0 0 0-.16.28l-.14.28a41.28 41.28 0 0 1-.22.33l-.3.44a5.25 5.25 0 0 0-.25.43q-.1.2-.1.34a1.35 1.35 0 0 0 .25.4 25.9 25.9 0 0 0 .51.62l.55.63a12.92 12.92 0 0 0 .34.37Zm20.24 3.62.35.59a6.02 6.02 0 0 0 .28.33 1 1 0 0 1 .2.37 1.08 1.08 0 0 1 .05.21.21.21 0 0 1-.1.2.16.16 0 0 0-.17.05.14.14 0 0 1-.09.09.66.66 0 0 1-.24.04 4.74 4.74 0 0 1-.26.01h-.44a1.98 1.98 0 0 0-.08 0 1 1 0 0 0-.34.04l-.12.06a.3.3 0 0 1-.12.04.4.4 0 0 1-.22-.05q-.07-.05-.19-.07a2.22 2.22 0 0 1-.26-.36q-.1-.18-.25-.38a3.08 3.08 0 0 0-.27-.24q-.14-.11-.23-.25a19.66 19.66 0 0 0-.6-.84l-.65-.8a3.27 3.27 0 0 0-.34-.39 3.27 3.27 0 0 1-.33-.39 4 4 0 0 1-.29-.42 25.96 25.96 0 0 0-.27-.44l-.32-.46q-.2-.28-.43-.56-.23-.29-.46-.54l-.4-.4q-.02-.1-.1-.18a1.22 1.22 0 0 0-.17-.12 1.62 1.62 0 0 0-.09-.19.38.38 0 0 1-.05-.19q0-.13.06-.25a.48.48 0 0 0 .05-.15.48.48 0 0 1 .05-.14 1.96 1.96 0 0 1 .26-.42 1.8 1.8 0 0 0 .27-.44.22.22 0 0 0 .04-.13.22.22 0 0 1 .04-.13.5.5 0 0 1 .16-.26.91.91 0 0 0 .2-.24l.2-.33a17.54 17.54 0 0 0 .18-.36l.61-.94.66-.93a50.6 50.6 0 0 1 .5-.75 151.78 151.78 0 0 1 .5-.74 6.97 6.97 0 0 0 .29-.4 7.11 7.11 0 0 1 .34-.48 4.96 4.96 0 0 1 .38-.43 2.05 2.05 0 0 1 .39-.3 1 1 0 0 1 .07 0 .36.36 0 0 1 .32.12.33.33 0 0 0 .3.15.6.6 0 0 1 .33.15q.07.1.17.2.27 0 .44.1.17.1.32.29-.05.21-.17.38a3.75 3.75 0 0 0-.22.34q-.15.08-.22.22-.07.13-.2.21a8.84 8.84 0 0 1-.42.64l-.43.6a2.48 2.48 0 0 1-.24.3q-.13.14-.23.3a.79.79 0 0 0-.06.12.79.79 0 0 1-.07.13 6.13 6.13 0 0 1-.51.7 5.37 5.37 0 0 0-.5.7q-.09.14-.14.29a1.57 1.57 0 0 1-.12.28 7.34 7.34 0 0 1-.23.32l-.28.42q-.14.22-.24.43-.11.2-.11.34a1.3 1.3 0 0 0 .24.38 15.75 15.75 0 0 0 .51.6q.28.33.54.6a3.4 3.4 0 0 0 .33.35 2.44 2.44 0 0 0 .28.41 24.21 24.21 0 0 0 .56.69 116.72 116.72 0 0 1 .6.7 14.96 14.96 0 0 1 .4.5 138.44 138.44 0 0 1 .42.54q.2.27.38.56Zm62.13 0 .35.59a6.02 6.02 0 0 0 .28.33 1 1 0 0 1 .2.37 1.08 1.08 0 0 1 .04.21.21.21 0 0 1-.1.2.16.16 0 0 0-.16.05.14.14 0 0 1-.09.09.66.66 0 0 1-.24.04 4.74 4.74 0 0 1-.27.01h-.43a1.98 1.98 0 0 0-.08 0 1 1 0 0 0-.34.04l-.12.06a.3.3 0 0 1-.12.04.4.4 0 0 1-.22-.05q-.07-.05-.19-.07a2.22 2.22 0 0 1-.26-.36l-.25-.38a3.08 3.08 0 0 0-.27-.24q-.14-.11-.23-.25a19.66 19.66 0 0 0-.61-.84l-.64-.8a3.27 3.27 0 0 0-.34-.39 3.27 3.27 0 0 1-.33-.39 4 4 0 0 1-.3-.42 25.96 25.96 0 0 0-.27-.44l-.3-.46q-.2-.28-.44-.56-.23-.29-.47-.54l-.39-.4q-.02-.1-.1-.18A1.22 1.22 0 0 0 80 8.5a1.62 1.62 0 0 0-.09-.19.38.38 0 0 1-.05-.19q0-.13.06-.25a.48.48 0 0 0 .05-.15.48.48 0 0 1 .05-.14 1.96 1.96 0 0 1 .26-.42 1.8 1.8 0 0 0 .27-.44.22.22 0 0 0 .04-.13.22.22 0 0 1 .03-.13.5.5 0 0 1 .17-.26.91.91 0 0 0 .2-.24l.2-.33a17.54 17.54 0 0 0 .18-.36q.29-.48.61-.94l.66-.93a50.6 50.6 0 0 1 .5-.75 151.78 151.78 0 0 1 .5-.74 6.97 6.97 0 0 0 .29-.4 7.11 7.11 0 0 1 .34-.48 4.96 4.96 0 0 1 .38-.43 2.05 2.05 0 0 1 .39-.3 1 1 0 0 1 .06 0 .36.36 0 0 1 .33.12.33.33 0 0 0 .3.15.6.6 0 0 1 .33.15q.07.1.17.2.27 0 .44.1.17.1.32.29-.06.21-.17.38a3.75 3.75 0 0 0-.22.34q-.16.08-.22.22-.07.13-.2.21a8.84 8.84 0 0 1-.42.64l-.43.6a2.48 2.48 0 0 1-.24.3q-.13.14-.23.3a.79.79 0 0 0-.06.12.79.79 0 0 1-.07.13 6.13 6.13 0 0 1-.51.7 5.37 5.37 0 0 0-.5.7q-.09.14-.14.29a1.57 1.57 0 0 1-.12.28 7.34 7.34 0 0 1-.23.32l-.28.42q-.14.22-.25.43-.1.2-.1.34a1.3 1.3 0 0 0 .24.38 15.75 15.75 0 0 0 .51.6q.28.33.54.6a3.4 3.4 0 0 0 .33.35 2.44 2.44 0 0 0 .28.41 24.21 24.21 0 0 0 .56.69 116.72 116.72 0 0 1 .6.7 14.96 14.96 0 0 1 .4.5 138.44 138.44 0 0 1 .41.54q.21.27.39.56ZM63 15.26l-.35.03a1.13 1.13 0 0 1-.44.15.23.23 0 0 1-.01 0 1.28 1.28 0 0 0-.1 0 1.29 1.29 0 0 0-.18 0 .33.33 0 0 0-.12.07.17.17 0 0 1-.11.04.24.24 0 0 1-.22-.13.21.21 0 0 0-.19-.11.33.33 0 0 0-.04 0q-.08-.08-.08-.21a1.2 1.2 0 0 1 .01-.17 3.12 3.12 0 0 1 .03-.16 4.26 4.26 0 0 0 .1-.91 10.48 10.48 0 0 1 .04-.91l.03-.55v-.54a53.42 53.42 0 0 0-.1-3.24q-.09-1.6-.09-3.25a66.6 66.6 0 0 1 .04-2.27A133.26 133.26 0 0 0 61.3.8q.18-.1.43-.08a.6.6 0 0 0 .04 0 .45.45 0 0 0 .37-.17q.1-.02.2-.01h.19a.7.7 0 0 0 .41-.13 2.27 2.27 0 0 1 .43-.23.5.5 0 0 0 .14.03.11.11 0 0 0 .02 0l.11-.01a.68.68 0 0 1 .26.13 16.34 16.34 0 0 1 .43.32 72.93 72.93 0 0 1 .44.33 7.09 7.09 0 0 0 .26.2q.49.36.87.8.38.44.75.9a18.19 18.19 0 0 0 .76.9 20.85 20.85 0 0 0 .8.85q.14.16.29.27.14.12.28.28a1.45 1.45 0 0 1 .1.16 6.45 6.45 0 0 0 .11.19 1.18 1.18 0 0 0 .28.23q.15.1.3.24a2.47 2.47 0 0 1 .28.3q.2.24.2.36a.24.24 0 0 1-.04.14 1.28 1.28 0 0 0-.08.13q-.02.06-.02.18t-.02.16q-.2.15-.21.2a.3.3 0 0 1-.06.07.46.46 0 0 1-.15.13q-.08.04-.12.14a.17.17 0 0 0-.03.1.14.14 0 0 0 0 .02.15.15 0 0 1 0 .02.26.26 0 0 1-.03.12 1.27 1.27 0 0 1-.31.4 2.31 2.31 0 0 0-.38.44l-.43.7a5.98 5.98 0 0 1-.48.68 5.5 5.5 0 0 1-.25.3 5.5 5.5 0 0 0-.24.3 2.1 2.1 0 0 0-.18.25 48.4 48.4 0 0 1-.17.29 23.8 23.8 0 0 0-.41.53 23.8 23.8 0 0 1-.41.54 9.31 9.31 0 0 1-.51.65q-.28.33-.49.66a6.23 6.23 0 0 1-.45.64 6.87 6.87 0 0 1-.5.57q-.09.06-.2.18a.34.34 0 0 1-.24.11q-.08 0-.12-.06-.05-.05-.15-.05l-.12.02a4.37 4.37 0 0 1-.23.03Zm42.56-1.6v.62a1.42 1.42 0 0 0 .02.23q.02.12.02.26a.38.38 0 0 1-.12.3l-.13-.01h-.13q-.21 0-.3.08a45.81 45.81 0 0 1-.42-.04 4.13 4.13 0 0 0-.4-.02q-.34 0-.73.1a.97.97 0 0 1-.07-.37 1.05 1.05 0 0 1 0-.04q.01-.22-.09-.4a.9.9 0 0 1-.03-.1v-.11q.05-.23.05-.32v-.19l-.02-.55a2.73 2.73 0 0 1 0-.2 2.6 2.6 0 0 1 .02-.36q0-.1.03-.18a.5.5 0 0 0 .03-.17.2.2 0 0 0-.04-.14.13.13 0 0 1-.04-.1l.01-.2a.3.3 0 0 1 .05-.17 4.55 4.55 0 0 1 .01-.3 4.26 4.26 0 0 0 .01-.28q0-.32-.02-.63l-.02-.6q0-.14-.02-.18l-.04-.06-.06-.03a.1.1 0 0 1-.05-.07 6.9 6.9 0 0 0 .02-.62 6.95 6.95 0 0 0-.08-1.1 11.05 11.05 0 0 1-.14-1.73.42.42 0 0 1 .04-.2q.04-.08.1-.12a.7.7 0 0 0 .1-.08q.05-.05.07-.15.16.04.28 0a.52.52 0 0 1 .2.2.4.4 0 0 0 .2.19q.12.06.26.06a.63.63 0 0 1 .23.04q.08.04.12.1l.08.11a1.1 1.1 0 0 0 .36.18.69.69 0 0 1 .32.17 1.2 1.2 0 0 1 .2.45 5.03 5.03 0 0 1 .12.58 9.52 9.52 0 0 1 .06.6 4.6 4.6 0 0 0 .05.52 19.52 19.52 0 0 0 .1.9 6.72 6.72 0 0 1 .06.88 11.05 11.05 0 0 1-.04.92 11.05 11.05 0 0 0-.04.92v.58a.9.9 0 0 1-.17.55 1.3 1.3 0 0 0-.02.27ZM67.1 6.86a.48.48 0 0 0-.19-.27l-.28-.25a2.15 2.15 0 0 0-.32-.23 1.16 1.16 0 0 1-.3-.24 3.44 3.44 0 0 1-.19-.25 3.44 3.44 0 0 0-.19-.24 77.53 77.53 0 0 0-.7-.78q-.37-.4-.64-.86a2.18 2.18 0 0 1-.33-.27 1.25 1.25 0 0 0-.38-.26.6.6 0 0 0-.03.2.66.66 0 0 0 0 .05l.01.24a9.7 9.7 0 0 1-.04.88 9.49 9.49 0 0 0-.03.86 43.73 43.73 0 0 0 .05 2.08 43.31 43.31 0 0 1 .04 2.06l.01.78a6.33 6.33 0 0 0 .07.78.68.68 0 0 0-.04.22 1.1 1.1 0 0 0 .04.25.94.94 0 0 0 .27-.24 28 28 0 0 0 .2-.29 43.27 43.27 0 0 0 .66-.87 293.58 293.58 0 0 1 .65-.88q.21-.3.44-.58a10.85 10.85 0 0 0 .44-.6q.06-.07.18-.27a21.49 21.49 0 0 0 .26-.4l.23-.38a.63.63 0 0 0 .1-.24ZM47.52 3.94l-.22-.03a1.76 1.76 0 0 0-.26-.35l-.3-.3.02.41v.41a24.86 24.86 0 0 1-.03 1.22q-.03.6-.03 1.2a10.83 10.83 0 0 0 .06 1.16 1.26 1.26 0 0 0 .74-.24 2.68 2.68 0 0 0 .25-.2 2.68 2.68 0 0 1 .26-.2 14.88 14.88 0 0 0 .36-.24l.4-.28a6.01 6.01 0 0 0 .4-.28q.19-.15.3-.28-.45-.57-.96-1.03-.52-.46-.99-.97Zm27.17 0-.22-.03a1.76 1.76 0 0 0-.26-.35l-.3-.3.02.41v.41a24.86 24.86 0 0 1-.03 1.22q-.03.6-.03 1.2a10.83 10.83 0 0 0 .06 1.16 1.26 1.26 0 0 0 .74-.24 2.68 2.68 0 0 0 .25-.2 2.68 2.68 0 0 1 .26-.2 14.88 14.88 0 0 0 .36-.24l.4-.28a6.01 6.01 0 0 0 .4-.28q.18-.15.3-.28-.45-.57-.97-1.03-.51-.46-.98-.97Zm-52.64 5.2-.14-.18a19.08 19.08 0 0 1-.53-.79q-.25-.38-.36-.85l.57-.4a4.08 4.08 0 0 1 .44-.26 29.14 29.14 0 0 1 .46-.22 2.17 2.17 0 0 0 .42-.27q.16 0 .21.02a.21.21 0 0 1 .08.04.38.38 0 0 1 .05.07q.03.05.13.1.14.3.3.51.05.08.13.14a.35.35 0 0 1 .12.16.43.43 0 0 1 .07.16q.04.13.08.19a1.17 1.17 0 0 0 .24.35.56.56 0 0 1 .17.35.68.68 0 0 1-.04.22 1.8 1.8 0 0 0-.05.21q-.02.12-.02.25 0 .12-.08.22-.1.1-.22.12-.11.02-.21.1a1.84 1.84 0 0 0-.12.13 3.07 3.07 0 0 0-.16.22 12.63 12.63 0 0 0-.14.22.35.35 0 0 0-.07.17 3.1 3.1 0 0 1-.24.01.48.48 0 0 1-.06 0h-.15a1.2 1.2 0 0 0-.2-.16q-.11-.07-.27-.13-.04-.15-.18-.36l-.23-.34Zm62.13 0-.14-.18a19.08 19.08 0 0 1-.53-.79q-.25-.38-.37-.85l.58-.4a4.08 4.08 0 0 1 .44-.26 29.14 29.14 0 0 1 .46-.22 2.17 2.17 0 0 0 .42-.27q.15 0 .21.02a.21.21 0 0 1 .08.04.38.38 0 0 1 .05.07q.03.05.13.1.13.3.3.51.05.08.13.14a.35.35 0 0 1 .12.16.43.43 0 0 1 .07.16q.04.13.08.19a1.17 1.17 0 0 0 .23.35.56.56 0 0 1 .18.35.68.68 0 0 1-.04.22 1.8 1.8 0 0 0-.06.21q-.02.12-.02.25 0 .12-.07.22-.1.1-.22.12-.12.02-.21.1a1.84 1.84 0 0 0-.12.13 3.07 3.07 0 0 0-.16.22 12.63 12.63 0 0 0-.14.22.35.35 0 0 0-.07.17 3.1 3.1 0 0 1-.24.01.48.48 0 0 1-.06 0h-.15a1.2 1.2 0 0 0-.2-.16q-.11-.07-.27-.13-.04-.15-.18-.36l-.23-.34Zm21.85-7.08a.3.3 0 0 0 .12-.26q0-.16-.23-.32a14.66 14.66 0 0 1-.37-.25q-.12-.06-.2-.19l-.18-.25a1.3 1.3 0 0 0-.2-.22.38.38 0 0 0-.26-.1q-.16 0-.24.1-.08.1-.23.11a7.69 7.69 0 0 0-.64.59 11.2 11.2 0 0 1-.63.6 4.82 4.82 0 0 0-.31.35l-.34.42a.19.19 0 0 1-.1.07q-.05.02-.05.1a7.18 7.18 0 0 1 .21.34.66.66 0 0 0 .45.25.33.33 0 0 0 .2.1 4.85 4.85 0 0 1 .25.04 2.34 2.34 0 0 1 .42.14q.24.1.4.1.1 0 .25-.09l.29-.22.28-.26a8.45 8.45 0 0 0 .22-.2q.2-.18.34-.36.14-.19.34-.36a1.01 1.01 0 0 1 .22-.23Z" vector-effect="non-scaling-stroke" stroke-linecap="round" fill-rule="evenodd" font-size="12" stroke="#000" stroke-width=".94" fill="none" style="stroke:#000;stroke-width:.25mm;fill:none"/></svg>