<svg width="98.92" height="19.2" xmlns="http://www.w3.org/2000/svg"><path d="m17.31 13.69-.04-6.54q0-3 .06-5.84.02-.66.25-.98.23-.32.9-.32h3.83q.66 0 .9.3.22.32.27 1.13.05.8.1 4.33 1.55-1.58 3.74-1.58 2.2 0 3.45 1.08 1.26 1.08 1.3 2.98l.02 3.4q0 1.5-.02 2.02t-.27.75q-.25.23-.97.23l-3.84.04q-.64 0-.89-.23t-.25-.7l.02-4.87q0-.6-.3-.9-.3-.3-.75-.3t-.8.3q-.37.32-.39.88l-.12 4.82q-.02.38-.36.64-.34.26-.83.3-.49.04-1.09.04l-2.8-.04q-.38 0-.75-.27a.8.8 0 0 1-.37-.67ZM81.55 5.4l.04 6.14q0 2-.02 3.04t-.6 1.88q-.58.84-1.58 1.32-1.96.9-5.22.9t-5.34-.88q-.5-.22-.73-.47-.23-.25-.23-.88t.25-.93q.25-.3.6-.3.33 0 .83.24 1.54.76 3.08.76.7 0 1.26-.15t1-.61q.42-.46.42-1.18l-.02-1.06q0-.2-.12-.2-.06 0-.12.06-1.6 1.54-3.52 1.54t-3.2-1.22q-1.3-1.22-1.3-3.86 0-2.64 1.52-4 1.52-1.34 3.72-1.34t3.26 1.38q.02-.52.38-.8t.8-.32q.44-.04 1.6-.04l2.12.04q.38 0 .75.27t.37.67ZM7.8 15.03q-3.6 0-5.69-1.83Q.01 11.37.01 8.03q0-2.04.67-3.58t1.9-2.46Q4.98.17 8.94.17q2.56 0 5.12.7.98.32.98 1.58 0 1.72-1.08 1.72-.18 0-1.18-.16t-1.4-.16q-1.42 0-2.19.99T8.43 7.2q0 1.37.72 2.4.72 1.05 1.96 1.09.84.04 2.98.04 1.04 0 1.14.98.06.36.06.73t-.06.75q-.12.72-1.12 1.05-1 .33-2.88.56-1.88.23-3.44.23Zm51.24-1.26.02-4.88q0-.6-.3-.9-.3-.3-.75-.3t-.82.3q-.37.32-.37.88v1.22q0 2.64-.12 3.6-.06.34-.34.6-.28.26-.99.3-.7.06-1.4.06t-2.39-.08q-.48-.02-.76-.28t-.32-.6q-.14-1.3-.14-3.98 0-2.68.08-3.67.08-1 .3-1.3.22-.3.9-.3h3.9q.68 0 .91.3.23.3.3 1.03v.02q1.53-1.6 3.74-1.6t3.47 1.08q1.26 1.08 1.3 2.98l.02 3.4q0 1.5-.02 2.02t-.27.75q-.25.23-.97.23l-3.84.04q-.64 0-.89-.23t-.25-.7Zm-12.34.9h-4.24q-.64 0-.88-.23t-.26-.7v-.06l-.02-.1q-1.32 1.37-3.6 1.37-1.58 0-2.69-.8-1.1-.78-1.1-2.17 0-1.4.78-2.22.8-.83 1.88-1.13 1.1-.3 2.34-.3 1.25 0 2.45.24v-.08q0-1-.39-1.44-.39-.44-1.26-.44t-1.45.15q-.58.15-.88.3-.82.49-1.14.49-.32 0-.57-.3-.25-.3-.25-.93 0-.63.23-.87t.73-.48q1.74-.84 4.96-.84 6.52 0 6.58 4.24.04 1.8.04 3.3 0 1.5-.02 2.02t-.27.75q-.25.23-.97.23Zm51.82-5.04q0 5.44-7.46 5.44T83.6 9.63q0-2.58 1.9-4t5.56-1.42q3.66 0 5.56 1.42 1.9 1.42 1.9 4Zm-8.64 0q0 2.24 1.18 2.24t1.18-2.24q0-1.02-.24-1.57t-.94-.55q-.7 0-.94.55t-.24 1.57Zm-14.64.3V8.55q0-.48-.37-.76t-.83-.28q-1.18 0-1.18 1.73T74 10.97q.5 0 .87-.27t.37-.77ZM40.4 12.3q.88 0 .9-.34.04-.66.04-1.74 0-.42-.64-.42t-1.04.3q-.4.32-.4.92 0 .6.33.94.33.34.81.34Z" vector-effect="non-scaling-stroke" stroke-linecap="round" fill-rule="evenodd" font-size="12" stroke="#000" stroke-width=".94" fill="none" style="stroke:#000;stroke-width:.25mm;fill:none"/></svg>