<svg width="164.09" height="21.71" xmlns="http://www.w3.org/2000/svg"><path d="m126.45 6.29 2.12-2.25a2.5 2.5 0 0 1 1.09-.65q.65-.2 1.22-.24.3-.04.49.08a.46.46 0 0 1 .2.42.41.41 0 0 1-.2.36 1.61 1.61 0 0 1-.43.21 10.23 10.23 0 0 1-.53.15q-.27.06-.43.16-1.03.84-1.87 1.89-.84 1.04-1.5 2.18-.22.68-.46 1.3-.23.63-.23 1.37a7.4 7.4 0 0 0 0 .26 7.4 7.4 0 0 1 .02.27 2.6 2.6 0 0 0 .6.86 1.31 1.31 0 0 0 .94.39 1.1 1.1 0 0 0 .57-.18q.3-.17.45-.43a6.7 6.7 0 0 0 .27-.39 21.43 21.43 0 0 0 .4-.62l.4-.63.24-.4a5.9 5.9 0 0 1 .16-.31l.2-.36.15-.33.07-.16v-.08a5.53 5.53 0 0 1-.54.13 3.22 3.22 0 0 1-.57.05 2.7 2.7 0 0 1-.38-.03 1.58 1.58 0 0 1-.4-.11.9.9 0 0 1-.3-.21.52.52 0 0 1-.13-.38l.02-.23q.02-.14.07-.22a1.01 1.01 0 0 1 .43-.2 3.66 3.66 0 0 1 .56-.1l.6-.06q.31-.03.56-.12a9.3 9.3 0 0 0 .51-.2 19.81 19.81 0 0 1 .62-.26 7.75 7.75 0 0 1 .65-.23q.33-.1.6-.13a.53.53 0 0 1 .17.04 2.14 2.14 0 0 1 .23.1.92.92 0 0 1 .2.12.18.18 0 0 1 .07.13q0 .43-.23.6a14.17 14.17 0 0 1-.61.4 7.37 7.37 0 0 1 .02.54 7.41 7.41 0 0 1-.07 1.02 11.46 11.46 0 0 0-.1 1.56 47.9 47.9 0 0 0 .03 1.91 14.8 14.8 0 0 0 .2 1.9 1.29 1.29 0 0 1 .06.2 8.86 8.86 0 0 0 .09.34 13.27 13.27 0 0 1 .08.34 1.17 1.17 0 0 1 .04.2v.03a.87.87 0 0 1-.2.54.6.6 0 0 1-.48.26.92.92 0 0 1-.56-.2.78.78 0 0 1-.32-.46 16.97 16.97 0 0 1-.42-2.5q-.13-1.31-.17-2.46-.17.1-.29.3a3.26 3.26 0 0 0-.2.43 13.09 13.09 0 0 1-.19.45q-.1.22-.23.38a7.73 7.73 0 0 1-.98.93q-.53.42-1.25.42a2.86 2.86 0 0 1-1.16-.26 3.78 3.78 0 0 1-1.04-.67 3.45 3.45 0 0 1-.74-.97 2.47 2.47 0 0 1-.28-1.15 5.67 5.67 0 0 1 .27-1.71 9.7 9.7 0 0 1 .66-1.61l.25-.4a18.74 18.74 0 0 1 .35-.54l.34-.5a2.6 2.6 0 0 1 .22-.28ZM0 12.21v-.47a343.02 343.02 0 0 1 .37-3 124 124 0 0 0 .2-1.57q.08-.59.08-.68a117.64 117.64 0 0 0 .37-1.31q.2-.7.51-1.31.33-.6.83-1.02.51-.4 1.31-.4a3.75 3.75 0 0 1 .64.04q.28.05.54.17a3.48 3.48 0 0 1 .5.28q.24.17.51.4.2.18.22.22a.52.52 0 0 1 .03.23.8.8 0 0 1-.17.49.6.6 0 0 1-.5.23.75.75 0 0 1-.46-.12 2.82 2.82 0 0 1-.34-.3 2.47 2.47 0 0 0-.35-.29.83.83 0 0 0-.48-.13.92.92 0 0 0-.55.17q-.23.17-.4.42-.16.25-.25.57a4.55 4.55 0 0 0-.13.58l-.92 6.25v.19l-.02.22v.34a2.19 2.19 0 0 0 .04.41.95.95 0 0 0 .14.36.33.33 0 0 0 .3.14.34.34 0 0 0 .2-.08 7.2 7.2 0 0 0 1.62-1.45 20.13 20.13 0 0 0 1.28-1.77 3.93 3.93 0 0 1 .1-.18q.1-.15.18-.32l.17-.33.11-.24q.12-.26.18-.53t.15-.5a.9.9 0 0 1 .26-.39.84.84 0 0 1 .55-.15q.27 0 .52.24a.72.72 0 0 1 .26.54v.04q-.49 1.41-1.26 2.6a29.15 29.15 0 0 1-1.71 2.36 4.85 4.85 0 0 1-1.35 1.14 3.4 3.4 0 0 1-1.7.43h-.1a1.99 1.99 0 0 1-1.18-.99Q0 13.1 0 12.21Zm51.43-5.53v-.27a19.2 19.2 0 0 0-.03-1.05 101.68 101.68 0 0 1-.06-1.23 162.76 162.76 0 0 1-.06-1.6 68.97 68.97 0 0 1-.03-2.18.4.4 0 0 1 .2-.28q.15-.07.33-.07a.91.91 0 0 1 .71.3q.27.29.32.72a18.41 18.41 0 0 0-.03 1.08 19.6 19.6 0 0 0 0 .27q.01.7.07 1.58a43.05 43.05 0 0 0 .19 1.99 182.32 182.32 0 0 0 .32 2.62l.47 3.48.64 4.54v.67a.2.2 0 0 1-.08.17q-.1.06-.22.1a1.71 1.71 0 0 1-.25.03l-.19.01a1.4 1.4 0 0 1-.62-.17q-.34-.16-.4-.46L52 11.72a.06.06 0 0 0-.05-.07.45.45 0 0 0-.08 0q-.02 0-.27.42a7.13 7.13 0 0 1-.65.94 5.75 5.75 0 0 1-.97.94 1.9 1.9 0 0 1-1.18.43 2.05 2.05 0 0 1-1.44-.53 1.86 1.86 0 0 1-.57-1.45 2.23 2.23 0 0 1 0-.18 3.77 3.77 0 0 1 .13-.93 7.8 7.8 0 0 1 .48-1.34q.33-.7.78-1.34.46-.66 1-1.14.52-.48 1.1-.71.57-.24 1.16-.08Zm55.15 6.43-.08-.24a12.35 12.35 0 0 0-.27.64 3.62 3.62 0 0 1-.31.61q-.18.28-.43.46-.25.19-.64.19a1.82 1.82 0 0 1-1.14-.34 2.68 2.68 0 0 1-.73-.87q-.28-.51-.4-1.12a5.98 5.98 0 0 1-.12-1.13l.16-4.73a.35.35 0 0 1 0-.05.45.45 0 0 1 .07-.23 1.14 1.14 0 0 1 .23-.27 1.24 1.24 0 0 1 .33-.2q.19-.09.34-.09a1.1 1.1 0 0 1 .77.29q.3.28.3.73v.2a3.62 3.62 0 0 0-.36.91 9.2 9.2 0 0 0-.25 1.22 12.79 12.79 0 0 0-.1 1.34 10.44 10.44 0 0 0 0 .3 7.97 7.97 0 0 0 .05.95q.06.57.22.97t.41.48q.1 0 .3-.1.2-.1.44-.37a3.99 3.99 0 0 0 .49-.77 6.04 6.04 0 0 0 .45-1.32 13.64 13.64 0 0 0 .3-2 23.3 23.3 0 0 0 .06-1.9 37.83 37.83 0 0 0 0-.9q.07-.22.22-.24.14-.02.3-.02h.3q.1.02.25.16a1.55 1.55 0 0 1 .21.29 1.3 1.3 0 0 1 .12.21l.33 8.65a.76.76 0 0 1-.16.5.54.54 0 0 1-.45.19l-.23-.02a1.08 1.08 0 0 1-.27-.08q-.14-.06-.25-.14a.33.33 0 0 1-.13-.21l-.33-1.95Zm-29.6 2.24v-.7a2.83 2.83 0 0 0-.24-.28 10.21 10.21 0 0 1-.48-.59 46.85 46.85 0 0 1-.97-1.3 105.7 105.7 0 0 1-1.68-2.44 2.6 2.6 0 0 1-.52-.71q-.12-.29-.08-.46a.35.35 0 0 1 .2-.26q.17-.07.33-.07a1.4 1.4 0 0 1 .7.17 2.33 2.33 0 0 1 .57.45q.25.28.45.6a34.55 34.55 0 0 0 .4.61l.3.45.35.54.3.46.13.2.23.25v-2.05a45.28 45.28 0 0 0-.03-1.9 44.8 44.8 0 0 1-.05-1.9.58.58 0 0 1 .2-.44.6.6 0 0 1 .42-.16.76.76 0 0 1 .05 0 1.7 1.7 0 0 1 .5.12.99.99 0 0 1 .34.31.78.78 0 0 1 .15.47 1.03 1.03 0 0 1 0 .04v.57a236.92 236.92 0 0 1 .13 3.7 139.95 139.95 0 0 1 .05 3.7 8.1 8.1 0 0 0-.02.71l.01 1.22a1266.16 1266.16 0 0 1 .02 1.43l.02 1.35.02 1.02a1.53 1.53 0 0 0 .03.38h0a.48.48 0 0 1-.2.43.88.88 0 0 1-.5.14q-.4 0-.58-.11-.19-.1-.28-.3-.1-.18-.14-.41-.04-.24-.14-.5a13.04 13.04 0 0 1-.05-.99v-1.23a89 89 0 0 1 0-1.3 21.56 21.56 0 0 1 .05-1.22Zm15.4-5.9v-.29l-.3-.15q-.09-.04-.4-.26a41.96 41.96 0 0 1-.7-.49 32.04 32.04 0 0 1-.75-.55q-.37-.29-.56-.46a4.81 4.81 0 0 1-.38-.3q-.27-.23-.55-.5a46 46 0 0 1-.54-.5l-.35-.34a2.36 2.36 0 0 1-.29-.37.75.75 0 0 1-.14-.42.51.51 0 0 1 .26-.47 1.08 1.08 0 0 1 .54-.15 1.85 1.85 0 0 1 .41.05.75.75 0 0 1 .38.2 22.05 22.05 0 0 0 1.66 1.64q.91.83 1.87 1.41l.08-.25.82-5.28q.04-.21.24-.27.2-.06.38-.06.51 0 .77.25a1.06 1.06 0 0 1 .27.8v.04l-.03.1a2.77 2.77 0 0 0-.06.18 2.64 2.64 0 0 0-.05.18l-.02.11a11.13 11.13 0 0 0-.15.91 90.1 90.1 0 0 0-.22 1.6 598.95 598.95 0 0 0-.25 2.04 2141.33 2141.33 0 0 0-.28 2.24 244.13 244.13 0 0 1-.27 2.17 124.12 124.12 0 0 1-.25 1.84 7.44 7.44 0 0 1 .03.45 1.46 1.46 0 0 1 0 .06 1.36 1.36 0 0 1-.07.43q-.08.23-.25.4a.64.64 0 0 1-.46.15 1.12 1.12 0 0 1-.65-.2q-.28-.2-.4-.54a5 5 0 0 0 .05-.38 10.96 10.96 0 0 1 .08-.57 44.82 44.82 0 0 0 .09-.57 24.08 24.08 0 0 1 .05-.38q.1-.88.25-1.75a10.5 10.5 0 0 0 .14-1.75Zm-28.1 1.47v-.16a256.83 256.83 0 0 0-.09-1.72q-.05-.9-.15-1.73l-.25-.01q-.18-.01-.35-.07a1.39 1.39 0 0 1-.31-.15.26.26 0 0 1-.14-.22 1.01 1.01 0 0 1 .1-.44q.11-.23.27-.43l.32-.37.29-.29V2.36q0-.25.25-.38a1.06 1.06 0 0 1 .47-.12q.55 0 .7.25a1.22 1.22 0 0 1 .18.58 6.9 6.9 0 0 1 .01.41 5.96 5.96 0 0 1 0 .2.75.75 0 0 0 0 .03.33.33 0 0 0 .2.34 8.02 8.02 0 0 0 .67-.37q.3-.2.61-.35.3-.16.63-.25.32-.1.69-.1a2.04 2.04 0 0 1 .38.04 1.46 1.46 0 0 1 .38.13q.18.08.3.23a.6.6 0 0 1 .11.38 2.55 2.55 0 0 1-.11.8 4.72 4.72 0 0 1-.3.7 13.56 13.56 0 0 1-.37.67q-.2.33-.35.68a2.63 2.63 0 0 1 .3.03 8.64 8.64 0 0 0 .44.05 8.64 8.64 0 0 1 .45.05 2.63 2.63 0 0 0 .3.03 5.97 5.97 0 0 1 .73.2q.42.13.78.36.36.24.61.56.26.32.26.73a2.58 2.58 0 0 1-.17.9q-.17.45-.4.8l-.23.33-.32.43a19.95 19.95 0 0 1-.28.39l-.15.18-3.73 3.22a1.24 1.24 0 0 1-.33.2 1 1 0 0 1-.33.06q-.14 0-.4-.03-.27-.03-.54-.09t-.48-.16q-.2-.1-.22-.25l-.43-3.3Zm-39.5-.16-.07.16a1.24 1.24 0 0 0-.07.34 93.88 93.88 0 0 1-.07.6 21.43 21.43 0 0 0-.07.67 6.8 6.8 0 0 0-.03.56l.02.04.06.03a.41.41 0 0 0 .3-.13.83.83 0 0 1 .29-.2l3.12-2.89.8-1.23q.1-.14.38-.3a1.2 1.2 0 0 1 .58-.18.83.83 0 0 1 .03 0 .72.72 0 0 1 .49.19q.22.2.22.76a4.37 4.37 0 0 1-.09.55q-.04.2-.16.35-.12.15-.33.32a30.18 30.18 0 0 0-.59.47 28.13 28.13 0 0 0-.92.8q-.54.48-1.33 1.26a453.1 453.1 0 0 0-.64.6 5.53 5.53 0 0 1-.7.56 3.98 3.98 0 0 1-.75.4 2.19 2.19 0 0 1-.82.16q-.84 0-1.23-.57-.39-.56-.39-1.3a9.58 9.58 0 0 1 .03-.83 6.97 6.97 0 0 1 .15-.85 33.47 33.47 0 0 1-.37-.35q-.16-.14-.16-.4a.37.37 0 0 1 .1-.31q.12-.08.26-.1a3.6 3.6 0 0 0 .29-.08q.13-.04.2-.15a58.13 58.13 0 0 1 .14-.43 867.42 867.42 0 0 0 .22-.66 64.06 64.06 0 0 1 .23-.64l.14-.42.3-.67q.17-.35.4-.62a1.94 1.94 0 0 1 .53-.45 1.4 1.4 0 0 1 .7-.17 1.15 1.15 0 0 1 .58.21 4 4 0 0 1 .66.52 3.64 3.64 0 0 1 .52.63 1.1 1.1 0 0 1 .22.57 1.08 1.08 0 0 1-.14.54 2.05 2.05 0 0 1-.34.45q-.2.2-.44.38a17.46 17.46 0 0 0-.43.33.2.2 0 0 0-.08.04.95.95 0 0 1-.1.06l-.08.08-.15.15a3.22 3.22 0 0 0-.14.16l-.1.1-.22.18a48.7 48.7 0 0 1-.36.27 48.7 48.7 0 0 0-.36.28 5.36 5.36 0 0 1-.22.16Zm15.67 0-.08.16a1.24 1.24 0 0 0-.07.34 93.88 93.88 0 0 1-.06.6 21.43 21.43 0 0 0-.07.67 6.8 6.8 0 0 0-.03.56l.02.04.06.03a.41.41 0 0 0 .29-.13.83.83 0 0 1 .3-.2l3.12-2.89.8-1.23q.1-.14.38-.3a1.2 1.2 0 0 1 .58-.18.83.83 0 0 1 .02 0 .72.72 0 0 1 .5.19q.22.2.22.76a4.37 4.37 0 0 1-.1.55q-.04.2-.16.35-.11.15-.33.32a30.18 30.18 0 0 0-.59.47 28.13 28.13 0 0 0-.91.8q-.55.48-1.33 1.26a453.1 453.1 0 0 0-.65.6 5.53 5.53 0 0 1-.69.56 3.98 3.98 0 0 1-.75.4 2.19 2.19 0 0 1-.82.16q-.84 0-1.23-.57-.4-.56-.4-1.3a9.58 9.58 0 0 1 .04-.83 6.97 6.97 0 0 1 .14-.85 33.47 33.47 0 0 1-.37-.35q-.15-.14-.15-.4a.37.37 0 0 1 .1-.31q.11-.08.26-.1a3.6 3.6 0 0 0 .28-.08q.14-.04.2-.15a58.13 58.13 0 0 1 .14-.43 867.42 867.42 0 0 0 .23-.66 64.06 64.06 0 0 1 .22-.64l.15-.42q.13-.33.3-.67.17-.35.4-.62a1.94 1.94 0 0 1 .52-.45 1.4 1.4 0 0 1 .71-.17 1.15 1.15 0 0 1 .58.21 4 4 0 0 1 .65.52 3.64 3.64 0 0 1 .53.63 1.1 1.1 0 0 1 .21.57 1.08 1.08 0 0 1-.13.54 2.05 2.05 0 0 1-.34.45q-.2.2-.44.38a17.46 17.46 0 0 0-.43.33.2.2 0 0 0-.08.04.95.95 0 0 1-.1.06l-.09.08-.14.15a3.22 3.22 0 0 0-.15.16l-.09.1-.22.18a48.7 48.7 0 0 1-.36.27 48.7 48.7 0 0 0-.37.28 5.36 5.36 0 0 1-.22.16Zm117.66 0-.08.16a1.24 1.24 0 0 0-.07.34 93.88 93.88 0 0 1-.07.6 21.43 21.43 0 0 0-.07.67 6.8 6.8 0 0 0-.03.56l.02.04.06.03a.41.41 0 0 0 .3-.13.83.83 0 0 1 .29-.2l3.12-2.89.8-1.23q.1-.14.38-.3a1.2 1.2 0 0 1 .58-.18.83.83 0 0 1 .03 0 .72.72 0 0 1 .49.19q.22.2.22.76a4.37 4.37 0 0 1-.09.55q-.04.2-.16.35-.12.15-.33.32a30.18 30.18 0 0 0-.59.47 28.13 28.13 0 0 0-.92.8q-.54.48-1.33 1.26a453.1 453.1 0 0 0-.64.6 5.53 5.53 0 0 1-.7.56 3.98 3.98 0 0 1-.75.4 2.19 2.19 0 0 1-.81.16q-.84 0-1.24-.57-.39-.56-.39-1.3a9.58 9.58 0 0 1 .03-.83 6.97 6.97 0 0 1 .15-.85 33.47 33.47 0 0 1-.37-.35q-.16-.14-.16-.4a.37.37 0 0 1 .11-.31q.1-.08.25-.1a3.6 3.6 0 0 0 .29-.08q.13-.04.2-.15a58.13 58.13 0 0 1 .14-.43 867.42 867.42 0 0 0 .22-.66 64.06 64.06 0 0 1 .23-.64l.14-.42.3-.67q.17-.35.4-.62a1.94 1.94 0 0 1 .53-.45 1.4 1.4 0 0 1 .7-.17 1.15 1.15 0 0 1 .58.21 4 4 0 0 1 .66.52 3.64 3.64 0 0 1 .53.63 1.1 1.1 0 0 1 .21.57 1.08 1.08 0 0 1-.14.54 2.05 2.05 0 0 1-.34.45q-.2.2-.44.38a17.46 17.46 0 0 0-.43.33.2.2 0 0 0-.07.04.95.95 0 0 1-.1.06l-.1.08-.14.15a3.22 3.22 0 0 0-.14.16l-.1.1-.22.18a48.7 48.7 0 0 1-.36.27 48.7 48.7 0 0 0-.36.28 5.36 5.36 0 0 1-.22.16Zm-12.27-1.38-.08-.1-.4.75-.48.94q-.25.5-.55 1-.3.5-.63.9a4.28 4.28 0 0 1-.67.7 1.53 1.53 0 0 1-.72.34q-.16 0-.36-.03-.2-.03-.39-.1a.84.84 0 0 1-.32-.2.46.46 0 0 1-.13-.34 23.4 23.4 0 0 1 .3-3.62 10.94 10.94 0 0 1 .86-2.87 6.37 6.37 0 0 1 1.5-2.06A5.38 5.38 0 0 1 146 3.52a1.96 1.96 0 0 0 .14-.01 1.96 1.96 0 0 1 .15-.01 1.18 1.18 0 0 1 .04 0 .85.85 0 0 1 .81.53q.26.56.39 1.76t.18 3.09a138.89 138.89 0 0 0 .2 4.52q.06.21.07.37v.37a.54.54 0 0 1-.17.44.68.68 0 0 1-.45.15q-.56 0-.8-.32a1.83 1.83 0 0 1-.3-.84 10.92 10.92 0 0 0-.04-.3l-.08-.68a27.9 27.9 0 0 1-.08-.77 29.27 29.27 0 0 1-.06-.65v-.07a3.07 3.07 0 0 1-.05-.5 5.24 5.24 0 0 0-.05-.56 11.42 11.42 0 0 1-.06-.66Zm3.16 3q-.13-.58.01-1.38a8.5 8.5 0 0 1 .47-1.61 8.37 8.37 0 0 1 .8-1.54 4.98 4.98 0 0 1 1.02-1.15q.54-.43 1.1-.48a1.04 1.04 0 0 1 .08 0 1.34 1.34 0 0 1 .98.5l.02.1a2.47 2.47 0 0 1 .04.32 12.66 12.66 0 0 1 .03.68 57.2 57.2 0 0 1 0 1.2 1.06 1.06 0 0 1 .05.13.47.47 0 0 1 .03.13q-.06.21-.22.4a.54.54 0 0 1-.42.18q-.33 0-.54-.1a.74.74 0 0 1-.3-.52.26.26 0 0 0 .03-.13 1.06 1.06 0 0 0-.01-.12l-.07-.42a11.85 11.85 0 0 1-.09-.46 2.4 2.4 0 0 1-.04-.37l-.04.02-.05.05q-.34.59-.62 1.3-.28.71-.43 1.45a5.56 5.56 0 0 0-.1 1.1 5.37 5.37 0 0 0 0 .35 2.75 2.75 0 0 0 .42 1.31.72.72 0 0 0 .51-.22 4.4 4.4 0 0 0 .4-.42 26.84 26.84 0 0 0 .65-.8 8.77 8.77 0 0 0 .6-.86l.17-.36a.79.79 0 0 1 .14-.25q.1-.1.23-.15.14-.06.4-.06a1.22 1.22 0 0 1 .6.14.5.5 0 0 1 .27.48 2.35 2.35 0 0 1-.4 1.12 7.8 7.8 0 0 1-.98 1.3 7.12 7.12 0 0 1-1.22 1.07 2.1 2.1 0 0 1-1.13.44 2.31 2.31 0 0 1-.91-.19 2.45 2.45 0 0 1-.76-.5 2.41 2.41 0 0 1-.52-.74q-.2-.43-.2-.94Zm-131.95-.37v-.07L14.9 6.72l-.02-.04V6.6q0-.17.11-.3a1.12 1.12 0 0 1 .27-.22l.15-.01.16-.01a.95.95 0 0 1 .53.11l.44.32a5.11 5.11 0 0 0 .2.6 55.02 55.02 0 0 1 .32.8l.48 1.2a1258.06 1258.06 0 0 1 .74 1.83l.1.1a1.19 1.19 0 0 0 .1-.26l.18-.54a153.63 153.63 0 0 0 .36-1.14 109.31 109.31 0 0 1 .67-2 1.66 1.66 0 0 0 .21-.6q.06-.33.14-.62.08-.3.24-.49a.64.64 0 0 1 .52-.2 1 1 0 0 1 .65.27q.3.26.3.63a.78.78 0 0 1-.1.39 2.22 2.22 0 0 1-.24.34l-2.39 7.93h-.11l-.23-.02q-.14-.02-.3-.07a1.84 1.84 0 0 1-.27-.1q-.12-.07-.14-.14L17.05 12Zm16.78 1.7v.69l-.27.25a.5.5 0 0 1-.34.1.96.96 0 0 1-.64-.29 1.4 1.4 0 0 1-.41-.57 106 106 0 0 0-.13-1.89 242 242 0 0 0-.2-2.45 129.56 129.56 0 0 0-.22-2.4 88.77 88.77 0 0 0-.2-1.76.32.32 0 0 1 .24-.33 1.42 1.42 0 0 1 .45-.08 1.26 1.26 0 0 1 .58.16.7.7 0 0 1 .38.43l.02.28a8.5 8.5 0 0 1 .03.42 8.5 8.5 0 0 0 .03.42l.02.28v.28a.34.34 0 0 0 .02.11 5.34 5.34 0 0 1 .05.2 1.48 1.48 0 0 0 .1-.1l.06-.08a9.95 9.95 0 0 1 .6-.79 9.55 9.55 0 0 1 .61-.64 24.95 24.95 0 0 1 .7-.65 168.95 168.95 0 0 1 .88-.79l.18-.14a.87.87 0 0 1 .1-.08.3.3 0 0 1 .11-.04l.16-.01a1.22 1.22 0 0 1 .67.22q.35.23.35.62a.51.51 0 0 1-.1.28 1.54 1.54 0 0 1-.24.28 2.25 2.25 0 0 1-.28.22q-.15.1-.26.14a21.43 21.43 0 0 0-1.08 1.02q-.56.58-1.05 1.24a7.08 7.08 0 0 0-.8 1.39q-.32.72-.32 1.45 0 .66.1 1.3.1.65.1 1.31Zm78.18 0v.69l-.27.25a.5.5 0 0 1-.33.1.96.96 0 0 1-.65-.29 1.4 1.4 0 0 1-.4-.57 106 106 0 0 0-.13-1.89 242 242 0 0 0-.2-2.45 129.56 129.56 0 0 0-.22-2.4 88.77 88.77 0 0 0-.2-1.76.32.32 0 0 1 .23-.33 1.42 1.42 0 0 1 .45-.08 1.26 1.26 0 0 1 .58.16.7.7 0 0 1 .38.43l.02.28a8.5 8.5 0 0 1 .03.42 8.5 8.5 0 0 0 .03.42l.02.28v.28a.34.34 0 0 0 .02.11 5.34 5.34 0 0 1 .06.2 1.48 1.48 0 0 0 .08-.1l.07-.08a9.95 9.95 0 0 1 .6-.79 9.55 9.55 0 0 1 .61-.64 24.95 24.95 0 0 1 .7-.65 168.95 168.95 0 0 1 .89-.79l.17-.14a.87.87 0 0 1 .1-.08.3.3 0 0 1 .12-.04l.15-.01a1.22 1.22 0 0 1 .68.22q.34.23.34.62a.51.51 0 0 1-.1.28 1.54 1.54 0 0 1-.23.28 2.25 2.25 0 0 1-.29.22q-.14.1-.26.14a21.43 21.43 0 0 0-1.08 1.02q-.56.58-1.05 1.24a7.08 7.08 0 0 0-.8 1.39q-.31.72-.31 1.45 0 .66.1 1.3.1.65.1 1.31Zm24.77 0v.69l-.28.25a.5.5 0 0 1-.33.1.96.96 0 0 1-.64-.29 1.4 1.4 0 0 1-.41-.57 106 106 0 0 0-.13-1.89 242 242 0 0 0-.2-2.45 129.56 129.56 0 0 0-.22-2.4 88.77 88.77 0 0 0-.2-1.76.32.32 0 0 1 .24-.33 1.42 1.42 0 0 1 .45-.08 1.26 1.26 0 0 1 .58.16.7.7 0 0 1 .38.43l.02.28a8.5 8.5 0 0 1 .03.42 8.5 8.5 0 0 0 .03.42l.01.28v.28a.34.34 0 0 0 .02.11 5.34 5.34 0 0 1 .06.2 1.48 1.48 0 0 0 .09-.1l.07-.08a9.95 9.95 0 0 1 .6-.79 9.55 9.55 0 0 1 .61-.64 24.95 24.95 0 0 1 .7-.65 168.95 168.95 0 0 1 .88-.79l.18-.14a.87.87 0 0 1 .1-.08.3.3 0 0 1 .11-.04l.16-.01a1.22 1.22 0 0 1 .67.22q.34.23.34.62a.51.51 0 0 1-.1.28 1.54 1.54 0 0 1-.23.28 2.25 2.25 0 0 1-.28.22q-.15.1-.27.14a21.43 21.43 0 0 0-1.07 1.02q-.56.58-1.05 1.24a7.08 7.08 0 0 0-.8 1.39q-.32.72-.32 1.45 0 .66.1 1.3.1.65.1 1.31ZM8.48 11.8v-.06l.72-5.02q.04-.25.23-.37a.77.77 0 0 1 .42-.12q.42 0 .68.25a2.15 2.15 0 0 1 .43.6h.02q.23 0 .42-.1a1.07 1.07 0 0 1 .46-.08q.62 0 1.06.39a3.05 3.05 0 0 1 .71.94q.28.56.4 1.2a5.95 5.95 0 0 1 .13 1.14q0 .58-.3 1.3a6.06 6.06 0 0 1-.8 1.37 5 5 0 0 1-1.13 1.08 2.22 2.22 0 0 1-1.27.43 1.8 1.8 0 0 1-1-.28q-.42-.27-.68-.69-.27-.42-.38-.95a4.76 4.76 0 0 1-.12-1.03Zm87.61 0v-.06l.73-5.02q.04-.25.22-.37a.77.77 0 0 1 .42-.12q.43 0 .69.25a2.15 2.15 0 0 1 .42.6h.03q.23 0 .42-.1a1.07 1.07 0 0 1 .45-.08q.63 0 1.07.39a3.05 3.05 0 0 1 .71.94q.27.56.4 1.2a5.95 5.95 0 0 1 .13 1.14q0 .58-.3 1.3a6.06 6.06 0 0 1-.8 1.37 5 5 0 0 1-1.13 1.08 2.22 2.22 0 0 1-1.27.43 1.8 1.8 0 0 1-1-.28q-.42-.27-.69-.69-.26-.42-.38-.95a4.76 4.76 0 0 1-.11-1.03ZM65.8 9.6l.4 3.4h.02a1.13 1.13 0 0 0 .3-.06.66.66 0 0 0 .25-.12l.26-.21.4-.33a36.85 36.85 0 0 0 .4-.34q.19-.15.29-.21a65.18 65.18 0 0 0 .79-.67q.46-.38.87-.83.4-.43.69-.9a1.77 1.77 0 0 0 .28-.92q0-.3-.2-.46a1.47 1.47 0 0 0-.47-.26 2.54 2.54 0 0 0-.59-.13 5.5 5.5 0 0 0-.51-.03 2.08 2.08 0 0 0-.77.14 3.24 3.24 0 0 0-.66.35 5.18 5.18 0 0 0-.6.48 21.75 21.75 0 0 1-.57.51.73.73 0 0 1-.17.12 1.4 1.4 0 0 0-.2.14 1.3 1.3 0 0 0-.17.16.2.2 0 0 0-.05.13.22.22 0 0 0 0 .04Zm79.54-4.2q-.52.4-1.03 1.06a4.63 4.63 0 0 0-.73 1.29 9.19 9.19 0 0 0-.21.8q-.12.5-.2 1a25.95 25.95 0 0 0-.15.92q-.06.42-.06.54.02 0 .05-.04l.05-.06a6.78 6.78 0 0 0 1.7-2.53 10 10 0 0 0 .58-2.98Zm-96.91 6.66-.01.2a2.24 2.24 0 0 0 0 .16 2.47 2.47 0 0 0 0 .15 1.08 1.08 0 0 0 .05.27.15.15 0 0 0 .15.12 1.17 1.17 0 0 0 .05 0 1.6 1.6 0 0 0 .96-.37 4.78 4.78 0 0 0 .95-.97q.43-.57.71-1.24.28-.66.31-1.19a1.74 1.74 0 0 0 0-.1.96.96 0 0 0-.25-.71.72.72 0 0 0-.53-.18 1.98 1.98 0 0 0-.44.05q-.84.75-1.4 1.7-.55.96-.55 2.11Zm-38.3-.27v.06a10.31 10.31 0 0 1 .08.45q.04.25.11.46.08.2.23.3.15.12.42.02l.54-.53q.3-.3.56-.63a3.62 3.62 0 0 0 .44-.7 1.8 1.8 0 0 0 .18-.78 3.41 3.41 0 0 0 .02-.4 2.71 2.71 0 0 0-.12-.82 1.56 1.56 0 0 0-.5-.8.64.64 0 0 0-.4-.14.82.82 0 0 0-.33.08q-.41.19-.82 1a4.07 4.07 0 0 0-.32 1.19q-.1.67-.1 1.24Zm87.61 0v.06a10.31 10.31 0 0 1 .08.45q.04.25.12.46.08.2.22.3.15.12.42.02l.55-.53q.3-.3.56-.63a3.62 3.62 0 0 0 .44-.7 1.8 1.8 0 0 0 .17-.78 3.41 3.41 0 0 0 .03-.4 2.71 2.71 0 0 0-.12-.82 1.56 1.56 0 0 0-.5-.8.64.64 0 0 0-.4-.14.82.82 0 0 0-.33.08q-.41.19-.83 1a4.07 4.07 0 0 0-.32 1.19q-.08.67-.08 1.24ZM67.75 4.16h-.07a2.43 2.43 0 0 0-.14.08l-.2.14a1.78 1.78 0 0 1-.2.13l-.13.08-.2.16a24.27 24.27 0 0 0-.45.35 100.28 100.28 0 0 0-.45.36q-.2.17-.2.19v1.5h.07L65.9 7a20.57 20.57 0 0 1 .28-.32 9.04 9.04 0 0 0 .32-.38 21.08 21.08 0 0 1 .26-.31 3.77 3.77 0 0 1 .22-.32 6.83 6.83 0 0 0 .2-.27l.16-.3.19-.33.16-.3.06-.12v-.2ZM25.18 8.5l1.29-.84a.22.22 0 0 0 .08-.19.4.4 0 0 0 0-.05.56.56 0 0 0-.11-.27.37.37 0 0 0-.23-.15.18.18 0 0 0-.04 0 .27.27 0 0 0-.21.15 5.38 5.38 0 0 0-.2.31 30.87 30.87 0 0 0-.3.48 14.91 14.91 0 0 0-.24.42.46.46 0 0 0-.06.14q0 0 0 0a.03.03 0 0 0 .02 0Zm15.66 0 1.29-.84a.22.22 0 0 0 .08-.19.4.4 0 0 0 0-.05.56.56 0 0 0-.1-.27.37.37 0 0 0-.23-.15.18.18 0 0 0-.04 0 .27.27 0 0 0-.22.15 5.38 5.38 0 0 0-.2.31 30.87 30.87 0 0 0-.3.48 14.91 14.91 0 0 0-.24.42.46.46 0 0 0-.06.14q0 0 0 0a.03.03 0 0 0 .02 0Zm117.66 0 1.29-.84a.22.22 0 0 0 .08-.19.4.4 0 0 0 0-.05.56.56 0 0 0-.11-.27.37.37 0 0 0-.23-.15.18.18 0 0 0-.04 0 .27.27 0 0 0-.21.15 5.38 5.38 0 0 0-.2.31 30.87 30.87 0 0 0-.3.48 14.91 14.91 0 0 0-.24.42.46.46 0 0 0-.06.14q0 0 0 0a.03.03 0 0 0 .02 0Z" vector-effect="non-scaling-stroke" stroke-linecap="round" fill-rule="evenodd" font-size="12" stroke="#000" stroke-width=".94" fill="none" style="stroke:#000;stroke-width:.25mm;fill:none"/></svg>