<svg width="130.5" height="12.16" xmlns="http://www.w3.org/2000/svg"><path d="M94.92 10.75h-1.25V1h1.1a.5.5 0 0 0 .36-.13.38.38 0 0 0 .14-.28q0-.18-.14-.3a.5.5 0 0 0-.36-.13h-1.88a.46.46 0 0 0-.27.08.45.45 0 0 0-.17.21l-2.83 6.52L86.68.5q-.16-.34-.45-.34H84.3a.5.5 0 0 0-.36.12q-.13.13-.13.3a.39.39 0 0 0 .13.3.49.49 0 0 0 .35.12h1.16v9.75h-1.3a.47.47 0 0 0-.35.13.4.4 0 0 0-.13.3.4.4 0 0 0 .13.29q.13.12.36.12h3.39a.5.5 0 0 0 .37-.13q.13-.12.13-.3a.39.39 0 0 0-.13-.29q-.13-.12-.36-.12h-1.17v-8.7l2.6 5.78q.1.22.25.32.16.1.34.1a.64.64 0 0 0 .37-.12.8.8 0 0 0 .28-.35L92.73 2v8.75h-1.3a.49.49 0 0 0-.34.13q-.13.12-.13.28 0 .18.13.3a.5.5 0 0 0 .37.13h3.44a.5.5 0 0 0 .36-.13q.13-.12.13-.3a.4.4 0 0 0-.12-.29.47.47 0 0 0-.35-.12ZM9.65 3.52V.66a.48.48 0 0 0-.14-.37.48.48 0 0 0-.34-.13.48.48 0 0 0-.33.13.46.46 0 0 0-.15.36v1.03q-.26-.48-.78-.86-.53-.38-1.22-.6A4.79 4.79 0 0 0 5.24 0q-1.5 0-2.69.71a4.98 4.98 0 0 0-1.87 2Q0 4.01 0 5.67q0 1.82.68 3.2a5.12 5.12 0 0 0 1.87 2.14 4.94 4.94 0 0 0 2.7.75 5.07 5.07 0 0 0 2.32-.5 4.3 4.3 0 0 0 1.55-1.28q.58-.79.77-1.67l.01-.07a.37.37 0 0 0-.17-.3.62.62 0 0 0-.38-.13q-.3 0-.4.28a4.04 4.04 0 0 1-1.35 2.08 3.68 3.68 0 0 1-2.34.75 3.96 3.96 0 0 1-2.15-.62q-.99-.62-1.58-1.8a6.1 6.1 0 0 1-.6-2.77q0-1.41.54-2.53a4.09 4.09 0 0 1 1.5-1.74q.98-.62 2.3-.62a3.79 3.79 0 0 1 1.6.34 3.38 3.38 0 0 1 1.22.94q.5.6.64 1.4.04.21.17.33.13.13.3.13a.46.46 0 0 0 .32-.12q.13-.12.13-.34Zm106.78 2.8v4.47H115a.4.4 0 0 0-.3.11.38.38 0 0 0-.1.27.42.42 0 0 0 .1.3.43.43 0 0 0 .34.12h3.37q.2 0 .3-.12.11-.12.11-.29 0-.15-.1-.27a.36.36 0 0 0-.3-.12h-1.06V6.4q0-1.31-.68-2.02-.68-.72-2.06-.72a3.78 3.78 0 0 0-1.29.23 3.78 3.78 0 0 0-1.1.6 2.68 2.68 0 0 0-.72.87l-.05-1.17a.35.35 0 0 0-.38-.38l-.18.02-1.6.32q-.17.04-.25.15-.07.12-.07.25a.36.36 0 0 0 .1.26.37.37 0 0 0 .28.11.68.68 0 0 0 .2-.03l1.05-.21v6.12h-1.06a.4.4 0 0 0-.3.11.38.38 0 0 0-.1.27.42.42 0 0 0 .1.3.43.43 0 0 0 .34.12h2.96a.5.5 0 0 0 .36-.12.38.38 0 0 0 .13-.29.37.37 0 0 0-.12-.27.48.48 0 0 0-.35-.12h-1.02V6.68a1.68 1.68 0 0 1 .4-1.02 3.02 3.02 0 0 1 1.11-.87q.72-.34 1.61-.34a1.69 1.69 0 0 1 1.31.5 1.97 1.97 0 0 1 .45 1.37ZM14.4 9.06V4.1q0-.13-.1-.23a.32.32 0 0 0-.24-.1l-.11.02-1.71.34a.48.48 0 0 0-.27.14q-.08.1-.08.23a.4.4 0 0 0 .12.3.44.44 0 0 0 .33.12q.1 0 .16-.02l.96-.2v4.34a2.92 2.92 0 0 0 .34 1.43 2.34 2.34 0 0 0 .98.96q.64.34 1.52.34a3.94 3.94 0 0 0 1.77-.42 3.22 3.22 0 0 0 1.28-1.06l.05.85a.52.52 0 0 0 .13.37.45.45 0 0 0 .32.12h.07l1.82-.2a.47.47 0 0 0 .27-.15q.1-.13.1-.27 0-.15-.1-.25a.4.4 0 0 0-.29-.1h-.06l-1.44.11V4.1q0-.13-.1-.23a.32.32 0 0 0-.24-.1l-.11.02-1.7.34q-.19.04-.28.14-.1.1-.1.24a.4.4 0 0 0 .13.3.45.45 0 0 0 .34.12.55.55 0 0 0 .17-.03l.95-.2v4.65q-.22.45-.7.82a3.94 3.94 0 0 1-1.09.58 3.52 3.52 0 0 1-1.18.22 1.85 1.85 0 0 1-1.43-.53q-.48-.52-.48-1.37Zm34.43-4.23h.99l2.87 6.19q.2.45.37.58a.64.64 0 0 0 .4.13.58.58 0 0 0 .38-.12 1.46 1.46 0 0 0 .33-.54l2.6-6.24h.88q.4 0 .4-.4a.38.38 0 0 0-.44-.4h-2.55q-.39 0-.39.41 0 .4.38.4h.83l-2.38 5.85-2.61-5.85h1.06q.38 0 .38-.4a.35.35 0 0 0-.38-.4h-3.08q-.45 0-.45.4t.41.4Zm-20.97 0h3.63a.36.36 0 0 0 .28-.11.41.41 0 0 0 .1-.29q0-.15-.1-.27a.34.34 0 0 0-.27-.13h-3.64V1.7a.64.64 0 0 0-.06-.33.3.3 0 0 0-.29-.11.42.42 0 0 0-.4.25q-.13.25-.16.78a35.9 35.9 0 0 0-.02 1.74h-1.44a.4.4 0 0 0-.3.12.38.38 0 0 0-.11.26.42.42 0 0 0 .12.3.43.43 0 0 0 .33.13h1.4v5.1a1.39 1.39 0 0 0 .34.9 2.4 2.4 0 0 0 .93.67q.58.25 1.25.25.65 0 1.31-.15.67-.15 1.17-.4a2.12 2.12 0 0 0 .7-.48.25.25 0 0 0 .06-.14.52.52 0 0 0-.14-.34.37.37 0 0 0-.27-.16.14.14 0 0 0-.11.04 4.13 4.13 0 0 1-1.2.59 4.6 4.6 0 0 1-1.43.24 2.07 2.07 0 0 1-1.21-.33q-.47-.33-.47-1.03V4.84Zm34.4 2.98 6.15-.05q.34 0 .55-.23a.9.9 0 0 0 .2-.62 3.3 3.3 0 0 0-.45-1.77 2.89 2.89 0 0 0-1.25-1.11 4.2 4.2 0 0 0-1.81-.38 4.9 4.9 0 0 0-2.18.48 3.81 3.81 0 0 0-1.56 1.38 3.8 3.8 0 0 0-.58 2.1 4.24 4.24 0 0 0 .56 2.22q.55.93 1.55 1.43a5.12 5.12 0 0 0 2.31.5q.83 0 1.79-.32a3.47 3.47 0 0 0 1.46-.87.6.6 0 0 0 .17-.41q0-.18-.1-.3a.35.35 0 0 0-.29-.13.64.64 0 0 0-.4.16q-.56.53-1.26.8a4.03 4.03 0 0 1-1.45.27 3.59 3.59 0 0 1-2.43-.8 3.06 3.06 0 0 1-.97-2.35ZM45.72 10.8h-3.26V4q0-.15-.1-.24-.1-.08-.25-.08l-.1.01-3.9.54a.32.32 0 0 0-.23.13q-.07.11-.07.26 0 .17.1.29.1.12.3.12l.06-.01 3.26-.44v6.22h-3.64a.4.4 0 0 0-.3.11.38.38 0 0 0-.1.27.42.42 0 0 0 .11.3.43.43 0 0 0 .33.12h7.77a.38.38 0 0 0 .3-.12.4.4 0 0 0 .1-.28q0-.15-.1-.28a.36.36 0 0 0-.29-.12Zm51.8-3.08a4.28 4.28 0 0 0 .5 2.13q.53.92 1.46 1.42a4.55 4.55 0 0 0 2.17.5 4.55 4.55 0 0 0 2.17-.5 3.54 3.54 0 0 0 1.45-1.42 4.28 4.28 0 0 0 .52-2.13q0-1.24-.52-2.15-.51-.92-1.45-1.41a4.59 4.59 0 0 0-2.17-.5 4.59 4.59 0 0 0-2.17.5q-.93.49-1.45 1.4a4.3 4.3 0 0 0-.52 2.16Zm24.21 0a4.28 4.28 0 0 0 .52 2.13q.52.92 1.45 1.42a4.55 4.55 0 0 0 2.17.5 4.55 4.55 0 0 0 2.17-.5 3.54 3.54 0 0 0 1.45-1.42 4.28 4.28 0 0 0 .52-2.13q0-1.24-.52-2.15-.51-.92-1.45-1.41a4.59 4.59 0 0 0-2.17-.5 4.59 4.59 0 0 0-2.17.5q-.93.49-1.45 1.4a4.3 4.3 0 0 0-.52 2.16Zm-22.8-1.69a3.74 3.74 0 0 0-.36 1.69 3.76 3.76 0 0 0 .36 1.69q.37.74 1.07 1.15.7.4 1.65.4.96 0 1.66-.4.7-.41 1.06-1.15.37-.74.37-1.7 0-.94-.37-1.68a2.72 2.72 0 0 0-1.06-1.15q-.7-.42-1.66-.42-.95 0-1.65.42a2.72 2.72 0 0 0-1.07 1.15Zm24.22 0a3.74 3.74 0 0 0-.36 1.69 3.76 3.76 0 0 0 .36 1.69q.37.74 1.07 1.15.7.4 1.65.4.96 0 1.66-.4.7-.41 1.06-1.15.37-.74.37-1.7 0-.94-.37-1.68a2.72 2.72 0 0 0-1.06-1.15q-.7-.42-1.66-.42t-1.65.42a2.72 2.72 0 0 0-1.07 1.15Zm-54.8 1.03-6.04.04a2.87 2.87 0 0 1 1.06-1.94 3.63 3.63 0 0 1 2.3-.7 2.35 2.35 0 0 1 2.07.77 3.53 3.53 0 0 1 .6 1.83ZM40.98.97a.77.77 0 0 0 .23.56q.24.24.58.24.34 0 .57-.24.23-.23.23-.56a.78.78 0 0 0-.23-.58q-.24-.23-.57-.23-.33 0-.57.23-.24.24-.24.58Z" vector-effect="non-scaling-stroke" stroke-linecap="round" fill-rule="evenodd" font-size="12" stroke="#000" stroke-width=".94" fill="none" style="stroke:#000;stroke-width:.25mm;fill:none"/></svg>