<svg width="106.98" height="20.51" xmlns="http://www.w3.org/2000/svg"><path d="M2.14 16.15q-.62 0-1.18-.17-.56-.17-.96-.73.2-.96.49-2.07.29-1.1.63-2.28.34-1.17.69-2.3.35-1.13.67-2.1.32-.99.58-1.73l.4-1.12.2-.47q.14-.3.34-.63.2-.32.46-.55.26-.23.56-.23.28 0 .56.2-.62 1.44-1.25 3.18-.63 1.74-1.21 3.6-.58 1.84-1.06 3.6-.48 1.76-.8 3.2l.47.06a3.72 3.72 0 0 0 .39.02q1.28 0 2.47-.59 1.19-.59 2.22-1.62 1.03-1.03 1.81-2.36.78-1.33 1.21-2.82.43-1.49.43-2.97 0-1.62-.52-2.67-.52-1.05-1.44-1.55-.92-.5-2.14-.5-1.3 0-2.34.52-1.04.52-1.64 1.4-.6.88-.6 1.98 0 .24.03.42l.07.32q-.66 0-.93-.33t-.27-.79q0-.7.49-1.4.49-.72 1.36-1.32.87-.6 2.01-.97Q5.48.01 6.76.01q1.8 0 2.89.73t1.59 1.97q.5 1.24.5 2.78 0 1.74-.54 3.33-.54 1.6-1.49 2.92-.95 1.33-2.17 2.32-1.22 1-2.61 1.54-1.39.55-2.79.55Zm65.28 0q-1.08 0-2.04-.39t-1.55-1.19q-.59-.8-.59-2 0-1.04.41-1.62.41-.58 1.01-.82.6-.24 1.14-.24-.54.58-.82 1.28-.28.7-.28 1.4 0 .74.33 1.38.33.64 1.01 1.03.68.4 1.72.4.9 0 1.76-.34.86-.33 1.41-.98.55-.65.55-1.6 0-.87-.44-1.49t-1.13-1.1q-.69-.48-1.47-.92-.78-.44-1.47-.93-.69-.49-1.13-1.13-.44-.64-.44-1.54 0-.84.4-1.76t1.15-1.74q.75-.82 1.8-1.33 1.05-.5 2.35-.5 1.18 0 1.64.56.46.57.46 1.43 0 .72-.25 1.55-.25.83-.61 1.58-.36.75-.68 1.27-.36-.08-.51-.3-.15-.24-.15-.56 0-.42.18-.96t.41-1.12q.23-.58.41-1.13.18-.55.18-.99 0-.4-.24-.63Q71.7.5 71.06.5q-.94 0-1.74.44t-1.4 1.13q-.6.7-.93 1.45-.33.76-.33 1.38 0 .74.43 1.27t1.11.96q.68.43 1.45.86.77.43 1.45.95.68.52 1.11 1.23.43.71.43 1.73 0 1.04-.46 1.83-.46.8-1.23 1.33-.77.54-1.69.82-.92.28-1.84.28Zm-8.9-4.98.26.2q-.3.9-.96 1.64-.66.74-1.41 1.28-.75.54-1.37.84-.56 1.34-1.18 2.45-.62 1.11-1.29 1.77-.67.66-1.43.66-.44 0-.8-.27-.36-.27-.36-.89 0-.6.37-1.1.37-.52.95-.95.58-.43 1.27-.79l1.31-.68q.28-.7.53-1.5.25-.82.49-1.8-.76 1.1-1.59 1.83-.83.73-1.67.73-.72 0-1.11-.54-.39-.54-.39-1.4 0-1.04.51-1.98t1.33-1.66q.82-.72 1.74-1.13.92-.4 1.72-.4.58 0 .83.18.25.2.25.45 0 .18-.1.28-.1.1-.14.12-.1-.16-.3-.23-.2-.07-.5-.07-.78 0-1.51.46t-1.29 1.18q-.56.72-.89 1.5-.33.76-.33 1.4 0 .48.19.73t.51.25q.58 0 1.39-.77.81-.77 1.57-1.87l.11-.5.13-.56q.06-.28.29-.65.23-.37.73-.37l.2.01q.1.01.22.05 0 .32-.19 1.17-.19.85-.54 1.98-.35 1.13-.81 2.33.66-.32 1.29-.82.63-.5 1.15-1.15.52-.65.82-1.4Zm32.54 8.84q-.16 0-.31-.17t-.23-.36q-.08-.19-.08-.23.28-.98.55-1.75l.54-1.58q.27-.8.53-1.9.26-1.09.54-2.7.28-1.63.56-4.03.02-.18.08-.26.06-.08.3-.08.52 0 .74.3.22.28.22.62 0 .28-.12 1t-.34 1.7q.34-.66.85-1.34t1.17-1.14q.66-.46 1.44-.46.88 0 1.45.63t.57 1.65q0 .78-.35 1.65-.35.87-.98 1.64-.63.77-1.49 1.25t-1.9.48q-.52 0-.84-.12-.32-.12-.32-.24 0-.08.15-.09h.35q.8 0 1.53-.4.73-.39 1.31-1.03.58-.64.91-1.42.33-.78.33-1.54 0-.64-.27-1.09-.27-.45-.87-.45-.52 0-1.03.33t-.96.84q-.45.51-.8 1.06-.35.55-.53 1-.36 1.5-.72 2.88-.36 1.4-.69 2.52-.33 1.13-.6 1.85-.27.72-.45.88-.1.1-.24.1Zm-70.2-8.84.2.2q-.42 1.08-1.08 1.9-.66.82-1.41 1.28-.75.46-1.47.46-.74 0-1.09-.44-.35-.44-.35-.96l.02-.27.04-.3q-.86 1.15-1.57 1.73-.71.58-1.45.58-.62 0-1.05-.4-.43-.42-.43-1.26 0-.72.32-1.55.32-.83.88-1.64.56-.8 1.27-1.48.71-.67 1.5-1.07t1.57-.4q.78 0 1.3.41t.52 1.1q0 .5-.27.67-.27.18-.71.18l.07-.35q.03-.19.03-.35 0-.46-.22-.79t-.76-.33q-.56 0-1.14.4-.58.38-1.12 1.03-.54.65-.96 1.41-.42.76-.66 1.5-.24.74-.24 1.32 0 .78.54.78.46 0 1-.43t1.11-1.1q.57-.67 1.09-1.39.52-.72.92-1.32.08-.12.1-.12.12.02.31.08t.33.16q.14.1.14.26 0 .18-.18.5l-.4.7q-.22.4-.4.81-.18.41-.18.77 0 .3.16.6.16.28.52.28.54 0 1.42-.79.88-.79 1.78-2.37Zm79.64-2.8v-.36l.38.04.5.04q.42-1.08.9-2.09.48-1 .95-1.8.47-.79.9-1.26.43-.47.73-.47.16 0 .29.11.13.11.13.33 0 .34-.42 1.11t-1.04 1.83q-.62 1.06-1.2 2.3h.74l1.39-.02q.73-.02 1.47-.1v.36q-1.1.12-1.97.18-.87.06-1.55.06h-.3q-.46 1.06-.78 2.18T101.3 13q0 .86.26 1.23t.86.37q1.04 0 2.04-.92t1.76-2.5l.26.2q-.48 1.12-1.21 2.02-.73.9-1.61 1.42-.88.52-1.82.52-.86 0-1.32-.5-.46-.5-.46-1.48 0-.88.33-2.17t.83-2.65l-.38-.07q-.18-.03-.34-.09Zm-70.34 2.8.22.26q-.42.98-.94 1.74t-1.14 1.2q-.62.44-1.38.44-.7 0-1.05-.36-.35-.36-.35-.92 0-.42.15-.88l.29-.95q.14-.49.14-.95 0-.56-.23-.77-.23-.2-.57-.2-.62 0-1.26.5-.64.51-1.24 1.3-.6.8-1.12 1.63l-.92 1.5q-.32 0-.61-.1-.29-.12-.45-.34 0-.1.21-.62t.49-1.28q.28-.76.5-1.56.22-.8.22-1.46.12-.14.38-.28t.54-.14q.54 0 .54.52 0 .32-.18 1.07t-.46 1.57q.54-.82 1.21-1.63.67-.8 1.43-1.35.76-.54 1.52-.54.78 0 1.13.56.35.56.35 1.24 0 .62-.2 1.15-.2.53-.41 1.02-.21.5-.21 1 0 .41.17.58.17.17.43.17.5 0 1-.47t.97-1.19q.47-.72.83-1.46Zm20.6 0 .22.26q-.42.98-.94 1.74t-1.14 1.2q-.62.44-1.38.44-.7 0-1.05-.36-.35-.36-.35-.92 0-.42.15-.88l.29-.95q.14-.49.14-.95 0-.56-.23-.77-.23-.2-.57-.2-.62 0-1.26.5-.64.51-1.24 1.3-.6.8-1.12 1.63l-.92 1.5q-.32 0-.61-.1-.29-.12-.45-.34 0-.1.21-.62t.49-1.28q.28-.76.5-1.56.22-.8.22-1.46.12-.14.38-.28t.54-.14q.54 0 .54.52 0 .32-.18 1.07t-.46 1.57q.54-.82 1.21-1.63.67-.8 1.43-1.35.76-.54 1.52-.54.78 0 1.13.56.35.56.35 1.24 0 .62-.2 1.15-.2.53-.41 1.02-.21.5-.21 1 0 .41.17.58.17.17.43.17.5 0 1-.47t.97-1.19q.47-.72.83-1.46Zm-14.14-.02.26.2q-.46 1.2-1.26 2.15a6.43 6.43 0 0 1-1.76 1.5q-.96.53-1.94.53-.96 0-1.6-.64-.64-.64-.64-1.92 0-1 .39-1.95t1.03-1.7q.64-.77 1.42-1.22.78-.45 1.54-.45.82 0 1.12.48.3.48.3 1 0 .58-.27 1.02-.27.44-.73.44-.34 0-.58-.3.3-.16.52-.65.22-.49.22-.93 0-.24-.09-.37t-.35-.13q-.54 0-1.11.48-.57.48-1.06 1.24-.49.76-.8 1.6-.31.84-.31 1.58 0 .62.3 1.14.3.52 1.16.52.8 0 1.61-.44t1.51-1.26q.7-.82 1.12-1.92Zm44.3 0 .26.2q-.46 1.2-1.26 2.15a6.43 6.43 0 0 1-1.76 1.5q-.96.53-1.94.53-.96 0-1.6-.64-.64-.64-.64-1.92 0-1 .39-1.95t1.03-1.7q.64-.77 1.42-1.22.78-.45 1.54-.45.82 0 1.12.48.3.48.3 1 0 .58-.27 1.02-.27.44-.73.44-.34 0-.58-.3.3-.16.52-.65.22-.49.22-.93 0-.24-.09-.37t-.35-.13q-.54 0-1.11.48-.57.48-1.06 1.24-.49.76-.8 1.6-.31.84-.31 1.58 0 .62.3 1.14.3.52 1.16.52.8 0 1.61-.44t1.51-1.26q.7-.82 1.12-1.92Zm-.18 1.06-.18-.34q.28-.52.73-1.52.45-1 .89-2.28-.2-.2-.2-.48 0-.6.34-.98t.5-.38q.22 0 .25.2.03.18.03.28 0 .1-.11.4-.11.28-.11.34 0 .28.31.51l.71.52q.4.3.71.7.31.41.31 1.05 0 .6-.25 1.22t-.5 1.18q-.25.56-.25.98 0 .36.18.48t.42.12q.48 0 .99-.3t.99-.76q.48-.46.86-.97.38-.5.56-.95l.26.2q-.38.84-1.04 1.65-.66.81-1.47 1.33-.81.52-1.67.52-.68 0-1.07-.36t-.39-.94q0-.6.28-1.26l.55-1.3q.27-.66.27-1.18 0-.64-.37-.95-.37-.3-.75-.57-.46 1.18-.96 2.24-.5 1.06-.82 1.6Zm-39.3-1.04.18.2q-.58 1.72-1.67 2.64-1.09.92-2.27.92-.78 0-1.16-.49-.38-.49-.38-1.19 0-.46.17-1.16t.45-1.47q.28-.77.65-1.45.37-.68.79-1.1.42-.44.82-.44.18 0 .31.11t.13.33q0 .24-.31.78l-.73 1.24q-.42.7-.73 1.47t-.31 1.47q0 .72.24.96t.74.24q.68 0 1.45-.68.77-.68 1.63-2.38Zm51.26 0 .18.2q-.58 1.72-1.67 2.64-1.09.92-2.27.92-.78 0-1.16-.49-.38-.49-.38-1.19 0-.46.17-1.16t.45-1.47q.28-.77.65-1.45.37-.68.79-1.1.42-.44.82-.44.18 0 .31.11t.13.33q0 .24-.31.78l-.73 1.24q-.42.7-.73 1.47t-.31 1.47q0 .72.24.96t.74.24q.68 0 1.45-.68.77-.68 1.63-2.38Zm-41.62 8.2q.4 0 1.09-.79.69-.79 1.49-2.7-.8.4-1.49.82-.69.43-1.13.91-.44.48-.44 1.06 0 .32.14.51.14.2.34.2Zm-11-13.6q-.32 0-.57-.16-.25-.16-.25-.5 0-.42.49-.73.49-.3.97-.3.3 0 .48.13.18.14.18.48 0 .38-.41.73t-.89.35Zm51.26 0q-.32 0-.57-.16-.25-.16-.25-.5 0-.42.49-.73.49-.3.97-.3.3 0 .48.13.18.14.18.48 0 .38-.41.73t-.89.35Z" vector-effect="non-scaling-stroke" stroke-linecap="round" fill-rule="evenodd" font-size="12" stroke="#000" stroke-width=".94" fill="none" style="stroke:#000;stroke-width:.25mm;fill:none"/></svg>