<svg width="105.3" height="16.01" xmlns="http://www.w3.org/2000/svg"><path d="M61.83 15.4a6.54 6.54 0 0 0 1.73.2 7.15 7.15 0 0 0 2.03-.27q.9-.27 1.55-.79.64-.52.99-1.26a3.98 3.98 0 0 0 .35-1.7q0-.77-.26-1.38a3.51 3.51 0 0 0-.73-1.1 5.38 5.38 0 0 0-1.17-.9q-.68-.4-1.56-.76-.87-.35-1.47-.68a4.24 4.24 0 0 1-.96-.69q-.37-.37-.52-.82a3.22 3.22 0 0 1-.16-1.05 2.53 2.53 0 0 1 .17-.94 1.99 1.99 0 0 1 .48-.71 2.12 2.12 0 0 1 .76-.46 3.07 3.07 0 0 1 1.03-.16 2.28 2.28 0 0 1 1.07.22 2 2 0 0 1 .69.58 2.26 2.26 0 0 1 .38.81 3.83 3.83 0 0 1 .1.92 1.83 1.83 0 0 0 1.16-.32 1.15 1.15 0 0 0 .42-.97 1.6 1.6 0 0 0-.25-.85 2.32 2.32 0 0 0-.73-.72 4.05 4.05 0 0 0-1.17-.5 6.18 6.18 0 0 0-1.59-.18 5.97 5.97 0 0 0-1.75.24q-.8.25-1.39.71a3.23 3.23 0 0 0-.9 1.14 3.47 3.47 0 0 0-.34 1.53q0 .82.23 1.48.22.65.68 1.18.46.54 1.15.97.7.43 1.63.81.88.37 1.47.7a4.36 4.36 0 0 1 .95.68q.36.35.52.77.15.42.15.97a2.33 2.33 0 0 1-.75 1.87 3.13 3.13 0 0 1-2.1.65 2.54 2.54 0 0 1-1.21-.26 2.39 2.39 0 0 1-.82-.7 3.12 3.12 0 0 1-.48-1.02 5.38 5.38 0 0 1-.2-1.2 1.46 1.46 0 0 0-1.06.37 1.31 1.31 0 0 0-.38.97 2.59 2.59 0 0 0 .25 1.15 2.38 2.38 0 0 0 .76.89 3.83 3.83 0 0 0 1.25.57Zm40.14-.84h.76v.84h-6.18v-.84h.27a3.96 3.96 0 0 0 .64-.05 1.26 1.26 0 0 0 .51-.2 1.05 1.05 0 0 0 .36-.43 1.8 1.8 0 0 0 .13-.75v-7.5h-1.83v-.95h1.83v-1q0-.9.24-1.58t.7-1.15a2.95 2.95 0 0 1 1.12-.71q.65-.24 1.47-.24a7.17 7.17 0 0 1 1.32.1 2.85 2.85 0 0 1 .86.3 1.22 1.22 0 0 1 .48.43 1.11 1.11 0 0 1 .14.57.94.94 0 0 1-.12.48 1.04 1.04 0 0 1-.34.35q-.22.14-.52.22-.3.07-.66.07a2.74 2.74 0 0 0-.06-.6q-.06-.28-.21-.5-.16-.23-.4-.36a1.33 1.33 0 0 0-.64-.14 1.42 1.42 0 0 0-.72.16 1.22 1.22 0 0 0-.47.5q-.17.32-.25.8-.07.48-.07 1.12v1.18h2.82v.95h-2.82v7.5a1.8 1.8 0 0 0 .13.75 1.05 1.05 0 0 0 .36.43 1.26 1.26 0 0 0 .52.2 3.98 3.98 0 0 0 .63.05ZM51.26.21v13a1.62 1.62 0 0 0 .13.7 1.02 1.02 0 0 0 .36.42 1.29 1.29 0 0 0 .52.19 4.32 4.32 0 0 0 .63.04h.17v.84h-3.4l-.2-1.8h-.09a4.6 4.6 0 0 1-.5.83 3.07 3.07 0 0 1-.67.62 2.95 2.95 0 0 1-.84.4q-.47.15-1.05.15a4.4 4.4 0 0 1-1.75-.33q-.76-.33-1.28-1-.52-.68-.78-1.73a10.24 10.24 0 0 1-.26-2.48 10.4 10.4 0 0 1 .26-2.5 4.76 4.76 0 0 1 .78-1.74 3.14 3.14 0 0 1 1.28-1.01 4.4 4.4 0 0 1 1.75-.33 4 4 0 0 1 1.04.13 3.14 3.14 0 0 1 .85.36 3.15 3.15 0 0 1 .67.56 3.72 3.72 0 0 1 .5.71h.12a113.23 113.23 0 0 0-.06-.92 1055.13 1055.13 0 0 0-.04-.73 11.26 11.26 0 0 1-.02-.55V2.4a1.62 1.62 0 0 0-.13-.7 1.02 1.02 0 0 0-.35-.42 1.29 1.29 0 0 0-.53-.19 4.32 4.32 0 0 0-.63-.04h-.16V.2h3.68ZM6.12 15.4H0v-.85h.25a3.96 3.96 0 0 0 .64-.05 1.3 1.3 0 0 0 .53-.2 1 1 0 0 0 .35-.43 1.86 1.86 0 0 0 .13-.75v-9.8a1.62 1.62 0 0 0-.14-.72 1.02 1.02 0 0 0-.35-.41A1.29 1.29 0 0 0 .88 2a4.32 4.32 0 0 0-.63-.04H0v-.84h6.12q1.55 0 2.76.48a5.41 5.41 0 0 1 2.04 1.38q.84.9 1.28 2.24a9.62 9.62 0 0 1 .44 3.02q0 1.64-.41 2.97A6.18 6.18 0 0 1 11 13.46a5.34 5.34 0 0 1-2.04 1.44 7.45 7.45 0 0 1-2.85.5Zm14.1-.85v.84h-5.78v-.84h.06a3.96 3.96 0 0 0 .64-.05 1.26 1.26 0 0 0 .52-.2 1.05 1.05 0 0 0 .35-.43 1.8 1.8 0 0 0 .13-.75V6.89a1.62 1.62 0 0 0-.13-.71 1.02 1.02 0 0 0-.36-.42 1.34 1.34 0 0 0-.52-.2 3.9 3.9 0 0 0-.63-.04h-.06v-.84h3.08l.38 1.98h.1a13.72 13.72 0 0 1 .4-.84 2.79 2.79 0 0 1 .5-.7 2.1 2.1 0 0 1 .74-.47 3.07 3.07 0 0 1 1.1-.17 2.8 2.8 0 0 1 1.63.38q.53.38.53 1.08a1.58 1.58 0 0 1-.1.57q-.1.27-.33.46a1.55 1.55 0 0 1-.57.3 3.1 3.1 0 0 1-.86.1q0-.84-.24-1.2a.9.9 0 0 0-.82-.37 1.11 1.11 0 0 0-.66.21 1.97 1.97 0 0 0-.52.56 3.67 3.67 0 0 0-.37.8q-.15.44-.24.92a8.63 8.63 0 0 0-.13.94 10.31 10.31 0 0 0-.04.85v3.14a1.62 1.62 0 0 0 .13.71.95.95 0 0 0 .36.4 1.38 1.38 0 0 0 .52.19 4.32 4.32 0 0 0 .63.04h.55Zm66.41 0v.84h-5.77v-.84h.06a3.96 3.96 0 0 0 .64-.05 1.26 1.26 0 0 0 .52-.2 1.05 1.05 0 0 0 .35-.43 1.8 1.8 0 0 0 .13-.75V6.89a1.62 1.62 0 0 0-.13-.71 1.02 1.02 0 0 0-.36-.42 1.34 1.34 0 0 0-.52-.2 3.9 3.9 0 0 0-.63-.04h-.06v-.84h3.08l.38 1.98h.1a13.72 13.72 0 0 1 .4-.84 2.79 2.79 0 0 1 .5-.7 2.1 2.1 0 0 1 .74-.47 3.07 3.07 0 0 1 1.1-.17 2.8 2.8 0 0 1 1.62.38q.54.38.54 1.08a1.58 1.58 0 0 1-.1.57q-.1.27-.33.46a1.55 1.55 0 0 1-.58.3 3.1 3.1 0 0 1-.86.1q0-.84-.23-1.2a.9.9 0 0 0-.82-.37 1.11 1.11 0 0 0-.67.21 1.97 1.97 0 0 0-.51.56 3.67 3.67 0 0 0-.37.8q-.15.44-.25.92a8.63 8.63 0 0 0-.13.94 10.31 10.31 0 0 0-.04.85v3.14a1.62 1.62 0 0 0 .13.71.95.95 0 0 0 .36.4 1.38 1.38 0 0 0 .52.19 4.32 4.32 0 0 0 .63.04h.56Zm-7.44-5.3v.92h-6.66a8.3 8.3 0 0 0 .22 1.88 3.68 3.68 0 0 0 .58 1.29 2.27 2.27 0 0 0 .92.75q.55.24 1.26.24a3.76 3.76 0 0 0 .96-.12 3.64 3.64 0 0 0 .8-.31q.37-.2.65-.45a2.57 2.57 0 0 0 .45-.52q.14.06.26.24.12.19.12.44 0 .3-.22.65-.21.35-.65.64a4.05 4.05 0 0 1-1.1.5 5.47 5.47 0 0 1-1.55.19 4.95 4.95 0 0 1-1.94-.37 3.86 3.86 0 0 1-1.46-1.07 4.86 4.86 0 0 1-.92-1.72 7.8 7.8 0 0 1-.31-2.32 6.57 6.57 0 0 1 1.15-4.22 3.99 3.99 0 0 1 3.28-1.42q.97 0 1.74.3a3.39 3.39 0 0 1 1.3.9q.54.61.83 1.5a6.77 6.77 0 0 1 .29 2.08Zm-43.98 5.3h.26a4.32 4.32 0 0 0 .63-.04 1.38 1.38 0 0 0 .52-.18.95.95 0 0 0 .36-.4 1.62 1.62 0 0 0 .13-.72V6.9a1.62 1.62 0 0 0-.13-.71 1.02 1.02 0 0 0-.36-.42 1.34 1.34 0 0 0-.52-.2 3.9 3.9 0 0 0-.63-.04h-.06v-.84h3.57v8.45a1.8 1.8 0 0 0 .14.75 1.05 1.05 0 0 0 .35.43 1.26 1.26 0 0 0 .52.2 3.98 3.98 0 0 0 .63.05h.27v.84H35.2v-.84Zm54.87 0h.26a4.32 4.32 0 0 0 .63-.04 1.38 1.38 0 0 0 .52-.18.95.95 0 0 0 .36-.4 1.62 1.62 0 0 0 .13-.72V6.9a1.62 1.62 0 0 0-.13-.71 1.02 1.02 0 0 0-.36-.42 1.34 1.34 0 0 0-.52-.2 3.9 3.9 0 0 0-.63-.04h-.06v-.84h3.58v8.45a1.8 1.8 0 0 0 .13.75 1.05 1.05 0 0 0 .35.43 1.26 1.26 0 0 0 .52.2 3.98 3.98 0 0 0 .64.05h.26v.84h-5.68v-.84ZM3.92 14.4h1.73a5 5 0 0 0 2.09-.41q.9-.4 1.49-1.19.6-.78.9-1.92a10.46 10.46 0 0 0 .29-2.63A7.46 7.46 0 0 0 9.23 3.7a4.18 4.18 0 0 0-3.56-1.57H3.92v12.27Zm29.72-4.37q0 2.82-1.2 4.2a4.39 4.39 0 0 1-3.5 1.38 5.22 5.22 0 0 1-1.94-.34 3.72 3.72 0 0 1-1.46-1.04 4.7 4.7 0 0 1-.92-1.74 8.52 8.52 0 0 1-.31-2.46 6.23 6.23 0 0 1 1.18-4.17Q26.68 4.48 29 4.48a5.29 5.29 0 0 1 1.95.34 3.7 3.7 0 0 1 1.46 1.02q.6.7.92 1.73a8.42 8.42 0 0 1 .31 2.45Zm-7.4 0a11.66 11.66 0 0 0 .15 1.96q.14.85.47 1.42a2.24 2.24 0 0 0 .85.87 2.57 2.57 0 0 0 1.27.3 2.54 2.54 0 0 0 1.27-.3q.52-.3.84-.87.33-.57.47-1.42.14-.85.14-1.96a11.49 11.49 0 0 0-.15-1.95 4.3 4.3 0 0 0-.47-1.4q-.32-.57-.84-.85a2.64 2.64 0 0 0-1.27-.28 2.61 2.61 0 0 0-1.27.28 2.16 2.16 0 0 0-.84.85q-.33.56-.47 1.4a11.49 11.49 0 0 0-.15 1.95Zm20.42 4.3a2.92 2.92 0 0 0 1.3-.26q.53-.26.84-.79a3.75 3.75 0 0 0 .45-1.33q.13-.8.13-1.88a11.47 11.47 0 0 0-.13-1.85 3.9 3.9 0 0 0-.45-1.34q-.31-.54-.84-.82-.53-.29-1.32-.29-.65 0-1.12.29a2.13 2.13 0 0 0-.77.83 4.35 4.35 0 0 0-.43 1.35 11.16 11.16 0 0 0-.14 1.85 6.85 6.85 0 0 0 .58 3.18 2 2 0 0 0 1.9 1.06Zm25.9-5.22h4.6a8.22 8.22 0 0 0-.1-1.44q-.13-.66-.38-1.13-.25-.46-.67-.72A1.92 1.92 0 0 0 75 5.56a1.94 1.94 0 0 0-1.71.9 5.4 5.4 0 0 0-.71 2.64ZM36.84 1.44q0-.35.08-.59a.99.99 0 0 1 .25-.38.87.87 0 0 1 .36-.2q.2-.06.45-.06a1.6 1.6 0 0 1 .44.05q.2.06.36.21a1.07 1.07 0 0 1 .24.38q.1.23.1.59 0 .35-.1.58a1.07 1.07 0 0 1-.24.38q-.16.15-.36.21a1.48 1.48 0 0 1-.44.07 1.51 1.51 0 0 1-.45-.07.92.92 0 0 1-.36-.2.99.99 0 0 1-.25-.39q-.08-.23-.08-.58Zm54.87 0q0-.35.09-.59a.99.99 0 0 1 .24-.38.87.87 0 0 1 .36-.2q.2-.06.45-.06a1.6 1.6 0 0 1 .44.05q.2.06.36.21a1.07 1.07 0 0 1 .24.38q.1.23.1.59 0 .35-.1.58a1.07 1.07 0 0 1-.24.38q-.15.15-.36.21a1.48 1.48 0 0 1-.44.07 1.51 1.51 0 0 1-.45-.07.92.92 0 0 1-.36-.2.99.99 0 0 1-.24-.39q-.1-.23-.1-.58Z" vector-effect="non-scaling-stroke" stroke-linecap="round" fill-rule="evenodd" font-size="12" stroke="#000" stroke-width=".94" fill="none" style="stroke:#000;stroke-width:.25mm;fill:none"/></svg>