<svg width="152.1" height="14.5" xmlns="http://www.w3.org/2000/svg"><path d="M18.32 3.7h-.9V.9H5.34V13h12.08V7.4H9.76v-.9h8.56v7.4H0V13h2V.9H0V0h18.32v3.7ZM109.2 0H127v3.7h-.9V.9h-11.58v5.6h8.32V4.52h.9v4.86h-.9V7.4h-8.32V13h1.98v.9h-7.3V13h1.98V.9h-1.98V0ZM50.32 4.52H62.8v2.44h-.9V5.42h-8.24v3.34h9.14v5.14H50.32v-2.44h.9V13h8.24V9.66h-9.14V4.52Zm37.16 0V13h1.98v.9H75V8.76h9.14V5.42H75.9v1.54H75V4.52h12.48ZM20.76 13.9V4.52h12.48v5.14H24.1V13h8.24v-1.54h.9v2.44H20.76Zm69.58-9.38h12.72v2.42h-.9V5.42h-6.5V13h1.98v.9h-7.3V13h1.98V5.42h-1.98v-.9ZM69.62 13h3.86v.9h-7.2V5.42H64.3v-.9h1.98V0h3.34v4.52h3.86v.9h-3.86V13Zm71.8-13v13h1.98v.9h-7.3V13h1.98V.9h-1.98V0h5.32Zm8.1 0v13h1.98v.9h-7.3V13h1.98V.9h-1.98V0h5.32ZM48.02 4.52v9.38H35.54V4.52h12.48Zm85.3 0V13h1.98v.9H128V13h1.98V5.42H128v-.9h5.32ZM47.12 13V5.42h-8.24V13h8.24ZM32.34 5.42H24.1v3.34h8.24V5.42ZM75.9 13h8.24V9.66H75.9V13Zm57.56-13v3.06h-3.62V0h3.62Z" vector-effect="non-scaling-stroke" stroke-linecap="round" fill-rule="evenodd" font-size="12" stroke="#000" stroke-width=".94" fill="none" style="stroke:#000;stroke-width:.25mm;fill:none"/></svg>