<svg width="69.98" height="14.78" xmlns="http://www.w3.org/2000/svg"><path d="M12.83 9.93V5.85H7.85a5.99 5.99 0 0 1-.23 0 .81.81 0 0 1-.23-.04q-.1-.04-.17-.1a.28.28 0 0 1-.06-.2.28.28 0 0 1 .06-.2.4.4 0 0 1 .17-.1.76.76 0 0 1 .22-.04 6.23 6.23 0 0 1 .24 0h4.98q.41 0 .56.15a.76.76 0 0 1 .15.53v4.08q0 .3-.23.47a1.2 1.2 0 0 1-.48.2q-1.44.29-2.8.49a18.52 18.52 0 0 1-2.7.2q-1.82 0-3.2-.31-1.36-.32-2.28-1Q.93 9.32.47 8.25 0 7.17 0 5.64q0-1.52.47-2.59a4.22 4.22 0 0 1 1.38-1.74q.92-.68 2.29-1a14.47 14.47 0 0 1 3.19-.3Q8.6 0 9.79.22a12.6 12.6 0 0 1 2.42.74.5.5 0 0 1 .22.17q.07.1.07.2 0 .12-.09.2-.08.1-.22.1a.84.84 0 0 1-.19-.06q-1.12-.47-2.32-.7Q8.48.65 7.33.65a13.2 13.2 0 0 0-2.97.28 5.17 5.17 0 0 0-2.02.9A3.52 3.52 0 0 0 1.2 3.38a6.32 6.32 0 0 0-.36 2.27A6.32 6.32 0 0 0 1.2 7.9a3.52 3.52 0 0 0 1.15 1.55 5.17 5.17 0 0 0 2.02.9 13.2 13.2 0 0 0 2.97.29 19.47 19.47 0 0 0 2.8-.2 31.14 31.14 0 0 0 2.7-.52Zm18.88.47v-.7a3.9 3.9 0 0 1-.52.51q-.32.26-.78.47-.47.22-1.1.36-.62.14-1.44.14a6.88 6.88 0 0 1-1.78-.2 2.89 2.89 0 0 1-1.2-.62q-.47-.43-.69-1.09Q24 8.62 24 7.7V4.3a2.21 2.21 0 0 1 .01-.26l.05-.22a.39.39 0 0 1 .12-.16.32.32 0 0 1 .2-.06q.15 0 .23.06a.35.35 0 0 1 .11.16.89.89 0 0 1 .05.22 3.3 3.3 0 0 1 0 .26v3.38a5.88 5.88 0 0 0 .14 1.37q.14.56.49.9.34.34.95.5.6.15 1.53.15.69 0 1.27-.12.58-.12 1.06-.3.48-.18.86-.4.38-.23.66-.44V4.3a3.3 3.3 0 0 1 .01-.26.89.89 0 0 1 .04-.22.37.37 0 0 1 .11-.16q.07-.06.2-.06a.37.37 0 0 1 .23.06.41.41 0 0 1 .13.16q.04.1.05.22a3.3 3.3 0 0 1 .01.26v6.1a2.09 2.09 0 0 1-.01.24.87.87 0 0 1-.06.22.37.37 0 0 1-.1.16q-.08.06-.2.06-.27 0-.35-.19-.07-.18-.07-.41v-.09Zm4.68-.26-.02 3.55a6.23 6.23 0 0 1 0 .25q-.01.12-.05.22a.37.37 0 0 1-.11.16q-.08.06-.22.06a.33.33 0 0 1-.22-.07q-.07-.06-.11-.16a.73.73 0 0 1-.05-.24 7.53 7.53 0 0 1 0-.28V4.08a.48.48 0 0 1 .12-.4.43.43 0 0 1 .25-.08q.17 0 .26.09a.54.54 0 0 1 .1.4v1.28q.12-.4.4-.71a2.8 2.8 0 0 1 .66-.53q.39-.22.83-.36.44-.15.9-.22a8.7 8.7 0 0 1 .88-.11 11.45 11.45 0 0 1 .77-.03 7.42 7.42 0 0 1 1.67.18q.78.18 1.38.62.59.44.93 1.17a4.29 4.29 0 0 1 .35 1.84 5.22 5.22 0 0 1-.29 1.85 2.95 2.95 0 0 1-.84 1.22q-.55.47-1.36.68a7.32 7.32 0 0 1-1.84.21 10.03 10.03 0 0 1-1.45-.1q-.67-.1-1.2-.24a7.65 7.65 0 0 1-.98-.34 10.73 10.73 0 0 1-.76-.36Zm12.26 0-.02 3.55a6.23 6.23 0 0 1 0 .25q-.01.12-.05.22a.37.37 0 0 1-.12.16q-.07.06-.22.06a.33.33 0 0 1-.22-.07q-.07-.06-.1-.16a.73.73 0 0 1-.05-.24 7.53 7.53 0 0 1 0-.28V4.08a.48.48 0 0 1 .11-.4.43.43 0 0 1 .26-.08q.16 0 .26.09a.54.54 0 0 1 .1.4v1.28q.11-.4.4-.71a2.8 2.8 0 0 1 .66-.53q.38-.22.83-.36.44-.15.9-.22a8.7 8.7 0 0 1 .88-.11 11.45 11.45 0 0 1 .77-.03 7.42 7.42 0 0 1 1.66.18q.8.18 1.38.62.6.44.94 1.17a4.29 4.29 0 0 1 .35 1.84 5.22 5.22 0 0 1-.3 1.85 2.95 2.95 0 0 1-.83 1.22q-.55.47-1.36.68a7.32 7.32 0 0 1-1.84.21 10.03 10.03 0 0 1-1.46-.1q-.66-.1-1.2-.24a7.65 7.65 0 0 1-.97-.34 10.73 10.73 0 0 1-.76-.36Zm13.7.77a8.29 8.29 0 0 0 2.27.27 8.29 8.29 0 0 0 2.28-.27 3.9 3.9 0 0 0 1.5-.76 2.85 2.85 0 0 0 .82-1.21q.25-.72.25-1.61a4.87 4.87 0 0 0-.28-1.78 2.85 2.85 0 0 0-.9-1.21q-.6-.48-1.5-.7-.92-.23-2.17-.23t-2.16.22q-.91.23-1.52.7a2.85 2.85 0 0 0-.88 1.22 4.87 4.87 0 0 0-.3 1.78 4.78 4.78 0 0 0 .26 1.6 2.85 2.85 0 0 0 .83 1.22 3.9 3.9 0 0 0 1.5.76Zm-45.38-5v4.5q0 .25-.06.46a.3.3 0 0 1-.32.22q-.13 0-.22-.06a.34.34 0 0 1-.12-.16.75.75 0 0 1-.05-.22v-6.5a.88.88 0 0 1 .07-.38.36.36 0 0 1 .36-.17q.22 0 .28.16a1.04 1.04 0 0 1 .07.4v1.12a2.02 2.02 0 0 1 .54-.96 2.81 2.81 0 0 1 .86-.57q.47-.2.97-.27t.88-.07a7.2 7.2 0 0 1 .64.02 5.76 5.76 0 0 1 .46.06l.34.08a16.61 16.61 0 0 1 .28.07.25.25 0 0 1 .16.12.35.35 0 0 1 .05.18q0 .12-.08.23-.08.1-.25.1a.2.2 0 0 1-.06 0 .34.34 0 0 0-.06-.01q-.38-.1-.73-.17-.34-.06-.75-.06a5.22 5.22 0 0 0-1.1.12 3.55 3.55 0 0 0-.95.34 2.64 2.64 0 0 0-.74.58 2.36 2.36 0 0 0-.46.84Zm19.42.06v3.75a27.86 27.86 0 0 0 .9.31 11.44 11.44 0 0 0 1.03.3 11.61 11.61 0 0 0 1.16.2q.62.08 1.3.08a5.78 5.78 0 0 0 1.61-.2q.67-.2 1.1-.6a2.43 2.43 0 0 0 .64-1.06 5.15 5.15 0 0 0 .2-1.53 3.8 3.8 0 0 0-.28-1.54q-.28-.63-.76-1a2.99 2.99 0 0 0-1.13-.53q-.64-.16-1.38-.16a12.59 12.59 0 0 0-1.28.09q-.69.08-1.32.3a3.78 3.78 0 0 0-1.13.6 1.89 1.89 0 0 0-.66.99Zm12.26 0v3.75a27.86 27.86 0 0 0 .9.31 11.44 11.44 0 0 0 1.03.3 11.61 11.61 0 0 0 1.16.2q.62.08 1.3.08a5.78 5.78 0 0 0 1.6-.2q.67-.2 1.1-.6a2.43 2.43 0 0 0 .64-1.06 5.15 5.15 0 0 0 .2-1.53 3.8 3.8 0 0 0-.27-1.54q-.28-.63-.76-1a2.99 2.99 0 0 0-1.13-.53q-.65-.16-1.38-.16a12.59 12.59 0 0 0-1.28.09q-.7.08-1.33.3a3.78 3.78 0 0 0-1.12.6 1.89 1.89 0 0 0-.66.99Zm15.97 4.64a7.75 7.75 0 0 0 1.53-.13 4.26 4.26 0 0 0 1.1-.37q.46-.24.74-.55a2.58 2.58 0 0 0 .44-.68q.16-.36.21-.76a5.9 5.9 0 0 0 .05-.8q0-.9-.23-1.54a2.34 2.34 0 0 0-.73-1.03 3.14 3.14 0 0 0-1.27-.58 8.14 8.14 0 0 0-1.84-.18 8.13 8.13 0 0 0-1.84.18 3.14 3.14 0 0 0-1.26.58 2.34 2.34 0 0 0-.74 1.03q-.23.64-.23 1.54 0 .4.05.8a2.83 2.83 0 0 0 .22.76 2.58 2.58 0 0 0 .44.68 2.5 2.5 0 0 0 .73.55 4.26 4.26 0 0 0 1.1.37 7.75 7.75 0 0 0 1.53.13Z" vector-effect="non-scaling-stroke" stroke-linecap="round" fill-rule="evenodd" font-size="12" stroke="#000" stroke-width=".94" fill="none" style="stroke:#000;stroke-width:.25mm;fill:none"/></svg>