<svg width="97.1" height="15.15" xmlns="http://www.w3.org/2000/svg"><path d="m43.63 4.24-.04-.02h-.04a.63.63 0 0 1-.1-.18l-.07-.2v-.09q.27-.27.96-.49a12.1 12.1 0 0 1 1.62-.37q.94-.16 2.05-.23a28.37 28.37 0 0 1 1.98-.07 28.68 28.68 0 0 1 .25 0q1.13 0 2.2.15a11.7 11.7 0 0 1 1.91.41q.84.27 1.4.7a1.52 1.52 0 0 1 .6 1.03 4.8 4.8 0 0 1-1.22-.15 22.54 22.54 0 0 1-1.2-.36 20.06 20.06 0 0 0-1.23-.35 5.18 5.18 0 0 0-1.27-.15 15.45 15.45 0 0 1-.46-.01 96.82 96.82 0 0 0-.7-.02 7.86 7.86 0 0 0-.2 0 8.48 8.48 0 0 0-.6.02 4.45 4.45 0 0 0-.76.12q-.35.08-.56.25a.53.53 0 0 0-.22.44 11.06 11.06 0 0 1-.04.8q-.04.5-.02 1.04t.14 1.01a1.12 1.12 0 0 0 .43.68h.74a21.74 21.74 0 0 1 1.7-.07 10.43 10.43 0 0 1 .67.01 4.09 4.09 0 0 1 1.3.24q.4.17.28.4-.1.22-.66.42a7.93 7.93 0 0 1-1.55.32 14 14 0 0 1-1.75.1 22.43 22.43 0 0 1-.64-.01 43.25 43.25 0 0 0 .08 1.38 9 9 0 0 0 .1.78 7.98 7.98 0 0 0 .08.45 17.01 17.01 0 0 0 .1.39 4.2 4.2 0 0 1 .1.6 24.63 24.63 0 0 1 .07 1.13 5.11 5.11 0 0 0-.5-.05l-.4-.01q-.17 0-.26-.02a.06.06 0 0 1-.06-.04.03.03 0 0 1 .01-.02 17.3 17.3 0 0 1-.17-.88l-.1-.63a5.06 5.06 0 0 1-.02-.52l-.01-.51a8.98 8.98 0 0 0-.05-.63 23.39 23.39 0 0 0-.12-.9.75.75 0 0 0-.27-.53q-.21-.15-.5-.16a2.75 2.75 0 0 0-.1 0 3.08 3.08 0 0 0-.48.04 3.57 3.57 0 0 1-.57.05q-.27 0-.42-.12a.65.65 0 0 1-.18-.5.19.19 0 0 1 .1-.11.27.27 0 0 1 .12-.07 8.44 8.44 0 0 1 .68-.05 1.87 1.87 0 0 0 .6-.1.96.96 0 0 0 .44-.34 1.5 1.5 0 0 0 .15-.74 9.41 9.41 0 0 1-.14-1.5 5.59 5.59 0 0 1 0-.15 10.53 10.53 0 0 0 .01-.3 5.74 5.74 0 0 0-.05-.84.78.78 0 0 0-.34-.6 1.07 1.07 0 0 0-.55-.12 3.3 3.3 0 0 0-.45.03h-.26l-.4.01-.39.01h-.26a.63.63 0 0 1-.18.1 3.28 3.28 0 0 0-.19.08h-.06l-.06.02Zm-11.11 9.1 3.5-.23a2.5 2.5 0 0 1-.8.7 5.04 5.04 0 0 1-1.01.44 7.15 7.15 0 0 1-1.06.24q-.53.08-1 .08a6.05 6.05 0 0 1-2.13-.37 5.55 5.55 0 0 1-1.76-1.05 4.83 4.83 0 0 1-1.2-1.64 5.2 5.2 0 0 1-.44-2.17 6.22 6.22 0 0 1 .3-1.95 4.98 4.98 0 0 1 .88-1.63q.58-.7 1.4-1.12.84-.42 1.93-.42a2.96 2.96 0 0 1 1.13.35q.47.27.78.67a2.6 2.6 0 0 1 .44.93 4.86 4.86 0 0 1 .11 1.1 2.11 2.11 0 0 1-.4 1.27q-.42.56-1.04.94-.63.38-1.35.59a4.95 4.95 0 0 1-1.35.2h-.47q-.25 0-.45-.07-.19-.08-.3-.24a.78.78 0 0 1-.13-.47.42.42 0 0 1 .04-.16.21.21 0 0 1 .16-.1 1.05 1.05 0 0 1 .21-.02 2.79 2.79 0 0 1 .2 0 34.14 34.14 0 0 1 .74.13 2.58 2.58 0 0 0 .8-.19 7.48 7.48 0 0 0 1.05-.48 4.2 4.2 0 0 0 .93-.67q.39-.38.39-.75a2.42 2.42 0 0 0-.13-.78q-.13-.38-.38-.67-.25-.3-.6-.47a1.33 1.33 0 0 0-.61-.14 1.7 1.7 0 0 0-.16 0q-.68.06-1.24.38a3.15 3.15 0 0 0-.95.8 3.88 3.88 0 0 0-.6 1.11q-.22.6-.22 1.27a26.42 26.42 0 0 0 .02 1.02q.02.5.15 1 .13.48.41.93a2.59 2.59 0 0 0 .82.79 4.98 4.98 0 0 0 1.36.57 9.58 9.58 0 0 0 2.03.28Zm53.38 0 3.5-.23a2.5 2.5 0 0 1-.8.7 5.04 5.04 0 0 1-1.01.44 7.15 7.15 0 0 1-1.07.24q-.52.08-1 .08a6.05 6.05 0 0 1-2.12-.37 5.55 5.55 0 0 1-1.76-1.05 4.83 4.83 0 0 1-1.2-1.64A5.2 5.2 0 0 1 80 9.34a6.22 6.22 0 0 1 .3-1.95 4.98 4.98 0 0 1 .88-1.63q.58-.7 1.4-1.12.84-.42 1.93-.42a2.96 2.96 0 0 1 1.13.35q.47.27.78.67a2.6 2.6 0 0 1 .44.93 4.86 4.86 0 0 1 .11 1.1 2.11 2.11 0 0 1-.4 1.27q-.42.56-1.04.94-.63.38-1.35.59a4.95 4.95 0 0 1-1.35.2h-.48q-.24 0-.44-.07-.2-.08-.3-.24a.78.78 0 0 1-.13-.47.42.42 0 0 1 .03-.16.21.21 0 0 1 .17-.1 1.05 1.05 0 0 1 .21-.02 2.79 2.79 0 0 1 .2 0 34.14 34.14 0 0 1 .74.13 2.58 2.58 0 0 0 .8-.19 7.48 7.48 0 0 0 1.05-.48A4.2 4.2 0 0 0 85.6 8q.4-.38.4-.75a2.42 2.42 0 0 0-.13-.78q-.13-.38-.38-.67-.26-.3-.6-.47a1.33 1.33 0 0 0-.62-.14 1.7 1.7 0 0 0-.15 0q-.68.06-1.24.38a3.15 3.15 0 0 0-.95.8 3.88 3.88 0 0 0-.6 1.11q-.22.6-.22 1.27a26.42 26.42 0 0 0 .02 1.02q.02.5.15 1 .13.48.4.93a2.59 2.59 0 0 0 .83.79 4.98 4.98 0 0 0 1.36.57 9.58 9.58 0 0 0 2.03.28Zm-13.32-2.25.11-2.54a.16.16 0 0 1 .08-.11 1.45 1.45 0 0 1 .17-.11 1.62 1.62 0 0 1 .19-.09.45.45 0 0 1 .13-.04.4.4 0 0 1 .37.36 5.74 5.74 0 0 1 .16.9 61.23 61.23 0 0 0 .14 1.18 5.31 5.31 0 0 0 .28 1.19q.2.55.61.9.4.36 1.14.36a2.18 2.18 0 0 0 1.15-.3 1.64 1.64 0 0 0 .62-.76 2.55 2.55 0 0 0 .19-.99 3.22 3.22 0 0 0 0-.05q-.01-.58-.16-1.16-.14-.57-.39-1.1a5.1 5.1 0 0 0-.53-.92.57.57 0 0 1-.02-.13.18.18 0 0 1 .02-.1.22.22 0 0 1 .1-.09.57.57 0 0 1 .17-.04 1.65 1.65 0 0 1 .16 0q.3.07.67.5A4.65 4.65 0 0 1 78.57 9a6.17 6.17 0 0 1 .42 1.35 5.17 5.17 0 0 1 .1 1 4.9 4.9 0 0 1-.02.47 3.37 3.37 0 0 1-.42 1.34q-.35.63-1.07 1.02-.86.06-1.4.07a9.93 9.93 0 0 1-.19 0 5.57 5.57 0 0 1-.73-.04q-.36-.05-.57-.17-.22-.11-.41-.3a7.07 7.07 0 0 1-.42-.44 9.94 9.94 0 0 0-.6-.6 4.96 4.96 0 0 1-1.57 1.47 2.9 2.9 0 0 1-1.36.38 2.19 2.19 0 0 1-.14 0 2.53 2.53 0 0 1-1.35-.53 4.49 4.49 0 0 1-1.1-1.17 6.51 6.51 0 0 1-.74-1.59q-.28-.89-.3-1.8-.02-.93.24-1.8a4 4 0 0 1 .9-1.55.48.48 0 0 1 .34.32 2.5 2.5 0 0 1 .04.45 2.87 2.87 0 0 1-.07.63l-.14.62a15.77 15.77 0 0 0-.15.64 3.38 3.38 0 0 0-.07.68 4.31 4.31 0 0 0 .06.64q.06.38.17.8a5.91 5.91 0 0 0 .28.86 3.89 3.89 0 0 0 .42.76 2.64 2.64 0 0 0 .54.57 1.06 1.06 0 0 0 .66.22 2 2 0 0 0 .8-.2 4.64 4.64 0 0 0 .87-.52q.42-.31.7-.7.29-.4.29-.79ZM12.82 8.61a6.75 6.75 0 0 0-.18 1.53 5.72 5.72 0 0 0 .18 1.32q.19.77.57 1.45.38.68.94 1.17.55.49 1.3.49a4.2 4.2 0 0 0 1.31-.21 6.03 6.03 0 0 0 1.25-.58q.6-.36 1.1-.84a7.55 7.55 0 0 0 .87-.99.07.07 0 0 1 .07-.03h.1q.16 0 .26.13.1.14.17.34.08.2.15.45l.14.44a1.09 1.09 0 0 0 .22.34.44.44 0 0 0 .33.15q.24 0 .46-.08.23-.08.23-.39a2.6 2.6 0 0 1-.21-.87l-.15-1.48-.14-1.9a52.42 52.42 0 0 0-.19-2.14 38.26 38.26 0 0 0-.3-2.15 17.1 17.1 0 0 0-.44-2 8.63 8.63 0 0 0-.66-1.66 3.24 3.24 0 0 0-.9-1.1q-.4.1-.47.47a1.8 1.8 0 0 0-.04.37 3.38 3.38 0 0 0 .06.57q.1.56.32 1.28a36.64 36.64 0 0 1 .44 1.5q.21.81.35 1.64a6.37 6.37 0 0 1 .09 1.04 5.77 5.77 0 0 1-.03.57l-1.14-.75a12.57 12.57 0 0 0-1.04-.6q-.5-.25-.96-.39a3.33 3.33 0 0 0-.94-.13 2.54 2.54 0 0 0-1.52.44 3.59 3.59 0 0 0-1.01 1.12 5.27 5.27 0 0 0-.59 1.48ZM3.76 6.73a.21.21 0 0 0-.13.22v1.18a27.99 27.99 0 0 0 .05 1.6q.05.86.18 1.73.12.88.35 1.59a3.43 3.43 0 0 0 .6 1.15 1.15 1.15 0 0 0 .91.45 6.77 6.77 0 0 0-.11-1.25 26.2 26.2 0 0 0-.27-1.24 27.64 27.64 0 0 1-.26-1.23 6.61 6.61 0 0 1-.12-1.24q0-.63.23-1.15a2.66 2.66 0 0 1 .61-.9 2.65 2.65 0 0 1 .92-.57 3.24 3.24 0 0 1 1.13-.2q.65 0 1.21.6a4.74 4.74 0 0 1 .96 1.57 9.96 9.96 0 0 1 .57 2.32q.17 1.32 0 2.82a.13.13 0 0 0 .06.12.8.8 0 0 0 .17.06 1.04 1.04 0 0 0 .2.04l.13.01a.45.45 0 0 0 .4-.26q.15-.26.22-.62a6.52 6.52 0 0 0 .1-.7 6.95 6.95 0 0 0 .03-.53q0-.5-.1-1.2a10.05 10.05 0 0 0-.32-1.42 11.5 11.5 0 0 0-.52-1.44 6.1 6.1 0 0 0-.76-1.27q-.43-.56-1-.9A2.29 2.29 0 0 0 8 5.71q-.51 0-1.03.22A9.7 9.7 0 0 0 6 6.4a398.58 398.58 0 0 1-.85.46 1.45 1.45 0 0 1-.67.22q-.1 0-.13-.07a.57.57 0 0 1-.06-.14q-.02-.08-.07-.14-.05-.06-.17-.06a.78.78 0 0 0-.28.05Zm86.75-.4h.04l.02-.01.02-.01h.02q0 .02.03.02h.04a2.79 2.79 0 0 0 .2.08.64.64 0 0 1 .2.1q.35-.12.72-.29a15.22 15.22 0 0 1 .75-.31 6.62 6.62 0 0 1 .77-.25 3.13 3.13 0 0 1 .76-.1 5.12 5.12 0 0 1 .48.03l.41.06a9.12 9.12 0 0 1 .44.12l.55.17a6.18 6.18 0 0 1 .28.22 1.67 1.67 0 0 1 .23.25q.11.13.17.33.06.2.06.5-.31.04-.73-.04l-.88-.23q-.46-.13-.95-.23-.49-.1-.94-.08-.45.02-.84.25a1.77 1.77 0 0 0-.72.7q-.14.57-.12 1.12.02.55.14 1.06.12.52.3 1.04a32.31 32.31 0 0 1 .35 1.04 22.56 22.56 0 0 1 .3 1.02q.14.5.18 1.04 0 .2-.21.42-.22.22-.49.22-.43-.78-.74-1.7-.31-.92-.53-1.85a22.3 22.3 0 0 1-.34-1.83q-.13-.89-.17-1.61a2.6 2.6 0 0 0-.02-.3q-.02-.17 0-.35a1.36 1.36 0 0 1 .05-.33.66.66 0 0 1 .17-.27ZM57.6 8.7a3.64 3.64 0 0 0-.47 1.88q0 .91.31 1.67.31.75.87 1.26a4.02 4.02 0 0 0 1.3.79 4.65 4.65 0 0 0 1.66.28 5.34 5.34 0 0 0 1.72-.28 4.82 4.82 0 0 0 1.5-.82 3.94 3.94 0 0 0 1.06-1.32q.39-.78.39-1.78a3.59 3.59 0 0 0-.12-.89 4.54 4.54 0 0 0-.34-.9 5.8 5.8 0 0 0-.54-.88q-.31-.42-.71-.74a3.53 3.53 0 0 0-.84-.5 2.41 2.41 0 0 0-.95-.2 7.07 7.07 0 0 0-1.9.27 5.38 5.38 0 0 0-1.71.81q-.76.55-1.23 1.35Zm-2.69 2.94a26.55 26.55 0 0 0 .25 2.76 38.5 38.5 0 0 1 .38.08.3.3 0 0 0 .06 0 .32.32 0 0 0 .26-.15 1.96 1.96 0 0 0 .22-.75 14.92 14.92 0 0 0 .13-1.69 39.27 39.27 0 0 0 .02-1.32 81.16 81.16 0 0 0-.02-1.68q-.04-1.87-.16-4.66a1.25 1.25 0 0 0-.04-.3 1.76 1.76 0 0 0-.15-.38q-.1-.18-.23-.3a.45.45 0 0 0-.32-.13q-.15 0-.27.05a.22.22 0 0 0-.12.22 63.8 63.8 0 0 1 0 .91 63.83 63.83 0 0 1-.02 1.82 96.42 96.42 0 0 0-.04 2.76 77.98 77.98 0 0 0 .05 2.76Zm-53.51.66a64.53 64.53 0 0 0 .18 1.52l.09.16a1.51 1.51 0 0 0 .19.27 2.82 2.82 0 0 0 .23.24.26.26 0 0 0 .17.08.2.2 0 0 0 .06-.01.53.53 0 0 0 .27-.13q.09-.08.1-.2a1.25 1.25 0 0 0 .02-.22v-.23q0-.35-.07-1.04a84.96 84.96 0 0 0-.2-1.56 58.36 58.36 0 0 0-.28-1.87 65.02 65.02 0 0 0-.35-1.94q-.19-.93-.41-1.76-.23-.83-.46-1.37Q.7 3.7.47 3.52a.28.28 0 0 0-.18-.08.39.39 0 0 0-.29.2q0 .46.1 1.03.11.56.25 1.12a21.45 21.45 0 0 0 .29 1.05 9.06 9.06 0 0 1 .2.78 33.1 33.1 0 0 1 .21 1.52q.1.78.18 1.58l.17 1.6Zm56.69-1.88a3.08 3.08 0 0 0 .22 1.16q.22.56.63.97.4.4.94.65.55.25 1.17.25a1.25 1.25 0 0 0 .15 0 2.31 2.31 0 0 0 .66-.11 4.42 4.42 0 0 0 .96-.43q.48-.28.92-.68a4.05 4.05 0 0 0 .73-.88 2.53 2.53 0 0 0 .36-1 1.73 1.73 0 0 0 .02-.22 1.88 1.88 0 0 0-.2-.81 2.76 2.76 0 0 0-.88-1 7.03 7.03 0 0 0-1.78-.89 5.17 5.17 0 0 0-1.34.19q-.69.18-1.25.55-.57.38-.94.94-.37.57-.37 1.31Zm-44.24.06a75.93 75.93 0 0 0 .35 1.23q.16.53.38.86a1.5 1.5 0 0 0 .54.5 1.75 1.75 0 0 0 .82.16 2.92 2.92 0 0 0 1.33-.36q.7-.36 1.3-.93.61-.56 1-1.24a2.6 2.6 0 0 0 .4-1.3v-.46a8 8 0 0 0-1.91-1.46 3.63 3.63 0 0 0-1.56-.45 2.89 2.89 0 0 0-.04 0 2.15 2.15 0 0 0-1.15.3 2.66 2.66 0 0 0-.84.82 3.69 3.69 0 0 0-.49 1.14q-.15.62-.13 1.19ZM23.98 7.8v-.29l.01-.45.01-.45v-.3a1.35 1.35 0 0 1 0-.16.36.36 0 0 1 .36-.44q.2 0 .33.1a.96.96 0 0 1 .25.3 9.98 9.98 0 0 0-.02.57 9.07 9.07 0 0 0 .1 1.39q.16.94.34 1.87a85.77 85.77 0 0 1 .35 1.87 11.19 11.19 0 0 1 .17 1.95 1.05 1.05 0 0 1-.17.55q-.16.27-.5.27a.56.56 0 0 1-.44-.44q-.18-.44-.32-1.11-.13-.68-.23-1.5a29.48 29.48 0 0 1-.15-1.57q-.05-.75-.07-1.35l-.02-.8Zm.1-3.98h-.1a2.55 2.55 0 0 1-.48-.04.69.69 0 0 1-.3-.13q-.11-.09-.16-.26a1.91 1.91 0 0 1-.05-.49q0-.23.14-.3a.79.79 0 0 1 .35-.07.19.19 0 0 1 .02 0 .59.59 0 0 1 .34.17q.22.18.37.42.14.23.16.43a.32.32 0 0 1 0 .02.27.27 0 0 1-.29.25Z" vector-effect="non-scaling-stroke" stroke-linecap="round" fill-rule="evenodd" font-size="12" stroke="#000" stroke-width=".94" fill="none" style="stroke:#000;stroke-width:.25mm;fill:none"/></svg>