<svg width="108.26" height="15.95" xmlns="http://www.w3.org/2000/svg"><path d="m59.02 14.5-2.6.34.12-2.63a3.88 3.88 0 0 1-1.12 1.6 4.64 4.64 0 0 1-1.28.74 4.17 4.17 0 0 1-1.4.24 4.45 4.45 0 0 1-.1 0q-1.02-.1-2.04-.47a4.95 4.95 0 0 1-1.8-1.15 5.05 5.05 0 0 1-1.2-2q-.41-1.23-.26-3.04a8.79 8.79 0 0 1 .87-3.18q.7-1.36 1.73-2.26a7.18 7.18 0 0 1 2.34-1.35 8.7 8.7 0 0 1 2.66-.5 6.36 6.36 0 0 1 .1 0 3.87 3.87 0 0 1 1.96.45 4.55 4.55 0 0 1 1.32 1.11 5.6 5.6 0 0 1 .78 1.3 441.83 441.83 0 0 0 .43 1.03 1.22 1.22 0 0 0 .16.25 2.7 2.7 0 0 0 .28.32 5.9 5.9 0 0 0 .48.42 95.3 95.3 0 0 1-1.08.03 21.6 21.6 0 0 0-.8.03 48.06 48.06 0 0 0-.66.04 30.94 30.94 0 0 0-.72.06 31.97 31.97 0 0 1-.96.08 54.73 54.73 0 0 0-1.39.11 9.36 9.36 0 0 0 .77-1.04 5.63 5.63 0 0 0 .44-.82 2.42 2.42 0 0 0 .17-.64 1.63 1.63 0 0 0 .01-.17 1.03 1.03 0 0 0-.04-.3.93.93 0 0 0-.6-.64 2.83 2.83 0 0 0-.76-.1 2.38 2.38 0 0 0-1.7.72q-1.04 1-1.49 3.29-.21 1.13-.4 2.35a12.5 12.5 0 0 0-.15 1.87 9.18 9.18 0 0 0 0 .36q.04 1 .4 1.63a1.17 1.17 0 0 0 1.1.59 2.19 2.19 0 0 0 .1 0 4.23 4.23 0 0 0 1.43-.29 2.96 2.96 0 0 0 .94-.59 2 2 0 0 0 .5-.74 1.75 1.75 0 0 0 .11-.6 1.36 1.36 0 0 0 0-.15 1.38 1.38 0 0 0-.42-.59q-.29-.27-.88-.61-.58-.34-1.67-.71l1.7-.1a20.04 20.04 0 0 0 1.07-.06 122.12 122.12 0 0 1 .72-.06 18.66 18.66 0 0 1 .69-.04q.39-.02 1-.02a77.07 77.07 0 0 0 1.55-.02 4.38 4.38 0 0 0-.54.65 11.2 11.2 0 0 1-.18.27q-.08.2-.06.8 0 .51.08 1.5a61.16 61.16 0 0 0 .3 2.68Zm-20.68.3h-.7l-.77.01a59.98 59.98 0 0 0-.93.03q.27-.1.47-.26.2-.17.33-.32a2.47 2.47 0 0 0 .27-.37 3.66 3.66 0 0 0 .2-.6 11.33 11.33 0 0 0 .21-1.01 13.35 13.35 0 0 0 .15-1.22 10.41 10.41 0 0 0 .03-.8 9.23 9.23 0 0 0-.01-.45 4.28 4.28 0 0 0-.18-1.06 1.3 1.3 0 0 0-.44-.68 2.7 2.7 0 0 0-1.57-.66 1.51 1.51 0 0 0-.02 0q-.71.01-1.36.58l-.45.43q-.2.2-.42.46a6.47 6.47 0 0 0-.43.53l.01.65a210.34 210.34 0 0 0 .04.68 14.24 14.24 0 0 0 .06.74 15.33 15.33 0 0 0 .12 1.12l.15 1.02a6.47 6.47 0 0 0 .26 1 2.75 2.75 0 0 0-.42-.02 3.04 3.04 0 0 0-.1 0h-.54q-.29.03-.56.03a8.16 8.16 0 0 0-.53.06 8.8 8.8 0 0 1-.5.07q-.28.03-.53.08a6.98 6.98 0 0 0 .39-.88 14.86 14.86 0 0 0 .25-.78 9.37 9.37 0 0 0 .2-.76q.05-.3.08-1.12a112.4 112.4 0 0 0 .05-1.92 127.68 127.68 0 0 0 .02-2.29 129.33 129.33 0 0 0-.02-2.3q-.02-1.1-.07-1.92a10.68 10.68 0 0 0-.1-1.13q-.08-.31-.22-.63a2.67 2.67 0 0 0-.31-.53 1.67 1.67 0 0 0-.49-.44 8.92 8.92 0 0 0 .82.1 320.08 320.08 0 0 0 .63.05l.5.02a21.06 21.06 0 0 0 .69-.06 176.86 176.86 0 0 0 .8-.1Q33.9.1 34.52 0a3.8 3.8 0 0 0-.49.3q-.2.15-.3.3a2.02 2.02 0 0 0-.22.34 6.04 6.04 0 0 0-.22 1.05A47.26 47.26 0 0 0 33 4.02a301.98 301.98 0 0 0-.42 3.66 6.49 6.49 0 0 1 1.34-1.07q.63-.36 1.12-.52a3.57 3.57 0 0 1 1.05-.17 3.48 3.48 0 0 1 1.24.38 7.5 7.5 0 0 1 1.2.75 6.6 6.6 0 0 1 .97.92q.42.49.6.86a1.57 1.57 0 0 1 .12.65q0 .4-.08.87t-.22.96a67.1 67.1 0 0 1-.26.92l-.23.75q-.1.32-.11.46-.04.29.03.56a1.62 1.62 0 0 0 .24.5 1.33 1.33 0 0 0 .53.44 12.8 12.8 0 0 0-.58-.07 23.02 23.02 0 0 0-.57-.05l-.63-.02ZM29.35 3.8l-.3.78-.22.63a30.9 30.9 0 0 1-.18.54 89.33 89.33 0 0 0-.17.63l-.25.77-.34 1.08q-.16-.94-.57-1.5a3.98 3.98 0 0 0-.84-.86 3.49 3.49 0 0 0-1.09-.5 5.14 5.14 0 0 0-.83-.09 1.69 1.69 0 0 0-.7.12q-.46.22-.62.55-.08.13-.16.34-.1.2-.14.42a1.38 1.38 0 0 0-.04.3 1.35 1.35 0 0 0 .01.13.51.51 0 0 0 .18.35q.1.1.5.26a25.2 25.2 0 0 0 .99.38 649.04 649.04 0 0 1 1.23.44q.66.23 1.24.46.59.24 1.02.47.43.24.56.43a5.3 5.3 0 0 1 .27.52q.14.32.21.7a3.07 3.07 0 0 1 .05.54 3.27 3.27 0 0 1-.01.24 2.1 2.1 0 0 1-.22.8 2.17 2.17 0 0 1-.62.72q-.42.33-1.12.54a3.7 3.7 0 0 1-1.1.18 3.2 3.2 0 0 1-.48-.04 7.18 7.18 0 0 1-1.4-.35 13 13 0 0 1-1.1-.46 1.58 1.58 0 0 0-.6-.2.33.33 0 0 0-.07.02q-.21.03-.49.21a8.04 8.04 0 0 0-.51.36l-.42.33q-.18.15-.18.11 0-.04.07-.23l.15-.48a13.26 13.26 0 0 0 .18-.63 5.25 5.25 0 0 0 .13-.65 164.44 164.44 0 0 1 .1-.63 33.84 33.84 0 0 1 .1-.8l.17-1.17a3.4 3.4 0 0 0 .28.88 6.94 6.94 0 0 0 .36.64 5 5 0 0 0 .41.53 3.9 3.9 0 0 0 .7.5q.4.24.8.41a2.9 2.9 0 0 0 .79.2 1.7 1.7 0 0 0 .18.01 1.06 1.06 0 0 0 .44-.08 1.03 1.03 0 0 0 .44-.43 2.23 2.23 0 0 0 .27-.69 2.79 2.79 0 0 0 .06-.57 2.42 2.42 0 0 0 0-.14 1.03 1.03 0 0 0-.18-.56 1.96 1.96 0 0 0-.54-.35q-.42-.21-1-.47a158.86 158.86 0 0 0-1.2-.52 20.62 20.62 0 0 1-1.2-.56 6.83 6.83 0 0 1-.91-.55.9.9 0 0 1-.4-.48 9.58 9.58 0 0 1-.06-.69 3.3 3.3 0 0 1 0-.17 3.35 3.35 0 0 1 .04-.6 2.23 2.23 0 0 1 .28-.72q.2-.35.61-.59.28-.16.73-.23.45-.08 1-.1a10.27 10.27 0 0 1 .18 0 11.44 11.44 0 0 1 .95.05 26.02 26.02 0 0 1 1.12.12 10.82 10.82 0 0 1 .97.16q.45.1.68.18a.93.93 0 0 0 .32.05 1.11 1.11 0 0 0 .27-.03 1.86 1.86 0 0 0 .58-.26 2.3 2.3 0 0 0 .64-.7ZM13.4 10.08l-.53.06a10.1 10.1 0 0 1-.67.06q-.4.03-.97.1.82-.67 1.06-1.17a1.74 1.74 0 0 0 .22-.73.81.81 0 0 0-.01-.1.97.97 0 0 0-.35-.64q-.37-.22-.8-.16-.37.04-.86.33-.49.3-1.04 1.1a75.9 75.9 0 0 0 .1 2.07 80.22 80.22 0 0 0 .08 1.32 56.2 56.2 0 0 0 .1.92q.05.3.23.63.14.27.4.6a4 4 0 0 0 .66.67 17.34 17.34 0 0 0-.79-.02 8.87 8.87 0 0 0-.62.02 33.03 33.03 0 0 0-.59.04 33.8 33.8 0 0 1-.58.07 85.82 85.82 0 0 1-.64.1 665.53 665.53 0 0 0-.79.1q.16-.22.26-.5t.15-.54a4.53 4.53 0 0 0 .12-.6 16.79 16.79 0 0 0 .03-.82 15.84 15.84 0 0 0 0-.28 22.81 22.81 0 0 0-.02-.96 149.77 149.77 0 0 0-.07-1.45 39.42 39.42 0 0 0-.1-1.41 24.52 24.52 0 0 0-.12-1.17 3.34 3.34 0 0 0-.15-.69q-.1-.23-.24-.47-.11-.21-.29-.46a15.52 15.52 0 0 0-.39-.51q.37.02.67 0a9.07 9.07 0 0 0 .52-.02 19.95 19.95 0 0 0 .45-.04 11.63 11.63 0 0 0 .6-.1 7.33 7.33 0 0 0 .58-.1 6.2 6.2 0 0 0 .6-.17l-.2.5a3.84 3.84 0 0 0-.11.38.96.96 0 0 0-.06.29q-.02.13-.02.33a7.72 7.72 0 0 0-.01.43 24.8 24.8 0 0 0 0 .64q1.02-.88 1.72-1.36a55.44 55.44 0 0 1 1.1-.76 4.18 4.18 0 0 1 .76-.42 1.82 1.82 0 0 1 .3-.02 1.5 1.5 0 0 1 .97.36q.24.2.45.51a3.16 3.16 0 0 1 .37.85q.16.53.24 1.26a8.82 8.82 0 0 1 .04.93 14.25 14.25 0 0 1-.02.82 29 29 0 0 0-.74.08 18.6 18.6 0 0 1-.53.06 3.1 3.1 0 0 1-.47.04Zm54.06 0-.53.06a10.1 10.1 0 0 1-.67.06q-.4.03-.97.1.82-.67 1.07-1.17a1.74 1.74 0 0 0 .2-.73.81.81 0 0 0 0-.1.97.97 0 0 0-.35-.64q-.37-.22-.8-.16-.37.04-.86.33-.49.3-1.03 1.1A75.9 75.9 0 0 0 63.6 11a80.22 80.22 0 0 0 .1 1.32 56.2 56.2 0 0 0 .09.92q.06.3.23.63.14.27.4.6a4 4 0 0 0 .66.67 17.34 17.34 0 0 0-.78-.02 8.87 8.87 0 0 0-.63.02 33.03 33.03 0 0 0-.58.04 33.8 33.8 0 0 1-.59.07 85.82 85.82 0 0 1-.63.1 665.53 665.53 0 0 0-.8.1q.16-.22.26-.5t.15-.54a4.53 4.53 0 0 0 .12-.6 16.79 16.79 0 0 0 .03-.82 15.84 15.84 0 0 0 0-.28 22.81 22.81 0 0 0-.02-.96 149.77 149.77 0 0 0-.07-1.45 39.42 39.42 0 0 0-.1-1.41 24.52 24.52 0 0 0-.12-1.17 3.34 3.34 0 0 0-.15-.69q-.1-.23-.23-.47-.12-.21-.3-.46a15.52 15.52 0 0 0-.39-.51q.38.02.68 0a9.07 9.07 0 0 0 .52-.02 19.95 19.95 0 0 0 .45-.04 11.63 11.63 0 0 0 .6-.1 7.33 7.33 0 0 0 .58-.1 6.2 6.2 0 0 0 .6-.17q-.13.29-.2.5a3.84 3.84 0 0 0-.12.38.96.96 0 0 0-.06.29q-.02.13-.02.33a7.72 7.72 0 0 0 0 .43 24.8 24.8 0 0 0 0 .64Q64.3 6.85 65 6.37a55.44 55.44 0 0 1 1.1-.76 4.18 4.18 0 0 1 .77-.42 1.82 1.82 0 0 1 .29-.02 1.5 1.5 0 0 1 .97.36q.24.2.45.51a3.16 3.16 0 0 1 .38.85q.15.53.23 1.26a8.82 8.82 0 0 1 .04.93 14.25 14.25 0 0 1-.02.82 29 29 0 0 0-.73.08 18.6 18.6 0 0 1-.54.06 3.1 3.1 0 0 1-.47.04Zm38.54 0-.53.06a10.1 10.1 0 0 1-.67.06q-.4.03-.97.1.82-.67 1.06-1.17a1.74 1.74 0 0 0 .21-.73.81.81 0 0 0 0-.1.97.97 0 0 0-.35-.64q-.38-.22-.8-.16-.38.04-.86.33-.5.3-1.04 1.1a75.9 75.9 0 0 0 .09 2.07 80.22 80.22 0 0 0 .09 1.32 56.2 56.2 0 0 0 .1.92q.05.3.23.63.13.27.39.6a4 4 0 0 0 .66.67 17.34 17.34 0 0 0-.78-.02 8.87 8.87 0 0 0-.62.02 33.03 33.03 0 0 0-.59.04 33.8 33.8 0 0 1-.59.07 85.82 85.82 0 0 1-.63.1 665.53 665.53 0 0 0-.8.1q.17-.22.26-.5.1-.28.16-.54a4.53 4.53 0 0 0 .12-.6 16.79 16.79 0 0 0 .03-.82 15.84 15.84 0 0 0 0-.28 22.81 22.81 0 0 0-.02-.96 149.77 149.77 0 0 0-.07-1.45 39.42 39.42 0 0 0-.1-1.41 24.52 24.52 0 0 0-.13-1.17 3.34 3.34 0 0 0-.14-.69q-.1-.23-.24-.47-.11-.21-.29-.46a15.52 15.52 0 0 0-.4-.51q.38.02.68 0a9.07 9.07 0 0 0 .52-.02 19.95 19.95 0 0 0 .45-.04 11.63 11.63 0 0 0 .6-.1 7.33 7.33 0 0 0 .58-.1 6.2 6.2 0 0 0 .6-.17l-.2.5a3.84 3.84 0 0 0-.12.38.96.96 0 0 0-.05.29q-.02.13-.02.33a7.72 7.72 0 0 0-.01.43 24.8 24.8 0 0 0 0 .64q1.02-.88 1.72-1.36a55.44 55.44 0 0 1 1.1-.76 4.18 4.18 0 0 1 .76-.42 1.82 1.82 0 0 1 .3-.02 1.5 1.5 0 0 1 .97.36q.23.2.45.51a3.16 3.16 0 0 1 .37.85q.16.53.23 1.26a8.82 8.82 0 0 1 .05.93 14.25 14.25 0 0 1-.03.82 29 29 0 0 0-.73.08 18.6 18.6 0 0 1-.53.06 3.1 3.1 0 0 1-.47.04Zm-21.74 4.04-1.9.2a77.16 77.16 0 0 1-.6-2.06l-.35-1.34-.24-.92q-.1-.37-.23-1.08a202.54 202.54 0 0 1-.28-1.46 31.7 31.7 0 0 0-.27-1.34 3.65 3.65 0 0 0-.21-.73 2.62 2.62 0 0 0-.28-.27 6.12 6.12 0 0 0-.43-.38 31.16 31.16 0 0 0-.7-.56q.33.06.67.09a43.88 43.88 0 0 0 .62.05l.6.02.67-.02a29.39 29.39 0 0 0 .75-.06 16.78 16.78 0 0 0 .97-.12 1.91 1.91 0 0 0-.5.37 2.62 2.62 0 0 0-.27.35 1.33 1.33 0 0 0-.15.35.78.78 0 0 0-.02.18 4.13 4.13 0 0 0 .04.47 25.42 25.42 0 0 0 .16 1.13q.11.65.25 1.35.13.7.28 1.29a15.06 15.06 0 0 0 .27.97.57.57 0 0 0 .2.38.03.03 0 0 0 .01 0q.08 0 .24-.4a23.71 23.71 0 0 0 .38-.96 43.77 43.77 0 0 0 .45-1.27 31.5 31.5 0 0 0 .42-1.3 34 34 0 0 0 .28-1.02q.1-.42.09-.5l-.14-.22a7.26 7.26 0 0 0-.6-.74 407.28 407.28 0 0 1 .97.07 8.55 8.55 0 0 1 .66.07 22.67 22.67 0 0 0 .47.06q.18.02.51 0 .27 0 .73-.03a23.64 23.64 0 0 0 1.15-.11 11.8 11.8 0 0 0-.83.52q-.33.22-.5.38a2.27 2.27 0 0 0-.31.33q-.14.25-.5 1.21a127.5 127.5 0 0 0-.37 1.02q-.23.6-.53 1.45l-.71 1.98-.92 2.6Zm10.13-4.51h-1.54a27.8 27.8 0 0 0-.92.02 108.6 108.6 0 0 0-1.38.06 2.06 2.06 0 0 0 .5 1.2q.4.42.84.63a3.11 3.11 0 0 0 1.12.28 4.18 4.18 0 0 0 1.01-.12 2.63 2.63 0 0 0 .76-.32 1.08 1.08 0 0 0 .47-.68l.67.13a23.54 23.54 0 0 1 .47.09q.21.06.37.08a5.92 5.92 0 0 0 .37.07 18.71 18.71 0 0 0 .48.1 26.24 26.24 0 0 1 .67.12 1.27 1.27 0 0 0-.17-.01 1.39 1.39 0 0 0-.42.07 6.63 6.63 0 0 0-.58.21 3.24 3.24 0 0 0-.59.34 2.52 2.52 0 0 0-.4.35 2.45 2.45 0 0 1-.63.45q-.41.21-1.09.36a6.24 6.24 0 0 1-1.3.11 11.55 11.55 0 0 1-.42 0 5.2 5.2 0 0 1-2.13-.46q-.86-.42-1.39-1.04-.53-.62-.76-1.34a4.88 4.88 0 0 1-.26-1.35 1.91 1.91 0 0 1 0-.06 2.52 2.52 0 0 1 .38-1.24 4.39 4.39 0 0 1 1.1-1.25 5.97 5.97 0 0 1 1.73-.93 6.6 6.6 0 0 1 2.22-.36 4.83 4.83 0 0 1 1.3.16 5.12 5.12 0 0 1 1.1.44q.5.28.87.62a4.66 4.66 0 0 1 .62.7q.26.36.43.77a4.14 4.14 0 0 1 .25.8 3.06 3.06 0 0 1 .07.66 3.2 3.2 0 0 1 0 .26 520.8 520.8 0 0 1-2.4.06l-1.42.02ZM4.16 14.75h-.7a10.43 10.43 0 0 0-.8.04 32.97 32.97 0 0 1-1.04.07 58.77 58.77 0 0 0-1.5.12q.45-.49.7-.94a12.09 12.09 0 0 0 .41-.78q.18-.39.24-.74a14.82 14.82 0 0 0 .12-1.26q.05-.75.07-1.62.02-.87.01-1.78a49 49 0 0 0-.05-1.75 28.93 28.93 0 0 0-.1-1.52q-.07-.68-.17-1.1-.06-.25-.24-.56a7 7 0 0 0-.42-.64Q.43 1.94 0 1.5a21.7 21.7 0 0 0 1.12.1 11.38 11.38 0 0 1 .75.07 5.3 5.3 0 0 0 .55.04q.22.02.65-.02a83.1 83.1 0 0 1 1-.1l1.63-.17a4.68 4.68 0 0 0-.71.75q-.26.36-.4.63a1.88 1.88 0 0 0-.21.63 12.92 12.92 0 0 0-.13 1.28 91.81 91.81 0 0 0-.09 1.76 48.4 48.4 0 0 0-.04 1.98 59.8 59.8 0 0 0 .03 1.92 17.74 17.74 0 0 0 .12 1.61q.09.7.22 1.02l.41.7q.2.3.47.6a2.33 2.33 0 0 0 .63.52 38.05 38.05 0 0 0-1.84-.06Zm72.15-8.37a3.28 3.28 0 0 0-1.06-.19 6.57 6.57 0 0 0-2.78.49 3.68 3.68 0 0 0-1.52 1.23 3.4 3.4 0 0 0-.58 1.62 7.8 7.8 0 0 0-.03.7 6.82 6.82 0 0 0 .07.98q.08.59.47 1.24a5.97 5.97 0 0 0 .95 1.2 6.07 6.07 0 0 0 1.19.92 2.8 2.8 0 0 0 1.22.41 12.12 12.12 0 0 0 .74.02q.43 0 .92-.08.49-.08 1.01-.23a6.6 6.6 0 0 0 1.08-.43 2.75 2.75 0 0 0 1.19-1.21 5.12 5.12 0 0 0 .55-1.75 5.68 5.68 0 0 0 .04-.71 5.39 5.39 0 0 0-.11-1.1 2.91 2.91 0 0 0-.68-1.42q-.27-.3-.69-.62-.42-.32-.93-.6-.5-.29-1.05-.47ZM15.96 6.2l3.6.04a25.47 25.47 0 0 0-.47 2.03 14.09 14.09 0 0 0-.18 1.4 6.48 6.48 0 0 0-.06.78 3.72 3.72 0 0 0 .02.32q.06.41.2.88a6.97 6.97 0 0 0 .34.9 5.35 5.35 0 0 0 .63 1.01 2.9 2.9 0 0 0-.5-.11 8.74 8.74 0 0 0-.52-.06q-.27-.02-.54 0a13.38 13.38 0 0 0-.6.06 98.31 98.31 0 0 0-.67.1q-.4.05-.82.15.29-.88.46-1.52.16-.65.24-1.08.08-.5.1-.82V8.44a15.57 15.57 0 0 0-.02-.83 1.23 1.23 0 0 0-.08-.46l-.2-.2-.34-.28a14.11 14.11 0 0 0-.6-.46Zm58.65 7.56a.55.55 0 0 0 .1 0 1.39 1.39 0 0 0 .48-.1 2.4 2.4 0 0 0 .74-.49q.36-.33.64-.85a3.12 3.12 0 0 0 .34-1.26q.06-.72.01-1.32a5.22 5.22 0 0 0-.18-1.07q-.14-.46-.31-.75a1.16 1.16 0 0 0-.38-.41q-.33-.18-.8-.28a1.61 1.61 0 0 0-.36-.05 1.02 1.02 0 0 0-.44.1 1.54 1.54 0 0 0-.39.33q-.23.25-.47.63a5.14 5.14 0 0 0-.42.87q-.18.49-.26 1.02a4.63 4.63 0 0 0-.05.67 5.65 5.65 0 0 0 .02.46q.05.6.25 1.14.19.54.55.92.36.38.93.44ZM93.46 8.4h.48a49.64 49.64 0 0 0 1.82-.06 2.68 2.68 0 0 0-.36-1.3 2.31 2.31 0 0 0-.63-.67 1.96 1.96 0 0 0-.86-.28 3 3 0 0 0-1.89.53 2.5 2.5 0 0 0-.77 1.66 67.64 67.64 0 0 0 1.05.06 28.94 28.94 0 0 1 .69.04l.47.02ZM17.9 3.05a1.21 1.21 0 0 0-.57.15q-.52.3-.64.72t.06.73q.17.31.6.4.43.1 1-.23a1.21 1.21 0 0 0 .63-.72.9.9 0 0 0 .02-.16.72.72 0 0 0-.18-.48q-.24-.28-.66-.37a1.15 1.15 0 0 0-.26-.03Z" vector-effect="non-scaling-stroke" stroke-linecap="round" fill-rule="evenodd" font-size="12" stroke="#000" stroke-width=".94" fill="none" style="stroke:#000;stroke-width:.25mm;fill:none"/></svg>