<svg width="165.21" height="16.21" xmlns="http://www.w3.org/2000/svg"><path d="M121.43 15.3h-.98V.7h1.5l2.04 5.6.35.96q.19.52.29.86.1-.34.29-.86l.35-.96 2.02-5.6h1.48v14.6h-.98V4.97l.04-1.48.03-1.3q0-.59.03-.99l-2.74 7.6h-1.06l-2.78-7.6.04 1 .04 1.3.03 1.47V15.3Zm-20.04.2h-1.34q-1 0-1.77-.37t-1.24-1.03q-.47-.66-.57-1.5h1q.16.86.85 1.43t1.73.57h1.34q1.1 0 1.74-.57.64-.57.64-1.53 0-.86-.51-1.46t-1.4-.72l-2.13-.3q-1.4-.2-2.18-.96-.78-.76-.78-1.98 0-1.36.95-2.17.95-.8 2.53-.8h.84q1.5 0 2.45.73.95.74 1.09 1.96h-1q-.12-.78-.8-1.29-.68-.5-1.74-.5h-.84q-1.12 0-1.8.55-.66.56-.66 1.5 0 .82.54 1.32.54.5 1.56.66l2.1.3q1.26.18 2 1 .76.8.76 2.02 0 1.42-.91 2.28-.91.86-2.45.86Zm-15.58-.2h-1v-11h1v1.9h.46l-.6 1.02q0-1.42.87-2.27.87-.85 2.33-.85 1.62 0 2.6 1.04t.98 2.82v7.34h-1V8.1q0-1.48-.75-2.3-.75-.84-2.03-.84-1.32 0-2.1.84-.76.84-.76 2.3v7.2Zm60 0h-1v-11h1v1.9h.46l-.6 1.02q0-1.42.87-2.27.87-.85 2.33-.85 1.62 0 2.6 1.04t.98 2.82v7.34h-1V8.1q0-1.48-.75-2.3-.75-.84-2.03-.84-1.32 0-2.1.84-.76.84-.76 2.3v7.2ZM0 11.3h1q0 1.54.83 2.42.83.88 2.27.88t2.27-.88q.83-.88.83-2.4V1.64H3.47V.7H8.2v10.62q0 1.94-1.1 3.06t-3 1.12q-1.92 0-3.01-1.12Q0 13.26 0 11.3Zm63.66-2.2h3.78V7.8q0-1.32-.72-2.05-.72-.73-2.04-.73-1.2 0-1.98.6-.78.58-.92 1.58h-1q.2-1.4 1.27-2.25 1.07-.85 2.63-.85 1.7 0 2.73 1.02t1.03 2.68v7.5h-1v-2.24h-.18l.32-.4q0 1.28-1 2.06-.98.78-2.6.78-1.7 0-2.72-.9-1.02-.9-1.02-2.38 0-1.42.94-2.27.94-.85 2.48-.85ZM32.5 15.3h-2.7q-1.26 0-1.93-.64-.67-.64-.67-1.86V5.2H24v-.9h3.2V1.2h1v3.1h4.5v.9h-4.5v7.6q0 1.6 1.6 1.6h2.7v.9Zm-19.8-3.8V8.1q0-1.22.47-2.1.47-.9 1.35-1.4.88-.5 2.1-.5 1.22 0 2.08.5.86.5 1.33 1.4.47.88.47 2.1V10h-6.8v1.5q0 1.44.76 2.28.76.84 2.16.84 1.12 0 1.85-.54t1-1.48h1q-.3 1.34-1.3 2.12-1.01.78-2.55.78-1.22 0-2.1-.49-.88-.49-1.35-1.39-.47-.9-.47-2.12Zm37.44 3.8h-1v-11h1v1.9h.24l-.46 1.16q.02-1.46.9-2.36.88-.9 2.34-.9 1.76 0 2.78 1.08 1.02 1.08 1.02 2.92v.6h-1.1v-.6q0-1.48-.75-2.3-.75-.84-2.11-.84-1.34 0-2.1.83t-.76 2.31v7.2Zm31.16 0h-8.8v-.9h4.02V5.2H73v-.9h4.52v10.1h3.78v.9Zm-40.68 0H36.8V.7h3.76q1.82 0 2.9 1.02 1.1 1.02 1.1 2.74 0 1.02-.4 1.8-.38.78-1.08 1.21-.7.43-1.68.43v-.2q1.08 0 1.87.44T44.5 9.4q.43.81.43 1.91 0 1.22-.52 2.12-.52.9-1.5 1.4-.96.48-2.28.48Zm92.08-3.8V8.1q0-1.22.48-2.1.48-.9 1.36-1.4.88-.5 2.06-.5 1.18 0 2.06.5.88.5 1.36 1.4.48.88.48 2.1v3.4q0 1.22-.48 2.12-.48.9-1.35 1.4a4.15 4.15 0 0 1-2.07.48q-1.18 0-2.06-.49-.88-.49-1.36-1.39-.48-.9-.48-2.12Zm24 0V8.1q0-1.22.48-2.1.48-.9 1.36-1.4.88-.5 2.06-.5 1.18 0 2.06.5.88.5 1.36 1.4.48.88.48 2.1v3.4q0 1.22-.48 2.12-.48.9-1.35 1.4a4.15 4.15 0 0 1-2.07.48q-1.18 0-2.06-.49-.88-.49-1.36-1.39-.48-.9-.48-2.12Zm-17.2 0V8.1q0-1.48-.77-2.3-.77-.82-2.13-.82-1.36 0-2.13.82-.77.82-.77 2.3v3.4q0 1.48.76 2.3.76.82 2.14.82 1.38 0 2.14-.82.76-.82.76-2.3Zm24 0V8.1q0-1.48-.77-2.3-.77-.82-2.13-.82-1.36 0-2.13.82-.77.82-.77 2.3v3.4q0 1.48.76 2.3.76.82 2.14.82 1.38 0 2.14-.82.76-.82.76-2.3ZM37.8 8.24v6.14h2.82q1.54 0 2.42-.82.88-.82.88-2.24 0-1.42-.88-2.25-.88-.83-2.42-.83H37.8Zm0-6.62v5.72h2.76q1.42 0 2.2-.76.8-.76.8-2.1t-.8-2.1q-.8-.76-2.2-.76H37.8Zm29.64 10.34V9.98h-3.8q-1.08 0-1.74.6-.66.58-.66 1.56 0 1.1.83 1.8.83.68 2.19.68 1.42 0 2.3-.74.88-.74.88-1.92ZM19.73 9.14l-.22.18V8.1q0-1.44-.75-2.28-.75-.84-2.13-.84-1.4 0-2.16.83-.76.83-.76 2.3v1.03h6.02ZM76.9 2.2q-.52 0-.84-.3-.32-.3-.32-.8t.32-.8q.32-.3.84-.3t.84.3q.32.3.32.8t-.32.8q-.32.3-.84.3Z" vector-effect="non-scaling-stroke" stroke-linecap="round" fill-rule="evenodd" font-size="12" stroke="#000" stroke-width=".94" fill="none" style="stroke:#000;stroke-width:.25mm;fill:none"/></svg>