<svg width="48.23" height="15.8" xmlns="http://www.w3.org/2000/svg"><path d="M46.22 5.6q.52 0 .96.72.44.72.44 2.21 0 1.5-.85 4.13-.85 2.64-1.55 2.64-.32 0-.32-.4t.4-1.4q.38-1.02.78-2.4.4-1.4.4-2.78t-.52-1.38q-.3 0-.56.22-.26.22-.42.38-.16.16-.39.48l-.4.56q-.19.24-.49.7l-.5.78q-.22.32-.59.91-.37.6-.59.91-.22.32-.7 1.24-1.12 2.18-1.44 2.18-.16 0-.34-.2-.18-.2-.18-.43 0-.23.28-.95t.63-1.52q.35-.8.63-1.96t.28-2.18q0-.46-.27-.79t-.47-.33q-.2 0-.35.06-.15.06-.33.21-.18.15-.34.32-.16.17-.39.47l-.42.56q-.19.26-.47.7l-.5.76q-.24.34-.6.9l-.7 1.08q-.36.52-.94 1.46-1.14 1.84-1.28 1.84-.22 0-.47-.29-.25-.29-.25-.48t.05-.43l.15-.6.2-.74q.3-.9.64-2.1.34-1.22.47-2.59.13-1.37.16-1.93.03-.56.27-.56.28 0 .56.37t.28.8q0 2.13-1.44 6.25 2.42-4.26 3.65-5.83 1.23-1.57 2.2-1.57.45 0 1.07.77.62.77.62 1.7 0 .93-.42 2.37 1.52-2.72 2.51-3.78 1-1.06 1.85-1.06Zm-36.64-4q.38 0 .62.15t.24.36q0 .21-.92 1.01-3.58 3.2-5.54 5.76 0 .88.42 1.92t1.21 1.66q.8.62 1.75 1.07.96.45 1.5.76t.54.63q0 .26-.63.26t-1.52-.35q-.89-.35-1.8-.98-.9-.63-1.6-1.7-.69-1.09-.85-2.37-.9 1.18-1.96 4.44-.3.96-.42.96-.2 0-.4-.3-.22-.3-.22-.75t1.37-5.58q1.37-5.13 1.37-6.4 0-.37.05-.48.05-.1.28-.1.23 0 .47.43.24.44.24.94 0 1.34-1.36 6.22 1.8-2.6 4.22-5.08T9.58 1.6Zm6.26 4q1.04 0 1.61.86.57.86.57 1.55 0 .7-.44 1.3.18.2.18.51 0 1.28-.2 2.42-.22 1.14-.28 1.82-.06.68-.13.96-.07.28-.25.28-.34 0-.44-.65-.1-.65-.1-2-.62 1.1-1.57 1.87-.95.78-1.86.78-.9 0-1.75-.7-.84-.7-.84-1.54 0-1.28.9-3.05.88-1.77 2.22-3.09Q14.8 5.6 15.84 5.6Zm13.6 0q1.04 0 1.61.86.57.86.57 1.55 0 .7-.44 1.3.18.2.18.51 0 1.28-.2 2.42-.22 1.14-.28 1.82-.06.68-.13.96-.07.28-.25.28-.34 0-.44-.65-.1-.65-.1-2-.62 1.1-1.57 1.87-.95.78-1.86.78-.9 0-1.75-.7-.84-.7-.84-1.54 0-1.28.9-3.05.88-1.77 2.22-3.09Q28.4 5.6 29.44 5.6Zm-6-4.36q0 4.28-2 11.68-.64 2.38-.92 2.38-.2 0-.42-.29-.22-.29-.22-.5 0-.23.6-2.6t1.2-5.66q.6-3.29.6-5.75 0-.3.04-.4.04-.1.23-.1.2 0 .54.41.35.41.35.83Zm-6.46 7.82q-.02-.14-.02-.67t-.23-1.07q-.23-.54-.69-.54-.76 0-1.83 1.15t-1.85 2.66q-.78 1.51-.78 2.5 0 .43.41.73t.87.3q1.04 0 2.12-1.34t1.64-3.3q.06-.34.36-.42Zm13.6 0q-.02-.14-.02-.67t-.23-1.07q-.23-.54-.69-.54-.76 0-1.83 1.15t-1.85 2.66q-.78 1.51-.78 2.5 0 .43.41.73t.87.3q1.04 0 2.12-1.34t1.64-3.3q.06-.34.36-.42Z" vector-effect="non-scaling-stroke" stroke-linecap="round" fill-rule="evenodd" font-size="12" stroke="#000" stroke-width=".94" fill="none" style="stroke:#000;stroke-width:.25mm;fill:none"/></svg>