<svg width="72.5" height="15.97" xmlns="http://www.w3.org/2000/svg"><path d="m1.53 3.3-1.3-.2q-.12-.53-.18-.9A5.4 5.4 0 0 1 0 1.43v-.23A2.52 2.52 0 0 1 .66.66Q1.1.4 1.72.2A4.23 4.23 0 0 1 2.96.02 3.15 3.15 0 0 1 4.79.5q.69.48.69 1.5 0 2.12-.24 7.1l.61-.13a30.22 30.22 0 0 0 1.37-2.9 19.34 19.34 0 0 0 1-2.79L7 3.08q-.13-.53-.18-.9a5.4 5.4 0 0 1-.05-.78v-.23a2.39 2.39 0 0 1 .7-.52q.5-.28 1.15-.46A4.71 4.71 0 0 1 9.92 0q.69 0 1.25.23a2 2 0 0 1 .9.73 2.06 2.06 0 0 1 .34 1.2 6.03 6.03 0 0 1-1.04 2.96q-1.04 1.73-2.5 3.46.49 1 1.03 1.88a8.85 8.85 0 0 0 .97 1.33 1.75 1.75 0 0 0 .4-.29 8.7 8.7 0 0 0 .5-.5l.21-.23 1.2.91v.21q0 1.56-.77 2.5-.78.95-2.35.95a3.69 3.69 0 0 1-1.12-.16q-.73-.23-1.26-.9-.53-.66-.84-1.53a8.7 8.7 0 0 1-.42-1.8q-.5.12-1.28.16l-.23 3.82a3.62 3.62 0 0 1-1.76.43q-.83 0-1.58-.3l.01-.9a92 92 0 0 0-.03-2.23 1504.14 1504.14 0 0 0-.04-1.59q-.07-2.54-.07-3.82a45.21 45.21 0 0 1 .1-3.22ZM61 6.95l-1.14-.14q-.2-.64-.27-1.14-.06-.5-.06-1.29a2.81 2.81 0 0 1 .52-.32 4.55 4.55 0 0 1 .88-.33q.5-.15 1.02-.15a2.27 2.27 0 0 1 1.68.51q.5.51.5 1.53a9.59 9.59 0 0 1-.17 1.53 42.04 42.04 0 0 0-.28 1.63q0 .05.07.1a.27.27 0 0 0 .15.04.12.12 0 0 0 .11-.07q.4-1.55.78-2.6a5.28 5.28 0 0 1 1.19-1.86q.79-.8 2.05-.8a2.58 2.58 0 0 1 2.24.95 4 4 0 0 1 .69 2.4q0 1.28-.3 2.48a30.67 30.67 0 0 1-.76 2.5.04.04 0 0 1 0-.01 24.4 24.4 0 0 1-.13.38l.02.03 1.42-.6a2.6 2.6 0 0 1 .89 1.75q0 .06-.43.55a4.74 4.74 0 0 1-1.15.91 3.17 3.17 0 0 1-1.64.42q-.93 0-1.52-.5a2.13 2.13 0 0 1-.58-1.7q0-.95.08-2.55.07-1.6.15-2.58-.25-.28-.62-.3a12.42 12.42 0 0 0-1 1.76 34.12 34.12 0 0 0-.95 1.97l-.02.27a7.94 7.94 0 0 0 .15 1.31 13.53 13.53 0 0 0 .36 1.54 1.35 1.35 0 0 1-.72.56q-.55.22-1.35.22a4.6 4.6 0 0 1-1.16-.12 1.9 1.9 0 0 1-.6-.24.55.55 0 0 1-.18-.17 96.16 96.16 0 0 1-.05-.46 24.5 24.5 0 0 1-.08-1.05 27.24 27.24 0 0 1-.04-1.55 54.66 54.66 0 0 1 .04-2.4 46.12 46.12 0 0 1 .2-2.4ZM19.42 9.12v-.3a17.22 17.22 0 0 0-.01-.68 3.01 3.01 0 0 0-.05-.48 1.02 1.02 0 0 0-.5-.34 3.75 3.75 0 0 0-1.35-.18q-.58 0-1.19.14-.6.14-1.35.38-.4-.67-.64-1.27t-.24-1.2q0-.19.03-.38a6.47 6.47 0 0 1 4.1-1.23q1.38 0 2.45.32 1.08.3 1.77 1.2.7.9.7 2.56a12.86 12.86 0 0 1-.38 3.12l-.39 1.54 1.42-.61a3.15 3.15 0 0 1 .5.74 2.85 2.85 0 0 1 .28 1q-.14.3-.6.75a4.73 4.73 0 0 1-1.12.8 2.92 2.92 0 0 1-1.39.35 1.53 1.53 0 0 1-1.22-.48 1.82 1.82 0 0 1-.42-1.24 3.12 3.12 0 0 1 .13-.87l-.3-.08a2.96 2.96 0 0 1-1.15 2.1q-.9.57-1.97.57a2.59 2.59 0 0 1-1.35-.4 2.95 2.95 0 0 1-1.07-1.15 3.66 3.66 0 0 1-.4-1.77 3.43 3.43 0 0 1 .8-2.46q.81-.85 2.35-.85a7.75 7.75 0 0 1 1.28.12 12.02 12.02 0 0 1 1.28.28Zm6.09-1.7-.71-.14q-.15-.42-.24-.97t-.09-1.07q.26-.72.89-1.2a2.48 2.48 0 0 1 1.54-.48 1.9 1.9 0 0 1 1.43.56 4.75 4.75 0 0 1 .96 1.72A16.7 16.7 0 0 1 30 8.75q.27 1.68.38 3.62l.28.01a9.98 9.98 0 0 0 .75-2.45q.3-1.6.32-3.04l-1.22-.21q-.13-.48-.18-.84a6.12 6.12 0 0 1-.05-.81l.01-.27a2.17 2.17 0 0 1 .59-.53 3.98 3.98 0 0 1 .98-.46 3.85 3.85 0 0 1 1.2-.19 2.23 2.23 0 0 1 2.52 2.53q0 1.5-.54 3.22-.54 1.71-1.55 3.27a9.7 9.7 0 0 1-2.38 2.56 3.52 3.52 0 0 1-1.3.2 3.03 3.03 0 0 1-.98-.2 2.92 2.92 0 0 1-.81-.4l-.2-.68a143.29 143.29 0 0 0-1.28-4.1 15.55 15.55 0 0 0-1.03-2.57Zm11.63-1.1a7.63 7.63 0 0 0-.57 3.06 7.2 7.2 0 0 0 1.2 4.34q1.18 1.63 3.84 1.63a5.24 5.24 0 0 0 2.9-.76 4.72 4.72 0 0 0 1.78-2.1 7.32 7.32 0 0 0 .6-3 9.75 9.75 0 0 0-.45-3.16 3.83 3.83 0 0 0-1.56-2.02 5.56 5.56 0 0 0-3.06-.73 5.54 5.54 0 0 0-2.94.72q-1.18.72-1.74 2.02Zm11.62 0a7.63 7.63 0 0 0-.57 3.06 7.2 7.2 0 0 0 1.2 4.34q1.19 1.63 3.84 1.63a5.24 5.24 0 0 0 2.9-.76 4.72 4.72 0 0 0 1.78-2.1 7.32 7.32 0 0 0 .6-3 9.75 9.75 0 0 0-.45-3.16A3.83 3.83 0 0 0 56.5 4.3a5.56 5.56 0 0 0-3.06-.73 5.54 5.54 0 0 0-2.94.72q-1.17.72-1.74 2.02Zm-6.75 6.17q.5 0 .6-.08a3.35 3.35 0 0 0 .35-1.1 9.53 9.53 0 0 0 .12-1.54q0-.77-.1-1.43a3.93 3.93 0 0 0-.27-1.05.76.76 0 0 0-.44-.2q-.32-.06-.7-.06a1.5 1.5 0 0 0-.68.1 4.67 4.67 0 0 0-.49 2.34 9.89 9.89 0 0 0 .1 1.44 10.81 10.81 0 0 0 .28 1.33.87.87 0 0 0 .48.19q.36.06.75.06Zm11.62 0q.5 0 .6-.08a3.35 3.35 0 0 0 .35-1.1 9.53 9.53 0 0 0 .12-1.54q0-.77-.1-1.43a3.93 3.93 0 0 0-.27-1.05.76.76 0 0 0-.43-.2q-.33-.06-.7-.06a1.5 1.5 0 0 0-.69.1 4.67 4.67 0 0 0-.49 2.34 9.89 9.89 0 0 0 .1 1.44 10.81 10.81 0 0 0 .28 1.33.87.87 0 0 0 .48.19q.36.06.75.06Zm-34.16-1.46-.06-.23q-.51-.07-1.1-.07a2 2 0 0 0-.68.08 1.15 1.15 0 0 0-.31.78q0 .31.16.57a.62.62 0 0 0 .5.28 1.71 1.71 0 0 0 .58-.27q.34-.23.6-.54.26-.31.31-.6Z" vector-effect="non-scaling-stroke" stroke-linecap="round" fill-rule="evenodd" font-size="12" stroke="#000" stroke-width=".94" fill="none" style="stroke:#000;stroke-width:.25mm;fill:none"/></svg>