<svg width="135.19" height="18.35" xmlns="http://www.w3.org/2000/svg"><path d="M91.7 14.85q0-.5.07-.98.07-.49.16-.97a21.86 21.86 0 0 0 .15-.97q.07-.5.07-1.01a9.13 9.13 0 0 0-1.11.06 173.11 173.11 0 0 0-.92.12q-.45.05-.96.08a8.28 8.28 0 0 1-.47.02 14.1 14.1 0 0 1-.76-.03q-.53.59-1.2 1.25a13.63 13.63 0 0 1-1.44 1.23 8.7 8.7 0 0 1-1.6.95q-.84.38-1.7.38a3.26 3.26 0 0 1-1.12-.2q-.54-.19-.95-.54a2.52 2.52 0 0 1-.64-.85q-.23-.5-.23-1.1a.88.88 0 0 1 .1-.48.51.51 0 0 1 .46-.17q.18 0 .31.32a7.45 7.45 0 0 0 .36.73q.23.4.58.72a1.36 1.36 0 0 0 .96.32 3.91 3.91 0 0 0 1.45-.28 7.24 7.24 0 0 0 1.37-.72 9.39 9.39 0 0 0 1.23-1 17.7 17.7 0 0 0 1.05-1.07q-.06-.48-.36-.72l-.61-.47a2.33 2.33 0 0 1-.58-.62q-.25-.4-.25-1.23a2.42 2.42 0 0 1 .72-1.87 2.78 2.78 0 0 1 1.97-.67 3.46 3.46 0 0 1 .74.08 10.98 10.98 0 0 1 .73.18 10.98 10.98 0 0 0 .73.19q.36.08.73.08a1.04 1.04 0 0 0 .39-.06.78.78 0 0 0 .26-.18q.12-.12.25-.31a10.9 10.9 0 0 1 .35-.47 29.52 29.52 0 0 0 .37-.5l.53-.76.63-.89a61.33 61.33 0 0 0 .62-.9l.53-.76q.23-.33.33-.5.22-.18.4-.23a1.54 1.54 0 0 1 .4-.05.4.4 0 0 1 .35.17.87.87 0 0 1 .15.4 2.88 2.88 0 0 1 .02.35 3.04 3.04 0 0 1 0 .13v.56a3.7 3.7 0 0 1-.02.27 3.7 3.7 0 0 0 0 .26v.17a29.57 29.57 0 0 1-.2.58 92.15 92.15 0 0 0-.28.89l-.32 1.05q-.17.54-.31 1.05a89.29 89.29 0 0 1-.27.9l-.15.58a20.33 20.33 0 0 0-.06.32 22.03 22.03 0 0 0-.08.46 22.03 22.03 0 0 1-.08.46 2 2 0 0 0-.04.29 1.86 1.86 0 0 1 .35.12.26.26 0 0 1 .18.25.38.38 0 0 1-.15.31q-.14.12-.34.22a1.91 1.91 0 0 0-.36.23.53.53 0 0 0-.18.4l-.14.84-.23 1.3-.23 1.3q-.1.61-.17.85l-.07.21a3.25 3.25 0 0 1-.14.31l-.16.3a3.73 3.73 0 0 1-.11.2q-.47-.1-.77-.25-.29-.15-.29-.63ZM7.4 10.21l3.8-6.08a5.32 5.32 0 0 1 .69-.86 7.63 7.63 0 0 1 .93-.83 5.75 5.75 0 0 1 1.07-.63 2.56 2.56 0 0 1 1.06-.26 2.98 2.98 0 0 1 .37.04q.26.04.52.28.27.23.47.76a4.32 4.32 0 0 1 .2 1.5q-.13.04-.25.13a3.09 3.09 0 0 1-.26.17 1.96 1.96 0 0 1-.33.16q-.19.07-.42.07a2.03 2.03 0 0 0 .24-.85.8.8 0 0 0-.02-.18.7.7 0 0 0-.4-.51 1.14 1.14 0 0 0-.46-.1 1.95 1.95 0 0 0-.32.04 3.15 3.15 0 0 0-.94.32 3.33 3.33 0 0 0-.85.63 2.22 2.22 0 0 0-.54.88l-3.3 5.59v.25q.8.57 1.22 1.23a6.14 6.14 0 0 1 .65 1.34 9.6 9.6 0 0 1 .34 1.32q.12.64.3 1.16.19.52.53.86a1.68 1.68 0 0 0 1.03.42v.06l.02.06a.41.41 0 0 1-.19.36 1.43 1.43 0 0 1-.44.2q-.25.06-.52.08l-.42.02a2.63 2.63 0 0 1-.67-.94q-.26-.58-.46-1.26a30.02 30.02 0 0 1-.36-1.36q-.17-.7-.38-1.25-.22-.56-.5-.93-.3-.37-.77-.39-.27 0-.55.3a8.69 8.69 0 0 0-.6.75l-.7 1a6.37 6.37 0 0 1-.9.98 4.77 4.77 0 0 1-1.12.75q-.62.3-1.42.3a14.07 14.07 0 0 1-.85-.03 3.92 3.92 0 0 1-.9-.15q-.42-.13-.7-.41a1.07 1.07 0 0 1-.29-.8 2.01 2.01 0 0 1 .42-1.23 4.42 4.42 0 0 1 1.1-1.01q.67-.45 1.5-.78a17.07 17.07 0 0 1 1.65-.57q.82-.23 1.54-.38.73-.15 1.17-.22Zm28.8 5.52q-.35-.08-.78-.09a13.76 13.76 0 0 1-.88-.04 7.35 7.35 0 0 1-.87-.13 2 2 0 0 1-.72-.3 1.29 1.29 0 0 1-.46-.55 1.38 1.38 0 0 1-.1-.57 2.6 2.6 0 0 1 .02-.35l-.1-.3-.16-.48-.16-.47q-.08-.21-.08-.27a.39.39 0 0 1 0-.06.44.44 0 0 1 .05-.22.85.85 0 0 1 .2-.23q.12-.1.25-.17.14-.06.26-.08l.07.26a3.25 3.25 0 0 0 .13.43 2.41 2.41 0 0 0 .2.41.32.32 0 0 0 .24.19q.08 0 .16-.08a1.73 1.73 0 0 0 .22-.35l.4-.78.69-1.35 1.08-2.1a164.81 164.81 0 0 1 1.61-2.98 4.33 4.33 0 0 1 .64-.75q.46-.46 1.07-.96a27.1 27.1 0 0 1 1.33-1q.71-.51 1.4-.92a10.72 10.72 0 0 1 1.3-.67q.61-.25 1-.25h.36q.2.02.27.25V1.22l.02.28v.16q0 .72-.24 1.3A4.1 4.1 0 0 1 44 4.01a7.1 7.1 0 0 1-.91.92L42 5.84v.06l-.02.08a2.43 2.43 0 0 0 .25.3q.24.28.53.72a7.1 7.1 0 0 1 .52 1q.25.56.25 1.14 0 1.23-.72 2.41-.7 1.18-1.8 2.12a9.38 9.38 0 0 1-2.37 1.5q-1.28.57-2.46.57Zm61.66-1.8v.26a3.5 3.5 0 0 0 1.47-.65 8.97 8.97 0 0 0 1.34-1.23 20.54 20.54 0 0 0 1.2-1.47 97.03 97.03 0 0 1 1.1-1.42q.5-.66.95-1.09a1.27 1.27 0 0 1 .84-.43q0 .72-.3 1.31a16.59 16.59 0 0 1-.63 1.15q-.34.57-.63 1.16-.3.6-.3 1.34a.68.68 0 0 0 .38.56q.38.24.88.4.5.18.97.27a8.31 8.31 0 0 0 .64.12v.5q-.45.03-1.11.02-.66-.01-1.33-.15a3.8 3.8 0 0 1-1.2-.46q-.54-.32-.71-.95a6.76 6.76 0 0 0-.98.79 12.93 12.93 0 0 1-.97.84q-.5.39-1.04.66a2.63 2.63 0 0 1-1.2.27.8.8 0 0 1-.65-.33 1.07 1.07 0 0 1-.26-.66 2.9 2.9 0 0 1 .18-.83q.17-.54.45-1.16.29-.63.65-1.28a13.56 13.56 0 0 1 .73-1.17q.37-.52.7-.86a.91.91 0 0 1 .6-.33q.54 0 .54.53 0 .23-.09.39a1.82 1.82 0 0 1-.2.3 3.22 3.22 0 0 1-.26.26 1.21 1.21 0 0 0-.23.3q-.18.3-.43.8l-.5.99a32.67 32.67 0 0 0-.42.85 2.67 2.67 0 0 0-.18.4Zm7.66.96-.9-.76q.18 0 .34-.08a3.09 3.09 0 0 0 .33-.17q1.17-.78 2.11-1.8a33.42 33.42 0 0 0 1.87-2.19l.2-.34a21.52 21.52 0 0 0 .37-.64l.39-.73a9.93 9.93 0 0 0 .29-.57 1.87 1.87 0 0 0 .15-.41 1.94 1.94 0 0 1 .06-.25.2.2 0 0 1 .1-.12.89.89 0 0 1 .33-.04 1.95 1.95 0 0 1 .19.02.75.75 0 0 1 .19.04 244.45 244.45 0 0 1 .44.93 10.2 10.2 0 0 1 .34.77 4.23 4.23 0 0 1 .2.74 4.54 4.54 0 0 1 .07.82 24.35 24.35 0 0 1-.57 1.32 14.9 14.9 0 0 0-.52 1.28 4.72 4.72 0 0 0-.27 1.09 1.48 1.48 0 0 0 0 .15.88.88 0 0 0 .22.62 1.24 1.24 0 0 0 .9.3 2.22 2.22 0 0 0 .06 0 6.5 6.5 0 0 0 1.74-.33.25.25 0 0 1 .17.2.27.27 0 0 1-.1.18 2.52 2.52 0 0 1-.78.42 7.5 7.5 0 0 1-1.13.33 3.74 3.74 0 0 1-.75.08 1.98 1.98 0 0 1-.28-.02 1.33 1.33 0 0 1-.61-.12q-.25-.13-.4-.35-.14-.21-.2-.48-.08-.28-.08-.57a2.43 2.43 0 0 1 .25-1.08 8.92 8.92 0 0 1 .53-.95q.3-.45.54-.9.25-.45.25-.96l-.02-.28a2.56 2.56 0 0 0-.03-.32q-.03-.16-.12-.27a.28.28 0 0 0-.23-.1h-.06q-.05.02-.05.04-.28.37-.66.82a17.26 17.26 0 0 1-.8.91 54.13 54.13 0 0 1-.85.86q-.4.41-.74.69a166.04 166.04 0 0 0-.63.58 81.72 81.72 0 0 1-.8.73l-.7.64a1.6 1.6 0 0 1-.35.27Zm14.3 0-.9-.76q.17 0 .34-.08a3.09 3.09 0 0 0 .32-.17q1.17-.78 2.12-1.8a33.42 33.42 0 0 0 1.87-2.19l.2-.34a21.52 21.52 0 0 0 .36-.64l.4-.73a9.93 9.93 0 0 0 .29-.57 1.87 1.87 0 0 0 .14-.41 1.94 1.94 0 0 1 .06-.25.2.2 0 0 1 .1-.12.89.89 0 0 1 .34-.04 1.95 1.95 0 0 1 .19.02.75.75 0 0 1 .18.04 244.45 244.45 0 0 1 .45.93 10.2 10.2 0 0 1 .33.77 4.23 4.23 0 0 1 .2.74 4.54 4.54 0 0 1 .08.82 24.35 24.35 0 0 1-.57 1.32 14.9 14.9 0 0 0-.53 1.28 4.72 4.72 0 0 0-.26 1.09 1.48 1.48 0 0 0 0 .15.88.88 0 0 0 .21.62 1.24 1.24 0 0 0 .9.3 2.22 2.22 0 0 0 .07 0 6.5 6.5 0 0 0 1.74-.33.25.25 0 0 1 .17.2.27.27 0 0 1-.11.18 2.52 2.52 0 0 1-.77.42 7.5 7.5 0 0 1-1.14.33 3.74 3.74 0 0 1-.74.08 1.98 1.98 0 0 1-.28-.02 1.33 1.33 0 0 1-.62-.12q-.24-.13-.39-.35-.14-.21-.21-.48-.07-.28-.07-.57a2.43 2.43 0 0 1 .24-1.08 8.92 8.92 0 0 1 .54-.95q.3-.45.54-.9.24-.45.24-.96v-.28a2.56 2.56 0 0 0-.05-.32q-.03-.16-.11-.27a.28.28 0 0 0-.23-.1h-.07q-.05.02-.05.04-.27.37-.65.82a17.26 17.26 0 0 1-.81.91 54.13 54.13 0 0 1-.84.86q-.41.41-.74.69a166.04 166.04 0 0 0-.64.58 81.72 81.72 0 0 1-.8.73l-.7.64a1.6 1.6 0 0 1-.34.27Zm-85.41-.95a.43.43 0 0 0 .21.4q.22.12.49.15a3.11 3.11 0 0 0 .33.02 3.27 3.27 0 0 0 .23 0l.4-.03a6.5 6.5 0 0 0 2.22-.36 5.4 5.4 0 0 0 1.76-1.03 6.7 6.7 0 0 0 1.32-1.62q.56-.93.93-2.09v-.18a3.85 3.85 0 0 0 .02-.19q0-.76-.23-1.18-.22-.42-.62-.62a2.73 2.73 0 0 0-.97-.27 27.43 27.43 0 0 0-1.25-.1.7.7 0 0 1-.28-.2q-.19-.18-.2-.28a.17.17 0 0 1-.02-.07.55.55 0 0 1 .07-.22q.1-.2.18-.24a4.69 4.69 0 0 0 1.6-.34q.82-.32 1.5-.87a4.65 4.65 0 0 0 1.1-1.29 3.14 3.14 0 0 0 .43-1.6 2.95 2.95 0 0 0-1.54.5q-.8.5-1.56 1.2-.75.72-1.36 1.52-.6.8-.93 1.4a38.61 38.61 0 0 1-.45.85L37.1 8.5a147.24 147.24 0 0 0-.79 1.52 1643.05 1643.05 0 0 1-.78 1.52 137.66 137.66 0 0 0-.66 1.31l-.43.86a.38.38 0 0 0-.03.12l-.01.12Zm18.12-1.76 3.56-7.11a2.85 2.85 0 0 1 .3-.44 16.6 16.6 0 0 1 .49-.59 11.25 11.25 0 0 1 .52-.56l.44-.42q.14.04.2.13.06.1.08.23a1.08 1.08 0 0 1 .01.16.95.95 0 0 1 0 .08l-.01.2v.27a.32.32 0 0 1-.02.18 8.84 8.84 0 0 1-.6 1.25q-.42.72-.93 1.54a188.06 188.06 0 0 0-1.04 1.7 26.65 26.65 0 0 0-.98 1.77q-.44.87-.72 1.67-.28.8-.28 1.46a.75.75 0 0 0 .2.56 2.88 2.88 0 0 0 .44.36 8.56 8.56 0 0 1 .44.31.51.51 0 0 1 .2.43.28.28 0 0 1-.15.27q-.16.08-.37.08a2.3 2.3 0 0 1-1.43-.46 1.55 1.55 0 0 1-.6-1.31l.03-.42a14.45 14.45 0 0 1 .07-.56 16.76 16.76 0 0 1 .07-.5.91.91 0 0 1 .08-.28Zm4.98 0 3.56-7.11a2.85 2.85 0 0 1 .3-.44 16.6 16.6 0 0 1 .49-.59 11.25 11.25 0 0 1 .52-.56l.44-.42q.14.04.2.13.06.1.08.23a1.08 1.08 0 0 1 .01.16.95.95 0 0 1 0 .08l-.01.2v.27a.32.32 0 0 1-.02.18 8.84 8.84 0 0 1-.6 1.25l-.92 1.54a188.06 188.06 0 0 0-1.05 1.7 26.65 26.65 0 0 0-.98 1.77q-.44.87-.72 1.67-.28.8-.28 1.46a.75.75 0 0 0 .2.56 2.88 2.88 0 0 0 .44.36 8.56 8.56 0 0 1 .44.31.51.51 0 0 1 .2.43.28.28 0 0 1-.15.27q-.16.08-.37.08a2.3 2.3 0 0 1-1.43-.46 1.55 1.55 0 0 1-.6-1.31l.03-.42a14.45 14.45 0 0 1 .07-.56 16.76 16.76 0 0 1 .07-.5.91.91 0 0 1 .08-.28Zm-43.28.21a6.65 6.65 0 0 0-.66 2.05q0 .53.37.91a1.19 1.19 0 0 0 .88.38 2.21 2.21 0 0 0 .9-.2q.44-.19.82-.48a6.19 6.19 0 0 0 .73-.66l.63-.69q0 .31.11.64a1.95 1.95 0 0 0 .3.57q.2.26.47.41a1.24 1.24 0 0 0 .63.16q.37 0 .8-.08.45-.08.86-.24a4.9 4.9 0 0 0 .78-.4 2.1 2.1 0 0 0 .6-.57l-.24-.01h-.26a2.98 2.98 0 0 0-.9.13 3.04 3.04 0 0 1-.9.13.92.92 0 0 1-.8-.3q-.22-.3-.22-.8a2.1 2.1 0 0 1 .2-.93 10.4 10.4 0 0 1 .46-.84 12.77 12.77 0 0 0 .45-.82 1.9 1.9 0 0 0 .2-.86 1.79 1.79 0 0 0-.96-.78A2.43 2.43 0 0 0 18.7 9a3.02 3.02 0 0 0-.53.05 4.27 4.27 0 0 0-1.45.58 6.27 6.27 0 0 0-1.38 1.14 7.6 7.6 0 0 0-1.12 1.63Zm31.54 2.3q-.33-.73-.29-1.45.04-.71.32-1.35a4.47 4.47 0 0 1 .74-1.15 6.07 6.07 0 0 1 1-.9 4.38 4.38 0 0 1 1.06-.57 2.49 2.49 0 0 1 .83-.17 1.53 1.53 0 0 1 .11 0 .9.9 0 0 1 .65.3.86.86 0 0 1 .17.58 1.95 1.95 0 0 1-.02.27 2 2 0 0 1-.48 1.32 7.06 7.06 0 0 1-1.05 1.02q-.57.45-1.05.8a.96.96 0 0 0-.48.68.3.3 0 0 0 .2.28 1.88 1.88 0 0 0 .48.14 5.23 5.23 0 0 0 .55.07 4.76 4.76 0 0 1 .39.04q1.84-.39 2.75-.48a7.45 7.45 0 0 1 .69-.04 1.25 1.25 0 0 1 .47.06.13.13 0 0 1 .1.11.35.35 0 0 1-.2.22 4.54 4.54 0 0 1-.98.47q-.66.25-1.54.44-.88.2-1.74.23t-1.6-.17a1.77 1.77 0 0 1-1.08-.74Zm16.66 0q-.33-.73-.29-1.45.04-.71.32-1.35a4.47 4.47 0 0 1 .74-1.15 6.07 6.07 0 0 1 1-.9 4.38 4.38 0 0 1 1.06-.57 2.49 2.49 0 0 1 .83-.17 1.53 1.53 0 0 1 .11 0 .9.9 0 0 1 .65.3.86.86 0 0 1 .17.58 1.95 1.95 0 0 1-.02.27 2 2 0 0 1-.47 1.32 7.06 7.06 0 0 1-1.06 1.02q-.57.45-1.05.8a.96.96 0 0 0-.48.68.3.3 0 0 0 .2.28 1.88 1.88 0 0 0 .48.14 5.23 5.23 0 0 0 .55.07 4.76 4.76 0 0 1 .39.04q1.84-.39 2.75-.48a7.45 7.45 0 0 1 .69-.04 1.25 1.25 0 0 1 .47.06.13.13 0 0 1 .1.11.35.35 0 0 1-.2.22 4.54 4.54 0 0 1-.98.47q-.66.25-1.54.44-.88.2-1.74.23t-1.6-.17a1.77 1.77 0 0 1-1.08-.74Zm65.24 0q-.33-.73-.3-1.45.04-.71.33-1.35a4.47 4.47 0 0 1 .74-1.15 6.07 6.07 0 0 1 .99-.9 4.38 4.38 0 0 1 1.06-.57 2.49 2.49 0 0 1 .84-.17 1.53 1.53 0 0 1 .1 0 .9.9 0 0 1 .65.3.86.86 0 0 1 .18.58 1.95 1.95 0 0 1-.02.27 2 2 0 0 1-.48 1.32 7.06 7.06 0 0 1-1.06 1.02q-.57.45-1.05.8a.96.96 0 0 0-.48.68.3.3 0 0 0 .2.28 1.88 1.88 0 0 0 .49.14 5.23 5.23 0 0 0 .54.07 4.76 4.76 0 0 1 .4.04q1.83-.39 2.75-.48a7.45 7.45 0 0 1 .69-.04 1.25 1.25 0 0 1 .46.06.13.13 0 0 1 .1.11.35.35 0 0 1-.19.22 4.54 4.54 0 0 1-.98.47q-.67.25-1.55.44-.88.2-1.74.23t-1.59-.17a1.77 1.77 0 0 1-1.08-.74Zm-14.26-.62.01-.32.01-.32a11.6 11.6 0 0 1 1.6-2.64 12.76 12.76 0 0 1 2.2-2.15q.05 0 .14-.03a.47.47 0 0 1 .12-.02q.53 0 .87.22.34.22.55.58a2.5 2.5 0 0 1 .28.8 4.85 4.85 0 0 1 .08.86 4.08 4.08 0 0 1-.35 1.59q-.35.83-.95 1.52a5.22 5.22 0 0 1-1.36 1.13 3.12 3.12 0 0 1-1.58.44 1.57 1.57 0 0 1-1.22-.44q-.4-.44-.4-1.22ZM94.98 2.4l-3.24 3.97a9.85 9.85 0 0 1 .8 1.1 21.97 21.97 0 0 1 .7 1.18l1.74-6.25ZM1.06 14.14a.46.46 0 0 0 .16.37 1 1 0 0 0 .4.2q.24.06.48.08a5.09 5.09 0 0 0 .38.02 2.95 2.95 0 0 0 1.17-.29 5.3 5.3 0 0 0 1.2-.73q.56-.45.94-1 .38-.56.38-1.13-1.52 0-2.84.54-1.32.54-2.25 1.82l-.01.06-.01.06Zm13.79-.3v.36a.27.27 0 0 0 .25.25 3.77 3.77 0 0 0 1.11-.51q.63-.4 1.18-.94a5.85 5.85 0 0 0 .91-1.15q.37-.62.37-1.19v-.12l-.02-.13a3.61 3.61 0 0 0-1.34.27q-.69.28-1.23.76a4.02 4.02 0 0 0-.9 1.1 2.69 2.69 0 0 0-.33 1.3Zm71.03-6.48a1.32 1.32 0 0 0 .2.63q.2.35.48.66.3.32.63.53.33.21.62.21.28 0 .65-.33a5.85 5.85 0 0 0 .71-.77 7.27 7.27 0 0 0 .58-.85q.23-.4.23-.56a.58.58 0 0 0-.22-.5 1.4 1.4 0 0 0-.53-.24 2.87 2.87 0 0 0-.63-.06h-.55a5.26 5.26 0 0 0-.66.04q-.38.05-.7.19a1.58 1.58 0 0 0-.58.39q-.23.25-.23.66Zm29.04 6.49a.3.3 0 0 0 .18.3q.18.07.35.07a1.88 1.88 0 0 0 .95-.26q.46-.27.82-.67.36-.4.58-.89.21-.49.21-.93a4.37 4.37 0 0 0-.03-.48 1.46 1.46 0 0 0-.13-.47.72.72 0 0 0-.3-.32.6.6 0 0 0-.3-.07 1.32 1.32 0 0 0-.28.03q-.27.06-.62.5a7.43 7.43 0 0 0-.67 1.05q-.33.6-.54 1.2-.22.59-.22.94Zm-23.55-6.5a1.24 1.24 0 0 0-.66.33 7.53 7.53 0 0 0-.82.77 8.59 8.59 0 0 0-.73.88q-.31.44-.31.65a19.87 19.87 0 0 0 .46 0 247.42 247.42 0 0 1 .72-.03 23.05 23.05 0 0 0 .72-.03 9.81 9.81 0 0 1 .48-.02 1.2 1.2 0 0 0 .25-.04 23.9 23.9 0 0 0 .32-.07l.28-.08a.51.51 0 0 0 .15-.06q.02 0 .02-.13v-.2a3.75 3.75 0 0 0-.05-.5q-.05-.32-.16-.66a2.25 2.25 0 0 0-.27-.57q-.17-.25-.4-.25Zm-44.28 5.1h.06q.27 0 .63-.24.35-.24.66-.58a4.1 4.1 0 0 0 .53-.71q.21-.37.21-.66a1.4 1.4 0 0 0-.74.21q-.35.21-.63.54-.29.32-.48.7-.2.38-.3.71l.06.02Zm16.66 0h.06q.27 0 .63-.24.35-.24.66-.58a4.1 4.1 0 0 0 .53-.71q.21-.37.21-.66a1.4 1.4 0 0 0-.74.21q-.35.21-.63.54-.29.32-.48.7-.2.38-.3.71l.06.02Zm65.24 0h.05q.28 0 .63-.24t.66-.58a4.1 4.1 0 0 0 .53-.71q.22-.37.22-.66a1.4 1.4 0 0 0-.75.21q-.35.21-.63.54-.28.32-.48.7-.2.38-.3.71l.07.02Z" vector-effect="non-scaling-stroke" stroke-linecap="round" fill-rule="evenodd" font-size="12" stroke="#000" stroke-width=".94" fill="none" style="stroke:#000;stroke-width:.25mm;fill:none"/></svg>