<svg width="89.47" height="19.06" xmlns="http://www.w3.org/2000/svg"><path d="M66.45 4.98h2v6.8q0 .98.34 1.4.34.4.86.4.28 0 .56-.15t.5-.43q.22-.28.36-.68.14-.4.14-.92V4.98h2v6.8q0 .34.04.66t.17.57q.13.25.36.41.23.16.6.16.61 0 1.03-.45.42-.45.7-1.17.26-.72.38-1.6.12-.9.12-1.78 0-.56-.04-1.1-.04-.56-.14-1-.1.1-.26.13t-.26.03q-.48 0-.72-.34t-.24-.72q0-.4.26-.7.26-.32.76-.32.34 0 .65.2t.54.63q.23.43.36 1.13.13.7.13 1.72 0 1.14-.19 2.35-.19 1.21-.63 2.21t-1.14 1.65q-.7.65-1.74.65-.78 0-1.48-.4t-1.04-1.16q-.4.82-.97 1.2-.57.36-1.19.36-.58 0-1.1-.16-.52-.16-.9-.53t-.6-.96q-.22-.59-.22-1.45V4.98ZM6.8.22l-.02.06v14.3q.64.14 1.25.44l1.25.6q.64.3 1.35.52.71.22 1.55.22.7 0 1.54-.4.06.28.06.54 0 .42-.15.8-.15.36-.44.64-.29.28-.7.45-.4.17-.9.17-.79 0-1.55-.49T8.5 17q-.78-.59-1.63-1.08-.85-.49-1.8-.49h-.24l-.23.02V1.36q-1.34.38-2.12 1.3t-.78 2.3q0 .54.08.91t.2.64q.12.27.3.46.16.2.34.35-1.2 0-1.9-.55T.01 4.9q0-.96.5-1.8.5-.86 1.33-1.5.83-.66 1.9-1.04Q4.81.18 5.95.18l.43.01.41.03ZM63.75 1.9v13.08H61.6V1.58q-.22-.04-.4-.04h-.4q-1.68 0-2.57.61-.89.61-.89 2.21 0 1.2.27 1.83.27.63.55.95-.5 0-.93-.15-.43-.15-.75-.49-.32-.34-.5-.89t-.18-1.37q0-.82.32-1.58.32-.76 1.03-1.35.71-.59 1.84-.95Q60.11 0 61.75 0q.8 0 1.45.07.65.07 1.22.16.57.1 1.13.16.56.07 1.18.07.84 0 1.41-.13t.95-.29q.06.36.06.68 0 1.66-2.12 1.66-.72 0-1.55-.14-.83-.14-1.73-.34Zm-30.52.32 2-.28v3.04h1.54v.7h-1.54v6.1l.02.55q.02.31.11.6.1.27.28.46.2.2.53.2.54 0 1.03-.55.5-.54.77-1.64h.74q-.34 1.26-.73 2-.39.72-.8 1.1-.43.38-.84.5-.4.1-.75.1-.72 0-1.18-.27-.46-.27-.72-.69-.26-.42-.36-.93-.1-.5-.1-1V5.67h-.68v-.7h.68V2.22Zm12.08 9.18h.64q-.26.74-.72 1.41-.46.67-1.08 1.18-.62.51-1.34.81-.72.3-1.48.3-.7 0-1.35-.24-.65-.24-1.15-.79-.5-.55-.8-1.43-.32-.88-.32-2.16 0-.84.2-1.82.18-.98.63-1.82.45-.84 1.18-1.4.73-.56 1.81-.56.5 0 .97.11t.85.4q.38.3.61.8.23.5.23 1.3 0 1.4-1.15 2.33-1.15.94-3.19 1.16.08.8.3 1.3.2.5.5.8.3.28.7.4.38.1.8.1a3.46 3.46 0 0 0 1.8-.5q.84-.5 1.36-1.68Zm-27.3 0 .02-10.14 2-.28v4.74q.34-.34.8-.56.46-.22 1.1-.22.54 0 1.12.2.58.18 1.08.66.5.48.82 1.32.32.84.32 2.14 0 1.14-.27 2.2-.27 1.06-.82 1.87-.55.81-1.37 1.3-.82.47-1.92.47-.62 0-1.15-.19-.53-.19-.9-.62-.39-.43-.6-1.14-.23-.7-.23-1.75Zm-1.58-3.36h.12q.84 0 1.54-.34.7-.34 1.2-.86l.3.54q-.4.64-1.27 1.06-.87.42-1.79.58l.01.4.01.42q0 2.46-.9 3.86t-2.52 1.4q-.66 0-1.33-.24t-1.2-.8q-.55-.56-.88-1.44-.33-.88-.33-2.18 0-.88.2-1.86.18-.98.63-1.8.45-.82 1.2-1.36.75-.54 1.87-.54.78 0 1.34.24t.92.67q.36.43.57 1.01.21.58.31 1.24Zm69.28 0h.12q.84 0 1.54-.34.7-.34 1.2-.86l.3.54q-.4.64-1.27 1.06-.87.42-1.79.58l.01.4.01.42q0 2.46-.9 3.86t-2.52 1.4q-.66 0-1.33-.24t-1.2-.8q-.55-.56-.88-1.44-.33-.88-.33-2.18 0-.88.2-1.86.18-.98.63-1.8.45-.82 1.2-1.36.75-.54 1.87-.54.78 0 1.34.24t.92.67q.36.43.57 1.01.21.58.31 1.24ZM45.3 4.98h2v1.68l.47-.68q.23-.32.51-.56.28-.24.62-.39.34-.15.76-.15.68 0 1 .35.32.35.32.85 0 .3-.1.5t-.24.32q-.14.12-.3.17-.16.05-.28.05-.18 0-.29-.08l-.22-.17q-.1-.09-.25-.17-.14-.08-.36-.08-.46 0-.88.32t-.76.68v7.36h-2v-10ZM33.23 11.4h.84q-.58.8-1.19 1.33-.6.53-1.19.93-.22.4-.56.67-.34.27-.73.44-.39.17-.78.25-.39.08-.7.08-.89 0-1.46-.28t-.9-.7q-.35-.44-.49-.97t-.14-1q0-.53.21-.92t.51-.55l1.02-2.97q.5-1.47.66-2.95l2.02-.4.8 3.1.5 2.03q.18.83.27 1.46.1.63.1 1.4.33-.23.63-.48l.58-.47ZM13.5 13.58q1.06 0 1.56-1.05t.5-2.97v-.24l-.02-.24q-.58-.04-.83-.26t-.25-.74q0-.46.2-.65t.6-.2q-.24-.7-.6-.98-.38-.27-.84-.27-.62 0-1.05.41-.43.41-.7 1.05-.27.64-.39 1.41-.12.77-.12 1.51 0 .98.18 1.6.18.62.46.98t.62.5q.34.14.68.14Zm69.28 0q1.06 0 1.56-1.05t.5-2.97v-.24l-.02-.24q-.58-.04-.83-.26t-.25-.74q0-.46.2-.65t.6-.2q-.24-.7-.6-.98-.38-.27-.84-.27-.62 0-1.05.41-.43.41-.7 1.05-.27.64-.39 1.41-.12.77-.12 1.51 0 .98.18 1.6.18.62.46.98t.62.5q.34.14.68.14ZM20.03 6.66v5.26q0 1.8 1.18 1.8.56 0 1-.33.42-.33.71-.89.3-.56.43-1.28.14-.72.14-1.5t-.14-1.46q-.14-.68-.4-1.19-.28-.5-.67-.8-.39-.29-.89-.29-.4 0-.74.2-.34.18-.62.48Zm9.86 5.54q0-.62-.07-1.1-.07-.48-.2-1.06l-.36-1.4-.49-2.14q-.12 1.12-.49 2.14t-.67 2.1q.18.12.31.33.13.21.13.55 0 .38-.2.58-.2.2-.44.2-.32 0-.54-.28.16.7.56 1.1.4.38 1.06.38.64 0 1.02-.33t.38-1.07Zm9.94-2q1.42-.22 2.25-1 .83-.78.83-1.92 0-.76-.26-1.09-.26-.33-.74-.33-.52 0-.9.4-.4.4-.66 1.03t-.39 1.4q-.13.77-.13 1.51Z" vector-effect="non-scaling-stroke" stroke-linecap="round" fill-rule="evenodd" font-size="12" stroke="#000" stroke-width=".94" fill="none" style="stroke:#000;stroke-width:.25mm;fill:none"/></svg>