<svg width="41.1" height="14.63" xmlns="http://www.w3.org/2000/svg"><path d="M9.92 14H0v-.66q.76-.04 1.04-.35t.31-.86q.03-.55.03-1.25V2.24q0-.4.02-.77L1.44.8.72.84 0 .88V0h4.5v.66Q3.76.68 3.47 1q-.29.32-.32.86-.03.54-.03 1.26v8.58l-.01.92q-.01.38-.05.64l3.74-.06q1.26-.02 1.91-.8.65-.78.65-2.54h.68L9.92 14Zm30.58 0h-2.86q-.06-.34-.08-.6l-.06-.54q-.68.68-1.47 1.07-.79.39-1.67.39-1.52 0-2.26-.69a2.22 2.22 0 0 1-.74-1.69q0-.92.57-1.59t1.48-1.1q.91-.43 1.98-.64a9.84 9.84 0 0 1 1.9-.2 8.72 8.72 0 0 1 .17.01V7.18q0-.7-.12-1.32-.12-.62-.52-1.02t-1.28-.42a2.6 2.6 0 0 0-.09 0 3 3 0 0 0-1.1.22q-.61.24-.89.82.16.16.21.37.05.21.05.39 0 .24-.2.55a.7.7 0 0 1-.64.3 1.49 1.49 0 0 1-.06-.01q-.42 0-.64-.29-.22-.29-.22-.69 0-.68.51-1.22.51-.54 1.41-.86.9-.32 2.04-.32 1.68 0 2.48.89t.78 2.81v1.49l-.01 1.5-.01 1.51-.02.64-.06.72.71-.04.71-.04V14Zm-17.46 0v-.6q.62 0 .86-.31t.28-.86q.04-.55.04-1.27V6.4l.01-.64q.01-.32.07-.66l-.71.03-.71.03v-.82h.62q.86 0 1.19-.17.33-.17.55-.37h.58q.04.32.06.79l.04 1.19q.3-.5.82-.98t1.17-.8q.65-.32 1.37-.32.56 0 .98.3.42.3.42.96 0 .16-.1.39t-.32.4q-.22.17-.58.17-.44-.02-.7-.35a.96.96 0 0 1-.21-.6 1.2 1.2 0 0 1 .01-.17 1.67 1.67 0 0 0-.07 0 2.06 2.06 0 0 0-.96.26q-.53.28-.99.77-.46.49-.82 1.15l.02 4.92-.01.71q-.01.31-.07.65l.63-.03.63-.03V14h-4.1Zm-6.74.32q-1.4 0-2.54-.65-1.14-.65-1.81-1.8-.67-1.15-.67-2.63 0-1.58.66-2.84.66-1.26 1.8-1.99 1.14-.73 2.56-.73 1.4 0 2.54.67 1.14.67 1.82 1.81.68 1.14.68 2.6 0 1.54-.67 2.81t-1.81 2.01q-1.14.74-2.56.74Zm.16-.8q1.06 0 1.68-.6.62-.6.89-1.56.27-.96.27-2.02 0-.9-.17-1.77t-.53-1.58q-.36-.71-.93-1.13-.57-.42-1.37-.42-1.04 0-1.7.6-.66.6-.97 1.56-.31.96-.31 2.06 0 1.24.34 2.35t1.04 1.81q.7.7 1.76.7Zm21-4.42q-.68.02-1.43.17-.75.15-1.38.45-.63.3-1.02.79a1.75 1.75 0 0 0-.37 1.12 2.37 2.37 0 0 0 0 .07q.04.74.49 1.11.45.37 1.07.37.82 0 1.43-.31t1.21-.87q-.02-.22-.02-.48v-.54l.01-.64.01-1.24Z" vector-effect="non-scaling-stroke" stroke-linecap="round" fill-rule="evenodd" font-size="12" stroke="#000" stroke-width=".94" fill="none" style="stroke:#000;stroke-width:.25mm;fill:none"/></svg>