<svg width="188.64" height="16.9" xmlns="http://www.w3.org/2000/svg"><path d="M89.12 1.06V.98l.11-.02h.16q1.72.2 2.03.49a1.04 1.04 0 0 1 .25.76l-.1.17v.06a7.18 7.18 0 0 1 .3 2.46q0 3.89.21 5.02h.08a51.24 51.24 0 0 1 3.27-2.36 3.5 3.5 0 0 0 .29-1.74q0-.4.39-.4l.78-.07q1.76 0 2.1.37v.04l-.05.06a1.64 1.64 0 0 0-.55-.14l-.06.08v.02q0 .12.57.18.16 0 .16.92 0 .37-.3.37a.67.67 0 0 0-.29.27l-.06.02-.39-.02h-.08a.62.62 0 0 1-.44.43q-.08 0-.08.1l.08.13-1.88 1.3-.02.05a111.54 111.54 0 0 0 1.93 3.97 4.73 4.73 0 0 1 .36.9h-.12l-.12-.12h-.06a.64.64 0 0 0 .74.23q1.31 0 1.31.24l-.15.2q.25.42.25 1.26 0 .27-.27.27l-.18.02q-.47-.07-2.28-.07h-.12q-.23 0-.35-.6-.12-1.02-.4-1.86-.44-1.02-1.3-2.72a1.65 1.65 0 0 0-.5-.98q-.34.04-1.06.61-.26.21-.38.21a.14.14 0 0 1-.11-.07V11l.06-.1v-.02h-.12a.7.7 0 0 0-.26.53l.03.11a.36.36 0 0 0-.16.34l.04 2.09a.8.8 0 0 0 .84.33q.13.12.6.27l.08.2-.02.29v.22l.06.27v.04a.57.57 0 0 1-.3.25l-.01-.02h-.12v.08a.32.32 0 0 0 .27.23v.04a.27.27 0 0 1-.23.1l-.92-.23a21.01 21.01 0 0 1-2.46-.22l-.27.06q-.26-.12-.26-.63v-.11l-.02-.02a.65.65 0 0 1 .3-.55H90v.3l.07.07h.26l-.08-.1v-.05l.16-.02h.19l-.23-.24.27-.06v-.05q-.02-.06-.2-.06h-.07l-.41.05v-.03a1.33 1.33 0 0 1 .88-.28 5.42 5.42 0 0 1 .66-.11l.06-.08v-.02a.4.4 0 0 0-.28-.04 3.53 3.53 0 0 1-.15-1.68q-.12-2.03-.37-2.8-.12-4.86-.32-5.8a1.61 1.61 0 0 0-.68-.11l-.57.14q-.21-.22-.23-.36l-.04-1.2-.02-.08a.5.5 0 0 1 .08-.3l.21.04v-.04a.7.7 0 0 0-.15-.3v-.09a.13.13 0 0 0 .15-.06l-.07-.13Zm49.43 1.2 1.29.26a2.55 2.55 0 0 1 1.13.57h.08a1.05 1.05 0 0 1 .14-.76q.58.21.7.21h.39l.31-.02.04.06-.02.12v2.5a.48.48 0 0 1-.14.35q.16.15.16.3 0 .13-.12.32l.06.33a.18.18 0 0 1-.11.24l-.51-.08h-.02l-.28.08h-.03a2.02 2.02 0 0 1-.26-.84.65.65 0 0 0-.23-.49 1.23 1.23 0 0 1-.26-.5l.12-.05v-.02q-.3-.23-.35-.52a2.19 2.19 0 0 0-1.37-.8h-.13q-.22 0-1.96.4a2.96 2.96 0 0 0-.5.75q-.38.49-.38.94.12 1.25.32 1.25a1.28 1.28 0 0 0 .6.8.88.88 0 0 0 .47.2q.27.25 1.15.62a.17.17 0 0 0 .2.1l.23-.08a.2.2 0 0 1 .16.07v.03l-.08.07v.06a.83.83 0 0 0 .66.33v-.02l-.37-.3V8.7a5.12 5.12 0 0 1 1.25.68q1.63 1.5 1.63 1.92a9.72 9.72 0 0 1 .27 1.48q-.18 1.49-.33 1.49l-.47.82a6.31 6.31 0 0 1-1.59.82q-2.24-.49-2.98-.78-1.53-1.43-1.53-1.68l-.07-.06-.04.02V14.6a.8.8 0 0 1-.7.14h-.36l-.3.1a.59.59 0 0 1-.34-.22v-.02l.1-.16a10.66 10.66 0 0 1 .33-3.28h.04l.35.06a.38.38 0 0 0 .2-.06l.25.06.13-.04h.08a2.08 2.08 0 0 1 .35.57q.75.94 1.33 1.8a1.86 1.86 0 0 1 .49.52l1.21.53h.35v.08h.04l.1-.06h.04a.5.5 0 0 0 .3.12h.1a.57.57 0 0 0 .53-.14v-.04h-.39l-.23-.02a5.4 5.4 0 0 1 1.39-.3 1.31 1.31 0 0 0 .6-1.09.65.65 0 0 1 .18-.5v-.08q-.33-1.04-.74-1.35a3.78 3.78 0 0 0-1.78-.96 5.7 5.7 0 0 1-1.64-.91 1.63 1.63 0 0 1-1.06-.6 3.32 3.32 0 0 0-.9-.85 6.44 6.44 0 0 0-.76-1.66 7.46 7.46 0 0 1-.21-1.82 4.45 4.45 0 0 1 1.4-1.77q.73-.4 2.29-.4Zm14.51 1.75.3-.08a19.58 19.58 0 0 1 2.9.58 6.48 6.48 0 0 0 1.31.53.9.9 0 0 0 .16-.55v-.17a.28.28 0 0 1 .35-.26 1.09 1.09 0 0 1 .66-.17.6.6 0 0 1 .6.13l.17 1.84v.57q0 .7-.2.84a.48.48 0 0 1-.27.17q-1.1-.1-1.1-.3a1.05 1.05 0 0 0-.68-.67q-1.87-.94-2.7-.94l-.54-.04q-.98 0-1.15.37-.24.31-.24.84v.02a2.06 2.06 0 0 0 1.12 1.78 5.3 5.3 0 0 0 1.93.45q0 .15.88.43.17.29.76.29.6.23 1.74 1.48l.08.08v.08q0 .04-.12.04v.04q.27.58.27.68 0 1.76-.56 2.2-.26.54-1.08 1.04-.92.84-1.87.84h-.69a3.3 3.3 0 0 1-1.54-.39q-.9-.62-1.04-.62-.95-.45-1.32-.94h-.08q-.24.68-.4.68a1.63 1.63 0 0 1-1.22-.43 7.36 7.36 0 0 1-.14-1.7l.2-1.2a.67.67 0 0 1 .15-.67l1.25-.14a1.86 1.86 0 0 1 .28 1.08l.54 1a17.33 17.33 0 0 0 1.74 1.16 1.55 1.55 0 0 0 1.23.5h.69a1.47 1.47 0 0 0 1.4-.67q.45-.49.66-1.43v-.06a2.3 2.3 0 0 0-1-1.42 1.4 1.4 0 0 0-1.09-.49 8.23 8.23 0 0 0-1.75-.37l-1.56-.8-.77-.64a3.14 3.14 0 0 1-.52-1.06l.03-.33-.07-.74q0-.28.33-.65 0-.23.94-1.07.88-.47 1.03-.75Zm-103-1.47.19-.02a.13.13 0 0 1 .1.08 7.15 7.15 0 0 0-.1 1.23.45.45 0 0 1-.47.14 11.04 11.04 0 0 0 1.39 2l.43.9a2.78 2.78 0 0 0 .72.83 6.81 6.81 0 0 0 .88-1.12 22.7 22.7 0 0 1 1.25-1.68q.33-.49.33-.7l-.1-.04h-.39q-.4 0-.5-1.05a.4.4 0 0 1 .5-.24 1.1 1.1 0 0 1 1.06-.23h1.11a1.53 1.53 0 0 1 1.07.15 1.31 1.31 0 0 1 .06.47v.24q0 .52-.21.52-.14 0-.22.3h-.04l-.17-.14a241.08 241.08 0 0 0-2.29 2.83q-1.46 1.7-1.56 2.05v.1a9.06 9.06 0 0 1 .14 2.3 5.6 5.6 0 0 0 .27 2.8h.02l.55.1.37.04.04.13-.02.57v.17l.17.18v.08a2.28 2.28 0 0 1-1.8.47 4.86 4.86 0 0 1-2.08-.22l-.06-.5.04-.67q0-.25.58-.25a.76.76 0 0 0 .53-.1v-.04q-.21-.82-.21-4.36-.02-.23-.16-.52a.53.53 0 0 0-.25-.4 85.82 85.82 0 0 0-1.86-3.31q0-.04-.86-1.25-.08-.06-.21-.06l-.9.04q-.31-.08-.31-.2l.15-.2a.17.17 0 0 0-.18-.07l-.07.04v.11a.2.2 0 0 1-.16.2q-.14 0-.2-.4a.75.75 0 0 0-.3-.26v-.1a.24.24 0 0 0 .19-.2l-.14-.13a.39.39 0 0 1 .49-.32h.4a20.76 20.76 0 0 0 2.78-.29ZM.73 2.33l.21-.06a9.15 9.15 0 0 1 2.7.35H4.23l.04.1-.02 1.13a.13.13 0 0 1-.13.12l-.24-.24-.53-.12h-.17l-.12.04v.08a1.27 1.27 0 0 0 .35.12v.04a.6.6 0 0 1-.45.11l-.11 3.81v.41l-.02 5.24v.31a1.44 1.44 0 0 0 1.1.18h3.74l.63.04q.11 0 .2-1.08a.27.27 0 0 1 .17-.27q1.15.04 1.15.21a.25.25 0 0 1-.23.18v.06a.53.53 0 0 1 .19.33 6.92 6.92 0 0 1-.14 1.19v.3l.02.1a.83.83 0 0 0-.11.38.56.56 0 0 0-.16.25 2.45 2.45 0 0 1-.84.16h-.08l-1.68-.16h-.1l-3.84.16-2.68-.25a.33.33 0 0 1-.15-.26 1.18 1.18 0 0 1 .48-1.15q.1-.1.76-.16a7.1 7.1 0 0 0 .14-1.84 86.95 86.95 0 0 0-.12-3.82 78.34 78.34 0 0 0 .2-4.06v-.2a.32.32 0 0 0-.41-.29l-.18-.04v-.06a1.35 1.35 0 0 1 .55-.17v-.08l-.45-.06H.72v.08q.08 0 .08.06a.2.2 0 0 1-.18.1H.54a.43.43 0 0 1-.2-.46V3.1a.56.56 0 0 1 .26-.57q.06 0 .14-.2Zm72.98 0 .22-.06a9.15 9.15 0 0 1 2.7.35H77.22l.04.1-.02 1.13a.13.13 0 0 1-.14.12l-.23-.24-.53-.12h-.17l-.12.04v.08a1.27 1.27 0 0 0 .35.12v.04a.6.6 0 0 1-.45.11l-.12 3.81v.41l-.02 5.24v.31a1.44 1.44 0 0 0 1.1.18h3.75l.62.04q.12 0 .2-1.08a.27.27 0 0 1 .17-.27q1.16.04 1.16.21a.25.25 0 0 1-.24.18v.06a.53.53 0 0 1 .2.33 6.92 6.92 0 0 1-.14 1.19v.3l.02.1a.83.83 0 0 0-.12.38.56.56 0 0 0-.15.25 2.45 2.45 0 0 1-.84.16h-.08l-1.68-.16h-.1l-3.85.16-2.67-.25a.33.33 0 0 1-.16-.26 1.18 1.18 0 0 1 .5-1.15q.09-.1.75-.16a7.1 7.1 0 0 0 .14-1.84 86.95 86.95 0 0 0-.12-3.82 78.34 78.34 0 0 0 .2-4.06v-.2a.32.32 0 0 0-.41-.29l-.18-.04v-.06a1.35 1.35 0 0 1 .55-.17v-.08l-.45-.06h-.27v.08q.07 0 .07.06a.2.2 0 0 1-.17.1h-.08a.43.43 0 0 1-.2-.46V3.1a.56.56 0 0 1 .26-.57q.06 0 .13-.2Zm91.04-.12L164.6 4a.96.96 0 0 0 .78.13 4.84 4.84 0 0 1 2.3.22.4.4 0 0 1 .24.11.77.77 0 0 0-.2.38v.05l.06.4-.26.85a.7.7 0 0 0 .3.4v.03a2.54 2.54 0 0 1-.76.16.32.32 0 0 1-.32-.1V6.6l.18-.02h.14l.07-.08v-.03l-.07-.02-1.31.02-1.08-.02a2.52 2.52 0 0 0-.21 1.09h-.02l-.28-.31-.05.21v.12q.02.55.13.58a.43.43 0 0 0 .14-.35v-.13h.06l.02.06-.14 1.87a17.88 17.88 0 0 0 .41 4.04q.1.63.49.63a.96.96 0 0 0 .53.13h.35l1.17-.05q.04 0 .14 1.03a.91.91 0 0 1 0 .12.44.44 0 0 1-.13.34.84.84 0 0 1-.56.15l-1.5.04q-1.23 0-2.07-.69-.55-.2-.55-1.17a136.34 136.34 0 0 1-.13-3.12l.23-2.66.06-1.15v-.16a.78.78 0 0 0-.47-.82h-1.27a1.38 1.38 0 0 0-.58.14.94.94 0 0 1-.5-.53l.4-1.74a13.5 13.5 0 0 1 2.36-.1 1.23 1.23 0 0 1 .27-.64 12.94 12.94 0 0 1 .22-3.05V.27q0-.04-.1-.04V.18q0-.06 1.29-.18.43 0 .7.23a7.27 7.27 0 0 0-.3 1.98ZM23.34 6.45l.1.11v.26l.2.23a.49.49 0 0 0-.2.37.14.14 0 0 0 .13.1v.02l-.12.14h-.15q-.2-.16-.32-.16a.54.54 0 0 0-.59.58 2.83 2.83 0 0 0 .34 1.12 8.67 8.67 0 0 0 .96 2.46q1.09 2.5 1.48 2.58h.04a3.11 3.11 0 0 0 .45-.96q.72-1.3 1.15-2.48a2.02 2.02 0 0 0 .33-.78l-.05-.2a4.51 4.51 0 0 0 .66-1.81q0-.54-.57-.51l-.23.04h-.08a11.41 11.41 0 0 1 0-.39 1.2 1.2 0 0 1 .37-1.33 8.7 8.7 0 0 1 2.44-.2q.9 0 .9.67a1.47 1.47 0 0 1 .22.47.74.74 0 0 0-.32.58l-.72.14-.64 1.37a28.55 28.55 0 0 1-1.4 2.65l-.52 1.63a39.7 39.7 0 0 1-1.2 2.42q-.05 0-.05.12V15.86a.43.43 0 0 1-.49.35l-.39.24a1.46 1.46 0 0 1-.68-.3l-.96-1.34a1.16 1.16 0 0 0-.43-.86 3.2 3.2 0 0 1-.33-.98 16.42 16.42 0 0 0-.74-1.2.27.27 0 0 1 .1-.17v-.08l-.34-.8q-.29-1.05-.43-1.13a4.04 4.04 0 0 0-.87-1.85.22.22 0 0 1-.26.11q-.33 0-.78-.33v-.04l.06-.1v-.05q0-.04-.27-.2l-.02-.04q.45-.1.45-.2l-.28-.13-.02-.02v-.06l.14-.17q0-.08-.14-.2v-.06a34.02 34.02 0 0 1 2.62-.33 1.59 1.59 0 0 1 1.45.53Zm100.19-3.3.94 2.79.62 2.22a58.77 58.77 0 0 0 1.12 4.3.17.17 0 0 1 .07-.02v.2h-.02a3.99 3.99 0 0 0 .05.13.37.37 0 0 1 .03.12l.37.8.1.5-.04.2a.93.93 0 0 0 .5.18h.4a.43.43 0 0 1 .25.1l-.11.23.02.33q0 .22-.2.41h-.08a.43.43 0 0 0-.25-.15h-.04a.18.18 0 0 0-.21.12q0 .05.35.08v.05a.21.21 0 0 1-.24.1l-.25-.08h-.2l-1.2.12a1.78 1.78 0 0 1-1.02-.49l.15-.16v-.07l-.2-.41q0-.24.73-.24l.02-.04v-.08a3.46 3.46 0 0 0-.8-1.97h-.02a293.66 293.66 0 0 0-4.75.41h-.43a11.2 11.2 0 0 0-.52 1.56q.08.08.21.08h.4q.68 0 1.16.55v.02q0 .14-.5.53 0 .21-2.97.21a.56.56 0 0 1-.5-.12l.09-.25v-.02a1.06 1.06 0 0 0-.16-.35.54.54 0 0 1 .35-.3l.02-.05v-.3q0-.17.2-.17l.08.08-.08.23.02.02h.02q.23-.33.23-.47v-.07a.09.09 0 0 0-.06-.12q.2-.35.31-.94l1.02-2.81.37-.92a1.22 1.22 0 0 1 .35-.59V8.6l-.06-.2q.22-.15.22-.25l-.06-.05q0-.2.23-.41l-.01-.14.9-2.64a7.99 7.99 0 0 0 .6-1.4 1.01 1.01 0 0 0 .3-.37 4.16 4.16 0 0 1 1.03-.41 1.3 1.3 0 0 1 1.15.42ZM39.1 9.59l.02.16q-.3.68-.3.94l-.11.01h-1.66q-.24 0-.57.06-2.81-.23-3.95-.23h-.4a1.14 1.14 0 0 0-.24.5 1.31 1.31 0 0 1 .14.69 1.05 1.05 0 0 0 .23.88l.02.1v.02l-.12-.06v.06l.18.2a1.1 1.1 0 0 0 .35.64 2.9 2.9 0 0 0 1.4 1.4 4.62 4.62 0 0 0 1.47.22 1.58 1.58 0 0 0 .57-.26 5.05 5.05 0 0 0 1.48-1.27v-.05q0-.04-.27-.08l-.04-.1q.45-.86 1.07-1.13.18.17.73.54a19.34 19.34 0 0 0 1.15 1.56v.08q-.63.82-.9.82h-.08a.49.49 0 0 0-.53-.48 4.05 4.05 0 0 0-.85.64 4.75 4.75 0 0 1-1.55.66q-1.27.26-1.8.26l-1.1-.4a2.2 2.2 0 0 1-1.73-1 2.93 2.93 0 0 1-.54-.85 14.63 14.63 0 0 0-.43-1.62 4.66 4.66 0 0 1-.14-1.1v-.01q0-2.6 1.56-4.55a1.34 1.34 0 0 1 .9-.73 7.04 7.04 0 0 1 1.13-.21 1.1 1.1 0 0 1 .38-.04 9.86 9.86 0 0 1 .76.04 4.08 4.08 0 0 1 1.99.7q1 .75 1 1.02a8.09 8.09 0 0 1 .78 1.97Zm69.66 0 .02.16q-.29.68-.29.94l-.12.01h-1.66q-.23 0-.56.06-2.82-.23-3.95-.23h-.4a1.14 1.14 0 0 0-.24.5 1.31 1.31 0 0 1 .13.69 1.05 1.05 0 0 0 .24.88l.02.1v.02l-.12-.06v.06l.18.2a1.1 1.1 0 0 0 .35.64 2.9 2.9 0 0 0 1.4 1.4 4.62 4.62 0 0 0 1.47.22 1.58 1.58 0 0 0 .57-.26 5.05 5.05 0 0 0 1.48-1.27v-.05q0-.04-.27-.08l-.04-.1q.45-.86 1.07-1.13.18.17.72.54a19.34 19.34 0 0 0 1.16 1.56v.08q-.63.82-.9.82h-.08a.49.49 0 0 0-.53-.48 4.05 4.05 0 0 0-.86.64 4.75 4.75 0 0 1-1.54.66q-1.27.26-1.8.26l-1.11-.4a2.2 2.2 0 0 1-1.72-1 2.93 2.93 0 0 1-.55-.85 14.63 14.63 0 0 0-.42-1.62 4.66 4.66 0 0 1-.14-1.1v-.01q0-2.6 1.56-4.55a1.34 1.34 0 0 1 .9-.73 7.04 7.04 0 0 1 1.13-.21 1.1 1.1 0 0 1 .37-.04 9.86 9.86 0 0 1 .77.04 4.08 4.08 0 0 1 1.99.7q1 .75 1 1.02a8.09 8.09 0 0 1 .78 1.97Zm68.56 0 .02.16q-.3.68-.3.94l-.11.01h-1.66q-.24 0-.57.06-2.81-.23-3.94-.23h-.41a1.14 1.14 0 0 0-.24.5 1.31 1.31 0 0 1 .14.69 1.05 1.05 0 0 0 .23.88l.02.1v.02l-.11-.06v.06l.17.2a1.1 1.1 0 0 0 .35.64 2.9 2.9 0 0 0 1.4 1.4 4.62 4.62 0 0 0 1.47.22 1.58 1.58 0 0 0 .57-.26 5.05 5.05 0 0 0 1.49-1.27v-.05q0-.04-.28-.08l-.04-.1q.45-.86 1.08-1.13.17.17.72.54a19.34 19.34 0 0 0 1.15 1.56v.08q-.62.82-.9.82h-.07a.49.49 0 0 0-.53-.48 4.05 4.05 0 0 0-.86.64 4.75 4.75 0 0 1-1.55.66q-1.26.26-1.8.26l-1.1-.4a2.2 2.2 0 0 1-1.72-1 2.93 2.93 0 0 1-.55-.85 14.63 14.63 0 0 0-.43-1.62 4.66 4.66 0 0 1-.14-1.1v-.01q0-2.6 1.57-4.55a1.34 1.34 0 0 1 .9-.73 7.04 7.04 0 0 1 1.13-.21 1.1 1.1 0 0 1 .37-.04 9.86 9.86 0 0 1 .76.04 4.08 4.08 0 0 1 2 .7q.99.75.99 1.02a8.09 8.09 0 0 1 .78 1.97ZM58.92 5.12l2.42-.06q.31 0 1.31.27A5.28 5.28 0 0 1 64 7.01q.43.45.68 1.78a2.08 2.08 0 0 1 .31 1.39l.03.48-.08 1.94q0 .59.72 1.44a2.19 2.19 0 0 0 .86.65v.04a1.48 1.48 0 0 1-.69.74 1.75 1.75 0 0 1-.64.5h-.02a5.52 5.52 0 0 1-1.58-1.15l-2.33.92a5.76 5.76 0 0 1-1.7.24h-.1a3.58 3.58 0 0 1-1.79-.82 4.72 4.72 0 0 1-.57-.98 1.61 1.61 0 0 1-.35-1.05v-.57a1.88 1.88 0 0 1 .3-1.02q.25-.8.88-1.52.3-.37.62-.47 1.02-.54 2.01-.54l.88-.03h.12a1.93 1.93 0 0 1 1.05.22h.12q.1 0 .1-.08a6.37 6.37 0 0 0-.7-1.76q-.44-.72-1.6-.72l-.8-.12a1.36 1.36 0 0 0-1.04.43q-.41.53-.5 1.31a1.16 1.16 0 0 1-.7.1l-.11.04a.49.49 0 0 0-.2.33.57.57 0 0 1-.54-.23 15.01 15.01 0 0 0 .13-1.4 3.44 3.44 0 0 1 1.49-1.67 2.37 2.37 0 0 1 .66-.31ZM187.8 7.93l.25 1.45q-.13.23-1.03.23h-.2q-.72-.12-.72-.49a1.37 1.37 0 0 0-.45-.76q-.06-.1-.84-.1a5.34 5.34 0 0 0-1.8.4 6.7 6.7 0 0 0-.97 1.2 103.78 103.78 0 0 1 .1 3.69 11.21 11.21 0 0 1 0 .5.19.19 0 0 0 .23.17h.47a.29.29 0 0 1 .31.12v.02l.08.25-.04 1.1-.12.15-.92.1h-.07l-.4.11a9.86 9.86 0 0 1-2.24-.17q-.4 0-.4-.35a6.54 6.54 0 0 1-.03-.73q0-.37.76-.48a.47.47 0 0 1 .53-.16l.06-.02v-.04l-.12-5.35a.37.37 0 0 0-.25-.49h-.12q-.24 0-.78.22l-.04-.04v-.04q0-.04.15-.1v-.04a1.33 1.33 0 0 1-.2-1.1.65.65 0 0 1-.05-.34 2.64 2.64 0 0 1 1.64-.6h.49q.3 0 1 .19v.06a.9.9 0 0 0-.18.39V7a6.96 6.96 0 0 1 2.82-.5 14.4 14.4 0 0 1 1.51.1 1.54 1.54 0 0 1 1.3 1.07q.1 0 .27.25ZM83.9 5.68l.04-.04H84a.57.57 0 0 0 .39.14l.25-.12a8.61 8.61 0 0 1 2.66.16l.02.14v.33a1.81 1.81 0 0 1 .18.74v.31a159.09 159.09 0 0 0-.32 5.16 2.54 2.54 0 0 0-.08.41.15.15 0 0 0 .18.08h.06q1.05 0 1.05.25l-.02.04v.12q.24.47.24 1.48l.08.78-.06.04-.86.04h-1.95a2.87 2.87 0 0 1-2.2-.35.89.89 0 0 0-.1-.43.45.45 0 0 1 .19-.21h.06q.07.07.17.07h.04q.57 0 1.35-.1v-.03a3.65 3.65 0 0 1-1.68-.28l-.02-.15v-.22l-.04-.5a2.24 2.24 0 0 1 1.46-.2q.2 0 .2-.88l.23-5.14h-.04a.79.79 0 0 1-.54-.07.12.12 0 0 1 .06-.06 1.18 1.18 0 0 1-1.18-.28q-.07-.02-.07-.15l.1-.24a.4.4 0 0 0-.12-.21 1.1 1.1 0 0 0 .21-.63Zm60.02 0 .04-.04h.06a.57.57 0 0 0 .39.14l.25-.12a8.61 8.61 0 0 1 2.66.16l.02.14v.33a1.81 1.81 0 0 1 .17.74v.31a159.09 159.09 0 0 0-.3 5.16 2.54 2.54 0 0 0-.09.41.15.15 0 0 0 .18.08h.06q1.05 0 1.05.25l-.02.04v.12q.24.47.24 1.48l.08.78-.06.04-.86.04h-1.95a2.87 2.87 0 0 1-2.2-.35.89.89 0 0 0-.11-.43.45.45 0 0 1 .2-.21h.05q.08.07.18.07h.04q.56 0 1.35-.1v-.03a3.65 3.65 0 0 1-1.68-.28l-.02-.15v-.22l-.04-.5a2.24 2.24 0 0 1 1.46-.2q.2 0 .2-.88l.23-5.14h-.04a.79.79 0 0 1-.54-.07.12.12 0 0 1 .06-.06 1.18 1.18 0 0 1-1.18-.28q-.08-.02-.08-.15l.1-.24a.4.4 0 0 0-.11-.21 1.1 1.1 0 0 0 .21-.63Zm-128.5.79.55.15h.18a11.35 11.35 0 0 1 2.07 1.31q1 .86 1 1.29h-.04q-.16-.27-.32-.27h-.02q-.06 0-.06.07a7.5 7.5 0 0 0 .36.75h.04a.3.3 0 0 0 .1-.2h.01a1.32 1.32 0 0 1 .14.57l.17.39-.04.25.06.7a10.71 10.71 0 0 0-.25 1.3q-.08.37-1.82 2.77a2.27 2.27 0 0 1-1.52.74q-.68.08-1.54.08h-.37a7.29 7.29 0 0 1-1.74-.57 4.34 4.34 0 0 1-1.78-2.42q-.25-.53-.43-.98 0-.25.53-1.68a1.54 1.54 0 0 1 .43-1.25 4.74 4.74 0 0 1 2.32-2.56 6.13 6.13 0 0 1 1.98-.44Zm-3.51 6.13v.12a55.48 55.48 0 0 0 .6 1.13 1.21 1.21 0 0 0 .75.54 2.5 2.5 0 0 0 1.3.65l.36.04a6.4 6.4 0 0 0 1.29-.37l.7-.59a3.15 3.15 0 0 0 1.05-1.91 1.14 1.14 0 0 0 0-.06v-.18a3.15 3.15 0 0 1-.11-1.01q0-.55.07-.86a2.17 2.17 0 0 0-.76-.69q-.54-.78-1.13-.95h-.23q-2.29.1-2.29.37a3.06 3.06 0 0 0-.7 1 2.1 2.1 0 0 0-.63.87q-.17.8-.27 1.9Zm107.65-1.2v.1l.06.04q2.56-.4 4.03-.4h.8l.06-.08v-.02a.67.67 0 0 0-.36-.7l-1.23-3.72a9.24 9.24 0 0 0-.42-1.29.75.75 0 0 0-.24-.33l-.02.41q-1.37 2.73-1.97 3.71-.31.6-.7 2.29ZM58.6 13.17l.2.26v.02l-.18-.02v.06a3.32 3.32 0 0 0 1.52.93 1.16 1.16 0 0 0 .4.12q.34 0 2.69-1.15.15-.1.15-.22v-.1q-.17-.8-.29-1.87l-.04-.02q0-.21-.43-.35a8.92 8.92 0 0 0-1.97-.4 3.6 3.6 0 0 0-2.03.99.96.96 0 0 0-.35.58q.13 1.17.33 1.17ZM32.2 8.71v.06q0 .21 3.56.49l.2.06.25-.02q.78.25 1.05.25a.13.13 0 0 0 .12.1.6.6 0 0 0 .11-.33v-.37q0-.26-.97-1.14a1.65 1.65 0 0 0-1.02-.5l-.66-.12a4.8 4.8 0 0 0-2.13.8 3.26 3.26 0 0 1-.5.72Zm69.67 0v.06q0 .21 3.55.49l.2.06.25-.02q.78.25 1.06.25a.13.13 0 0 0 .12.1.6.6 0 0 0 .11-.33v-.37q0-.26-.97-1.14a1.65 1.65 0 0 0-1.02-.5l-.66-.12a4.8 4.8 0 0 0-2.13.8 3.26 3.26 0 0 1-.51.72Zm68.56 0v.06q0 .21 3.55.49l.2.06.25-.02q.78.25 1.05.25a.13.13 0 0 0 .12.1.6.6 0 0 0 .12-.33v-.37q0-.26-.98-1.14a1.65 1.65 0 0 0-1.02-.5l-.66-.12a4.8 4.8 0 0 0-2.13.8 3.26 3.26 0 0 1-.5.72Zm-84.7.57-.05 2.52a.14.14 0 0 0 .06.13.17.17 0 0 0 .08-.17l-.02-.3a2.13 2.13 0 0 0 .21-.78v-.11l-.04-.28a.3.3 0 0 0 .12-.13 1.25 1.25 0 0 1-.08-.43v-.04a11.7 11.7 0 0 0 .2-2.19.2.2 0 0 0-.12-.16 2.71 2.71 0 0 0-.35 1.94Zm60.03 0-.06 2.52a.14.14 0 0 0 .06.13.17.17 0 0 0 .08-.17l-.03-.3a2.13 2.13 0 0 0 .22-.78v-.11l-.04-.28a.3.3 0 0 0 .12-.13 1.25 1.25 0 0 1-.08-.43v-.04a11.7 11.7 0 0 0 .2-2.19.2.2 0 0 0-.12-.16 2.71 2.71 0 0 0-.35 1.94ZM85.97 1.92l.67-.1q.68 0 1.07.7l.14.63a2.46 2.46 0 0 1-.43.97q-.26.26-.78.26-1.23 0-1.53-.38a1.65 1.65 0 0 1-.27-1 3.12 3.12 0 0 1 0-.09q-.08 0-.08-.04v-.04a1.58 1.58 0 0 1 1.21-.92Zm60.02 0 .66-.1q.69 0 1.08.7l.14.63a2.46 2.46 0 0 1-.43.97q-.26.26-.78.26-1.23 0-1.53-.38a1.65 1.65 0 0 1-.27-1 3.12 3.12 0 0 1 0-.09q-.08 0-.08-.04v-.04a1.58 1.58 0 0 1 1.21-.92Zm-8.89 12.55-.13-.02v.02a1.45 1.45 0 0 0 .97.67 14.72 14.72 0 0 0 1.82.49.97.97 0 0 0 .41.17h.18a.53.53 0 0 0 .49-.35l-1.76-.14a6.98 6.98 0 0 1-1.98-.84Zm-131.32.35-3.46-.25h-.1v.1a70.4 70.4 0 0 0 3.52.21l.04-.02v-.04Zm72.98 0-3.45-.25h-.1v.1a70.4 70.4 0 0 0 3.52.21l.03-.02v-.04ZM33 10v.04a16.18 16.18 0 0 0 2.07.2v.03l-.4.06q0 .06.5.06a1.69 1.69 0 0 0 .82-.08q0-.2-2.99-.3Zm69.67 0v.04a16.18 16.18 0 0 0 2.07.2v.03l-.4.06q0 .06.5.06a1.69 1.69 0 0 0 .82-.08q0-.2-2.99-.3Zm68.55 0v.04a16.18 16.18 0 0 0 2.08.2v.03l-.41.06q0 .06.5.06a1.69 1.69 0 0 0 .82-.08q0-.2-2.99-.3ZM12.53 7.87l-.06.1v.08a6.42 6.42 0 0 0 1.19-.82l.15-.06.12.02a3 3 0 0 0 1.3-.26v-.01l-.3-.06q-1.33 0-2.4 1.01Zm14.64-1.81v.1l.06.1h.02a8.43 8.43 0 0 1 2.27-.22l.04-.02h.02v-.06q0-.06-.32-.06a12.33 12.33 0 0 0-2.09.16Zm153.95 3.5v.09a.9.9 0 0 1 .1.41 9.82 9.82 0 0 0-.06.8l.04.78h.02q.05 0 .15-1.82a.77.77 0 0 0 .04-.38.15.15 0 0 0-.1-.18h-.04q-.15.1-.15.3ZM26.05 14.74h.06a11.59 11.59 0 0 0 .92-1.84l.05-.3v-.01h-.03a2.57 2.57 0 0 0-.57 1.1 3.12 3.12 0 0 0-.43 1.05Zm136.68-3.8.06.56-.02.68.02.2h.06a1.46 1.46 0 0 0 .11-.92v-.45q0-.9-.07-.9a1.1 1.1 0 0 0-.16.84ZM95.62 8.78v.06h.04q.72-.2 1.84-1.13l.03-.08h-.03q-.98.35-1.88 1.15Zm40.64-5.82h.24a13.25 13.25 0 0 0 1.44-.33.68.68 0 0 0 .47-.16l-.07-.02a2.9 2.9 0 0 0-2.08.51ZM91.68 15.49h-.87l-.05.04 2.1.3v-.07a1.22 1.22 0 0 0-1.19-.27Zm69.3-10.76h-.22l-.04.04v.11a1.82 1.82 0 0 0 1.3.2.94.94 0 0 0 .67-.1q0-.23-1.72-.25Zm2.84-2.62h-.04l-.07 1.93v.02l.05.06h.04a.45.45 0 0 0 .14-.49V3.2l-.04-.96q-.04-.12-.08-.12Zm-26.97 1.56h.04a3.14 3.14 0 0 0 .92-.35l.53-.2v.02l-.06.12h.15l.12-.04v-.08l-.04-.05v-.12h-.04q-.78.23-1.29.49-.33.06-.33.21Zm23.77.82h.3q.8 0 1.48-.08v-.03a1.85 1.85 0 0 0-.96-.1h-.82a.14.14 0 0 0-.18.08.14.14 0 0 0 .18.13Zm-3.67 5.55h-.18v.06a6.94 6.94 0 0 0 1.04.59q.39.35.6.35h.02l.04-.06a3.06 3.06 0 0 0-1.52-.94ZM2.96 15.44h-.02l-.42.01v.04q0 .14.91.17a3.54 3.54 0 0 0 1-.11v-.06q-.82-.06-1.47-.06Zm73 0h-.03l-.43.01v.04q0 .14.92.17a3.54 3.54 0 0 0 1-.11v-.06q-.82-.06-1.47-.06Zm-40.44.44-.4-.04h-.09q-.17 0-.2.08v.04l.09.06h.35q.6 0 1.42-.22a.21.21 0 0 0-.23-.12h-.1a1.78 1.78 0 0 0-.84.2Zm69.67 0-.41-.04h-.08q-.17 0-.2.08v.04l.08.06h.36q.6 0 1.42-.22a.21.21 0 0 0-.23-.12h-.1a1.78 1.78 0 0 0-.84.2Zm68.56 0-.41-.04h-.08q-.18 0-.2.08v.04l.08.06h.35q.6 0 1.43-.22a.21.21 0 0 0-.24-.12h-.1a1.78 1.78 0 0 0-.84.2Zm-115.63-.7h-.06l-.06.08q.08.17.98.44a1.87 1.87 0 0 0 .78.14v-.02a2.07 2.07 0 0 0-.74-.21 3.12 3.12 0 0 1-.9-.43Zm37.25-3.99h-.06v.02a7.05 7.05 0 0 0 .7 1.64h.1v-.06a4.19 4.19 0 0 0-.74-1.6ZM33.2 9.34v.05a2.54 2.54 0 0 0 1.35.26h.17l.26-.02v-.08q-.8-.17-1.78-.21Zm69.67 0v.05a2.54 2.54 0 0 0 1.34.26h.18l.25-.02v-.08q-.8-.17-1.77-.21Zm68.55 0v.05a2.54 2.54 0 0 0 1.35.26h.17l.26-.02v-.08q-.8-.17-1.78-.21Zm-15.4.27.24.02h.06v-.02q-.58-.45-1.42-.53a.96.96 0 0 0-.28.12q0 .08 1.4.41ZM14.03 8.28v.02l.04.06h.27l1.39-.31V8l-.37-.08a2.03 2.03 0 0 0-1.33.35ZM165.05 4.9h-.13l-.06.06v.02q0 .1.7.12l.33-.02.45.08h.08a.11.11 0 0 0 .14-.12h-.02l-1.49-.14ZM35.56 6.86v.02q1.11.64 1.2.64h.01l.2-.08.12.04.01-.04v-.02q-.07-.06-.33-.11l-.39-.18a.62.62 0 0 0-.62-.33h-.06a.14.14 0 0 0-.14.06Zm69.67 0v.02q1.11.64 1.2.64h.01l.2-.08.11.04.02-.04v-.02q-.08-.06-.33-.11l-.39-.18a.62.62 0 0 0-.63-.33h-.05a.14.14 0 0 0-.14.06Zm68.55 0v.02q1.12.64 1.2.64h.02l.19-.08.12.04.02-.04v-.02q-.08-.06-.34-.11l-.39-.18a.62.62 0 0 0-.62-.33h-.06a.14.14 0 0 0-.14.06ZM26.48 12.7v-.04h-.06a10.78 10.78 0 0 0-.72 1.48l.06.06a5.76 5.76 0 0 0 .66-1.3.32.32 0 0 0 .06-.2Zm63.71 2.48v.02l.02.04v.02l.92.01h.12a.84.84 0 0 0 .62-.1v-.03a.94.94 0 0 0-.43-.06 7.34 7.34 0 0 0-1.25.1Zm72.3-9.34-.03-.06-1.6-.06v.04a3.15 3.15 0 0 0 1.48.14l.16-.04v-.02Zm-7.26 10.1h.04l.84-.04v-.04a2.54 2.54 0 0 0-1.35-.16q-.27 0-.27.08a1.5 1.5 0 0 0 .74.16Zm-71.05-1.96-.14.04v.02a2.52 2.52 0 0 0 1.2.18h.15a.18.18 0 0 0 .2-.1v-.04q-.83-.1-1.42-.1Zm60.01 0-.13.04v.02a2.52 2.52 0 0 0 1.2.18h.15a.18.18 0 0 0 .19-.1v-.04q-.82-.1-1.4-.1ZM14 7.62v.1q1.53-.18 1.53-.24l-.15-.06h-.02a3.37 3.37 0 0 0-1.35.2ZM84.7 6.3h-.36v.06q0 .08.27.08h.92q.3 0 .3-.1v-.02a.47.47 0 0 0-.35-.05 12.15 12.15 0 0 0-.79.03Zm60.01 0h-.35v.06q0 .08.27.08h.92q.3 0 .3-.1v-.02a.47.47 0 0 0-.35-.05 12.15 12.15 0 0 0-.79.03Zm-88.6-1.9-.05-.21a3.1 3.1 0 0 0-.92.9q-.08.08-.08.16v.03h.02q.1-.04.24-.25a11 11 0 0 0 .8-.63ZM9.46 13.39H9.4q-.16.41-.16.47l-.15.82v.08l.05.06h.06a1.42 1.42 0 0 0 .3-1.12.52.52 0 0 0-.06-.31Zm72.99 0h-.04q-.16.41-.16.47l-.16.82v.08l.06.06h.06a1.42 1.42 0 0 0 .3-1.12.52.52 0 0 0-.06-.31Zm52.48.04.08.21v.63a.1.1 0 0 0 .07.13h.12l.06-.05v-.08a2.69 2.69 0 0 0-.12-1.27.92.92 0 0 1-.21.43ZM33.57 6.27l-.04.04v.02h.04a5.94 5.94 0 0 0 1.17-.22.15.15 0 0 0 .18-.1l-.06-.05h-.02q-.57 0-1.27.31Zm69.67 0-.04.04v.02h.04a5.94 5.94 0 0 0 1.17-.22.15.15 0 0 0 .17-.1l-.05-.05h-.02q-.57 0-1.27.31Zm68.55 0-.04.04v.02h.04a5.94 5.94 0 0 0 1.17-.22.15.15 0 0 0 .18-.1l-.06-.05h-.02q-.56 0-1.27.31ZM28.61 8.44v.13h.04q.12-.03.27-.44a.42.42 0 0 1 .27-.06l.02-.04v-.14l-.04-.08v-.05l.1-.04a.3.3 0 0 0-.15-.28q-.28 0-.51 1Zm57.73-1.02.1.3-.14.35q.08.17.14.17h.02l.04-.11V8a.61.61 0 0 1 .21-.7l.06-.08v-.08l-.06-.06h-.11q-.26 0-.26.33Zm60.02 0 .1.3-.14.35q.08.17.14.17h.02l.04-.11V8a.61.61 0 0 1 .21-.7l.06-.08v-.08l-.06-.06h-.11q-.26 0-.26.33Zm20.37-3.14h-.2l-.25.1h-.56v.05a2.88 2.88 0 0 0 .74.12h.45q.04 0 .04-.06-.04-.21-.22-.21Zm13.2 11.17-.25.02v.04a.7.7 0 0 0 .57.1h.59l.13-.02q0-.1-1.03-.14ZM89.7 2.4v.04q0 .08.3.14v.04a.37.37 0 0 0-.38.11v.08l.06.06h.2a.46.46 0 0 0 .43-.35l.08-.08a.46.46 0 0 0-.47-.11h-.08a.13.13 0 0 0-.14.07ZM8.6 15.26h-.32l-.3.01v.02a.53.53 0 0 0 .4.16h.05q.1 0 .18-.08.1.08.21.08h.16q.21 0 .23-.08v-.02a.8.8 0 0 0-.6-.1Zm73 0h-.33l-.3.01v.02a.53.53 0 0 0 .4.16h.05q.1 0 .18-.08.1.08.21.08h.16q.21 0 .23-.08v-.02a.8.8 0 0 0-.6-.1ZM53.08 7.1v.08h.02a3.22 3.22 0 0 0 .72-1.06h-.04a11.68 11.68 0 0 0-.7.98Zm88.71-3.32.06.04v.02l-.08.1V4a.23.23 0 0 0 .16.1q.04.16.12.18h.05V4.2l-.01-.06v-.08h.05l.1.08h.04l.02-.12V4a1.22 1.22 0 0 0-.2-.55H142q-.2.08-.2.35ZM12.1 15.12h-.13v.08a1.29 1.29 0 0 0 .92.25h.21a2.44 2.44 0 0 0-1-.33Zm-9.82-7.4h-.06a3.98 3.98 0 0 0-.08.71.79.79 0 0 0 .06.36.1.1 0 0 0 .07.07.2.2 0 0 0 .07-.19l.02-.64q-.02-.31-.08-.31Zm72.99 0h-.06a3.98 3.98 0 0 0-.08.71.79.79 0 0 0 .06.36.1.1 0 0 0 .06.07.2.2 0 0 0 .08-.19l.02-.64q-.02-.31-.08-.31Zm85.84-2.3h-.18l-.08.05q0 .08.1.08l.49.02.53-.02.02-.02v-.04q-.24-.08-.88-.08Zm-11.47 7.65.02.49h.02a1.51 1.51 0 0 0 .14-.92v-.16l-.04-.04h-.04a1.34 1.34 0 0 0-.1.63Zm-63.02-2.19-.02-.14h-.1a5.65 5.65 0 0 0-.16 1.08h.02a1.52 1.52 0 0 0 .26-.8v-.14Zm60.02 0-.02-.14h-.1a5.65 5.65 0 0 0-.16 1.08h.02a1.52 1.52 0 0 0 .26-.8v-.14Zm-120.61 4h-.08l-.49.86v.06a.66.66 0 0 0 .5-.74.14.14 0 0 0 .07-.18Zm154.16.26h-.39l-.04.04.02.04h1.07v-.06l-.66-.02Zm-13-8.93.07-.08v-.11l-.06-.06h-.43q-.53 0-.53.08a3.01 3.01 0 0 0 .94.17Zm-69.2 9.94v.02h.07l.41.04.47-.04H99l.06-.04v-.02l-.12-.02h-.76a.17.17 0 0 0-.2.06ZM7.56 14.12h-.2v.06q0 .06.26.08a.29.29 0 0 0 .35.18l.37-.04v-.08a1.82 1.82 0 0 1-.78-.2Zm73 0h-.2v.06q0 .06.25.08a.29.29 0 0 0 .35.18l.37-.04v-.08a1.82 1.82 0 0 1-.78-.2Zm54.15-1.7h-.08q-.1.3-.1.74l.05.26h.01a.15.15 0 0 0 .18-.16q-.06-.45-.06-.84ZM30.93 10.88v.08a1.13 1.13 0 0 0-.02.27v.08a1.05 1.05 0 0 0 .2.63h.02a1.52 1.52 0 0 0-.2-1.06Zm69.67 0v.08a1.13 1.13 0 0 0-.02.27v.08a1.05 1.05 0 0 0 .2.63h.02a1.52 1.52 0 0 0-.2-1.06Zm68.56 0v.08a1.13 1.13 0 0 0-.02.27v.08a1.05 1.05 0 0 0 .2.63h.01a1.52 1.52 0 0 0-.2-1.06ZM21.63 6.31h.72v-.04a1.57 1.57 0 0 0-.59-.14h-.23a.2.2 0 0 0-.22.12q0 .06.32.06ZM3.55 2.95h-.06l-.08.06v.04l.14.04v.02l-.06.04-.39-.02-.02.02v.1l.06.05h.39q.31 0 .31-.21a.41.41 0 0 0-.29-.14Zm72.99 0h-.06l-.08.06v.04l.14.04v.02l-.06.04-.4-.02-.01.02v.1l.06.05h.39q.31 0 .31-.21a.41.41 0 0 0-.3-.14Zm10.15 3.38h-.27l-.17-.02v.04a.53.53 0 0 1 .33.2h.04q.03 0 .03-.06h.04a.15.15 0 0 1 .1.17h.04l.27-.2v-.11l-.4-.02Zm60.02 0h-.27l-.18-.02v.04a.53.53 0 0 1 .34.2h.04q.04 0 .04-.06h.03a.15.15 0 0 1 .1.17h.04l.27-.2v-.11l-.4-.02ZM10.97 13.14l-.08.06v.14a.7.7 0 0 0 .38.74l.01-.02v-.02q-.13-.9-.3-.9ZM139.3 9.88h-.1v.1a1.7 1.7 0 0 0 .63.14.1.1 0 0 0 .14.08h.15v-.02q0-.18-.82-.3ZM95.66 7.91v.02h.02q.08 0 .6-.35a.17.17 0 0 0 .2-.12v-.08h-.12a1.3 1.3 0 0 0-.7.53Zm62.71-.94h-.15l-.08.04q.16.1.57.1l.39-.02v-.08a6.54 6.54 0 0 0-.73-.04Zm-17.83 8.07v.04l.06.04h.1a.89.89 0 0 0 .78-.2l-.08-.04h-.12a3.1 3.1 0 0 0-.74.16ZM91.24 4.12l-.03.08v.4a.5.5 0 0 0 .1.46h.01l.06-.06v-.27a.7.7 0 0 0-.13-.6Zm67.1 10.18h-.06l-.67.54v.04q0 .04.08.04a1.16 1.16 0 0 0 .65-.62Zm5.4.88-.27-.36h-.04v.08q.06.5.43.5h.2l.04-.07v-.02q0-.04-.35-.13ZM2.2 13.46h-.1v.06q-.1.29-.1.43 0 .27.14.33h.08q.08 0 .08-.57v-.08a.17.17 0 0 0-.1-.17Zm72.99 0h-.1v.06q-.1.29-.1.43 0 .27.14.33h.08q.08 0 .08-.57v-.08a.17.17 0 0 0-.1-.17Zm-51.91-1.78h-.06v.06a1.1 1.1 0 0 0 .43.76v-.04a1.33 1.33 0 0 0-.37-.78Zm11.09-4.94v.02a1.76 1.76 0 0 0 .8.2l.04-.03v-.07q-.16-.22-.53-.22h-.06q-.25.02-.25.1Zm69.67 0v.02a1.76 1.76 0 0 0 .8.2l.04-.03v-.07q-.16-.22-.53-.22h-.06q-.25.02-.25.1Zm68.55 0v.02a1.76 1.76 0 0 0 .8.2l.04-.03v-.07q-.15-.22-.53-.22h-.05q-.26.02-.26.1ZM153.26 4.2v.08q0 .08.25.13.53-.03.53-.13V4.2a.53.53 0 0 0-.55-.14.25.25 0 0 0-.23.14Zm.29 4.51-.04.04v.02a2.17 2.17 0 0 0 .76.41l.04-.06a1.5 1.5 0 0 0-.76-.4ZM34.02 7.1v-.04L34 7.01h-.2q-.56.16-.56.41.2-.15.78-.33Zm69.67 0v-.04l-.02-.04h-.2q-.56.16-.56.41.19-.15.78-.33Zm68.55 0v-.04l-.02-.04h-.2q-.56.16-.56.41.2-.15.78-.33Zm-153.1 5.67h.04a.84.84 0 0 1 .17-.47v-.06l-.21-.3h-.04a.24.24 0 0 0-.06.2q.02.59.1.63Zm79.41-6.02v-.08h-.53q-.31 0-.31.08a1.34 1.34 0 0 0 .63.1.24.24 0 0 0 .21-.1Zm-46.52 5.64-.02.04v.7l.02.12h.07v-.43q0-.43-.07-.43Zm-21.1-2.5h.04a1.2 1.2 0 0 0 .35-.68.13.13 0 0 0-.11-.1 1.7 1.7 0 0 0-.28.78Zm69.67 0h.04a1.2 1.2 0 0 0 .35-.68.13.13 0 0 0-.12-.1 1.7 1.7 0 0 0-.27.78Zm68.56 0h.03a1.2 1.2 0 0 0 .36-.68.13.13 0 0 0-.12-.1 1.7 1.7 0 0 0-.28.78Zm-82.58 4.87-.24-.02-.25.02h-.28v.07l.28.03.56-.04v-.06h-.07Zm60.02 0-.24-.02-.25.02h-.28v.07l.28.03.56-.04v-.06h-.07ZM96 6.84h.14q.06 0 .06-.08l-.1-.24.1-.35v-.06h-.04q-.24.12-.24.47.02.26.08.26ZM37.61 8.1l-.04-.04h-.08q.22.64.32.7h.08l.05-.04q-.15-.62-.33-.62Zm69.67 0-.04-.04h-.08q.22.64.31.7h.08l.06-.04q-.15-.62-.33-.62Zm68.56 0-.04-.04h-.08q.21.64.31.7h.08l.06-.04q-.16-.62-.33-.62ZM35.75 6.45h-.59v.04a1.65 1.65 0 0 0 .8.11H36v-.08q0-.03-.23-.07Zm69.66 0h-.58v.04a1.65 1.65 0 0 0 .8.11h.02v-.08q0-.03-.23-.07Zm68.56 0h-.59v.04a1.65 1.65 0 0 0 .8.11h.02v-.08q0-.03-.23-.07Zm-80.92 4.2v.04h.04a2.17 2.17 0 0 0 .68-.43v-.04q-.72.3-.72.42Zm63.63-4.89-.01.02v.04a2.41 2.41 0 0 0 .76.35v-.02a1.41 1.41 0 0 0-.75-.39Zm26.63 1.68v.04q.17 0 .46-.57v-.1h-.02q-.5.16-.44.63ZM61.75 14.7v.04h.08a1.69 1.69 0 0 0 .72-.24v-.02h-.07q-.67.08-.73.22Zm104.38.4h.08a.96.96 0 0 0 .72-.24l-.04-.04a1.48 1.48 0 0 0-.76.29Zm-141.06-.38v.04q.12.37.34.37.21-.37.21-.51v-.04h-.02q-.06.04-.53.14Zm-7.75-6.55v.04q.06.24.55.5h.05l.04-.07v-.02a2.51 2.51 0 0 0-.64-.45Zm.43.61h-.08q.12.25.57.43h.08l.05-.06v-.02a.91.91 0 0 0-.62-.35Zm70.16 5.4-.24.05q.04.23.35.23h.06v-.05l-.04-.06a.5.5 0 0 1 .16-.12v-.1q0-.13-.08-.15h-.08q-.06.01-.14.2Zm60.02 0-.24.05q.04.23.35.23h.06v-.05l-.04-.06a.5.5 0 0 1 .16-.12v-.1q0-.13-.08-.15h-.08q-.06.01-.13.2ZM16.09 7.14l.2.02.03-.02v-.1q0-.21-.4-.25-.26.02-.26.08a.4.4 0 0 0 .43.27Zm148.06 6.2-.07.2q0 .46.2.57l.03-.08v-.17q-.02-.49-.16-.53Zm-10.52 1.83-.57-.04v.04a.84.84 0 0 0 .5.2l.09.07h.1a.28.28 0 0 0-.12-.27Zm-89.34-3.54h-.06v.02a1.02 1.02 0 0 0 .16.74l.04-.04v-.04a1.52 1.52 0 0 0-.14-.68Zm100.96-5.8h-.1v.06a3.11 3.11 0 0 0 .69.2h.03v-.04a1.1 1.1 0 0 0-.62-.22Zm-69.03 7.23h-.05v.04a1.18 1.18 0 0 0 .33.6h.08a1.65 1.65 0 0 0-.36-.64Zm54.95.35h-.06v.08a.78.78 0 0 0 .56.37h.04v-.06q-.43-.4-.54-.4Zm7.18-9.26v.04a.6.6 0 0 0 .38.35.26.26 0 0 0 .23-.2v-.07a.7.7 0 0 0-.6-.12Zm-.91 7.07h-.02v.1q0 .2.33.47h.12v-.16q0-.23-.43-.4ZM135.9 5.04v.02h.04q.35-.33.35-.59l-.06-.05a.6.6 0 0 0-.33.62Zm18.83.25h-.04l-.08.08q0 .14.7.18v-.06a1.04 1.04 0 0 0-.58-.2Zm-2.77.6v.03l.04.02h.08a.85.85 0 0 0 .42-.5h-.05q-.22 0-.5.46ZM136.2 7.77h-.02v.1q.4.28.54.28h.08v-.07a2.42 2.42 0 0 0-.6-.32Zm2.63.95-.06.04q.08.12.65.37v-.08a1.34 1.34 0 0 0-.59-.33Zm1.31-5.58h-.33a2 2 0 0 0 .59.2h.1l.03-.03v-.04a.4.4 0 0 0-.39-.13ZM52.53 7.99V8q.08 0 .43-.5v-.1h-.05a1.02 1.02 0 0 0-.38.58Zm6.94-2.29v.06q.02.06.2.06a1.5 1.5 0 0 0 .48-.12v-.07h-.08q-.43 0-.6.07Zm32.22 5.51v.18l.04.04h.06a.2.2 0 0 0 .1-.22v-.04q0-.21-.08-.43h-.02a.5.5 0 0 0-.1.47Zm-76.36 4.63v.04a.37.37 0 0 0 .29.1q.33 0 .33-.1v-.04q-.02-.08-.13-.15h-.18a.34.34 0 0 0-.31.15Zm170.5-7.77h.1q.1-.02.37-.47v-.02q0-.04-.08-.04-.33.16-.33.41a.2.2 0 0 0-.05.12Zm-28.1-2.5h-.04l-.04.04a1.54 1.54 0 0 0 .63.29l.02-.04v-.04a.9.9 0 0 0-.57-.25Zm6.93-5h-.2l-.07.08v.04l.06.44h.04q.23-.23.23-.4V.64l-.06-.08ZM49.02 3.44v.02l.15-.02.45.08.08-.08q0-.08-.27-.08h-.04q-.37 0-.37.08ZM2.47 3.22h.14l.1-.1a.63.63 0 0 0-.35-.11H2.2a.12.12 0 0 0-.15.08.48.48 0 0 0 .43.13Zm73 0h.13l.1-.1a.63.63 0 0 0-.35-.11h-.16a.12.12 0 0 0-.16.08.48.48 0 0 0 .43.13ZM57.7 6.32v.05h.02q.18 0 .53-.37v-.06h-.02a.9.9 0 0 0-.53.39Zm96.7-1.4-.1-.08h-.21q-.3 0-.3.22.08.08.2.08.2 0 .4-.22ZM85.58 2.4v.02q.67-.07.67-.17l-.1-.04a.81.81 0 0 0-.57.2Zm60.02 0v.02q.66-.07.66-.17l-.1-.04a.81.81 0 0 0-.56.2ZM16.03 7.52l-.04.02a1.1 1.1 0 0 0 .59.3l.02-.05v-.02a.94.94 0 0 0-.57-.25Zm135.92.72h-.02v.04a.53.53 0 0 0 .27.43h.08l.1-.1V8.6a.68.68 0 0 0-.43-.36Zm29.45.6-.06-.32h-.08l-.1.4a.27.27 0 0 0 .12.2h.02a.33.33 0 0 0 .1-.27Zm-45.16-4.56.12.11h.04a.75.75 0 0 0 .43-.25l-.06-.04h-.21a.33.33 0 0 0-.31.18ZM84.25 6.04v.07h.1a.7.7 0 0 0 .5-.07l-.03-.08h-.06a.7.7 0 0 0-.5.08Zm60.02 0v.07h.1a.7.7 0 0 0 .5-.07l-.03-.08h-.06a.7.7 0 0 0-.5.08Zm-111.52.6v.02l.06.04h.02q.39-.1.39-.2V6.4l-.08-.08h-.04a.4.4 0 0 0-.35.33Zm69.67 0v.02l.05.04h.03q.39-.1.39-.2V6.4l-.08-.08h-.04a.4.4 0 0 0-.35.33Zm68.55 0v.02l.06.04h.02q.39-.1.39-.2V6.4l-.08-.08h-.04a.4.4 0 0 0-.35.33ZM7.14 14.34l-.11-.02h-.51v.02q.02.05.2.05h.42v-.05Zm73 0-.13-.02h-.5v.02q.02.05.2.05h.42v-.05Zm11.53-2.37v.28l.06.04a.16.16 0 0 0 .16-.2v-.31l-.04-.04h-.06q-.12.02-.12.23ZM27 6.54v.12q0 .3.21.3h.02l.06-.07v-.01a1.06 1.06 0 0 0-.23-.47q-.06.04-.06.13ZM2.42 3.84l-.02.05v.27q.02.25.1.25l.11-.07V4.2a.29.29 0 0 0-.2-.35Zm72.98 0-.01.05v.27q.02.25.1.25l.11-.07V4.2a.29.29 0 0 0-.2-.35ZM24.55 14.93l-.06.04a.68.68 0 0 0 .49.35v-.05q-.16-.34-.43-.34Zm29.33.35h-.43l-.04.06v.04l.36.04q.25 0 .25-.08l-.14-.06Zm39.45-.07h.02l.06-.06a.59.59 0 0 0-.2-.32h-.07a.22.22 0 0 0-.22.12q.14.26.41.26Zm-68.88-.94h-.04v.02a.96.96 0 0 0 .3.49h.03l.04-.02a1.21 1.21 0 0 0-.33-.5Zm117.3-8.5v.32l.04.03h.02a.15.15 0 0 0 .18-.13q-.1-.24-.1-.4h-.04a.17.17 0 0 0-.1.18ZM28.25 8.98v.08h.09a.52.52 0 0 0 .19-.4v-.09h-.02v-.03q-.1 0-.25.45Zm-14.82 6.4v.05a.58.58 0 0 0 .55.12l.02-.02v-.04a1.34 1.34 0 0 0-.57-.12Zm137.8-9.09h-.08l-.06.02a2.38 2.38 0 0 0 .1.53h.06v-.02l-.03-.53Zm32.83.72.1.4h.15v-.42l-.06-.06h-.06a.13.13 0 0 0-.13.08Zm-91.8 3.19v.06h.08q.25 0 .43-.24v-.06a.7.7 0 0 0-.5.24Zm62.6-.43v.08l.33.11h.22V9.9a1.64 1.64 0 0 0-.55-.13Zm-130.94 4.5h-.04v.07a.5.5 0 0 0 .37.37h.02l.02-.02v-.02a.93.93 0 0 0-.37-.4ZM141.42 2.7l-.02.07v.06q0 .12.16.12h.33v-.02q-.2-.23-.47-.23Zm-15.35 10.43v-.04h-.57v.07l.57-.03Zm-96.4-6.31v.02l.27.05a.47.47 0 0 0 .29-.05q0-.08-.25-.1h-.18a.1.1 0 0 0-.14.08Zm134.1-5.33v-.2l-.06-.06a2.68 2.68 0 0 0-.04.5v.09h.04l.05-.33ZM27.88 9.82v.11h.07a.52.52 0 0 0 .2-.39v-.08h-.08a.38.38 0 0 0-.2.35Zm67.03.7h.02v-.02a.34.34 0 0 0-.26-.43q-.06 0-.06.08a.45.45 0 0 0 .3.37Zm4.45 5v.33h.02q.08 0 .08-.41v-.14a.2.2 0 0 0-.1.22ZM90.93 2.09v.04a.26.26 0 0 0 .24.2.52.52 0 0 0 .13-.36l-.08-.02a.3.3 0 0 0-.29.14ZM27.6 10.64h.04q.18-.17.24-.44v-.02a.41.41 0 0 0-.28.46Zm9.5-.19.17-.02v-.04q0-.08-.37-.08a.3.3 0 0 0-.16.06q0 .08.36.08Zm69.66 0 .18-.02v-.04q0-.08-.37-.08a.3.3 0 0 0-.16.06q0 .08.35.08Zm68.56 0 .17-.02v-.04q0-.08-.37-.08a.3.3 0 0 0-.15.06q0 .08.35.08Zm-123.99 4.8v.02l.08.06h.16a.44.44 0 0 0 .27-.07v-.04l-.08-.04h-.27a.12.12 0 0 0-.16.08ZM17.06 7.32h-.03l-.06.05q.21.28.43.28 0-.22-.33-.33Zm15.28 7.79h-.06v.08a.61.61 0 0 0 .33.21l.08.06q-.21-.33-.35-.35Zm69.67 0h-.06v.08a.61.61 0 0 0 .33.21l.08.06q-.22-.33-.35-.35Zm68.55 0h-.06v.08a.61.61 0 0 0 .34.21l.07.06q-.21-.33-.35-.35Zm-13.8.56h-.4l-.04.04v.06l.04.04h.08q.37-.02.37-.1l-.06-.04ZM12.25 9.32v.13h.06a.64.64 0 0 0 .25-.37v-.02h-.1q-.11.08-.2.26ZM164 12.5h-.04l-.02.14v.15q0 .14.08.16h.04a.12.12 0 0 0 .08-.14q-.02-.3-.14-.3ZM85.9 2.97h.02l.12.02h.04q.21 0 .27-.16l-.02-.04h-.23a.2.2 0 0 0-.2.18Zm60.02 0h.02l.12.02h.04q.21 0 .27-.16l-.02-.04h-.23a.2.2 0 0 0-.2.18Zm11.3 11.15v.08h.03a.92.92 0 0 0 .3-.33l-.05-.06q-.15.1-.29.31ZM7.7 15.18v.02h.06a.63.63 0 0 0 .39-.16q-.02-.08-.16-.08a.65.65 0 0 0-.29.22Zm72.99 0v.02h.06a.63.63 0 0 0 .39-.16q-.02-.08-.16-.08a.65.65 0 0 0-.3.22Zm-61.8-2.33-.02.35h.1l.08.06q.02-.28-.08-.28a.08.08 0 0 0-.02 0h-.04l-.02-.13ZM7.14 14.92h-.27l-.04.04V15l.18.04h.27V15a.1.1 0 0 0-.14-.08Zm73 0h-.28l-.04.04V15l.18.04h.27V15a.1.1 0 0 0-.14-.08Zm-41.88-.53.05.04a.33.33 0 0 0 .3-.25v-.04h-.02a.3.3 0 0 0-.33.25Zm69.67 0 .05.04a.33.33 0 0 0 .3-.25v-.04h-.02a.3.3 0 0 0-.34.25Zm68.55 0 .06.04a.33.33 0 0 0 .3-.25v-.04h-.03a.3.3 0 0 0-.33.25Zm-142.77.79h-.02v.02q0 .07.4.17l.03-.02v-.04a.94.94 0 0 0-.41-.13Zm69.66 0h-.02v.02q0 .07.42.17l.01-.02v-.04a.94.94 0 0 0-.4-.13Zm68.56 0h-.02v.02q0 .07.4.17l.03-.02v-.04a.94.94 0 0 0-.41-.13Zm-35.72-1.7h-.02v.04a.33.33 0 0 0 .29.3v-.03a.41.41 0 0 0-.27-.31Zm43.57-6.33.02-.04v-.14l-.08-.1a.28.28 0 0 0-.27.12.47.47 0 0 0 .33.16ZM65.19 14.1h-.06v.12a.3.3 0 0 0 .18.25h.06v-.06q-.08-.3-.18-.3ZM50.35 6.3l-.04.02v.18l.11.1h.14q.06 0 .06-.1a.34.34 0 0 0-.27-.2Zm76.64 8.87v.04h.02q.39 0 .39-.12l-.1-.08a.45.45 0 0 0-.31.16Zm-39.05-1.82h-.11l-.06.02a.77.77 0 0 0 .43.12v-.06a.22.22 0 0 0-.26-.08Zm60.02 0h-.11l-.06.02a.77.77 0 0 0 .43.12v-.06a.22.22 0 0 0-.26-.08Zm33.46 1.93.06.06h.3l.07-.07a.13.13 0 0 0-.1-.08.45.45 0 0 0-.33.1ZM18.57 13.56v.01a.38.38 0 0 0 .27-.3v-.05h-.06a.38.38 0 0 0-.21.34Zm18.77.66.04.02h.02q.21 0 .27-.26v-.03a.37.37 0 0 0-.33.27Zm69.67 0 .04.02h.02q.21 0 .27-.26v-.03a.37.37 0 0 0-.33.27Zm68.55 0 .04.02h.02q.22 0 .27-.26v-.03a.37.37 0 0 0-.33.27Zm-40.96-.31.04.04h.02a.58.58 0 0 0 .1-.4l-.04-.03a.47.47 0 0 0-.12.39ZM13 8.07V8q-.33.1-.33.3.18 0 .33-.24Zm51.21 1.95h-.02l-.05.04v.06q.07.3.15.3h.04a.58.58 0 0 0-.12-.4Zm28.27 5.31-.06.04v.06l.29.02h.12v-.02a.32.32 0 0 0-.36-.1Zm44.41-1.68h-.04v.02a.43.43 0 0 0 .31.3v-.06a1.53 1.53 0 0 0-.27-.26Zm27.07 1.06V14.85q.02.07.14.15h.13v-.04q0-.21-.27-.25ZM31.42 12.9l-.02.02v.04a.32.32 0 0 0 .24.31v-.06q0-.15-.22-.3Zm69.67 0-.02.02v.04a.32.32 0 0 0 .23.31v-.06q0-.15-.21-.3Zm68.55 0-.02.02v.04a.32.32 0 0 0 .24.31v-.06q0-.15-.22-.3Zm-6.2.6-.05-.03h-.05v.29l.03.12h.02l.04-.04v-.33ZM32 9.23v.08l.04.04h.04q.13-.06.23-.22v-.06h-.1q-.12 0-.21.16Zm69.66 0v.08l.04.04h.04q.14-.06.24-.22v-.06h-.1q-.12 0-.22.16Zm68.56 0v.08l.04.04h.04q.13-.06.23-.22v-.06h-.1q-.11 0-.21.16ZM37.2 15.39h-.06q-.25.14-.25.3a.37.37 0 0 0 .31-.3Zm69.67 0h-.06q-.25.14-.25.3a.37.37 0 0 0 .31-.3Zm68.56 0h-.06q-.26.14-.26.3a.37.37 0 0 0 .31-.3Zm-55.47-6.91v-.04l-.06-.4-.02.13v.05h.02a1.62 1.62 0 0 0 .05.27.02.02 0 0 0 0-.01ZM86.7 3.79h-.29l-.06.06v.04h.35l.06-.04-.06-.06Zm60.02 0h-.29l-.06.06v.04h.35l.06-.04-.06-.06Zm-97.77.53-.02.04q.08.3.16.33h.05v-.04a.48.48 0 0 0-.19-.33Zm118.32 1.01h-.25l-.08.08v.02l.08.06h.1a.2.2 0 0 0 .2-.12l-.05-.04ZM20.62 6.82h-.23l-.08.06v.07l.1.04q.27-.04.27-.13l-.06-.04Zm-4.24 9.16h.02q.35-.12.35-.2l-.04-.04a.53.53 0 0 0-.33.24Zm44.2-9.79h-.16l-.1.08.07.1h.25l.06-.06-.12-.12Zm25.64 6.39v.14h.05q.1-.04.1-.24v-.13h-.07a.34.34 0 0 0-.08.23Zm60.03 0v.14h.03q.1-.04.1-.24v-.13h-.06a.34.34 0 0 0-.07.23Zm-85.8 2.32h-.26l-.06.06a.15.15 0 0 0 .16.1.24.24 0 0 0 .21-.1v-.02l-.06-.04Zm124.43-8.06h-.12l-.23.02v.02l.03.05h.2q.14 0 .16-.07l-.04-.02Zm-25.92 5.92h-.06l-.16.15v.1l.04.06h.06a.27.27 0 0 0 .12-.31ZM16.95 8.6l.02-.04v-.03a.15.15 0 0 0-.16-.18.14.14 0 0 0-.13.06.33.33 0 0 0 .27.2Zm69.74-1.05-.07.02v.12a.2.2 0 0 0 .1.17h.05l.06-.08v-.1q-.04-.1-.14-.13Zm60.02 0-.07.02v.12a.2.2 0 0 0 .1.17h.05l.06-.08v-.1q-.04-.1-.14-.13ZM32 10.33v.02H32l.33-.04v-.04l-.06-.07h-.06a.23.23 0 0 0-.23.13Zm69.67 0v.02h.02l.33-.04v-.04l-.06-.07h-.06a.23.23 0 0 0-.23.13Zm68.55 0v.02h.02l.33-.04v-.04l-.06-.07h-.06a.23.23 0 0 0-.23.13ZM5.41 15.5h-.24l-.12.04v.08h.12l.24-.06v-.06Zm72.98 0h-.23l-.12.04v.08h.12l.23-.06v-.06ZM37.26 7.97h.04l.04-.06V7.8l-.08-.1a.14.14 0 0 0-.17.12q.03.16.17.16Zm69.67 0h.04l.04-.06V7.8l-.08-.1a.14.14 0 0 0-.18.12q.04.16.18.16Zm68.55 0h.04l.04-.06V7.8l-.08-.1a.14.14 0 0 0-.17.12q.04.16.17.16Zm11.57-.45h-.06v.04a.43.43 0 0 0 .27.16h.06v-.04a.43.43 0 0 0-.27-.16ZM142.28 4.9h-.06l-.08.06v.14l.02.14h.06l.06-.34Zm38.3 1.88-.23-.18h-.06v.08l.12.14h.17v-.04Zm-17.05-.04v.15l.06.06a.12.12 0 0 0 .08-.13v-.08l-.04-.14h-.02a.12.12 0 0 0-.08.14Zm-10.6 1.5-.04.04v.12l.11.12h.06l.06-.04v-.1a.23.23 0 0 0-.2-.14ZM37.89 14.92h.07a.5.5 0 0 0 .2-.25h-.02a.29.29 0 0 0-.25.25Zm69.66 0h.08a.5.5 0 0 0 .2-.25h-.02a.29.29 0 0 0-.26.25Zm68.56 0h.08a.5.5 0 0 0 .2-.25h-.03a.29.29 0 0 0-.25.25Zm-136.72-.94h-.02v.04q.06.24.18.24h.02l.03-.04v-.02q-.04-.21-.21-.21Zm69.67 0h-.02v.04q.06.24.17.24h.02l.04-.04v-.02q-.04-.21-.21-.21Zm68.55 0h-.02v.04q.06.24.18.24h.02l.04-.04v-.02q-.04-.21-.22-.21ZM86.85 3.45v.06h.08a.24.24 0 0 0 .21-.14V3.3h-.04a.34.34 0 0 0-.25.14Zm60.02 0v.06h.08a.24.24 0 0 0 .21-.14V3.3h-.04a.34.34 0 0 0-.25.14Zm-23.57 8h-.3l-.04.08.04.04h.1q.18 0 .2-.08v-.03ZM54.37 3.8l.08.06h.04q.17 0 .2-.08v-.08h-.14a.17.17 0 0 0-.18.1Zm42.6 10.57v.04l.06.07h.15l.08-.08a.19.19 0 0 0-.18-.11.1.1 0 0 0-.11.08Zm-5.28-.47.1.1h.02a.15.15 0 0 0 .1-.16.1.1 0 0 0-.06-.14.26.26 0 0 0-.16.2Zm61.25-4.61h-.01q0 .13.25.21l.04-.02a.34.34 0 0 0-.28-.2ZM57.6 7.8l-.04-.04-.05.04v.3h.02a.12.12 0 0 0 .07-.14v-.16Zm5-2.2h-.04v.03a.43.43 0 0 0 .28.16h.02v-.04a.43.43 0 0 0-.26-.15Zm78.2-2.1.1.1h.1l.06-.05V3.5a.2.2 0 0 0-.16-.12.14.14 0 0 0-.1.14Zm22.88 3.66-.04-.04h-.04l-.02.1v.1l.02.11h.08v-.27Zm-27.83.06v.13l.07.08h.16v-.08a.37.37 0 0 0-.23-.13Zm-43.95 5.6v-.11h-.08l-.02.11v.2h.02a.17.17 0 0 0 .08-.2ZM52.46 8.85h-.06l-.04.04a.2.2 0 0 0 .12.2l.11-.03v-.02a.23.23 0 0 0-.13-.2Zm12.22 5.56h-.1l-.05.06q.05.14.15.18h.02l.08-.08v-.04l-.1-.12ZM32.42 7.54v.04h.04q.25-.06.25-.14v-.02h-.1a.27.27 0 0 0-.2.12Zm69.66 0v.04h.04q.26-.06.26-.14v-.02h-.1a.27.27 0 0 0-.2.12Zm68.56 0v.04h.04q.25-.06.25-.14v-.02h-.1a.27.27 0 0 0-.19.12ZM2.57 3.44H2.5l-.1.04v.02l.04.08h.13l.12-.04v-.06l-.12-.04Zm73 0h-.09l-.1.04v.02l.05.08h.13l.12-.04v-.06l-.12-.04ZM86 14.22l.08.1q.17 0 .17-.2h-.1a.15.15 0 0 0-.15.1Zm60.02 0 .08.1q.17 0 .17-.2h-.1a.15.15 0 0 0-.15.1Zm-134.34.21-.07.04v.04l.15.16h.08a.28.28 0 0 0-.16-.23Zm168.07-6.67v.03h.06q.21 0 .23-.07l-.04-.06h-.03a.2.2 0 0 0-.22.1Zm-57.58-3.13h.02a.15.15 0 0 0 .18-.16V4.4h-.06a.25.25 0 0 0-.14.24ZM19.94 7.52h-.04l-.06.06.06.04h.25v-.04l-.21-.06Zm102.83-4.51h-.1v.1l.06.06h.16l.03-.04V3.1a.15.15 0 0 0-.15-.1Zm-64.28 7.13h-.02l-.21.1v.1h.04a.2.2 0 0 0 .2-.16v-.04Zm-27.38.04-.08-.04h-.1v.12a.09.09 0 0 0 .06.11.17.17 0 0 0 .12-.2Zm69.67 0-.08-.04h-.1v.12a.09.09 0 0 0 .06.11.17.17 0 0 0 .12-.2Zm68.55 0-.08-.04h-.1v.12a.09.09 0 0 0 .06.11.17.17 0 0 0 .12-.2Zm-142.09 1v.01l.06.04q.1 0 .1-.13v-.06l-.06-.08a.2.2 0 0 0-.1.21Zm10.55 1.9.04.06h.1a.12.12 0 0 0 .13-.07l-.08-.08h-.02a.17.17 0 0 0-.17.1Zm69.67 0 .04.06h.1a.12.12 0 0 0 .13-.07l-.08-.08h-.02a.17.17 0 0 0-.17.1Zm68.55 0 .04.06h.1a.12.12 0 0 0 .13-.07l-.07-.08h-.02a.17.17 0 0 0-.18.1ZM95.85 7.02l.08.08h.02a.15.15 0 0 0 .18-.08v-.06h-.08q-.16 0-.2.06Zm-82.83 8.63v.02h.26l.04-.03-.04-.06h-.04q-.2 0-.22.07Zm129.03-1.66h-.1l-.1.1.08.08h.1l.07-.08v-.04l-.05-.05Zm14.41-8.94v.02q0 .06.23.08h.06v-.02q0-.04-.29-.08ZM38.3 8.94h-.06l-.06.04v.14l.06.08a.12.12 0 0 0 .07-.14v-.08l-.01-.03Zm69.66 0h-.05l-.06.04v.14l.06.08a.12.12 0 0 0 .07-.14v-.08l-.02-.03Zm68.56 0h-.06l-.06.04v.14l.06.08a.12.12 0 0 0 .08-.14v-.08l-.02-.03Zm-111.43 5.8h-.08l-.04.08v.04l.08.08h.08l.06-.04v-.04l-.1-.11Zm-26.38-.56.02.02h.05a.24.24 0 0 0 .12-.21h-.06a.23.23 0 0 0-.13.2Zm69.66 0 .02.02h.06a.24.24 0 0 0 .12-.21h-.06a.23.23 0 0 0-.14.2Zm68.56 0 .02.02h.06a.24.24 0 0 0 .11-.21h-.06a.23.23 0 0 0-.13.2Zm-9.63-9.7h-.22l-.05.03v.04l.06.02q.19 0 .21-.08v-.02ZM36.73 14.81h.04a.24.24 0 0 0 .18-.19l-.02-.02a.32.32 0 0 0-.2.21Zm69.67 0h.04a.24.24 0 0 0 .18-.19l-.02-.02a.32.32 0 0 0-.2.21Zm68.56 0h.03a.24.24 0 0 0 .18-.19l-.02-.02a.32.32 0 0 0-.2.21Zm6.75-1.7h-.03l-.08.07v.15h.08l.07-.06v-.12l-.04-.03Zm-118.1-.85h-.08l-.02.02v.11l.06.08h.02l.08-.08v-.11l-.06-.02ZM52.89 9.73h-.04l-.08.08v.11l.04.06.08-.08v-.17Zm99.6-1.66-.03.02v.04l.03.05h.2v-.05q-.02-.06-.2-.06Zm-10.95-4.93h-.04l-.04.08v.04l.02.12h.06l.06-.06v-.1l-.06-.08Zm-5.18.28v.02q0 .06.08.06.1-.04.14-.14v-.04a.2.2 0 0 0-.22.1ZM98.28 15.14h-.14l-.06.06.1.07h.08l.07-.07-.05-.06ZM141.85 4.7h-.08l-.08.06v.02l.08.07h.08l.08-.07v-.02l-.08-.06Zm9.5 1.15v-.04h-.1l-.03.14v.06l.03.04.1-.2Zm-58.21 9.88-.08.02v.04l.04.06h.16l.04-.06q-.02-.06-.16-.06Zm70.57-7.1-.04-.16h-.06v.15l.06.08h.04v-.08ZM118.59 13l-.06-.02h-.04l-.02.12.02.1h.04l.06-.07v-.13Zm6.76 2.75v.04h.08a.12.12 0 0 0 .13-.08l-.04-.06a.17.17 0 0 0-.17.1ZM21.93 9.6h-.02q.04.23.12.23V9.8a.17.17 0 0 0-.1-.2Zm132.17 6.07h-.04l.08.1h.15v-.02a.17.17 0 0 0-.2-.08Zm25.23-.27v-.13l-.08-.08-.04.08v.07l.04.06h.08ZM11.27 10v-.05q-.18 0-.18.18a.22.22 0 0 0 .18-.14Zm170.91-2.1-.12-.02-.07.02v.06l.07.06h.06l.06-.06v-.06ZM.54 14.47v-.04H.5a.15.15 0 0 0-.11.18.13.13 0 0 0 .15-.14Zm72.99 0v-.04h-.04a.15.15 0 0 0-.12.18.13.13 0 0 0 .16-.14ZM15.7 7.72v.02l.2-.16-.05-.02a.32.32 0 0 0-.16.14.02.02 0 0 0 0 .02Zm3.67 3.02h-.02l-.06.06v.08l.06.08.08-.08v-.08l-.06-.06Zm-8.87 1.49h-.02l-.04.06a.2.2 0 0 0 .06.17l.04-.02v-.1l-.04-.11Zm128.2-3.75-.05-.06h-.18q.02.08.16.08h.08v-.02Zm-20.9 4.68-.03-.03-.14.11v.06a.15.15 0 0 0 .18-.14ZM61.2 5.45h-.1l-.03.06.06.08h.11l.02-.04-.05-.1Zm123.95 1.37v.04h.14l.08-.06-.06-.06a.2.2 0 0 0-.16.08Zm-60.9 4.12-.04-.14.08-.1.02.02v.16l-.06.06Zm26.1 3.22-.08-.08h-.1v.08l.1.06.08-.02v-.04Zm-64.07-1.29h-.02l-.05.08v.1h.06l.07-.06v-.06l-.06-.06Zm60.02 0h-.02l-.06.08v.1h.06l.08-.06v-.06l-.06-.06ZM21.1 8.05h-.06l-.02.06q.16.1.19.08a.01.01 0 0 0 0-.01.32.32 0 0 0-.11-.13Zm77.58 7.26v-.08h-.2v.03l.1.05h.1Zm-98.19-.5-.05-.06-.12.02v.05l.06.06h.05l.06-.06v-.01Zm73 0-.07-.06-.11.02v.05l.05.06h.06l.06-.06v-.01Zm22.96-9.32-.04-.04-.12.02v.06l.02.06h.1l.04-.06v-.04Zm-68.75 1.1h-.12l-.05.07.05.04q.12-.02.12-.06v-.06Zm131.45-1.82h-.1l-.06.08.06.03h.1v-.11Zm-32.66 9.49-.06-.06h-.02v.14l.06.05h.02v-.13Zm13.6 1.27h-.12v-.08h.03a.1.1 0 0 1 .14.08h-.06Zm-75.44-6.2h-.02v.05a.2.2 0 0 0 .08.15l.02-.1a.13.13 0 0 0-.08-.1Zm77.66-4.78-.02-.08h-.1v.04a.17.17 0 0 0 .12.12v-.08ZM32.34 8.26v-.02a.17.17 0 0 0-.12.18.14.14 0 0 0 .12-.16Zm69.67 0v-.02a.17.17 0 0 0-.12.18.14.14 0 0 0 .12-.16Zm68.55 0v-.02a.17.17 0 0 0-.12.18.14.14 0 0 0 .12-.16Zm-18.8-1.8h-.08l-.08.06v.06h.06l.1-.08v-.03Zm-9.87-.07h-.04l-.06.06.1.05h.06l.02-.05-.08-.06Zm-42.46 8.55-.06-.04h-.06v.1l.06.04h.06v-.1ZM32.6 10.2v-.02l-.1.02v.11h.1v-.11Zm69.67 0v-.02l-.1.02v.11h.1v-.11Zm68.56 0v-.02l-.1.02v.11h.1v-.11Zm10.91-3.54-.06-.04-.1.04v.08h.1l.06-.08Zm4.77.16h-.08l-.04.04v.02l.04.05h.08l.04-.05v-.02l-.04-.04Zm-122.3 4.35v-.07h-.12v.07l.06.06.05-.06Zm24.15 4.22h-.04l-.07.06v.06h.11l.02-.06-.02-.06Zm60.02 0h-.04l-.07.06v.06h.11l.02-.06-.02-.06Zm33.3-8.42h-.05l-.08.06v.04l.04.04.1-.08v-.06ZM87.34 2.8h-.02l-.06.1v.08h.02l.06-.08v-.1Zm60.02 0h-.02l-.06.1v.08h.02l.06-.08v-.1ZM63.6 11.6h-.02l-.06.05.06.08.08-.02v-.06l-.06-.06ZM11.48 9.44h.02q.08-.01.08-.15h-.04q-.06.04-.06.15Zm12.97 5.92-.08-.08h-.04v.02l.06.12h.06v-.06ZM.99 2.93H.9l-.06.04v.04h.1L1 2.95v-.02Zm72.99 0h-.1l-.06.04v.04h.1l.06-.06v-.02Zm83.83 9.88-.02-.05h-.1v.1l.06.01.06-.06Zm-66.49-5.8-.07-.06h-.04v.1l.04.04.07-.08Zm26.35 7.46-.04-.08-.08.02v.06l.06.06h.02l.04-.06Zm32.76-2.89-.03-.07h-.1v.07l.05.04.08-.04Zm-12.39 2.86v.01a.14.14 0 0 0 .14.1.14.14 0 0 0-.14-.12Zm-110.5-3.56h-.02l-.08.08.04.08.05-.1v-.06Zm30.5 3.28H58l-.04.04v.02l.04.04h.1v-.04l-.06-.06ZM186.38 8.6v.03h.04l.08-.06v-.05h-.02q-.1.05-.1.08ZM141.9 5.27l-.08-.03h-.04v.03l.04.06h.08v-.06Zm22.36 1.88v-.06l-.1-.08v.06l.08.08h.02Zm-23.61 3.32-.04-.06h-.06v.06l.06.06h.04v-.06Zm45.14-3.6h-.06l-.08.06v.02h.1l.04-.04v-.03Zm-98.81-.91-.06-.06-.06.06.08.06h.04v-.06Zm9.47 5.98-.04-.04h-.06v.04l.08.07h.02v-.07Zm50.55-5.98-.06-.06-.06.06.08.06h.04v-.06Zm-55.22 4.26h-.04l-.06.1v.01h.06l.04-.06v-.05ZM11.62 11.8h-.02l-.08.08v.03h.06l.04-.05v-.06Zm76.27 2.81h-.04l-.06.08v.04h.04l.06-.08v-.04Zm60.02 0h-.04l-.06.08v.04h.04l.06-.08v-.04Zm3.75-6.42-.06-.06-.04.05v.02l.04.04h.06V8.2ZM48.9 4.2v-.12h-.06v.06l.02.06h.04ZM93.7 14.75l-.04-.04h-.06v.04l.08.06h.02v-.06ZM163.67.57l-.04-.04h-.02v.11h.06V.57ZM32.12 7.9h-.07l-.04.06v.02h.04l.07-.06v-.02Zm69.67 0h-.08l-.03.06v.02h.03l.08-.06v-.02Zm68.56 0h-.08l-.04.06v.02h.04l.08-.06v-.02ZM50.84 6.66l-.06-.06h-.04v.02l.06.08h.04v-.04Zm84.59-2.54h-.04l-.06.06v.02h.1v-.08ZM57 3.63h-.06l-.04.04v.04h.02L57 3.7v-.06Zm94.92 1.98h-.04l-.06.02.02.04v.01l.08-.01V5.6Zm-120.6 7-.05-.03h-.05v.04l.05.04h.04v-.04Zm69.66 0-.04-.03h-.06v.04l.06.04h.04v-.04Zm68.56 0-.04-.03h-.06v.04l.06.04h.04v-.04Zm-47.23-8.9-.06-.04h-.02v.04l.04.06h.04v-.06ZM12.75 8.9v-.04h-.08v.08h.04l.04-.04ZM92.35 15l-.05-.06-.04.06h.1Zm-.66 0-.03-.06h-.04V15h.07Zm62.58.47v-.02l-.06-.06v.08h.06ZM36.77 9.9v-.05h-.06v.05h.06Zm-1.91 5.55v-.06h-.06v.06h.06Zm71.58-5.55v-.05h-.06v.05h.06Zm-1.91 5.55v-.06h-.06v.06h.06Zm17-3.55v-.06h-.05v.05h.06Zm53.47-2v-.05h-.06v.05h.06Zm-1.92 5.55v-.06h-.06v.06h.06Zm8.6-1.82v-.07h-.04v.07h.04ZM64.14 10.74v-.02l-.06-.04v.06h.06Zm77.95-6.07V4.6l-.06.06h.06ZM2.12 15.55v-.06h-.04v.06h.04Zm26.45-6.43v-.06h-.04v.06h.04Zm46.54 6.43v-.06h-.04v.06h.04Zm44.65-6.84v-.06h-.02v.06h.02Z" vector-effect="non-scaling-stroke" stroke-linecap="round" fill-rule="evenodd" font-size="12" stroke="#000" stroke-width=".94" fill="none" style="stroke:#000;stroke-width:.25mm;fill:none"/></svg>