<svg width="102.51" height="23.51" xmlns="http://www.w3.org/2000/svg"><path d="M56.46 15.47q-.19.1-.28.27-.09.16-.09.3a.32.32 0 0 0 .06.2q.06.07.17.07a.45.45 0 0 0 .06 0 .24.24 0 0 0 .08-.03l4.86-2.88a5.25 5.25 0 0 0-.9.79 8.37 8.37 0 0 0-.8 1 6.39 6.39 0 0 0-.58 1.04q-.22.5-.22.87a3.32 3.32 0 0 0 .17 1.13q.17.47.46.78a1.76 1.76 0 0 0 .69.45 2.39 2.39 0 0 0 .82.14 3.08 3.08 0 0 0 .8-.11q.42-.11.8-.33a4.12 4.12 0 0 0 .73-.52q.34-.3.6-.68a4.48 4.48 0 0 0-.1.47 2.76 2.76 0 0 0-.03.43 1.02 1.02 0 0 0 .14.55q.13.22.52.22.6 0 1.35-.42l1.1-.64a60.08 60.08 0 0 0 1.17-.74l1.18-.78a725 725 0 0 1 1.15-.77.63.63 0 0 0 .21-.26q.08-.16.08-.33a.37.37 0 0 0-.05-.18q-.04-.08-.12-.08a.3.3 0 0 0-.12.04 235.4 235.4 0 0 0 2.53-1.5 111.56 111.56 0 0 1 1.8-1.07q.77-.44 1.34-.7a7.2 7.2 0 0 1 1.08-.41 5.9 5.9 0 0 1 1.1-.2 15.7 15.7 0 0 1 1.32-.05q.56 0 1 .23a2.18 2.18 0 0 1 .72.6q.3.4.46.91a3.8 3.8 0 0 1 .16 1.1q0 .35-.08.76a6.4 6.4 0 0 1-.23.84 7.22 7.22 0 0 1-.35.87q-.21.43-.47.79l.45-.25.56-.31a144.58 144.58 0 0 1 .63-.36 207.85 207.85 0 0 1 .64-.36l1.51-.89a.37.37 0 0 1 .19-.04q.22 0 .22.23a.8.8 0 0 1-.4.62 34.83 34.83 0 0 1-.93.59q-.56.35-1.22.68-.66.34-1.34.6-.68.26-1.26.3-.77.57-1.8.91a7.48 7.48 0 0 1-2.38.35 4.72 4.72 0 0 1-1.14-.12 1.96 1.96 0 0 1-.75-.34 1.29 1.29 0 0 1-.4-.55 2.08 2.08 0 0 1-.14-.76q0-.63.26-1.34a9.33 9.33 0 0 1 .63-1.39q.37-.68.8-1.26a11.27 11.27 0 0 1 .79-.97 8.81 8.81 0 0 1-.89.65 35.26 35.26 0 0 1-1.29.82l-1.52.9-1.6.93a.56.56 0 0 1-.21.05q-.13 0-.2-.07a.27.27 0 0 1-.07-.2.49.49 0 0 1 .12-.28q.1-.15.36-.31l-2.54 1.6a13.67 13.67 0 0 1-.76.5 12.22 12.22 0 0 1-.72.42 5.25 5.25 0 0 1-.6.27q-.25.1-.38.1a.14.14 0 0 1-.13-.13 1.01 1.01 0 0 1-.03-.26q0-.4.2-.95a17.4 17.4 0 0 1 .51-1.2 896.84 896.84 0 0 1 .62-1.31q.32-.68.53-1.32l2.91-6.32a3.86 3.86 0 0 0 .08-.2 10.68 10.68 0 0 0 .1-.31 10.18 10.18 0 0 0 .1-.34 2.34 2.34 0 0 0 .07-.3.7.7 0 0 0-.03-.25.16.16 0 0 0-.17-.09q-.44 0-.72.14-.28.15-.46.35a1.88 1.88 0 0 0-.3.44 88.77 88.77 0 0 1-.2.45L65.9 11.9a3 3 0 0 0-1.12-.19q-.69 0-1.45.21a12.55 12.55 0 0 0-1.5.52q-.75.32-1.45.7a29.52 29.52 0 0 0-1.24.7l-2.68 1.63-2.54 1.6a13.67 13.67 0 0 1-.77.5 12.22 12.22 0 0 1-.72.42 5.25 5.25 0 0 1-.59.27q-.26.1-.38.1a.14.14 0 0 1-.14-.13 1.01 1.01 0 0 1-.03-.26q0-.4.21-.95a17.4 17.4 0 0 1 .5-1.2 896.84 896.84 0 0 1 .62-1.31q.32-.68.54-1.32l2.9-6.32a3.86 3.86 0 0 0 .08-.2 10.68 10.68 0 0 0 .1-.31 10.18 10.18 0 0 0 .1-.34 2.34 2.34 0 0 0 .08-.3.7.7 0 0 0-.04-.25.16.16 0 0 0-.17-.09q-.44 0-.72.14-.27.15-.46.35a1.88 1.88 0 0 0-.29.44 88.77 88.77 0 0 1-.2.45l-2.56 5.14a3 3 0 0 0-1.12-.19q-.68 0-1.45.21a12.55 12.55 0 0 0-1.5.52q-.75.32-1.44.7a29.52 29.52 0 0 0-1.24.7l-2.69 1.63-2 1.14a102.05 102.05 0 0 0-1.35.78l-.97.56q-.39.23-.66.23a.41.41 0 0 1-.29-.1.68.68 0 0 1-.18-.3q-.06-.17-.08-.43-.02-.26-.02-.57a22.75 22.75 0 0 1 .02-.8 25.55 25.55 0 0 0 .01-.88 8.1 8.1 0 0 0 1.33-.58 6.42 6.42 0 0 0 1.09-.73q.46-.4.73-.8a1.41 1.41 0 0 0 .27-.78 1.08 1.08 0 0 0-.36-.9 1.4 1.4 0 0 0-.9-.28 3.67 3.67 0 0 0-1.1.18q-.58.18-1.1.54a4.43 4.43 0 0 0-.96.93 4.75 4.75 0 0 0-.7 1.34l-2.48 1.45-2.48 1.5a162.87 162.87 0 0 1-2.85 1.65 4.73 4.73 0 0 1-.75.36q-.3.1-.49.1-.2 0-.32-.08a.57.57 0 0 1-.18-.21q-.06-.13-.07-.27a2.67 2.67 0 0 1-.02-.27q0-.33.18-1.1a45.93 45.93 0 0 1 .45-1.84 172.13 172.13 0 0 1 .64-2.35 421.29 421.29 0 0 0 .74-2.63 480.4 480.4 0 0 0 .73-2.7q.36-1.35.64-2.55.29-1.2.46-2.16.17-.97.17-1.56a.86.86 0 0 0-.03-.2q-.02-.1-.12-.18a.82.82 0 0 0-.29-.13 2 2 0 0 0-.52-.06.91.91 0 0 0-.54.16q-.22.15-.36.4a2.02 2.02 0 0 0-.22.51 3.88 3.88 0 0 0-.1.52l-9.13 13.73 1.85-14.44a2.4 2.4 0 0 0 .01-.18 4.95 4.95 0 0 0 0-.23 2.86 2.86 0 0 0-.03-.43 1.31 1.31 0 0 0-.13-.4.86.86 0 0 0-.25-.3.72.72 0 0 0-.44-.13.9.9 0 0 0-.63.27 2.97 2.97 0 0 0-.52.65 6.1 6.1 0 0 0-.43.87q-.2.47-.33.87a8.7 8.7 0 0 0-.2.69l-.07.3a16.06 16.06 0 0 1-.93 3q-.65 1.6-1.57 3.24-.92 1.65-2.04 3.29a46.96 46.96 0 0 1-2.32 3.1q-.5-.41-1.25-.64a6.1 6.1 0 0 0-1.78-.23q-.72 0-1.53.14-.82.14-1.63.42a9.5 9.5 0 0 0-1.57.7 6.45 6.45 0 0 0-1.32.97 4.6 4.6 0 0 0-.92 1.22A3.17 3.17 0 0 0 0 20.33q0 .6.23 1.05a1.9 1.9 0 0 0 .63.72 2.89 2.89 0 0 0 .99.4q.57.14 1.29.14a5.17 5.17 0 0 0 1.84-.36q.94-.36 1.87-.97.93-.6 1.85-1.43a28.18 28.18 0 0 0 1.79-1.74q.09.32.09.67a3.3 3.3 0 0 1-.32 1.37q-.32.7-.86 1.27a4.56 4.56 0 0 1-1.27.94 3.4 3.4 0 0 1-1.55.36.08.08 0 0 0-.06.03.09.09 0 0 0-.02.05.3.3 0 0 0 .02.12l.07.13a.4.4 0 0 0 .08.1.12.12 0 0 0 .07.03 4.68 4.68 0 0 0 1.34-.18 4.64 4.64 0 0 0 1.14-.51q.53-.33.94-.78.42-.44.7-.95a4.64 4.64 0 0 0 .44-1.05 4.05 4.05 0 0 0 .16-1.09 3.22 3.22 0 0 0-.27-1.3 52 52 0 0 0 1.81-2.4q.87-1.2 1.6-2.33.74-1.11 1.33-2.09a87.64 87.64 0 0 0 1-1.66l-1 10.46a.14.14 0 0 0-.03.08 1.6 1.6 0 0 0 0 .12q0 .15.07.3a.33.33 0 0 0 .33.14q.27 0 .5-.14a1.94 1.94 0 0 0 .4-.32q.16-.17.26-.32l.1-.16 9.3-14.21a138.64 138.64 0 0 0-.28 1.03 113.42 113.42 0 0 0-.43 1.6 263.96 263.96 0 0 0-.51 2 203.86 203.86 0 0 0-.55 2.23 119.58 119.58 0 0 0-.52 2.27 69.04 69.04 0 0 0-.44 2.15q-.2 1.02-.3 1.86a10.85 10.85 0 0 0-.12 1.39 1.5 1.5 0 0 0 .05.4.87.87 0 0 0 .2.34q.12.16.33.25.2.1.52.1a3.62 3.62 0 0 0 1.16-.26 10.44 10.44 0 0 0 1.74-.86l2.05-1.23a227 227 0 0 1 1.63-.96l1.45-.85 1.02-.6.39-.23a35.02 35.02 0 0 1 .37-.22 52.63 52.63 0 0 0 .3-.18l.2-.12a1.98 1.98 0 0 0-.1.44l-.1.58a9.72 9.72 0 0 0-.04.56 7.48 7.48 0 0 0-.02.38q0 .75.1 1.27a2.7 2.7 0 0 0 .27.84 1.18 1.18 0 0 0 .44.47 1.2 1.2 0 0 0 .6.15 2.98 2.98 0 0 0 1.2-.3q.68-.32 1.48-.8.8-.48 1.71-1.07.91-.6 1.88-1.17l4.86-2.88a5.25 5.25 0 0 0-.9.79 8.37 8.37 0 0 0-.8 1 6.39 6.39 0 0 0-.58 1.04q-.22.5-.22.87a3.32 3.32 0 0 0 .17 1.13q.17.47.47.78a1.76 1.76 0 0 0 .68.45 2.39 2.39 0 0 0 .82.14 3.08 3.08 0 0 0 .8-.11q.42-.11.8-.33a4.12 4.12 0 0 0 .74-.52q.34-.3.6-.68a4.48 4.48 0 0 0-.1.47 2.76 2.76 0 0 0-.04.43 1.02 1.02 0 0 0 .14.55q.14.22.53.22.6 0 1.35-.42l1.1-.64a60.08 60.08 0 0 0 1.16-.74l1.19-.78a725 725 0 0 1 1.15-.77.63.63 0 0 0 .2-.26q.08-.16.08-.33a.37.37 0 0 0-.05-.18q-.04-.08-.12-.08a.3.3 0 0 0-.11.04Zm28.08 0a.88.88 0 0 0-.3.28q-.1.16-.1.3a.27.27 0 0 0 .06.18q.07.07.2.07a.4.4 0 0 0 .06 0 1.56 1.56 0 0 0 .08-.02l4.72-2.77-.3.88-.39 1a134.61 134.61 0 0 0-.4 1.04 39.58 39.58 0 0 0-.35.96 14.96 14.96 0 0 0-.25.8q-.1.34-.1.51a2.34 2.34 0 0 0 .02.32q.02.14.1.24a.48.48 0 0 0 .2.16 1.07 1.07 0 0 0 .4.06.74.74 0 0 0 .52-.14.73.73 0 0 0 .21-.34q.05-.18.05-.35a.33.33 0 0 1 .05-.22 11.26 11.26 0 0 1 1.08-1.3q.62-.65 1.31-1.24a18.02 18.02 0 0 1 1.4-1.08 15.94 15.94 0 0 1 1.39-.87q.66-.37 1.22-.57a2.74 2.74 0 0 1 .93-.21.13.13 0 0 1 .13.15q0 .23-.22.73a28.55 28.55 0 0 1-.53 1.17q-.3.65-.68 1.38a35.27 35.27 0 0 0-.67 1.39q-.17.25-.26.47a1.13 1.13 0 0 0-.1.45q0 .2.08.4.07.18.22.32a1.13 1.13 0 0 0 .39.22q.23.08.56.08a2.83 2.83 0 0 0 1.2-.3 11.51 11.51 0 0 0 1.4-.8q.78-.5 1.72-1.16a47.66 47.66 0 0 1 2.1-1.38 1 1 0 0 0 .31-.29q.11-.16.11-.3a.22.22 0 0 0-.23-.26.37.37 0 0 0-.19.04 47.25 47.25 0 0 0-1.64 1.07 87.27 87.27 0 0 1-1.46.97 38.27 38.27 0 0 1-1.3.81 8.46 8.46 0 0 1-1.16.59 61.9 61.9 0 0 1 .49-1.1 394.63 394.63 0 0 1 .52-1.15 41.29 41.29 0 0 0 .49-1.14 32.05 32.05 0 0 0 .42-1.05q.18-.5.3-.91a2.96 2.96 0 0 0 .1-.72.82.82 0 0 0-.2-.57.9.9 0 0 0-.68-.2q-.81 0-1.63.21a9.29 9.29 0 0 0-1.6.6 11.86 11.86 0 0 0-1.53.87 15.79 15.79 0 0 0-1.39 1.05 16.04 16.04 0 0 0-1.2 1.13q-.55.57-.96 1.1a31.79 31.79 0 0 0 .22-.5 6.77 6.77 0 0 0 .13-.3 39.14 39.14 0 0 0 .07-.2l.1-.25q.13-.37.33-.8a148.01 148.01 0 0 0 .38-.86q.19-.42.31-.77a1.8 1.8 0 0 0 .13-.57.5.5 0 0 0-.18-.37.66.66 0 0 0-.47-.16q-.13 0-.25.03a1.04 1.04 0 0 0-.24.1 16.61 16.61 0 0 0-.44.25l-.86.5a722.33 722.33 0 0 1-1.53.9 1093.85 1093.85 0 0 0-2.42 1.44ZM3.28 21.99a2.8 2.8 0 0 0 1.24-.37 10.06 10.06 0 0 0 1.56-1.03 21.27 21.27 0 0 0 1.76-1.57 36 36 0 0 0 1.87-1.99 2.96 2.96 0 0 0-.96-.45 5.03 5.03 0 0 0-1.38-.16 8.96 8.96 0 0 0-1.41.11 9.96 9.96 0 0 0-1.44.35q-.71.22-1.34.55a5.05 5.05 0 0 0-1.11.76q-.48.43-.76.97-.28.53-.28 1.15 0 .88.6 1.28t1.65.4Zm72.36-3.12a3 3 0 0 0 1.2-.26 5.16 5.16 0 0 0 1.14-.69q-.13-.15-.18-.33a1.49 1.49 0 0 1-.05-.38.6.6 0 0 1 .23-.52q.22-.17.54-.17a1.2 1.2 0 0 1 .64.2q.31-.22.6-.54.28-.31.49-.66a3.6 3.6 0 0 0 .33-.72 2.3 2.3 0 0 0 .12-.73 1.54 1.54 0 0 0-.1-.58 1.2 1.2 0 0 0-.37-.48 1.87 1.87 0 0 0-.65-.33 3.44 3.44 0 0 0-.98-.12 2 2 0 0 0-.96.25 4.03 4.03 0 0 0-.9.68 6.63 6.63 0 0 0-.82.97 7.91 7.91 0 0 0-.65 1.12 7.16 7.16 0 0 0-.42 1.13 3.79 3.79 0 0 0-.16 1.02q0 .5.22.82a.82.82 0 0 0 .73.32Zm-24.27-5.43a7.84 7.84 0 0 0-.1.26 15.73 15.73 0 0 1-.9 2.08 10.98 10.98 0 0 1-1.02 1.63q-.53.68-1.05 1.06a1.69 1.69 0 0 1-.97.38q-.34 0-.54-.26a1.41 1.41 0 0 1-.2-.86 3.3 3.3 0 0 1 .17-1.01 6.83 6.83 0 0 1 .5-1.13 8.32 8.32 0 0 1 .71-1.11 6.83 6.83 0 0 1 .9-.96 4.76 4.76 0 0 1 .97-.68 2.15 2.15 0 0 1 1-.26 4.81 4.81 0 0 1 .59.03q.22.03.22.09a.6.6 0 0 1-.04.17 4.6 4.6 0 0 1-.11.27l-.13.3Zm13.92 0a7.84 7.84 0 0 0-.1.26 15.73 15.73 0 0 1-.9 2.08 10.98 10.98 0 0 1-1.03 1.63q-.52.68-1.05 1.06a1.69 1.69 0 0 1-.97.38q-.33 0-.54-.26a1.41 1.41 0 0 1-.2-.86 3.3 3.3 0 0 1 .18-1.01 6.83 6.83 0 0 1 .49-1.13 8.32 8.32 0 0 1 .72-1.11 6.83 6.83 0 0 1 .89-.96 4.76 4.76 0 0 1 .98-.68 2.15 2.15 0 0 1 .99-.26 4.81 4.81 0 0 1 .6.03q.22.03.22.09a.6.6 0 0 1-.05.17 4.6 4.6 0 0 1-.1.27l-.13.3Zm-25.9-1.15q.02-.06.02-.13a.63.63 0 0 0-.09-.36.32.32 0 0 0-.28-.12q-.22 0-.51.17-.3.17-.58.5a3.46 3.46 0 0 0-.5.83q-.21.5-.3 1.15.4-.2.79-.48.38-.26.69-.54a3.86 3.86 0 0 0 .5-.55 1.36 1.36 0 0 0 .26-.47Zm-6.55 3.99q-.1.07-.22.07a.29.29 0 0 1-.2-.08.25.25 0 0 1-.09-.18.52.52 0 0 1 .12-.3 1.25 1.25 0 0 1 .4-.32.49.49 0 0 1 .2-.06q.12 0 .17.07.06.08.06.18a.6.6 0 0 1-.1.31.99.99 0 0 1-.34.31Zm9.7-.81a.17.17 0 0 1 .1-.03.25.25 0 0 1 .2.1q.08.09.08.22a.5.5 0 0 1-.08.26.84.84 0 0 1-.3.26.24.24 0 0 1-.07.02.45.45 0 0 1-.07 0q-.1 0-.16-.07a.32.32 0 0 1-.06-.2q0-.13.09-.3.08-.15.27-.26Z" vector-effect="non-scaling-stroke" stroke-linecap="round" fill-rule="evenodd" font-size="12" stroke="#000" stroke-width=".94" fill="none" style="stroke:#000;stroke-width:.25mm;fill:none"/></svg>