<svg width="61.86" height="18.54" xmlns="http://www.w3.org/2000/svg"><path d="M1.72 14v-.58H9.6V1.44l-4.5 9.64L.6 1.42v12.6L0 14V0h.6l4.5 9.66L9.6.02l.6-.02v14.02L1.72 14Zm51.32 0v-.58h7.72V3.26l-4.5 4.5-4.5-4.5v10.76l-.6-.02V2.42h.6l4.5 4.5 4.5-4.5h.6v11.6L53.04 14Zm-22.4-7.78h-.94L32.36 4q-.88-1.18-3.16-1.18a5.77 5.77 0 0 0-1.68.21q-.68.21-1.25.78-.57.57-.85 1.66-.28 1.09-.28 2.75t.28 2.75q.28 1.09.85 1.66.57.57 1.25.78.68.21 1.68.21 2.26 0 3.14-1.16V8.92h.6v5.28q0 3.82-3.5 3.82H27.1v-.6h2.34q1.5 0 2.2-.79.7-.79.7-3.01v-.3q-1.08.9-3.14.9-2.5 0-3.58-1.42t-1.08-4.58q0-3.16 1.08-4.58t3.58-1.42q2.9 0 3.94 1.9l-2.5 2.1Zm-9.24 6.22.44.4q-1.1 1.38-3.6 1.38t-3.58-1.42q-1.08-1.42-1.08-4.58t1.08-4.58q1.08-1.42 3.58-1.42 2.9 0 3.94 1.9l-4.9 4.1h-.94L21.4 4q-.88-1.18-3.16-1.18a5.77 5.77 0 0 0-1.68.21q-.68.21-1.25.78-.57.57-.85 1.66-.28 1.09-.28 2.75t.28 2.75q.28 1.09.85 1.66.57.57 1.25.78.68.21 1.68.21 2.28 0 3.16-1.18ZM41.32 8.2l2.72 5.82h-.66l-2.8-6 .35-.17.43-.22.4-.25q.28-.18.42-.35l.31-.4q.17-.23.25-.52.08-.29.08-.63 0-1.26-1.2-1.86-1.2-.6-2.98-.6h-1.6v11h-.6V2.42h2.2q2.36 0 3.57.82t1.21 2.24q0 .92-.62 1.63-.62.71-1.48 1.09Zm5.44 5.82V2.42h.6v11.6h-.6Z" vector-effect="non-scaling-stroke" stroke-linecap="round" fill-rule="evenodd" font-size="12" stroke="#000" stroke-width=".94" fill="none" style="stroke:#000;stroke-width:.25mm;fill:none"/></svg>