<svg width="67.29" height="18.58" xmlns="http://www.w3.org/2000/svg"><path d="m19.16 15.7.4 1.3a34.79 34.79 0 0 1-1.83.6 19.43 19.43 0 0 1-1.38.36 10.94 10.94 0 0 1-1 .18 5.87 5.87 0 0 1-.66.04h-.3l-.2-.04a1.88 1.88 0 0 1-.13-.04 1.82 1.82 0 0 1-.56-.61q-.28-.44-.5-1.05a8.34 8.34 0 0 1-.36-1.37 8.78 8.78 0 0 1-.14-1.57q0-.51.06-.98a11.88 11.88 0 0 1 .25-1.44 60.83 60.83 0 0 1 .45-1.81 332.73 332.73 0 0 1 .53-1.98 191.05 191.05 0 0 0 .5-1.93q.24-.9.39-1.63a6.05 6.05 0 0 0 .14-1.11.63.63 0 0 0-.05-.31.47.47 0 0 0-.45-.18q-.28 0-.63.1a6.04 6.04 0 0 0-.74.26q-.4.17-.78.4-.4.21-.72.47a201.27 201.27 0 0 1-.6 2.05q-.17.63-.44 1.52l-.63 2.11-.84 2.78a441.22 441.22 0 0 0-1.07 3.53l-2.03-.4.68-1.82a147.12 147.12 0 0 0 .85-2.29 210.1 210.1 0 0 0 .88-2.47q.44-1.26.8-2.35a33.77 33.77 0 0 0 .56-1.94q.21-.84.21-1.23a.57.57 0 0 0-.02-.2q-.07-.2-.25-.29-.18-.07-.4-.07a2.32 2.32 0 0 0-.64.1q-.35.09-.67.24-.32.14-.6.32-.29.17-.44.31l-.36.33A31.6 31.6 0 0 1 6 4a60.45 60.45 0 0 1-.69 1.94L4.8 7.38a324.65 324.65 0 0 0-.72 2q-.4 1.17-.93 2.65l-1.18 3.38L0 14.67a10196.36 10196.36 0 0 1 1.36-3.34A493.34 493.34 0 0 0 2.4 8.74a250.61 250.61 0 0 0 .76-1.92 656.32 656.32 0 0 1 .53-1.35q.5-1.29.63-1.7.1-.33.18-.72.09-.4.09-.7a1.1 1.1 0 0 0-.1-.52q-.12-.2-.37-.23a.95.95 0 0 0-.2.06q-.17.06-.52.33a10.05 10.05 0 0 0-.92.85q-.57.58-1.4 1.63L.73 2.42a7.48 7.48 0 0 1 .83-.73q.54-.42 1.14-.8Q3.3.5 3.88.25A2.5 2.5 0 0 1 4.84 0a.64.64 0 0 1 .2.04.62.62 0 0 1 .33.22q.16.19.28.46a3.58 3.58 0 0 1 .22.62 8.19 8.19 0 0 1 .15.7q.4-.28.9-.56a9.91 9.91 0 0 1 1-.47q.5-.2.95-.34A2.84 2.84 0 0 1 9.6.55h.08q.33.04.67.34a3.02 3.02 0 0 1 .6.73 12.56 12.56 0 0 1 .84-.42q.48-.22.97-.4a10.9 10.9 0 0 1 .94-.3 3.06 3.06 0 0 1 .74-.1h.02q.35 0 .77.31.42.32.78.78.37.46.62.96.25.5.27.87 0 .22-.2.93a76.38 76.38 0 0 1-.53 1.74l-.7 2.25q-.36 1.23-.69 2.47-.32 1.24-.53 2.4-.22 1.15-.22 1.99 0 1.07.4 1.46a2.3 2.3 0 0 0 .72.42 2.34 2.34 0 0 0 .76.13 3 3 0 0 0 1.03-.19 7.43 7.43 0 0 0 .95-.42q.44-.23.77-.46a11.83 11.83 0 0 1 .49-.34Zm10.9-10.07h.1a1.82 1.82 0 0 1 .58.13q.37.14.73.35.35.22.61.46a.67.67 0 0 1 .26.46 2.43 2.43 0 0 1-.14.58 49.67 49.67 0 0 1-.37 1.06l-.5 1.38a33.65 33.65 0 0 0-.48 1.5 23.72 23.72 0 0 0-.38 1.43 5.26 5.26 0 0 0-.16 1.16 1.33 1.33 0 0 0 .1.55.41.41 0 0 0 .31.25 5.67 5.67 0 0 0 1.39-.4 7.6 7.6 0 0 0 1.2-.7q.63-.44 1.12-1.18l.57 1.48a6.62 6.62 0 0 1-1.1.95 10.64 10.64 0 0 1-1.3.77 7.57 7.57 0 0 1-1.32.52 4.27 4.27 0 0 1-1.14.18 1.16 1.16 0 0 1-.73-.2 1.28 1.28 0 0 1-.4-.8 6.58 6.58 0 0 1-.12-1.34 10.06 10.06 0 0 1 .03-.77 6.46 6.46 0 0 1 .1-.77q.14-.8.4-1.64a130.94 130.94 0 0 1 .5-1.62 40.72 40.72 0 0 0 .41-1.4 4.98 4.98 0 0 0 .2-1.03 5.94 5.94 0 0 0-2.23 1.27q-.98.88-1.5 1.97-.65 1.31-1.09 2.73-.44 1.41-.94 2.82L23 15.33q.25-.39.54-1a18.54 18.54 0 0 0 .58-1.36 46.27 46.27 0 0 0 .56-1.54 34.28 34.28 0 0 0 .49-1.55q.21-.74.34-1.38.13-.65.14-1.08l-.04-.06a257.02 257.02 0 0 0 .94-.49l.66-.33a1.82 1.82 0 0 1 .34-.15v.15l.02.12-.01.2-.03.2q.59-.56 1.26-.92a5.93 5.93 0 0 1 1.26-.51ZM66.2 12.2l.88.91a5.8 5.8 0 0 1-.53.83q-.31.4-.71.77-.4.36-.87.62a3.22 3.22 0 0 1-.98.36 5.42 5.42 0 0 1-.4.06 3.64 3.64 0 0 1-.38.02 3 3 0 0 1-1.46-.34q-.63-.34-.7-1.04v-.2a11.87 11.87 0 0 1 .08-1.22 54.35 54.35 0 0 1 .22-1.68 125.82 125.82 0 0 1 .26-1.76l.23-1.47-1.23-.55-3.22 8.05-1.7-.26.45-1 .75-1.6.8-1.74a159 159 0 0 0 .66-1.44q.21-.53.47-1.29.25-.76.47-1.51a25.2 25.2 0 0 0 .35-1.36 4.61 4.61 0 0 0 .13-.82l1.72.43q-.05.08-.07.17a.85.85 0 0 0-.02.18 1.25 1.25 0 0 0 .08.46 2.04 2.04 0 0 0 .22.41q.13.19.3.3.16.12.31.12.12 0 .23-.1a.67.67 0 0 0 .15-.39.37.37 0 0 1 .16-.22l.33-.2a1.98 1.98 0 0 1 .4-.13 1.53 1.53 0 0 1 .34-.05q.2 0 .21.08a2.1 2.1 0 0 1 .19.32q.08.18.08.4a.99.99 0 0 1-.08.4.9.9 0 0 1-.3.36q-.32.23-.55.76-.24.53-.4 1.21-.17.69-.25 1.47-.08.78-.08 1.54 0 .74.08 1.43.08.68.26 1.13.6-.12 1.05-.3a3.19 3.19 0 0 0 .81-.45q.36-.29.66-.69a6.35 6.35 0 0 0 .6-.98ZM51.2 8l.41 1.05a54.33 54.33 0 0 0-.89.54 10.25 10.25 0 0 1-.94.52q-.5.23-1.01.39-.52.15-1.04.15a3.53 3.53 0 0 1-.52-.04 2.17 2.17 0 0 1-.54-.15 63.05 63.05 0 0 1-1.23 1.78q-.65.9-1.23 1.63a13.55 13.55 0 0 1-1.07 1.2 2.02 2.02 0 0 1-.7.53.93.93 0 0 1-.22.02q-.36 0-.66-.25-.3-.24-.53-.67-.24-.43-.38-1.03-.13-.6-.15-1.3a.5.5 0 0 1-.02-.15v-.5a30.77 30.77 0 0 1 .13-2.24q.12-1.54.63-4.08l1.6.68q-.06.18-.16.87a40.44 40.44 0 0 0-.22 1.65 70.7 70.7 0 0 0-.2 2.02 23.63 23.63 0 0 0-.08 1.95 12.57 12.57 0 0 0 .03.9 3.8 3.8 0 0 0 .1.7 75.35 75.35 0 0 1 .77-1.03 50.38 50.38 0 0 0 .9-1.23l.86-1.24q.42-.6.7-1.05-.06-.14-.06-.3a2.85 2.85 0 0 1-.02-.35v-.4a14.14 14.14 0 0 1 .03-.88 6.5 6.5 0 0 1 .12-.9q.08-.43.25-.75.17-.3.46-.4a1.38 1.38 0 0 1 .62-.14 1.91 1.91 0 0 1 1.12.35q.5.35.5 1.01v.1a8.8 8.8 0 0 1-1.34 2.66h.04a3.2 3.2 0 0 0 .79-.16q.53-.15 1.13-.39a13.19 13.19 0 0 0 1.15-.52 4.29 4.29 0 0 0 .87-.55Zm6.2 3.26.71 1.4a43.81 43.81 0 0 1-.82.58l-.98.67a93.2 93.2 0 0 1-1.04.67 37.86 37.86 0 0 1-.95.6l-.76.43a2.08 2.08 0 0 1-.4.18.5.5 0 0 1-.16.02 3.1 3.1 0 0 1-.87-.17 9.65 9.65 0 0 1-1.09-.4q-.54-.25-1-.53-.46-.29-.62-.54a1.66 1.66 0 0 1-.16-.56 5.66 5.66 0 0 1-.05-.79 9.4 9.4 0 0 1 .04-.83 10.54 10.54 0 0 1 .1-.84 8.4 8.4 0 0 1 .16-.73 2.07 2.07 0 0 1 .2-.53 5.89 5.89 0 0 1 .44-.7q.29-.41.67-.87.38-.46.81-.93a11.68 11.68 0 0 1 .86-.85 5.89 5.89 0 0 1 .83-.62 1.6 1.6 0 0 1 .71-.27h.03q.01-.02.05-.02a.95.95 0 0 1 .63.28 2.76 2.76 0 0 1 .54.66q.24.4.38.83a2.53 2.53 0 0 1 .15.8 1.16 1.16 0 0 1-.02.25 3.04 3.04 0 0 1-.35.77q-.27.46-.6.9a10.88 10.88 0 0 1-.65.78 4.04 4.04 0 0 1-.47.46q-.12.1-.42.18a11.04 11.04 0 0 1-.7.18q-.4.09-.85.16l-.88.14-.12.68a16.63 16.63 0 0 1-.06.4.89.89 0 0 0 .24.43q.2.21.49.39a2.84 2.84 0 0 0 .65.28 2.56 2.56 0 0 0 .73.1h.17a.68.68 0 0 0 .16-.01q.36-.1.94-.45.59-.35 1.22-.8.64-.45 1.21-.93.58-.48.9-.85Zm-32.47-.37.59 1.25q-.69.8-1.38 1.44a16.48 16.48 0 0 1-1.32 1.12 7.7 7.7 0 0 1-1.15.73q-.53.26-.9.3-.04.02-.16.02a1.98 1.98 0 0 1-.78-.17 3.08 3.08 0 0 1-.76-.47 2.92 2.92 0 0 1-.58-.66q-.24-.36-.24-.71v-.04q.04-.39.24-1.33.15-.82.5-2.31a151.95 151.95 0 0 1 1.02-4l1.6.3q-.8 2.71-1.03 4.43-.24 1.72-.24 2.6v.44q0 .18.02.3a4.37 4.37 0 0 0 .04.23 17.14 17.14 0 0 0 1.5-.87 22.3 22.3 0 0 0 1.47-1.1 12.94 12.94 0 0 0 1.56-1.5Zm15.76 0 .59 1.25q-.68.8-1.38 1.44a16.48 16.48 0 0 1-1.32 1.12 7.7 7.7 0 0 1-1.15.73q-.52.26-.9.3-.04.02-.15.02a1.98 1.98 0 0 1-.78-.17 3.08 3.08 0 0 1-.77-.47 2.92 2.92 0 0 1-.58-.66q-.24-.36-.24-.71v-.04q.04-.39.24-1.33.16-.82.5-2.31a151.95 151.95 0 0 1 1.02-4l1.6.3q-.8 2.71-1.03 4.43-.24 1.72-.24 2.6v.44q0 .18.02.3a4.37 4.37 0 0 0 .04.23 17.14 17.14 0 0 0 1.5-.87 22.3 22.3 0 0 0 1.47-1.1 12.94 12.94 0 0 0 1.56-1.5Zm13.09-3.8q-.16 0-.42.24a4.94 4.94 0 0 0-.57.62 11.9 11.9 0 0 0-.63.89 8.35 8.35 0 0 0-.59 1.05 5.15 5.15 0 0 0-.17.4 13.85 13.85 0 0 0-.16.4q.5-.1 1.07-.24a3 3 0 0 0 .83-.32q.13-.1.3-.4.16-.29.31-.65a5.48 5.48 0 0 0 .24-.76q.1-.4.1-.7 0-.2-.08-.36a.25.25 0 0 0-.23-.16ZM22.19.73l1.4.24q-.45.52-.68 1.01a4.95 4.95 0 0 0-.33.86 3.82 3.82 0 0 0-.14.8l-1.52.12a4.7 4.7 0 0 1 .4-1.7 4.31 4.31 0 0 1 .87-1.33Zm15.76 0 1.4.24q-.44.52-.68 1.01a4.95 4.95 0 0 0-.33.86 3.82 3.82 0 0 0-.14.8l-1.52.12a4.7 4.7 0 0 1 .4-1.7 4.31 4.31 0 0 1 .87-1.33Zm8.63 7.12a55.89 55.89 0 0 0-.21.29 3.27 3.27 0 0 1 .1-.54 4.97 4.97 0 0 1 .18-.58 2.01 2.01 0 0 1 .25-.46q.13-.18.25-.18.04 0 .06.02.06.04.06.13a.97.97 0 0 1-.12.38 5.97 5.97 0 0 1-.27.5q-.14.24-.3.44Z" vector-effect="non-scaling-stroke" stroke-linecap="round" fill-rule="evenodd" font-size="12" stroke="#000" stroke-width=".94" fill="none" style="stroke:#000;stroke-width:.25mm;fill:none"/></svg>