<svg width="110.24" height="17.38" xmlns="http://www.w3.org/2000/svg"><path d="M15.86 16.17V1.34l-5.6 10.61h-.8L3.18 0h.8l5.9 11.21L15.75 0h.8v16.17h-.7Zm27.37 0L35.8 3.32v12.85h-.7V2.11h.84l8.11 14.06h-.8Zm60.85 0L96.64 3.32v12.85h-.7V2.11h.84l8.11 14.06h-.8Zm-55.92 0L40.05 2.11h.82l7.42 12.84V2.11h.7v14.06h-.83Zm60.85 0L100.9 2.11h.82l7.42 12.84V2.11h.7v14.06h-.83ZM.8 0l6.3 11.95h-.8L.7 1.34v14.83H0V0h.8Zm17.26 9.14a7.52 7.52 0 0 0 .61 3 7.8 7.8 0 0 0 1.65 2.47q1.04 1.04 2.47 1.65 1.43.61 3 .61a7.52 7.52 0 0 0 3-.61 7.8 7.8 0 0 0 2.47-1.65q1.03-1.04 1.65-2.47.62-1.43.62-3a7.52 7.52 0 0 0-.62-3 7.8 7.8 0 0 0-1.65-2.47q-1.04-1.03-2.47-1.65-1.43-.61-3-.61a7.52 7.52 0 0 0-3 .61 7.8 7.8 0 0 0-2.47 1.65q-1.03 1.04-1.65 2.47-.61 1.43-.61 3Zm32.4 0a7.52 7.52 0 0 0 .62 3 7.8 7.8 0 0 0 1.66 2.47q1.03 1.04 2.46 1.65 1.43.61 3 .61a7.52 7.52 0 0 0 3-.61 7.8 7.8 0 0 0 2.47-1.65q1.04-1.04 1.65-2.47.62-1.43.62-3a7.52 7.52 0 0 0-.62-3 7.8 7.8 0 0 0-1.65-2.47q-1.03-1.03-2.46-1.65-1.43-.61-3-.61a7.52 7.52 0 0 0-3.01.61 7.8 7.8 0 0 0-2.46 1.65q-1.04 1.04-1.66 2.47-.61 1.43-.61 3Zm28.45 0a7.52 7.52 0 0 0 .61 3 7.8 7.8 0 0 0 1.65 2.47q1.04 1.04 2.47 1.65 1.43.61 3 .61a7.52 7.52 0 0 0 3-.61 7.8 7.8 0 0 0 2.47-1.65q1.04-1.04 1.65-2.47.61-1.43.61-3a7.52 7.52 0 0 0-.61-3 7.8 7.8 0 0 0-1.65-2.47q-1.04-1.03-2.47-1.65-1.43-.61-3-.61a7.52 7.52 0 0 0-3 .61 7.8 7.8 0 0 0-2.47 1.65q-1.03 1.04-1.65 2.47-.61 1.43-.61 3ZM19.3 6.41a6.88 6.88 0 0 0-.55 2.73 6.88 6.88 0 0 0 .56 2.73 7.06 7.06 0 0 0 1.5 2.25 7.06 7.06 0 0 0 2.24 1.5 6.88 6.88 0 0 0 2.73.55 6.88 6.88 0 0 0 2.73-.56 7.06 7.06 0 0 0 2.25-1.5 7.06 7.06 0 0 0 1.5-2.24 6.88 6.88 0 0 0 .55-2.73 6.88 6.88 0 0 0-.55-2.73 7.06 7.06 0 0 0-1.5-2.25 7.06 7.06 0 0 0-2.25-1.5 6.88 6.88 0 0 0-2.73-.55 6.88 6.88 0 0 0-2.73.56 7.06 7.06 0 0 0-2.24 1.5 7.06 7.06 0 0 0-1.5 2.24Zm32.42 0a6.88 6.88 0 0 0-.56 2.73 6.88 6.88 0 0 0 .56 2.73 7.06 7.06 0 0 0 1.5 2.25 7.06 7.06 0 0 0 2.24 1.5 6.88 6.88 0 0 0 2.73.55 6.88 6.88 0 0 0 2.73-.56 7.06 7.06 0 0 0 2.25-1.5 7.06 7.06 0 0 0 1.5-2.24 6.88 6.88 0 0 0 .55-2.73 6.88 6.88 0 0 0-.55-2.73 7.06 7.06 0 0 0-1.5-2.25 7.06 7.06 0 0 0-2.25-1.5 6.88 6.88 0 0 0-2.73-.55 6.88 6.88 0 0 0-2.73.56 7.06 7.06 0 0 0-2.24 1.5 7.06 7.06 0 0 0-1.5 2.24Zm28.44 0a6.88 6.88 0 0 0-.56 2.73 6.88 6.88 0 0 0 .56 2.73 7.06 7.06 0 0 0 1.5 2.25 7.06 7.06 0 0 0 2.24 1.5 6.88 6.88 0 0 0 2.73.55 6.88 6.88 0 0 0 2.73-.56 7.06 7.06 0 0 0 2.25-1.5 7.06 7.06 0 0 0 1.5-2.24 6.88 6.88 0 0 0 .55-2.73 6.88 6.88 0 0 0-.55-2.73 7.06 7.06 0 0 0-1.5-2.25 7.06 7.06 0 0 0-2.25-1.5 6.88 6.88 0 0 0-2.73-.55 6.88 6.88 0 0 0-2.73.56 7.06 7.06 0 0 0-2.25 1.5 7.06 7.06 0 0 0-1.5 2.24Zm-60.7 2.73a6.18 6.18 0 0 0 .5 2.46 6.37 6.37 0 0 0 1.34 2.02 6.37 6.37 0 0 0 2.02 1.35 6.18 6.18 0 0 0 2.46.5 6.18 6.18 0 0 0 2.46-.5 6.37 6.37 0 0 0 2.02-1.35 6.37 6.37 0 0 0 1.35-2.02 6.18 6.18 0 0 0 .5-2.46 6.18 6.18 0 0 0-.5-2.46 6.37 6.37 0 0 0-1.35-2.02 6.37 6.37 0 0 0-2.02-1.35 6.18 6.18 0 0 0-2.46-.5 6.18 6.18 0 0 0-2.46.5 6.37 6.37 0 0 0-2.02 1.35 6.37 6.37 0 0 0-1.34 2.02 6.18 6.18 0 0 0-.5 2.46Zm32.4 0a6.18 6.18 0 0 0 .5 2.46 6.37 6.37 0 0 0 1.36 2.02 6.37 6.37 0 0 0 2.01 1.35 6.18 6.18 0 0 0 2.46.5 6.18 6.18 0 0 0 2.46-.5 6.37 6.37 0 0 0 2.02-1.35 6.37 6.37 0 0 0 1.35-2.02 6.18 6.18 0 0 0 .5-2.46 6.18 6.18 0 0 0-.5-2.46 6.37 6.37 0 0 0-1.35-2.02 6.37 6.37 0 0 0-2.02-1.35 6.18 6.18 0 0 0-2.46-.5 6.18 6.18 0 0 0-2.46.5 6.37 6.37 0 0 0-2.01 1.35 6.37 6.37 0 0 0-1.35 2.02 6.18 6.18 0 0 0-.5 2.46Zm28.44 0a6.18 6.18 0 0 0 .5 2.46 6.37 6.37 0 0 0 1.35 2.02 6.37 6.37 0 0 0 2.02 1.35 6.18 6.18 0 0 0 2.46.5 6.18 6.18 0 0 0 2.46-.5 6.37 6.37 0 0 0 2.02-1.35 6.37 6.37 0 0 0 1.35-2.02 6.18 6.18 0 0 0 .5-2.46 6.18 6.18 0 0 0-.5-2.46 6.37 6.37 0 0 0-1.35-2.02 6.37 6.37 0 0 0-2.02-1.35 6.18 6.18 0 0 0-2.46-.5 6.18 6.18 0 0 0-2.46.5 6.37 6.37 0 0 0-2.02 1.35 6.37 6.37 0 0 0-1.34 2.02 6.18 6.18 0 0 0-.5 2.46ZM20.6 6.96a5.5 5.5 0 0 0-.44 2.18 5.5 5.5 0 0 0 .44 2.18 5.65 5.65 0 0 0 1.2 1.8 5.65 5.65 0 0 0 1.8 1.2 5.5 5.5 0 0 0 2.18.45 5.5 5.5 0 0 0 2.18-.45 5.65 5.65 0 0 0 1.8-1.2 5.65 5.65 0 0 0 1.2-1.8 5.5 5.5 0 0 0 .45-2.18 5.5 5.5 0 0 0-.45-2.18 5.65 5.65 0 0 0-1.2-1.8 5.65 5.65 0 0 0-1.8-1.2 5.5 5.5 0 0 0-2.18-.44 5.5 5.5 0 0 0-2.18.44 5.65 5.65 0 0 0-1.8 1.2 5.65 5.65 0 0 0-1.2 1.8Zm32.41 0a5.5 5.5 0 0 0-.44 2.18 5.5 5.5 0 0 0 .44 2.18 5.65 5.65 0 0 0 1.2 1.8 5.65 5.65 0 0 0 1.8 1.2 5.5 5.5 0 0 0 2.18.45 5.5 5.5 0 0 0 2.19-.45 5.65 5.65 0 0 0 1.8-1.2 5.65 5.65 0 0 0 1.2-1.8 5.5 5.5 0 0 0 .44-2.18 5.5 5.5 0 0 0-.45-2.18 5.65 5.65 0 0 0-1.2-1.8 5.65 5.65 0 0 0-1.8-1.2 5.5 5.5 0 0 0-2.18-.44 5.5 5.5 0 0 0-2.18.44 5.65 5.65 0 0 0-1.8 1.2 5.65 5.65 0 0 0-1.2 1.8Zm28.44 0a5.5 5.5 0 0 0-.44 2.18 5.5 5.5 0 0 0 .44 2.18 5.65 5.65 0 0 0 1.2 1.8 5.65 5.65 0 0 0 1.8 1.2 5.5 5.5 0 0 0 2.18.45 5.5 5.5 0 0 0 2.18-.45 5.65 5.65 0 0 0 1.8-1.2 5.65 5.65 0 0 0 1.2-1.8 5.5 5.5 0 0 0 .45-2.18 5.5 5.5 0 0 0-.45-2.18 5.65 5.65 0 0 0-1.2-1.8 5.65 5.65 0 0 0-1.8-1.2 5.5 5.5 0 0 0-2.18-.44 5.5 5.5 0 0 0-2.18.44 5.65 5.65 0 0 0-1.8 1.2 5.65 5.65 0 0 0-1.2 1.8Zm-34.93 9.21L38.4 2.11h.83l8.13 14.06h-.84Zm60.85 0L99.25 2.11h.83l8.13 14.06h-.84Zm-62.49 0L36.74 2.11h.82l8.14 14.06h-.82Zm60.85 0L97.6 2.11h.82l8.14 14.06h-.82ZM20.86 9.14a4.83 4.83 0 0 0 .66 2.47q.66 1.13 1.8 1.8a4.83 4.83 0 0 0 2.46.65 4.83 4.83 0 0 0 2.47-.66q1.14-.66 1.8-1.79a4.83 4.83 0 0 0 .65-2.47 4.83 4.83 0 0 0-.66-2.47q-.65-1.13-1.79-1.8a4.83 4.83 0 0 0-2.47-.65 4.83 4.83 0 0 0-2.47.66q-1.13.66-1.8 1.79a4.83 4.83 0 0 0-.65 2.47Zm32.41 0a4.83 4.83 0 0 0 .66 2.47q.66 1.13 1.8 1.8a4.83 4.83 0 0 0 2.46.65 4.83 4.83 0 0 0 2.47-.66q1.14-.66 1.8-1.79a4.83 4.83 0 0 0 .66-2.47 4.83 4.83 0 0 0-.66-2.47q-.66-1.13-1.8-1.8a4.83 4.83 0 0 0-2.47-.65 4.83 4.83 0 0 0-2.47.66q-1.13.66-1.79 1.79a4.83 4.83 0 0 0-.66 2.47Zm28.44 0a4.83 4.83 0 0 0 .66 2.47q.66 1.13 1.79 1.8a4.83 4.83 0 0 0 2.47.65 4.83 4.83 0 0 0 2.47-.66q1.13-.66 1.8-1.79a4.83 4.83 0 0 0 .65-2.47 4.83 4.83 0 0 0-.66-2.47q-.66-1.13-1.79-1.8a4.83 4.83 0 0 0-2.47-.65 4.83 4.83 0 0 0-2.47.66q-1.13.66-1.8 1.79a4.83 4.83 0 0 0-.65 2.47ZM2.39 0l6.3 11.95h-.8L1.58 0h.8Zm20.4 6.16a4.07 4.07 0 0 0-1.23 2.98 4.07 4.07 0 0 0 1.24 2.98 4.06 4.06 0 0 0 2.98 1.24 4.06 4.06 0 0 0 2.98-1.24A4.07 4.07 0 0 0 30 9.14a4.07 4.07 0 0 0-1.23-2.98 4.06 4.06 0 0 0-2.99-1.24 4.06 4.06 0 0 0-2.98 1.24Zm32.42 0a4.07 4.07 0 0 0-1.23 2.98 4.07 4.07 0 0 0 1.23 2.98 4.06 4.06 0 0 0 2.98 1.24 4.06 4.06 0 0 0 2.99-1.24 4.07 4.07 0 0 0 1.23-2.98 4.07 4.07 0 0 0-1.23-2.98 4.06 4.06 0 0 0-2.99-1.24 4.06 4.06 0 0 0-2.98 1.24Zm28.44 0a4.07 4.07 0 0 0-1.24 2.98 4.07 4.07 0 0 0 1.24 2.98 4.06 4.06 0 0 0 2.98 1.24 4.06 4.06 0 0 0 2.98-1.24 4.07 4.07 0 0 0 1.24-2.98 4.07 4.07 0 0 0-1.24-2.98 4.06 4.06 0 0 0-2.98-1.24 4.06 4.06 0 0 0-2.98 1.24Zm-69.2 10.01V4.92l.7-1.34v12.6h-.7Zm-13.04 0V3.67l.7 1.34v11.16h-.7ZM14.97 0 9.74 9.94l-.4-.73L14.18 0h.8ZM36.5 16.17V5.25l.7 1.3v9.62h-.7Zm60.85 0V5.25l.7 1.3v9.62h-.7ZM47.6 2.11v10.82l-.7-1.2V2.12h.7Zm60.85 0v10.82l-.7-1.2V2.12h.7Zm-30.72.7H67.19v-.7h10.54v.7Zm0 1.4H67.19v-.7h10.54v.7Zm0 1.42H67.19v-.7h10.54v.7Zm-54.42 6q-1.03-1.03-1.03-2.49a3.39 3.39 0 0 1 1.03-2.49q1.03-1.03 2.48-1.03a3.39 3.39 0 0 1 2.49 1.04q1.03 1.03 1.03 2.48a3.39 3.39 0 0 1-1.03 2.49q-1.03 1.03-2.49 1.03a3.39 3.39 0 0 1-2.48-1.03Zm32.4 0q-1.02-1.03-1.02-2.49a3.39 3.39 0 0 1 1.03-2.49q1.03-1.03 2.48-1.03a3.39 3.39 0 0 1 2.49 1.04q1.03 1.03 1.03 2.48a3.39 3.39 0 0 1-1.03 2.49q-1.03 1.03-2.49 1.03a3.39 3.39 0 0 1-2.48-1.03Zm28.45 0Q83.1 10.6 83.1 9.14a3.39 3.39 0 0 1 1.04-2.49q1.03-1.03 2.48-1.03a3.39 3.39 0 0 1 2.49 1.04q1.03 1.03 1.03 2.48a3.39 3.39 0 0 1-1.03 2.49q-1.03 1.03-2.49 1.03a3.39 3.39 0 0 1-2.48-1.03Zm-14.16 4.54V6.01h.7v10.16H70Zm4.22 0V6.01h.7v10.16h-.7Zm-1.4 0V6.01h.7v10.16h-.7Zm-1.41 0V6.01h.7v10.16h-.7Zm-58.35 0v-8.6l.7-1.32v9.92h-.7Zm-10.24 0V6.35l.7 1.33v8.5h-.7ZM13.38 0 8.93 8.4l-.41-.73L12.58 0h.8Zm10.41 7.15a2.7 2.7 0 0 0-.82 2q0 1.15.82 1.98a2.7 2.7 0 0 0 2 .82q1.15 0 1.98-.82a2.7 2.7 0 0 0 .82-1.99q0-1.16-.82-1.99a2.7 2.7 0 0 0-1.99-.82q-1.16 0-1.99.82Zm32.42 0a2.7 2.7 0 0 0-.83 2q0 1.15.83 1.98a2.7 2.7 0 0 0 1.98.82q1.16 0 2-.82A2.7 2.7 0 0 0 61 9.14q0-1.16-.83-1.99a2.7 2.7 0 0 0-1.99-.82q-1.16 0-1.98.82Zm28.43 0a2.7 2.7 0 0 0-.82 2q0 1.15.82 1.98a2.7 2.7 0 0 0 2 .82q1.15 0 1.98-.82a2.7 2.7 0 0 0 .82-1.99q0-1.16-.82-1.99a2.7 2.7 0 0 0-1.99-.82q-1.16 0-1.99.82ZM46.18 2.11v8.39l-.7-1.28V2.1h.7ZM37.9 16.17V7.78l.7 1.28v7.11h-.7Zm69.13-14.06v8.39l-.7-1.28V2.1h.7Zm-8.28 14.06V7.78l.7 1.28v7.11h-.7Zm-87.1 0v-5.9l.7-1.32v7.22h-.7Zm-7.43 0V9.02l.7 1.33v5.82h-.7Z" vector-effect="non-scaling-stroke" stroke-linecap="round" fill-rule="evenodd" font-size="12" stroke="#000" stroke-width=".94" fill="none" style="stroke:#000;stroke-width:.25mm;fill:none"/></svg>