<svg width="104.86" height="14.67" xmlns="http://www.w3.org/2000/svg"><path d="M13.46 0h.34v14h-.4V.86L7.02 12.02h-.24L.4.9V14H0V0h.34L6.9 11.48 13.46 0Zm26.38 7.9V14h-.4V7.9q0-1.9-.97-2.91-.97-1.01-2.75-1.01-2.02 0-3.19 1.21t-1.17 3.19V14h-.4V3.66h.4v2.76q.48-1.32 1.6-2.07 1.12-.75 2.74-.75 1.94 0 3.04 1.11t1.1 3.19Zm10.58 4.74.24-.32q.6.58 1.61.97 1.01.39 2.19.39 1.76 0 2.6-.61.84-.61.84-1.69 0-.78-.45-1.23-.45-.45-1.1-.66-.65-.21-1.79-.43-1.22-.22-1.97-.47-.75-.25-1.26-.8t-.51-1.53q0-1.12.93-1.89.93-.77 2.73-.77.96 0 1.9.29t1.52.77l-.24.32q-.6-.48-1.44-.74t-1.74-.26q-1.62 0-2.43.63t-.81 1.65q0 .82.46 1.29.46.47 1.14.69.68.22 1.8.42 1.22.24 1.94.48t1.22.77q.5.53.5 1.47 0 1.22-.98 1.95t-2.86.73q-1.24 0-2.34-.4-1.1-.4-1.7-1.02ZM95 7.22V14h-.4v-2.2q-.5 1.06-1.51 1.66-1.01.6-2.43.6-1.72 0-2.69-.79T87 11.16q0-1.24.87-2.01.87-.77 2.81-.77h3.92V7.24q0-1.62-.83-2.44-.83-.82-2.45-.82-1.12 0-2.09.39-.97.39-1.67 1.05l-.28-.28q.74-.72 1.8-1.13 1.06-.41 2.22-.41 1.8 0 2.75.93T95 7.22Zm-25.3 1.5v.1h-9.2q0 1.4.62 2.51.62 1.11 1.71 1.73 1.09.62 2.45.62 1.06 0 1.99-.41.93-.41 1.53-1.19l.28.28q-.68.82-1.68 1.26-1 .44-2.12.44-1.48 0-2.65-.67t-1.84-1.87q-.67-1.2-.67-2.7 0-1.5.62-2.69t1.71-1.86q1.09-.67 2.45-.67 1.34 0 2.44.66 1.1.66 1.73 1.82.63 1.16.63 2.64Zm-20.98 4.32.28.28q-.34.36-.89.55-.55.19-1.13.19-1.2 0-1.85-.69-.65-.69-.65-1.85V4.04h-2v-.38h2V1.4h.4v2.26h3.5v.38h-3.5v7.38q0 1.1.54 1.68.54.58 1.58.58t1.72-.64Zm55.16 0 .28.28q-.34.36-.89.55-.55.19-1.13.19-1.2 0-1.85-.69-.65-.69-.65-1.85V4.04h-2v-.38h2V1.4h.4v2.26h3.5v.38h-3.5v7.38q0 1.1.54 1.68.54.58 1.58.58t1.72-.64Zm-81.32 1.02q-1.42 0-2.57-.67t-1.8-1.87q-.65-1.2-.65-2.7 0-1.5.65-2.69t1.8-1.86q1.15-.67 2.57-.67t2.57.67q1.15.67 1.8 1.86.65 1.19.65 2.69t-.65 2.7q-.65 1.2-1.8 1.87-1.15.67-2.57.67ZM77.54 3.6V4h-.12q-1.86 0-2.9 1.19-1.04 1.19-1.04 3.25V14h-.4V3.66h.4v2.68q.44-1.32 1.48-2.03Q76 3.6 77.54 3.6Zm7.46 0V4h-.12q-1.86 0-2.9 1.19-1.04 1.19-1.04 3.25V14h-.4V3.66h.4v2.68q.44-1.32 1.48-2.03Q83.46 3.6 85 3.6ZM22.56 13.68q1.3 0 2.36-.62 1.06-.62 1.66-1.73.6-1.11.6-2.51 0-1.4-.6-2.51-.6-1.11-1.66-1.72-1.06-.61-2.36-.61-1.3 0-2.36.61-1.06.61-1.66 1.72-.6 1.11-.6 2.51 0 1.4.6 2.51.6 1.11 1.66 1.73 1.06.62 2.36.62ZM60.5 8.44h8.82q-.06-1.26-.66-2.28-.6-1.02-1.58-1.6-.98-.58-2.18-.58-1.2 0-2.18.58-.98.58-1.57 1.6-.59 1.02-.65 2.28Zm34.1 2.6V8.76h-3.94q-1.68 0-2.47.64-.79.64-.79 1.74 0 1.18.86 1.86.86.68 2.4.68 2.88 0 3.94-2.64Z" vector-effect="non-scaling-stroke" stroke-linecap="round" fill-rule="evenodd" font-size="12" stroke="#000" stroke-width=".94" fill="none" style="stroke:#000;stroke-width:.25mm;fill:none"/></svg>