<svg width="47.45" height="20.1" xmlns="http://www.w3.org/2000/svg"><path d="m20 17.74.06.2a1.92 1.92 0 0 1-.72.32q-.39.1-.78.1-1.33 0-2.37-.4t-1.83-1.1q-.79-.69-1.34-1.62-.55-.94-.92-2.03a14.4 14.4 0 0 1-.56-2.26 22.43 22.43 0 0 1-.26-2.36 26.68 26.68 0 0 1-.05-1.55 25 25 0 0 1 .01-.75q.04-1.13.14-2.1a5.95 5.95 0 0 0-.43.84q-.26.58-.56 1.35a59.07 59.07 0 0 0-.64 1.68 200.47 200.47 0 0 0-.66 1.84l-.64 1.83a109.32 109.32 0 0 0-.54 1.62l-.42 1.25q-.17.51-.21.69a12.93 12.93 0 0 1-.1.29l-.16.34a1.2 1.2 0 0 1-.22.28q-.12.12-.28.12-.17 0-.29-.14a1.17 1.17 0 0 1-.19-.34l-.12-.39-.06-.31a16.8 16.8 0 0 1-.1-1.04q-.06-.62-.1-1.38-.03-.77-.04-1.63a297.88 297.88 0 0 1-.04-1.74 156.6 156.6 0 0 1-.02-1.72 1885.16 1885.16 0 0 0 0-1.58 201.8 201.8 0 0 1-.01-1.32v-.94q-.22.49-.52 1.24-.3.75-.64 1.7a113.52 113.52 0 0 0-.72 2q-.38 1.09-.75 2.23-.36 1.14-.7 2.3a51.22 51.22 0 0 0-.6 2.26l-.07.24a1.5 1.5 0 0 1-.11.27.81.81 0 0 1-.18.22q-.1.09-.24.09-.14 0-.25-.09a.8.8 0 0 1-.18-.2q-.07-.13-.12-.27-.04-.14-.05-.26-.05-.24-.08-.54a16.34 16.34 0 0 1-.06-.6 44.26 44.26 0 0 1-.05-.6 49.22 49.22 0 0 0-.04-.55q-.1-1.34-.15-2.65A78.56 78.56 0 0 1 0 7.94a76.24 76.24 0 0 1 .04-2.6 80.36 80.36 0 0 1 .14-2.6q.02-.38.08-.86.06-.47.23-.9a1.82 1.82 0 0 1 .5-.7A1.32 1.32 0 0 1 1.9 0a.42.42 0 0 1 .23.07.24.24 0 0 1 .1.21v.1a957.52 957.52 0 0 1-.18 1.17 122.7 122.7 0 0 1-.19 1.19q-.23 1.95-.39 3.9t-.16 3.92a39.13 39.13 0 0 0 .03 1.52 23.98 23.98 0 0 0 .1 1.52 1021.79 1021.79 0 0 0 1.2-3.7 754.16 754.16 0 0 1 .9-2.83 294.6 294.6 0 0 0 .65-2.06l.46-1.43a91.86 91.86 0 0 0 .3-.93l.17-.53a14.43 14.43 0 0 0 .1-.28 2.02 2.02 0 0 1 .05-.16 2.04 2.04 0 0 1 .4-.6.87.87 0 0 1 .66-.26.69.69 0 0 1 .44.14q.17.14.27.34a1.53 1.53 0 0 1 .13.45 3.26 3.26 0 0 1 .04.45q-.02 1.51-.1 3A232.6 232.6 0 0 0 7 8.12a78.4 78.4 0 0 0-.05 2.63 76.77 76.77 0 0 0 0 .26 33.53 33.53 0 0 0 .13 2.86 187.17 187.17 0 0 0 .72-2.17 526.02 526.02 0 0 0 .63-1.95 738.2 738.2 0 0 1 .58-1.79 64.99 64.99 0 0 1 .58-1.7l.62-1.68q.32-.84.7-1.73a5.59 5.59 0 0 1 .2-.35q.11-.18.25-.33.13-.15.31-.24.18-.1.4-.1a.61.61 0 0 1 .47.2 1.33 1.33 0 0 1 .27.46 2.55 2.55 0 0 1 .12.57 5.28 5.28 0 0 1 .03.5q0 .9-.06 2-.06 1.08-.08 2.25a37.66 37.66 0 0 0-.01.79 39.1 39.1 0 0 0 .03 1.59 15.76 15.76 0 0 0 .27 2.32q.21 1.13.63 2.1a5.53 5.53 0 0 0 1.13 1.7q.72.73 1.77 1.15a6.8 6.8 0 0 0 2.52.42 2.7 2.7 0 0 0 .43-.03 1.62 1.62 0 0 0 .41-.12Zm15.71-5.77.06.03q-.21.37-.5.68-.29.31-.64.54a3 3 0 0 1-.74.37q-.4.13-.83.13a2.73 2.73 0 0 1-1.12-.21 2.62 2.62 0 0 1-.84-.58 3.26 3.26 0 0 1-.58-.86q-.24-.49-.37-1.02a7.54 7.54 0 0 1-.2-1.09q-.06-.55-.06-1.06a12.19 12.19 0 0 1 .04-.96 14.38 14.38 0 0 1 .12-1.01h-1.58q-.24-.01-.44-.08a.86.86 0 0 1-.34-.2.54.54 0 0 1-.14-.4.45.45 0 0 1 .05-.24.34.34 0 0 1 .15-.13.7.7 0 0 1 .21-.06 2.09 2.09 0 0 1 .25-.02 10.76 10.76 0 0 1 .7.05 102.08 102.08 0 0 0 1.32.1q.24-1.14.62-2.26.39-1.11.88-2.03h.13a32.47 32.47 0 0 0-.55 2.15 19.8 19.8 0 0 0-.35 2.2q.71.05 1.47.08a32.8 32.8 0 0 0 1.48.04 61.28 61.28 0 0 0 1.73-.02 23.38 23.38 0 0 0 1.04-.05 8.66 8.66 0 0 0 .67-.08l.04.16a20.16 20.16 0 0 1-1.34.26 31.05 31.05 0 0 1-1.6.22q-.85.1-1.76.16a57.14 57.14 0 0 1-1.8.1 3.97 3.97 0 0 0-.02.4v.4a13.47 13.47 0 0 0 .04 1.03q.05.57.16 1.14.12.57.32 1.11.2.55.53.96a2.58 2.58 0 0 0 .78.67q.46.25 1.09.25a2.13 2.13 0 0 0 1.04-.25q.46-.25.88-.63Zm5.05.87-.1-.1a4.47 4.47 0 0 0 .66-1.09q.24-.58.39-1.16.14-.57.39-1.04.24-.47.57-.92a3.28 3.28 0 0 1 .7-.74 1.47 1.47 0 0 1 .9-.29 1.58 1.58 0 0 1 .74.18q.34.17.6.46.26.29.4.65a1.93 1.93 0 0 1 .15.73 2.25 2.25 0 0 1-.13.75 4.3 4.3 0 0 1-.34.74 4.96 4.96 0 0 1-.47.68 5.76 5.76 0 0 1-.52.55 3.66 3.66 0 0 1 1.67 1.44q.55.93.55 2.12a4.37 4.37 0 0 1-.26 1.53q-.25.7-.75 1.2-.49.5-1.2.79-.72.28-1.61.28a3.74 3.74 0 0 1-.5-.04q-.3-.05-.61-.14-.31-.1-.54-.26-.23-.15-.23-.38 0-.16.12-.23.13-.07.26-.07a.51.51 0 0 1 .32.12 11.87 11.87 0 0 0 .34.25 2.63 2.63 0 0 0 .45.25 1.58 1.58 0 0 0 .65.12q.6 0 1.04-.25a2.19 2.19 0 0 0 .7-.66 2.8 2.8 0 0 0 .4-.9 4.02 4.02 0 0 0 .13-1 5.04 5.04 0 0 0-.12-1.12 2.78 2.78 0 0 0-.36-.87q-.25-.4-.63-.72a6.19 6.19 0 0 0-.94-.64 1.42 1.42 0 0 0-.06-.07.12.12 0 0 1-.04-.09q0-.04.21-.29.22-.24.48-.62.26-.37.48-.82.21-.45.21-.88a1.98 1.98 0 0 0-.06-.48q-.06-.26-.2-.47a1.2 1.2 0 0 0-.3-.36.7.7 0 0 0-.44-.14.93.93 0 0 0-.55.17q-.23.16-.45.45-.22.28-.4.67a10 10 0 0 0-.32.84 4.3 4.3 0 0 1-.4.88q-.27.43-.98 1Zm-10.84-.88L30 12a8.51 8.51 0 0 1-.4.68q-.2.32-.47.56a2.14 2.14 0 0 1-.6.4 1.87 1.87 0 0 1-.76.14q-.49 0-.84-.24a2.12 2.12 0 0 1-.6-.63q-.25-.4-.4-.9a9.99 9.99 0 0 1-.25-1.04 11.92 11.92 0 0 1-.14-1.04l-.1-.92a2.36 2.36 0 0 0-.44.56 10.25 10.25 0 0 0-.54.97 14.23 14.23 0 0 0-.52 1.21q-.25.65-.4 1.29a1.51 1.51 0 0 1-.1.28q-.06.15-.15.27a.88.88 0 0 1-.22.2q-.13.09-.29.09a.4.4 0 0 1-.36-.18q-.11-.17-.16-.4a19.18 19.18 0 0 1-.4-2.37 22.95 22.95 0 0 1-.11-2.27 1.12 1.12 0 0 1 .1-.47q.08-.2.24-.33a1.01 1.01 0 0 1 .37-.2q.22-.06.45-.06h.1a.5.5 0 0 1 .11.01l.1.05a.07.07 0 0 1 .03.06.1.1 0 0 1 0 .02 12.83 12.83 0 0 0-.24 2.5 13.28 13.28 0 0 0 0 .1q0 1.32.14 2.54.1-.49.31-1.1a14.98 14.98 0 0 1 .49-1.25q.28-.63.6-1.2a5.95 5.95 0 0 1 .68-.97q.16-.18.33-.32a.68.68 0 0 1 .43-.13.47.47 0 0 1 .24.06q.1.06.16.15a.67.67 0 0 1 .1.2 1.96 1.96 0 0 1 .05.22 12.29 12.29 0 0 1 .1.73 27.67 27.67 0 0 0 .12.96 16.37 16.37 0 0 0 .18 1.02 5.58 5.58 0 0 0 .28.93 2.3 2.3 0 0 0 .4.67.72.72 0 0 0 .55.27q.27 0 .52-.1a2.34 2.34 0 0 0 .47-.27 2.81 2.81 0 0 0 .42-.37q.2-.21.35-.42Zm-13.08-4.2.11.08a3.83 3.83 0 0 0-.64 1.06q-.24.57-.24 1.22a3.38 3.38 0 0 0 .15.95 3.1 3.1 0 0 0 .41.88 2.26 2.26 0 0 0 .68.66 1.74 1.74 0 0 0 .94.25 1.46 1.46 0 0 0 .63-.13q.29-.14.51-.37.22-.24.35-.54.13-.3.13-.62 0-.3-.09-.6a2.28 2.28 0 0 0-.26-.56q-.16-.26-.4-.47-.23-.21-.5-.35a1.65 1.65 0 0 0-.3-.12 19.05 19.05 0 0 1-.31-.08.94.94 0 0 1-.15-.04.98.98 0 0 1-.14-.06.36.36 0 0 1-.12-.09.22.22 0 0 1-.05-.15.48.48 0 0 1 .13-.32 1.38 1.38 0 0 1 .3-.26q.17-.11.37-.17a1.13 1.13 0 0 1 .34-.07 1.55 1.55 0 0 1 .88.26 2.22 2.22 0 0 1 .63.64q.26.4.39.86a3.44 3.44 0 0 1 .12.9q0 .68-.22 1.27-.23.59-.64 1.02a2.93 2.93 0 0 1-.98.67q-.57.24-1.26.24-.62 0-1.11-.23a2.6 2.6 0 0 1-.85-.62q-.35-.39-.53-.91a3.32 3.32 0 0 1-.19-1.12 3.13 3.13 0 0 1 .14-.95q.14-.45.4-.83.25-.39.6-.71a5.4 5.4 0 0 1 .77-.6Zm24.56 4.2.08.04q-.26.38-.62.7-.35.32-.78.55-.42.24-.89.38a3.28 3.28 0 0 1-.93.13 4.34 4.34 0 0 1-1.24-.17 2.85 2.85 0 0 1-1-.52 2.43 2.43 0 0 1-.68-.88q-.24-.54-.24-1.25a3.33 3.33 0 0 1 .26-1.31q.26-.61.7-1.07a3.38 3.38 0 0 1 1.08-.72 3.31 3.31 0 0 1 1.32-.26q.33 0 .62.1.29.09.5.27.22.18.34.44.12.26.12.6a1.52 1.52 0 0 1-.17.73 1.87 1.87 0 0 1-.44.55q-.27.23-.62.39a4.52 4.52 0 0 1-.72.25q-.38.1-.74.14a5.65 5.65 0 0 1-.67.05h-.23a2.04 2.04 0 0 0 .7 1.35 2.45 2.45 0 0 0 1.59.47 4.05 4.05 0 0 0 1.41-.25q.69-.26 1.25-.7Zm-4.98-1.38v.22h.24q.35 0 .72-.1a2.18 2.18 0 0 0 .67-.34 1.87 1.87 0 0 0 .5-.54 1.39 1.39 0 0 0 .19-.74 1.2 1.2 0 0 0-.17-.66.65.65 0 0 0-.6-.26 1.07 1.07 0 0 0-.72.25q-.3.26-.48.64a3.2 3.2 0 0 0-.27.8 3.8 3.8 0 0 0-.08.73Z" vector-effect="non-scaling-stroke" stroke-linecap="round" fill-rule="evenodd" font-size="12" stroke="#000" stroke-width=".94" fill="none" style="stroke:#000;stroke-width:.25mm;fill:none"/></svg>