<svg width="132.99" height="16.26" xmlns="http://www.w3.org/2000/svg"><path d="M1.19 15.92h-.9q-.28 0-.28-.28v-14q0-.42.07-.49t.49-.07h.92q.26 0 .35.05.09.05.19.23L9.57 14.3V1.36q0-.28.28-.28h.88q.28 0 .28.28v14q0 .42-.07.5-.07.06-.5.06H9.24q-.16 0-.23-.04t-.17-.2L1.47 2.96v12.68q0 .28-.28.28Zm48.56-.28v-8q0-.84-.02-1.33-.02-.49-.06-.93 0-.28.28-.28h.74q.28 0 .28.28v1.08q.46-.74 1.24-1.17.78-.43 1.92-.43 1.2 0 2.1.6.9.58 1.1 1.72.42-1.14 1.35-1.73.93-.59 2.15-.59.78 0 1.4.28.64.28 1.09.77.45.5.69 1.15.24.66.24 1.4v7.18q0 .28-.28.28h-.76q-.28 0-.28-.26V8.74q0-2.74-2.3-2.74-.7 0-1.25.31t-.94.85q-.4.54-.58 1.26a5.34 5.34 0 0 0-.17 1.37 6.07 6.07 0 0 0 0 .15v5.7q0 .28-.28.28h-.8q-.28 0-.28-.28v-6.9Q56.33 6 54 6q-1.36 0-2.14.88t-.78 2.32v6.44q0 .28-.28.28h-.78q-.28 0-.28-.28Zm30.24-7.72h4.92q.42 0 .49.07t.07.5v6.33q0 .22-.13.38t-.3.24q-.95.36-2 .55-1.05.2-2.2.2-1.65 0-3.06-.52-1.41-.5-2.43-1.48-1.02-.97-1.6-2.4-.56-1.43-.56-3.27 0-1.68.53-3.08.53-1.4 1.52-2.42t2.4-1.59q1.43-.57 3.2-.57 1.13 0 1.96.1.83.1 1.77.4a.3.3 0 0 1 .25.3.54.54 0 0 1-.01.1l-.1.74a.18.18 0 0 1-.18.2.43.43 0 0 1-.12-.02q-.9-.34-1.72-.45-.82-.1-1.84-.1-1.42 0-2.57.46-1.15.47-1.96 1.31-.81.84-1.24 2.02-.43 1.18-.43 2.6 0 1.54.46 2.74.46 1.2 1.29 2.01.83.81 1.96 1.23 1.13.42 2.49.42 2.22 0 3.16-.54v-5.2h-4.02q-.28 0-.28-.28v-.7q0-.28.28-.28Zm37.38 1.54v6.18q0 .28-.28.28h-.8q-.28 0-.28-.28V9.48q0-.96-.17-1.63-.17-.67-.5-1.08-.31-.4-.77-.59-.46-.18-1.02-.18a3.64 3.64 0 0 0-2.51.78q-.87.78-.87 2.16v6.7q0 .28-.28.28h-.8q-.28 0-.28-.28V.28q0-.28.28-.28h.8q.28 0 .28.28v5.8q.56-.64 1.39-.93.83-.29 2.07-.29 1.94 0 2.84 1.14.9 1.14.9 3.46Zm-71.44 6.46h-.72q-.28 0-.28-.28v-1.66q-.52 1.2-1.4 1.73-.86.53-2.18.53-3.74 0-3.74-4.18V5.38q0-.28.28-.28h.8q.28 0 .28.28v6.32q0 3.4 2.6 3.4.76 0 1.37-.33.6-.33 1.03-.9.42-.57.64-1.33a5.23 5.23 0 0 0 .2-1.46 5.86 5.86 0 0 0 0-.14V5.38q0-.28.28-.28h.8q.28 0 .28.28V14.6l.04 1.04q0 .28-.28.28Zm-11.88-6.9v6.62q0 .28-.28.28h-.8q-.28 0-.28-.28v-6.3q0-1.84-.66-2.6-.66-.78-1.86-.78-1.62 0-2.47.9-.85.9-.85 2.52v6.26q0 .28-.28.28h-.8q-.28 0-.28-.28v-8l-.01-1.34q-.01-.48-.05-.92a.34.34 0 0 1 0-.05.2.2 0 0 1 .07-.16q.09-.07.2-.07h.73q.28 0 .28.28v1.1q.56-.86 1.35-1.26t2.17-.4q1.9 0 2.86 1.1t.96 3.1ZM14.77 6.68v-.76q0-.28.28-.42.7-.38 1.49-.53.79-.15 1.73-.15 2 0 2.92.95.92.95.92 2.87v5.02q0 .6.02 1.07.02.47.06.91 0 .28-.28.28h-.72q-.28 0-.28-.28V14.1q-.42 1.02-1.41 1.58-1 .56-2.15.56-2.02 0-2.96-1.18-.32-.4-.48-.93-.16-.53-.16-1.05 0-1.22.57-2.1.57-.88 1.75-1.32 1.44-.52 4.42-.52h.26v-.6q0-1.26-.57-1.92-.57-.66-1.91-.66-.9 0-1.7.2-.8.18-1.52.62-.1.06-.2.03-.08-.03-.08-.13Zm87.68 5.96V6.26h-1.88q-.28 0-.28-.28v-.6q0-.28.28-.28h1.88V2.4q0-.3.26-.3h.84q.26 0 .26.3v2.7h2.22q.28 0 .28.28v.6q0 .28-.28.28h-2.22v7.06q0 1.78 1.44 1.78.56 0 1.26-.24.1-.04.19 0t.09.16l.04.52q.04.28-.24.4-.84.3-1.66.3-1.62 0-2.14-1.06-.34-.72-.34-2.54Zm30.54-7.16-.06.64q-.04.24-.3.18-.52-.16-1-.23T130.57 6q-1.02 0-1.8.33-.76.33-1.28.93-.52.6-.78 1.43t-.26 1.81q0 .9.27 1.72t.78 1.45q.5.63 1.24 1 .73.37 1.67.37.7 0 1.16-.06.46-.06 1.04-.22a.55.55 0 0 1 .14-.02.16.16 0 0 1 .18.16l.06.74a.55.55 0 0 1 0 .04.3.3 0 0 1-.28.32q-.6.1-1.16.14-.56.04-1.34.04-1.24 0-2.21-.44t-1.64-1.2q-.67-.76-1.03-1.8t-.36-2.24q0-1.22.38-2.25t1.09-1.78q.7-.75 1.7-1.18.99-.43 2.23-.43.66 0 1.2.05.54.05 1.16.2a.33.33 0 0 1 .26.33.59.59 0 0 1 0 .04Zm-34.16 5.04q0 1.18-.34 2.2-.34 1-.9 1.76-.7.84-1.67 1.3-.97.46-2.21.46t-2.22-.46q-.98-.46-1.68-1.3-.56-.76-.9-1.77-.32-1-.32-2.19 0-2.42 1.22-3.96 1.4-1.74 3.9-1.74 1.26 0 2.22.43.96.43 1.66 1.31 1.24 1.58 1.24 3.96Zm-1.48 0q0-.94-.25-1.76-.25-.82-.7-1.46-1.03-1.28-2.7-1.28-.83 0-1.5.33T91 7.3q-.45.64-.7 1.46-.25.82-.25 1.76 0 .96.25 1.78.25.82.7 1.44 1.07 1.3 2.7 1.3.85 0 1.52-.34t1.19-.96q.44-.62.69-1.44.25-.82.25-1.78Zm24.72 5.4h-.88q-.28 0-.28-.28V5.38q0-.28.28-.28h.88q.28 0 .28.28v10.26q0 .28-.28.28ZM20.75 10.96v-.68h-.38q-1.12-.04-2 .1-.86.12-1.44.34-.84.3-1.26.9-.42.58-.42 1.4 0 .5.16.93.16.43.5.67.6.48 1.6.48.7 0 1.29-.28.59-.28 1.03-.8.44-.52.68-1.29.24-.77.24-1.77Zm99.9-9.64q0-.4.28-.69.28-.29.68-.29t.69.3q.29.28.29.68t-.3.68q-.28.28-.68.28t-.68-.28q-.28-.28-.28-.68Z" vector-effect="non-scaling-stroke" stroke-linecap="round" fill-rule="evenodd" font-size="12" stroke="#000" stroke-width=".94" style="stroke:#000;stroke-width:.25mm;fill:#000"/></svg>