<svg width="96.01" height="15.61" xmlns="http://www.w3.org/2000/svg"><path d="M12.04 15.4h-1.42L3.12 3.88v9.25a1.8 1.8 0 0 0 .13.75 1.05 1.05 0 0 0 .35.43 1.26 1.26 0 0 0 .52.2 3.98 3.98 0 0 0 .64.05h.26v.84H0v-.84h.25a3.96 3.96 0 0 0 .64-.05 1.3 1.3 0 0 0 .53-.2 1 1 0 0 0 .35-.43 1.86 1.86 0 0 0 .13-.75v-9.8a1.62 1.62 0 0 0-.14-.72 1.02 1.02 0 0 0-.35-.41A1.29 1.29 0 0 0 .88 2a4.32 4.32 0 0 0-.63-.04H0v-.84h3.66l7.16 11.06V3.32a1.62 1.62 0 0 0-.13-.7 1.02 1.02 0 0 0-.36-.42 1.29 1.29 0 0 0-.52-.2 4.32 4.32 0 0 0-.63-.04h-.26v-.84h5.02v.84h-.26a3.96 3.96 0 0 0-.64.05 1.3 1.3 0 0 0-.52.2 1 1 0 0 0-.35.44 1.86 1.86 0 0 0-.13.75v12Zm41 0a6.54 6.54 0 0 0 1.73.2 7.15 7.15 0 0 0 2.03-.27q.9-.27 1.55-.79.64-.52 1-1.26a3.98 3.98 0 0 0 .34-1.7q0-.77-.26-1.38a3.51 3.51 0 0 0-.73-1.1 5.38 5.38 0 0 0-1.17-.9q-.68-.4-1.56-.76-.87-.35-1.47-.68a4.24 4.24 0 0 1-.96-.69q-.37-.37-.52-.82a3.22 3.22 0 0 1-.16-1.05 2.53 2.53 0 0 1 .17-.94 1.99 1.99 0 0 1 .48-.71 2.12 2.12 0 0 1 .76-.46 3.07 3.07 0 0 1 1.03-.16 2.28 2.28 0 0 1 1.07.22 2 2 0 0 1 .7.58 2.26 2.26 0 0 1 .37.81 3.83 3.83 0 0 1 .1.92 1.83 1.83 0 0 0 1.16-.32 1.15 1.15 0 0 0 .42-.97 1.6 1.6 0 0 0-.25-.85 2.32 2.32 0 0 0-.72-.72 4.05 4.05 0 0 0-1.18-.5 6.18 6.18 0 0 0-1.59-.18 5.97 5.97 0 0 0-1.75.24q-.8.25-1.38.71a3.23 3.23 0 0 0-.92 1.14 3.47 3.47 0 0 0-.32 1.53q0 .82.22 1.48.23.65.68 1.18.46.54 1.16.97.69.43 1.62.81.88.37 1.47.7a4.36 4.36 0 0 1 .95.68q.36.35.52.77.15.42.15.97a2.33 2.33 0 0 1-.75 1.87 3.13 3.13 0 0 1-2.1.65 2.54 2.54 0 0 1-1.2-.26 2.39 2.39 0 0 1-.83-.7 3.12 3.12 0 0 1-.48-1.02 5.38 5.38 0 0 1-.2-1.2 1.46 1.46 0 0 0-1.06.37 1.31 1.31 0 0 0-.38.97 2.59 2.59 0 0 0 .25 1.15 2.38 2.38 0 0 0 .76.89 3.83 3.83 0 0 0 1.25.57Zm40.14-.84h.76v.84h-6.18v-.84h.27a3.96 3.96 0 0 0 .64-.05 1.26 1.26 0 0 0 .52-.2 1.05 1.05 0 0 0 .35-.43 1.8 1.8 0 0 0 .13-.75v-7.5h-1.83v-.95h1.83v-1q0-.9.24-1.58.25-.68.7-1.15a2.95 2.95 0 0 1 1.12-.71Q92.38 0 93.2 0a7.17 7.17 0 0 1 1.32.1 2.85 2.85 0 0 1 .87.3 1.22 1.22 0 0 1 .47.43 1.11 1.11 0 0 1 .15.57.94.94 0 0 1-.13.48 1.04 1.04 0 0 1-.34.35q-.22.14-.52.22-.3.07-.66.07a2.74 2.74 0 0 0-.06-.6q-.06-.28-.21-.5-.15-.23-.4-.36a1.33 1.33 0 0 0-.64-.14 1.42 1.42 0 0 0-.72.16 1.22 1.22 0 0 0-.47.5q-.17.32-.24.8-.08.48-.08 1.12v1.18h2.82v.95h-2.82v7.5a1.8 1.8 0 0 0 .13.75 1.05 1.05 0 0 0 .36.43 1.26 1.26 0 0 0 .52.2 3.98 3.98 0 0 0 .63.05Zm-15.34 0v.84h-5.77v-.84h.06a3.96 3.96 0 0 0 .64-.05 1.26 1.26 0 0 0 .52-.2 1.05 1.05 0 0 0 .35-.43 1.8 1.8 0 0 0 .13-.75V6.89a1.62 1.62 0 0 0-.13-.71 1.02 1.02 0 0 0-.36-.42 1.34 1.34 0 0 0-.52-.2 3.9 3.9 0 0 0-.63-.04h-.06v-.84h3.08l.38 1.98h.1a13.72 13.72 0 0 1 .4-.84 2.79 2.79 0 0 1 .5-.7 2.1 2.1 0 0 1 .74-.47 3.07 3.07 0 0 1 1.1-.17 2.8 2.8 0 0 1 1.63.38q.53.38.53 1.08a1.58 1.58 0 0 1-.1.57q-.1.27-.33.46a1.55 1.55 0 0 1-.58.3 3.1 3.1 0 0 1-.86.1q0-.84-.23-1.2a.9.9 0 0 0-.82-.37 1.11 1.11 0 0 0-.67.21 1.97 1.97 0 0 0-.5.56 3.67 3.67 0 0 0-.38.8q-.15.44-.25.92a8.63 8.63 0 0 0-.13.94 10.31 10.31 0 0 0-.04.85v3.14a1.62 1.62 0 0 0 .14.71.95.95 0 0 0 .35.4 1.38 1.38 0 0 0 .53.19 4.32 4.32 0 0 0 .63.04h.55Zm-7.44-5.3v.92h-6.66a8.3 8.3 0 0 0 .22 1.88 3.68 3.68 0 0 0 .58 1.29 2.27 2.27 0 0 0 .92.75q.55.24 1.26.24a3.76 3.76 0 0 0 .96-.12 3.64 3.64 0 0 0 .8-.31q.37-.2.65-.45a2.57 2.57 0 0 0 .45-.52q.14.06.26.24.12.19.12.44 0 .3-.21.65-.22.35-.66.64a4.05 4.05 0 0 1-1.1.5 5.47 5.47 0 0 1-1.55.19 4.95 4.95 0 0 1-1.94-.37 3.86 3.86 0 0 1-1.46-1.07 4.86 4.86 0 0 1-.92-1.72 7.8 7.8 0 0 1-.31-2.32 6.57 6.57 0 0 1 1.15-4.22 3.99 3.99 0 0 1 3.28-1.42q.97 0 1.74.3a3.39 3.39 0 0 1 1.3.9q.54.61.83 1.5a6.77 6.77 0 0 1 .29 2.08ZM32.63 14.4v.88a2.36 2.36 0 0 1-.34.12q-.2.06-.44.1a5.69 5.69 0 0 1-.5.07 5.42 5.42 0 0 1-.5.03q-.76 0-1.3-.16-.56-.17-.9-.53a2.22 2.22 0 0 1-.53-.95q-.17-.6-.17-1.46V5.82h-1.52v-.8a2.51 2.51 0 0 0 .8-.15q.43-.14.76-.48a2.93 2.93 0 0 0 .55-.89 7.23 7.23 0 0 0 .37-1.28h.91v2.46h2.62v1.14h-2.62v6.74q0 1.03.42 1.5a1.4 1.4 0 0 0 1.1.48 5.21 5.21 0 0 0 .67-.04 10.93 10.93 0 0 0 .62-.1Zm48.66.16h.26a4.32 4.32 0 0 0 .63-.04 1.38 1.38 0 0 0 .52-.18.95.95 0 0 0 .36-.4 1.62 1.62 0 0 0 .13-.72V6.9a1.62 1.62 0 0 0-.13-.71 1.02 1.02 0 0 0-.36-.42 1.34 1.34 0 0 0-.52-.2 3.9 3.9 0 0 0-.63-.04h-.06v-.84h3.58v8.45a1.8 1.8 0 0 0 .13.75 1.05 1.05 0 0 0 .35.43 1.26 1.26 0 0 0 .52.2 3.98 3.98 0 0 0 .64.05h.26v.84H81.3v-.84Zm-56.35-4.54q0 2.82-1.2 4.2a4.39 4.39 0 0 1-3.5 1.38 5.22 5.22 0 0 1-1.94-.34 3.72 3.72 0 0 1-1.46-1.04 4.7 4.7 0 0 1-.92-1.74 8.52 8.52 0 0 1-.31-2.46 6.23 6.23 0 0 1 1.18-4.17q1.19-1.37 3.51-1.37a5.29 5.29 0 0 1 1.95.34 3.7 3.7 0 0 1 1.46 1.02q.6.7.91 1.73a8.42 8.42 0 0 1 .32 2.45Zm18.58 0q0 2.82-1.2 4.2a4.39 4.39 0 0 1-3.5 1.38 5.22 5.22 0 0 1-1.94-.34 3.72 3.72 0 0 1-1.46-1.04 4.7 4.7 0 0 1-.91-1.74 8.52 8.52 0 0 1-.32-2.46 6.23 6.23 0 0 1 1.19-4.17q1.18-1.37 3.5-1.37a5.29 5.29 0 0 1 1.95.34 3.7 3.7 0 0 1 1.46 1.02q.6.7.92 1.73a8.42 8.42 0 0 1 .31 2.45Zm-25.98 0a11.66 11.66 0 0 0 .15 1.96q.14.85.47 1.42a2.24 2.24 0 0 0 .85.87 2.57 2.57 0 0 0 1.27.3 2.54 2.54 0 0 0 1.27-.3q.52-.3.84-.87.32-.57.47-1.42.14-.85.14-1.96a11.49 11.49 0 0 0-.15-1.95 4.3 4.3 0 0 0-.47-1.4q-.32-.57-.84-.85a2.64 2.64 0 0 0-1.28-.28 2.61 2.61 0 0 0-1.27.28 2.16 2.16 0 0 0-.84.85q-.32.56-.46 1.4a11.49 11.49 0 0 0-.15 1.95Zm18.58 0a11.66 11.66 0 0 0 .15 1.96q.15.85.47 1.42a2.24 2.24 0 0 0 .85.87 2.57 2.57 0 0 0 1.28.3 2.54 2.54 0 0 0 1.27-.3q.51-.3.84-.87.32-.57.46-1.42t.14-1.96a11.49 11.49 0 0 0-.14-1.95 4.3 4.3 0 0 0-.47-1.4q-.32-.57-.85-.85a2.64 2.64 0 0 0-1.27-.28 2.61 2.61 0 0 0-1.27.28 2.16 2.16 0 0 0-.84.85q-.32.56-.47 1.4a11.49 11.49 0 0 0-.15 1.95Zm27.66-.92h4.6a8.22 8.22 0 0 0-.12-1.44q-.12-.66-.37-1.13-.25-.46-.67-.72a1.92 1.92 0 0 0-1.02-.25 1.94 1.94 0 0 0-1.71.9 5.4 5.4 0 0 0-.71 2.64ZM82.9 1.44q0-.35.09-.59a.99.99 0 0 1 .24-.38.87.87 0 0 1 .36-.2q.2-.06.45-.06a1.6 1.6 0 0 1 .44.05q.2.06.36.21a1.07 1.07 0 0 1 .24.38q.1.23.1.59 0 .35-.1.58a1.07 1.07 0 0 1-.24.38q-.15.15-.36.21a1.48 1.48 0 0 1-.44.07 1.51 1.51 0 0 1-.45-.07.92.92 0 0 1-.36-.2.99.99 0 0 1-.24-.39q-.09-.23-.09-.58Z" vector-effect="non-scaling-stroke" stroke-linecap="round" fill-rule="evenodd" font-size="12" stroke="#000" stroke-width=".94" style="stroke:#000;stroke-width:.25mm;fill:#000"/></svg>