<svg width="98.53" height="15.36" xmlns="http://www.w3.org/2000/svg"><path d="m57.58 14.07-1.56.69V2.66A2.56 2.56 0 0 1 56.8.78Q57.58 0 58.68 0a2.52 2.52 0 0 1 1.89.76A2.59 2.59 0 0 1 62.44 0a2.52 2.52 0 0 1 1.9.76 2.68 2.68 0 0 1 .76 1.9v11.41l-1.56.69V2.7a1.17 1.17 0 0 0-.32-.83 1.01 1.01 0 0 0-.76-.34 1.03 1.03 0 0 0-.78.34q-.33.35-.33.82h0l-.01 11.37-1.56.69V2.7a1.17 1.17 0 0 0-.32-.83 1.01 1.01 0 0 0-.76-.34 1.05 1.05 0 0 0-.78.34q-.33.34-.33.83l-.01 11.36Zm-56.02 0L0 14.76V4.35q0-1.8 1.29-3.07A4.27 4.27 0 0 1 4.4 0a4.27 4.27 0 0 1 3.11 1.28q1.29 1.27 1.29 3.07v9.72l-1.56.69V4.32q-.01-1.17-.84-2-.84-.82-2-.82a2.76 2.76 0 0 0-2.02.83q-.83.82-.83 1.96v9.78Zm37.28-1.19.58 1.48q-.76.4-1.69.4a3.67 3.67 0 0 1-2.6-1.08 2.5 2.5 0 0 1-.76-1.8v-.07q0-1.83 1.87-2.59l3.98-1.63q0-.93-.62-1.56a2.08 2.08 0 0 0-1.55-.63q-.82 0-1.45.62a2.09 2.09 0 0 0-.62 1.5v.14l-1.57.7v-.87q0-1.37 1.18-2.62a3.32 3.32 0 0 1 2.52-1.05 3.54 3.54 0 0 1 2.6 1.07 3.54 3.54 0 0 1 1.07 2.6v6.58l-1.56.69V9.3L37 10.6Q36 11.1 36 11.9q0 .32.25.66.47.63 1.5.63.62 0 1.1-.3Zm42.06 1.2-1.56.68V7.49a3.54 3.54 0 0 1 1.07-2.6 3.54 3.54 0 0 1 2.6-1.07 3.57 3.57 0 0 1 2.6 1.07 3.52 3.52 0 0 1 1.09 2.6v6.58l-1.56.69V7.52a2.09 2.09 0 0 0-.63-1.5q-.62-.62-1.47-.62-.88 0-1.52.63-.62.6-.62 1.46v6.58Zm-53.09 0-1.75.68L21.98 4.5l1.43-.68 3.46 8.71 3.47-8.73 1.4.68-3.93 9.6Zm-15.86-3V7.5a3.54 3.54 0 0 1 1.08-2.6 3.54 3.54 0 0 1 2.6-1.07 3.57 3.57 0 0 1 2.6 1.07 3.52 3.52 0 0 1 1.09 2.6v3.6a3.52 3.52 0 0 1-1.09 2.6 3.57 3.57 0 0 1-2.6 1.07 3.54 3.54 0 0 1-2.6-1.08 3.54 3.54 0 0 1-1.08-2.6Zm56.16 0V7.5a3.54 3.54 0 0 1 1.07-2.6 3.54 3.54 0 0 1 2.6-1.07 3.57 3.57 0 0 1 2.6 1.07 3.52 3.52 0 0 1 1.09 2.6v3.6a3.52 3.52 0 0 1-1.08 2.6 3.57 3.57 0 0 1-2.61 1.07 3.54 3.54 0 0 1-2.6-1.08 3.54 3.54 0 0 1-1.07-2.6Zm22.46 0V7.5a3.54 3.54 0 0 1 1.07-2.6 3.54 3.54 0 0 1 2.6-1.07 3.57 3.57 0 0 1 2.6 1.07 3.52 3.52 0 0 1 1.09 2.6v3.6a3.52 3.52 0 0 1-1.08 2.6 3.57 3.57 0 0 1-2.61 1.07 3.54 3.54 0 0 1-2.6-1.08 3.54 3.54 0 0 1-1.07-2.6ZM13.52 7.53v3.54a1.97 1.97 0 0 0 .65 1.5 2.17 2.17 0 0 0 1.51.62q.82 0 1.45-.62a2.09 2.09 0 0 0 .62-1.5V7.52a2.09 2.09 0 0 0-.62-1.5q-.63-.62-1.56-.62a1.97 1.97 0 0 0-1.44.62q-.6.6-.61 1.44v.06Zm56.15 0v3.54a1.97 1.97 0 0 0 .65 1.5 2.17 2.17 0 0 0 1.52.62q.82 0 1.44-.62a2.09 2.09 0 0 0 .63-1.5V7.52a2.09 2.09 0 0 0-.63-1.5q-.62-.62-1.56-.62a1.97 1.97 0 0 0-1.44.62q-.6.6-.61 1.44v.06Zm22.46 0v3.54a1.97 1.97 0 0 0 .65 1.5 2.17 2.17 0 0 0 1.52.62q.82 0 1.44-.62a2.09 2.09 0 0 0 .63-1.5V7.52a2.09 2.09 0 0 0-.63-1.5q-.62-.62-1.56-.62a1.97 1.97 0 0 0-1.44.62q-.6.6-.61 1.44v.06Z" vector-effect="non-scaling-stroke" stroke-linecap="round" fill-rule="evenodd" font-size="12" stroke="#000" stroke-width=".94" fill="none" style="stroke:#000;stroke-width:.25mm;fill:none"/></svg>