<svg width="102.98" height="14.9" xmlns="http://www.w3.org/2000/svg"><path d="M.78 14.27H0V.17h.7l9.32 12.66V.17h.78v14.1h-.68L.78 1.59v12.68Zm61.16-1.58.4-.72q1.06.86 2.12 1.25t2.64.39q2 0 3.01-.8 1.01-.8 1.01-2.12 0-1.08-.74-1.7-.74-.6-2.42-.94l-1.98-.4q-1.88-.38-2.8-1.26-.92-.88-.92-2.38 0-1.2.61-2.1.61-.9 1.7-1.4 1.09-.5 2.49-.5 2.9 0 4.62 1.82l-.4.72q-.94-.92-1.94-1.32t-2.28-.4q-1.76 0-2.84.87-1.08.87-1.08 2.3 0 1.17.68 1.84.68.67 2.2.97l1.98.4q2.04.42 3.02 1.23.98.8.98 2.23 0 1.1-.59 1.95-.59.85-1.69 1.33-1.1.48-2.62.48-1.64 0-2.92-.44t-2.24-1.3Zm-35.78 1.58h-.84V4.59h.82v1.8q.48-.98 1.39-1.47.91-.5 2.03-.5 3.46 0 3.46 3.69v6.16h-.84V8.19q0-1.54-.62-2.26-.62-.72-2-.72-1.54 0-2.47.95-.93.95-.93 2.55v5.56Zm59.56 0h-.84V4.59h.82v1.8q.48-.98 1.39-1.47.91-.5 2.03-.5 3.46 0 3.46 3.69v6.16h-.84V8.19q0-1.54-.62-2.26-.62-.72-2-.72-1.54 0-2.47.95-.93.95-.93 2.55v5.56Zm-71.34-3.54V4.59h.84v6.06q0 1.52.62 2.26.62.74 1.96.74 1.46 0 2.37-.97.91-.97.91-2.55V4.59h.84v9.68h-.82v-1.8q-.46.96-1.34 1.46-.88.5-1.96.5-1.72 0-2.57-.94-.85-.94-.85-2.76Zm81 2.42.4-.68q.72.62 1.55.9.83.28 1.69.28 1.3 0 1.99-.5t.69-1.36q0-.68-.45-1.07-.45-.4-1.45-.63l-1.66-.4q-1.26-.3-1.85-.92-.59-.62-.59-1.6 0-1.24.95-2 .95-.74 2.53-.74 1 0 1.85.34.85.34 1.37.96l-.4.68q-1.16-1.2-2.84-1.2-1.22 0-1.9.53-.68.53-.68 1.4 0 .69.42 1.1.42.43 1.34.65l1.66.4q1.3.32 1.94.9.64.58.64 1.56 0 1.22-.98 1.95t-2.64.73q-1.04 0-2-.33t-1.58-.95Zm-15.3-4.38h.6v-.8q0-1.44-.56-2.1-.56-.66-1.8-.66-.9 0-1.69.26-.79.26-1.65.84l-.4-.72q.76-.54 1.75-.85.99-.31 1.95-.31 1.66 0 2.45.86.79.86.79 2.68v6.3h-.82v-1.8q-.42.92-1.25 1.44-.83.52-1.93.52-.94 0-1.7-.38t-1.2-1.03q-.44-.65-.44-1.45 0-1.08.53-1.7.53-.6 1.82-.85t3.55-.25Zm-39.1 2.38V5.3h-1.94v-.72h1.94V1.57h.84v3.02H45v.72h-3.18v5.66q0 1.3.52 1.99t1.74.69q.36 0 .69-.1.33-.08.55-.16l.2.7q-.18.12-.64.23-.46.1-.86.1-1.52 0-2.28-.85-.76-.86-.76-2.42Zm9.62 3.28q-1.32 0-2.29-.62t-1.5-1.74q-.53-1.12-.53-2.64t.53-2.64q.53-1.12 1.5-1.74.97-.62 2.29-.62t2.29.62q.97.62 1.5 1.74t.53 2.64q0 1.52-.53 2.64t-1.5 1.74q-.97.62-2.29.62Zm0-.78q1.6 0 2.53-1.11a4.7 4.7 0 0 0 .93-3.11q0-2-.93-3.11Q52.2 5.2 50.6 5.2q-1.58 0-2.52 1.1-.94 1.12-.94 3.12t.94 3.1q.94 1.12 2.52 1.12Zm-13.38.62h-.84V4.59h.84v9.68Zm43.46-4.02V9.5h-.56q-1.98 0-3.07.17-1.09.17-1.52.6-.43.43-.43 1.2 0 .97.67 1.58.67.6 1.81.6.92 0 1.61-.44.69-.45 1.09-1.22.4-.77.4-1.75ZM37.44 1.89h-1.28V.63h1.28v1.26Z" vector-effect="non-scaling-stroke" stroke-linecap="round" fill-rule="evenodd" font-size="12" stroke="#000" stroke-width=".94" fill="none" style="stroke:#000;stroke-width:.25mm;fill:none"/></svg>