<svg width="55.43" height="14.99" xmlns="http://www.w3.org/2000/svg"><path d="M.01 13.9V.46Q.01 0 .37 0q.18 0 .27.06.1.06.2.22l9.2 12.5V.44q0-.44.4-.44.37 0 .37.44v13.44q0 .46-.34.46-.26 0-.46-.28L.8 1.54V13.9q0 .44-.38.44-.4 0-.4-.44Zm25.32 0V4.86q0-.44.42-.44.4 0 .4.44v1.48q.48-.98 1.4-1.47.9-.49 2.02-.49 3.46 0 3.46 3.68v5.84q0 .44-.42.44t-.42-.44V8.14q0-1.54-.62-2.26-.62-.72-2-.72-1.54 0-2.47.95-.93.95-.93 2.55v5.24q0 .44-.42.44t-.42-.44ZM14.4 10.68V4.86q0-.44.42-.44t.42.44v5.74q0 1.52.62 2.26.62.74 1.96.74 1.46 0 2.37-.97.91-.97.91-2.55V4.86q0-.44.42-.44t.42.44v9.04q0 .44-.4.44-.42 0-.42-.44v-1.48q-.46.96-1.34 1.46-.88.5-1.96.5-1.72 0-2.57-.94-.85-.94-.85-2.76Zm26.6.42V5.26h-1.62q-.44 0-.44-.36t.44-.36H41v-2.7q0-.44.42-.44t.42.44v2.7h2.86q.44 0 .44.36t-.44.36h-2.86v5.66q0 1.3.52 2 .52.68 1.74.68.42 0 .7-.09.26-.09.44-.09.3 0 .3.38 0 .1-.05.21-.05.11-.19.15-.2.08-.57.15-.37.07-.69.07-1.52 0-2.28-.86-.76-.86-.76-2.42Zm9.62 3.28q-1.32 0-2.29-.62t-1.5-1.74q-.53-1.12-.53-2.64t.53-2.64q.53-1.12 1.5-1.74.97-.62 2.3-.62 1.31 0 2.28.62.97.62 1.5 1.74t.53 2.64q0 1.52-.53 2.64t-1.5 1.74q-.97.62-2.29.62Zm0-.78q1.6 0 2.53-1.1a4.7 4.7 0 0 0 .93-3.12q0-2-.93-3.1-.93-1.12-2.53-1.12-1.58 0-2.52 1.11t-.94 3.11q0 2 .94 3.11.94 1.11 2.52 1.11Zm-14.22.24V4.92q0-.44.42-.44t.42.44v8.92q0 .44-.42.44t-.42-.44Zm.42-11.94q-.7 0-.7-.7 0-.68.7-.68t.7.68q0 .7-.7.7Z" vector-effect="non-scaling-stroke" stroke-linecap="round" fill-rule="evenodd" font-size="12" stroke="#000" stroke-width=".94" fill="none" style="stroke:#000;stroke-width:.25mm;fill:none"/></svg>