<svg width="96.15" height="19.8" xmlns="http://www.w3.org/2000/svg"><path d="M55.02 14.09v-1.01q.76.3 1.76.51 1 .22 2.19.22 1.11 0 1.97-.32.87-.32 1.37-.98a2.65 2.65 0 0 0 .5-1.65 2.36 2.36 0 0 0-.42-1.44 3.32 3.32 0 0 0-1.25-.96q-.83-.4-2.09-.83-.87-.3-1.6-.64a5.2 5.2 0 0 1-1.22-.78 2.94 2.94 0 0 1-.77-1.07q-.27-.63-.27-1.5a3.23 3.23 0 0 1 .6-1.98q.6-.8 1.63-1.22a6.16 6.16 0 0 1 2.32-.42 9.62 9.62 0 0 1 1.95.2 8.75 8.75 0 0 1 1.78.57l-.35.86q-.86-.37-1.72-.54a8.46 8.46 0 0 0-1.7-.18 5.03 5.03 0 0 0-1.8.3 2.77 2.77 0 0 0-1.24.9 2.4 2.4 0 0 0-.46 1.5 2.49 2.49 0 0 0 .43 1.51 3.2 3.2 0 0 0 1.2.96 16 16 0 0 0 1.87.74 15.97 15.97 0 0 1 2.19.9 3.82 3.82 0 0 1 1.42 1.2 3.23 3.23 0 0 1 .5 1.88q0 1.28-.64 2.15-.65.86-1.75 1.3a6.78 6.78 0 0 1-2.5.43q-.87 0-1.58-.08-.7-.08-1.28-.22a8.8 8.8 0 0 1-1.04-.31Zm-7.95-6.53v6.95h-.97V7.62q0-1.58-.73-2.32a2.8 2.8 0 0 0-2.1-.75q-1.75 0-2.67 1.03a4.47 4.47 0 0 0-.92 3.08v5.85h-.99V3.89h.8l.15 1.93h.06q.28-.6.78-1.08.49-.48 1.21-.77a4.52 4.52 0 0 1 1.68-.29 3.76 3.76 0 0 1 2.75.94q.95.94.95 2.94Zm38.5 0v6.95h-.97V7.62q0-1.58-.72-2.32a2.8 2.8 0 0 0-2.1-.75q-1.75 0-2.67 1.03a4.47 4.47 0 0 0-.92 3.08v5.85h-1V3.89H78l.15 1.93h.05q.29-.6.78-1.08.5-.48 1.22-.77a4.52 4.52 0 0 1 1.68-.29 3.76 3.76 0 0 1 2.74.94q.96.94.96 2.94Zm2.56 6.47v-.98a8.2 8.2 0 0 0 1.62.59q.89.22 1.82.22 1.65 0 2.37-.55.72-.56.72-1.53a1.55 1.55 0 0 0-.36-1.05q-.35-.41-1.02-.72-.66-.3-1.6-.61a23.32 23.32 0 0 1-1.73-.66q-.76-.33-1.19-.87a2.32 2.32 0 0 1-.43-1.48 2.29 2.29 0 0 1 1.03-2q1.02-.7 2.75-.7a8.33 8.33 0 0 1 1.78.18 8.63 8.63 0 0 1 1.5.46l-.35.84q-.6-.28-1.4-.46a7.27 7.27 0 0 0-1.58-.17 3.82 3.82 0 0 0-2.03.45 1.5 1.5 0 0 0-.73 1.35q0 .69.35 1.07a2.66 2.66 0 0 0 1 .65 40.16 40.16 0 0 0 1.56.57 21.43 21.43 0 0 1 1.71.67 3.44 3.44 0 0 1 1.26.9 2.28 2.28 0 0 1 .47 1.52q0 .95-.48 1.62-.47.67-1.38 1.01a6.3 6.3 0 0 1-2.23.35 9.04 9.04 0 0 1-1.98-.2q-.87-.19-1.45-.47ZM16.8 12.54h-.07a57.27 57.27 0 0 1 .05 1.17 35.53 35.53 0 0 1 .02 1.14v4.35h-1V3.9h.82L16.75 6h.06a4.3 4.3 0 0 1 .74-1.14q.48-.54 1.21-.86.73-.32 1.75-.32a3.88 3.88 0 0 1 3.18 1.37 6.29 6.29 0 0 1 1.13 4.07 7.67 7.67 0 0 1-.54 3.04 4.13 4.13 0 0 1-1.53 1.89q-.99.64-2.38.64a4.4 4.4 0 0 1-1.66-.29q-.71-.29-1.18-.78a3.65 3.65 0 0 1-.72-1.09Zm57-5.15v7.12h-.77l-.18-1.86h-.05q-.35.6-.84 1.06a3.47 3.47 0 0 1-1.2.73 4.96 4.96 0 0 1-1.71.26 4.1 4.1 0 0 1-1.76-.34 2.54 2.54 0 0 1-1.12-1q-.4-.65-.4-1.59a2.67 2.67 0 0 1 1.31-2.4 7.73 7.73 0 0 1 3.76-.94l1.97-.1v-.77q0-1.63-.64-2.32-.65-.7-1.9-.7a5.87 5.87 0 0 0-1.58.21 8.56 8.56 0 0 0-1.54.6l-.31-.81a9.62 9.62 0 0 1 1.63-.6q.88-.23 1.83-.23a3.53 3.53 0 0 1 2.62.87 3.87 3.87 0 0 1 .87 2.8Zm-38.03 1.2v.71h-7.66q0 2.19 1 3.36a3.62 3.62 0 0 0 2.9 1.17 8 8 0 0 0 1.72-.16q.73-.16 1.61-.55v.9a7.5 7.5 0 0 1-1.56.52q-.78.16-1.8.16a5.07 5.07 0 0 1-2.7-.67q-1.09-.67-1.64-1.89-.55-1.22-.55-2.85a7.34 7.34 0 0 1 .53-2.86 4.58 4.58 0 0 1 1.57-2 4.24 4.24 0 0 1 2.53-.74 3.84 3.84 0 0 1 2.26.63 3.8 3.8 0 0 1 1.35 1.74q.44 1.1.44 2.53Zm-23-1.24q0 1.63-.4 2.98a6.57 6.57 0 0 1-1.2 2.32 5.4 5.4 0 0 1-2 1.51Q8 14.7 6.4 14.7q-1.6 0-2.8-.54a5.33 5.33 0 0 1-2-1.52q-.8-.98-1.2-2.33A10.48 10.48 0 0 1 0 7.33 9.28 9.28 0 0 1 .74 3.5Q1.48 1.86 2.92.93A6.44 6.44 0 0 1 6.48 0 6.36 6.36 0 0 1 9.92.9a5.54 5.54 0 0 1 2.14 2.53q.72 1.64.72 3.93ZM1.06 7.34a9.15 9.15 0 0 0 .57 3.37A4.85 4.85 0 0 0 3.4 13a5.18 5.18 0 0 0 3 .82 5.22 5.22 0 0 0 3.03-.8q1.18-.82 1.74-2.27a9.3 9.3 0 0 0 .57-3.4 7.5 7.5 0 0 0-1.33-4.74A4.7 4.7 0 0 0 6.48.91a5.32 5.32 0 0 0-3.04.81 4.85 4.85 0 0 0-1.8 2.26 8.83 8.83 0 0 0-.58 3.36Zm15.75 1.7v.17a7.44 7.44 0 0 0 .38 2.59q.39 1.03 1.17 1.53a3.45 3.45 0 0 0 1.93.51q1.13 0 1.9-.55a3.44 3.44 0 0 0 1.2-1.62q.41-1.05.41-2.55 0-2.24-.85-3.4-.86-1.17-2.57-1.17-1.2 0-2 .53-.79.52-1.18 1.52a6.96 6.96 0 0 0-.4 2.45Zm11.34-.58h6.6a5.84 5.84 0 0 0-.32-2.05q-.34-.89-1-1.38a2.8 2.8 0 0 0-1.7-.5 3.21 3.21 0 0 0-2.48 1.02q-.94 1-1.1 2.91Zm44.66 1.69V9.11l-1.85.07a6.78 6.78 0 0 0-3.08.73 2.04 2.04 0 0 0-1.05 1.87 1.92 1.92 0 0 0 .63 1.54 2.62 2.62 0 0 0 1.75.54q1.75 0 2.67-1 .93-1 .93-2.71Z" vector-effect="non-scaling-stroke" stroke-linecap="round" fill-rule="evenodd" font-size="12" stroke="#000" stroke-width=".94" fill="none" style="stroke:#000;stroke-width:.25mm;fill:none"/></svg>