<svg width="86.2" height="15.92" xmlns="http://www.w3.org/2000/svg"><path d="M67.76 10.02v5.24h-.64v-9h.64v1.82q1.02-2.04 3.48-2.04 1.68 0 2.82 1.16t1.14 2.82v5.24h-.64v-5.24q0-1.38-.97-2.4T71.24 6.6q-1.38 0-2.43 1.02-1.05 1.02-1.05 2.4Zm-10.4 5.5h-.3q-3.1 0-5.37-2.34t-2.27-5.47q0-3.13 2.3-5.42T57.24 0q3.22 0 5.5 2.28t2.28 5.43q0 3.15-2.26 5.48-2.26 2.33-5.4 2.33Zm7-7.77q0-2.95-2.09-5.06Q60.18.6 57.23.6t-5.05 2.1q-2.1 2.11-2.1 5.06 0 2.95 2.1 5.07t5.04 2.12q2.94 0 5.04-2.12t2.1-5.07ZM32.5 15.5h-.18q-1.9 0-3.31-1.43-1.41-1.43-1.41-3.33 0-1.9 1.4-3.29 1.4-1.39 3.46-1.39T36 7.7l-6.28 6.2q1.3 1.04 2.5 1.04t2.15-.55q.95-.55 1.57-1.47v1.02q-1.42 1.56-3.44 1.56Zm49.6 0h-.18q-1.9 0-3.31-1.43-1.41-1.43-1.41-3.33 0-1.9 1.4-3.29 1.4-1.39 3.46-1.39T85.6 7.7l-6.28 6.2q1.3 1.04 2.5 1.04t2.15-.55q.95-.55 1.57-1.47v1.02q-1.42 1.56-3.44 1.56ZM0 15.26v-15h.66Q2.74.26 4.2 1.7t1.46 3.37Q5.66 7 4.15 8.4T.82 9.8H.66v5.46H0Zm41.12-.44v.56q-1.42 0-2.42-.95t-1-2.43V2.64h.64v3.64h2.76v.56h-2.76V12q0 1.22.81 2.02t1.97.8ZM21.68 9.26v6h-.64v-9h.64V7.6q.36-.68 1.12-1.12.76-.44 1.7-.44t1.8.64v.8q-.88-.88-1.94-.88t-1.87.8q-.81.8-.81 1.86Zm-10.76 6.22h-.18q-1.92 0-3.3-1.43t-1.38-3.33q0-1.9 1.4-3.29 1.4-1.39 3.37-1.39 1.97 0 3.36 1.4 1.39 1.38 1.39 3.3 0 1.9-1.36 3.32t-3.3 1.42Zm4.02-4.7q0-1.7-1.21-2.94T10.84 6.6q-1.68 0-2.91 1.25Q6.7 9.1 6.7 10.78q0 1.68 1.23 2.91 1.23 1.23 2.92 1.23t2.89-1.23q1.2-1.23 1.2-2.92ZM.66.83v8.4h.16Q2.5 9.24 3.75 8 5 6.76 5 5.06T3.73 2.1Q2.46.84.82.84H.66ZM29.3 13.48l5.82-5.78q-1.24-1.08-2.83-1.08t-2.82 1.23q-1.23 1.23-1.23 2.83t1.06 2.8Zm49.6 0 5.82-5.78q-1.24-1.08-2.83-1.08t-2.82 1.23q-1.23 1.23-1.23 2.83t1.06 2.8Zm-61.16-7.2h.64v8.98h-.64V6.28Zm.32-2.2q-.58 0-.58-.54t.58-.54q.58 0 .58.54t-.58.54Z" vector-effect="non-scaling-stroke" stroke-linecap="round" fill-rule="evenodd" font-size="12" stroke="#000" stroke-width=".94" fill="none" style="stroke:#000;stroke-width:.25mm;fill:none"/></svg>