<svg width="120.18" height="19.36" xmlns="http://www.w3.org/2000/svg"><path d="M5.8 8.98q-.2 0-.2-.2t.2-.2q.2 0 .2.2t-.2.2Zm-3.54 0q-.2 0-.2-.2t.2-.2q.2 0 .2.2t-.2.2Zm.7 0q-.2 0-.2-.2t.2-.2q.2 0 .2.2t-.2.2Zm.7 0q-.2 0-.2-.2t.2-.2q.2 0 .2.2t-.2.2Zm1.42 0q-.2 0-.2-.2t.2-.2q.2 0 .2.2t-.2.2Zm8.78.36q-.2 0-.2-.2t.2-.2q.2 0 .2.2t-.2.2Zm1.62-.28q-.2 0-.2-.2t.2-.2q.2 0 .2.2t-.2.2Zm17.9.54q-.2 0-.2-.2t.2-.2q.2 0 .2.2t-.2.2Zm-.84 0q-.2 0-.2-.2t.2-.2q.2 0 .2.2t-.2.2Zm-.86 0q-.2 0-.2-.2t.2-.2q.2 0 .2.2t-.2.2Zm-.92 0q-.2 0-.2-.2t.2-.2q.2 0 .2.2t-.2.2Zm9.18-1.24q-.2 0-.2-.2t.2-.2q.2 0 .2.2t-.2.2Zm1.64 3.9q-.2 0-.2-.2t.2-.2q.2 0 .2.2t-.2.2Zm3.46-4.7q-.2 0-.2-.2t.2-.2q.2 0 .2.2t-.2.2Zm11.22 1.78q-.2 0-.2-.2t.2-.2q.2 0 .2.2t-.2.2Zm1.62-.28q-.2 0-.2-.2t.2-.2q.2 0 .2.2t-.2.2Zm9.94 3.2q-.2 0-.2-.2t.2-.2q.2 0 .2.2t-.2.2ZM71 9.88q-.2 0-.2-.2t.2-.2q.2 0 .2.2t-.2.2Zm-1 2.38q-.2 0-.2-.2t.2-.2q.2 0 .2.2t-.2.2Zm47.58-2.72q.2 0 .2.2t-.2.2q-.2 0-.2-.2t.2-.2ZM2.26.94q-.2 0-.2-.2t.2-.2q.2 0 .2.2t-.2.2Zm.7 0q-.2 0-.2-.2t.2-.2q.2 0 .2.2t-.2.2Zm.7-.02q-.2 0-.2-.2t.2-.2q.2 0 .2.2t-.2.2Zm2.1.02q-.2 0-.2-.2t.2-.2q.2 0 .2.2t-.2.2Zm.74 7.98q-.2 0-.2-.2t.2-.2q.2 0 .2.2t-.2.2Zm1.8-1.48q.2 0 .2.2t-.2.2q-.2 0-.2-.2t.2-.2ZM6 9.6q-.2 0-.2-.2t.2-.2q.2 0 .2.2t-.2.2Zm10.36-5.06q-.2 0-.2-.2t.2-.2q.2 0 .2.2t-.2.2Zm.78.16q-.2 0-.2-.2t.2-.2q.2 0 .2.2t-.2.2Zm-3.86.58q-.2 0-.2-.2t.2-.2q.2 0 .2.2t-.2.2Zm4.58-.24q-.2 0-.2-.2t.2-.2q.2 0 .2.2t-.2.2Zm1.44 1.9q-.2 0-.2-.2t.2-.2q.2 0 .2.2t-.2.2Zm.16 2.44q-.2 0-.2-.2t.2-.2q.2 0 .2.2t-.2.2ZM23.4 7.4q-.2 0-.2-.2t.2-.2q.2 0 .2.2t-.2.2Zm8.62-2.88q-.2 0-.2-.2t.2-.2q.2 0 .2.2t-.2.2Zm4.42 3.54q-.2 0-.2-.2t.2-.2q.2 0 .2.2t-.2.2ZM35.9 9.6q-.2 0-.2-.2t.2-.2q.2 0 .2.2t-.2.2Zm-7.74 0q-.2 0-.2-.2t.2-.2q.2 0 .2.2t-.2.2Zm17.6-2.04q-.2 0-.2-.2t.2-.2q.2 0 .2.2t-.2.2Zm.28 2.32q-.2 0-.2-.2t.2-.2q.2 0 .2.2t-.2.2Zm.32.76q-.2 0-.2-.2t.2-.2q.2 0 .2.2t-.2.2Zm.68 1.62q-.2 0-.2-.2t.2-.2q.2 0 .2.2t-.2.2ZM43.8 4.6q-.2 0-.2-.2t.2-.2q.2 0 .2.2t-.2.2Zm7.42 2.96q-.2 0-.2-.2t.2-.2q.2 0 .2.2t-.2.2Zm-.36.8q-.2 0-.2-.2t.2-.2q.2 0 .2.2t-.2.2Zm-.64 1.52q-.2 0-.2-.2t.2-.2q.2 0 .2.2t-.2.2Zm-1 2.38q-.2 0-.2-.2t.2-.2q.2 0 .2.2t-.2.2Zm9.54-7.72q-.2 0-.2-.2t.2-.2q.2 0 .2.2t-.2.2Zm.78.16q-.2 0-.2-.2t.2-.2q.2 0 .2.2t-.2.2Zm-3.86.58q-.2 0-.2-.2t.2-.2q.2 0 .2.2t-.2.2Zm4.58-.24q-.2 0-.2-.2t.2-.2q.2 0 .2.2t-.2.2Zm1.44 1.9q-.2 0-.2-.2t.2-.2q.2 0 .2.2t-.2.2Zm.16 2.44q-.2 0-.2-.2t.2-.2q.2 0 .2.2t-.2.2ZM72 7.56q-.2 0-.2-.2t.2-.2q.2 0 .2.2t-.2.2Zm-.36.8q-.2 0-.2-.2t.2-.2q.2 0 .2.2t-.2.2Zm-3.56 8.4q-.2 0-.2-.2t.2-.2q.2 0 .2.2t-.2.2ZM83.4.94q-.2 0-.2-.2t.2-.2q.2 0 .2.2t-.2.2Zm.7 0q-.2 0-.2-.2t.2-.2q.2 0 .2.2t-.2.2Zm.7 0q-.2 0-.2-.2t.2-.2q.2 0 .2.2t-.2.2Zm2.1.08q-.2 0-.2-.2t.2-.2q.2 0 .2.2t-.2.2Zm5.08 6.16q-.2 0-.2-.2t.2-.2q.2 0 .2.2t-.2.2Zm-.1 2.22q-.2 0-.2-.2t.2-.2q.2 0 .2.2t-.2.2Zm-.18.74q-.2 0-.2-.2t.2-.2q.2 0 .2.2t-.2.2Zm7.6-5.62q-.2 0-.2-.2t.2-.2q.2 0 .2.2t-.2.2Zm4.42 3.54q-.2 0-.2-.2t.2-.2q.2 0 .2.2t-.2.2Zm.16 1.92q.2 0 .2.2t-.2.2q-.2 0-.2-.2t.2-.2Zm4.26-5.32q-.2 0-.2-.2t.2-.2q.2 0 .2.2t-.2.2Zm9.2 0q-.2 0-.2-.2t.2-.2q.2 0 .2.2t-.2.2Zm.68.26q-.2 0-.2-.2t.2-.2q.2 0 .2.2t-.2.2Zm.66.32q-.2 0-.2-.2t.2-.2q.2 0 .2.2t-.2.2ZM9.08 3.02q.2 0 .2.2t-.2.2q-.2 0-.2-.2t.2-.2Zm0 3.12q.2 0 .2.2t-.2.2q-.2 0-.2-.2t.2-.2Zm9.04 7.58q-.2 0-.2-.2t.2-.2q.2 0 .2.2t-.2.2Zm-3.08 1q-.2 0-.2-.2t.2-.2q.2 0 .2.2t-.2.2Zm.9-.08q-.2 0-.2-.2t.2-.2q.2 0 .2.2t-.2.2Zm.8-.2q-.2 0-.2-.2t.2-.2q.2 0 .2.2t-.2.2Zm17.78-9.06q-.2 0-.2-.2t.2-.2q.2 0 .2.2t-.2.2Zm-2.5 8.92q.2 0 .2.2t-.2.2q-.2 0-.2-.2t.2-.2Zm.94-.1q.2 0 .2.2t-.2.2q-.2 0-.2-.2t.2-.2Zm.88-.28q.2 0 .2.2t-.2.2q-.2 0-.2-.2t.2-.2Zm-2.78.24q.2 0 .2.2t-.2.2q-.2 0-.2-.2t.2-.2ZM46.7 5.34q-.2 0-.2-.2t.2-.2q.2 0 .2.2t-.2.2Zm5.16.74q-.2 0-.2-.2t.2-.2q.2 0 .2.2t-.2.2Zm8.66 7.64q-.2 0-.2-.2t.2-.2q.2 0 .2.2t-.2.2Zm-3.08 1q-.2 0-.2-.2t.2-.2q.2 0 .2.2t-.2.2Zm.9-.08q-.2 0-.2-.2t.2-.2q.2 0 .2.2t-.2.2Zm.8-.2q-.2 0-.2-.2t.2-.2q.2 0 .2.2t-.2.2Zm9.78.16q-.2 0-.2-.2t.2-.2q.2 0 .2.2t-.2.2Zm3.72-8.52q-.2 0-.2-.2t.2-.2q.2 0 .2.2t-.2.2Zm.6-1.48q-.2 0-.2-.2t.2-.2q.2 0 .2.2t-.2.2Zm10.16 9.88q-.2 0-.2-.2t.2-.2q.2 0 .2.2t-.2.2Zm.7 0q-.2 0-.2-.2t.2-.2q.2 0 .2.2t-.2.2Zm.74 0q-.2 0-.2-.2t.2-.2q.2 0 .2.2t-.2.2Zm.76 0q-.2 0-.2-.2t.2-.2q.2 0 .2.2t-.2.2Zm2.68-13.1q-.2 0-.2-.2t.2-.2q.2 0 .2.2t-.2.2Zm2.26 1.72q-.2 0-.2-.2t.2-.2q.2 0 .2.2t-.2.2Zm1 1.94q-.2 0-.2-.2t.2-.2q.2 0 .2.2t-.2.2Zm10.26.34q-.2 0-.2-.2t.2-.2q.2 0 .2.2t-.2.2Zm-2.5 8.88q.2 0 .2.2t-.2.2q-.2 0-.2-.2t.2-.2Zm9.32.32q-.2 0-.2-.2t.2-.2q.2 0 .2.2t-.2.2Zm.72 0q-.2 0-.2-.2t.2-.2q.2 0 .2.2t-.2.2Zm1.34-.46q-.2 0-.2-.2t.2-.2q.2 0 .2.2t-.2.2Zm5.24.2q.2 0 .2.2t-.2.2q-.2 0-.2-.2t.2-.2Zm1.64-.28q.2 0 .2.2t-.2.2q-.2 0-.2-.2t.2-.2Zm-3.38.02q.2 0 .2.2t-.2.2q-.2 0-.2-.2t.2-.2ZM.2 10.38q-.2 0-.2-.2t.2-.2q.2 0 .2.2t-.2.2Zm0 .82q-.2 0-.2-.2t.2-.2q.2 0 .2.2t-.2.2Zm0-3.94q-.2 0-.2-.2t.2-.2q.2 0 .2.2t-.2.2Zm0 1.54q-.2 0-.2-.2t.2-.2q.2 0 .2.2t-.2.2Zm0 .8q-.2 0-.2-.2t.2-.2q.2 0 .2.2t-.2.2Zm.66-.62q-.2 0-.2-.2t.2-.2q.2 0 .2.2t-.2.2Zm.7 0q-.2 0-.2-.2t.2-.2q.2 0 .2.2t-.2.2ZM7.72 1.2q.2 0 .2.2t-.2.2q-.2 0-.2-.2t.2-.2Zm1 1.12q.2 0 .2.2t-.2.2q-.2 0-.2-.2t.2-.2Zm10.04 10.82q-.2 0-.2-.2t.2-.2q.2 0 .2.2t-.2.2Zm5.2 1.18q-.2 0-.2-.2t.2-.2q.2 0 .2.2t-.2.2Zm-.56-10.9q-.2 0-.2-.2t.2-.2q.2 0 .2.2t-.2.2Zm0 .78q-.2 0-.2-.2t.2-.2q.2 0 .2.2t-.2.2Zm0-1.58q-.2 0-.2-.2t.2-.2q.2 0 .2.2t-.2.2Zm0 3.24q-.2 0-.2-.2t.2-.2q.2 0 .2.2t-.2.2Zm11.76.08q-.2 0-.2-.2t.2-.2q.2 0 .2.2t-.2.2Zm.56.68q-.2 0-.2-.2t.2-.2q.2 0 .2.2t-.2.2Zm-8.14 1.44q-.2 0-.2-.2t.2-.2q.2 0 .2.2t-.2.2Zm-.24 1.54q-.2 0-.2-.2t.2-.2q.2 0 .2.2t-.2.2Zm.08-.8q-.2 0-.2-.2t.2-.2q.2 0 .2.2t-.2.2Zm7.82 4.14q.2 0 .2.2t-.2.2q-.2 0-.2-.2t.2-.2Zm-7.82-2.96q.2 0 .2.2t-.2.2q-.2 0-.2-.2t.2-.2Zm2.44-.38q-.2 0-.2-.2t.2-.2q.2 0 .2.2t-.2.2Zm-.88 0q-.2 0-.2-.2t.2-.2q.2 0 .2.2t-.2.2Zm10.6-2.04q-.2 0-.2-.2t.2-.2q.2 0 .2.2t-.2.2Zm1 2.32q-.2 0-.2-.2t.2-.2q.2 0 .2.2t-.2.2Zm.32.76q-.2 0-.2-.2t.2-.2q.2 0 .2.2t-.2.2Zm1.36 3.16q-.2 0-.2-.2t.2-.2q.2 0 .2.2t-.2.2Zm-3.92-9.2q-.2 0-.2-.2t.2-.2q.2 0 .2.2t-.2.2Zm8.06 1.48q-.2 0-.2-.2t.2-.2q.2 0 .2.2t-.2.2Zm-2.32 5.36q-.2 0-.2-.2t.2-.2q.2 0 .2.2t-.2.2Zm-1 2.36q-.2 0-.2-.2t.2-.2q.2 0 .2.2t-.2.2Zm9.38-9.2q-.2 0-.2-.2t.2-.2q.2 0 .2.2t-.2.2Zm8.7 8.54q-.2 0-.2-.2t.2-.2q.2 0 .2.2t-.2.2Zm3.72-7.8q-.2 0-.2-.2t.2-.2q.2 0 .2.2t-.2.2Zm.94 2.22q-.2 0-.2-.2t.2-.2q.2 0 .2.2t-.2.2Zm.36.8q-.2 0-.2-.2t.2-.2q.2 0 .2.2t-.2.2Zm.64 1.52q-.2 0-.2-.2t.2-.2q.2 0 .2.2t-.2.2Zm.32.76q-.2 0-.2-.2t.2-.2q.2 0 .2.2t-.2.2Zm.36.8q-.2 0-.2-.2t.2-.2q.2 0 .2.2t-.2.2Zm1 2.36q-.2 0-.2-.2t.2-.2q.2 0 .2.2t-.2.2Zm4.44-8.46q-.2 0-.2-.2t.2-.2q.2 0 .2.2t-.2.2Zm-2.62 6.1q-.2 0-.2-.2t.2-.2q.2 0 .2.2t-.2.2Zm-1 2.36q-.2 0-.2-.2t.2-.2q.2 0 .2.2t-.2.2Zm-1.58 3.66q-.2 0-.2-.2t.2-.2q.2 0 .2.2t-.2.2Zm.62-1.38q-.2 0-.2-.2t.2-.2q.2 0 .2.2t-.2.2Zm12.98-5.7q-.2 0-.2-.2t.2-.2q.2 0 .2.2t-.2.2Zm0 .82q-.2 0-.2-.2t.2-.2q.2 0 .2.2t-.2.2Zm0-3.94q-.2 0-.2-.2t.2-.2q.2 0 .2.2t-.2.2Zm0 1.54q-.2 0-.2-.2t.2-.2q.2 0 .2.2t-.2.2Zm0 .8q-.2 0-.2-.2t.2-.2q.2 0 .2.2t-.2.2Zm7.56-7.92q-.2 0-.2-.2t.2-.2q.2 0 .2.2t-.2.2Zm1.16.86q-.2 0-.2-.2t.2-.2q.2 0 .2.2t-.2.2Zm.92 1.14q-.2 0-.2-.2t.2-.2q.2 0 .2.2t-.2.2Zm.32.66q-.2 0-.2-.2t.2-.2q.2 0 .2.2t-.2.2Zm.44 1.4q-.2 0-.2-.2t.2-.2q.2 0 .2.2t-.2.2Zm.16.7q-.2 0-.2-.2t.2-.2q.2 0 .2.2t-.2.2Zm-1.82 6.48q-.2 0-.2-.2t.2-.2q.2 0 .2.2t-.2.2Zm-.64.5q-.2 0-.2-.2t.2-.2q.2 0 .2.2t-.2.2Zm13-7.48q-.2 0-.2-.2t.2-.2q.2 0 .2.2t-.2.2Zm.56.68q-.2 0-.2-.2t.2-.2q.2 0 .2.2t-.2.2Zm-8.14 1.44q-.2 0-.2-.2t.2-.2q.2 0 .2.2t-.2.2Zm-.24 1.54q-.2 0-.2-.2t.2-.2q.2 0 .2.2t-.2.2Zm.08-.8q-.2 0-.2-.2t.2-.2q.2 0 .2.2t-.2.2Zm0 1.18q.2 0 .2.2t-.2.2q-.2 0-.2-.2t.2-.2Zm12.68-2.58q-.2 0-.2-.2t.2-.2q.2 0 .2.2t-.2.2Zm7.28 1.38q.2 0 .2.2t-.2.2q-.2 0-.2-.2t.2-.2Zm-.68-.22q.2 0 .2.2t-.2.2q-.2 0-.2-.2t.2-.2ZM9.38 14.68q-.2 0-.2-.2t.2-.2q.2 0 .2.2t-.2.2Zm38.76-.08q-.2 0-.2-.2t.2-.2q.2 0 .2.2t-.2.2Zm16.44-10q-.2 0-.2-.2t.2-.2q.2 0 .2.2t-.2.2Zm22.56 9.76q-.2 0-.2-.2t.2-.2q.2 0 .2.2t-.2.2ZM.2 12.84q-.2 0-.2-.2t.2-.2q.2 0 .2.2t-.2.2Zm0-8.82q-.2 0-.2-.2t.2-.2q.2 0 .2.2t-.2.2Zm0 .78q-.2 0-.2-.2t.2-.2q.2 0 .2.2t-.2.2Zm0 .86q-.2 0-.2-.2t.2-.2q.2 0 .2.2t-.2.2ZM.2 1Q0 1 0 .8T.2.6Q.4.6.4.8T.2 1Zm0 .74q-.2 0-.2-.2t.2-.2q.2 0 .2.2t-.2.2Zm0 .76q-.2 0-.2-.2t.2-.2q.2 0 .2.2t-.2.2Zm0 3.96q-.2 0-.2-.2t.2-.2q.2 0 .2.2t-.2.2Zm0 7.18q-.2 0-.2-.2t.2-.2q.2 0 .2.2t-.2.2ZM.86.94q-.2 0-.2-.2t.2-.2q.2 0 .2.2t-.2.2Zm.7 0q-.2 0-.2-.2t.2-.2q.2 0 .2.2t-.2.2Zm5.3 9.9q-.2 0-.2-.2t.2-.2q.2 0 .2.2t-.2.2Zm.44.64q-.2 0-.2-.2t.2-.2q.2 0 .2.2t-.2.2Zm1.64 2.56q-.2 0-.2-.2t.2-.2q.2 0 .2.2t-.2.2Zm5.8-9.36q-.2 0-.2-.2t.2-.2q.2 0 .2.2t-.2.2ZM11.94 11q-.2 0-.2-.2t.2-.2q.2 0 .2.2t-.2.2Zm7.52 0q-.2 0-.2-.2t.2-.2q.2 0 .2.2t-.2.2Zm0 .8q-.2 0-.2-.2t.2-.2q.2 0 .2.2t-.2.2Zm-7.52.8q-.2 0-.2-.2t.2-.2q.2 0 .2.2t-.2.2Zm.34.76q-.2 0-.2-.2t.2-.2q.2 0 .2.2t-.2.2Zm.54.6q-.2 0-.2-.2t.2-.2q.2 0 .2.2t-.2.2ZM14 4.94q-.2 0-.2-.2t.2-.2q.2 0 .2.2t-.2.2Zm-1.4.76q-.2 0-.2-.2t.2-.2q.2 0 .2.2t-.2.2Zm10.8 5.68q-.2 0-.2-.2t.2-.2q.2 0 .2.2t-.2.2Zm0 .8q-.2 0-.2-.2t.2-.2q.2 0 .2.2t-.2.2Zm6.88-7.26q-.2 0-.2-.2t.2-.2q.2 0 .2.2t-.2.2Zm-.78.46q-.2 0-.2-.2t.2-.2q.2 0 .2.2t-.2.2Zm-.64.56q-.2 0-.2-.2t.2-.2q.2 0 .2.2t-.2.2Zm-.56.68q-.2 0-.2-.2t.2-.2q.2 0 .2.2t-.2.2Zm6.3 6.88q.2 0 .2.2t-.2.2q-.2 0-.2-.2t.2-.2Zm1.2-1.24q.2 0 .2.2t-.2.2q-.2 0-.2-.2t.2-.2Zm2.84-6.92q-.2 0-.2-.2t.2-.2q.2 0 .2.2t-.2.2Zm.3.74q-.2 0-.2-.2t.2-.2q.2 0 .2.2t-.2.2Zm7.78 5.36q-.2 0-.2-.2t.2-.2q.2 0 .2.2t-.2.2Zm.64 1.6q-.2 0-.2-.2t.2-.2q.2 0 .2.2t-.2.2Zm.36.76q-.2 0-.2-.2t.2-.2q.2 0 .2.2t-.2.2Zm1.82-2.36q-.2 0-.2-.2t.2-.2q.2 0 .2.2t-.2.2Zm-.64 1.6q-.2 0-.2-.2t.2-.2q.2 0 .2.2t-.2.2Zm-.36.76q-.2 0-.2-.2t.2-.2q.2 0 .2.2t-.2.2Zm8.6-9.12q-.2 0-.2-.2t.2-.2q.2 0 .2.2t-.2.2ZM54.34 11q-.2 0-.2-.2t.2-.2q.2 0 .2.2t-.2.2Zm7.52 0q-.2 0-.2-.2t.2-.2q.2 0 .2.2t-.2.2Zm0 .8q-.2 0-.2-.2t.2-.2q.2 0 .2.2t-.2.2Zm-7.52.8q-.2 0-.2-.2t.2-.2q.2 0 .2.2t-.2.2Zm.34.76q-.2 0-.2-.2t.2-.2q.2 0 .2.2t-.2.2Zm.54.6q-.2 0-.2-.2t.2-.2q.2 0 .2.2t-.2.2Zm1.18-9.02q-.2 0-.2-.2t.2-.2q.2 0 .2.2t-.2.2ZM55 5.7q-.2 0-.2-.2t.2-.2q.2 0 .2.2t-.2.2Zm10.18.38q-.2 0-.2-.2t.2-.2q.2 0 .2.2t-.2.2Zm1.66 12.58q-.2 0-.2-.2t.2-.2q.2 0 .2.2t-.2.2Zm14.5-5.82q-.2 0-.2-.2t.2-.2q.2 0 .2.2t-.2.2Zm0-8.82q-.2 0-.2-.2t.2-.2q.2 0 .2.2t-.2.2Zm0 .78q-.2 0-.2-.2t.2-.2q.2 0 .2.2t-.2.2Zm0 .86q-.2 0-.2-.2t.2-.2q.2 0 .2.2t-.2.2Zm0-4.66q-.2 0-.2-.2t.2-.2q.2 0 .2.2t-.2.2Zm0 .74q-.2 0-.2-.2t.2-.2q.2 0 .2.2t-.2.2Zm0 .76q-.2 0-.2-.2t.2-.2q.2 0 .2.2t-.2.2Zm0 3.96q-.2 0-.2-.2t.2-.2q.2 0 .2.2t-.2.2Zm0 7.18q-.2 0-.2-.2t.2-.2q.2 0 .2.2t-.2.2Zm6.64.52q-.2 0-.2-.2t.2-.2q.2 0 .2.2t-.2.2ZM82 .94q-.2 0-.2-.2t.2-.2q.2 0 .2.2t-.2.2Zm.7 0q-.2 0-.2-.2t.2-.2q.2 0 .2.2t-.2.2Zm6.04 12.9q-.2 0-.2-.2t.2-.2q.2 0 .2.2t-.2.2Zm2.32-2.28q-.2 0-.2-.2t.2-.2q.2 0 .2.2t-.2.2Zm-.42.74q-.2 0-.2-.2t.2-.2q.2 0 .2.2t-.2.2Zm6.92-7.38q-.2 0-.2-.2t.2-.2q.2 0 .2.2t-.2.2Zm-.78.46q-.2 0-.2-.2t.2-.2q.2 0 .2.2t-.2.2Zm-.64.56q-.2 0-.2-.2t.2-.2q.2 0 .2.2t-.2.2Zm-.56.68q-.2 0-.2-.2t.2-.2q.2 0 .2.2t-.2.2Zm6.22 6.78q.2 0 .2.2t-.2.2q-.2 0-.2-.2t.2-.2Zm.64-.56q.2 0 .2.2t-.2.2q-.2 0-.2-.2t.2-.2Zm.98-1.38q.2 0 .2.2t-.2.2q-.2 0-.2-.2t.2-.2Zm.3-.74q.2 0 .2.2t-.2.2q-.2 0-.2-.2t.2-.2Zm-.72 1.44q.2 0 .2.2t-.2.2q-.2 0-.2-.2t.2-.2Zm4.38-8.7q-.2 0-.2-.2t.2-.2q.2 0 .2.2t-.2.2Zm0 .84q-.2 0-.2-.2t.2-.2q.2 0 .2.2t-.2.2Zm0-1.64q-.2 0-.2-.2t.2-.2q.2 0 .2.2t-.2.2Zm0 3.2q-.2 0-.2-.2t.2-.2q.2 0 .2.2t-.2.2Zm-.86-1.2q-.2 0-.2-.2t.2-.2q.2 0 .2.2t-.2.2Zm-.74 0q-.2 0-.2-.2t.2-.2q.2 0 .2.2t-.2.2Zm3.12 0q-.2 0-.2-.2t.2-.2q.2 0 .2.2t-.2.2Zm5.2.26q-.2 0-.2-.2t.2-.2q.2 0 .2.2t-.2.2Zm-.66.42q-.2 0-.2-.2t.2-.2q.2 0 .2.2t-.2.2Zm6.04 6.42q.2 0 .2.2t-.2.2q-.2 0-.2-.2t.2-.2Zm-.16.8q.2 0 .2.2t-.2.2q-.2 0-.2-.2t.2-.2Zm-6.56.78q.2 0 .2.2t-.2.2q-.2 0-.2-.2t.2-.2ZM.2 14.44q-.2 0-.2-.2t.2-.2q.2 0 .2.2t-.2.2Zm11.58-2.64q-.2 0-.2-.2t.2-.2q.2 0 .2.2t-.2.2Zm1.72 2.62q-.2 0-.2-.2t.2-.2q.2 0 .2.2t-.2.2Zm9.9-1.44q-.2 0-.2-.2t.2-.2q.2 0 .2.2t-.2.2Zm.12.76q-.2 0-.2-.2t.2-.2q.2 0 .2.2t-.2.2Zm1.08.88q-.2 0-.2-.2t.2-.2q.2 0 .2.2t-.2.2Zm29.58-2.82q-.2 0-.2-.2t.2-.2q.2 0 .2.2t-.2.2Zm1.72 2.62q-.2 0-.2-.2t.2-.2q.2 0 .2.2t-.2.2Zm25.44.02q-.2 0-.2-.2t.2-.2q.2 0 .2.2t-.2.2Zm1.36.04q-.2 0-.2-.2t.2-.2q.2 0 .2.2t-.2.2Zm25.24-.16q-.2 0-.2-.2t.2-.2q.2 0 .2.2t-.2.2Zm7.08-.06q.2 0 .2.2t-.2.2q-.2 0-.2-.2t.2-.2ZM.2 12.02q-.2 0-.2-.2t.2-.2q.2 0 .2.2t-.2.2Zm4.16-3.04q-.2 0-.2-.2t.2-.2q.2 0 .2.2t-.2.2Zm13.6.42q-.2 0-.2-.2t.2-.2q.2 0 .2.2t-.2.2Zm-.84-.24q-.2 0-.2-.2t.2-.2q.2 0 .2.2t-.2.2Zm-2.88 5.5q-.2 0-.2-.2t.2-.2q.2 0 .2.2t-.2.2Zm11.1-.08q-.2 0-.2-.2t.2-.2q.2 0 .2.2t-.2.2Zm4.94-.72q.2 0 .2.2t-.2.2q-.2 0-.2-.2t.2-.2Zm-.78-.46q.2 0 .2.2t-.2.2q-.2 0-.2-.2t.2-.2Zm-.64-.56q.2 0 .2.2t-.2.2q-.2 0-.2-.2t.2-.2Zm-.98-1.38q.2 0 .2.2t-.2.2q-.2 0-.2-.2t.2-.2Zm-.3-.74q.2 0 .2.2t-.2.2q-.2 0-.2-.2t.2-.2Zm.72 1.44q.2 0 .2.2t-.2.2q-.2 0-.2-.2t.2-.2Zm5.88-2.56q-.2 0-.2-.2t.2-.2q.2 0 .2.2t-.2.2Zm7.08 1.84q-.2 0-.2-.2t.2-.2q.2 0 .2.2t-.2.2Zm4.14-3.08q-.2 0-.2-.2t.2-.2q.2 0 .2.2t-.2.2Zm-.64 1.52q-.2 0-.2-.2t.2-.2q.2 0 .2.2t-.2.2Zm-.32.76q-.2 0-.2-.2t.2-.2q.2 0 .2.2t-.2.2Zm-.68 1.62q-.2 0-.2-.2t.2-.2q.2 0 .2.2t-.2.2Zm16.6-2.86q-.2 0-.2-.2t.2-.2q.2 0 .2.2t-.2.2Zm-.84-.24q-.2 0-.2-.2t.2-.2q.2 0 .2.2t-.2.2Zm-2.88 5.5q-.2 0-.2-.2t.2-.2q.2 0 .2.2t-.2.2Zm9.88-5.5q-.2 0-.2-.2t.2-.2q.2 0 .2.2t-.2.2Zm4.16 1.48q-.2 0-.2-.2t.2-.2q.2 0 .2.2t-.2.2Zm-3.3 7.5q-.2 0-.2-.2t.2-.2q.2 0 .2.2t-.2.2Zm13.96-6.12q-.2 0-.2-.2t.2-.2q.2 0 .2.2t-.2.2Zm.66 2.46q-.2 0-.2-.2t.2-.2q.2 0 .2.2t-.2.2Zm15.56-.62q.2 0 .2.2t-.2.2q-.2 0-.2-.2t.2-.2Zm-.78-.46q.2 0 .2.2t-.2.2q-.2 0-.2-.2t.2-.2Zm-.64-.56q.2 0 .2.2t-.2.2q-.2 0-.2-.2t.2-.2Zm-.98-1.38q.2 0 .2.2t-.2.2q-.2 0-.2-.2t.2-.2Zm-.3-.74q.2 0 .2.2t-.2.2q-.2 0-.2-.2t.2-.2Zm.72 1.44q.2 0 .2.2t-.2.2q-.2 0-.2-.2t.2-.2Zm11.8-.78q-.2 0-.2-.2t.2-.2q.2 0 .2.2t-.2.2Zm0 .8q-.2 0-.2-.2t.2-.2q.2 0 .2.2t-.2.2Zm0 .8q-.2 0-.2-.2t.2-.2q.2 0 .2.2t-.2.2Zm.12.76q-.2 0-.2-.2t.2-.2q.2 0 .2.2t-.2.2Zm5.94.02q.2 0 .2.2t-.2.2q-.2 0-.2-.2t.2-.2Zm4.84-3.94q.2 0 .2.2t-.2.2q-.2 0-.2-.2t.2-.2Zm-1.42-.5q.2 0 .2.2t-.2.2q-.2 0-.2-.2t.2-.2Zm-1.48-.36q.2 0 .2.2t-.2.2q-.2 0-.2-.2t.2-.2ZM5.06.92q-.2 0-.2-.2t.2-.2q.2 0 .2.2t-.2.2Zm10.48 3.62q-.2 0-.2-.2t.2-.2q.2 0 .2.2t-.2.2Zm2.96 1q-.2 0-.2-.2t.2-.2q.2 0 .2.2t-.2.2Zm4.9 5.04q-.2 0-.2-.2t.2-.2q.2 0 .2.2t-.2.2Zm0-1.58q-.2 0-.2-.2t.2-.2q.2 0 .2.2t-.2.2Zm9.54-4.34q-.2 0-.2-.2t.2-.2q.2 0 .2.2t-.2.2Zm11.16.68q-.2 0-.2-.2t.2-.2q.2 0 .2.2t-.2.2Zm13.84-.8q-.2 0-.2-.2t.2-.2q.2 0 .2.2t-.2.2Zm2.96 1q-.2 0-.2-.2t.2-.2q.2 0 .2.2t-.2.2ZM72.32 6.8q-.2 0-.2-.2t.2-.2q.2 0 .2.2t-.2.2ZM66.1 18.86q-.2 0-.2-.2t.2-.2q.2 0 .2.2t-.2.2ZM86.2.96q-.2 0-.2-.2t.2-.2q.2 0 .2.2t-.2.2Zm14.02 3.7q-.2 0-.2-.2t.2-.2q.2 0 .2.2t-.2.2Zm9.48 0q-.2 0-.2-.2t.2-.2q.2 0 .2.2t-.2.2Zm2.48 8.18q.2 0 .2.2t-.2.2q-.2 0-.2-.2t.2-.2ZM4.36.92q-.2 0-.2-.2t.2-.2q.2 0 .2.2t-.2.2Zm2.8 7.38q.2 0 .2.2t-.2.2q-.2 0-.2-.2t.2-.2Zm1.6-1.46q.2 0 .2.2t-.2.2q-.2 0-.2-.2t.2-.2Zm10.68.9q-.2 0-.2-.2t.2-.2q.2 0 .2.2t-.2.2Zm-7 2.46q-.2 0-.2-.2t.2-.2q.2 0 .2.2t-.2.2Zm7.02 0q-.2 0-.2-.2t.2-.2q.2 0 .2.2t-.2.2Zm3.94-.42q-.2 0-.2-.2t.2-.2q.2 0 .2.2t-.2.2Zm0-3.12q-.2 0-.2-.2t.2-.2q.2 0 .2.2t-.2.2Zm0 1.54q-.2 0-.2-.2t.2-.2q.2 0 .2.2t-.2.2Zm10.34-3.28q-.2 0-.2-.2t.2-.2q.2 0 .2.2t-.2.2Zm2.4 2.4q-.2 0-.2-.2t.2-.2q.2 0 .2.2t-.2.2Zm.44 1.5q-.2 0-.2-.2t.2-.2q.2 0 .2.2t-.2.2Zm-5.5-4.16q-.2 0-.2-.2t.2-.2q.2 0 .2.2t-.2.2ZM44.4 6.08q-.2 0-.2-.2t.2-.2q.2 0 .2.2t-.2.2Zm7.14.72q-.2 0-.2-.2t.2-.2q.2 0 .2.2t-.2.2Zm-1.02 2.36q-.2 0-.2-.2t.2-.2q.2 0 .2.2t-.2.2Zm11.32-1.42q-.2 0-.2-.2t.2-.2q.2 0 .2.2t-.2.2Zm-7 2.46q-.2 0-.2-.2t.2-.2q.2 0 .2.2t-.2.2Zm7.02 0q-.2 0-.2-.2t.2-.2q.2 0 .2.2t-.2.2Zm3.64-3.4q-.2 0-.2-.2t.2-.2q.2 0 .2.2t-.2.2Zm5.8 2.36q-.2 0-.2-.2t.2-.2q.2 0 .2.2t-.2.2ZM85.5.94q-.2 0-.2-.2t.2-.2q.2 0 .2.2t-.2.2Zm6.48 7.76q-.2 0-.2-.2t.2-.2q.2 0 .2.2t-.2.2Zm9.04-3.78q-.2 0-.2-.2t.2-.2q.2 0 .2.2t-.2.2Zm2.4 2.4q-.2 0-.2-.2t.2-.2q.2 0 .2.2t-.2.2Zm.44 1.5q-.2 0-.2-.2t.2-.2q.2 0 .2.2t-.2.2Zm-5.5-4.16q-.2 0-.2-.2t.2-.2q.2 0 .2.2t-.2.2Zm17.38-.16q-.2 0-.2-.2t.2-.2q.2 0 .2.2t-.2.2Zm.84.02q-.2 0-.2-.2t.2-.2q.2 0 .2.2t-.2.2Zm.2 9.74q.2 0 .2.2t-.2.2q-.2 0-.2-.2t.2-.2Zm2.08-1.04q.2 0 .2.2t-.2.2q-.2 0-.2-.2t.2-.2Zm-101.4.9q-.2 0-.2-.2t.2-.2q.2 0 .2.2t-.2.2Zm8.56.28q-.2 0-.2-.2t.2-.2q.2 0 .2.2t-.2.2Zm16.66.2q-.2 0-.2-.2t.2-.2q.2 0 .2.2t-.2.2Zm17.18-.48q-.2 0-.2-.2t.2-.2q.2 0 .2.2t-.2.2Zm8.28-1.08q-.2 0-.2-.2t.2-.2q.2 0 .2.2t-.2.2Zm1.54 0q-.2 0-.2-.2t.2-.2q.2 0 .2.2t-.2.2Zm-1 2.32q-.2 0-.2-.2t.2-.2q.2 0 .2.2t-.2.2Zm17.68-.9q-.2 0-.2-.2t.2-.2q.2 0 .2.2t-.2.2Zm13.86-.34q.2 0 .2.2t-.2.2q-.2 0-.2-.2t.2-.2Zm.8-.26q.2 0 .2.2t-.2.2q-.2 0-.2-.2t.2-.2Zm-2.66.26q.2 0 .2.2t-.2.2q-.2 0-.2-.2t.2-.2Zm11.68.28q-.2 0-.2-.2t.2-.2q.2 0 .2.2t-.2.2Zm8.2-.66q.2 0 .2.2t-.2.2q-.2 0-.2-.2t.2-.2Zm-5.38-5.98q.2 0 .2.2t-.2.2q-.2 0-.2-.2t.2-.2ZM.2 8Q0 8 0 7.8t.2-.2q.2 0 .2.2T.2 8Zm14.46 1.12q-.2 0-.2-.2t.2-.2q.2 0 .2.2t-.2.2Zm-1.56.58q-.2 0-.2-.2t.2-.2q.2 0 .2.2t-.2.2Zm14.78-2.38q-.2 0-.2-.2t.2-.2q.2 0 .2.2t-.2.2Zm11.38-.52q-.2 0-.2-.2t.2-.2q.2 0 .2.2t-.2.2Zm1.02 2.36q-.2 0-.2-.2t.2-.2q.2 0 .2.2t-.2.2Zm1.62 3.88q-.2 0-.2-.2t.2-.2q.2 0 .2.2t-.2.2Zm1.54 0q-.2 0-.2-.2t.2-.2q.2 0 .2.2t-.2.2Zm13.62-3.92q-.2 0-.2-.2t.2-.2q.2 0 .2.2t-.2.2Zm-1.56.58q-.2 0-.2-.2t.2-.2q.2 0 .2.2t-.2.2ZM81.34 8q-.2 0-.2-.2t.2-.2q.2 0 .2.2t-.2.2Zm13.82-.68q-.2 0-.2-.2t.2-.2q.2 0 .2.2t-.2.2Zm12.22 2.46q-.2 0-.2-.2t.2-.2q.2 0 .2.2t-.2.2Zm0 .8q-.2 0-.2-.2t.2-.2q.2 0 .2.2t-.2.2Zm0-3.92q-.2 0-.2-.2t.2-.2q.2 0 .2.2t-.2.2Zm0 1.54q-.2 0-.2-.2t.2-.2q.2 0 .2.2t-.2.2Zm0 .8q-.2 0-.2-.2t.2-.2q.2 0 .2.2t-.2.2Zm5.3-2.26q-.2 0-.2-.2t.2-.2q.2 0 .2.2t-.2.2Zm6.26 3.52q.2 0 .2.2t-.2.2q-.2 0-.2-.2t.2-.2Zm-5.6-2q.2 0 .2.2t-.2.2q-.2 0-.2-.2t.2-.2Zm-.68-1.16q.2 0 .2.2t-.2.2q-.2 0-.2-.2t.2-.2Zm-67.94-.3q-.2 0-.2-.2t.2-.2q.2 0 .2.2t-.2.2Zm71.4 2.34q.2 0 .2.2t-.2.2q-.2 0-.2-.2t.2-.2ZM6.46 1.02q-.2 0-.2-.2t.2-.2q.2 0 .2.2t-.2.2Zm.66.22q-.2 0-.2-.2t.2-.2q.2 0 .2.2t-.2.2Zm1.16.46q.2 0 .2.2t-.2.2q-.2 0-.2-.2t.2-.2Zm1 2.08q.2 0 .2.2t-.2.2q-.2 0-.2-.2t.2-.2Zm0 1.6q.2 0 .2.2t-.2.2q-.2 0-.2-.2t.2-.2Zm9.7.82q-.2 0-.2-.2t.2-.2q.2 0 .2.2t-.2.2Zm-.24 3.5q-.2 0-.2-.2t.2-.2q.2 0 .2.2t-.2.2Zm-2.4-.62q-.2 0-.2-.2t.2-.2q.2 0 .2.2t-.2.2Zm20.34.52q-.2 0-.2-.2t.2-.2q.2 0 .2.2t-.2.2ZM35 9.6q-.2 0-.2-.2t.2-.2q.2 0 .2.2t-.2.2Zm10.06-.44q-.2 0-.2-.2t.2-.2q.2 0 .2.2t-.2.2ZM47 4.6q-.2 0-.2-.2t.2-.2q.2 0 .2.2t-.2.2Zm5.16.74q-.2 0-.2-.2t.2-.2q.2 0 .2.2t-.2.2Zm-2.26 5.3q-.2 0-.2-.2t.2-.2q.2 0 .2.2t-.2.2ZM61.38 6.2q-.2 0-.2-.2t.2-.2q.2 0 .2.2t-.2.2Zm-.24 3.5q-.2 0-.2-.2t.2-.2q.2 0 .2.2t-.2.2Zm-2.4-.62q-.2 0-.2-.2t.2-.2q.2 0 .2.2t-.2.2Zm45.22.52q-.2 0-.2-.2t.2-.2q.2 0 .2.2t-.2.2ZM9.38 4.58q.2 0 .2.2t-.2.2q-.2 0-.2-.2t.2-.2Zm-.84 8.82q-.2 0-.2-.2t.2-.2q.2 0 .2.2t-.2.2Zm11.02 0q-.2 0-.2-.2t.2-.2q.2 0 .2.2t-.2.2Zm3.84-8.34q-.2 0-.2-.2t.2-.2q.2 0 .2.2t-.2.2Zm0-4.66q-.2 0-.2-.2t.2-.2q.2 0 .2.2t-.2.2Zm0 .74q-.2 0-.2-.2t.2-.2q.2 0 .2.2t-.2.2Zm0 .76q-.2 0-.2-.2t.2-.2q.2 0 .2.2t-.2.2Zm38.56 11.5q-.2 0-.2-.2t.2-.2q.2 0 .2.2t-.2.2ZM89.52 2.06q-.2 0-.2-.2t.2-.2q.2 0 .2.2t-.2.2Zm-81.4 10.7q-.2 0-.2-.2t.2-.2q.2 0 .2.2t-.2.2Zm11.7 1.34q-.2 0-.2-.2t.2-.2q.2 0 .2.2t-.2.2Zm.5.5q-.2 0-.2-.2t.2-.2q.2 0 .2.2t-.2.2Zm41.9-.5q-.2 0-.2-.2t.2-.2q.2 0 .2.2t-.2.2Zm.5.5q-.2 0-.2-.2t.2-.2q.2 0 .2.2t-.2.2ZM.2 3.22q-.2 0-.2-.2t.2-.2q.2 0 .2.2t-.2.2Zm7.5 8.9q-.2 0-.2-.2t.2-.2q.2 0 .2.2t-.2.2Zm11.7.48q-.2 0-.2-.2t.2-.2q.2 0 .2.2t-.2.2Zm42.4 0q-.2 0-.2-.2t.2-.2q.2 0 .2.2t-.2.2Zm19.54-9.38q-.2 0-.2-.2t.2-.2q.2 0 .2.2t-.2.2Zm26.04 1.84q-.2 0-.2-.2t.2-.2q.2 0 .2.2t-.2.2Zm0-3.92q-.2 0-.2-.2t.2-.2q.2 0 .2.2t-.2.2Zm0 .76q-.2 0-.2-.2t.2-.2q.2 0 .2.2t-.2.2Zm5.58 4.08q-.2 0-.2-.2t.2-.2q.2 0 .2.2t-.2.2Zm6.42 4.94q.2 0 .2.2t-.2.2q-.2 0-.2-.2t.2-.2Zm-27.96-.04q-.2 0-.2-.2t.2-.2q.2 0 .2.2t-.2.2Zm23.48-6.24q-.2 0-.2-.2t.2-.2q.2 0 .2.2t-.2.2ZM7.78 7.92q.2 0 .2.2t-.2.2q-.2 0-.2-.2t.2-.2ZM6.46 10.2q-.2 0-.2-.2t.2-.2q.2 0 .2.2t-.2.2Zm13.02-1.66q-.2 0-.2-.2t.2-.2q.2 0 .2.2t-.2.2Zm26.6-1.74q-.2 0-.2-.2t.2-.2q.2 0 .2.2t-.2.2Zm-.34 2.36q-.2 0-.2-.2t.2-.2q.2 0 .2.2t-.2.2Zm16.14-.62q-.2 0-.2-.2t.2-.2q.2 0 .2.2t-.2.2ZM92 7.96q-.2 0-.2-.2t.2-.2q.2 0 .2.2t-.2.2Zm27.2-2.24q-.2 0-.2-.2t.2-.2q.2 0 .2.2t-.2.2ZM87.6 1.14q-.2 0-.2-.2t.2-.2q.2 0 .2.2t-.2.2Z" vector-effect="non-scaling-stroke" stroke-linecap="round" fill-rule="evenodd" font-size="12" stroke="#000" stroke-width=".94" fill="none" style="stroke:#000;stroke-width:.25mm;fill:none"/></svg>