<svg width="73.76" height="19.46" xmlns="http://www.w3.org/2000/svg"><path d="m47.86 14.02 4.28-9.8h.44L48.04 14.6h-.36l-2.54-5.82-2.54 5.82h-.36L37.7 4.22h.44l4.28 9.8 2.5-5.74-1.74-4.04h.42l1.54 3.52 1.54-3.52h.42l-1.74 4.04 2.5 5.74ZM.4 14.6H0V.4h5.78q.88 0 1.61.37.73.37 1.26.99t.83 1.38q.3.76.3 1.56 0 1.1-.46 2.05-.46.95-1.27 1.57-.81.62-1.89.7l3.6 5.58h-.48l-3.6-5.58H.4v5.58Zm65.2 4.46v-.4q.34 0 .59-.03.25-.03.35-.17.08-.1.22-.39l.49-1.09 1.03-2.38-4.82-10.38h.44l4.58 9.88 4.34-9.88h.44l-6.18 14.1q-.08.18-.18.31-.1.13-.21.21-.11.08-.27.12l-.39.07q-.21.03-.43.03ZM36.78 9.64h-9.5q.1 1.34.74 2.42.64 1.08 1.66 1.71 1.02.63 2.22.63 1.2 0 2.24-.61 1.04-.61 1.48-1.57l.38.1q-.28.7-.91 1.27-.63.57-1.47.89-.84.32-1.74.32-1.02 0-1.93-.43-.91-.43-1.6-1.18-.69-.75-1.08-1.74-.39-.99-.39-2.11 0-1.46.66-2.66.66-1.2 1.77-1.91 1.11-.71 2.47-.71 1.38 0 2.51.72t1.81 1.93q.68 1.21.68 2.71v.22Zm-17.52-.4V8.06q0-1.62-.93-2.61-.93-.99-2.47-.99-.74 0-1.61.33-.87.33-1.75.95l-.24-.32q1-.68 1.9-1.02.9-.34 1.7-.34 1.74 0 2.77 1.08t1.03 2.92v5.74q0 .2.09.3.09.1.23.1v.4l-.18-.01-.1-.03q-.2-.08-.32-.29-.12-.21-.12-.47v-.96q-.72.92-1.88 1.44-1.16.52-2.52.52-.94 0-1.7-.42t-1.21-1.15q-.45-.73-.45-1.61 0-.88.55-1.54t1.51-1.04q.96-.38 2.22-.38.88 0 1.81.15t1.67.43Zm42.1 0V8.06q0-1.62-.93-2.61-.93-.99-2.47-.99-.74 0-1.61.33-.87.33-1.75.95l-.24-.32q1-.68 1.9-1.02.9-.34 1.7-.34 1.74 0 2.77 1.08t1.03 2.92v5.74q0 .2.09.3.09.1.23.1v.4l-.18-.01-.1-.03q-.2-.08-.32-.29-.12-.21-.12-.47v-.96q-.72.92-1.88 1.44-1.16.52-2.52.52-.94 0-1.7-.42t-1.21-1.15q-.45-.73-.45-1.61 0-.88.55-1.54t1.51-1.04q.96-.38 2.22-.38.88 0 1.81.15t1.67.43ZM23 13.06V0h.4v13.06q0 .58.36.92.36.34.96.34.22 0 .53-.05.31-.05.57-.13l.14.32q-.26.08-.68.16-.42.08-.7.08-.7 0-1.14-.45-.44-.45-.44-1.19ZM.4.8v7.82h5.52q1.08 0 1.85-.57t1.19-1.47q.42-.9.42-1.88 0-1.02-.48-1.91-.48-.89-1.3-1.44Q6.78.8 5.78.8H.4Zm26.88 8.44h9.08q-.08-1.4-.7-2.47-.62-1.07-1.62-1.69-1-.62-2.24-.62-1.22 0-2.22.62-1 .62-1.61 1.7-.61 1.08-.69 2.46Zm-8.02 2.5V9.68q-.8-.32-1.67-.47-.87-.15-1.81-.15-1.74 0-2.81.7t-1.07 1.86q0 .78.39 1.41.39.63 1.07 1t1.5.37q1.34 0 2.45-.5t1.65-1.34q.16-.22.23-.43t.07-.39Zm42.1 0V9.68q-.8-.32-1.67-.47-.87-.15-1.81-.15-1.74 0-2.81.7T54 11.62q0 .78.39 1.41.39.63 1.07 1t1.5.37q1.34 0 2.45-.5t1.65-1.34q.16-.22.23-.43t.07-.39Z" vector-effect="non-scaling-stroke" stroke-linecap="round" fill-rule="evenodd" font-size="12" stroke="#000" stroke-width=".94" fill="none" style="stroke:#000;stroke-width:.25mm;fill:none"/></svg>