<svg width="160.94" height="20.87" xmlns="http://www.w3.org/2000/svg"><path d="m89.2.82 4.44-.36.1-.02q.22 0 .36.16a.52.52 0 0 1 .15.36.5.5 0 0 1-.12.33q-.12.15-.3.18l-1.34.17a55.9 55.9 0 0 0 .18 1.15 105.27 105.27 0 0 1 .27 1.69 255.77 255.77 0 0 1 .3 2.06l.3 2.27a70.2 70.2 0 0 1 .43 4.41h.97l.65.01q.23.01.37.15.15.14.15.36a.49.49 0 0 1-.16.37.5.5 0 0 1-.35.14.7.7 0 0 1-.03 0l-.49-.01h-.5a31.67 31.67 0 0 0-5.48.48H89q-.22 0-.36-.16a.5.5 0 0 1-.13-.33.53.53 0 0 1 .11-.33.6.6 0 0 1 .4-.2q.64-.13 1.41-.22-.4-6.19-1.4-10.62a170.59 170.59 0 0 0-3.66 10.16l-.32.97a5.54 5.54 0 0 0-.13.4q-.1.33-.48.33-.33 0-.45-.26L79.25 5.2q-.76 5.74-.86 8.14a3.6 3.6 0 0 1 2.03.4.56.56 0 0 1 .1.36.4.4 0 0 1-.17.34q-.17.12-.32.12h-.1q-1.14-.21-2.15-.21a9.28 9.28 0 0 0-1.71.13h-.08a.49.49 0 0 1-.37-.15.5.5 0 0 1-.15-.36q0-.43.42-.51a14.1 14.1 0 0 1 1.45-.14 70.17 70.17 0 0 1 1.19-9.65q.21-1.2.48-2.35-1.17-.04-2.14-.31-.38-.11-.38-.41t.16-.45a.45.45 0 0 1 .28-.15h.14l.32.08q.83.22 1.9.22l.7-.02a.54.54 0 0 1 .46.26l4.98 9.16a67.16 67.16 0 0 1 3.32-8.64.48.48 0 0 1 .44-.24ZM52.52 4.18h.06a19.04 19.04 0 0 0 2.42.14 19.5 19.5 0 0 0 2.44-.14h.06q.23 0 .37.16a.52.52 0 0 1 .15.36.5.5 0 0 1-.13.34q-.13.15-.32.17a8.01 8.01 0 0 1-.38.04 20.14 20.14 0 0 0-.37.03 361.52 361.52 0 0 0-.2.77 89.55 89.55 0 0 1-.28 1.13 307.41 307.41 0 0 0-.36 1.38l-.4 1.5a105.3 105.3 0 0 1-.41 1.54 73.04 73.04 0 0 1-.42 1.44q-.43 1.46-.77 2.28-.34.82-.89 1.74a8.3 8.3 0 0 1-1.27 1.62 4.93 4.93 0 0 1-3.56 1.58 3.76 3.76 0 0 1-2.36-.72 2.53 2.53 0 0 1-1.03-2.1 2.77 2.77 0 0 1 .48-1.65 1.65 1.65 0 0 1 1.4-.75 1.68 1.68 0 0 1 1.24.5 1.68 1.68 0 0 1 .5 1.24 1.73 1.73 0 0 1-.5 1.24 1.66 1.66 0 0 1-1.23.5q-.3 0-.6-.1a1.37 1.37 0 0 0 1.04.62 1.65 1.65 0 0 0 .94-.26q.39-.26.73-.67.35-.4.64-.91.3-.51.53-1.02a14.4 14.4 0 0 0 .74-1.77 44.49 44.49 0 0 1 .28-.88 19.18 19.18 0 0 1-2.72-5.03q-.57-1.62-.62-2.98-1.6 0-1.82-.24a.5.5 0 0 1-.14-.35.47.47 0 0 1 .16-.35q.16-.16.36-.16h.06q.55.08 1.27.08a12.77 12.77 0 0 0 1.93-.1 6.58 6.58 0 0 1 .73-.1.41.41 0 0 1 .28.16q.16.17.16.35a.5.5 0 0 1-.13.34.68.68 0 0 1-.42.2q-.72.09-1.42.15.05 1.82 1.32 4.44a17.93 17.93 0 0 0 1.38 2.35 141.4 141.4 0 0 0 1.84-7 13.56 13.56 0 0 0-.4-.04 7.97 7.97 0 0 1-.41-.04q-.2-.02-.33-.17a.52.52 0 0 1-.14-.36.45.45 0 0 1 .17-.36.53.53 0 0 1 .35-.14Zm92.15.3h.04q1.22.08 2.37.08a22.26 22.26 0 0 0 2.7-.2l.1-.01q.22 0 .36.16a.54.54 0 0 1 .13.35.5.5 0 0 1-.12.34q-.12.14-.35.18l-.5.06-.57.06q.59 3.28 1.96 5.72 1.4-3.1 1.62-5.52a.45.45 0 0 1 .18-.34.54.54 0 0 1 .33-.12q.38 0 .49.37 1 3.08 2.72 5.77a17.74 17.74 0 0 0 .89-3.12 123.93 123.93 0 0 0 .5-2.72q-.67 0-1.1-.07-.41-.07-.54-.21a.5.5 0 0 1-.13-.35.47.47 0 0 1 .17-.35q.16-.16.35-.16a6.8 6.8 0 0 0 1.56.14 11.65 11.65 0 0 0 2.08-.2q.2 0 .37.17a.5.5 0 0 1 .15.34.5.5 0 0 1-.13.34 3.1 3.1 0 0 1-1.77.35q-.75 4.81-1.87 7.2a22.8 22.8 0 0 1-1.23 2.2.51.51 0 0 1-.42.25q-.23 0-.42-.21-1.65-2.06-2.58-3.97a33.45 33.45 0 0 1-1.98 3.81q-.16.24-.43.24a.5.5 0 0 1-.43-.22 20.23 20.23 0 0 1-3.32-7.18 14.44 14.44 0 0 1-.38-2.1l-.43-.03a5.78 5.78 0 0 1-.42-.04q-.2-.02-.34-.17-.13-.14-.13-.35a.42.42 0 0 1 .17-.35.55.55 0 0 1 .35-.14ZM13.06 11.06l-.02-.3q0-.22.16-.36a.54.54 0 0 1 .36-.14.5.5 0 0 1 .34.14q.14.13.16.32l.02.34q0 1.62-.91 2.62a3.16 3.16 0 0 1-2.46 1.04h-.03a3.33 3.33 0 0 1-3.32-2.68q-.32-1.03-.32-2.32l.02-.66a11.23 11.23 0 0 1-1.66-.13l-.14 5.05q0 .24-.16.37-.15.13-.36.13-2.29 0-4.16.24H.52q-.23 0-.37-.16a.48.48 0 0 1-.15-.34.52.52 0 0 1 .12-.34.61.61 0 0 1 .4-.19 10.84 10.84 0 0 1 .66-.07 235.68 235.68 0 0 0 .74-.06l.22-12.04-1.48.3a.37.37 0 0 1-.22.04.41.41 0 0 1-.3-.15.5.5 0 0 1-.14-.35.47.47 0 0 1 .36-.5 20.34 20.34 0 0 1 6-.66 21.48 21.48 0 0 1 3.3.36q1.03.23 1.68.53a3.8 3.8 0 0 1 1.12.76q1 .98 1 2.7 0 1.39-.83 2.47a4.34 4.34 0 0 1-2.15 1.49 9.3 9.3 0 0 0-.04.8l.01.71a13.1 13.1 0 0 0 .05.81 10.05 10.05 0 0 0 .12.9q.09.46.22.84.32.85.88.85.68 0 1.05-.91a3.7 3.7 0 0 0 .29-1.45Zm94.01 2.4.6-.02.7.02q.22.02.35.16.13.15.13.36 0 .2-.14.37a.46.46 0 0 1-.36.15h-.04q-.16-.02-.34-.02h-.34a12.49 12.49 0 0 0-3.46.48l-.14.02q-.22 0-.36-.17-.14-.17-.14-.35v-.08a13.21 13.21 0 0 1 .05-.4 19.75 19.75 0 0 0 .1-1.04q-1.99 2.22-4.13 2.22a2.63 2.63 0 0 1-1.68-.55 1.72 1.72 0 0 1-.74-1.4 2.74 2.74 0 0 1 .32-1.37 3.4 3.4 0 0 1 .83-.98q.52-.41 1.18-.69a9.59 9.59 0 0 1 1.34-.45q1.27-.32 2.47-.32h.24a3.24 3.24 0 0 0-.8-2.16 2.6 2.6 0 0 0-2.03-.98 2.22 2.22 0 0 0-1.68.92 2.83 2.83 0 0 0-.77 1.86.4.4 0 0 1-.16.33.56.56 0 0 1-.36.13q-.2 0-.36-.16-.16-.16-.16-.5a2.87 2.87 0 0 1 .17-.84q.16-.51.48-1 .32-.5.77-.94a5.4 5.4 0 0 1 1.04-.78 5.03 5.03 0 0 1 2.54-.72 5.21 5.21 0 0 1 2.07.34 3.72 3.72 0 0 1 1.3.93 4.47 4.47 0 0 1 .83 1.36 8.73 8.73 0 0 1 .46 1.63q.24 1.35.24 3.45l-.02 1.19Zm7.32-8v.7a3.03 3.03 0 0 1 2.58-1.36 3.15 3.15 0 0 1 2.14.82 2.62 2.62 0 0 1 .84 2.02 2.22 2.22 0 0 1-.48 1.43 1.62 1.62 0 0 1-1.32.63 1.68 1.68 0 0 1-1.23-.51 1.68 1.68 0 0 1-.51-1.23 1.7 1.7 0 0 1 .5-1.23 1.65 1.65 0 0 1 1.24-.53l.09.01.1.01q-.53-.4-1.23-.4a2.29 2.29 0 0 0-1.11.23 2.46 2.46 0 0 0-.7.58 3.1 3.1 0 0 0-.46.75 5.86 5.86 0 0 0-.28.75 3.52 3.52 0 0 0-.17.91l-.02 4.34q.34.03.69.09a14.6 14.6 0 0 1 .62.11.52.52 0 0 1 .5.52.45.45 0 0 1-.16.36.53.53 0 0 1-.35.14h-.1q-1.63-.3-2.92-.3-1.27 0-2.9.3h-.1q-.22 0-.36-.15a.5.5 0 0 1-.14-.34.5.5 0 0 1 .4-.53l.69-.11.67-.1V6.1q-1.29-.05-1.5-.14-.2-.02-.32-.16-.12-.15-.12-.37a.43.43 0 0 1 .17-.35.55.55 0 0 1 .34-.14h.07a3.7 3.7 0 0 0 1.04.11 35.18 35.18 0 0 0 1.43.05 8.04 8.04 0 0 0 1.43-.08q.34-.08.5-.08.14 0 .29.16a.52.52 0 0 1 .15.36Zm11.85 0v.7a3.03 3.03 0 0 1 2.58-1.36 3.15 3.15 0 0 1 2.15.82 2.62 2.62 0 0 1 .84 2.02 2.22 2.22 0 0 1-.49 1.43 1.62 1.62 0 0 1-1.32.63 1.68 1.68 0 0 1-1.23-.51 1.68 1.68 0 0 1-.5-1.23 1.7 1.7 0 0 1 .5-1.23A1.65 1.65 0 0 1 130 6.2l.1.01.09.01q-.52-.4-1.22-.4a2.29 2.29 0 0 0-1.12.23 2.46 2.46 0 0 0-.7.58 3.1 3.1 0 0 0-.46.75 5.86 5.86 0 0 0-.27.75 3.52 3.52 0 0 0-.18.91l-.02 4.34q.34.03.7.09a14.6 14.6 0 0 1 .61.11.52.52 0 0 1 .5.52.45.45 0 0 1-.16.36.53.53 0 0 1-.35.14h-.1q-1.63-.3-2.92-.3-1.27 0-2.9.3h-.1q-.22 0-.36-.15a.5.5 0 0 1-.13-.34.5.5 0 0 1 .4-.53l.68-.11.67-.1V6.1q-1.28-.05-1.5-.14-.2-.02-.32-.16-.12-.15-.12-.37a.43.43 0 0 1 .17-.35.55.55 0 0 1 .35-.14h.07a3.7 3.7 0 0 0 1.04.11 35.18 35.18 0 0 0 1.43.05 8.04 8.04 0 0 0 1.42-.08q.35-.08.5-.08.15 0 .3.16a.52.52 0 0 1 .14.36ZM22.1.56h.15a.74.74 0 0 0 .15.04 6.7 6.7 0 0 0 .38.04q.6.06 1.23.06a9.92 9.92 0 0 0 2.79-.36A.5.5 0 0 1 27 .3a.42.42 0 0 1 .3.16q.14.16.14.36v.45a73.94 73.94 0 0 0-.02 1.14 456.92 456.92 0 0 1-.02 1.63v1.94a3.23 3.23 0 0 1 1.95-1.28q.4-.1 1.1-.1a2.96 2.96 0 0 1 1.4.37q.7.36 1.14 1a5.73 5.73 0 0 1 .87 3.33 6.3 6.3 0 0 1-1.42 4.23 5 5 0 0 1-4 1.75 4.32 4.32 0 0 1-3.15-1.24 4.58 4.58 0 0 1-1.35-3.27 147.34 147.34 0 0 1-.04-4.28 209.28 209.28 0 0 1 .04-4.75q-.81 0-1.32-.07l-.63-.1q-.11-.02-.23-.16-.12-.15-.12-.3a.51.51 0 0 1 .06-.25.6.6 0 0 1 .13-.17.44.44 0 0 1 .25-.13ZM45.2 9.2l-.02.57q-.1.8-2.58 1.15a12.45 12.45 0 0 1-1.68.1q-.88 0-1.98-.3a3.69 3.69 0 0 0 1.48 3 1.78 1.78 0 0 0 .93.28q.45 0 .76-.06t.62-.18a2.09 2.09 0 0 0 .95-.68.5.5 0 0 1 .39-.2q.22 0 .38.16a.5.5 0 0 1 .15.36.41.41 0 0 1-.13.32q-.41.65-1.56 1.04a6.15 6.15 0 0 1-1.92.32 5.57 5.57 0 0 1-2.15-.44q-2.05-.84-2.91-2.83a5.31 5.31 0 0 1-.43-2.17 6 6 0 0 1 .37-2.16 4.46 4.46 0 0 1 1.06-1.63 5.28 5.28 0 0 1 3.85-1.37q4.42.19 4.42 4.72Zm23.28 0-.02.57q-.1.8-2.58 1.15a12.45 12.45 0 0 1-1.67.1q-.89 0-2-.3a3.69 3.69 0 0 0 1.5 3 1.78 1.78 0 0 0 .92.28q.45 0 .76-.06t.62-.18a2.09 2.09 0 0 0 .95-.68.5.5 0 0 1 .4-.2q.21 0 .37.16a.5.5 0 0 1 .15.36.41.41 0 0 1-.12.32q-.42.65-1.57 1.04a6.15 6.15 0 0 1-1.92.32 5.57 5.57 0 0 1-2.15-.44q-2.05-.84-2.9-2.83a5.31 5.31 0 0 1-.44-2.17 6 6 0 0 1 .37-2.16 4.46 4.46 0 0 1 1.06-1.63 5.28 5.28 0 0 1 3.85-1.37q4.42.19 4.42 4.72Zm-51.24 4.35V6.05l-1.5-.12a.5.5 0 0 1-.32-.18q-.13-.14-.13-.36a.4.4 0 0 1 .18-.35.59.59 0 0 1 .34-.13h.06a9.57 9.57 0 0 1 .23.03l.55.05q.93.08 1.7.08a7.84 7.84 0 0 0 1.74-.16h.1q.23 0 .38.15a.48.48 0 0 1 .14.35l-.02 8.13.7.09a7.46 7.46 0 0 1 .61.1.52.52 0 0 1 .51.52.49.49 0 0 1-.16.37q-.17.15-.36.15-1.6-.32-3-.32t-3.01.32a.46.46 0 0 1-.37-.16.53.53 0 0 1-.14-.35.53.53 0 0 1 .11-.33.6.6 0 0 1 .37-.2 7.92 7.92 0 0 1 .61-.1l.68-.1Zm125.79-1.69a5.26 5.26 0 0 0 .42-2.1q0-2.25-1.46-3.77a4.98 4.98 0 0 0-3.76-1.59 5 5 0 0 0-3.72 1.5Q133 7.43 133 9.73a5.25 5.25 0 0 0 1.42 3.85 5.1 5.1 0 0 0 3.8 1.45 5.07 5.07 0 0 0 3.67-1.47 5.23 5.23 0 0 0 1.13-1.69ZM55.38 5.35h-1.05a103.52 103.52 0 0 1-1.67 6.48q-.72 2.4-.95 3.02a12.03 12.03 0 0 1-2.32 4.22 5.76 5.76 0 0 0 3.1-2.96q.53-1.01.8-1.82.26-.8.44-1.42l.39-1.31a96.67 96.67 0 0 0 .4-1.42 1218.32 1218.32 0 0 0 .38-1.43 112.73 112.73 0 0 0 .35-1.34 372.01 372.01 0 0 1 .3-1.16 107.61 107.61 0 0 0 .22-.88l-.39.02ZM24.98 1.7l-.06 5.64a81.2 81.2 0 0 0 .05 3.36q.04.86.29 1.48a3.38 3.38 0 0 0 .67 1.07 3.14 3.14 0 0 0 2.3 1q-1.74-1.05-1.8-3.87a76.75 76.75 0 0 1-.04-2.64V4.59l.02-3.1a9.5 9.5 0 0 1-1.44.2ZM3.15 1.38l-.2 12.13a13.4 13.4 0 0 1 1.28-.05l.34-12.18a29.73 29.73 0 0 0-1.42.1Zm89.8 11.88a54.72 54.72 0 0 0-1.51.1 66.35 66.35 0 0 0-1.6-11.54 44.28 44.28 0 0 0 1.6-.1 56.25 56.25 0 0 1 .18 1.1q1.05 6.42 1.32 10.44Zm-7.99-2.23-5.03-9.25q-.14.46-.2.98a43.27 43.27 0 0 1-.13.94l4.72 9.22a21.24 21.24 0 0 0 .3-.86l.34-1.04ZM5.6 1.24l-.18 6.64a7.24 7.24 0 0 0 1.48.14q.82 0 1.43-.07.62-.07 1.2-.23.6-.15 1.13-.41.52-.26.92-.64.86-.85.86-2.13a2.73 2.73 0 0 0-1.82-2.7q-1.1-.45-2.28-.54-1.17-.08-1.69-.08h-.7q-.19 0-.35.02ZM141.49 12.6q.45-.59.7-1.34.23-.75.23-1.39a5.26 5.26 0 0 0-.1-1.12q-.11-.49-.32-.95a4.7 4.7 0 0 0-.5-.86 3.97 3.97 0 0 0-.65-.7q-.79-.63-1.73-.63a2.49 2.49 0 0 0-2.47 2.22 6.02 6.02 0 0 0-.21 1.52 15.03 15.03 0 0 0 .04 1.18 7.88 7.88 0 0 0 .13.96 6.02 6.02 0 0 0 .27.91 2.85 2.85 0 0 0 .43.77 1.8 1.8 0 0 0 1.48.73 3.3 3.3 0 0 0 1.57-.36 3.52 3.52 0 0 0 1.13-.94ZM32.84 9.3a7.2 7.2 0 0 0-.13-1.43 3.5 3.5 0 0 0-.45-1.17 2.21 2.21 0 0 0-2.03-1.08 2.65 2.65 0 0 0-2 1 2.8 2.8 0 0 0-.83 1.44 19.42 19.42 0 0 0 .19 3.5q.18.74.48 1.18a2.03 2.03 0 0 0 1.8.94q1.46 0 2.27-1.4a5.86 5.86 0 0 0 .7-2.97Zm69.48-3.7h.04a4.1 4.1 0 0 1 2.04 2.83 9.75 9.75 0 0 1 .28 2.05 64.48 64.48 0 0 1 .03 1.53 20.18 20.18 0 0 1-.08 1.77q.7-.15 1.4-.23a14.67 14.67 0 0 0 .03-1.18 39.1 39.1 0 0 0-.04-1.67q-.03-.8-.15-1.54t-.35-1.4a3.68 3.68 0 0 0-.63-1.13 3.06 3.06 0 0 0-2.48-1.05.08.08 0 0 0-.05.01.08.08 0 0 1-.04.02Zm44.93-.02h-.72q.32 2.6 1.64 5.51.55 1.24 1.41 2.53.57-1.01.7-1.28a16.56 16.56 0 0 1-1.8-3.97q-.47-1.47-.66-2.81a8.37 8.37 0 0 1-.57.02Zm-10.74.16a3.7 3.7 0 0 0-2.3 2.53 5.01 5.01 0 0 0-.2 1.46 5.26 5.26 0 0 0 .2 1.45 4.3 4.3 0 0 0 .49 1.13q.6.91 1.68 1.35-.98-1.36-.98-3.98a5.95 5.95 0 0 1 1.11-3.94Zm-97.44.06q-2.56.93-2.56 3.9 0 1.86 1.29 3.12a3.73 3.73 0 0 0 .91.66q-.84-1.25-.84-3.42a8.59 8.59 0 0 1 .23-2.29q.35-1.19.97-1.97Zm23.28 0q-2.56.93-2.56 3.9 0 1.86 1.29 3.12a3.73 3.73 0 0 0 .91.66q-.84-1.25-.84-3.42a8.59 8.59 0 0 1 .23-2.29q.35-1.19.97-1.97Zm-42.69 7.66V6.02q-.5.08-1.34.08h-.08v7.36l.37-.02h.61a4.1 4.1 0 0 1 .44.02Zm93.7-.18V6.06q-.38.06-1.36.06h-.07v7.18l.36-.02h1.06Zm11.85 0V6.06q-.37.06-1.35.06h-.08v7.18l.36-.02h1.07Zm-81.04-3.9v-.16a3.47 3.47 0 0 0-1.51-3.26q-.53-.32-1.27-.42a3.42 3.42 0 0 0-2.48 4.1q1.1.34 2.5.34a6.7 6.7 0 0 0 2.76-.6Zm23.28 0v-.16a3.47 3.47 0 0 0-1.51-3.26q-.53-.32-1.27-.42a3.42 3.42 0 0 0-2.48 4.1q1.1.34 2.5.34a6.7 6.7 0 0 0 2.76-.6Zm36.19 1.04h-.37a8.8 8.8 0 0 0-3.14.59 2.43 2.43 0 0 0-1.97 2.12.88.88 0 0 0 .45.79q.39.22 1 .22.62 0 1.24-.27a4.88 4.88 0 0 0 1.14-.7 7.67 7.67 0 0 0 1.68-2.05 6.02 6.02 0 0 1-.03-.7Zm51.32 3.34a71.96 71.96 0 0 0 .7-1.26 27.32 27.32 0 0 1-2.56-4.76q-.22.92-.58 1.92.72 1.81 2.44 4.1ZM9.42 9.48v-.35a2.23 2.23 0 0 1 .02-.31 17.76 17.76 0 0 1-1.34.2 6.06 6.06 0 0 0-.04.8q0 .52.1 1.18a4.52 4.52 0 0 0 .34 1.22 2.24 2.24 0 0 0 1.8 1.46 7.42 7.42 0 0 1-.88-4.2Zm10.64-6.3a1.66 1.66 0 0 0 .5-1.24 1.66 1.66 0 0 0-.5-1.23 1.73 1.73 0 0 0-1.24-.5 1.68 1.68 0 0 0-1.23.5 1.68 1.68 0 0 0-.5 1.23 1.68 1.68 0 0 0 .5 1.23 1.68 1.68 0 0 0 1.23.51 1.73 1.73 0 0 0 1.24-.5Zm98.75 5.05q.06-.13.06-.35a.62.62 0 0 0-.21-.43.7.7 0 0 0-.51-.21.7.7 0 0 0-.52.2.62.62 0 0 0-.2.44.86.86 0 0 0 .05.35q.06.13.16.24a.67.67 0 0 0 .5.21.69.69 0 0 0 .67-.45Zm11.86 0q.05-.13.05-.35a.62.62 0 0 0-.2-.43.7.7 0 0 0-.52-.21.7.7 0 0 0-.51.2.62.62 0 0 0-.21.44.86.86 0 0 0 .06.35q.06.13.15.24a.67.67 0 0 0 .51.21.69.69 0 0 0 .67-.45Zm-83.18 8.55q0-.3-.2-.51a.7.7 0 0 0-.52-.2.7.7 0 0 0-.51.2q-.21.2-.21.5a.7.7 0 0 0 .2.52.7.7 0 0 0 .52.21.7.7 0 0 0 .51-.21.7.7 0 0 0 .21-.51ZM19.54 1.94a.7.7 0 0 0-.2-.5.7.7 0 0 0-.52-.22q-.3 0-.5.21a.7.7 0 0 0-.21.51q0 .3.2.51a.69.69 0 0 0 .51.2.7.7 0 0 0 .51-.2q.21-.2.21-.5Z" vector-effect="non-scaling-stroke" stroke-linecap="round" fill-rule="evenodd" font-size="12" stroke="#000" stroke-width=".94" fill="none" style="stroke:#000;stroke-width:.25mm;fill:none"/></svg>