<svg width="106.94" height="15.94" xmlns="http://www.w3.org/2000/svg"><path d="M69.68 13.94v-2.51h.52v2.2a8.23 8.23 0 0 0 2.14.97 7.71 7.71 0 0 0 2.11.31q1.25 0 2.22-.39a3.6 3.6 0 0 0 1.52-1.09q.55-.7.55-1.6a2.84 2.84 0 0 0-.42-1.57 3.65 3.65 0 0 0-1.39-1.18q-.95-.52-2.58-.96-1.62-.45-2.57-.96a3.36 3.36 0 0 1-1.38-1.21A3.37 3.37 0 0 1 70 4.2a2.97 2.97 0 0 1 .55-1.78q.54-.76 1.53-1.19A5.77 5.77 0 0 1 74.4.81a7.12 7.12 0 0 1 2.48.41q1.1.41 1.94 1.1v2.29h-.53v-2a5.23 5.23 0 0 0-1.76-.95q-1-.32-2.13-.32-1.25 0-2.11.4-.86.39-1.31 1.04a2.43 2.43 0 0 0-.45 1.4q0 .81.32 1.42.32.61 1.18 1.09.86.48 2.48.92a10.12 10.12 0 0 1 3.57 1.58 3.14 3.14 0 0 1 1.2 2.62 3.08 3.08 0 0 1-.62 1.93q-.63.82-1.72 1.26a6.57 6.57 0 0 1-2.48.44 8.46 8.46 0 0 1-2.38-.36q-1.23-.36-2.4-1.14Zm21.9-4.6H94V7.99a3.09 3.09 0 0 0-.76-2.16q-.76-.84-2.39-.84-.86 0-1.57.32-.72.33-1.21.78v1.73h-.53v-2A5.47 5.47 0 0 1 89 4.83q.8-.37 1.86-.37a3.66 3.66 0 0 1 2.75.96A3.55 3.55 0 0 1 94.53 8v5.1a9.53 9.53 0 0 0 .03.8 7.12 7.12 0 0 0 .12.8h1.46v.52h-1.92a18.82 18.82 0 0 1-.17-1.05 7.57 7.57 0 0 1-.05-.89q-.6.96-1.63 1.55-1.04.6-2.37.6-1.39 0-2.22-.8a2.75 2.75 0 0 1-.84-2.08 2.64 2.64 0 0 1 .58-1.68 3.73 3.73 0 0 1 1.6-1.13 6.65 6.65 0 0 1 2.45-.41ZM3.7 15.24H0v-.52h1.6V1.55H0v-.53h5.71a6.6 6.6 0 0 1 2.55.44q1.04.44 1.58 1.28.54.84.54 2.1a3.42 3.42 0 0 1-.59 2.02 3.67 3.67 0 0 1-1.65 1.27 6.46 6.46 0 0 1-2.47.43H2.12v6.16h1.6v.52Zm22.22-1.7-.07 1.7h-.44V.52h-1.6V0h2.13v6.6a4.05 4.05 0 0 1 1.42-1.56q.9-.57 2.16-.57a3.46 3.46 0 0 1 2.13.67 4.2 4.2 0 0 1 1.38 1.9 7.99 7.99 0 0 1 .48 2.9v.2q0 1.64-.48 2.82a4.04 4.04 0 0 1-1.36 1.83 3.53 3.53 0 0 1-2.13.65 4.42 4.42 0 0 1-2.18-.51 3.77 3.77 0 0 1-1.44-1.38Zm72.92 0-.07 1.7h-.44V.52h-1.6V0h2.13v6.6a4.05 4.05 0 0 1 1.42-1.56q.9-.57 2.16-.57a3.46 3.46 0 0 1 2.13.67 4.2 4.2 0 0 1 1.38 1.9 7.99 7.99 0 0 1 .48 2.9v.2q0 1.64-.48 2.82a4.04 4.04 0 0 1-1.36 1.83 3.53 3.53 0 0 1-2.13.65 4.42 4.42 0 0 1-2.18-.51 3.77 3.77 0 0 1-1.44-1.38ZM48.4 12.52v-7.3h-1.95v-.54h1.95V1.82h.54v2.85h2.6v.54h-2.6v7.3a3.01 3.01 0 0 0 .44 1.85 1.41 1.41 0 0 0 1.16.55 7.05 7.05 0 0 0 .55-.02l.68-.07.1.48a3.68 3.68 0 0 1-.6.11 7.43 7.43 0 0 1-.7.03q-1.07 0-1.62-.7a3.6 3.6 0 0 1-.55-2.23Zm36.37 2.72h-3.71v-.52h1.59V.53h-1.6V0h2.12v14.7h1.6v.53Zm-71.13-5.07v-.41A6.11 6.11 0 0 1 14.23 7a4.58 4.58 0 0 1 1.62-1.86 4.33 4.33 0 0 1 2.41-.68 4.35 4.35 0 0 1 2.42.68A4.58 4.58 0 0 1 22.3 7a6.11 6.11 0 0 1 .58 2.74v.4a6.14 6.14 0 0 1-.59 2.75 4.57 4.57 0 0 1-1.62 1.87 4.31 4.31 0 0 1-2.4.67 4.37 4.37 0 0 1-2.42-.67q-1.05-.68-1.63-1.87a6.14 6.14 0 0 1-.59-2.74Zm21.9 0v-.41a6.11 6.11 0 0 1 .6-2.74 4.58 4.58 0 0 1 1.62-1.86 4.33 4.33 0 0 1 2.4-.68 4.35 4.35 0 0 1 2.42.68A4.58 4.58 0 0 1 44.21 7a6.11 6.11 0 0 1 .59 2.74v.4a6.14 6.14 0 0 1-.6 2.75 4.57 4.57 0 0 1-1.62 1.87 4.31 4.31 0 0 1-2.4.67 4.37 4.37 0 0 1-2.42-.67q-1.04-.68-1.63-1.87a6.14 6.14 0 0 1-.58-2.74Zm18.11 0v-.41A6.11 6.11 0 0 1 54.24 7a4.58 4.58 0 0 1 1.62-1.86 4.33 4.33 0 0 1 2.41-.68 4.35 4.35 0 0 1 2.42.68A4.58 4.58 0 0 1 62.3 7a6.11 6.11 0 0 1 .59 2.74v.4a6.14 6.14 0 0 1-.59 2.75 4.57 4.57 0 0 1-1.62 1.87 4.31 4.31 0 0 1-2.4.67 4.37 4.37 0 0 1-2.42-.67q-1.05-.68-1.63-1.87a6.14 6.14 0 0 1-.59-2.74Zm-31.29 0v-.41a5.51 5.51 0 0 0-.5-2.38q-.51-1.08-1.43-1.73Q19.5 5 18.26 5q-1.24 0-2.16.64-.92.65-1.43 1.73a5.56 5.56 0 0 0-.5 2.38v.4a5.63 5.63 0 0 0 .5 2.41 4.17 4.17 0 0 0 1.43 1.72q.92.63 2.18.63a3.68 3.68 0 0 0 2.16-.64q.92-.64 1.42-1.72.5-1.08.5-2.4Zm21.9 0v-.41a5.51 5.51 0 0 0-.5-2.38q-.5-1.08-1.43-1.73Q41.4 5 40.17 5q-1.24 0-2.17.64-.92.65-1.42 1.73a5.56 5.56 0 0 0-.5 2.38v.4a5.63 5.63 0 0 0 .5 2.41A4.17 4.17 0 0 0 38 14.28q.93.63 2.19.63a3.68 3.68 0 0 0 2.15-.64q.92-.64 1.42-1.72.5-1.08.5-2.4Zm18.11 0v-.41a5.51 5.51 0 0 0-.5-2.38q-.51-1.08-1.43-1.73Q59.5 5 58.27 5q-1.24 0-2.16.64-.92.65-1.43 1.73a5.56 5.56 0 0 0-.5 2.38v.4a5.63 5.63 0 0 0 .5 2.41 4.17 4.17 0 0 0 1.43 1.72q.92.63 2.18.63a3.68 3.68 0 0 0 2.16-.64q.92-.64 1.42-1.72.5-1.08.5-2.4Zm-29.4-.01v-.2q0-1.47-.4-2.59-.38-1.11-1.15-1.74Q30.65 5 29.54 5a3.37 3.37 0 0 0-2.39.79 4.4 4.4 0 0 0-1.2 1.92v4.85q.38 1.07 1.3 1.71a3.95 3.95 0 0 0 2.31.64 2.87 2.87 0 0 0 2.54-1.29q.87-1.29.87-3.47Zm72.92 0v-.2q0-1.47-.4-2.59-.38-1.11-1.15-1.74-.77-.62-1.88-.62a3.37 3.37 0 0 0-2.39.79 4.4 4.4 0 0 0-1.2 1.92v4.85q.38 1.07 1.3 1.71a3.95 3.95 0 0 0 2.31.64 2.87 2.87 0 0 0 2.54-1.29q.87-1.29.87-3.47ZM2.12 1.55v6.49h3.54q2.16 0 3.18-.92 1.01-.92 1.01-2.29A2.96 2.96 0 0 0 8.81 2.4q-1.04-.85-3.1-.85h-3.6ZM94 12.38v-2.5h-2.4a5.31 5.31 0 0 0-3 .75 2.28 2.28 0 0 0-1.13 1.97q0 .98.71 1.65a2.55 2.55 0 0 0 1.82.67 4.46 4.46 0 0 0 2.32-.67q1.13-.68 1.68-1.87Zm-82.62 2.86H9.73L6.75 8.22h.53l2.8 6.5h1.3v.52Z" vector-effect="non-scaling-stroke" stroke-linecap="round" fill-rule="evenodd" font-size="12" stroke="#000" stroke-width=".94" fill="none" style="stroke:#000;stroke-width:.25mm;fill:none"/></svg>