<svg width="144.86" height="15.65" xmlns="http://www.w3.org/2000/svg"><path d="M67.68 10.57h1.13a5.26 5.26 0 0 1-1.29 3.5q-1.13 1.13-3.13 1.13a3.87 3.87 0 0 1-3.26-1.56 6.85 6.85 0 0 1-1.2-4.24V6.32a6.58 6.58 0 0 1 1.22-4.21Q62.36.59 64.47.59a4.07 4.07 0 0 1 3.09 1.14q1.1 1.14 1.25 3.5h-1.13a4.64 4.64 0 0 0-.92-2.76q-.75-.83-2.29-.83a2.96 2.96 0 0 0-2.5 1.2 5.75 5.75 0 0 0-.9 3.49v3.04q0 2.27.86 3.53.87 1.26 2.46 1.26a3.08 3.08 0 0 0 2.4-.83 4.67 4.67 0 0 0 .89-2.76ZM7.29 15 4.45 9.08H1.12V15H0V.78h3.9q1.94 0 3 1.11a4.25 4.25 0 0 1 1.08 3.08A4.4 4.4 0 0 1 7.3 7.4a3.45 3.45 0 0 1-1.78 1.44l2.96 6.04V15h-1.2ZM81.17 4.43h1.04l.03 1.68a3.92 3.92 0 0 1 1.2-1.36 2.82 2.82 0 0 1 1.65-.51q2.76 0 2.83 3.68V15h-1.07V8.04a3.63 3.63 0 0 0-.5-2.1 1.76 1.76 0 0 0-1.54-.67 2.17 2.17 0 0 0-1.52.64q-.68.64-1.03 1.76V15h-1.09V4.43Zm28.54 0h1.03l.03 1.68a3.92 3.92 0 0 1 1.2-1.36 2.82 2.82 0 0 1 1.65-.51q2.77 0 2.83 3.68V15h-1.07V8.04a3.63 3.63 0 0 0-.5-2.1 1.76 1.76 0 0 0-1.53-.67 2.17 2.17 0 0 0-1.53.64q-.68.64-1.03 1.76V15h-1.08V4.43Zm15.94 2.9h-1.08q0-.9-.61-1.49a2.22 2.22 0 0 0-1.6-.59 2.23 2.23 0 0 0-1.53.5 1.6 1.6 0 0 0-.56 1.26 1.35 1.35 0 0 0 .43 1.04q.43.4 1.86 1.08a11.14 11.14 0 0 1 2.03 1.06 3 3 0 0 1 .84.94 2.48 2.48 0 0 1 .28 1.21q0 1.31-.9 2.08a3.57 3.57 0 0 1-2.4.78 3.7 3.7 0 0 1-2.54-.86 2.82 2.82 0 0 1-.97-2.22h1.09a2.08 2.08 0 0 0 .66 1.53q.61.54 1.76.54a2.47 2.47 0 0 0 1.6-.49 1.58 1.58 0 0 0 .6-1.3q0-.68-.56-1.2a7.73 7.73 0 0 0-1.92-1.12q-1.35-.6-1.89-1.01a2.73 2.73 0 0 1-.79-.89 2.38 2.38 0 0 1-.25-1.13 2.6 2.6 0 0 1 .88-2.02q.88-.8 2.27-.8a3.35 3.35 0 0 1 2.4.86q.9.85.9 2.24ZM27.81 9.04v1.18q0 2.44-.85 3.7a2.87 2.87 0 0 1-2.55 1.28 2.96 2.96 0 0 1-2.76-1.62L21.6 15h-1V0h1.07v5.9q.89-1.66 2.72-1.66a2.9 2.9 0 0 1 2.55 1.2q.84 1.21.87 3.6Zm62.6 1.28v-1.1q0-2.47.87-3.73a2.93 2.93 0 0 1 2.58-1.25 2.88 2.88 0 0 1 2.68 1.61V0h1.09v15H96.6l-.05-1.36a2.92 2.92 0 0 1-2.71 1.55q-1.67 0-2.55-1.26a6.4 6.4 0 0 1-.89-3.6Zm46.61 0v-1.1q0-2.47.87-3.73a2.93 2.93 0 0 1 2.58-1.25 2.88 2.88 0 0 1 2.68 1.61V0h1.09v15h-1.02l-.05-1.36a2.92 2.92 0 0 1-2.71 1.55q-1.67 0-2.55-1.26a6.4 6.4 0 0 1-.89-3.6Zm-36.97.18V9.2a5.86 5.86 0 0 1 1.01-3.64 3.33 3.33 0 0 1 2.8-1.32 3.17 3.17 0 0 1 2.62 1.12 5.5 5.5 0 0 1 .92 3.44V9.8h-6.28v.6q0 1.82.78 2.8a2.63 2.63 0 0 0 2.2.99 3.15 3.15 0 0 0 2.52-1.14l.57.72a3.64 3.64 0 0 1-3.15 1.42 3.65 3.65 0 0 1-2.92-1.22 5.23 5.23 0 0 1-1.07-3.48Zm27.7 0V9.2a5.86 5.86 0 0 1 1.02-3.64 3.33 3.33 0 0 1 2.8-1.32 3.17 3.17 0 0 1 2.62 1.12 5.5 5.5 0 0 1 .92 3.44V9.8h-6.28v.6q0 1.82.77 2.8a2.63 2.63 0 0 0 2.2.99 3.15 3.15 0 0 0 2.53-1.14l.56.72a3.64 3.64 0 0 1-3.14 1.42 3.65 3.65 0 0 1-2.92-1.22 5.23 5.23 0 0 1-1.08-3.48ZM40.68 1.74h1.09v2.7h1.8v.97h-1.8v7.02q0 .87.26 1.3a.93.93 0 0 0 .86.42q.26 0 .78-.1l.03.98a2.7 2.7 0 0 1-1.06.17 2.1 2.1 0 0 1-1.96-2.62V5.4h-1.63v-.98h1.63v-2.7Zm-30.3 8.69V9.18a5.73 5.73 0 0 1 1.03-3.61q1.03-1.33 2.82-1.33a3.4 3.4 0 0 1 2.83 1.3 5.72 5.72 0 0 1 1.04 3.61v1.12a5.65 5.65 0 0 1-1.04 3.63 3.4 3.4 0 0 1-2.81 1.3 3.43 3.43 0 0 1-2.8-1.27 5.54 5.54 0 0 1-1.08-3.5Zm19.53 0V9.18a5.73 5.73 0 0 1 1.04-3.61q1.03-1.33 2.82-1.33a3.4 3.4 0 0 1 2.83 1.3 5.72 5.72 0 0 1 1.04 3.61v1.12a5.65 5.65 0 0 1-1.04 3.63 3.4 3.4 0 0 1-2.81 1.3 3.43 3.43 0 0 1-2.8-1.27 5.54 5.54 0 0 1-1.08-3.5Zm15.42 0V9.18a5.73 5.73 0 0 1 1.04-3.61q1.03-1.33 2.82-1.33a3.4 3.4 0 0 1 2.83 1.3 5.72 5.72 0 0 1 1.04 3.61v1.12a5.65 5.65 0 0 1-1.04 3.63 3.4 3.4 0 0 1-2.81 1.3 3.43 3.43 0 0 1-2.8-1.27 5.54 5.54 0 0 1-1.08-3.5Zm25.62 0V9.18a5.73 5.73 0 0 1 1.03-3.61q1.04-1.33 2.83-1.33a3.4 3.4 0 0 1 2.82 1.3 5.72 5.72 0 0 1 1.04 3.61v1.12a5.65 5.65 0 0 1-1.04 3.63 3.4 3.4 0 0 1-2.8 1.3 3.43 3.43 0 0 1-2.8-1.27 5.54 5.54 0 0 1-1.08-3.5ZM11.47 9.1v1.17a4.9 4.9 0 0 0 .73 2.88 2.37 2.37 0 0 0 2.05 1.04q1.34 0 2.04-1a5.01 5.01 0 0 0 .72-2.89V9.18a4.9 4.9 0 0 0-.74-2.88 2.37 2.37 0 0 0-2.04-1.05q-1.26 0-2 1.03-.75 1.02-.77 2.82ZM31 9.1v1.17a4.9 4.9 0 0 0 .73 2.88 2.37 2.37 0 0 0 2.05 1.04q1.34 0 2.05-1a5.01 5.01 0 0 0 .71-2.89V9.18a4.9 4.9 0 0 0-.74-2.88 2.37 2.37 0 0 0-2.04-1.05q-1.26 0-2 1.03Q31.02 7.3 31 9.1Zm15.42 0v1.17a4.9 4.9 0 0 0 .73 2.88 2.37 2.37 0 0 0 2.05 1.04q1.34 0 2.05-1a5.01 5.01 0 0 0 .71-2.89V9.18a4.9 4.9 0 0 0-.74-2.88 2.37 2.37 0 0 0-2.04-1.05q-1.26 0-2 1.03-.74 1.02-.76 2.82Zm25.61 0v1.17a4.9 4.9 0 0 0 .74 2.88 2.37 2.37 0 0 0 2.04 1.04q1.34 0 2.05-1a5.01 5.01 0 0 0 .72-2.89V9.18a4.9 4.9 0 0 0-.74-2.88 2.37 2.37 0 0 0-2.04-1.05q-1.27 0-2 1.03-.75 1.02-.77 2.82Zm-45.31 1.18V9.23a5.82 5.82 0 0 0-.6-2.98 2.12 2.12 0 0 0-1.95-.97 2.54 2.54 0 0 0-2.51 1.9v5.24a2.79 2.79 0 0 0 .98 1.29 2.63 2.63 0 0 0 1.55.45 2.11 2.11 0 0 0 1.9-.94q.62-.95.63-2.94ZM91.5 9.16v1.05a5.7 5.7 0 0 0 .61 3 2.13 2.13 0 0 0 1.94.95 2.58 2.58 0 0 0 2.48-1.63V7.05q-.73-1.77-2.47-1.77a2.14 2.14 0 0 0-1.94.95 5.57 5.57 0 0 0-.62 2.93Zm46.61 0v1.05a5.7 5.7 0 0 0 .62 3 2.13 2.13 0 0 0 1.93.95 2.58 2.58 0 0 0 2.48-1.63V7.05q-.73-1.77-2.47-1.77a2.14 2.14 0 0 0-1.94.95 5.57 5.57 0 0 0-.62 2.93Zm-137-7.32v6.2H4.1q1.26 0 2.01-.86a3.25 3.25 0 0 0 .76-2.2 3.22 3.22 0 0 0-.79-2.32 2.88 2.88 0 0 0-2.18-.82H1.12ZM101.13 8.8h5.19v-.28q-.08-3.27-2.46-3.27a2.33 2.33 0 0 0-1.97.9 4.62 4.62 0 0 0-.76 2.65Zm27.7 0h5.2v-.28q-.09-3.27-2.47-3.27a2.33 2.33 0 0 0-1.97.9 4.62 4.62 0 0 0-.75 2.65Z" vector-effect="non-scaling-stroke" stroke-linecap="round" fill-rule="evenodd" font-size="12" stroke="#000" stroke-width=".94" fill="none" style="stroke:#000;stroke-width:.25mm;fill:none"/></svg>