<svg width="61.0" height="15.61" xmlns="http://www.w3.org/2000/svg"><path d="M9.24 15 5.46 8.92H.53V15H0V.78h4.53a5 5 0 0 1 3.4 1.1 3.77 3.77 0 0 1 1.27 3 3.86 3.86 0 0 1-.9 2.55Q7.4 8.52 6 8.78l3.8 6.08V15h-.56Zm22.7-5.35v.16a6.51 6.51 0 0 1-1.06 3.93 3.4 3.4 0 0 1-2.9 1.46 4.5 4.5 0 0 1-2.13-.5q-.94-.5-1.48-1.37V15h-.52V0h.52v6.36a3.92 3.92 0 0 1 1.47-1.58 4.1 4.1 0 0 1 2.12-.54q1.85 0 2.92 1.42a6.54 6.54 0 0 1 1.06 3.99Zm14.53-8.07H47v2.85h2.4v.54H47v7.5a2.99 2.99 0 0 0 .37 1.66q.36.54 1.22.54.43 0 1.05-.09l.09.5a3.6 3.6 0 0 1-1.1.12 1.97 1.97 0 0 1-1.66-.64 3.33 3.33 0 0 1-.5-2.02V4.97H44.5v-.54h1.96V1.58Zm-34.4 8.4v-.47a6.19 6.19 0 0 1 .57-2.72q.58-1.2 1.64-1.88a4.37 4.37 0 0 1 2.4-.67q1.33 0 2.38.65a4.42 4.42 0 0 1 1.65 1.86 6.14 6.14 0 0 1 .6 2.7v.47a6.22 6.22 0 0 1-.58 2.73q-.57 1.2-1.63 1.87a4.37 4.37 0 0 1-2.4.68 4.42 4.42 0 0 1-2.4-.67 4.45 4.45 0 0 1-1.64-1.86 6.13 6.13 0 0 1-.6-2.69Zm21.94 0v-.47a6.19 6.19 0 0 1 .59-2.72q.58-1.2 1.63-1.88a4.37 4.37 0 0 1 2.4-.67q1.33 0 2.39.65a4.42 4.42 0 0 1 1.64 1.86 6.14 6.14 0 0 1 .6 2.7v.47a6.22 6.22 0 0 1-.57 2.73q-.58 1.2-1.64 1.87a4.37 4.37 0 0 1-2.4.68 4.42 4.42 0 0 1-2.4-.67 4.45 4.45 0 0 1-1.64-1.86 6.13 6.13 0 0 1-.6-2.69Zm17.14 0v-.47a6.19 6.19 0 0 1 .58-2.72q.58-1.2 1.64-1.88a4.37 4.37 0 0 1 2.4-.67q1.33 0 2.38.65a4.42 4.42 0 0 1 1.65 1.86 6.14 6.14 0 0 1 .6 2.7v.47a6.22 6.22 0 0 1-.58 2.73q-.57 1.2-1.63 1.87a4.37 4.37 0 0 1-2.4.68 4.42 4.42 0 0 1-2.4-.67 4.45 4.45 0 0 1-1.64-1.86 6.13 6.13 0 0 1-.6-2.69ZM12.6 9.61v.31a5.55 5.55 0 0 0 .52 2.42 4.12 4.12 0 0 0 1.46 1.71q.93.62 2.13.62 1.8 0 2.94-1.36a5.26 5.26 0 0 0 1.14-3.5v-.3q0-1.3-.53-2.4a4.18 4.18 0 0 0-1.46-1.72 3.73 3.73 0 0 0-2.11-.62 3.66 3.66 0 0 0-2.95 1.37 5.25 5.25 0 0 0-1.14 3.47Zm21.95 0v.31a5.55 5.55 0 0 0 .52 2.42 4.12 4.12 0 0 0 1.46 1.71q.93.62 2.13.62 1.8 0 2.95-1.36a5.26 5.26 0 0 0 1.13-3.5v-.3q0-1.3-.52-2.4a4.18 4.18 0 0 0-1.46-1.72 3.73 3.73 0 0 0-2.12-.62 3.66 3.66 0 0 0-2.95 1.37 5.25 5.25 0 0 0-1.14 3.47Zm17.14 0v.31a5.55 5.55 0 0 0 .52 2.42 4.12 4.12 0 0 0 1.46 1.71q.93.62 2.13.62 1.8 0 2.95-1.36a5.26 5.26 0 0 0 1.13-3.5v-.3q0-1.3-.52-2.4a4.18 4.18 0 0 0-1.46-1.72 3.73 3.73 0 0 0-2.12-.62 3.66 3.66 0 0 0-2.95 1.37 5.25 5.25 0 0 0-1.14 3.47Zm-27.3-2.13v4.84q.42 1.13 1.34 1.74a4.03 4.03 0 0 0 2.27.6 2.88 2.88 0 0 0 2.52-1.3 6.64 6.64 0 0 0 .89-3.75q0-2.28-.9-3.56a2.91 2.91 0 0 0-2.53-1.28q-1.33 0-2.25.68a3.86 3.86 0 0 0-1.34 2.03ZM.52 1.31v7.08H5a3.61 3.61 0 0 0 2.65-1 3.38 3.38 0 0 0 1.01-2.5q0-1.67-1.12-2.62Q6.44 1.3 4.5 1.3H.53Z" vector-effect="non-scaling-stroke" stroke-linecap="round" fill-rule="evenodd" font-size="12" stroke="#000" stroke-width=".94" fill="none" style="stroke:#000;stroke-width:.25mm;fill:none"/></svg>