<svg width="129.97" height="26.38" xmlns="http://www.w3.org/2000/svg"><path d="M22.83 21.88h-.97a1.04 1.04 0 0 1-.4-.13 13.61 13.61 0 0 0-.6-.26 8.33 8.33 0 0 0-.67-.26 2.2 2.2 0 0 0-.68-.11h-.12q-.21-.18-.5-.27a8.33 8.33 0 0 0-.57-.15l-.57-.15a1.56 1.56 0 0 1-.46-.22l-.45-.28a.92.92 0 0 0-.47-.13.9.9 0 0 0-.06 0 5.6 5.6 0 0 0-.77-.37 17.13 17.13 0 0 0-.81-.29l-.8-.3a7.07 7.07 0 0 1-.79-.36q-.05.02-.13 0l-.14-.02a.12.12 0 0 0-.14.08q-.13-.14-.3-.24-.16-.1-.32-.23a1.46 1.46 0 0 1-.15.02 1.2 1.2 0 0 1-.16.02 1.49 1.49 0 0 1-.35-.04 2.64 2.64 0 0 1-.32-.1q-.17.39-.23.88a16.06 16.06 0 0 0-.09 1 55.22 55.22 0 0 1-.07 1.04q-.04.52-.17.95a1.28 1.28 0 0 1 .04.3v.34a1.2 1.2 0 0 0 .1.53 10.2 10.2 0 0 0-.08.33 5.36 5.36 0 0 1-.06.31 10.59 10.59 0 0 1 .03.4v.74a1.62 1.62 0 0 1-.03.35 12 12 0 0 1-.4.22q-.19.1-.38.27a.57.57 0 0 0-.47-.3.58.58 0 0 0-.11.27.17.17 0 0 1-.19.16l-.45-.35a2.4 2.4 0 0 1-.39-.41q-.02-.04-.02-.1a.39.39 0 0 1 .04-.17.35.35 0 0 0 .04-.16q0-.23-.06-.41a6.89 6.89 0 0 1-.05-.5q-.03-.24-.03-.48a4.17 4.17 0 0 1 .05-.64 2.85 2.85 0 0 1 .19-.65q.21-.56.3-1.19a16.18 16.18 0 0 0 .13-1.26 27.64 27.64 0 0 0 .05-1.28q0-.64.07-1.23a1.6 1.6 0 0 0-.33-.5.82.82 0 0 1-.18-.6q0-.36.23-.57.24-.2.41-.5a.2.2 0 0 1 0-.06.1.1 0 0 1 .06-.1l.24-2.04.06-.47q.05-.25.07-.47a10.15 10.15 0 0 0 .04-.88 9.49 9.49 0 0 1 .04-.86 231.82 231.82 0 0 0 .19-1.9 20.08 20.08 0 0 0 .08-1.87 13.8 13.8 0 0 0-.03-.9 6.09 6.09 0 0 0-.12-.9 31.98 31.98 0 0 1-.73.21 1.57 1.57 0 0 0-.68.36H8.1a2.3 2.3 0 0 0-.95.2 21.29 21.29 0 0 1-.89.37q-.2.1-.4.13a3.58 3.58 0 0 0-.4.08q-.1.02-.22.12a.83.83 0 0 1-.21.14l-.33.08a.14.14 0 0 0-.12.14.23.23 0 0 0 0 .03q.02.14-.1.18a.33.33 0 0 1-.24.09.56.56 0 0 1-.03 0l-.27-.01h-.08a8.3 8.3 0 0 1-.95.6 3.12 3.12 0 0 1-1.08.31l-.43.28a.89.89 0 0 1-.5.13q-.2 0-.34-.08a1.96 1.96 0 0 1-.25-.52q-.08-.3-.3-.51a.48.48 0 0 0 .13-.26 3.01 3.01 0 0 1 .07-.3 37.53 37.53 0 0 1 1.18-.5q.6-.23 1.14-.56.06.02.17.02.2 0 .36-.06a3.25 3.25 0 0 0 .3-.14q.17-.08.32-.13a.76.76 0 0 1 .27-.05 1.15 1.15 0 0 1 .1 0 7.51 7.51 0 0 1 1.4-.6 6.24 6.24 0 0 0 1.42-.64.33.33 0 0 1 .16.04.29.29 0 0 0 .15.04q.08 0 .1-.02.11-.16.3-.23a4.05 4.05 0 0 1 .4-.12 1.98 1.98 0 0 0 .4-.13q.19-.09.24-.29a.46.46 0 0 0 .3.08 1.4 1.4 0 0 0 .61-.13 1.4 1.4 0 0 1 .62-.14.37.37 0 0 1 .14.03.37.37 0 0 0 .15.03.13.13 0 0 0 .17-.1.26.26 0 0 1 .1-.18q1.2-.21 2.38-.39a16.24 16.24 0 0 1 2.39-.17.69.69 0 0 1 .39-.12.69.69 0 0 1 .39.12 11.42 11.42 0 0 1 .66-.06l.67-.02q.76 0 1.56.1t1.6.3q.78.2 1.5.55a7.8 7.8 0 0 1 1.35.8q.06.18.16.36a.74.74 0 0 0 .25.27v.06q-.02.02-.02.06a.74.74 0 0 0 .13.41.84.84 0 0 1 .13.47 1.78 1.78 0 0 1-.09.55 1.46 1.46 0 0 0-.07.44 1.4 1.4 0 0 0 0 .1 8.6 8.6 0 0 0-.36.57 1.6 1.6 0 0 0-.18.64q-.36.36-.63.77a25.8 25.8 0 0 1-.56.82q-.28.4-.63.74a2.63 2.63 0 0 1-.84.53q-.02.19-.16.42h-.4a.44.44 0 0 1-.2.24l-.28.15a.73.73 0 0 0-.22.2q-.09.12-.09.33-.04-.02-.1-.02a.82.82 0 0 0-.45.2 92.46 92.46 0 0 0-.43.31 8.37 8.37 0 0 1-.67.43 1.9 1.9 0 0 0-.6.55 10.67 10.67 0 0 0-1.48.77q-.7.44-1.52.7a2.24 2.24 0 0 1-.73.51q-.43.19-.82.4v.06a.48.48 0 0 0 .12.3q.12.15.28.26.15.1.34.14a.84.84 0 0 0 .17.02.54.54 0 0 0 .15-.02 3.19 3.19 0 0 0 .9.57q.5.21 1.05.39a26 26 0 0 1 1.08.37q.52.2.97.49h.47q.45.39 1.07.58a32.3 32.3 0 0 0 1.18.36 1.5 1.5 0 0 0 .6.32 2.43 2.43 0 0 0 .69.1h.11l.14-.01v.04a.13.13 0 0 0 .06.12.41.41 0 0 0 .13.04.54.54 0 0 1 .13.04.24.24 0 0 1 .11.09h.2a1.9 1.9 0 0 1 .78.16 1.9 1.9 0 0 0 .78.17.76.76 0 0 0 .27-.04.3.3 0 0 1 .18.16.58.58 0 0 0 .15.2 4.37 4.37 0 0 1 .26-.04h.23a3.14 3.14 0 0 1 .8.1q.37.09.77.28.62-.27 1.23-.45a4.6 4.6 0 0 1 1.28-.17v.04a.82.82 0 0 0 .13.44 3.73 3.73 0 0 1 .23.42q-.04.39-.28.61a.84.84 0 0 1-.6.23 1.17 1.17 0 0 1-.37-.06 2.67 2.67 0 0 1-.88.45q-.51.15-.96.31-.55-.02-1.07-.1-.53-.07-1.1-.04a1.03 1.03 0 0 0-.4-.17 3.24 3.24 0 0 0-.45-.05q-.22-.01-.43-.07a.89.89 0 0 1-.4-.27Zm59.92 1.6h-.13a.41.41 0 0 1-.2.1 3 3 0 0 1-.23.06 1.54 1.54 0 0 0-.24.05.35.35 0 0 0-.17.12q-.22-.08-.47-.08h-.14a6.48 6.48 0 0 1-.62.12 4.74 4.74 0 0 1-.63.04q-.58 0-1.17-.08l-1.17-.14a2.3 2.3 0 0 1-.6-.73q-.24-.44-.24-.93a1.57 1.57 0 0 1 .16-.69q.15-.32.4-.57h.06a.93.93 0 0 0 .36-.08.93.93 0 0 1 .37-.08q.2 0 .32.16a1.12 1.12 0 0 1 .2.37 2.02 2.02 0 0 1 .08.43 4.37 4.37 0 0 1 .02.37 1.36 1.36 0 0 0 .46.11 6.24 6.24 0 0 0 .5.02 6.12 6.12 0 0 0 .56-.03 5.56 5.56 0 0 0 .64-.1q.32-.06.62-.16a1.83 1.83 0 0 0 .52-.25 5.55 5.55 0 0 0 1.9-.5 25.63 25.63 0 0 0 1.73-.91q.04-.21.17-.34a.52.52 0 0 0 .13-.38.45.45 0 0 0-.01-.09.45.45 0 0 1-.01-.09q-.4-.49-.81-.86-.42-.37-1.09-.49-.08-.17-.25-.26l-.37-.17a4.9 4.9 0 0 1-.37-.16q-.18-.09-.26-.3a14.98 14.98 0 0 1-1.08-.25q-.56-.14-.95-.54-.31-.02-.6-.12a50.62 50.62 0 0 1-.55-.22 7.23 7.23 0 0 0-.57-.2q-.29-.08-.6-.08-.08-.14-.22-.22-.13-.07-.3-.13a3.47 3.47 0 0 1-.31-.13q-.15-.07-.23-.2a.19.19 0 0 0-.11.07q-.04.06-.14.06h-.08q-.04-.12-.16-.16-.11-.05-.13-.2a1.93 1.93 0 0 1-.64-.15 3.98 3.98 0 0 1-.52-.26l-.5-.28a2.44 2.44 0 0 0-.57-.22q-.2-.15-.36-.34a.54.54 0 0 0-.42-.18 1.08 1.08 0 0 0-.21.03q-.04-.35-.3-.5a4.25 4.25 0 0 0-.54-.26 3.08 3.08 0 0 0-.53-.9q-.33-.39-.72-.72l.03-.17a.6.6 0 0 0-.1-.35 1.13 1.13 0 0 0-.2-.24 5.77 5.77 0 0 1-.28-1.72 4.69 4.69 0 0 1 .52-2.18 3.3 3.3 0 0 1 1.63-1.51.56.56 0 0 1 .1-.27.56.56 0 0 0 .11-.28q.18 0 .28-.07.1-.08.18-.17a2.25 2.25 0 0 1 .19-.17q.1-.08.25-.1.74-.64 1.58-1.04a193.9 193.9 0 0 0 1.72-.83.64.64 0 0 0 .3-.3h.11a.47.47 0 0 0 .3-.08q.11-.09.33-.05.08-.12.2-.16a3.67 3.67 0 0 1 .26-.06 1.1 1.1 0 0 0 .24-.1q.12-.05.16-.17h.13a1.97 1.97 0 0 0 .65-.1q.31-.11.62-.25h.14a1.84 1.84 0 0 0 .73-.15q.34-.14.73-.2a.86.86 0 0 1 .21-.03.84.84 0 0 1 .1.01l.32.02.23-.02a.26.26 0 0 0 .2-.12h.04a.12.12 0 0 1 .13.08.1.1 0 0 0 .12.08 1 1 0 0 0 .28-.04 1 1 0 0 1 .27-.04A5.82 5.82 0 0 1 85.4.2a38.86 38.86 0 0 0 1.14.21q.04.24.2.34.17.1.37.17V1a.4.4 0 0 0 .08.25.72.72 0 0 1-.28.41 2.27 2.27 0 0 1-.43.24.32.32 0 0 1 .12.21 1.8 1.8 0 0 1 .02.26v.23l-.1-.02q-.3 0-.3.3a1.39 1.39 0 0 0-.57-.2 4.65 4.65 0 0 0-.6-.04q-.38 0-.81.03-.43.03-.84-.01a.9.9 0 0 1-.4.28q-.23.09-.46.09a1.16 1.16 0 0 1-.49-.1.64.64 0 0 1-.33-.33.48.48 0 0 0-.18-.04h-.17q-.31 0-.62.07l-.61.16a76.3 76.3 0 0 0-.62.17 2.83 2.83 0 0 1-.61.1.6.6 0 0 1-.32.22q-.2.06-.3.22-.42.08-.75.26-.33.19-.65.4l-.6.41a3.16 3.16 0 0 1-.67.33q-.27.3-.5.47-.24.18-.6.32-.24.07-.27.23a.67.67 0 0 1-.17.31q-.11.14-.28.2-.17.08-.28.23-.1.14-.15.33a5.85 5.85 0 0 1-.1.36 3.12 3.12 0 0 1-.14.34q-.08.16-.24.28v.16a1.12 1.12 0 0 0-.02.13q0 .28.07.56a3.4 3.4 0 0 1 .09.56 6.44 6.44 0 0 0 .91 1.24 9.94 9.94 0 0 0 1.14 1.02q.6.47 1.26.88l1.3.8a1.23 1.23 0 0 1 .1 0 .98.98 0 0 1 .33.05q.2.07.4.09a1.8 1.8 0 0 0 .55.27l.63.2a6.09 6.09 0 0 1 .6.22q.3.13.5.34a1.14 1.14 0 0 1 .17.05.5.5 0 0 0 .17.03.12.12 0 0 0 .14-.08q.88.34 1.72.74.84.4 1.78.61a4.5 4.5 0 0 0 .82.55 60.1 60.1 0 0 1 .9.48q.44.24.86.52a3.38 3.38 0 0 1 .72.68 2.92 2.92 0 0 0 .16.71 2.09 2.09 0 0 1 .13.73 1.62 1.62 0 0 1-.02.3.4.4 0 0 0-.16.1.17.17 0 0 1-.13.06.4.4 0 0 1-.06 0 .97.97 0 0 1-.2.48 4.38 4.38 0 0 1-.32.36l-.32.36a.91.91 0 0 0-.2.47 2.75 2.75 0 0 0-.57.42 1.99 1.99 0 0 1-.5.36 1.84 1.84 0 0 1-.33.13 2.54 2.54 0 0 0-.35.13 143.35 143.35 0 0 0-1.17.53q-.6.27-1.24.27Zm-15.91-3.79-.36.18q-.17.07-.23.21-.22-.06-.42-.08l-.4-.02a3 3 0 0 0-.53.05q-.27.05-.43.27a.48.48 0 0 0-.17-.04h-.16a3.74 3.74 0 0 0-.6.04 3.74 3.74 0 0 1-.6.05l-.3-.02a.51.51 0 0 1-.26-.11 1.17 1.17 0 0 1-.37.06q-.25 0-.49-.08a3.98 3.98 0 0 1-.46-.19 9.8 9.8 0 0 0-.46-.2q-.23-.1-.46-.16l-.14-.27a2.3 2.3 0 0 1-.58-.19 5.73 5.73 0 0 1-.51-.28 51.9 51.9 0 0 0-.5-.3 1.72 1.72 0 0 0-.5-.2l-.18-.16a.42.42 0 0 1-.11-.2q-.26-.06-.47-.16l-.41-.21a2.5 2.5 0 0 0-.44-.2 2.06 2.06 0 0 0-.58-.11q-.12-.18-.33-.34a.73.73 0 0 0-.43-.15q-.14 0-.21.06v.1a.92.92 0 0 0 .13.46.78.78 0 0 0 .35.33.27.27 0 0 0-.01.12.6.6 0 0 0 .04.24q.05.11.19.15a3.65 3.65 0 0 1-.2.44q-.11.23-.29.42-.18.2-.38.32a.85.85 0 0 1-.46.13q-.08.04-.1.12a.69.69 0 0 0-.05.16.69.69 0 0 1-.03.17.23.23 0 0 1-.1.12.93.93 0 0 1-.2.02.84.84 0 0 1-.34-.06q-.14-.06-.3-.16v-.08a.68.68 0 0 0-.08-.37 2.5 2.5 0 0 0-.2-.26 2.5 2.5 0 0 1-.2-.26.68.68 0 0 1-.08-.38.45.45 0 0 1-.13.06.12.12 0 0 0-.08.08 1.74 1.74 0 0 1-.04-.33 2.17 2.17 0 0 1 .12-.74 2.17 2.17 0 0 0 .13-.74v-.3a19.36 19.36 0 0 0-.02-.88l-.02-.86q0-.37.02-.73t.08-.73a50.71 50.71 0 0 0 .36-2.57q.15-1.28.48-2.55a2.14 2.14 0 0 0-.05-.2.68.68 0 0 1-.03-.19q0-.08.02-.1a1.22 1.22 0 0 1 .35-.65.97.97 0 0 1 .7-.27h.07q.23.1.36.29a.35.35 0 0 0 .3.15.64.64 0 0 0 .1 0l-.01.07-.01.08a.38.38 0 0 0 .11.31 6.87 6.87 0 0 0 .28.22 1.34 1.34 0 0 0-.13.45 13.39 13.39 0 0 0-.05.5q-.02.26-.07.5a.84.84 0 0 1-.18.38 1.43 1.43 0 0 1 .1.4 4.13 4.13 0 0 1 .02.4l-.02.44a5.3 5.3 0 0 0-.02.46 1.23 1.23 0 0 0 .05.4q.43 0 .5-.42a3.46 3.46 0 0 0 .9-.38 10.62 10.62 0 0 0 .77-.51 20 20 0 0 0 .73-.57q.37-.3.81-.5v-.05a.13.13 0 0 1 .06-.13q.06-.02.02-.16.3-.1.5-.26a3.33 3.33 0 0 0 .38-.37l.37-.4a2.31 2.31 0 0 1 .43-.38 6.88 6.88 0 0 0 .29-.7 2.8 2.8 0 0 1 .34-.68 6.17 6.17 0 0 1 .8.06 1.7 1.7 0 0 1 .76.27.22.22 0 0 0 0 .05.17.17 0 0 0 .14.16 4.95 4.95 0 0 1-.65 1.48q-.43.65-1.11 1.1a1.25 1.25 0 0 1-.25.37l-.32.3-.3.3a1.25 1.25 0 0 0-.26.38 1.16 1.16 0 0 0-.4.14q-.17.1-.32.22-.14.13-.3.23a1.4 1.4 0 0 1-.37.17 1.59 1.59 0 0 1-.36.33l-.41.27a3.34 3.34 0 0 0-.38.27q-.18.15-.26.38h-.5a1.94 1.94 0 0 1-.56.62 11.6 11.6 0 0 1-.7.46q.07.23.22.38a2.27 2.27 0 0 0 .34.26 12.1 12.1 0 0 1 .37.24q.19.13.33.3.82.32 1.58.72a8.36 8.36 0 0 1 1.44.97q.04-.02.1-.02.16 0 .26.08a.3.3 0 0 0 .2.08.56.56 0 0 0 .07 0 .47.47 0 0 0 .21.26 1.49 1.49 0 0 0 .29.1q.14.04.28.12.14.08.2.27.29.02.53.12.25.1.44.31h.24a6.16 6.16 0 0 1 1.2.12 6.06 6.06 0 0 0 1.2.12 3.68 3.68 0 0 0 .6-.05 2 2 0 0 0 .57-.19 3.2 3.2 0 0 0 .22.12q.11.06.25.06a1.65 1.65 0 0 0 .3-.04q.01.22.14.41a.77.77 0 0 1 .13.43.3.3 0 0 1-.14.26 3.28 3.28 0 0 1-.31.19Zm-14.95-2.97h.1a.48.48 0 0 1-.1.32 1.2 1.2 0 0 1-.26.23 3.49 3.49 0 0 1-.3.17 1.1 1.1 0 0 0-.26.2.41.41 0 0 0-.1.18.22.22 0 0 1-.11.15.5.5 0 0 1-.26.12 5.18 5.18 0 0 0-.28.05l-.28.07q-.14.05-.23.2-.92.09-1.81.25a10.53 10.53 0 0 1-1.83.15 2.7 2.7 0 0 0-.38.03 12.35 12.35 0 0 1-.38.05 17.59 17.59 0 0 1-.81.06q-.4.02-.81.02a13.18 13.18 0 0 1-1.13-.05q-.57-.05-1.12-.17-.13-.1-.31-.15a23.94 23.94 0 0 0-.36-.12 2.34 2.34 0 0 1-.34-.14q-.16-.08-.24-.23a1.55 1.55 0 0 1-.52-.12q-.22-.1-.4-.22a43.42 43.42 0 0 1-.39-.27q-.2-.13-.45-.23a16.42 16.42 0 0 0-.4-.54 1.8 1.8 0 0 0-.5-.44 4.42 4.42 0 0 0-.18-.74 93.93 93.93 0 0 0-.25-.73 7.25 7.25 0 0 1-.22-.74 3.3 3.3 0 0 1-.08-.76q0-.27.07-.66a7.46 7.46 0 0 1 .2-.8q.13-.4.31-.74.18-.36.35-.57a.52.52 0 0 1 .14-.1.39.39 0 0 0 .13-.12 1.88 1.88 0 0 1 .38-.32q.2-.13.4-.3a.67.67 0 0 0 .13-.18q.05-.1.15-.17a.18.18 0 0 1 .1-.03.37.37 0 0 1 .07 0 .29.29 0 0 0 .05.01.22.22 0 0 0 .13-.04.17.17 0 0 0 .08-.14q0-.08.06-.13.02-.02.12-.01a1.9 1.9 0 0 0 .11 0 .48.48 0 0 0 .31-.18q.18-.19.3-.24.13-.08.27-.11a1.25 1.25 0 0 0 .3-.1 2.6 2.6 0 0 1 .41-.2 4.31 4.31 0 0 0 .43-.16.55.55 0 0 0 .2-.14.6.6 0 0 1 .2-.13 2.18 2.18 0 0 1 .39-.1 26.9 26.9 0 0 0 .39-.05l.37-.08a.84.84 0 0 0 .34-.18h.16a2.41 2.41 0 0 0 .68-.1q.33-.1.68-.1a1.65 1.65 0 0 1 .3.04q.15-.1.35-.1a1.47 1.47 0 0 1 .66.17 1.51 1.51 0 0 0 .69.16h.11l.16-.01a.78.78 0 0 0 .52.23.97.97 0 0 1 .51.18 1 1 0 0 1 .23.27 1.9 1.9 0 0 1 .14.33l.12.35q.06.18.16.31a1.76 1.76 0 0 1-.58 1.13 1.75 1.75 0 0 1-1.2.42q-.27 0-.46-.07-.18-.07-.33-.15l-.3-.15a1.4 1.4 0 0 0-.36-.12 2.36 2.36 0 0 0 .28-.84q-.22-.1-.43-.14-.22-.04-.41-.13-.53.13-1.03.18a1.65 1.65 0 0 0-.92.42l-.2-.04-.22-.02a1.47 1.47 0 0 0-.46.17q-.36.16-.76.38a19.92 19.92 0 0 0-.76.43 39.97 39.97 0 0 1-.5.3 1.18 1.18 0 0 0-.27.23 10.85 10.85 0 0 0-.23.28 5.1 5.1 0 0 1-.24.27.69.69 0 0 1-.29.19 1.05 1.05 0 0 1-.14.37 13.5 13.5 0 0 1-.21.33 8.56 8.56 0 0 1-.07.7 5.1 5.1 0 0 0-.05.7v.26a.57.57 0 0 0 .04.22q.2.25.32.56.13.32.44.43a.23.23 0 0 1 .01.06.05.05 0 0 1-.02.04.17.17 0 0 0-.05.1.97.97 0 0 0 .3.34 19.34 19.34 0 0 0 .39.25 5.38 5.38 0 0 1 .37.27.92.92 0 0 1 .27.35q.3 0 .56.1a5.94 5.94 0 0 1 .5.21 13.82 13.82 0 0 0 .48.22 1.14 1.14 0 0 0 .45.1 1.23 1.23 0 0 0 .4-.06q.5.15 1.02.22t1.05.07a10.7 10.7 0 0 0 1.28-.08 43.26 43.26 0 0 1 1.3-.14 2.73 2.73 0 0 1 .44-.04 2.4 2.4 0 0 0 .43-.03q.27-.04.52-.26.24-.21.48-.31a.93.93 0 0 0 .5.14 1.97 1.97 0 0 0 .65-.11 1.97 1.97 0 0 1 .65-.1Zm46.33.41h-.15a.5.5 0 0 0-.5.3 1.27 1.27 0 0 1-.19-.15.96.96 0 0 0-.21-.15q-.45.14-.94.24-.49.1-.98.1h-.27a.93.93 0 0 1-.25-.05q-.2.08-.36.19a.6.6 0 0 1-.35.1.63.63 0 0 1-.27-.07.09.09 0 0 0-.1.08.14.14 0 0 0 0 .02q0 .1-.13.1h-.18a7.27 7.27 0 0 0-.54.01 7.27 7.27 0 0 1-.53.02 3.13 3.13 0 0 1-.77-.1.41.41 0 0 1-.21.06q-.08.04-.12.13a1.74 1.74 0 0 1-.08.16q-.03.07-.1.11a.2.2 0 0 1-.13.04.38.38 0 0 1-.06 0 .6.6 0 0 1-.2.37.52.52 0 0 0-.15.4q-.22.12-.35.3a9.17 9.17 0 0 0-.28.37 5.56 5.56 0 0 1-.28.37 1 1 0 0 1-.36.27.36.36 0 0 0-.07.24.89.89 0 0 0 .01.14q-.21.17-.53.3a1.47 1.47 0 0 1-.58.14q-.57 0-.78-.6a3.26 3.26 0 0 1 .03-.42 2.95 2.95 0 0 1 .08-.43q.06-.2.18-.37.12-.17.33-.25a.26.26 0 0 0-.12-.24q-.11-.07-.1-.24a3.13 3.13 0 0 0 .93-.67q.38-.4.7-.87l.66-.92q.33-.47.74-.85v-.4a3 3 0 0 0 .77-1.41.35.35 0 0 0 .28-.2q.07-.15.07-.37a.12.12 0 0 0 .12-.09q.03-.08.17-.04.18-.47.4-.86l.42-.8a7.38 7.38 0 0 0 .38-.83q.17-.43.25-.95.27-.02.3-.27a5.75 5.75 0 0 1 .07-.44 1.75 1.75 0 0 0 .44-.64 8.94 8.94 0 0 0 .26-.77 12.77 12.77 0 0 1 .26-.8 2.24 2.24 0 0 1 .42-.72v-.05a.12.12 0 0 0-.08-.13.12.12 0 0 1-.07-.13l.02-.04q.23-.1.35-.32a.68.68 0 0 1 .35-.32q.41.33.72.4a6.21 6.21 0 0 0 .82.1q.26.28.29.66a4.22 4.22 0 0 0 .12.75 22.25 22.25 0 0 0 .34 1.22 8.52 8.52 0 0 1 .29 1.22q.06.38.21.7.16.34.22.7a2.06 2.06 0 0 1 .02.28 2.87 2.87 0 0 1-.02.33 1.46 1.46 0 0 0-.01.16 1.01 1.01 0 0 0 .09.43l.13.31q.1.22.17.45l.13.47a17.4 17.4 0 0 1 .28 1.26q.13.68.4 1.22a.54.54 0 0 0 .3.28 1.9 1.9 0 0 0 .46.1q.26.03.5.02h.62a.74.74 0 0 1 .23.03q.08.16.08.28a.47.47 0 0 1-.16.37q-.16.13-.16.31a.4.4 0 0 0 .08.21l-.23-.01a2.55 2.55 0 0 0-.88.15 1.63 1.63 0 0 0 .42.56 5.93 5.93 0 0 0 .56.42.65.65 0 0 1 .4-.16.93.93 0 0 1 .44.1.93.93 0 0 0 .44.12q.18 0 .26-.06a1.83 1.83 0 0 1 .25.36q.1.19.26.34-.06.27-.25.44a1.41 1.41 0 0 1-.44.26 2.08 2.08 0 0 1-.52.13q-.26.03-.47.03h-.19q-.09-.02-.19-.02t-.1.1a.14.14 0 0 1-.09.14 1.11 1.11 0 0 0-.2-.06l-.19-.02q-.14 0-.26.02l-.25.02q-.16 0-.22-.04a.55.55 0 0 1-.12-.1l-.1-.1a.36.36 0 0 0-.14-.1.38.38 0 0 0-.15-.03.19.19 0 0 0-.08.02.1.1 0 0 1-.04 0 .4.4 0 0 1-.22-.12q-.24-.2-.4-.48a10.18 10.18 0 0 1-.33-.6l-.33-.62q-.17-.31-.4-.55Zm31.2-9.45h.05a1.37 1.37 0 0 1-.25.47l-.33.4q-.16.2-.27.43a.84.84 0 0 0-.08.36 1.15 1.15 0 0 0 .02.15.61.61 0 0 1-.1 0l-.1-.02a.7.7 0 0 0-.48.15q-.16.15-.44.25a1.38 1.38 0 0 0-.1-.23.3.3 0 0 0-.17-.15q-.47.1-.94.15a15.42 15.42 0 0 0-.94.13 3.45 3.45 0 0 0-.43.1 7.4 7.4 0 0 1-.45.13.63.63 0 0 1-.2.03.76.76 0 0 1-.05 0 1.28 1.28 0 0 0-.1 0 1.29 1.29 0 0 0-.17.01q-.47.02-1.02.07t-.98.3a3.88 3.88 0 0 0-.4-.06l-.43-.02q-.47 0-1.03.1a2.77 2.77 0 0 0-.99.33 1.06 1.06 0 0 0-.2-.05 1.37 1.37 0 0 0-.25-.02h-.06q-.01.02-.05.02a.7.7 0 0 0 0 .07.69.69 0 0 0 .05.27q.06.16.24.26-.08.22-.08.47a4.56 4.56 0 0 0 .05.66 4.56 4.56 0 0 1 .05.67q0 .37-.1.58a3.93 3.93 0 0 1 .2 1.25 3.54 3.54 0 0 1-.03.46 3.7 3.7 0 0 0-.03.48q0 .22.15.34.16.13.16.35a.35.35 0 0 1-.04.15q.28-.06.53-.16.25-.11.53-.11.15 0 .3.06.15.05.26.15l-.03.22v.63a10.59 10.59 0 0 0 .03.4q-.15.28-.36.5a1.16 1.16 0 0 0-.28.54 1.03 1.03 0 0 0-.52.13q-.22.12-.42.27l-.39.27a.77.77 0 0 1-.43.13q-.3 0-.41-.09-.12-.09-.18-.18a11.43 11.43 0 0 0-.1-.18.16.16 0 0 0-.15-.06.47.47 0 0 0-.06 0q-.04-.25-.15-.48a9.52 9.52 0 0 0-.25-.44l-.25-.44a1.84 1.84 0 0 1-.19-.46 3.99 3.99 0 0 1-.1-.9 4.36 4.36 0 0 1 0-.15 2.78 2.78 0 0 0 0-.1 2.64 2.64 0 0 0-.17-.96 7.66 7.66 0 0 0 .06-.55l.02-.56a19.9 19.9 0 0 0-.03-1.08 55.2 55.2 0 0 1-.05-1.1.81.81 0 0 1-.17-.4 11.33 11.33 0 0 1-.05-.45 2.25 2.25 0 0 0-.12-.11q-.07-.06-.1-.16a1.07 1.07 0 0 0-.23-.04.8.8 0 0 0-.45.13.62.62 0 0 1-.35.13 1.06 1.06 0 0 1-.29-.04 1 1 0 0 0-.27-.04q-.12 0-.13.05a.14.14 0 0 1-.09.08.88.88 0 0 1-.27.08 7.04 7.04 0 0 1-.48.07 16.57 16.57 0 0 1-.5.05 5.15 5.15 0 0 1-.33.02.78.78 0 0 1-.48-.13 7.69 7.69 0 0 0-.4-.28.64.64 0 0 0 .04-.16.46.46 0 0 0-.12-.32.36.36 0 0 1-.11-.22.38.38 0 0 1 .16-.34.47.47 0 0 0 .19-.37q.45-.2.92-.29.46-.1.95-.16a23.02 23.02 0 0 0 .97-.13q.48-.08.95-.26a4.08 4.08 0 0 0 .26.03l.26.01a5.38 5.38 0 0 0 1.17-.13 5.47 5.47 0 0 1 1.18-.12l.31.02a2.63 2.63 0 0 1 .31.06 59.36 59.36 0 0 0 1.56-.26q.77-.13 1.59-.23a33.83 33.83 0 0 1 .77-.07q.38-.03.77-.09.14-.02.2-.07.07-.05.07-.2a.95.95 0 0 0 .4.08 1.82 1.82 0 0 0 .64-.12 1.82 1.82 0 0 1 .64-.12.84.84 0 0 1 .14.01l.12.01a.13.13 0 0 0 .14-.13.2.2 0 0 1 .19-.16 2.09 2.09 0 0 1 .39-.06 20.55 20.55 0 0 0 .54-.05q.28-.03.52-.08.25-.05.37-.14l.13-.22q.35.02.52.3a1.36 1.36 0 0 1 .19.62.26.26 0 0 0 .19.07.48.48 0 0 0 .03 0l.26-.01Zm-15.83 8.9h-.25a.28.28 0 0 0-.16.04q-.06.04-.1.11a2.57 2.57 0 0 0-.13.2q-.37.08-.71.25l-.67.35a58.72 58.72 0 0 1-.65.37 3.98 3.98 0 0 1-.69.3 1.27 1.27 0 0 1-.5.47h-.06a.27.27 0 0 1-.06.01.19.19 0 0 1-.1-.04.28.28 0 0 0-.17-.04q-.06 0-.08.02-.59.39-1.31.39a2.26 2.26 0 0 1-.37-.03 2.26 2.26 0 0 0-.37-.03q-.06 0-.08.04l-.04.08a.51.51 0 0 1-.05.07.19.19 0 0 1-.15.04 1.63 1.63 0 0 1-.42-.06q-.22-.05-.45-.02a3.82 3.82 0 0 1-.7-.48q-.26-.24-.48-.7a1.75 1.75 0 0 0-.26-.42 1.29 1.29 0 0 1-.24-.43 6.03 6.03 0 0 1-.06-.28 19.4 19.4 0 0 1-.08-.44 15.36 15.36 0 0 1-.07-.45 2.63 2.63 0 0 1-.03-.3 3.54 3.54 0 0 1 .03-.45 13.1 13.1 0 0 1 .07-.46 16.38 16.38 0 0 0 .16-1.5q.05-.75.33-1.45a2.3 2.3 0 0 1-.04-.4v-.44q0-.37-.1-.62a1.06 1.06 0 0 0 .16-.57.36.36 0 0 0-.3-.41v-.06q0-.4-.27-.64 0-.69.34-1.03.34-.34.91-.6a.3.3 0 0 0 .06-.16.14.14 0 0 0 0-.03 6.14 6.14 0 0 1 .25.08.74.74 0 0 0 .24.04q.2 0 .35-.06.06.23.3.28a1.61 1.61 0 0 1 .4.13v.25a2.4 2.4 0 0 0 .3 1.15q-.08.16-.1.34l-.02.33.02.47a5.42 5.42 0 0 1 .02.45 2.3 2.3 0 0 1-.05.47.8.8 0 0 1-.23.4l-.03.58a11.36 11.36 0 0 1-.04.66 4.16 4.16 0 0 1-.1.64q-.08.31-.24.5a17.38 17.38 0 0 0-.03.6 17.9 17.9 0 0 0 0 .58 12.46 12.46 0 0 0 .04 1.02 2.44 2.44 0 0 0 .27.97q.1.16.38.24.28.08.46.08.21 0 .44-.07a.52.52 0 0 0 .32-.25.19.19 0 0 1 .16.12.32.32 0 0 0 .13.16 79.57 79.57 0 0 1 2.23-.9 20.56 20.56 0 0 0 2.19-1q.15.08.33.08a1.99 1.99 0 0 0 .39-.04 1.99 1.99 0 0 1 .39-.04h.14l.03.18a.36.36 0 0 1-.15.32.33.33 0 0 0-.16.28q0 .08.08.2a.39.39 0 0 0-.37.17l-.2.4Zm-77.73-5.97v.3q-.04.13-.12.26a1.24 1.24 0 0 0-.12.28 4.06 4.06 0 0 0-.27 1.44v.04a16.77 16.77 0 0 1-.18.43 17.09 17.09 0 0 0-.17.38 1.94 1.94 0 0 0-.12.4q-.04.2-.02.47-.27.69-.72 1.24a31.16 31.16 0 0 0-.88 1.15 3.11 3.11 0 0 0-.75.4q-.34.26-.65.57-.61.2-1.2.45a3.77 3.77 0 0 0-1.05.68q-.37.04-.74.12-.37.08-.73.24h-.23q-.18 0-.25-.08-.26.13-.53.18a3.1 3.1 0 0 1-.55.05 4.9 4.9 0 0 1-.7-.05 30.18 30.18 0 0 1-.68-.1q-.2-.28-.55-.42a10.05 10.05 0 0 1-.63-.29 5.9 5.9 0 0 1-.82-1.51 39.53 39.53 0 0 1-.52-1.65 2.6 2.6 0 0 1 .13-.54q.1-.26.08-.58a7.55 7.55 0 0 1 .93-1.84 12.48 12.48 0 0 1 1.32-1.6.36.36 0 0 1 .05-.19.2.2 0 0 0 .02-.1.52.52 0 0 0-.02-.13q.02.02.08.02a.2.2 0 0 0 .2-.09.32.32 0 0 0 .03-.13.46.46 0 0 0-.01-.08 7.3 7.3 0 0 0 1.28-1.03 5.3 5.3 0 0 1 1.32-.98q.05-.17.2-.29.13-.12.2-.27.63-.18 1.14-.53.5-.35 1.07-.63.32-.17.6-.24l.61-.15a1.8 1.8 0 0 1 .22-.05q.1-.03.21-.03a1.9 1.9 0 0 1 .69.13 1.9 1.9 0 0 0 .68.13 1.2 1.2 0 0 0 .17-.01 1.46 1.46 0 0 0 .14-.03 2.13 2.13 0 0 0 .84.63q.12.29.29.5a10.67 10.67 0 0 0 .34.42 3.29 3.29 0 0 1 .32.45 1.43 1.43 0 0 1 .19.58.83.83 0 0 0-.14.39l-.02.39a10.57 10.57 0 0 0 .01.46 10.12 10.12 0 0 1 0 .44ZM18.42 3.54h-.43a4.04 4.04 0 0 1-.25-.05 4.04 4.04 0 0 0-.24-.05 7.95 7.95 0 0 0-.54-.06 7.27 7.27 0 0 0-.53-.02 13.24 13.24 0 0 0-1.02.04l-1.02.08q-.21.02-.45.02a2.2 2.2 0 0 0-.42.04 1.79 1.79 0 0 0-.28.08 11.58 11.58 0 0 1-.37.14 6.6 6.6 0 0 0-.38.15 2.92 2.92 0 0 1-.32.12q.02.13.02.27v.25q0 .3-.02.59a4.52 4.52 0 0 1-.08.58 1.54 1.54 0 0 1-.06.24 1.54 1.54 0 0 0-.06.23 1.8 1.8 0 0 0-.04.4v.37a21.33 21.33 0 0 0-.05.87 21.33 21.33 0 0 1-.06.88 285.31 285.31 0 0 1-.25 2.56q-.13 1.27-.16 2.56a5.7 5.7 0 0 0 1.23-.41 16.08 16.08 0 0 0 1.15-.6l1.13-.63a7.52 7.52 0 0 1 1.2-.53q.15-.21.37-.35.23-.14.39-.35a.43.43 0 0 0 .29-.09.58.58 0 0 1 .25-.13q.94-.82 1.92-1.54.97-.72 1.87-1.54.08-.28.27-.54l.36-.54q.17-.27.3-.54a1.3 1.3 0 0 0 .14-.59.68.68 0 0 0-.08-.37q-.1-.14-.23-.24a4.48 4.48 0 0 0-.28-.2 1.08 1.08 0 0 1-.26-.26q-.51-.16-1-.35-.49-.2-1-.34a14.1 14.1 0 0 0-.5-.1 2.68 2.68 0 0 0-.51-.05Zm11.76 6.03h-.36q-.11.22-.33.32-.21.11-.37.3-.31.16-.57.39-.27.22-.52.47-.26.24-.5.5-.25.25-.52.46-.25.55-.56.95a13 13 0 0 0-.56.81 4.94 4.94 0 0 0-.45.9 3.29 3.29 0 0 0-.19 1.17v.2l.02.2a2.77 2.77 0 0 1 .42.58.95.95 0 0 0 .56.45 1.96 1.96 0 0 0 .73.14 2.19 2.19 0 0 0 .1 0 2.81 2.81 0 0 1 .13 0 2.63 2.63 0 0 1 .72.1 7.69 7.69 0 0 0 1.8-.58 9.77 9.77 0 0 0 1.66-.97 3.73 3.73 0 0 1 .27-.2 1.25 1.25 0 0 0 .25-.23 1.05 1.05 0 0 0 .17-.21 1.77 1.77 0 0 1 .15-.22 5.94 5.94 0 0 1 .35-.5 4.8 4.8 0 0 1 .4-.48q.1-.43.26-.83a100.8 100.8 0 0 1 .31-.79 6.78 6.78 0 0 0 .27-.8q.1-.4.1-.86v-.21l-.03-.22a.78.78 0 0 0 .15-.47q0-.1-.02-.17-.2-.06-.37-.16-.17-.1-.39-.1-.13 0-.27.06-.02-.13-.1-.2a1.38 1.38 0 0 0-.2-.1 1.43 1.43 0 0 0-.22-.08.41.41 0 0 1-.19-.1 10.89 10.89 0 0 0-.12-.33q-.07-.16-.25-.24a1.4 1.4 0 0 1-.4.28 10.57 10.57 0 0 1-.49.2q-.24.1-.46.24-.23.14-.38.33Zm66.5 1.25v-.06a1.17 1.17 0 0 1-.25-.47l-.15-.57q-.07-.28-.18-.53a.92.92 0 0 0-.34-.4q-.06.12-.06.28a1.04 1.04 0 0 0 .03.25 1.04 1.04 0 0 1 .03.25.58.58 0 0 0-.28.3.68.68 0 0 1-.29.33 5.27 5.27 0 0 1-.44 1.18 26.3 26.3 0 0 1-.62 1.1 26.3 26.3 0 0 0-.61 1.1q-.3.56-.47 1.17-.26.17-.34.45-.1.27-.1.54a.9.9 0 0 0 .4.11 10.12 10.12 0 0 0 .45.01 2.09 2.09 0 0 1 .4.04.68.68 0 0 1 .36.2 2.81 2.81 0 0 1 .56-.11 1.03 1.03 0 0 0 .5-.17 2.52 2.52 0 0 0 .83.14 2.67 2.67 0 0 0 .46-.04 4.79 4.79 0 0 0 .44-.1q.18.04.27.13.1.09.3.07a.3.3 0 0 0 .11-.17.34.34 0 0 1 .1-.16 1.27 1.27 0 0 0-.12-.48q-.1-.15-.15-.36a3.23 3.23 0 0 1-.1-.59q-.04-.31-.1-.6-.13-.67-.3-1.33-.16-.67-.42-1.3a.4.4 0 0 0 .08-.2Z" vector-effect="non-scaling-stroke" stroke-linecap="round" fill-rule="evenodd" font-size="12" stroke="#000" stroke-width=".94" fill="none" style="stroke:#000;stroke-width:.25mm;fill:none"/></svg>