<svg width="69.78" height="20.89" xmlns="http://www.w3.org/2000/svg"><path d="M59.6 20.6h-.5q-.29 0-.46-.18-.17-.18-.17-.47V.64q0-.3.17-.47.17-.17.46-.17h.5q.29 0 .46.17.17.18.17.47V10.9L66.7 6q.4-.33.6-.41.18-.09.62-.09h.55q.26 0 .42.16.16.16.16.42 0 .12-.07.28-.08.16-.3.3l-7.34 5.57 8.06 7.2q.38.34.38.57 0 .26-.16.42-.16.16-.43.16h-.46q-.43 0-.62-.07-.2-.07-.6-.42l-7.28-6.47v6.32q0 .3-.17.47-.17.17-.46.17Zm-58.44 0H.64q-.3 0-.47-.18-.17-.18-.17-.47v-19Q0 .65.17.48.35.29.65.29H7.4q3.04 0 4.85 1.45 1.82 1.45 1.82 4.4 0 2.33-1.16 3.72-1.16 1.4-3.22 1.89l4.67 7.94q.08.18.08.32 0 .23-.17.4-.17.18-.4.18h-.35q-.47 0-.7-.25-.23-.24-.4-.53L7.8 12H1.83v7.94q0 .3-.18.47-.17.17-.49.17Zm16.88-6.22V6.15q0-.3.17-.47.18-.17.47-.17h.49q.29 0 .46.17.18.18.18.47v8.09q0 4.96 4.32 4.96 2.06 0 3.3-1.32 1.25-1.32 1.25-3.64v-8.1q0-.28.18-.46.17-.17.46-.17h.5q.28 0 .46.17.17.18.17.47v13.8q0 .3-.17.47-.18.17-.47.17h-.49q-.29 0-.46-.17-.18-.18-.18-.47V18.6q-.78 1.02-1.87 1.65-1.09.64-2.97.64-1.97 0-3.26-.86-1.3-.85-1.92-2.33-.62-1.48-.62-3.3Zm18.9 4.21v1.36q0 .3-.17.47-.17.17-.46.17h-.5q-.28 0-.46-.17-.17-.18-.17-.47V.64q0-.3.17-.47.18-.17.47-.17h.49q.29 0 .46.17.18.18.18.47V7.5q.72-.96 1.9-1.62 1.17-.67 2.97-.67 1.71 0 2.87.61 1.16.6 1.89 1.62.72 1.02 1.07 2.27.35 1.24.38 2.52l.02.81-.02.81q-.03 1.28-.38 2.53-.35 1.24-1.07 2.26-.73 1.01-1.89 1.62-1.16.61-2.87.61-1.8 0-2.97-.65-1.18-.65-1.9-1.64Zm4.7.6q1.72 0 2.7-.75.99-.75 1.42-1.97.44-1.21.5-2.6.02-.82 0-1.63-.06-1.4-.5-2.61-.43-1.22-1.42-1.97-.98-.76-2.7-.76-1.59 0-2.62.76-1.03.75-1.54 1.88-.5 1.13-.53 2.3-.03.43-.03 1.12 0 .7.03 1.13.05 1.2.53 2.37.48 1.17 1.5 1.96 1.01.78 2.67.78ZM1.84 2.04v8.24h5.42a5.77 5.77 0 0 0 3.76-1.03q1.23-1.03 1.23-3.1 0-2.05-1.23-3.08a5.77 5.77 0 0 0-3.76-1.03H1.83ZM53.1 20.6h-.5q-.28 0-.46-.17-.17-.18-.17-.47V6.15q0-.3.17-.47.18-.17.47-.17h.49q.29 0 .46.17.18.18.18.47v13.8q0 .3-.18.47-.17.17-.46.17Zm.29-18.18h-1.1q-.3 0-.47-.18-.17-.17-.17-.46V.67q0-.3.17-.48Q52 0 52.3 0h1.1q.29 0 .48.19t.19.48v1.1q0 .29-.2.46-.18.18-.47.18Z" vector-effect="non-scaling-stroke" stroke-linecap="round" fill-rule="evenodd" font-size="12" stroke="#000" stroke-width=".94" fill="none" style="stroke:#000;stroke-width:.25mm;fill:none"/></svg>