<svg width="175.92" height="20.38" xmlns="http://www.w3.org/2000/svg"><path d="M168.08 11.74h-4.14q-1.58-5.12-1.64-10h5.84q-.42 1.86-.42 3.95t.68 4.77l.48-1.89.5-1.93q.16-.58.49-1.64.33-1.06.6-1.59.27-.53.67-1.19.72-1.18 1.9-1.6.34-.1 1.38-.21 1.04-.11 1.5-.41-.54 1.24-1.12 2.12-.68.16-1.14.16-.46 0-.88-.06-.62.74-1.12 1.98-.5 1.24-.75 2.22-.25.98-.55 2.4-1.52 7.24-3.04 10.28-1 .3-2.48.58 2-3.42 3.24-7.94Zm-140.3-.94h.16q1.28 0 2.41.4 1.13.4 2.06.8.93.4 1.5.4t.83-.08q0-1.32-.82-2.18-.44-.46-.75-.71-.31-.25-.95-.69l-.34-.24q-1.36-.94-2.24-1.91-.88-.97-1.28-2.39.64-1.42 1.26-2.46 1.9-.46 3.94-.46h.88q1.72 0 3.94.48-.32 1.32-.78 2.38-1.68.12-2.6.12.18-.46.34-1.32-.8-.12-1.71-.12-.91 0-1.77.12.54.92 1.28 1.5t1.87 1.15q1.13.57 1.84 1.05.71.48 1.57 1.58.86 1.1 1.08 2.3-.96 1.24-2.54 2.19t-3.24 1.27q-1.12-.1-2.83-.63t-2.57-.53q-.86 0-1.72.54.36-1.02 1.18-2.56Zm82.5 0h.16q1.28 0 2.41.4 1.13.4 2.06.8.93.4 1.5.4t.83-.08q0-1.32-.82-2.18-.44-.46-.75-.71-.31-.25-.95-.69l-.34-.24q-1.36-.94-2.24-1.91-.88-.97-1.28-2.39.64-1.42 1.26-2.46 1.9-.46 3.94-.46h.88q1.72 0 3.94.48-.32 1.32-.78 2.38-1.68.12-2.6.12.18-.46.34-1.32-.8-.12-1.71-.12-.91 0-1.77.12.54.92 1.28 1.5t1.87 1.15q1.13.57 1.84 1.05.71.48 1.57 1.58.86 1.1 1.08 2.3-.96 1.24-2.54 2.19t-3.24 1.27q-1.12-.1-2.83-.63t-2.57-.53q-.86 0-1.72.54.36-1.02 1.18-2.56ZM76.34 1.74h2.38q.12 2.1.12 4.43 0 2.33-.2 5.57h-1.92q-3.88-2.08-7.12-5.66.16 1.34.16 2.75t-.1 2.91h-2.34q.4-2.46.4-4.55t-.2-3.31q-.8-1.2-1.26-2.14h5.68q.84 1.44 2.29 2.97Q75.68 6.24 77 7.1q0-2.92-.66-5.36Zm-52.88 0h2.56q.08 1.3.08 3.79t-.32 5.31q-2.08 1.34-4.98 1.34-3.86 0-6.24-1.34-.26-2.16-.26-4.19 0-2.03.3-4.91h5.38q-.8 4.34-.84 8.34.84.76 2.42.76t2.42-.56q.04-.66.04-1.9 0-3.16-.56-6.64ZM11.18 5.22l-.02.68q-1.6.86-4 1.34 1.72.46 3.32.46h.42q1.1 1.62 1.42 4.04H7.14q-.2-1.4-.81-2.41-.61-1.01-1.49-1.37-.02.34-.02 1.36t.12 2.42H.58Q0 8.84 0 6.35q0-2.49.28-4.61h10.44q.46 2.02.46 3.48Zm54.24 6.36v.16h-4.64q-.08-1.14-.34-2.36-1.24 1.26-2.8 2.36h-4.66q-.14-.82-.14-2.17t.4-2.71q1.44-.42 2.77-1.42t1.93-2.16q-.54-.84-1.14-1.54h6.64q1.98 4.3 1.98 9.84Zm95.8 0v.16h-4.64q-.08-1.14-.34-2.36-1.24 1.26-2.8 2.36h-4.66q-.14-.82-.14-2.17t.4-2.71q1.44-.42 2.77-1.42t1.93-2.16q-.54-.84-1.14-1.54h6.64q1.98 4.3 1.98 9.84ZM48.98 8.68l2.4.08q-.3 1.8-.8 2.98h-9.82q-.38-2.56-.38-5.3 0-2.74.28-4.7h5.76Q45.1 6.8 45.06 10.2q.94.22 1.8.22.86 0 1.37-.39.51-.39.75-1.35Zm95.8 0 2.4.08q-.3 1.8-.8 2.98h-9.82q-.38-2.56-.38-5.3 0-2.74.28-4.7h5.76q-1.32 5.06-1.36 8.46.94.22 1.8.22.86 0 1.37-.39.51-.39.75-1.35Zm-16.82.16v.4q0 1.14.1 2.5h-4.4q-.82-3.18-.82-6.76 0-1.82.22-3.24h10.84q.58 2.26.64 5.38-2.96 1.32-6.58 1.72ZM93.4 1.28q3.86 0 6.28.96.86 1.72.86 3.48 0 2.26-1.54 3.92-2.24 2.38-6.06 2.38-1.32 0-3.58-.3-.78-4.02-.78-7.42 0-1.18.12-2.56 3.22-.46 4.7-.46Zm9.48.46h5.4v.54q0 5.28-.66 9.46h-4.8q.38-1.84.38-4.25t-.32-5.75ZM94 2.78q-.36 3.76-.36 5.39t.06 2.65q1.08-.58 1.69-1.95Q96 7.5 96 6.09q0-1.41-.51-2.31-.51-.9-1.49-1ZM60.08 7.92q-.52-1.78-1.36-3.36-.94 2.76-1.08 5.22 1.44-.74 2.44-1.86Zm95.8 0q-.52-1.78-1.36-3.36-.94 2.76-1.08 5.22 1.44-.74 2.44-1.86Zm-27.9-.46q1.28-.16 2.14-.64-.32-2.12-1.72-3.76-.32 1.98-.42 4.4ZM5.26 3.08q-.24 1.76-.36 3.46 1.1-.16 1.8-.78-.38-1.34-1.44-2.68Z" vector-effect="non-scaling-stroke" stroke-linecap="round" fill-rule="evenodd" font-size="12" stroke="#000" stroke-width=".94" fill="none" style="stroke:#000;stroke-width:.25mm;fill:none"/></svg>