<svg width="53.11" height="19.84" xmlns="http://www.w3.org/2000/svg"><path d="M2.65 7.28Q1.53 6.9.99 6.14.45 5.38.45 4.06q0-1.84 1.4-2.95Q3.25.01 4.7.01q1.45 0 2.56.64 1.1.65 1.1 1.77 0 .68-.41 1.04-.42.36-1.01.36-.6 0-.94-.33-.35-.33-.35-.62t.1-.29q.12 0 .2.13.08.13.14.3.16.41.69.41.53 0 .84-.26.3-.26.3-.74 0-.88-.97-1.44Q5.97.42 4.73.42q-1.24 0-2.32.76-1.08.76-1.08 1.92 0 .78.55 1.3.55.5 1.24.72.69.22 1.8.52 1.1.3 1.73.58 2.16.96 2.16 3.46 0 1.26-.47 2.22-.47.96-1.2 1.46-1.41.96-2.85.96-1.32 0-2.72-.82-.68-.4-1.12-1.12Q0 11.66 0 10.7t.53-1.42q.53-.45.94-.45.4 0 .7.18.3.18.3.4 0 .22-.1.22t-.14-.06l-.1-.14q-.13-.2-.64-.2t-.82.43q-.31.43-.31 1.1 0 1.43 1.22 2.3 1.22.87 2.62.87 1.92 0 3.06-1.3.66-.78.66-2T7.1 8.8q-.83-.6-2.33-.96-1.5-.35-2.12-.55Zm49.76 4.94.12-.46q.18 0 .18.24-.02.88-.71 1.56-.7.68-1.46.68-.77 0-1.4-.42-.61-.42-1-1.16l-1.23-2.42q-1.46.96-2.26 1.88-.8.92-.84 2.02h-.4q0-1.32.8-2.22.8-.9 2.52-2.04l-1.14-2.26q-1.04-2.04-1.72-2.04-.74 0-1.06 1.26-.1.44-.14.46-.18 0-.18-.23t.19-.7q.19-.49.75-1.02t1.28-.53q.72 0 1.39.51.67.51 1.1 1.41l1.13 2.22q1.46-.94 2.2-1.9.76-.98.82-2.18h.4q0 1.4-.74 2.35-.74.95-2.48 2.1l1.74 3.43q.38.72 1.06.72.44 0 .7-.4.28-.42.38-.86ZM10.8 4.88h2v1.14q1.78-1.32 3.12-1.32 1.18 0 2.3.96.6.5.98 1.51t.38 2.37q0 2.28-1.07 3.54-1.07 1.26-2.9 1.26-1.11 0-1.9-.45-.8-.45-.91-1.33v6.58h-2V4.88Zm30.4 4.26v5h-2v-1.58q-.14.78-.9 1.28t-1.74.5q-1.44 0-2.55-.8-1.11-.82-1.11-2.26 0-.84.4-1.46.42-.62 1.06-.92 1.18-.6 2.3-.6 1.12 0 2.54.6-.02-2.32-.57-3.09-.55-.77-1.7-.77-1.13 0-1.96.42-.83.42-.83 1.12 0 .24-.21.24t-.21-.22q0-.84.93-1.39.93-.55 2.75-.55 3.8 0 3.8 4.48Zm-13.08.18v4.82h-2V4.88h2v2.36q.48-1.16 1.25-1.93t1.55-.77q.78 0 1.27.27t.49.83q0 .22-.17.34-.17.12-.43.12t-.42-.15q-.16-.15-.21-.33-.05-.18-.25-.33-.2-.15-.56-.15-.88 0-1.64 1.28-.76 1.28-.88 2.9ZM12.8 6.48v5.48q.06-.5.34-.88.48-.66.92-.66.16 0 .16.2 0 .1-.36.34-.68.48-.68 1.23t.7 1.25q.72.5 1.5.5 2.2 0 2.2-4.66 0-1.76-.71-2.93-.71-1.17-1.61-1.17-.9 0-2.46 1.3Zm8.76-1.58h2v9.26h-2V4.9Zm17.64 7.08V9.26q-1.44-.58-2.35-.58-.91 0-1.43.76-.52.76-.52 1.86t.43 1.87q.43.77 1.3.77.87 0 1.53-.45t.66-1.07q0-1.08-.72-1.48-.3-.18-.3-.34 0-.16.14-.16t.38.16q.72.5.88 1.38ZM21.8 3.01q-.3-.3-.3-.75 0-.44.3-.75.32-.3.76-.3t.75.3q.3.31.3.75t-.3.75q-.31.31-.75.31t-.75-.3Z" vector-effect="non-scaling-stroke" stroke-linecap="round" fill-rule="evenodd" font-size="12" stroke="#000" stroke-width=".94" fill="none" style="stroke:#000;stroke-width:.25mm;fill:none"/></svg>