<svg width="43.66" height="15.1" xmlns="http://www.w3.org/2000/svg"><path d="m0 13.84.36-1.24q1.6.56 3.28.56 1.18 0 1.73-.58t.55-1.78q0-1.2-.3-1.82-.3-.62-1.26-.76l-1.98-.28Q.98 7.72.51 6.8.04 5.88.04 4.02q0-1.86.97-2.89T3.69.1Q5.4.1 7.12.74l-.36 1.2q-1.5-.42-2.71-.42t-1.77.5q-.56.48-.56 1.82t.29 1.92q.29.58 1.17.7l1.88.28q1.28.2 1.91 1.05.63.85.63 2.73t-.9 2.97q-.9 1.1-2.95 1.1-2.05 0-3.75-.75Zm30.26-7v7.5h-.9l-.26-.98q-.48.54-1.08.83-.6.3-1 .34-.4.05-1.13.05-.73 0-1.29-.26t-.84-.78q-.44-.84-.44-2.26 0-1.8 1.04-2.34.42-.2.75-.32t1-.18q.67-.06 1.14-.07.47 0 1.37-.03v-1.5q0-1.04-.44-1.4-.44-.38-1.6-.38-1.16 0-2.52.44l-.32-1q1.56-.76 3.3-.76 2.08 0 2.68.84.32.46.43.96.11.5.11 1.3Zm-18.24-4.7h.74v1.8h1.84v1.18h-1.84v6.72q0 .86.18 1.22t.68.36q.5 0 .9-.08l.14 1q-.72.24-1.37.24-.65 0-1.06-.14-.41-.14-.63-.34-.22-.2-.34-.6-.14-.54-.14-1.66V5.12H9.7v-.88l1.42-.3.9-1.8Zm28.4 0h.74v1.8H43v1.18h-1.84v6.72q0 .86.18 1.22t.68.36q.5 0 .9-.08l.14 1q-.72.24-1.37.24-.65 0-1.06-.14-.41-.14-.63-.34-.22-.2-.34-.6-.14-.54-.14-1.66V5.12H38.1v-.88l1.42-.3.9-1.8ZM18.9 6.24v8.1h-1.64V3.94h.9l.32 1.22q1.46-1.42 3.48-1.44l-.16 1.44q-1.82 0-2.9 1.08Zm14.76 8.1V3.94h1.64v10.4h-1.64Zm-5.04-2.8V9.48q-2.04 0-2.43.15-.39.15-.69.31-.54.28-.54 1.1v.46q0 .98.3 1.38.3.4 1.43.4t1.53-.45q.4-.45.4-1.29ZM34.04.02q.14-.02.44-.02t.44.02q.14.02.3.12.3.14.3.7 0 .54-.06.75-.06.21-.23.3-.17.1-.31.11-.14.02-.44.02T34.04 2q-.14-.02-.3-.1-.3-.16-.3-.7 0-.56.06-.77.06-.2.23-.3.17-.09.31-.1Z" vector-effect="non-scaling-stroke" stroke-linecap="round" fill-rule="evenodd" font-size="12" stroke="#000" stroke-width=".94" fill="none" style="stroke:#000;stroke-width:.25mm;fill:none"/></svg>