<svg width="89.69" height="15.55" xmlns="http://www.w3.org/2000/svg"><path d="M69.51 14.75h-1.85V8.17a2.75 2.75 0 0 0-.58-1.84 2.02 2.02 0 0 0-1.62-.68q-.67 0-1.35.4t-1.04.92v7.78H61.2V0h1.86v5.44a2.76 2.76 0 0 1 1.2-.96q.82-.39 1.7-.39 1.66 0 2.6 1.1a4.43 4.43 0 0 1 .94 2.98v6.58ZM40.28 4.29h1.86v6.67q0 2.42 2.1 2.42a2.89 2.89 0 0 0 1.68-.53 2.53 2.53 0 0 0 1-1.22V4.3h1.86v10.46h-1.86V13.3a2.89 2.89 0 0 1-1.25 1.13 3.84 3.84 0 0 1-1.84.51 3.4 3.4 0 0 1-2.63-.98 3.98 3.98 0 0 1-.92-2.8V4.28Zm-29.02-2.1H6.5v12.56H4.55V2.2H0V.44h11.26V2.2Zm15.88 7.5H19.6q0 1.84 1 2.83.9.86 2.3.86a3.9 3.9 0 0 0 2.65-.93l.78 1.34a3.5 3.5 0 0 1-1.32.74 7.13 7.13 0 0 1-2.48.41q-1.97 0-3.35-1.34-1.53-1.47-1.53-3.96 0-2.59 1.57-4.15a4.57 4.57 0 0 1 3.33-1.4q2.23 0 3.5 1.26 1.23 1.21 1.23 3.21a4.15 4.15 0 0 1-.14 1.14Zm53.8 0h-7.53q0 1.84 1 2.83.9.86 2.29.86a3.9 3.9 0 0 0 2.66-.93l.78 1.34a3.5 3.5 0 0 1-1.32.74 7.13 7.13 0 0 1-2.48.41q-1.98 0-3.35-1.34-1.53-1.47-1.53-3.96 0-2.59 1.57-4.15a4.57 4.57 0 0 1 3.33-1.4q2.23 0 3.5 1.26 1.23 1.21 1.23 3.21a4.15 4.15 0 0 1-.14 1.14ZM30.83 14l-.65.95h-.93V0h1.85v5.06q.27-.36 1-.67.72-.3 1.43-.3 2.14 0 3.48 1.49a5.4 5.4 0 0 1 1.33 3.75q0 2.61-1.34 4.11a4.61 4.61 0 0 1-3.62 1.5 4 4 0 0 1-1.46-.28 2.96 2.96 0 0 1-1.09-.67ZM59.2 5.14l-.92 1.3q-.28-.28-1-.53a4.21 4.21 0 0 0-1.41-.26 2.97 2.97 0 0 0-2.4 1.06 4.38 4.38 0 0 0-.9 2.9q0 1.85.92 2.8a3.3 3.3 0 0 0 2.52.97 4.16 4.16 0 0 0 2.52-.97l.73 1.56a6.68 6.68 0 0 1-3.7.97 4.72 4.72 0 0 1-3.54-1.43 5.34 5.34 0 0 1-1.4-3.9 5.56 5.56 0 0 1 1.46-4 5.24 5.24 0 0 1 3.97-1.52 5.2 5.2 0 0 1 1.75.34q.95.35 1.4.7Zm24.51 6.55V5.75H82.5V4.3h1.21V2.1l1.86-.71v2.9h2.87v1.46h-2.87v5.2q0 1.32.44 1.87.44.56 1.43.56a3.43 3.43 0 0 0 1.48-.36l.27 1.63a10.26 10.26 0 0 1-2.53.3 2.75 2.75 0 0 1-2.1-.93q-.85-.92-.85-2.33Zm-66.7-7.42-.77 1.8a2.13 2.13 0 0 0-1.22-.42 2.17 2.17 0 0 0-1.72.91 3.36 3.36 0 0 0-.74 2.19v6H10.7V4.29h1.86v1.67q1.01-1.87 3.02-1.87a8.44 8.44 0 0 1 1.43.18Zm14.08 2.2v6.04a1.3 1.3 0 0 0 .7.51 2.61 2.61 0 0 0 1.05.36 3.5 3.5 0 0 0 2.72-.9q.82-.92.82-3.06 0-1.77-.96-2.77a3.4 3.4 0 0 0-2.58-1q-.34 0-.95.3a2.38 2.38 0 0 0-.8.52ZM19.65 8.36h5.79q0-1.12-.7-1.88a2.74 2.74 0 0 0-2.1-.82 2.9 2.9 0 0 0-2.08.8 2.9 2.9 0 0 0-.91 1.9Zm53.8 0h5.8q0-1.12-.7-1.88a2.74 2.74 0 0 0-2.1-.82 2.9 2.9 0 0 0-2.09.8 2.9 2.9 0 0 0-.9 1.9Z" vector-effect="non-scaling-stroke" stroke-linecap="round" fill-rule="evenodd" font-size="12" stroke="#000" stroke-width=".94" fill="none" style="stroke:#000;stroke-width:.25mm;fill:none"/></svg>