<svg width="114.43" height="20.14" xmlns="http://www.w3.org/2000/svg"><path d="m12.59 12.69-2.1 2.89-2.73-1.74a16.12 16.12 0 0 0 .44-1.94l-3.32 3.68a8.32 8.32 0 0 0-2.13-1.32Q1.47 13.68 0 13.17q1.94-1.3 2.43-2.97a3.27 3.27 0 0 0 .14-.94 5.1 5.1 0 0 0-1.02-2.8Q.53 4.96.53 3.61A4.29 4.29 0 0 1 3.16 0a38.36 38.36 0 0 0 1.06.59Q2.68 1.64 2.68 2.5a.9.9 0 0 0 .1.42 4.65 4.65 0 0 0 2.87 1.8v.2a11.93 11.93 0 0 1-1.81 6.12q1.56 1 2.3 1 .7 0 2.26-1.9.06-.87.06-2.17a37.92 37.92 0 0 0-.17-3.2l.01-.17a.84.84 0 0 0-.4-.72 20.47 20.47 0 0 1-.83-.6L9.4.7a113.89 113.89 0 0 0 2.83 1.71 3.38 3.38 0 0 0-.72 1.67q-.08.82-.08 1.7l-.06 3.8v.33a5.06 5.06 0 0 0 .27 1.86 1.6 1.6 0 0 0 .95.92Zm77.2-10.1-.86 2.67a6.69 6.69 0 0 0-2.27-1.31 32.18 32.18 0 0 0-.07 2.31q0 1.4.3 3.22l-3.08 1.38q.78.81 2.08 1.22.71.22 1.54.22a10.19 10.19 0 0 0 1.7-.14l-1.7 3.57q-2.85-.93-4.5-1.8a6.75 6.75 0 0 1-2.47-2.05 5.97 5.97 0 0 1-.98-2.86q-.1-1.04-.1-2.14a49.13 49.13 0 0 1 .03-2.04L87.44.9l2.34 1.7Zm-23.12 4.6 1.47-1.86 2.2 1.03q-.12.4-.26.78t-.14.78l-.13 3.96v.06q0 .48.29.79.3.3.67.46l-1.95 2.39-2.13-1.86-2.54 1.86-2.06-1.67a2.1 2.1 0 0 0 .57-1.35l.07-4.44q0-.46-.73-.93l1.49-1.86 2.17 1.03q-.1.4-.24.78-.15.38-.15.78l-.12 3.96a1.13 1.13 0 0 0 0 .05 1.63 1.63 0 0 0 .35.94.38.38 0 0 0 .31.15 2.98 2.98 0 0 0 1.51-.9l.07-4q0-.46-.72-.93ZM30.41 5.32h1.6v2.46h-1.45a51.33 51.33 0 0 1-.04 1.86 142.18 142.18 0 0 0-.05 1.77q-.05 1.85-2.69 8.33-.36-.36-.8-.48a23.2 23.2 0 0 0 .8-5.17 99.93 99.93 0 0 0 .14-4.6 122.75 122.75 0 0 0-.04-3.29q-.02-.79-.79-1.42a29.1 29.1 0 0 0 1.54-1.75 31.33 31.33 0 0 1 1.54-1.77q.9.1 1.93.31a2071 2071 0 0 0 2.02.4 80.46 80.46 0 0 1-.88 1.1l-.88 1.07a4.28 4.28 0 0 0-1.71-.56l-.52.76q.18.4.28.98Zm-15.56.01 2.07 1.43 1.15-1.43 3.11 2.26-.3 1.15-.12 3.14v.06q0 .48.3.79a1.96 1.96 0 0 0 .66.46l-1.95 2.39a8.37 8.37 0 0 1-1.11-1.01 2.92 2.92 0 0 1-.39-1.8v-.21l.07-3.62q0-.4-1.25-1.36l-.4.61-.18 3.7v.05q0 .48.3.79.29.3.67.46l-1.95 2.39-2.06-1.67q.55-.68.55-1.35l.08-4.44q0-.46-.72-.93l1.47-1.86Zm35.51 6.21.03-2.68h-.92l.93-1.76.01-1.46a25.32 25.32 0 0 0-.05-1.52 3.1 3.1 0 0 0-.44-1.48L53.15.89q-.25 1-.3 2.28l1.56-1.56 1.9 2.4-2.3 2.74h1.93l-1.1 2.1h-2.06l-.03 2.76a1.93 1.93 0 0 0 .13.91 6.66 6.66 0 0 0 1.44.83q-1.68 1.86-2.17 2.38a359.3 359.3 0 0 1-2.87-2.2 2.74 2.74 0 0 0 1.08-1.99Zm57.51 0 .03-2.68h-.92l.93-1.76.01-1.46a25.32 25.32 0 0 0-.05-1.52 3.1 3.1 0 0 0-.44-1.48l3.22-1.75q-.24 1-.29 2.28l1.56-1.56 1.9 2.4-2.3 2.74h1.93l-1.1 2.1h-2.06l-.03 2.76a1.93 1.93 0 0 0 .13.91 6.66 6.66 0 0 0 1.44.83q-1.68 1.86-2.17 2.38a359.3 359.3 0 0 1-2.87-2.2 2.74 2.74 0 0 0 1.08-1.99ZM61.15 13.2l-2.17 2.39a794.12 794.12 0 0 0-1.44-1.1 201.14 201.14 0 0 1-1.43-1.1 2.74 2.74 0 0 0 1.09-2l.04-4.05h-.85v-.77q1.33-1.9 3.36-4.93l.5.08a52.6 52.6 0 0 1-.4 1.75 8.62 8.62 0 0 0-.21 1.72h1.72v2.1H59.6l-.02 4.17a1.37 1.37 0 0 0 .13.83 54.99 54.99 0 0 0 1.43.91ZM33.9 5.33l2.03 1.43 1.27-1.3a7.8 7.8 0 0 1 2.65 2.76l-1.56 2.1q-.26-.78-.72-1.37a5.26 5.26 0 0 0-1.5-1.2l-.33.44-.18 3.33a.74.74 0 0 0 0 .05 1.4 1.4 0 0 0 .64 1 4.96 4.96 0 0 0 1.05.71l-1.63 2.3-3.02-2.36a2.19 2.19 0 0 0 .56-1.35l-.02-3.74a1.36 1.36 0 0 0-.72-.94l1.48-1.86Zm39.09 0L75 6.76l1.27-1.3a7.8 7.8 0 0 1 2.66 2.76l-1.57 2.1q-.26-.78-.72-1.37a5.26 5.26 0 0 0-1.5-1.2l-.33.44-.18 3.33a.74.74 0 0 0 0 .05 1.4 1.4 0 0 0 .64 1 4.96 4.96 0 0 0 1.05.71l-1.62 2.3-3.03-2.36a2.19 2.19 0 0 0 .57-1.35l-.02-3.74a1.36 1.36 0 0 0-.73-.94l1.48-1.86ZM40.34 8.47l3.81-3.1 4.32 2.02a1.99 1.99 0 0 0-.77 1.5l-.04 3.23a1.25 1.25 0 0 0 .34.75q.35.42.66.68l-1.97 2.03-1.51-1.56q-.55.44-1.1.8-.56.38-1 .78-1.47-.55-2.74-1.7a2.4 2.4 0 0 0 .42-1.33l-.03-2.95v-.08q0-.57-.39-1.07Zm56.98 3.14-3.24 4.13-4.18-2.06q.67-1.38.67-2.38l-.02-2.28q-.03-.7-.15-.96 2.28-1.53 3.78-2.77.75.33 1.51 1.16 1.65 1.76 1.96 3.69a2.5 2.5 0 0 1 .04.43 1.5 1.5 0 0 1-.37 1.04Zm8.44 0-3.24 4.13-4.18-2.06Q99 12.3 99 11.3l-.02-2.28q-.03-.7-.14-.96 2.27-1.53 3.78-2.77.75.33 1.51 1.16 1.65 1.76 1.95 3.69a2.5 2.5 0 0 1 .04.43 1.5 1.5 0 0 1-.36 1.04ZM22.33 7.2l1.48-1.86L26 6.36a13.71 13.71 0 0 1-.26.78 2.3 2.3 0 0 0-.13.78l-.14 3.96v.1a1.05 1.05 0 0 0 .3.75 1.97 1.97 0 0 0 .67.46l-1.96 2.39-2.07-1.67a2.1 2.1 0 0 0 .57-1.35l.07-4.44q0-.46-.72-.93Zm22.89 1.35-1.53-.82q-.56.84-.56 1.5v2.4a1.63 1.63 0 0 0 .26 1.05l.41.57q.2.26.61.37l.8-.57v-4.5Zm38.7-4.5a2.85 2.85 0 0 0-1.6 2.83 5.85 5.85 0 0 0 .91 3.28A2.15 2.15 0 0 0 84 8.52a13.54 13.54 0 0 0 .06-1.5 46.94 46.94 0 0 0-.13-2.98Zm9.1 3.67L93 11.88q.09.47.67.74a2.52 2.52 0 0 0 .78.27q.19 0 .26-.02.86-.2.86-1.08a2.45 2.45 0 0 0-.05-.46 6.05 6.05 0 0 0-.96-2.44 3.45 3.45 0 0 0-1.53-1.17Zm8.45 0-.03 4.16q.08.47.67.74a2.52 2.52 0 0 0 .78.27q.19 0 .25-.02.86-.2.86-1.08a2.45 2.45 0 0 0-.05-.46 6.05 6.05 0 0 0-.96-2.44 3.45 3.45 0 0 0-1.52-1.17ZM26.3 2.55l-3.68 2.7.78-3.86 2.9 1.16ZM53.35 3.9l-.55.46a29.72 29.72 0 0 0 0 .76v1.63h.47l1.1-1.28a1.76 1.76 0 0 0-1.02-1.57Zm57.5 0-.54.46a29.72 29.72 0 0 0 0 .76v1.63h.47l1.1-1.28a1.76 1.76 0 0 0-1.02-1.57Z" vector-effect="non-scaling-stroke" stroke-linecap="round" fill-rule="evenodd" font-size="12" stroke="#000" stroke-width=".94" fill="none" style="stroke:#000;stroke-width:.25mm;fill:none"/></svg>