<svg width="59.52" height="15.3" xmlns="http://www.w3.org/2000/svg"><path d="M6.88 12.74 11.72.64h1.96L7.92 14.6H5.76L0 .64h1.98l4.82 12.1h.08ZM43.16 9.5v.64h-7.72q.16 1.4 1.04 2.18.88.78 2.67.78t3.31-1h.1v1.76q-1.68.94-3.95.94-2.27 0-3.64-1.39T33.6 9.65q0-2.37 1.22-3.91t3.56-1.54q2.34 0 3.56 1.54 1.22 1.54 1.22 3.76ZM15.54 6.6V4.96q1.74-.76 3.73-.76t3.05 1.16q1.06 1.16 1.06 2.78v6.46h-1.6l-.22-1.28h-.06q-1.44 1.48-3.7 1.48-1.36 0-2.31-.82t-.95-2.24q0-1.42 1.17-2.3 1.17-.88 3.43-.88h2.42V8.4q0-1.32-.65-1.9-.65-.58-2.25-.58t-3 .68h-.12Zm35.54 0V4.96q1.74-.76 3.73-.76t3.05 1.16q1.06 1.16 1.06 2.78v6.46h-1.6l-.22-1.28h-.06q-1.44 1.48-3.7 1.48-1.36 0-2.31-.82t-.95-2.24q0-1.42 1.17-2.3 1.17-.88 3.43-.88h2.42V8.4q0-1.32-.65-1.9-.65-.58-2.25-.58t-3 .68h-.12Zm-19-2.4h.16v1.74h-.16q-1.18 0-2.2.46-1.02.46-1.6 1.28v6.92h-1.82V4.4h1.6l.22 1.28v.3h.04q1.44-1.78 3.76-1.78ZM45.76 0h1.82v14.6h-1.82V0ZM35.44 8.66h5.9q-.08-1.44-.97-2.18-.89-.74-1.99-.74t-1.98.74q-.88.74-.96 2.18ZM21.56 11.7v-1.68h-2.18q-3.02 0-3.02 1.59a1.68 1.68 0 0 0 2.12 1.59q.88 0 1.7-.43t1.38-1.07Zm35.54 0v-1.68h-2.18q-3.02 0-3.02 1.59a1.68 1.68 0 0 0 2.12 1.59q.88 0 1.7-.43t1.38-1.07Z" vector-effect="non-scaling-stroke" stroke-linecap="round" fill-rule="evenodd" font-size="12" stroke="#000" stroke-width=".94" fill="none" style="stroke:#000;stroke-width:.25mm;fill:none"/></svg>