<svg width="57.3" height="17.25" xmlns="http://www.w3.org/2000/svg"><path d="M4.52 16.04 0 0h1.95L4.1 8.32l.41 1.87.43-1.87L7.1 0h1.95L4.52 16.04Zm20.29-4.6V6.83h-.78V5.19h.77V1.73h1.74v3.46h1.66v1.64h-1.66v4.63a5.01 5.01 0 0 0 .1 1.02 2.02 2.02 0 0 0 .3.75q.22.3.56.5a2.77 2.77 0 0 0 .84.26v1.74a3.48 3.48 0 0 1-2.66-1.13q-.88-1.04-.88-3.16Zm31.7-.33h-4.66q.07.83.3 1.4a3.08 3.08 0 0 0 .55.93 1.9 1.9 0 0 0 .69.5q.37.15.74.15a2.18 2.18 0 0 0 .45-.05q.23-.05.44-.12a2.81 2.81 0 0 0 .39-.18 2.59 2.59 0 0 0 .3-.19l.66 1.49a3.9 3.9 0 0 1-.5.26 5.22 5.22 0 0 1-.6.23 5.2 5.2 0 0 1-.67.15q-.34.06-.67.06a3.32 3.32 0 0 1-1.55-.36 3.6 3.6 0 0 1-1.23-1.07q-.52-.7-.82-1.7a8.27 8.27 0 0 1-.3-2.3q0-1.33.31-2.32a5.13 5.13 0 0 1 .82-1.66 3.4 3.4 0 0 1 1.18-1A3.1 3.1 0 0 1 53.73 5a2.55 2.55 0 0 1 1.48.43q.63.44 1 1.24t.46 1.93a7.92 7.92 0 0 1 .02.61 11 11 0 0 1-.18 1.9ZM34.7 8.81v-.2a2.17 2.17 0 0 0-.44-1.44 1.47 1.47 0 0 0-1.18-.52 2.49 2.49 0 0 0-.8.14q-.42.14-.83.38l-.67-1.56a5.34 5.34 0 0 1 1.3-.46A5.8 5.8 0 0 1 33.27 5a3.25 3.25 0 0 1 1.28.24 2.77 2.77 0 0 1 .99.7 3.16 3.16 0 0 1 .63 1.11 4.56 4.56 0 0 1 .23 1.49v7.2l-1.28-.62a2.96 2.96 0 0 1-.83.46 2.84 2.84 0 0 1-.98.16 2.8 2.8 0 0 1-1.23-.27 3 3 0 0 1-.96-.72 3.3 3.3 0 0 1-.63-1.09q-.23-.62-.23-1.35a3.04 3.04 0 0 1 1.12-2.49 5.59 5.59 0 0 1 3.3-1.01ZM19.9 15.56V0h1.74v15.56h-1.74Zm24.5 0V5l1.48 1.03a5.16 5.16 0 0 1 1.3-.74 3.94 3.94 0 0 1 1.43-.27v1.82a5.2 5.2 0 0 0-1.38.16 2.21 2.21 0 0 0-1.04.64v7.92h-1.79ZM12.5 15.4a3.14 3.14 0 0 0 1.4.33q.74 0 1.41-.33a3.44 3.44 0 0 0 1.2-1q.52-.68.83-1.69.32-1 .32-2.35t-.32-2.35q-.3-1-.83-1.68a3.44 3.44 0 0 0-1.2-1 3.14 3.14 0 0 0-1.4-.34q-.74 0-1.41.33a3.44 3.44 0 0 0-1.2 1q-.52.68-.83 1.69-.31 1-.31 2.35t.3 2.36q.32 1 .84 1.67a3.44 3.44 0 0 0 1.2 1.01Zm27 .15V5.19h1.73v10.37h-1.74Zm-25.6-1.53a1.41 1.41 0 0 0 .7-.19 1.81 1.81 0 0 0 .62-.62 3.7 3.7 0 0 0 .45-1.13 7.4 7.4 0 0 0 .17-1.72q0-1.01-.17-1.71t-.45-1.14q-.28-.43-.62-.62-.34-.2-.7-.2a1.41 1.41 0 0 0-.69.2q-.34.19-.62.62a3.77 3.77 0 0 0-.45 1.14q-.17.7-.17 1.71a7.4 7.4 0 0 0 .17 1.72 3.7 3.7 0 0 0 .45 1.13q.28.43.62.62.34.2.7.2Zm20.79-.45v-3.2a5.48 5.48 0 0 0-.09-.01 3.95 3.95 0 0 0-1.03.12q-.48.13-.83.4a1.75 1.75 0 0 0-.52.62 1.86 1.86 0 0 0-.18.83 2.02 2.02 0 0 0 .1.67 1.67 1.67 0 0 0 .31.54 1.36 1.36 0 0 0 .47.36 1.42 1.42 0 0 0 .6.12 1.72 1.72 0 0 0 .66-.12 1.51 1.51 0 0 0 .5-.33Zm17.16-4.1h3.06a9.6 9.6 0 0 0 .02-.58 5.16 5.16 0 0 0-.05-.78 2.69 2.69 0 0 0-.26-.85 1 1 0 0 0-.41-.44 1.14 1.14 0 0 0-.52-.12q-.7 0-1.2.7t-.64 2.06ZM40.42 3.4q-.28 0-.52-.1a1.23 1.23 0 0 1-.4-.26 1.14 1.14 0 0 1-.25-.39q-.09-.22-.09-.46 0-.25.09-.47.09-.22.25-.38.17-.17.4-.27.24-.1.52-.1t.52.1a1.23 1.23 0 0 1 .4.27 1.14 1.14 0 0 1 .25.38q.09.22.09.47 0 .24-.09.46-.09.22-.25.39-.17.16-.4.26-.24.1-.52.1Z" vector-effect="non-scaling-stroke" stroke-linecap="round" fill-rule="evenodd" font-size="12" stroke="#000" stroke-width=".94" fill="none" style="stroke:#000;stroke-width:.25mm;fill:none"/></svg>