<svg width="110.96" height="17.39" xmlns="http://www.w3.org/2000/svg"><path d="M17.46.86h3.62q0 2.36-.47 4.48-.47 2.12-1.14 3.46-.67 1.34-1.35 2.33t-1.16 1.41l-.46.44h-4.54l-1.5-4.86q-.28.94-.87 2.15t-1.05 1.95l-.46.76H3.74L0 .86h6.34l1.14 7.88q.3-.3.75-1.09t.76-1.62q.31-.83.58-2.22.27-1.39.29-2.95h4.3l1.14 7.88q1.4-1.76 1.94-4.92.22-1.4.22-2.96Zm46.76 9.9v-.16q-.06.34-.31.75t-.55.69q-.3.28-.85.5-.55.22-1.45.22-.9 0-1.7-.41-.8-.41-1.24-1.13-.84-1.34-.84-2.95t.46-4.77h3.88v4.32q0 2.2 1.3 2.2.58 0 .86-.52t.28-1.32v-.22l-.18-4.46h4.5l-.28 6.14q-.06 1.3-.19 2.22-.13.92-.48 1.89-.35.97-.91 1.57-1.3 1.36-3.86 1.36-1.8 0-3.38-1.12l-.18-.12.84-1.72q.96.44 1.8.44 1.16 0 1.82-.89.66-.89.66-2.51Zm-20.56 2.22h-3.5l-.4-4.48q-.2-2.14-1.16-2.14-1.14 0-1.22 2.16l-.14 4.46h-3.68l-.42-9.48h4.52l-.08 1.7q.1-.2.46-.62t.7-.68q.88-.68 1.96-.68 1.4 0 2.41 1.18 1.01 1.18 1.01 3.07t-.46 5.51Zm55.28 0h-3.5l-.4-4.48q-.2-2.14-1.16-2.14-1.14 0-1.22 2.16l-.14 4.46h-3.68l-.42-9.48h4.52l-.08 1.7q.1-.2.46-.62t.7-.68q.88-.68 1.96-.68 1.4 0 2.41 1.18 1.01 1.18 1.01 3.07t-.46 5.51ZM51.44 4.1l.24.28L51.52 0h4.56l-.54 12.98h-3l-.34-1.3q-1.2 1.48-2.95 1.49a4.6 4.6 0 0 1-.03 0 3.62 3.62 0 0 1-2.86-1.31q-1.14-1.32-1.14-3.84 0-1.38.39-2.38t1.03-1.5q1.18-.92 2.62-.92.72 0 1.33.29.61.29.85.59ZM73.28 7q0-3.14 1.83-4.78Q76.94.58 80.35.58t5.24 1.64Q87.42 3.86 87.42 7q0 3.14-1.93 4.66t-5.14 1.52q-3.21 0-5.14-1.52-1.93-1.52-1.93-4.66ZM26.76 9.3l-.22-.04q.1.72.63 1.07.53.35 1.27.35 1.22 0 2.08-.74l1.24 1.5q-.32.38-.76.71-.44.33-1.4.68-.96.35-2.1.35-2.26 0-3.79-1.31-1.53-1.31-1.53-3.85 0-1.6.78-2.72 1.42-2.08 4.4-2.08 2.28 0 3.48.91 1.2.91 1.2 2.51 0 1.24-.99 2.01-.99.77-2.89.77-.78 0-1.4-.12Zm78.32 0-.22-.04q.1.72.63 1.07.53.35 1.27.35 1.22 0 2.08-.74l1.24 1.5q-.32.38-.76.71-.44.33-1.4.68-.96.35-2.1.35-2.26 0-3.79-1.31-1.53-1.31-1.53-3.85 0-1.6.78-2.72 1.42-2.08 4.4-2.08 2.28 0 3.48.91 1.2.91 1.2 2.51 0 1.24-.99 2.01-.99.77-2.89.77-.78 0-1.4-.12ZM82.1 6.92q0-4.04-1.75-4.04T78.6 6.92q0 4.04 1.75 4.04t1.75-4.04ZM50.54 5.9a1.84 1.84 0 0 0-1.18 2.4q0 .44.06.84.06.4.36.84.3.44.88.44.58 0 .89-.65.31-.65.31-1.47 0-2.4-1.32-2.4Zm-21.42.56q0-.4-.31-.66t-.85-.26q-.54 0-1.01.48t-.47 1.14q.44.2 1.15.2t1.1-.25q.39-.25.39-.65Zm78.32 0q0-.4-.31-.66t-.85-.26q-.54 0-1.01.48t-.47 1.14q.44.2 1.15.2t1.1-.25q.39-.25.39-.65Z" vector-effect="non-scaling-stroke" stroke-linecap="round" fill-rule="evenodd" font-size="12" stroke="#000" stroke-width=".94" fill="none" style="stroke:#000;stroke-width:.25mm;fill:none"/></svg>